<svg xmlns="http://www.w3.org/2000/svg" xmlns:xlink="http://www.w3.org/1999/xlink" width="300" zoomAndPan="magnify" viewBox="0 0 224.87999 225" height="300" preserveAspectRatio="xMidYMid meet" version="1.0"><defs><clipPath id="d414aa56fb"><path d="M 0 0.0585938 L 224.761719 0.0585938 L 224.761719 224.9375 L 0 224.9375 Z M 0 0.0585938 " clip-rule="nonzero"/></clipPath><clipPath id="99da7e2f95"><path d="M 62.136719 15.269531 L 155.203125 15.269531 L 155.203125 179.296875 L 62.136719 179.296875 Z M 62.136719 15.269531 " clip-rule="nonzero"/></clipPath><clipPath id="df72faa902"><path d="M 62.136719 118.71875 L 62.136719 135.511719 C 62.136719 149.554688 66.347656 160.546875 74.59375 168.121094 C 82.714844 175.570312 94.257812 179.296875 108.789062 179.296875 C 123.445312 179.296875 134.867188 175.570312 142.925781 168.121094 C 151.050781 160.609375 155.203125 149.617188 155.203125 135.511719 L 155.203125 15.269531 L 117.460938 15.269531 L 117.460938 133.375 C 117.460938 137.402344 116.667969 140.394531 115.140625 142.289062 C 114.285156 143.328125 112.761719 144.671875 108.789062 144.671875 C 104.089844 144.671875 102.5625 142.839844 102.074219 142.289062 C 100.484375 140.457031 99.691406 137.464844 99.691406 133.433594 L 99.691406 118.777344 Z M 62.136719 118.71875 " clip-rule="nonzero"/></clipPath><clipPath id="50189c490b"><path d="M 65.375 60.871094 L 96.5 60.871094 L 96.5 92.753906 L 65.375 92.753906 Z M 65.375 60.871094 " clip-rule="nonzero"/></clipPath><clipPath id="fce784c939"><path d="M 94.832031 68.1875 C 94.605469 67.714844 94.359375 67.242188 94.074219 66.808594 C 93.773438 66.355469 93.472656 65.863281 93.074219 65.488281 C 92.699219 65.128906 92.285156 64.789062 91.867188 64.46875 C 91.058594 63.828125 90.167969 63.261719 89.28125 62.734375 C 88.265625 62.109375 87.132812 61.789062 85.980469 61.46875 C 85.28125 61.28125 84.566406 61.128906 83.828125 61.035156 C 83.300781 60.957031 82.734375 60.996094 82.1875 61.054688 C 81.453125 61.109375 80.714844 61.167969 79.980469 61.296875 C 79.433594 61.316406 78.90625 61.335938 78.339844 61.394531 C 78.054688 61.410156 77.773438 61.449219 77.488281 61.488281 C 77.300781 61.523438 77.128906 61.5625 76.960938 61.601562 C 76.261719 61.769531 75.601562 62.070312 75 62.394531 C 73.773438 63.035156 72.601562 63.789062 71.527344 64.636719 C 71.074219 64.996094 70.640625 65.375 70.207031 65.769531 C 69.433594 66.488281 68.789062 67.335938 68.207031 68.203125 C 67.769531 68.828125 67.414062 69.542969 67.109375 70.222656 C 66.882812 70.734375 66.640625 71.242188 66.488281 71.789062 C 66.074219 73.128906 65.753906 74.488281 65.542969 75.867188 C 65.46875 76.414062 65.429688 76.960938 65.414062 77.527344 L 65.414062 78.28125 C 65.429688 78.753906 65.449219 79.339844 65.542969 79.808594 C 65.640625 80.355469 65.734375 80.921875 65.882812 81.453125 C 66.222656 82.546875 66.582031 83.660156 67.167969 84.660156 C 67.46875 85.167969 67.789062 85.679688 68.128906 86.148438 C 68.5625 86.792969 68.996094 87.414062 69.546875 87.960938 C 70.207031 88.640625 70.980469 89.246094 71.773438 89.773438 C 73.433594 90.867188 75.414062 91.492188 77.320312 92.019531 C 77.773438 92.152344 78.242188 92.265625 78.714844 92.359375 C 79.453125 92.507812 80.1875 92.679688 80.921875 92.71875 C 81.507812 92.753906 82.113281 92.699219 82.699219 92.660156 C 83.488281 92.605469 84.28125 92.527344 85.074219 92.359375 C 85.847656 92.1875 86.585938 91.925781 87.300781 91.605469 C 88.433594 91.113281 89.527344 90.433594 90.359375 89.507812 C 91.265625 88.488281 92.132812 87.453125 92.867188 86.300781 C 93.585938 85.1875 94.1875 84 94.773438 82.792969 C 95.246094 81.808594 95.71875 80.792969 95.960938 79.714844 C 96.132812 78.980469 96.285156 78.226562 96.359375 77.488281 C 96.414062 76.921875 96.433594 76.375 96.433594 75.828125 C 96.433594 74.488281 96.359375 73.148438 96.132812 71.828125 C 96.039062 71.300781 95.90625 70.789062 95.71875 70.300781 C 95.414062 69.601562 95.171875 68.882812 94.832031 68.1875 Z M 94.832031 68.1875 " clip-rule="nonzero"/></clipPath><clipPath id="92f93cd73a"><path d="M 108.667969 11.011719 L 162.746094 11.011719 L 162.746094 60.996094 L 108.667969 60.996094 Z M 108.667969 11.011719 " clip-rule="nonzero"/></clipPath></defs><g clip-path="url(#d414aa56fb)"><path fill="#ffffff" d="M 0 0.0585938 L 224.878906 0.0585938 L 224.878906 224.941406 L 0 224.941406 Z M 0 0.0585938 " fill-opacity="1" fill-rule="nonzero"/><path fill="#1d1d1b" d="M 0 0.0585938 L 224.878906 0.0585938 L 224.878906 224.941406 L 0 224.941406 Z M 0 0.0585938 " fill-opacity="1" fill-rule="nonzero"/></g><g clip-path="url(#99da7e2f95)"><g clip-path="url(#df72faa902)"><path fill="#ffffff" d="M 62.136719 15.269531 L 155.203125 15.269531 L 155.203125 179.296875 L 62.136719 179.296875 Z M 62.136719 15.269531 " fill-opacity="1" fill-rule="nonzero"/></g></g><g clip-path="url(#50189c490b)"><g clip-path="url(#fce784c939)"><path fill="#ffffff" d="M 65.375 60.996094 L 96.378906 60.996094 L 96.378906 92.753906 L 65.375 92.753906 Z M 65.375 60.996094 " fill-opacity="1" fill-rule="nonzero"/></g></g><g clip-path="url(#92f93cd73a)"><path fill="#1d1d1b" d="M 108.667969 11.011719 L 162.746094 11.011719 L 162.746094 60.996094 L 108.667969 60.996094 Z M 108.667969 11.011719 " fill-opacity="1" fill-rule="nonzero"/></g></svg>