<svg xmlns="http://www.w3.org/2000/svg" xmlns:xlink="http://www.w3.org/1999/xlink" width="300" zoomAndPan="magnify" viewBox="0 0 224.87999 225" height="300" preserveAspectRatio="xMidYMid meet" version="1.0"><defs><clipPath id="ad0484eb65"><path d="M 0 0.0585938 L 224.761719 0.0585938 L 224.761719 224.9375 L 0 224.9375 Z M 0 0.0585938 " clip-rule="nonzero"/></clipPath><clipPath id="d9ab62948a"><path d="M 64.019531 14.023438 L 157.085938 14.023438 L 157.085938 178.050781 L 64.019531 178.050781 Z M 64.019531 14.023438 " clip-rule="nonzero"/></clipPath><clipPath id="3efb9a6256"><path d="M 64.019531 117.46875 L 64.019531 134.265625 C 64.019531 148.308594 68.234375 159.300781 76.480469 166.875 C 84.601562 174.324219 96.140625 178.050781 110.675781 178.050781 C 125.332031 178.050781 136.753906 174.324219 144.8125 166.875 C 152.933594 159.363281 157.085938 148.371094 157.085938 134.265625 L 157.085938 14.023438 L 119.347656 14.023438 L 119.347656 132.125 C 119.347656 136.15625 118.554688 139.148438 117.027344 141.042969 C 116.171875 142.082031 114.644531 143.425781 110.675781 143.425781 C 105.972656 143.425781 104.449219 141.59375 103.957031 141.042969 C 102.371094 139.210938 101.578125 136.21875 101.578125 132.1875 L 101.578125 117.53125 Z M 64.019531 117.46875 " clip-rule="nonzero"/></clipPath><clipPath id="0786402172"><path d="M 106.78125 9.765625 L 160.859375 9.765625 L 160.859375 59.75 L 106.78125 59.75 Z M 106.78125 9.765625 " clip-rule="nonzero"/></clipPath><clipPath id="35963c9705"><path d="M 64.019531 59.75 L 101.496094 59.75 L 101.496094 111.558594 L 64.019531 111.558594 Z M 64.019531 59.75 " clip-rule="nonzero"/></clipPath><clipPath id="fff9224846"><path d="M 89.550781 109.851562 C 92.121094 108.695312 94.335938 106.949219 96.101562 104.65625 C 97.847656 102.421875 99.199219 99.597656 100.121094 96.28125 C 101.023438 93.027344 101.496094 89.222656 101.496094 84.949219 C 101.496094 80.890625 101.023438 77.28125 100.121094 74.203125 C 99.199219 71.066406 97.828125 68.398438 96.082031 66.261719 C 94.296875 64.101562 92.101562 62.4375 89.511719 61.359375 C 86.984375 60.300781 84.121094 59.75 80.984375 59.75 L 64.019531 59.75 L 64.019531 111.558594 L 80.984375 111.558594 C 84.121094 111.558594 87.003906 110.988281 89.550781 109.851562 Z M 80.140625 71.164062 C 81.53125 71.164062 82.789062 71.398438 83.867188 71.886719 C 84.945312 72.359375 85.828125 73.046875 86.589844 73.988281 C 87.375 74.945312 87.984375 76.183594 88.414062 77.671875 C 88.867188 79.222656 89.082031 81.085938 89.082031 83.203125 L 89.082031 86.714844 C 89.082031 89.085938 88.847656 91.183594 88.394531 92.929688 C 87.964844 94.617188 87.335938 96.007812 86.550781 97.085938 C 85.789062 98.125 84.886719 98.890625 83.828125 99.402344 C 82.746094 99.910156 81.511719 100.183594 80.160156 100.183594 L 76.121094 100.183594 L 76.121094 71.164062 Z M 80.140625 71.164062 " clip-rule="nonzero"/></clipPath></defs><g clip-path="url(#ad0484eb65)"><path fill="#ffffff" d="M 0 0.0585938 L 224.878906 0.0585938 L 224.878906 224.941406 L 0 224.941406 Z M 0 0.0585938 " fill-opacity="1" fill-rule="nonzero"/><path fill="#1d1d1b" d="M 0 0.0585938 L 224.878906 0.0585938 L 224.878906 224.941406 L 0 224.941406 Z M 0 0.0585938 " fill-opacity="1" fill-rule="nonzero"/></g><g clip-path="url(#d9ab62948a)"><g clip-path="url(#3efb9a6256)"><path fill="#ffffff" d="M 64.019531 14.023438 L 157.085938 14.023438 L 157.085938 178.050781 L 64.019531 178.050781 Z M 64.019531 14.023438 " fill-opacity="1" fill-rule="nonzero"/></g></g><g clip-path="url(#0786402172)"><path fill="#1d1d1b" d="M 106.78125 9.765625 L 160.859375 9.765625 L 160.859375 59.75 L 106.78125 59.75 Z M 106.78125 9.765625 " fill-opacity="1" fill-rule="nonzero"/></g><g clip-path="url(#35963c9705)"><g clip-path="url(#fff9224846)"><path fill="#ffffff" d="M 64.019531 59.75 L 101.496094 59.75 L 101.496094 111.558594 L 64.019531 111.558594 Z M 64.019531 59.75 " fill-opacity="1" fill-rule="nonzero"/></g></g></svg>