<svg xmlns="http://www.w3.org/2000/svg" xmlns:xlink="http://www.w3.org/1999/xlink" width="300" zoomAndPan="magnify" viewBox="0 0 224.87999 225" height="300" preserveAspectRatio="xMidYMid meet" version="1.0"><defs><clipPath id="2f0aeed472"><path d="M 0 0.0585938 L 224.761719 0.0585938 L 224.761719 224.9375 L 0 224.9375 Z M 0 0.0585938 " clip-rule="nonzero"/></clipPath><clipPath id="4aebd21aea"><path d="M 62.136719 26.804688 L 155.203125 26.804688 L 155.203125 190.832031 L 62.136719 190.832031 Z M 62.136719 26.804688 " clip-rule="nonzero"/></clipPath><clipPath id="e221853e87"><path d="M 62.136719 130.253906 L 62.136719 147.046875 C 62.136719 161.09375 66.347656 172.085938 74.59375 179.65625 C 82.714844 187.105469 94.257812 190.832031 108.789062 190.832031 C 123.445312 190.832031 134.867188 187.105469 142.925781 179.65625 C 151.050781 172.144531 155.203125 161.152344 155.203125 147.046875 L 155.203125 26.804688 L 117.460938 26.804688 L 117.460938 144.910156 C 117.460938 148.941406 116.667969 151.933594 115.140625 153.824219 C 114.285156 154.863281 112.761719 156.207031 108.789062 156.207031 C 104.089844 156.207031 102.5625 154.375 102.074219 153.824219 C 100.484375 151.992188 99.691406 149 99.691406 144.96875 L 99.691406 130.3125 Z M 62.136719 130.253906 " clip-rule="nonzero"/></clipPath><clipPath id="56516e718e"><path d="M 108.667969 22.546875 L 162.746094 22.546875 L 162.746094 72.53125 L 108.667969 72.53125 Z M 108.667969 22.546875 " clip-rule="nonzero"/></clipPath><clipPath id="947aa702a4"><path d="M 120.207031 37.472656 L 151.328125 37.472656 L 151.328125 69.355469 L 120.207031 69.355469 Z M 120.207031 37.472656 " clip-rule="nonzero"/></clipPath><clipPath id="1201b11262"><path d="M 149.660156 44.785156 C 149.433594 44.3125 149.1875 43.84375 148.90625 43.40625 C 148.605469 42.953125 148.300781 42.464844 147.90625 42.085938 C 147.527344 41.726562 147.113281 41.390625 146.699219 41.066406 C 145.886719 40.425781 145 39.859375 144.113281 39.332031 C 143.09375 38.710938 141.960938 38.386719 140.8125 38.066406 C 140.113281 37.878906 139.394531 37.726562 138.660156 37.632812 C 138.132812 37.558594 137.566406 37.597656 137.019531 37.652344 C 136.28125 37.710938 135.546875 37.765625 134.808594 37.898438 C 134.261719 37.917969 133.734375 37.9375 133.167969 37.992188 C 132.886719 38.011719 132.601562 38.050781 132.320312 38.085938 C 132.132812 38.125 131.960938 38.160156 131.792969 38.199219 C 131.09375 38.371094 130.433594 38.671875 129.828125 38.992188 C 128.601562 39.632812 127.433594 40.390625 126.355469 41.238281 C 125.902344 41.597656 125.46875 41.972656 125.035156 42.371094 C 124.261719 43.085938 123.621094 43.9375 123.035156 44.804688 C 122.601562 45.425781 122.242188 46.144531 121.941406 46.824219 C 121.714844 47.332031 121.46875 47.84375 121.320312 48.390625 C 120.902344 49.730469 120.582031 51.089844 120.375 52.464844 C 120.300781 53.011719 120.261719 53.558594 120.242188 54.125 L 120.242188 54.878906 C 120.261719 55.351562 120.28125 55.9375 120.375 56.410156 C 120.46875 56.957031 120.5625 57.523438 120.714844 58.050781 C 121.054688 59.144531 121.414062 60.257812 121.996094 61.257812 C 122.300781 61.769531 122.621094 62.277344 122.960938 62.75 C 123.394531 63.390625 123.828125 64.015625 124.375 64.5625 C 125.035156 65.242188 125.808594 65.84375 126.601562 66.371094 C 128.261719 67.46875 130.242188 68.089844 132.148438 68.617188 C 132.601562 68.75 133.074219 68.863281 133.546875 68.957031 C 134.28125 69.109375 135.019531 69.277344 135.753906 69.316406 C 136.339844 69.355469 136.941406 69.296875 137.527344 69.257812 C 138.320312 69.203125 139.113281 69.128906 139.90625 68.957031 C 140.679688 68.789062 141.414062 68.523438 142.132812 68.203125 C 143.265625 67.710938 144.359375 67.03125 145.1875 66.109375 C 146.09375 65.089844 146.960938 64.050781 147.699219 62.902344 C 148.414062 61.789062 149.019531 60.597656 149.605469 59.390625 C 150.074219 58.410156 150.546875 57.390625 150.792969 56.316406 C 150.964844 55.578125 151.113281 54.824219 151.191406 54.089844 C 151.246094 53.523438 151.265625 52.976562 151.265625 52.425781 C 151.265625 51.089844 151.191406 49.75 150.964844 48.425781 C 150.867188 47.898438 150.738281 47.390625 150.546875 46.898438 C 150.246094 46.199219 150 45.484375 149.660156 44.785156 Z M 149.660156 44.785156 " clip-rule="nonzero"/></clipPath></defs><g clip-path="url(#2f0aeed472)"><path fill="#ffffff" d="M 0 0.0585938 L 224.878906 0.0585938 L 224.878906 224.941406 L 0 224.941406 Z M 0 0.0585938 " fill-opacity="1" fill-rule="nonzero"/><path fill="#1d1d1b" d="M 0 0.0585938 L 224.878906 0.0585938 L 224.878906 224.941406 L 0 224.941406 Z M 0 0.0585938 " fill-opacity="1" fill-rule="nonzero"/></g><g clip-path="url(#4aebd21aea)"><g clip-path="url(#e221853e87)"><path fill="#ffffff" d="M 62.136719 26.804688 L 155.203125 26.804688 L 155.203125 190.832031 L 62.136719 190.832031 Z M 62.136719 26.804688 " fill-opacity="1" fill-rule="nonzero"/></g></g><g clip-path="url(#56516e718e)"><path fill="#1d1d1b" d="M 108.667969 22.546875 L 162.746094 22.546875 L 162.746094 72.53125 L 108.667969 72.53125 Z M 108.667969 22.546875 " fill-opacity="1" fill-rule="nonzero"/></g><g clip-path="url(#947aa702a4)"><g clip-path="url(#1201b11262)"><path fill="#ffffff" d="M 120.207031 37.597656 L 151.207031 37.597656 L 151.207031 69.355469 L 120.207031 69.355469 Z M 120.207031 37.597656 " fill-opacity="1" fill-rule="nonzero"/></g></g></svg>