<svg xmlns="http://www.w3.org/2000/svg" xmlns:xlink="http://www.w3.org/1999/xlink" width="300" zoomAndPan="magnify" viewBox="0 0 224.87999 225" height="300" preserveAspectRatio="xMidYMid meet" version="1.0"><defs><clipPath id="5567d7b0ee"><path d="M 0 0.0585938 L 224.761719 0.0585938 L 224.761719 224.9375 L 0 224.9375 Z M 0 0.0585938 " clip-rule="nonzero"/></clipPath><clipPath id="f5f86038ca"><path d="M 48.457031 10.78125 L 141.523438 10.78125 L 141.523438 174.808594 L 48.457031 174.808594 Z M 48.457031 10.78125 " clip-rule="nonzero"/></clipPath><clipPath id="ff26d981ef"><path d="M 48.457031 114.230469 L 48.457031 131.023438 C 48.457031 145.070312 52.667969 156.0625 60.914062 163.636719 C 69.035156 171.085938 80.578125 174.808594 95.109375 174.808594 C 109.765625 174.808594 121.1875 171.085938 129.246094 163.636719 C 137.371094 156.125 141.523438 145.132812 141.523438 131.023438 L 141.523438 10.78125 L 103.78125 10.78125 L 103.78125 128.886719 C 103.78125 132.917969 102.988281 135.910156 101.460938 137.804688 C 100.605469 138.839844 99.082031 140.183594 95.109375 140.183594 C 90.410156 140.183594 88.882812 138.351562 88.394531 137.804688 C 86.804688 135.972656 86.011719 132.980469 86.011719 128.949219 L 86.011719 114.292969 Z M 48.457031 114.230469 " clip-rule="nonzero"/></clipPath><clipPath id="efb92d47c3"><path d="M 145.421875 143 L 176.546875 143 L 176.546875 174.808594 L 145.421875 174.808594 Z M 145.421875 143 " clip-rule="nonzero"/></clipPath><clipPath id="08f69d3b48"><path d="M 174.878906 150.242188 C 174.652344 149.769531 174.40625 149.296875 174.121094 148.863281 C 173.820312 148.410156 173.519531 147.921875 173.121094 147.542969 C 172.746094 147.183594 172.328125 146.84375 171.914062 146.523438 C 171.101562 145.882812 170.214844 145.316406 169.328125 144.789062 C 168.308594 144.164062 167.179688 143.84375 166.027344 143.523438 C 165.328125 143.335938 164.613281 143.183594 163.875 143.089844 C 163.347656 143.015625 162.78125 143.050781 162.234375 143.109375 C 161.5 143.164062 160.761719 143.222656 160.027344 143.355469 C 159.480469 143.375 158.949219 143.390625 158.386719 143.449219 C 158.101562 143.46875 157.820312 143.503906 157.535156 143.542969 C 157.347656 143.582031 157.175781 143.617188 157.007812 143.65625 C 156.308594 143.828125 155.648438 144.128906 155.046875 144.449219 C 153.820312 145.089844 152.648438 145.84375 151.574219 146.695312 C 151.121094 147.054688 150.6875 147.429688 150.253906 147.828125 C 149.476562 148.542969 148.835938 149.394531 148.25 150.261719 C 147.816406 150.882812 147.460938 151.601562 147.15625 152.28125 C 146.929688 152.789062 146.6875 153.300781 146.535156 153.847656 C 146.121094 155.1875 145.796875 156.542969 145.589844 157.921875 C 145.515625 158.46875 145.476562 159.015625 145.460938 159.582031 L 145.460938 160.335938 C 145.476562 160.808594 145.496094 161.394531 145.589844 161.867188 C 145.683594 162.414062 145.78125 162.980469 145.929688 163.507812 C 146.269531 164.601562 146.628906 165.714844 147.214844 166.714844 C 147.515625 167.226562 147.835938 167.734375 148.175781 168.207031 C 148.609375 168.847656 149.042969 169.46875 149.589844 170.015625 C 150.253906 170.695312 151.027344 171.300781 151.816406 171.828125 C 153.480469 172.921875 155.460938 173.546875 157.367188 174.074219 C 157.820312 174.207031 158.289062 174.320312 158.761719 174.414062 C 159.5 174.566406 160.234375 174.734375 160.96875 174.773438 C 161.554688 174.808594 162.160156 174.753906 162.742188 174.714844 C 163.535156 174.660156 164.328125 174.585938 165.121094 174.414062 C 165.894531 174.246094 166.632812 173.980469 167.347656 173.660156 C 168.480469 173.167969 169.574219 172.488281 170.40625 171.566406 C 171.3125 170.546875 172.179688 169.507812 172.914062 168.355469 C 173.632812 167.242188 174.234375 166.054688 174.820312 164.847656 C 175.292969 163.867188 175.765625 162.847656 176.007812 161.769531 C 176.179688 161.035156 176.332031 160.28125 176.40625 159.542969 C 176.460938 158.980469 176.480469 158.429688 176.480469 157.882812 C 176.480469 156.542969 176.40625 155.203125 176.179688 153.882812 C 176.085938 153.355469 175.953125 152.847656 175.765625 152.355469 C 175.460938 151.65625 175.214844 150.941406 174.878906 150.242188 Z M 174.878906 150.242188 " clip-rule="nonzero"/></clipPath><clipPath id="ff21af3001"><path d="M 94.988281 6.527344 L 149.066406 6.527344 L 149.066406 56.511719 L 94.988281 56.511719 Z M 94.988281 6.527344 " clip-rule="nonzero"/></clipPath></defs><g clip-path="url(#5567d7b0ee)"><path fill="#ffffff" d="M 0 0.0585938 L 224.878906 0.0585938 L 224.878906 224.941406 L 0 224.941406 Z M 0 0.0585938 " fill-opacity="1" fill-rule="nonzero"/><path fill="#1d1d1b" d="M 0 0.0585938 L 224.878906 0.0585938 L 224.878906 224.941406 L 0 224.941406 Z M 0 0.0585938 " fill-opacity="1" fill-rule="nonzero"/></g><g clip-path="url(#f5f86038ca)"><g clip-path="url(#ff26d981ef)"><path fill="#ffffff" d="M 48.457031 10.78125 L 141.523438 10.78125 L 141.523438 174.808594 L 48.457031 174.808594 Z M 48.457031 10.78125 " fill-opacity="1" fill-rule="nonzero"/></g></g><g clip-path="url(#efb92d47c3)"><g clip-path="url(#08f69d3b48)"><path fill="#ffffff" d="M 145.421875 143.050781 L 176.425781 143.050781 L 176.425781 174.808594 L 145.421875 174.808594 Z M 145.421875 143.050781 " fill-opacity="1" fill-rule="nonzero"/></g></g><g clip-path="url(#ff21af3001)"><path fill="#1d1d1b" d="M 94.988281 6.527344 L 149.066406 6.527344 L 149.066406 56.511719 L 94.988281 56.511719 Z M 94.988281 6.527344 " fill-opacity="1" fill-rule="nonzero"/></g></svg>