<svg xmlns="http://www.w3.org/2000/svg" xmlns:xlink="http://www.w3.org/1999/xlink" width="300" zoomAndPan="magnify" viewBox="0 0 224.87999 225" height="300" preserveAspectRatio="xMidYMid meet" version="1.0"><defs><clipPath id="2a4cf9b778"><path d="M 0 0.0585938 L 224.761719 0.0585938 L 224.761719 224.9375 L 0 224.9375 Z M 0 0.0585938 " clip-rule="nonzero"/></clipPath><clipPath id="d782925439"><path d="M 83.292969 27.945312 L 176.359375 27.945312 L 176.359375 191.972656 L 83.292969 191.972656 Z M 83.292969 27.945312 " clip-rule="nonzero"/></clipPath><clipPath id="c1ca38fcc0"><path d="M 83.292969 131.394531 L 83.292969 148.1875 C 83.292969 162.234375 87.507812 173.226562 95.75 180.796875 C 103.875 188.25 115.414062 191.972656 129.949219 191.972656 C 144.605469 191.972656 156.023438 188.25 164.085938 180.796875 C 172.207031 173.285156 176.359375 162.292969 176.359375 148.1875 L 176.359375 27.945312 L 138.621094 27.945312 L 138.621094 146.050781 C 138.621094 150.082031 137.828125 153.074219 136.300781 154.964844 C 135.445312 156.003906 133.917969 157.347656 129.949219 157.347656 C 125.246094 157.347656 123.71875 155.515625 123.230469 154.964844 C 121.644531 153.132812 120.851562 150.140625 120.851562 146.113281 L 120.851562 131.457031 Z M 83.292969 131.394531 " clip-rule="nonzero"/></clipPath><clipPath id="d5ba4581f3"><path d="M 124.171875 22.546875 L 178.246094 22.546875 L 178.246094 72.53125 L 124.171875 72.53125 Z M 124.171875 22.546875 " clip-rule="nonzero"/></clipPath><clipPath id="f8a4f2ed5f"><path d="M 48.519531 160.089844 L 79.644531 160.089844 L 79.644531 191.972656 L 48.519531 191.972656 Z M 48.519531 160.089844 " clip-rule="nonzero"/></clipPath><clipPath id="fb9e669377"><path d="M 77.976562 167.40625 C 77.75 166.933594 77.503906 166.460938 77.21875 166.027344 C 76.917969 165.574219 76.617188 165.082031 76.21875 164.707031 C 75.84375 164.347656 75.425781 164.007812 75.011719 163.6875 C 74.199219 163.046875 73.3125 162.480469 72.425781 161.953125 C 71.410156 161.328125 70.277344 161.007812 69.125 160.6875 C 68.425781 160.5 67.710938 160.347656 66.972656 160.253906 C 66.445312 160.179688 65.878906 160.214844 65.332031 160.273438 C 64.597656 160.328125 63.859375 160.386719 63.125 160.515625 C 62.578125 160.535156 62.050781 160.554688 61.484375 160.613281 C 61.199219 160.628906 60.917969 160.667969 60.632812 160.707031 C 60.445312 160.742188 60.273438 160.78125 60.105469 160.820312 C 59.40625 160.988281 58.746094 161.292969 58.144531 161.613281 C 56.917969 162.253906 55.746094 163.007812 54.671875 163.859375 C 54.21875 164.214844 53.785156 164.59375 53.351562 164.988281 C 52.578125 165.707031 51.933594 166.554688 51.351562 167.425781 C 50.914062 168.046875 50.558594 168.761719 50.253906 169.441406 C 50.027344 169.953125 49.785156 170.460938 49.632812 171.007812 C 49.21875 172.347656 48.898438 173.707031 48.6875 175.085938 C 48.613281 175.632812 48.574219 176.179688 48.558594 176.746094 L 48.558594 177.5 C 48.574219 177.972656 48.59375 178.558594 48.6875 179.027344 C 48.785156 179.574219 48.878906 180.140625 49.027344 180.671875 C 49.367188 181.765625 49.726562 182.878906 50.3125 183.878906 C 50.613281 184.386719 50.933594 184.898438 51.273438 185.367188 C 51.707031 186.011719 52.140625 186.632812 52.6875 187.179688 C 53.351562 187.859375 54.125 188.464844 54.917969 188.992188 C 56.578125 190.085938 58.558594 190.710938 60.464844 191.238281 C 60.917969 191.371094 61.386719 191.484375 61.859375 191.578125 C 62.597656 191.726562 63.332031 191.898438 64.066406 191.9375 C 64.652344 191.972656 65.257812 191.917969 65.839844 191.878906 C 66.632812 191.824219 67.425781 191.746094 68.21875 191.578125 C 68.992188 191.40625 69.730469 191.144531 70.445312 190.824219 C 71.578125 190.332031 72.671875 189.652344 73.503906 188.726562 C 74.410156 187.707031 75.277344 186.671875 76.011719 185.519531 C 76.730469 184.40625 77.332031 183.21875 77.917969 182.011719 C 78.390625 181.027344 78.863281 180.011719 79.105469 178.933594 C 79.277344 178.199219 79.429688 177.445312 79.503906 176.707031 C 79.558594 176.140625 79.578125 175.59375 79.578125 175.046875 C 79.578125 173.707031 79.503906 172.367188 79.277344 171.046875 C 79.183594 170.519531 79.050781 170.007812 78.863281 169.519531 C 78.558594 168.820312 78.316406 168.101562 77.976562 167.40625 Z M 77.976562 167.40625 " clip-rule="nonzero"/></clipPath></defs><g clip-path="url(#2a4cf9b778)"><path fill="#ffffff" d="M 0 0.0585938 L 224.878906 0.0585938 L 224.878906 224.941406 L 0 224.941406 Z M 0 0.0585938 " fill-opacity="1" fill-rule="nonzero"/><path fill="#1d1d1b" d="M 0 0.0585938 L 224.878906 0.0585938 L 224.878906 224.941406 L 0 224.941406 Z M 0 0.0585938 " fill-opacity="1" fill-rule="nonzero"/></g><g clip-path="url(#d782925439)"><g clip-path="url(#c1ca38fcc0)"><path fill="#ffffff" d="M 83.292969 27.945312 L 176.359375 27.945312 L 176.359375 191.972656 L 83.292969 191.972656 Z M 83.292969 27.945312 " fill-opacity="1" fill-rule="nonzero"/></g></g><g clip-path="url(#d5ba4581f3)"><path fill="#1d1d1b" d="M 124.171875 22.546875 L 178.246094 22.546875 L 178.246094 72.53125 L 124.171875 72.53125 Z M 124.171875 22.546875 " fill-opacity="1" fill-rule="nonzero"/></g><g clip-path="url(#f8a4f2ed5f)"><g clip-path="url(#fb9e669377)"><path fill="#ffffff" d="M 48.519531 160.214844 L 79.523438 160.214844 L 79.523438 191.972656 L 48.519531 191.972656 Z M 48.519531 160.214844 " fill-opacity="1" fill-rule="nonzero"/></g></g></svg>