<svg xmlns="http://www.w3.org/2000/svg" xmlns:xlink="http://www.w3.org/1999/xlink" width="500" zoomAndPan="magnify" viewBox="0 0 375 374.999991" height="500" preserveAspectRatio="xMidYMid meet" version="1.0"><defs><g/></defs><rect x="-37.5" width="450" fill="#ffffff" y="-37.499999" height="449.999989" fill-opacity="1"/><rect x="-37.5" width="450" fill="#2b2b2b" y="-37.499999" height="449.999989" fill-opacity="1"/><g fill="#e4e2dd" fill-opacity="1"><g transform="translate(88.51254, 189.191308)"><g><path d="M 6.066406 0 L 23.972656 0 L 23.972656 -76.101562 L 6.066406 -76.101562 Z M 45.632812 -0.144531 C 45.632812 -0.144531 74.800781 -9.386719 74.800781 -37.691406 C 74.800781 -65.847656 45.632812 -76.101562 45.632812 -76.101562 C 45.632812 -76.101562 54.730469 -72.058594 54.730469 -38.121094 C 54.730469 -4.1875 45.632812 -0.144531 45.632812 -0.144531 Z M 45.632812 -0.144531 "/></g></g></g><g fill="#e4e2dd" fill-opacity="1"><g transform="translate(160.565823, 189.191308)"><g><path d="M 28.738281 1.734375 C 33.359375 1.878906 37.835938 0.578125 41.734375 -1.734375 C 32.925781 0.289062 21.804688 -4.042969 21.804688 -13.863281 L 21.804688 -41.734375 C 21.804688 -45.921875 24.40625 -48.808594 27.871094 -49.386719 C 14.007812 -48.953125 3.03125 -37.691406 3.03125 -23.828125 C 3.03125 -9.675781 14.585938 1.734375 28.738281 1.734375 Z M 36.390625 -26.136719 L 52.417969 -26.136719 C 52.417969 -32.347656 49.53125 -49.386719 29.457031 -49.386719 C 32.78125 -48.953125 36.390625 -45.921875 36.390625 -37.835938 Z M 36.390625 -26.136719 "/></g></g></g><g fill="#e4e2dd" fill-opacity="1"><g transform="translate(209.371324, 189.191308)"><g><path d="M 43.175781 -31.914062 C 48.085938 -31.914062 51.984375 -35.8125 51.984375 -40.722656 C 51.984375 -45.488281 48.085938 -49.386719 43.175781 -49.386719 C 38.410156 -49.386719 34.367188 -45.488281 34.367188 -40.722656 C 34.367188 -35.8125 38.410156 -31.914062 43.175781 -31.914062 Z M 25.847656 1.734375 L 35.089844 -17.039062 L 19.0625 -48.085938 L 1.15625 -48.085938 Z M 25.847656 1.734375 "/></g></g></g><g fill="#e4e2dd" fill-opacity="1"><g transform="translate(256.732869, 189.191308)"><g><path d="M 14.875 1.734375 C 19.640625 1.734375 23.539062 -2.167969 23.539062 -6.929688 C 23.539062 -11.984375 19.640625 -15.738281 14.875 -15.738281 C 9.964844 -15.738281 6.066406 -11.839844 6.066406 -6.929688 C 6.066406 -2.167969 9.964844 1.734375 14.875 1.734375 Z M 14.875 1.734375 "/></g></g></g><g fill="#e4e2dd" fill-opacity="1"><g transform="translate(140.91334, 209.967866)"><g><path d="M 0.648438 0 L 2.933594 0 C 5.039062 0 6.445312 -1.214844 6.445312 -3.1875 C 6.445312 -5.15625 5.03125 -6.371094 2.933594 -6.371094 L 0.648438 -6.371094 Z M 1.746094 -0.882812 L 1.746094 -5.5 L 2.933594 -5.5 C 4.339844 -5.5 5.308594 -4.625 5.308594 -3.1875 C 5.308594 -1.746094 4.355469 -0.882812 2.933594 -0.882812 Z M 1.746094 -0.882812 "/></g></g></g><g fill="#e4e2dd" fill-opacity="1"><g transform="translate(148.896383, 209.967866)"><g><path d="M 0.648438 0 L 1.78125 0 L 1.78125 -6.371094 L 0.648438 -6.371094 Z M 0.648438 0 "/></g></g></g><g fill="#e4e2dd" fill-opacity="1"><g transform="translate(152.469394, 209.967866)"><g><path d="M 3.878906 0.1875 C 5.941406 0.1875 7.324219 -1.304688 7.21875 -3.4375 L 3.1875 -3.4375 L 3.1875 -2.726562 L 6.121094 -2.726562 C 6.039062 -1.566406 5.121094 -0.757812 3.90625 -0.757812 C 2.527344 -0.757812 1.53125 -1.789062 1.53125 -3.1875 C 1.53125 -4.597656 2.519531 -5.605469 3.871094 -5.597656 C 4.824219 -5.597656 5.671875 -5.003906 5.878906 -4.195312 L 6.921875 -4.390625 C 6.652344 -5.644531 5.371094 -6.550781 3.878906 -6.550781 C 1.855469 -6.550781 0.394531 -5.164062 0.394531 -3.1875 C 0.394531 -1.214844 1.855469 0.1875 3.878906 0.1875 Z M 3.878906 0.1875 "/></g></g></g><g fill="#e4e2dd" fill-opacity="1"><g transform="translate(161.23544, 209.967866)"><g><path d="M 0.648438 0 L 1.78125 0 L 1.78125 -6.371094 L 0.648438 -6.371094 Z M 0.648438 0 "/></g></g></g><g fill="#e4e2dd" fill-opacity="1"><g transform="translate(164.808451, 209.967866)"><g><path d="M 2.269531 0 L 3.402344 0 L 3.402344 -5.425781 L 5.535156 -5.425781 L 5.535156 -6.371094 L 0.144531 -6.371094 L 0.144531 -5.425781 L 2.269531 -5.425781 Z M 2.269531 0 "/></g></g></g><g fill="#e4e2dd" fill-opacity="1"><g transform="translate(171.621487, 209.967866)"><g><path d="M 0.136719 0 L 1.304688 0 L 1.78125 -1.324219 L 4.617188 -1.324219 L 5.09375 0 L 6.273438 0 L 4.039062 -6.371094 L 2.367188 -6.371094 Z M 2.023438 -2.167969 L 3.160156 -5.390625 L 3.238281 -5.390625 L 4.375 -2.167969 Z M 2.023438 -2.167969 "/></g></g></g><g fill="#e4e2dd" fill-opacity="1"><g transform="translate(179.163522, 209.967866)"><g><path d="M 0.648438 0 L 4.949219 0 L 4.949219 -0.980469 L 1.78125 -0.980469 L 1.78125 -6.371094 L 0.648438 -6.371094 Z M 0.648438 0 "/></g></g></g><g fill="#e4e2dd" fill-opacity="1"><g transform="translate(185.499546, 209.967866)"><g/></g></g><g fill="#e4e2dd" fill-opacity="1"><g transform="translate(188.856563, 209.967866)"><g><path d="M 0.136719 0 L 1.304688 0 L 1.78125 -1.324219 L 4.617188 -1.324219 L 5.09375 0 L 6.273438 0 L 4.039062 -6.371094 L 2.367188 -6.371094 Z M 2.023438 -2.167969 L 3.160156 -5.390625 L 3.238281 -5.390625 L 4.375 -2.167969 Z M 2.023438 -2.167969 "/></g></g></g><g fill="#e4e2dd" fill-opacity="1"><g transform="translate(196.398598, 209.967866)"><g><path d="M 3.878906 0.1875 C 5.941406 0.1875 7.324219 -1.304688 7.21875 -3.4375 L 3.1875 -3.4375 L 3.1875 -2.726562 L 6.121094 -2.726562 C 6.039062 -1.566406 5.121094 -0.757812 3.90625 -0.757812 C 2.527344 -0.757812 1.53125 -1.789062 1.53125 -3.1875 C 1.53125 -4.597656 2.519531 -5.605469 3.871094 -5.597656 C 4.824219 -5.597656 5.671875 -5.003906 5.878906 -4.195312 L 6.921875 -4.390625 C 6.652344 -5.644531 5.371094 -6.550781 3.878906 -6.550781 C 1.855469 -6.550781 0.394531 -5.164062 0.394531 -3.1875 C 0.394531 -1.214844 1.855469 0.1875 3.878906 0.1875 Z M 3.878906 0.1875 "/></g></g></g><g fill="#e4e2dd" fill-opacity="1"><g transform="translate(205.164646, 209.967866)"><g><path d="M 0.648438 0 L 5.363281 0 L 5.363281 -0.917969 L 1.746094 -0.917969 L 1.746094 -2.878906 L 5.011719 -2.878906 L 5.011719 -3.652344 L 1.746094 -3.652344 L 1.746094 -5.464844 L 5.273438 -5.464844 L 5.273438 -6.371094 L 0.648438 -6.371094 Z M 0.648438 0 "/></g></g></g><g fill="#e4e2dd" fill-opacity="1"><g transform="translate(212.02268, 209.967866)"><g><path d="M 0.640625 0 L 1.710938 0 L 1.710938 -4.90625 L 1.78125 -4.90625 L 4.726562 0 L 5.984375 0 L 5.984375 -6.371094 L 4.921875 -6.371094 L 4.921875 -1.457031 L 4.851562 -1.457031 L 1.898438 -6.371094 L 0.640625 -6.371094 Z M 0.640625 0 "/></g></g></g><g fill="#e4e2dd" fill-opacity="1"><g transform="translate(219.798712, 209.967866)"><g><path d="M 3.796875 0.171875 C 5.445312 0.171875 6.757812 -0.828125 6.964844 -2.203125 L 5.902344 -2.339844 C 5.714844 -1.457031 4.84375 -0.773438 3.835938 -0.773438 C 2.476562 -0.773438 1.53125 -1.765625 1.53125 -3.1875 C 1.53125 -4.617188 2.464844 -5.597656 3.835938 -5.597656 C 4.832031 -5.597656 5.707031 -4.90625 5.894531 -3.996094 L 6.957031 -4.121094 C 6.730469 -5.527344 5.417969 -6.550781 3.796875 -6.550781 C 1.816406 -6.550781 0.394531 -5.164062 0.394531 -3.1875 C 0.394531 -1.214844 1.816406 0.171875 3.796875 0.171875 Z M 3.796875 0.171875 "/></g></g></g><g fill="#e4e2dd" fill-opacity="1"><g transform="translate(228.303755, 209.967866)"><g><path d="M 2.339844 0 L 3.464844 0 L 3.464844 -2.394531 L 5.644531 -6.371094 L 4.4375 -6.371094 L 2.933594 -3.4375 L 2.863281 -3.4375 L 1.324219 -6.371094 L 0.136719 -6.371094 L 2.339844 -2.394531 Z M 2.339844 0 "/></g></g></g></svg>