<svg xmlns="http://www.w3.org/2000/svg" xmlns:xlink="http://www.w3.org/1999/xlink" width="1000" zoomAndPan="magnify" viewBox="0 0 750 749.999995" height="1000" preserveAspectRatio="xMidYMid meet" version="1.0"><defs><g/></defs><rect x="-75" width="900" fill="#ffffff" y="-74.999999" height="899.999994" fill-opacity="1"/><rect x="-75" width="900" fill="#e4e2dd" y="-74.999999" height="899.999994" fill-opacity="1"/><g fill="#2b2b2b" fill-opacity="1"><g transform="translate(164.846619, 390.449063)"><g><path d="M 30.683594 10.085938 C 45.390625 4.625 59.050781 -6.933594 63.886719 -22.277344 C 66.195312 -29.421875 66.195312 -37.195312 62.203125 -43.921875 C 58.421875 -50.226562 47.285156 -54.640625 47.914062 -63.253906 C 49.175781 -80.066406 89.523438 -78.597656 81.539062 -99.609375 C 76.914062 -112.21875 59.050781 -108.859375 49.386719 -105.914062 C 35.9375 -101.710938 22.90625 -94.148438 19.542969 -79.4375 C 17.230469 -70.191406 20.175781 -61.574219 26.480469 -54.847656 C 31.941406 -49.175781 39.089844 -45.390625 35.515625 -36.144531 C 30.472656 -22.90625 12.1875 -21.644531 3.78125 -11.136719 C -1.472656 -4.414062 -1.261719 2.523438 5.464844 8.617188 C 12.1875 14.921875 22.695312 13.03125 30.683594 10.085938 Z M 30.683594 10.085938 "/></g></g></g><g fill="#2b2b2b" fill-opacity="1"><g transform="translate(238.6054, 390.449063)"><g><path d="M 52.117188 0 C 85.742188 -0.628906 68.71875 -83.640625 66.195312 -100.453125 C 74.601562 -100.453125 90.574219 -98.769531 96.25 -106.125 C 102.132812 -113.480469 96.878906 -123.566406 89.3125 -127.140625 C 78.175781 -132.394531 63.675781 -130.503906 51.695312 -131.132812 C 40.980469 -131.765625 21.855469 -137.019531 12.1875 -132.605469 C 3.78125 -128.820312 0.839844 -118.734375 4.832031 -110.75 C 10.71875 -98.351562 26.898438 -100.03125 38.246094 -100.660156 C 39.089844 -76.914062 36.566406 -53.796875 35.726562 -30.261719 C 35.09375 -18.28125 35.726562 0.210938 52.117188 0 Z M 52.117188 0 "/></g></g></g><g fill="#2b2b2b" fill-opacity="1"><g transform="translate(325.392891, 390.449063)"><g><path d="M 59.261719 -7.566406 C 79.4375 -23.328125 81.539062 -55.898438 72.5 -78.175781 C 71.242188 -104.234375 37.40625 -105.496094 21.433594 -92.253906 C 3.152344 -76.914062 -0.421875 -48.542969 6.09375 -26.6875 C 13.449219 -2.941406 38.246094 8.617188 59.261719 -7.566406 Z M 51.277344 -35.9375 C 43.289062 -34.042969 44.550781 -43.082031 50.015625 -54.007812 C 51.277344 -56.742188 53.796875 -59.683594 56.320312 -61.785156 C 56.742188 -58.210938 57.582031 -37.40625 51.277344 -35.9375 Z M 51.277344 -35.9375 "/></g></g></g><g fill="#2b2b2b" fill-opacity="1"><g transform="translate(394.108296, 390.449063)"><g><path d="M 11.769531 -7.355469 C 20.175781 6.933594 30.472656 -1.679688 32.574219 -14.5 C 34.042969 -23.328125 34.042969 -32.574219 35.726562 -41.609375 C 37.195312 -49.59375 40.558594 -57.160156 44.761719 -64.304688 C 50.644531 -74.183594 58.632812 -83.21875 69.769531 -75.023438 C 74.394531 -71.660156 77.125 -66.40625 83.640625 -66.617188 C 90.574219 -67.039062 93.515625 -73.34375 92.886719 -79.855469 C 91.414062 -91.835938 81.328125 -105.707031 69.347656 -108.648438 C 55.269531 -112.011719 44.550781 -100.871094 37.828125 -89.734375 C 36.355469 -97.929688 30.683594 -116.421875 18.703125 -111.378906 C 11.558594 -108.4375 9.246094 -96.039062 7.984375 -89.523438 C 3.152344 -64.9375 -1.261719 -29.839844 11.769531 -7.355469 Z M 11.769531 -7.355469 "/></g></g></g><g fill="#2b2b2b" fill-opacity="1"><g transform="translate(477.11325, 390.449063)"><g><path d="M 78.386719 88.054688 C 84.902344 79.4375 83.851562 68.089844 83.429688 58 C 82.800781 47.492188 83.640625 36.566406 83.429688 25.847656 C 83.429688 2.101562 82.800781 -21.855469 81.117188 -45.601562 C 80.699219 -53.378906 82.589844 -69.980469 74.394531 -74.601562 C 67.457031 -78.386719 62.625 -72.292969 58.632812 -67.246094 C 55.058594 -62.625 37.40625 -22.90625 32.574219 -45.601562 C 30.683594 -54.640625 32.785156 -65.566406 34.675781 -74.394531 C 36.566406 -82.378906 44.339844 -94.988281 35.515625 -101.292969 C 17.023438 -114.742188 6.09375 -79.4375 4.203125 -68.089844 C 1.679688 -51.695312 3.152344 -31.523438 11.347656 -16.8125 C 20.175781 -0.628906 39.71875 4.203125 53.796875 -9.246094 C 49.59375 4.832031 51.488281 103.394531 78.386719 88.054688 Z M 78.386719 88.054688 "/></g></g></g><g fill="#2b2b2b" fill-opacity="1"><g transform="translate(552.132884, 390.449063)"><g><path d="M 10.507812 -90.996094 C 16.8125 -92.464844 23.535156 -99.820312 27.109375 -105.074219 C 30.683594 -110.328125 32.363281 -123.777344 22.066406 -122.9375 C 12.609375 -122.097656 8.617188 -113.0625 5.042969 -104.65625 C 2.523438 -98.769531 1.261719 -88.894531 10.507812 -90.996094 Z M 10.507812 -90.996094 "/></g></g></g><g fill="#2b2b2b" fill-opacity="1"><g transform="translate(280.017324, 475.341411)"><g><path d="M 3.859375 -10.421875 L 3.859375 -7.671875 L 8.765625 -7.671875 L 8.765625 -5.4375 L 3.859375 -5.4375 L 3.859375 -2.515625 L 9.703125 -2.515625 L 9.703125 0 L 0.953125 0 L 0.953125 -12.921875 L 9.703125 -12.921875 L 9.703125 -10.421875 Z M 3.859375 -10.421875 "/></g></g></g><g fill="#2b2b2b" fill-opacity="1"><g transform="translate(292.080305, 475.341411)"><g><path d="M 5.75 0.171875 C 4.707031 0.171875 3.804688 -0.03125 3.046875 -0.4375 C 2.296875 -0.84375 1.722656 -1.375 1.328125 -2.03125 C 0.941406 -2.695312 0.75 -3.382812 0.75 -4.09375 L 0.75 -4.25 L 3.921875 -4.25 L 3.921875 -4.125 C 3.921875 -3.675781 4.078125 -3.265625 4.390625 -2.890625 C 4.710938 -2.523438 5.179688 -2.34375 5.796875 -2.34375 C 6.328125 -2.34375 6.75 -2.476562 7.0625 -2.75 C 7.382812 -3.019531 7.546875 -3.378906 7.546875 -3.828125 C 7.546875 -4.210938 7.40625 -4.523438 7.125 -4.765625 C 6.84375 -5.015625 6.5 -5.179688 6.09375 -5.265625 L 4.625 -5.5625 C 3.757812 -5.757812 2.953125 -6.128906 2.203125 -6.671875 C 1.453125 -7.210938 1.078125 -8.097656 1.078125 -9.328125 C 1.078125 -10.128906 1.269531 -10.816406 1.65625 -11.390625 C 2.039062 -11.972656 2.578125 -12.414062 3.265625 -12.71875 C 3.953125 -13.03125 4.734375 -13.1875 5.609375 -13.1875 C 6.609375 -13.1875 7.472656 -12.992188 8.203125 -12.609375 C 8.929688 -12.234375 9.476562 -11.738281 9.84375 -11.125 C 10.207031 -10.519531 10.390625 -9.882812 10.390625 -9.21875 L 10.390625 -9.125 L 7.234375 -9.125 L 7.234375 -9.171875 C 7.234375 -9.566406 7.09375 -9.929688 6.8125 -10.265625 C 6.539062 -10.609375 6.101562 -10.78125 5.5 -10.78125 C 5.03125 -10.78125 4.65625 -10.648438 4.375 -10.390625 C 4.101562 -10.140625 3.96875 -9.800781 3.96875 -9.375 C 3.96875 -8.96875 4.117188 -8.648438 4.421875 -8.421875 C 4.734375 -8.191406 5.109375 -8.03125 5.546875 -7.9375 L 7.03125 -7.609375 C 8.007812 -7.398438 8.84375 -7.003906 9.53125 -6.421875 C 10.21875 -5.847656 10.5625 -5.003906 10.5625 -3.890625 C 10.5625 -3.078125 10.351562 -2.363281 9.9375 -1.75 C 9.519531 -1.132812 8.941406 -0.660156 8.203125 -0.328125 C 7.472656 0.00390625 6.65625 0.171875 5.75 0.171875 Z M 5.75 0.171875 "/></g></g></g><g fill="#2b2b2b" fill-opacity="1"><g transform="translate(304.863736, 475.341411)"><g><path d="M 10.3125 -10.421875 L 6.90625 -10.421875 L 6.90625 0 L 4.046875 0 L 4.046875 -10.421875 L 0.640625 -10.421875 L 0.640625 -12.921875 L 10.3125 -12.921875 Z M 10.3125 -10.421875 "/></g></g></g><g fill="#2b2b2b" fill-opacity="1"><g transform="translate(317.443961, 475.341411)"><g/></g></g><g fill="#2b2b2b" fill-opacity="1"><g transform="translate(323.299956, 475.341411)"><g><path d="M 1.03125 -2.4375 L 2.734375 -3.890625 C 2.929688 -4.054688 3.117188 -4.210938 3.296875 -4.359375 C 3.472656 -4.503906 3.648438 -4.644531 3.828125 -4.78125 C 4.648438 -5.445312 5.28125 -5.976562 5.71875 -6.375 C 6.15625 -6.78125 6.515625 -7.207031 6.796875 -7.65625 C 7.085938 -8.101562 7.234375 -8.566406 7.234375 -9.046875 C 7.234375 -9.515625 7.09375 -9.914062 6.8125 -10.25 C 6.53125 -10.582031 6.097656 -10.75 5.515625 -10.75 C 4.773438 -10.75 4.289062 -10.53125 4.0625 -10.09375 C 3.84375 -9.664062 3.734375 -9.222656 3.734375 -8.765625 L 3.734375 -8.53125 L 0.90625 -8.53125 C 0.90625 -9.519531 1.097656 -10.367188 1.484375 -11.078125 C 1.867188 -11.785156 2.40625 -12.316406 3.09375 -12.671875 C 3.789062 -13.023438 4.582031 -13.203125 5.46875 -13.203125 C 6.394531 -13.203125 7.195312 -13.023438 7.875 -12.671875 C 8.550781 -12.328125 9.066406 -11.851562 9.421875 -11.25 C 9.773438 -10.644531 9.953125 -9.96875 9.953125 -9.21875 C 9.953125 -8.5 9.800781 -7.847656 9.5 -7.265625 C 9.207031 -6.691406 8.859375 -6.195312 8.453125 -5.78125 C 8.046875 -5.363281 7.523438 -4.890625 6.890625 -4.359375 L 6.484375 -4.03125 L 4.765625 -2.578125 L 4.765625 -2.5 L 10.046875 -2.5 L 10.046875 0 L 1.03125 0 Z M 1.03125 -2.4375 "/></g></g></g><g fill="#2b2b2b" fill-opacity="1"><g transform="translate(335.95408, 475.341411)"><g><path d="M 5.765625 0.28125 C 4.035156 0.28125 2.753906 -0.269531 1.921875 -1.375 C 1.085938 -2.488281 0.671875 -3.960938 0.671875 -5.796875 L 0.671875 -7.171875 C 0.671875 -8.992188 1.085938 -10.445312 1.921875 -11.53125 C 2.753906 -12.625 4.035156 -13.171875 5.765625 -13.171875 C 7.484375 -13.171875 8.757812 -12.625 9.59375 -11.53125 C 10.425781 -10.445312 10.84375 -8.992188 10.84375 -7.171875 L 10.84375 -5.796875 C 10.84375 -3.960938 10.425781 -2.488281 9.59375 -1.375 C 8.757812 -0.269531 7.484375 0.28125 5.765625 0.28125 Z M 5.765625 -2.203125 C 6.429688 -2.203125 6.90625 -2.488281 7.1875 -3.0625 C 7.46875 -3.644531 7.609375 -4.503906 7.609375 -5.640625 L 7.609375 -7.328125 C 7.609375 -8.453125 7.46875 -9.289062 7.1875 -9.84375 C 6.90625 -10.40625 6.429688 -10.6875 5.765625 -10.6875 C 5.097656 -10.6875 4.617188 -10.40625 4.328125 -9.84375 C 4.035156 -9.289062 3.890625 -8.453125 3.890625 -7.328125 L 3.890625 -5.640625 C 3.890625 -4.515625 4.035156 -3.660156 4.328125 -3.078125 C 4.617188 -2.492188 5.097656 -2.203125 5.765625 -2.203125 Z M 5.765625 -2.203125 "/></g></g></g><g fill="#2b2b2b" fill-opacity="1"><g transform="translate(349.143906, 475.341411)"><g><path d="M 1.03125 -2.4375 L 2.734375 -3.890625 C 2.929688 -4.054688 3.117188 -4.210938 3.296875 -4.359375 C 3.472656 -4.503906 3.648438 -4.644531 3.828125 -4.78125 C 4.648438 -5.445312 5.28125 -5.976562 5.71875 -6.375 C 6.15625 -6.78125 6.515625 -7.207031 6.796875 -7.65625 C 7.085938 -8.101562 7.234375 -8.566406 7.234375 -9.046875 C 7.234375 -9.515625 7.09375 -9.914062 6.8125 -10.25 C 6.53125 -10.582031 6.097656 -10.75 5.515625 -10.75 C 4.773438 -10.75 4.289062 -10.53125 4.0625 -10.09375 C 3.84375 -9.664062 3.734375 -9.222656 3.734375 -8.765625 L 3.734375 -8.53125 L 0.90625 -8.53125 C 0.90625 -9.519531 1.097656 -10.367188 1.484375 -11.078125 C 1.867188 -11.785156 2.40625 -12.316406 3.09375 -12.671875 C 3.789062 -13.023438 4.582031 -13.203125 5.46875 -13.203125 C 6.394531 -13.203125 7.195312 -13.023438 7.875 -12.671875 C 8.550781 -12.328125 9.066406 -11.851562 9.421875 -11.25 C 9.773438 -10.644531 9.953125 -9.96875 9.953125 -9.21875 C 9.953125 -8.5 9.800781 -7.847656 9.5 -7.265625 C 9.207031 -6.691406 8.859375 -6.195312 8.453125 -5.78125 C 8.046875 -5.363281 7.523438 -4.890625 6.890625 -4.359375 L 6.484375 -4.03125 L 4.765625 -2.578125 L 4.765625 -2.5 L 10.046875 -2.5 L 10.046875 0 L 1.03125 0 Z M 1.03125 -2.4375 "/></g></g></g><g fill="#2b2b2b" fill-opacity="1"><g transform="translate(361.798026, 475.341411)"><g><path d="M 5.5 0.171875 C 3.988281 0.171875 2.820312 -0.207031 2 -0.96875 C 1.1875 -1.726562 0.703125 -2.695312 0.546875 -3.875 L 3.46875 -3.875 C 3.59375 -3.394531 3.828125 -3.019531 4.171875 -2.75 C 4.523438 -2.488281 4.96875 -2.359375 5.5 -2.359375 C 6.101562 -2.359375 6.578125 -2.515625 6.921875 -2.828125 C 7.265625 -3.148438 7.4375 -3.554688 7.4375 -4.046875 C 7.4375 -4.546875 7.257812 -4.945312 6.90625 -5.25 C 6.550781 -5.550781 6.085938 -5.703125 5.515625 -5.703125 L 4.390625 -5.703125 L 4.390625 -7.890625 L 5.578125 -7.890625 C 6.078125 -7.890625 6.476562 -8.019531 6.78125 -8.28125 C 7.082031 -8.550781 7.234375 -8.910156 7.234375 -9.359375 C 7.234375 -9.828125 7.070312 -10.203125 6.75 -10.484375 C 6.4375 -10.773438 6.015625 -10.921875 5.484375 -10.921875 C 4.960938 -10.921875 4.546875 -10.785156 4.234375 -10.515625 C 3.929688 -10.253906 3.726562 -9.890625 3.625 -9.421875 L 0.8125 -9.421875 C 0.988281 -10.523438 1.445312 -11.441406 2.1875 -12.171875 C 2.9375 -12.898438 4.039062 -13.265625 5.5 -13.265625 C 6.570312 -13.265625 7.445312 -13.066406 8.125 -12.671875 C 8.8125 -12.285156 9.304688 -11.800781 9.609375 -11.21875 C 9.921875 -10.644531 10.078125 -10.0625 10.078125 -9.46875 C 10.078125 -8.851562 9.9375 -8.34375 9.65625 -7.9375 C 9.375 -7.539062 9.066406 -7.25 8.734375 -7.0625 C 8.410156 -6.875 8.210938 -6.78125 8.140625 -6.78125 L 8.140625 -6.671875 C 9.703125 -5.878906 10.285156 -5.585938 9.890625 -5.796875 C 9.503906 -6.003906 9.460938 -5.894531 9.765625 -5.46875 C 10.078125 -5.039062 10.234375 -4.46875 10.234375 -3.75 C 10.234375 -3.050781 10.0625 -2.40625 9.71875 -1.8125 C 9.375 -1.21875 8.847656 -0.738281 8.140625 -0.375 C 7.429688 -0.0078125 6.550781 0.171875 5.5 0.171875 Z M 5.5 0.171875 "/></g></g></g><g fill="#2b2b2b" fill-opacity="1"><g transform="translate(374.47061, 475.341411)"><g/></g></g><g fill="#2b2b2b" fill-opacity="1"><g transform="translate(380.326602, 475.341411)"><g><path d="M 1.703125 -17.546875 L 4.03125 -17.546875 L 4.03125 4.78125 L 1.703125 4.78125 Z M 1.703125 -17.546875 "/></g></g></g><g fill="#2b2b2b" fill-opacity="1"><g transform="translate(387.660448, 475.341411)"><g/></g></g><g fill="#2b2b2b" fill-opacity="1"><g transform="translate(393.51644, 475.341411)"><g><path d="M 0.953125 -12.921875 L 5.25 -12.921875 L 7.78125 -5.59375 L 7.828125 -5.59375 L 10.359375 -12.921875 L 14.640625 -12.921875 L 14.640625 0 L 11.8125 0 L 11.8125 -8.859375 L 11.75 -8.859375 L 8.71875 0 L 6.890625 0 L 3.859375 -8.859375 L 3.78125 -8.859375 L 3.78125 0 L 0.953125 0 Z M 0.953125 -12.921875 "/></g></g></g><g fill="#2b2b2b" fill-opacity="1"><g transform="translate(410.733433, 475.341411)"><g><path d="M 3.109375 0.171875 C 2.648438 0.171875 2.269531 0.0195312 1.96875 -0.28125 C 1.675781 -0.59375 1.53125 -0.972656 1.53125 -1.421875 C 1.53125 -1.867188 1.675781 -2.238281 1.96875 -2.53125 C 2.269531 -2.832031 2.648438 -2.984375 3.109375 -2.984375 C 3.554688 -2.984375 3.929688 -2.832031 4.234375 -2.53125 C 4.535156 -2.238281 4.6875 -1.867188 4.6875 -1.421875 C 4.6875 -0.972656 4.53125 -0.59375 4.21875 -0.28125 C 3.914062 0.0195312 3.546875 0.171875 3.109375 0.171875 Z M 3.109375 0.171875 "/></g></g></g><g fill="#2b2b2b" fill-opacity="1"><g transform="translate(418.547573, 475.341411)"><g><path d="M 0.1875 -12.921875 L 3.0625 -12.921875 L 5.09375 -3.796875 L 5.203125 -3.796875 L 7.9375 -12.921875 L 10.453125 -12.921875 L 13.1875 -3.796875 L 13.296875 -3.796875 L 15.34375 -12.921875 L 18.234375 -12.921875 L 14.9375 0.015625 L 11.546875 0.015625 L 9.25 -7.734375 L 9.140625 -7.734375 L 6.859375 0.015625 L 3.453125 0.015625 Z M 0.1875 -12.921875 "/></g></g></g><g fill="#2b2b2b" fill-opacity="1"><g transform="translate(438.572477, 475.341411)"><g><path d="M 3.109375 0.171875 C 2.648438 0.171875 2.269531 0.0195312 1.96875 -0.28125 C 1.675781 -0.59375 1.53125 -0.972656 1.53125 -1.421875 C 1.53125 -1.867188 1.675781 -2.238281 1.96875 -2.53125 C 2.269531 -2.832031 2.648438 -2.984375 3.109375 -2.984375 C 3.554688 -2.984375 3.929688 -2.832031 4.234375 -2.53125 C 4.535156 -2.238281 4.6875 -1.867188 4.6875 -1.421875 C 4.6875 -0.972656 4.53125 -0.59375 4.21875 -0.28125 C 3.914062 0.0195312 3.546875 0.171875 3.109375 0.171875 Z M 3.109375 0.171875 "/></g></g></g><g fill="#2b2b2b" fill-opacity="1"><g transform="translate(446.386616, 475.341411)"><g><path d="M 9.296875 -2.515625 L 9.296875 0 L 0.953125 0 L 0.953125 -12.921875 L 3.859375 -12.921875 L 3.84375 -2.515625 Z M 9.296875 -2.515625 "/></g></g></g><g fill="#2b2b2b" fill-opacity="1"><g transform="translate(457.876917, 475.341411)"><g><path d="M 3.109375 0.171875 C 2.648438 0.171875 2.269531 0.0195312 1.96875 -0.28125 C 1.675781 -0.59375 1.53125 -0.972656 1.53125 -1.421875 C 1.53125 -1.867188 1.675781 -2.238281 1.96875 -2.53125 C 2.269531 -2.832031 2.648438 -2.984375 3.109375 -2.984375 C 3.554688 -2.984375 3.929688 -2.832031 4.234375 -2.53125 C 4.535156 -2.238281 4.6875 -1.867188 4.6875 -1.421875 C 4.6875 -0.972656 4.53125 -0.59375 4.21875 -0.28125 C 3.914062 0.0195312 3.546875 0.171875 3.109375 0.171875 Z M 3.109375 0.171875 "/></g></g></g><g fill="#2b2b2b" fill-opacity="1"><g transform="translate(465.709919, 475.341411)"><g/></g></g></svg>