<svg xmlns="http://www.w3.org/2000/svg" xmlns:xlink="http://www.w3.org/1999/xlink" width="1000" zoomAndPan="magnify" viewBox="0 0 750 749.999995" height="1000" preserveAspectRatio="xMidYMid meet" version="1.0"><defs><g/></defs><rect x="-75" width="900" fill="#ffffff" y="-74.999999" height="899.999994" fill-opacity="1"/><rect x="-75" width="900" fill="#e4e2dd" y="-74.999999" height="899.999994" fill-opacity="1"/><g fill="#292929" fill-opacity="1"><g transform="translate(114.892144, 363.939967)"><g><path d="M 95.105469 -181.894531 L 7.796875 -181.894531 C 7.796875 -41.316406 7.796875 -201.382812 7.796875 0.261719 L 167.601562 0.261719 L 140.835938 -49.890625 C 158.246094 -63.402344 169.160156 -84.191406 169.160156 -107.835938 C 169.160156 -148.894531 135.902344 -181.894531 95.105469 -181.894531 Z M 95.105469 -181.894531 "/></g></g></g><g fill="#292929" fill-opacity="1"><g transform="translate(279.104458, 363.939967)"><g><path d="M 7.535156 -182.152344 L 7.535156 -0.261719 L 158.246094 -0.261719 L 158.246094 -61.582031 L 120.570312 -61.582031 L 120.570312 -69.378906 L 158.246094 -69.378906 L 158.246094 -113.035156 L 120.570312 -113.035156 L 120.570312 -120.828125 L 158.246094 -120.828125 L 158.246094 -182.152344 Z M 7.535156 -182.152344 "/></g></g></g><g fill="#292929" fill-opacity="1"><g transform="translate(117.556798, 550.621985)"><g><path d="M 133.820312 -90.6875 L 169.160156 -90.6875 L 169.160156 -181.890625 L 5.195312 -181.890625 L 5.195312 -90.6875 L 42.875 -90.6875 L 42.875 0.261719 L 133.820312 0.261719 Z M 133.820312 -90.6875 "/></g></g></g><g fill="#292929" fill-opacity="1"><g transform="translate(284.365734, 550.621985)"><g><path d="M 95.101562 -181.890625 L 7.796875 -181.890625 C 7.796875 -41.316406 7.796875 -201.378906 7.796875 0.261719 L 167.601562 0.261719 L 140.835938 -49.890625 C 158.246094 -63.402344 169.160156 -84.191406 169.160156 -107.835938 C 169.160156 -148.890625 135.898438 -181.890625 95.101562 -181.890625 Z M 95.101562 -181.890625 "/></g></g></g><g fill="#292929" fill-opacity="1"><g transform="translate(448.576381, 550.621985)"><g><path d="M 99.519531 -188.128906 C 45.992188 -188.128906 2.597656 -144.734375 2.597656 -91.207031 C 2.597656 -37.675781 45.992188 5.714844 99.519531 5.714844 C 153.046875 5.714844 196.441406 -37.675781 196.441406 -91.207031 C 196.441406 -144.734375 153.046875 -188.128906 99.519531 -188.128906 Z M 99.519531 -188.128906 "/></g></g></g><g fill="#292929" fill-opacity="1"><g transform="translate(453.535781, 322.301687)"><g><path d="M 15.296875 0.933594 C 22.175781 0.933594 27.1875 -3.214844 28.199219 -9.722656 L 25.207031 -10.472656 C 24.421875 -5.199219 20.570312 -1.832031 15.296875 -1.832031 C 8.675781 -1.832031 4.449219 -6.246094 4.414062 -13.164062 C 4.414062 -20.121094 8.300781 -24.53125 14.472656 -24.53125 C 18.8125 -24.53125 22.101562 -21.765625 22.886719 -17.351562 L 25.84375 -18.0625 C 24.644531 -23.710938 20.195312 -27.300781 14.472656 -27.300781 C 6.394531 -27.300781 1.308594 -21.804688 1.308594 -13.164062 C 1.308594 -4.5625 6.730469 0.933594 15.296875 0.933594 Z M 15.296875 0.933594 "/></g></g></g><g fill="#292929" fill-opacity="1"><g transform="translate(482.465354, 322.301687)"><g><path d="M 21.316406 0.746094 C 23.148438 0.746094 24.71875 -0.261719 25.804688 -1.757812 L 24.234375 -3.589844 C 23.636719 -2.542969 22.773438 -1.871094 21.914062 -1.871094 C 21.09375 -1.871094 20.570312 -2.503906 20.34375 -3.402344 L 19.035156 -8.152344 C 18.585938 -9.722656 17.6875 -10.996094 16.269531 -11.707031 L 16.269531 -11.742188 C 20.679688 -12.339844 23.410156 -15.144531 23.410156 -18.8125 C 23.410156 -23.222656 19.523438 -26.367188 14.0625 -26.367188 L 2.242188 -26.367188 L 2.242188 0 L 5.347656 0 L 5.347656 -11.144531 L 12.003906 -11.144531 C 13.800781 -11.144531 15.332031 -9.796875 15.894531 -7.855469 L 17.503906 -2.320312 C 18.027344 -0.523438 19.222656 0.746094 21.316406 0.746094 Z M 5.347656 -13.910156 L 5.347656 -23.597656 L 14.0625 -23.597656 C 17.726562 -23.597656 20.308594 -21.578125 20.308594 -18.734375 C 20.308594 -15.894531 17.726562 -13.910156 14.0625 -13.910156 Z M 5.347656 -13.910156 "/></g></g></g><g fill="#292929" fill-opacity="1"><g transform="translate(508.255278, 322.301687)"><g><path d="M 2.242188 0 L 20.644531 0 L 20.644531 -2.765625 L 5.273438 -2.765625 L 5.273438 -12.265625 L 18.773438 -12.265625 L 18.773438 -14.960938 L 5.273438 -14.960938 L 5.273438 -23.597656 L 20.269531 -23.597656 L 20.269531 -26.367188 L 2.242188 -26.367188 Z M 2.242188 0 "/></g></g></g><g fill="#292929" fill-opacity="1"><g transform="translate(529.821647, 322.301687)"><g><path d="M 0.375 0 L 3.703125 0 L 6.132812 -6.320312 L 18.847656 -6.320312 L 21.242188 0 L 24.53125 0 L 14.359375 -26.367188 L 10.621094 -26.367188 Z M 7.03125 -9.085938 L 12.453125 -23.296875 L 12.527344 -23.296875 L 17.914062 -9.085938 Z M 7.03125 -9.085938 "/></g></g></g><g fill="#292929" fill-opacity="1"><g transform="translate(554.714542, 322.301687)"><g><path d="M 9.199219 0 L 12.304688 0 L 12.304688 -23.597656 L 21.128906 -23.597656 L 21.128906 -26.367188 L 0.375 -26.367188 L 0.375 -23.597656 L 9.199219 -23.597656 Z M 9.199219 0 "/></g></g></g><g fill="#292929" fill-opacity="1"><g transform="translate(576.206135, 322.301687)"><g><path d="M 2.242188 0 L 5.347656 0 L 5.347656 -26.367188 L 2.242188 -26.367188 Z M 2.242188 0 "/></g></g></g><g fill="#292929" fill-opacity="1"><g transform="translate(583.793604, 322.301687)"><g><path d="M 10.507812 0 L 14.097656 0 L 24.234375 -26.367188 L 20.941406 -26.367188 L 12.378906 -3.402344 L 12.304688 -3.402344 L 3.664062 -26.367188 L 0.375 -26.367188 Z M 10.507812 0 "/></g></g></g><g fill="#292929" fill-opacity="1"><g transform="translate(608.387489, 322.301687)"><g><path d="M 2.242188 0 L 20.644531 0 L 20.644531 -2.765625 L 5.273438 -2.765625 L 5.273438 -12.265625 L 18.773438 -12.265625 L 18.773438 -14.960938 L 5.273438 -14.960938 L 5.273438 -23.597656 L 20.269531 -23.597656 L 20.269531 -26.367188 L 2.242188 -26.367188 Z M 2.242188 0 "/></g></g></g><g fill="#292929" fill-opacity="1"><g transform="translate(453.535781, 357.602127)"><g><path d="M 2.242188 0 L 20.644531 0 L 20.644531 -2.765625 L 5.273438 -2.765625 L 5.273438 -12.265625 L 18.773438 -12.265625 L 18.773438 -14.960938 L 5.273438 -14.960938 L 5.273438 -23.597656 L 20.269531 -23.597656 L 20.269531 -26.367188 L 2.242188 -26.367188 Z M 2.242188 0 "/></g></g></g><g fill="#292929" fill-opacity="1"><g transform="translate(475.10215, 357.602127)"><g><path d="M 12.152344 0.933594 C 18.101562 0.933594 21.953125 -2.582031 21.953125 -7.40625 C 21.953125 -10.996094 19.410156 -13.386719 14.324219 -14.511719 L 10.058594 -15.484375 C 6.730469 -16.230469 5.308594 -17.503906 5.308594 -19.746094 C 5.308594 -22.476562 7.589844 -24.53125 11.183594 -24.53125 C 14.546875 -24.53125 17.054688 -22.328125 17.425781 -19.109375 L 20.382812 -19.859375 C 19.632812 -24.269531 15.96875 -27.300781 11.144531 -27.300781 C 5.757812 -27.300781 2.207031 -23.972656 2.207031 -19.222656 C 2.207031 -15.707031 4.414062 -13.574219 9.085938 -12.492188 L 13.351562 -11.519531 C 17.203125 -10.621094 18.847656 -9.238281 18.847656 -6.917969 C 18.847656 -4.039062 16.304688 -1.832031 12.152344 -1.832031 C 7.554688 -1.832031 4.078125 -4.75 3.816406 -8.863281 L 0.746094 -8.300781 C 1.347656 -2.878906 6.058594 0.933594 12.152344 0.933594 Z M 12.152344 0.933594 "/></g></g></g><g fill="#292929" fill-opacity="1"><g transform="translate(497.789813, 357.602127)"><g><path d="M 9.199219 0 L 12.304688 0 L 12.304688 -23.597656 L 21.128906 -23.597656 L 21.128906 -26.367188 L 0.375 -26.367188 L 0.375 -23.597656 L 9.199219 -23.597656 Z M 9.199219 0 "/></g></g></g><g fill="#292929" fill-opacity="1"><g transform="translate(519.281406, 357.602127)"><g><path d="M 3.589844 0.449219 C 4.824219 0.449219 5.722656 -0.410156 5.722656 -1.644531 C 5.722656 -2.84375 4.824219 -3.703125 3.589844 -3.703125 C 2.355469 -3.703125 1.496094 -2.84375 1.496094 -1.644531 C 1.496094 -0.410156 2.355469 0.449219 3.589844 0.449219 Z M 3.589844 0.449219 "/></g></g></g><g fill="#292929" fill-opacity="1"><g transform="translate(526.495121, 357.602127)"><g/></g></g><g fill="#292929" fill-opacity="1"><g transform="translate(536.661576, 357.602127)"><g><path d="M 1.871094 0 L 19.746094 0 L 19.746094 -2.765625 L 5.011719 -2.765625 C 5.011719 -5.910156 6.359375 -7.816406 10.136719 -9.949219 L 13.464844 -11.816406 C 17.539062 -14.097656 18.996094 -16.191406 18.996094 -19.558594 C 18.996094 -24.046875 15.707031 -27.300781 11.03125 -27.300781 C 6.019531 -27.300781 2.320312 -23.636719 2.132812 -18.398438 L 5.199219 -17.800781 C 5.347656 -22.175781 7.777344 -24.53125 10.957031 -24.53125 C 13.875 -24.53125 15.855469 -22.511719 15.855469 -19.746094 C 15.855469 -17.390625 14.773438 -15.855469 11.707031 -14.0625 L 8.640625 -12.304688 C 3.703125 -9.5 1.90625 -6.917969 1.871094 -2.207031 Z M 1.871094 0 "/></g></g></g><g fill="#292929" fill-opacity="1"><g transform="translate(557.891547, 357.602127)"><g><path d="M 13.089844 0.933594 C 19.746094 0.933594 24.269531 -5.011719 24.269531 -13.164062 C 24.269531 -21.355469 19.746094 -27.300781 13.089844 -27.300781 C 6.394531 -27.300781 1.871094 -21.355469 1.871094 -13.164062 C 1.871094 -5.011719 6.394531 0.933594 13.089844 0.933594 Z M 13.089844 -1.832031 C 8.226562 -1.832031 4.972656 -6.621094 4.972656 -13.164062 C 4.972656 -19.746094 8.226562 -24.53125 13.089844 -24.53125 C 17.949219 -24.53125 21.167969 -19.746094 21.167969 -13.164062 C 21.167969 -6.621094 17.949219 -1.832031 13.089844 -1.832031 Z M 13.089844 -1.832031 "/></g></g></g><g fill="#292929" fill-opacity="1"><g transform="translate(584.017869, 357.602127)"><g><path d="M 1.871094 0 L 19.746094 0 L 19.746094 -2.765625 L 5.011719 -2.765625 C 5.011719 -5.910156 6.359375 -7.816406 10.136719 -9.949219 L 13.464844 -11.816406 C 17.539062 -14.097656 18.996094 -16.191406 18.996094 -19.558594 C 18.996094 -24.046875 15.707031 -27.300781 11.03125 -27.300781 C 6.019531 -27.300781 2.320312 -23.636719 2.132812 -18.398438 L 5.199219 -17.800781 C 5.347656 -22.175781 7.777344 -24.53125 10.957031 -24.53125 C 13.875 -24.53125 15.855469 -22.511719 15.855469 -19.746094 C 15.855469 -17.390625 14.773438 -15.855469 11.707031 -14.0625 L 8.640625 -12.304688 C 3.703125 -9.5 1.90625 -6.917969 1.871094 -2.207031 Z M 1.871094 0 "/></g></g></g><g fill="#292929" fill-opacity="1"><g transform="translate(605.24784, 357.602127)"><g><path d="M 13.761719 0 L 16.867188 0 L 16.867188 -5.984375 L 20.195312 -5.984375 L 20.195312 -8.75 L 16.867188 -8.75 L 16.867188 -26.367188 L 12.492188 -26.367188 L 0.746094 -8.003906 L 0.746094 -5.984375 L 13.761719 -5.984375 Z M 4.5625 -8.75 L 13.726562 -23.113281 L 13.761719 -23.113281 L 13.761719 -8.75 Z M 4.5625 -8.75 "/></g></g></g></svg>