<svg xmlns="http://www.w3.org/2000/svg" xmlns:xlink="http://www.w3.org/1999/xlink" width="500" zoomAndPan="magnify" viewBox="0 0 375 374.999991" height="500" preserveAspectRatio="xMidYMid meet" version="1.0"><defs><g/><clipPath id="05b4a1018d"><path d="M 65.832031 122.910156 L 122.082031 122.910156 L 122.082031 244.601562 L 65.832031 244.601562 Z M 65.832031 122.910156 " clip-rule="nonzero"/></clipPath></defs><rect x="-37.5" width="450" fill="#ffffff" y="-37.499999" height="449.999989" fill-opacity="1"/><rect x="-37.5" width="450" fill="#2b2b2b" y="-37.499999" height="449.999989" fill-opacity="1"/><g fill="#e6e6dd" fill-opacity="1"><g transform="translate(125.997726, 242.450051)"><g><path d="M 32.984375 1.09375 C 23.578125 1.09375 16.425781 -1.78125 11.53125 -7.53125 C 6.644531 -13.28125 4.203125 -21.359375 4.203125 -31.765625 L 4.203125 -87.28125 C 4.203125 -97.332031 6.644531 -104.910156 11.53125 -110.015625 C 16.425781 -115.128906 23.578125 -117.6875 32.984375 -117.6875 C 42.398438 -117.6875 49.550781 -115.128906 54.4375 -110.015625 C 59.320312 -104.910156 61.765625 -97.332031 61.765625 -87.28125 L 61.765625 -31.765625 C 61.765625 -21.265625 59.320312 -13.160156 54.4375 -7.453125 C 49.550781 -1.753906 42.398438 1.09375 32.984375 1.09375 Z M 32.984375 -20.359375 C 35.066406 -20.359375 36.46875 -21.265625 37.1875 -23.078125 C 37.914062 -24.890625 38.28125 -27.421875 38.28125 -30.671875 L 38.28125 -87.6875 C 38.28125 -90.226562 37.941406 -92.289062 37.265625 -93.875 C 36.585938 -95.457031 35.207031 -96.25 33.125 -96.25 C 29.226562 -96.25 27.28125 -93.304688 27.28125 -87.421875 L 27.28125 -30.546875 C 27.28125 -27.191406 27.6875 -24.65625 28.5 -22.9375 C 29.320312 -21.21875 30.816406 -20.359375 32.984375 -20.359375 Z M 32.984375 -20.359375 "/></g></g></g><g fill="#e6e6dd" fill-opacity="1"><g transform="translate(191.971181, 242.450051)"><g><path d="M 32.171875 1.09375 C 22.578125 1.09375 15.445312 -1.617188 10.78125 -7.046875 C 6.125 -12.484375 3.796875 -20.539062 3.796875 -31.21875 L 3.796875 -116.609375 L 26.46875 -116.609375 L 26.46875 -32.171875 C 26.46875 -28.460938 26.828125 -25.566406 27.546875 -23.484375 C 28.273438 -21.398438 29.816406 -20.359375 32.171875 -20.359375 C 34.523438 -20.359375 36.0625 -21.375 36.78125 -23.40625 C 37.507812 -25.445312 37.875 -28.367188 37.875 -32.171875 L 37.875 -116.609375 L 60.546875 -116.609375 L 60.546875 -31.21875 C 60.546875 -20.539062 58.210938 -12.484375 53.546875 -7.046875 C 48.890625 -1.617188 41.765625 1.09375 32.171875 1.09375 Z M 32.171875 1.09375 "/></g></g></g><g fill="#e6e6dd" fill-opacity="1"><g transform="translate(256.315623, 242.450051)"><g><path d="M 15.203125 0 L 15.203125 -94.203125 L 1.359375 -94.203125 L 1.359375 -116.609375 L 52.40625 -116.609375 L 52.40625 -94.203125 L 38.546875 -94.203125 L 38.546875 0 Z M 15.203125 0 "/></g></g></g><g clip-path="url(#05b4a1018d)"><path fill="#e6e6dd" d="M 65.832031 122.910156 L 122.082031 122.910156 L 122.082031 244.601562 L 65.832031 244.601562 Z M 65.832031 122.910156 " fill-opacity="1" fill-rule="nonzero"/></g><g fill="#2b2b2b" fill-opacity="1"><g transform="translate(111.583562, 234.789008)"><g><path d="M 0 -1.3125 L -37.71875 -1.3125 L -37.71875 -8.609375 L 0 -8.609375 Z M 0 -1.3125 "/></g></g></g><g fill="#2b2b2b" fill-opacity="1"><g transform="translate(111.583562, 224.824055)"><g><path d="M 0 -1.671875 L -37.71875 -1.671875 L -37.71875 -9.4375 L -19.671875 -12.90625 L -37.71875 -12.90625 L -37.71875 -20.203125 L 0 -20.203125 L 0 -12.828125 L -18.875 -9.046875 L 0 -9.046875 Z M 0 -1.671875 "/></g></g></g><g fill="#2b2b2b" fill-opacity="1"><g transform="translate(111.583562, 202.962625)"><g><path d="M 0.34375 -10.625 C 0.34375 -7.195312 -0.5 -4.722656 -2.1875 -3.203125 C -3.882812 -1.679688 -6.625 -0.921875 -10.40625 -0.921875 L -14.09375 -0.921875 L -14.09375 -8.34375 L -9.390625 -8.34375 C -7.515625 -8.34375 -6.578125 -8.941406 -6.578125 -10.140625 C -6.578125 -10.816406 -6.773438 -11.285156 -7.171875 -11.546875 C -7.566406 -11.804688 -8.234375 -11.9375 -9.171875 -11.9375 C -10.398438 -11.9375 -11.414062 -11.789062 -12.21875 -11.5 C -13.03125 -11.207031 -13.707031 -10.832031 -14.25 -10.375 C -14.789062 -9.925781 -15.628906 -9.117188 -16.765625 -7.953125 L -20.015625 -4.703125 C -22.472656 -2.179688 -25.195312 -0.921875 -28.1875 -0.921875 C -31.40625 -0.921875 -33.851562 -1.660156 -35.53125 -3.140625 C -37.21875 -4.617188 -38.0625 -6.773438 -38.0625 -9.609375 C -38.0625 -13.003906 -37.160156 -15.445312 -35.359375 -16.9375 C -33.566406 -18.4375 -30.753906 -19.1875 -26.921875 -19.1875 L -26.921875 -11.5 L -29.5 -11.453125 C -30 -11.453125 -30.394531 -11.3125 -30.6875 -11.03125 C -30.976562 -10.757812 -31.125 -10.375 -31.125 -9.875 C -31.125 -9.289062 -30.960938 -8.851562 -30.640625 -8.5625 C -30.316406 -8.269531 -29.878906 -8.125 -29.328125 -8.125 C -28.097656 -8.125 -26.828125 -8.828125 -25.515625 -10.234375 L -21.296875 -14.625 C -20.296875 -15.644531 -19.347656 -16.488281 -18.453125 -17.15625 C -17.566406 -17.832031 -16.515625 -18.375 -15.296875 -18.78125 C -14.085938 -19.195312 -12.644531 -19.40625 -10.96875 -19.40625 C -7.257812 -19.40625 -4.445312 -18.722656 -2.53125 -17.359375 C -0.613281 -16.003906 0.34375 -13.757812 0.34375 -10.625 Z M 0.34375 -10.625 "/></g></g></g><g fill="#2b2b2b" fill-opacity="1"><g transform="translate(111.583562, 182.725433)"><g><path d="M 0 -1.3125 L -37.71875 -1.3125 L -37.71875 -8.609375 L 0 -8.609375 Z M 0 -1.3125 "/></g></g></g><g fill="#2b2b2b" fill-opacity="1"><g transform="translate(111.583562, 172.760479)"><g><path d="M -37.71875 -1.671875 L -37.71875 -12.078125 C -37.71875 -14.765625 -36.96875 -16.78125 -35.46875 -18.125 C -33.976562 -19.476562 -31.769531 -20.171875 -28.84375 -20.203125 L -11.203125 -20.28125 C -7.484375 -20.3125 -4.6875 -19.664062 -2.8125 -18.34375 C -0.9375 -17.03125 0 -14.851562 0 -11.8125 L 0 -1.671875 Z M -6.671875 -10.578125 C -6.671875 -11.953125 -7.34375 -12.640625 -8.6875 -12.640625 L -28.140625 -12.640625 C -28.992188 -12.640625 -29.628906 -12.570312 -30.046875 -12.4375 C -30.472656 -12.3125 -30.757812 -12.070312 -30.90625 -11.71875 C -31.050781 -11.375 -31.125 -10.832031 -31.125 -10.09375 L -31.125 -9.265625 L -6.671875 -9.265625 Z M -6.671875 -10.578125 "/></g></g></g><g fill="#2b2b2b" fill-opacity="1"><g transform="translate(111.583562, 151.118535)"><g><path d="M 0 -1.671875 L -37.71875 -1.671875 L -37.71875 -16.765625 L -30.421875 -16.765625 L -30.421875 -9.359375 L -23.09375 -9.359375 L -23.09375 -16.46875 L -15.984375 -16.46875 L -15.984375 -9.359375 L -7.328125 -9.359375 L -7.328125 -17.25 L 0 -17.25 Z M 0 -1.671875 "/></g></g></g></svg>