<svg xmlns="http://www.w3.org/2000/svg" xmlns:xlink="http://www.w3.org/1999/xlink" width="500" zoomAndPan="magnify" viewBox="0 0 375 374.999991" height="500" preserveAspectRatio="xMidYMid meet" version="1.0"><defs><g/><clipPath id="f897572cfd"><path d="M 139.074219 78 L 235.824219 78 L 235.824219 219 L 139.074219 219 Z M 139.074219 78 " clip-rule="nonzero"/></clipPath></defs><rect x="-37.5" width="450" fill="#ffffff" y="-37.499999" height="449.999989" fill-opacity="1"/><rect x="-37.5" width="450" fill="#e4e2dd" y="-37.499999" height="449.999989" fill-opacity="1"/><path fill="#ff89a9" d="M 218.074219 163.246094 C 215.398438 166.589844 214.152344 171.472656 215.757812 175.441406 C 216.183594 176.496094 218.207031 181.625 218.34375 183.253906 C 218.480469 184.9375 218.503906 186.671875 217.960938 188.269531 C 217.414062 189.867188 216.214844 191.320312 214.589844 191.777344 C 212.03125 192.492188 209.351562 190.460938 208.394531 187.980469 C 207.4375 185.507812 207.742188 182.742188 208.070312 180.105469 C 208.257812 178.59375 208.441406 177.078125 208.628906 175.566406 C 208.816406 174.023438 209.070312 172.679688 208.632812 171.1875 C 208.523438 170.816406 208.125 170.1875 207.691406 169.824219 C 206.824219 169.109375 205.8125 168.644531 204.75 168.4375 C 203.285156 168.152344 201.722656 168.339844 200.3125 168.976562 C 199.28125 169.441406 198.304688 170.023438 197.417969 170.707031 C 194.578125 172.882812 192.679688 176.09375 192.976562 179.824219 C 193.203125 183.789062 195.417969 187.472656 196.972656 191.140625 C 198.304688 195.820312 199.414062 200.070312 199.34375 204.613281 C 199.304688 207.125 198.613281 209.597656 197.257812 211.710938 C 195.257812 214.835938 191.984375 217.070312 188.078125 216.316406 C 185.789062 215.597656 183.835938 214.558594 182.238281 212.535156 C 178.417969 207.160156 177.910156 201.210938 178.402344 194.953125 C 178.851562 190.347656 181.589844 186.457031 183.027344 181.875 C 183.996094 177.855469 183.195312 173.789062 180.363281 171.222656 C 179.960938 170.859375 179.519531 170.527344 179.039062 170.226562 C 176.597656 168.925781 173.917969 168.078125 171.261719 168.820312 C 171.082031 168.867188 166.289062 170.460938 167.933594 177.042969 C 168.671875 179.984375 169.648438 182.96875 169.394531 185.992188 C 169.113281 189.359375 166.667969 192.6875 163.046875 192.804688 C 161.3125 192.859375 159.621094 192.09375 158.632812 190.664062 C 157.222656 188.617188 157.921875 186.3125 158.480469 184.15625 C 160.066406 178.035156 160.425781 171.207031 157.320312 165.699219 C 156.582031 164.386719 155.664062 163.1875 154.820312 161.941406 C 153.863281 160.519531 140.960938 147.832031 141.558594 124.621094 C 142.210938 99.238281 163.316406 79.191406 188.695312 79.84375 C 214.078125 80.496094 234.125 101.601562 233.472656 126.984375 C 232.886719 149.761719 220.554688 160.148438 218.074219 163.246094 " fill-opacity="1" fill-rule="nonzero"/><g clip-path="url(#f897572cfd)"><path fill="#2b2b2b" d="M 216.820312 161.992188 C 213.960938 165.621094 212.378906 170.574219 213.769531 175.132812 C 214.167969 176.4375 214.753906 177.695312 215.222656 178.972656 C 215.515625 179.78125 215.800781 180.59375 216.0625 181.414062 C 216.269531 182.066406 216.367188 182.773438 216.589844 183.414062 C 216.660156 183.613281 216.535156 183.136719 216.5625 183.171875 C 216.601562 183.234375 216.582031 183.433594 216.589844 183.507812 C 216.617188 183.847656 216.632812 184.183594 216.644531 184.523438 C 216.664062 185.191406 216.671875 185.886719 216.566406 186.550781 C 216.492188 187.03125 216.359375 187.523438 216.183594 187.980469 C 216.257812 187.789062 216.136719 188.085938 216.132812 188.097656 C 216.074219 188.214844 216.011719 188.332031 215.949219 188.445312 C 215.882812 188.5625 215.625 188.96875 215.679688 188.898438 C 215.390625 189.285156 215.09375 189.554688 214.828125 189.726562 C 214.484375 189.949219 214.136719 190.101562 213.789062 190.144531 C 213.460938 190.179688 213.125 190.128906 212.828125 190.046875 C 212.707031 190.011719 212.589844 189.972656 212.472656 189.929688 C 212.542969 189.957031 212.710938 190.050781 212.371094 189.882812 C 212.140625 189.769531 211.917969 189.636719 211.707031 189.492188 C 211.09375 189.070312 210.519531 188.371094 210.121094 187.535156 C 210.019531 187.320312 209.796875 186.589844 209.699219 186.132812 C 209.585938 185.582031 209.542969 185.027344 209.53125 184.464844 C 209.460938 181.855469 209.953125 179.21875 210.269531 176.632812 C 210.578125 174.136719 211.175781 171.332031 209.496094 169.183594 C 207.929688 167.171875 204.972656 166.304688 202.511719 166.585938 C 197.75 167.132812 193.3125 171.019531 191.757812 175.496094 C 190.046875 180.425781 192.402344 185.417969 194.453125 189.832031 C 194.6875 190.347656 194.925781 190.859375 195.15625 191.378906 C 195.40625 191.945312 195.53125 192.558594 195.699219 193.160156 C 196.054688 194.445312 196.394531 195.738281 196.6875 197.046875 C 197.238281 199.492188 197.601562 201.96875 197.570312 204.488281 C 197.542969 206.726562 196.945312 208.910156 195.726562 210.816406 C 194.78125 212.289062 193.277344 213.726562 191.769531 214.277344 C 189.867188 214.972656 188.242188 214.695312 186.496094 213.78125 C 184.59375 212.785156 183.375 211.28125 182.335938 209.316406 C 180.195312 205.265625 179.839844 200.742188 180.089844 196.222656 C 180.359375 191.386719 183.074219 187.328125 184.585938 182.8125 C 186.039062 178.476562 185.035156 172.972656 181.53125 169.890625 C 179.5 168.101562 176.722656 167.035156 174.035156 166.800781 C 172.609375 166.679688 171.132812 166.867188 169.84375 167.503906 C 167.324219 168.742188 165.929688 171.414062 165.824219 174.152344 C 165.726562 176.597656 166.65625 178.964844 167.1875 181.320312 C 167.457031 182.519531 167.660156 183.722656 167.660156 184.957031 C 167.660156 185.304688 167.636719 185.648438 167.621094 185.992188 C 167.617188 186.035156 167.582031 186.339844 167.617188 186.070312 C 167.605469 186.164062 167.589844 186.253906 167.570312 186.34375 C 167.480469 186.832031 167.34375 187.308594 167.167969 187.773438 C 167.058594 188.0625 167.257812 187.585938 167.128906 187.863281 C 167.089844 187.949219 167.050781 188.03125 167.011719 188.113281 C 166.898438 188.335938 166.777344 188.550781 166.648438 188.761719 C 166.363281 189.21875 166.332031 189.265625 165.90625 189.699219 C 165.511719 190.097656 165.46875 190.132812 165.066406 190.382812 C 164.882812 190.496094 164.699219 190.597656 164.507812 190.691406 C 164.183594 190.855469 164.355469 190.757812 164.425781 190.730469 C 164.28125 190.785156 164.136719 190.832031 163.988281 190.871094 C 163.164062 191.105469 162.433594 191.125 161.5 190.777344 C 161.578125 190.804688 161.1875 190.621094 161.097656 190.570312 C 161.007812 190.519531 160.667969 190.285156 160.710938 190.324219 C 160.277344 189.960938 160.019531 189.648438 159.804688 189.148438 C 159.445312 188.304688 159.554688 187.351562 159.734375 186.484375 C 159.972656 185.335938 160.316406 184.210938 160.566406 183.066406 C 161.09375 180.660156 161.429688 178.191406 161.449219 175.730469 C 161.464844 173.316406 161.175781 170.851562 160.457031 168.546875 C 159.703125 166.125 158.441406 164.039062 156.996094 161.972656 C 156.175781 160.804688 155.277344 159.738281 154.386719 158.628906 C 154.261719 158.476562 154.136719 158.324219 154.015625 158.167969 C 153.949219 158.082031 153.878906 157.992188 153.808594 157.902344 C 153.835938 157.9375 154.035156 158.195312 153.820312 157.914062 C 153.519531 157.515625 153.21875 157.117188 152.929688 156.710938 C 152.234375 155.746094 151.578125 154.757812 150.953125 153.746094 C 150.207031 152.539062 149.511719 151.300781 148.871094 150.035156 C 148.523438 149.359375 148.195312 148.671875 147.878906 147.976562 C 147.714844 147.613281 147.554688 147.25 147.394531 146.882812 C 147.285156 146.625 147.492188 147.121094 147.382812 146.859375 C 147.351562 146.78125 147.320312 146.707031 147.289062 146.632812 C 147.195312 146.402344 147.101562 146.171875 147.011719 145.9375 C 143.984375 138.269531 142.792969 130.144531 143.476562 121.941406 C 143.636719 120.039062 143.859375 118.539062 144.285156 116.554688 C 144.683594 114.695312 145.199219 112.855469 145.832031 111.058594 C 146.484375 109.191406 147.03125 107.902344 147.921875 106.125 C 148.742188 104.488281 149.660156 102.898438 150.671875 101.371094 C 152.648438 98.378906 154.917969 95.722656 157.695312 93.175781 C 160.367188 90.726562 163.109375 88.757812 166.417969 86.953125 C 169.703125 85.160156 172.804688 83.933594 176.519531 82.980469 C 180.34375 82 183.738281 81.582031 187.734375 81.601562 C 189.59375 81.613281 191.714844 81.753906 193.398438 81.976562 C 195.066406 82.199219 197.136719 82.613281 198.921875 83.089844 C 202.640625 84.082031 205.710938 85.328125 209.023438 87.179688 C 210.644531 88.085938 212.210938 89.089844 213.710938 90.1875 C 213.878906 90.308594 214.046875 90.433594 214.214844 90.558594 C 214.269531 90.601562 214.679688 90.917969 214.496094 90.773438 C 214.894531 91.082031 215.289062 91.402344 215.679688 91.726562 C 216.390625 92.320312 217.082031 92.933594 217.753906 93.566406 C 220.492188 96.144531 222.65625 98.738281 224.617188 101.773438 C 225.609375 103.308594 226.511719 104.902344 227.3125 106.546875 C 227.511719 106.949219 227.703125 107.359375 227.890625 107.769531 C 227.976562 107.964844 228.0625 108.15625 228.148438 108.347656 C 228.195312 108.460938 228.242188 108.570312 228.289062 108.679688 C 228.1875 108.441406 228.339844 108.800781 228.355469 108.84375 C 228.707031 109.710938 229.042969 110.589844 229.34375 111.480469 C 229.953125 113.273438 230.449219 115.105469 230.832031 116.960938 C 231.019531 117.871094 231.175781 118.789062 231.3125 119.707031 C 231.367188 120.074219 231.335938 119.871094 231.324219 119.792969 C 231.339844 119.914062 231.355469 120.039062 231.371094 120.164062 C 231.398438 120.378906 231.421875 120.597656 231.445312 120.8125 C 231.503906 121.34375 231.550781 121.875 231.589844 122.410156 C 232.175781 130.472656 230.894531 138.65625 227.738281 146.132812 C 227.867188 145.824219 227.613281 146.414062 227.589844 146.472656 C 227.511719 146.648438 227.433594 146.824219 227.355469 146.996094 C 227.179688 147.386719 226.996094 147.773438 226.808594 148.15625 C 226.460938 148.871094 226.097656 149.574219 225.710938 150.269531 C 225.027344 151.515625 224.28125 152.730469 223.488281 153.910156 C 223.121094 154.453125 222.746094 154.984375 222.359375 155.511719 C 222.183594 155.75 222.003906 155.988281 221.824219 156.226562 C 221.558594 156.578125 221.976562 156.03125 221.785156 156.273438 C 221.679688 156.40625 221.578125 156.542969 221.472656 156.671875 C 220.824219 157.484375 220.15625 158.277344 219.464844 159.050781 C 218.59375 160.035156 217.648438 160.96875 216.820312 161.992188 C 216.222656 162.738281 216.09375 163.773438 216.820312 164.5 C 217.441406 165.121094 218.726562 165.253906 219.332031 164.5 C 220.222656 163.394531 221.246094 162.390625 222.1875 161.324219 C 223.824219 159.460938 225.359375 157.496094 226.734375 155.429688 C 230.730469 149.421875 233.316406 142.511719 234.460938 135.398438 C 235.804688 127.023438 235.484375 118.425781 232.707031 110.363281 C 230.1875 103.046875 225.902344 96.363281 220.265625 91.054688 C 214.621094 85.746094 207.695312 81.820312 200.222656 79.765625 C 192.445312 77.625 184.128906 77.5 176.292969 79.378906 C 168.726562 81.195312 161.679688 84.925781 155.851562 90.066406 C 150.058594 95.179688 145.605469 101.703125 142.847656 108.914062 C 139.832031 116.808594 139.160156 125.425781 140.257812 133.773438 C 141.222656 141.105469 143.566406 148.210938 147.320312 154.59375 C 148.542969 156.671875 149.917969 158.648438 151.402344 160.546875 C 151.855469 161.121094 152.316406 161.683594 152.785156 162.242188 C 152.9375 162.425781 153.09375 162.605469 153.246094 162.789062 C 153.300781 162.855469 153.351562 162.921875 153.40625 162.988281 C 153.613281 163.230469 153.09375 162.53125 153.265625 162.804688 C 154.539062 164.800781 156.03125 166.613281 156.824219 168.847656 C 157.59375 171.035156 157.894531 173.199219 157.898438 175.5 C 157.902344 177.875 157.59375 180.152344 157.070312 182.457031 C 156.519531 184.867188 155.546875 187.40625 156.3125 189.878906 C 157.101562 192.441406 159.367188 194.175781 161.984375 194.511719 C 164.304688 194.808594 166.613281 193.941406 168.289062 192.335938 C 169.785156 190.894531 170.769531 188.878906 171.066406 186.832031 C 171.476562 184.007812 170.847656 181.191406 170.136719 178.46875 C 169.972656 177.835938 169.800781 177.203125 169.648438 176.570312 C 169.578125 176.289062 169.523438 176.007812 169.464844 175.722656 C 169.460938 175.707031 169.40625 175.371094 169.4375 175.59375 C 169.414062 175.4375 169.402344 175.277344 169.390625 175.121094 C 169.359375 174.683594 169.378906 174.257812 169.390625 173.824219 C 169.394531 173.75 169.433594 173.464844 169.382812 173.828125 C 169.390625 173.753906 169.402344 173.679688 169.417969 173.605469 C 169.460938 173.394531 169.503906 173.183594 169.566406 172.976562 C 169.613281 172.804688 169.679688 172.636719 169.738281 172.46875 C 169.628906 172.785156 169.703125 172.546875 169.789062 172.375 C 169.863281 172.234375 169.941406 172.09375 170.023438 171.960938 C 170.109375 171.828125 170.441406 171.445312 170.101562 171.820312 C 170.261719 171.640625 170.410156 171.457031 170.582031 171.289062 C 170.675781 171.199219 170.769531 171.117188 170.863281 171.035156 C 171.191406 170.742188 170.601562 171.195312 170.882812 171.019531 C 171.179688 170.832031 171.472656 170.664062 171.78125 170.5 C 172.027344 170.367188 171.269531 170.648438 171.664062 170.554688 C 171.925781 170.488281 172.1875 170.40625 172.457031 170.367188 C 174.527344 170.0625 177.117188 170.898438 178.753906 172.171875 C 180.410156 173.460938 181.265625 175.210938 181.566406 177.289062 C 181.675781 178.011719 181.664062 179.40625 181.550781 180.199219 C 181.382812 181.410156 180.945312 182.550781 180.492188 183.683594 C 179.558594 185.980469 178.414062 188.1875 177.601562 190.535156 C 176.769531 192.9375 176.523438 195.410156 176.476562 197.941406 C 176.390625 202.835938 177.253906 207.777344 179.789062 212.027344 C 182.222656 216.109375 187.007812 219.148438 191.878906 217.953125 C 196.519531 216.816406 199.820312 212.261719 200.761719 207.761719 C 201.847656 202.539062 200.449219 196.988281 199.050781 191.960938 C 197.765625 187.347656 194.058594 182.980469 194.789062 177.9375 C 194.894531 177.199219 195.246094 176.144531 195.648438 175.402344 C 196.15625 174.460938 196.625 173.847656 197.363281 173.109375 C 198.832031 171.636719 200.941406 170.175781 203.105469 170.085938 C 204.152344 170.042969 205.117188 170.265625 205.980469 170.78125 C 206.339844 171 206.640625 171.226562 206.804688 171.480469 C 206.867188 171.582031 206.9375 171.695312 206.984375 171.804688 C 206.925781 171.664062 206.902344 171.476562 206.988281 171.90625 C 207.035156 172.160156 207.078125 172.390625 207.09375 172.644531 C 207.15625 173.96875 206.882812 175.324219 206.722656 176.632812 C 206.550781 178.03125 206.371094 179.429688 206.207031 180.828125 C 205.914062 183.347656 205.75 186.035156 206.683594 188.453125 C 207.554688 190.71875 209.296875 192.582031 211.617188 193.382812 C 213.910156 194.175781 216.496094 193.382812 218.0625 191.558594 C 219.84375 189.488281 220.308594 186.808594 220.175781 184.144531 C 220.023438 181.023438 218.6875 178.023438 217.542969 175.152344 C 216.117188 171.574219 216.976562 167.488281 219.332031 164.5 C 219.921875 163.75 220.066406 162.726562 219.332031 161.992188 C 218.714844 161.375 217.417969 161.234375 216.820312 161.992188 " fill-opacity="1" fill-rule="nonzero"/></g><path fill="#2b2b2b" d="M 156.804688 133.121094 C 157.207031 133.394531 156.660156 132.910156 156.980469 133.265625 C 157.09375 133.390625 157.222656 133.503906 157.324219 133.636719 C 157.265625 133.5625 157.199219 133.421875 157.34375 133.691406 C 157.429688 133.84375 157.523438 133.984375 157.601562 134.136719 C 157.609375 134.152344 157.824219 134.667969 157.703125 134.351562 C 157.746094 134.460938 157.785156 134.570312 157.820312 134.679688 C 157.933594 135.019531 158.023438 135.363281 158.097656 135.710938 C 158.390625 137.070312 158.4375 138.480469 158.824219 139.824219 C 159.269531 141.367188 160.109375 142.703125 161.386719 143.6875 C 162.492188 144.542969 163.804688 145.085938 165.160156 145.425781 C 166.554688 145.773438 167.992188 145.890625 169.417969 146.078125 C 169.785156 146.125 169 146.007812 169.628906 146.105469 C 169.820312 146.136719 170.011719 146.164062 170.207031 146.199219 C 170.527344 146.253906 170.847656 146.316406 171.160156 146.390625 C 171.886719 146.558594 172.484375 146.75 172.980469 147.011719 C 174.082031 147.589844 174.804688 148.480469 175.480469 149.46875 C 176.277344 150.636719 177.023438 151.859375 178.003906 152.890625 C 179.957031 154.941406 182.910156 156.070312 185.734375 155.898438 C 188.589844 155.722656 190.910156 154.300781 193.039062 152.492188 C 193.964844 151.703125 194.847656 150.863281 195.78125 150.082031 C 195.863281 150.011719 195.949219 149.941406 196.03125 149.871094 C 196.054688 149.855469 196.480469 149.519531 196.1875 149.746094 C 196.402344 149.582031 196.621094 149.421875 196.84375 149.269531 C 197.371094 148.910156 197.929688 148.582031 198.515625 148.328125 C 198.21875 148.453125 198.476562 148.34375 198.535156 148.324219 C 198.6875 148.273438 198.839844 148.21875 198.992188 148.171875 C 199.304688 148.078125 199.621094 148.003906 199.941406 147.949219 C 200.566406 147.84375 201.515625 147.847656 202.28125 147.851562 C 203.894531 147.855469 205.570312 147.875 207.121094 147.367188 C 209.828125 146.476562 212.792969 144.261719 213.285156 141.28125 C 213.359375 140.8125 213.386719 140.363281 213.375 139.890625 C 213.371094 139.683594 213.359375 139.480469 213.359375 139.273438 C 213.359375 139.140625 213.367188 139.007812 213.375 138.871094 C 213.351562 138.988281 213.351562 138.988281 213.375 138.863281 C 213.503906 138.027344 213.730469 137.605469 214.214844 136.878906 C 214.554688 136.375 214.132812 136.960938 214.355469 136.695312 C 214.503906 136.519531 214.65625 136.351562 214.820312 136.191406 C 214.957031 136.054688 215.097656 135.921875 215.246094 135.792969 C 215.277344 135.761719 215.660156 135.449219 215.492188 135.578125 C 216.160156 135.058594 216.914062 134.644531 217.664062 134.257812 C 218.515625 133.824219 218.765625 132.625 218.300781 131.832031 C 217.792969 130.964844 216.726562 130.757812 215.871094 131.195312 C 213.140625 132.59375 210.476562 134.824219 209.933594 138.015625 C 209.800781 138.789062 209.847656 139.523438 209.832031 140.300781 C 209.832031 140.359375 209.746094 140.929688 209.835938 140.488281 C 209.816406 140.585938 209.796875 140.683594 209.769531 140.78125 C 209.730469 140.929688 209.683594 141.078125 209.625 141.21875 C 209.773438 140.855469 209.558594 141.316406 209.535156 141.355469 C 209.457031 141.492188 209.367188 141.625 209.28125 141.757812 C 209.015625 142.179688 209.410156 141.617188 209.214844 141.847656 C 209.019531 142.082031 208.808594 142.300781 208.585938 142.507812 C 208.207031 142.859375 207.953125 143.054688 207.328125 143.414062 C 207.09375 143.546875 206.851562 143.664062 206.609375 143.785156 C 206.15625 144.007812 206.925781 143.691406 206.460938 143.84375 C 206.363281 143.875 206.273438 143.910156 206.179688 143.945312 C 205.417969 144.191406 204.898438 144.253906 204.132812 144.285156 C 202.484375 144.355469 200.851562 144.242188 199.210938 144.492188 C 196.5625 144.898438 194.414062 146.546875 192.457031 148.273438 C 191.566406 149.0625 190.703125 149.878906 189.765625 150.609375 C 190.050781 150.386719 189.621094 150.710938 189.601562 150.726562 C 189.511719 150.789062 189.421875 150.855469 189.332031 150.914062 C 189.089844 151.085938 188.835938 151.246094 188.582031 151.398438 C 188.328125 151.550781 188.066406 151.691406 187.796875 151.816406 C 187.699219 151.863281 187.601562 151.910156 187.5 151.953125 C 187.839844 151.808594 187.207031 152.046875 187.140625 152.066406 C 186.863281 152.15625 186.582031 152.226562 186.296875 152.28125 C 186.328125 152.273438 185.769531 152.355469 186.019531 152.328125 C 186.269531 152.300781 185.703125 152.351562 185.734375 152.347656 C 185.441406 152.367188 185.152344 152.367188 184.863281 152.355469 C 184.6875 152.347656 184.511719 152.335938 184.339844 152.316406 C 184.683594 152.351562 184.191406 152.289062 184.121094 152.277344 C 183.777344 152.210938 183.4375 152.125 183.109375 152.019531 C 182.996094 151.984375 182.886719 151.941406 182.777344 151.90625 C 182.257812 151.730469 183.046875 152.054688 182.558594 151.816406 C 182.292969 151.691406 182.035156 151.558594 181.785156 151.410156 C 181.664062 151.335938 181.539062 151.253906 181.421875 151.175781 C 181.347656 151.125 181.277344 151.078125 181.207031 151.023438 C 181.332031 151.128906 181.316406 151.113281 181.152344 150.980469 C 180.703125 150.589844 180.292969 150.167969 179.925781 149.699219 C 180.121094 149.949219 179.761719 149.476562 179.769531 149.480469 C 179.660156 149.335938 179.558594 149.183594 179.457031 149.035156 C 179.25 148.734375 179.050781 148.433594 178.847656 148.128906 C 178.105469 147.019531 177.332031 145.878906 176.300781 145.007812 C 175.089844 143.980469 173.648438 143.328125 172.105469 142.964844 C 171.46875 142.820312 170.824219 142.71875 170.179688 142.628906 C 169.730469 142.566406 169.285156 142.511719 168.832031 142.457031 C 168.671875 142.4375 168.511719 142.414062 168.347656 142.394531 C 168.21875 142.382812 168.089844 142.367188 167.960938 142.347656 C 167.746094 142.320312 167.707031 142.316406 167.835938 142.332031 C 168.089844 142.367188 167.527344 142.285156 167.558594 142.292969 C 167.328125 142.257812 167.097656 142.214844 166.871094 142.171875 C 166.527344 142.105469 166.1875 142.027344 165.847656 141.933594 C 165.511719 141.84375 165.1875 141.730469 164.855469 141.621094 C 164.53125 141.511719 164.726562 141.574219 164.804688 141.605469 C 164.597656 141.515625 164.394531 141.417969 164.195312 141.308594 C 164.097656 141.253906 164 141.195312 163.90625 141.140625 C 163.851562 141.105469 163.328125 140.726562 163.585938 140.9375 C 163.328125 140.726562 163.085938 140.492188 162.875 140.234375 C 163.070312 140.472656 162.832031 140.167969 162.796875 140.109375 C 162.675781 139.921875 162.566406 139.726562 162.46875 139.523438 C 162.59375 139.785156 162.355469 139.226562 162.363281 139.246094 C 162.300781 139.0625 162.246094 138.878906 162.199219 138.695312 C 161.8125 137.234375 161.785156 135.707031 161.394531 134.246094 C 160.941406 132.542969 160.066406 131.058594 158.59375 130.054688 C 157.800781 129.515625 156.628906 129.90625 156.167969 130.691406 C 155.65625 131.570312 156.011719 132.578125 156.804688 133.121094 " fill-opacity="1" fill-rule="nonzero"/><path fill="#2b2b2b" d="M 178.589844 113.160156 C 178.589844 120.039062 176.339844 125.617188 173.566406 125.617188 C 170.792969 125.617188 168.539062 120.039062 168.539062 113.160156 C 168.539062 106.28125 170.792969 100.703125 173.566406 100.703125 C 176.339844 100.703125 178.589844 106.28125 178.589844 113.160156 " fill-opacity="1" fill-rule="nonzero"/><path fill="#2b2b2b" d="M 173.566406 100.878906 C 172.300781 100.878906 171.097656 102.136719 170.179688 104.417969 C 169.234375 106.75 168.71875 109.855469 168.71875 113.160156 C 168.71875 116.464844 169.234375 119.570312 170.179688 121.898438 C 171.097656 124.179688 172.300781 125.4375 173.566406 125.4375 C 174.832031 125.4375 176.035156 124.179688 176.953125 121.898438 C 177.894531 119.570312 178.414062 116.464844 178.414062 113.160156 C 178.414062 109.855469 177.894531 106.75 176.953125 104.417969 C 176.035156 102.136719 174.832031 100.878906 173.566406 100.878906 Z M 173.566406 125.792969 C 172.148438 125.792969 170.824219 124.457031 169.847656 122.035156 C 168.890625 119.660156 168.363281 116.507812 168.363281 113.160156 C 168.363281 109.808594 168.890625 106.65625 169.847656 104.285156 C 170.824219 101.859375 172.148438 100.523438 173.566406 100.523438 C 174.984375 100.523438 176.304688 101.859375 177.285156 104.285156 C 178.242188 106.65625 178.769531 109.808594 178.769531 113.160156 C 178.769531 116.507812 178.242188 119.660156 177.285156 122.035156 C 176.304688 124.457031 174.984375 125.792969 173.566406 125.792969 " fill-opacity="1" fill-rule="nonzero"/><path fill="#2b2b2b" d="M 204.066406 113.160156 C 204.066406 120.039062 201.816406 125.617188 199.042969 125.617188 C 196.265625 125.617188 194.019531 120.039062 194.019531 113.160156 C 194.019531 106.28125 196.265625 100.703125 199.042969 100.703125 C 201.816406 100.703125 204.066406 106.28125 204.066406 113.160156 " fill-opacity="1" fill-rule="nonzero"/><path fill="#2b2b2b" d="M 199.042969 100.878906 C 197.777344 100.878906 196.574219 102.136719 195.652344 104.417969 C 194.714844 106.75 194.195312 109.855469 194.195312 113.160156 C 194.195312 116.464844 194.714844 119.570312 195.652344 121.898438 C 196.574219 124.179688 197.777344 125.4375 199.042969 125.4375 C 200.304688 125.4375 201.511719 124.179688 202.429688 121.898438 C 203.371094 119.570312 203.890625 116.464844 203.890625 113.160156 C 203.890625 109.855469 203.371094 106.75 202.429688 104.417969 C 201.511719 102.136719 200.304688 100.878906 199.042969 100.878906 Z M 199.042969 125.792969 C 197.621094 125.792969 196.300781 124.457031 195.324219 122.035156 C 194.367188 119.660156 193.839844 116.507812 193.839844 113.160156 C 193.839844 109.808594 194.367188 106.65625 195.324219 104.285156 C 196.300781 101.859375 197.621094 100.523438 199.042969 100.523438 C 200.460938 100.523438 201.78125 101.859375 202.757812 104.285156 C 203.71875 106.65625 204.246094 109.808594 204.246094 113.160156 C 204.246094 116.507812 203.71875 119.660156 202.757812 122.035156 C 201.78125 124.457031 200.460938 125.792969 199.042969 125.792969 " fill-opacity="1" fill-rule="nonzero"/><path fill="#2b2b2b" d="M 156.53125 134.035156 C 156.507812 134.230469 156.53125 134.039062 156.550781 133.953125 C 156.585938 133.800781 156.625 133.652344 156.671875 133.503906 C 156.683594 133.46875 156.800781 133.179688 156.753906 133.28125 C 156.691406 133.410156 156.894531 133.03125 156.917969 132.992188 C 157.121094 132.652344 157.425781 132.320312 157.773438 132.09375 C 158.714844 131.46875 159.628906 131.226562 160.695312 131.253906 C 161.621094 131.28125 162.511719 130.421875 162.46875 129.480469 C 162.425781 128.5 161.691406 127.730469 160.695312 127.707031 C 158.90625 127.660156 157.085938 128.191406 155.652344 129.265625 C 154.0625 130.457031 153.191406 132.078125 152.980469 134.035156 C 152.878906 134.964844 153.867188 135.851562 154.753906 135.8125 C 155.800781 135.765625 156.421875 135.027344 156.53125 134.035156 " fill-opacity="1" fill-rule="nonzero"/><path fill="#2b2b2b" d="M 214.507812 131.695312 C 214.855469 131.828125 214.835938 131.808594 215.25 132.023438 C 215.410156 132.105469 215.566406 132.195312 215.722656 132.292969 C 215.824219 132.355469 215.921875 132.421875 216.023438 132.492188 C 215.925781 132.410156 215.921875 132.410156 216.015625 132.488281 C 216.148438 132.605469 216.277344 132.730469 216.398438 132.859375 C 216.476562 132.953125 216.476562 132.949219 216.402344 132.847656 C 216.453125 132.921875 216.503906 132.996094 216.550781 133.078125 C 216.601562 133.160156 216.648438 133.242188 216.691406 133.328125 C 216.652344 133.230469 216.652344 133.234375 216.691406 133.347656 C 216.765625 133.5625 216.808594 133.78125 216.84375 134.003906 C 216.996094 134.949219 218.175781 135.476562 219.027344 135.242188 C 220.035156 134.964844 220.417969 134.007812 220.265625 133.058594 C 219.859375 130.519531 217.667969 129.113281 215.449219 128.269531 C 214.578125 127.941406 213.464844 128.636719 213.265625 129.511719 C 213.035156 130.523438 213.574219 131.339844 214.507812 131.695312 " fill-opacity="1" fill-rule="nonzero"/><path stroke-linecap="butt" transform="matrix(0.75, 0.000000000000000023, -0.000000000000000023, 0.75, 116.510798, 224.052626)" fill="none" stroke-linejoin="miter" d="M 50.308523 -27.325378 C 49.459565 -27.533712 48.709565 -27.637878 47.855398 -27.637878 C 42.792898 -27.637878 38.350189 -23.091003 36.022064 -18.648294 C 32.740814 -12.184752 32.40748 -4.361835 34.423105 2.617332 C 36.126231 8.658999 39.407481 14.164208 42.147064 19.768375 C 45.016856 25.37775 47.339773 31.398584 47.13144 37.648584 C 46.902273 41.784001 45.324148 46.018377 42.454356 48.966293 C 40.568939 50.97671 33.261647 53.638169 36.641856 57.643377 C 36.850189 57.851711 37.084564 57.981919 37.391856 57.981919 C 40.027272 57.981919 46.38144 50.461085 47.235606 49.19546 C 50.308523 44.622543 51.240815 38.914209 50.72519 33.409001 C 49.563731 21.580875 41.834564 12.356916 38.141856 1.351707 C 36.230397 -4.153502 36.542897 -9.34621 38.553314 -14.512877 C 40.469981 -19.294128 42.792898 -23.606628 48.501231 -23.606628 C 48.917898 -23.606628 49.355398 -23.606628 49.871023 -23.502461 C 50.72519 -23.502461 51.574148 -24.044128 51.782482 -25.002461 C 51.990815 -26.16392 51.371023 -27.018087 50.308523 -27.325378 Z M 94.324151 10.674624 C 94.839776 10.882958 94.636651 13.622541 94.636651 14.575666 C 94.532484 24.419417 94.324151 34.263167 94.324151 44.106918 C 94.219984 50.97671 94.324151 57.851711 94.428318 64.747544 C 94.428318 66.117336 94.219984 68.028795 96.105401 68.237128 C 98.32936 68.341295 98.459568 66.32567 98.871026 64.747544 C 99.07936 64.101711 99.07936 63.252753 98.662693 62.632961 C 97.605401 61.028794 97.912693 59.247544 97.912693 57.539211 C 98.01686 44.002751 97.912693 30.570459 98.459568 17.007958 C 98.459568 14.888166 98.459568 12.664208 98.32936 10.445458 C 98.121026 8.117332 97.397068 6.544416 94.839776 6.544416 C 93.782484 6.544416 92.824151 6.955874 91.897068 7.705874 C 87.969984 11.841291 78.433525 36.690251 78.433525 36.690251 C 78.433525 36.690251 78.876233 20.935042 78.772067 17.237125 C 78.772067 15.2215 78.126233 9.721499 75.256441 9.721499 C 74.433525 9.721499 73.579358 10.132958 72.725191 10.882958 C 71.563733 11.940249 65.105399 26.330875 63.089774 34.909001 C 63.089774 35.013168 62.777274 10.987124 64.485607 5.794416 C 64.792899 4.737124 64.277274 3.674624 63.089774 3.367332 C 62.881441 3.263165 62.678316 3.263165 62.469982 3.263165 C 61.615816 3.263165 60.865815 3.77879 60.558524 4.737124 C 60.246024 5.690249 60.147065 6.648582 60.042899 7.705874 C 58.876232 18.81525 59.704357 30.028792 59.397065 41.138168 C 59.292899 42.737126 59.292899 44.315251 59.397065 45.91421 C 59.397065 47.075668 59.60019 48.034002 60.865815 48.346502 C 62.574149 48.346502 62.678316 48.138168 63.324149 46.429835 C 63.527274 45.685043 63.631441 44.961085 63.839774 44.315251 C 66.162691 35.971501 74.094983 13.106916 74.740816 15.325666 C 74.844983 16.695458 75.053316 18.81525 75.152275 19.872542 C 75.38665 28.242334 75.256441 36.591293 74.94915 44.961085 C 74.844983 46.534002 74.225191 48.862127 76.756442 49.19546 C 76.860608 49.19546 76.964775 49.19546 77.068942 49.19546 C 78.876233 49.19546 78.876233 47.075668 79.183525 45.685043 C 81.51165 36.278793 85.850192 27.054834 90.089776 18.299625 C 91.147067 15.945458 93.678318 10.341291 94.324151 10.674624 Z M 111.469985 44.961085 C 110.412694 44.961085 110.51686 41.237126 110.412694 39.664209 C 110.074152 34.263167 110.412694 21.450667 110.615819 15.945458 C 110.615819 15.018375 110.51686 13.726708 109.225194 13.622541 C 107.95436 13.622541 107.001235 13.622541 106.688735 15.122541 C 106.48561 15.841291 106.688735 17.237125 106.688735 17.856916 C 106.688735 23.362125 106.688735 36.174626 106.688735 41.575668 C 106.792902 44.002751 107.751235 50.023585 111.136652 50.023585 C 111.782485 50.023585 112.402277 49.711085 112.943944 49.19546 C 116.532486 45.372543 123.636653 37.028793 125.527278 32.247542 C 125.730403 31.523584 125.423111 30.336084 124.699153 30.028792 C 124.568945 29.924626 124.360611 29.924626 124.157486 29.924626 C 123.636653 29.924626 122.891861 30.132959 122.579361 30.466292 C 122.037694 31.086084 121.829361 32.247542 121.417903 32.997542 C 120.022069 35.528793 112.631444 44.961085 111.469985 44.961085 Z M 108.808527 5.278791 C 110.178319 5.382957 111.339777 4.112124 111.469985 2.408999 C 111.574152 0.93504 111.136652 -0.226418 109.558527 -0.559751 C 109.45436 -0.559751 109.350194 -0.559751 109.225194 -0.559751 C 107.855402 -0.559751 106.48561 0.93504 106.589777 2.513165 C 106.589777 4.013165 107.334569 4.940249 108.808527 5.278791 Z M 129.121028 50.25796 C 129.121028 50.25796 128.292903 47.700668 128.058528 43.565251 C 127.855403 39.351709 127.95957 35.528793 127.751237 28.242334 C 127.235611 11.398583 126.792903 -5.419127 126.381445 -22.236836 C 126.277278 -22.986836 126.277278 -23.736836 126.173111 -24.460795 C 125.943945 -25.41392 125.324153 -26.16392 124.36582 -26.059753 C 123.308528 -25.955586 122.350195 -25.41392 122.246028 -24.460795 C 122.147069 -22.986836 122.558528 -21.283711 122.558528 -19.913919 C 123.204361 4.013165 123.954361 27.804834 124.574153 51.72671 C 124.67832 52.992335 124.36582 54.903794 125.527278 55.523586 C 125.839778 55.757961 126.277278 55.966294 126.693945 55.966294 C 127.438737 55.966294 128.162695 55.627752 128.501237 54.903794 C 128.912695 53.409002 129.766862 51.830877 129.121028 50.25796 Z M 135.475195 30.336084 C 135.579362 37.856918 137.803321 44.419418 145.214779 48.653793 C 146.277279 49.19546 147.647071 50.023585 148.704363 50.023585 C 149.219988 50.023585 149.761655 49.815252 150.074155 49.403793 C 151.881446 47.075668 148.704363 46.429835 147.126238 45.580877 C 142.350196 42.94546 140.464779 38.398584 139.506446 33.617334 C 139.068946 31.086084 139.277279 29.716292 139.277279 29.716292 C 139.277279 29.716292 153.042905 22.950667 153.897072 20.518375 C 154.725197 18.169416 154.209572 15.945458 152.397071 14.060041 C 150.615821 12.044416 148.188738 11.091291 145.735613 11.091291 C 142.350196 11.091291 139.068946 12.898583 137.49082 16.388166 C 135.996029 19.56525 135.27207 26.747542 135.475195 30.336084 Z M 139.610612 25.273584 C 139.610612 19.122541 141.834571 14.476708 145.964779 14.476708 C 146.480404 14.476708 147.126238 14.575666 147.74603 14.784 C 149.219988 15.429833 151.235613 16.903791 151.131446 18.299625 C 150.928321 19.669417 139.610612 25.37775 139.610612 25.273584 Z M 139.610612 25.273584 " stroke="#2b2b2b" stroke-width="2.248739" stroke-opacity="1" stroke-miterlimit="4"/><g fill="#2b2b2b" fill-opacity="1"><g transform="translate(141.377984, 272.052623)"><g><path d="M 12.855469 -68.492188 C 12.222656 -68.652344 11.667969 -68.730469 11.03125 -68.730469 C 7.222656 -68.730469 3.890625 -65.316406 2.144531 -61.984375 C -0.316406 -57.144531 -0.554688 -51.269531 0.953125 -46.03125 C 2.222656 -41.507812 4.683594 -37.382812 6.746094 -33.175781 C 8.890625 -28.96875 10.636719 -24.445312 10.476562 -19.761719 C 10.316406 -16.667969 9.128906 -13.492188 6.984375 -11.269531 C 5.554688 -9.761719 0.078125 -7.777344 2.617188 -4.761719 C 2.777344 -4.601562 2.9375 -4.523438 3.175781 -4.523438 C 5.160156 -4.523438 9.921875 -10.160156 10.554688 -11.109375 C 12.855469 -14.523438 13.570312 -18.808594 13.175781 -22.9375 C 12.300781 -31.824219 6.507812 -38.730469 3.730469 -46.984375 C 2.300781 -51.109375 2.539062 -55 4.046875 -58.890625 C 5.476562 -62.460938 7.222656 -65.714844 11.507812 -65.714844 C 11.824219 -65.714844 12.144531 -65.714844 12.539062 -65.636719 C 13.175781 -65.636719 13.808594 -66.03125 13.96875 -66.746094 C 14.128906 -67.617188 13.652344 -68.253906 12.855469 -68.492188 Z M 12.855469 -68.492188 "/></g></g></g><g fill="#2b2b2b" fill-opacity="1"><g transform="translate(160.979754, 272.052623)"><g><path d="M 26.269531 -40 C 26.667969 -39.839844 26.507812 -37.777344 26.507812 -37.0625 C 26.429688 -29.683594 26.269531 -22.300781 26.269531 -14.921875 C 26.191406 -9.761719 26.269531 -4.601562 26.347656 0.554688 C 26.347656 1.585938 26.191406 3.015625 27.617188 3.175781 C 29.285156 3.253906 29.363281 1.746094 29.683594 0.554688 C 29.839844 0.078125 29.839844 -0.554688 29.523438 -1.03125 C 28.730469 -2.222656 28.96875 -3.570312 28.96875 -4.839844 C 29.046875 -15 28.96875 -25.078125 29.363281 -35.238281 C 29.363281 -36.824219 29.363281 -38.492188 29.285156 -40.160156 C 29.128906 -41.90625 28.570312 -43.09375 26.667969 -43.09375 C 25.871094 -43.09375 25.160156 -42.777344 24.445312 -42.222656 C 21.507812 -39.125 14.363281 -20.476562 14.363281 -20.476562 C 14.363281 -20.476562 14.683594 -32.300781 14.601562 -35.078125 C 14.601562 -36.585938 14.128906 -40.714844 11.984375 -40.714844 C 11.347656 -40.714844 10.714844 -40.398438 10.078125 -39.839844 C 9.207031 -39.046875 4.363281 -28.253906 2.855469 -21.824219 C 2.855469 -21.746094 2.617188 -39.761719 3.890625 -43.652344 C 4.128906 -44.445312 3.730469 -45.238281 2.855469 -45.476562 C 2.699219 -45.554688 2.539062 -45.554688 2.382812 -45.554688 C 1.746094 -45.554688 1.191406 -45.160156 0.953125 -44.445312 C 0.714844 -43.730469 0.636719 -43.015625 0.554688 -42.222656 C -0.316406 -33.890625 0.316406 -25.476562 0.078125 -17.144531 C 0 -15.953125 0 -14.761719 0.078125 -13.570312 C 0.078125 -12.699219 0.238281 -11.984375 1.191406 -11.746094 C 2.460938 -11.746094 2.539062 -11.90625 3.015625 -13.175781 C 3.175781 -13.730469 3.253906 -14.285156 3.414062 -14.761719 C 5.160156 -21.03125 11.109375 -38.175781 11.585938 -36.507812 C 11.667969 -35.476562 11.824219 -33.890625 11.90625 -33.09375 C 12.0625 -26.824219 11.984375 -20.554688 11.746094 -14.285156 C 11.667969 -13.09375 11.191406 -11.347656 13.09375 -11.109375 C 13.175781 -11.109375 13.253906 -11.109375 13.332031 -11.109375 C 14.683594 -11.109375 14.683594 -12.699219 14.921875 -13.730469 C 16.667969 -20.792969 19.921875 -27.699219 23.09375 -34.285156 C 23.890625 -36.03125 25.792969 -40.238281 26.269531 -40 Z M 26.269531 -40 "/></g></g></g><g fill="#2b2b2b" fill-opacity="1"><g transform="translate(196.37405, 272.052623)"><g><path d="M 3.730469 -14.285156 C 2.9375 -14.285156 3.015625 -17.0625 2.9375 -18.253906 C 2.699219 -22.300781 2.9375 -31.90625 3.09375 -36.03125 C 3.09375 -36.746094 3.015625 -37.699219 2.0625 -37.777344 C 1.109375 -37.777344 0.398438 -37.777344 0.160156 -36.667969 C 0 -36.109375 0.160156 -35.078125 0.160156 -34.601562 C 0.160156 -30.476562 0.160156 -20.871094 0.160156 -16.824219 C 0.238281 -15 0.953125 -10.476562 3.492188 -10.476562 C 3.96875 -10.476562 4.445312 -10.714844 4.839844 -11.109375 C 7.539062 -13.96875 12.855469 -20.238281 14.285156 -23.808594 C 14.445312 -24.363281 14.207031 -25.238281 13.652344 -25.476562 C 13.570312 -25.554688 13.414062 -25.554688 13.253906 -25.554688 C 12.855469 -25.554688 12.300781 -25.398438 12.0625 -25.160156 C 11.667969 -24.683594 11.507812 -23.808594 11.191406 -23.253906 C 10.160156 -21.347656 4.601562 -14.285156 3.730469 -14.285156 Z M 1.746094 -44.046875 C 2.777344 -43.96875 3.652344 -44.921875 3.730469 -46.191406 C 3.808594 -47.300781 3.492188 -48.175781 2.300781 -48.414062 C 2.222656 -48.414062 2.144531 -48.414062 2.0625 -48.414062 C 1.03125 -48.414062 0 -47.300781 0.078125 -46.109375 C 0.078125 -45 0.636719 -44.285156 1.746094 -44.046875 Z M 1.746094 -44.046875 "/></g></g></g><g fill="#2b2b2b" fill-opacity="1"><g transform="translate(208.119247, 272.052623)"><g><path d="M 5.238281 -10.316406 C 5.238281 -10.316406 4.601562 -12.222656 4.445312 -15.316406 C 4.285156 -18.492188 4.363281 -21.347656 4.207031 -26.824219 C 3.808594 -39.445312 3.492188 -52.0625 3.175781 -64.683594 C 3.09375 -65.238281 3.09375 -65.792969 3.015625 -66.347656 C 2.855469 -67.0625 2.382812 -67.617188 1.667969 -67.539062 C 0.871094 -67.460938 0.160156 -67.0625 0.078125 -66.347656 C 0 -65.238281 0.316406 -63.96875 0.316406 -62.9375 C 0.792969 -45 1.347656 -27.144531 1.824219 -9.207031 C 1.90625 -8.253906 1.667969 -6.824219 2.539062 -6.347656 C 2.777344 -6.191406 3.09375 -6.03125 3.414062 -6.03125 C 3.96875 -6.03125 4.523438 -6.269531 4.761719 -6.824219 C 5.078125 -7.9375 5.714844 -9.128906 5.238281 -10.316406 Z M 5.238281 -10.316406 "/></g></g></g><g fill="#2b2b2b" fill-opacity="1"><g transform="translate(218.118533, 272.052623)"><g><path d="M 0 -25.238281 C 0.078125 -19.601562 1.746094 -14.683594 7.300781 -11.507812 C 8.09375 -11.109375 9.128906 -10.476562 9.921875 -10.476562 C 10.316406 -10.476562 10.714844 -10.636719 10.953125 -10.953125 C 12.300781 -12.699219 9.921875 -13.175781 8.730469 -13.808594 C 5.160156 -15.792969 3.730469 -19.207031 3.015625 -22.777344 C 2.699219 -24.683594 2.855469 -25.714844 2.855469 -25.714844 C 2.855469 -25.714844 13.175781 -30.792969 13.808594 -32.617188 C 14.445312 -34.363281 14.046875 -36.03125 12.699219 -37.460938 C 11.347656 -38.96875 9.523438 -39.683594 7.699219 -39.683594 C 5.160156 -39.683594 2.699219 -38.332031 1.507812 -35.714844 C 0.398438 -33.332031 -0.160156 -27.9375 0 -25.238281 Z M 3.09375 -29.046875 C 3.09375 -33.652344 4.761719 -37.144531 7.855469 -37.144531 C 8.253906 -37.144531 8.730469 -37.0625 9.207031 -36.90625 C 10.316406 -36.429688 11.824219 -35.316406 11.746094 -34.285156 C 11.585938 -33.253906 3.09375 -28.96875 3.09375 -29.046875 Z M 3.09375 -29.046875 "/></g></g></g><g fill="#2b2b2b" fill-opacity="1"><g transform="translate(196.441765, 275.722835)"><g><path d="M 4.640625 -0.5 C 4.671875 -0.445312 4.6875 -0.390625 4.6875 -0.328125 C 4.6875 -0.234375 4.644531 -0.148438 4.5625 -0.078125 C 4.488281 -0.00390625 4.398438 0.03125 4.296875 0.03125 C 4.222656 0.03125 4.15625 0.015625 4.09375 -0.015625 C 4.03125 -0.0546875 3.984375 -0.117188 3.953125 -0.203125 L 3.5625 -1.078125 L 1.28125 -1.078125 L 0.890625 -0.203125 C 0.847656 -0.117188 0.796875 -0.0546875 0.734375 -0.015625 C 0.679688 0.015625 0.617188 0.03125 0.546875 0.03125 C 0.441406 0.03125 0.347656 -0.00390625 0.265625 -0.078125 C 0.179688 -0.148438 0.140625 -0.234375 0.140625 -0.328125 C 0.140625 -0.390625 0.15625 -0.445312 0.1875 -0.5 L 1.96875 -4.359375 C 2.007812 -4.441406 2.070312 -4.503906 2.15625 -4.546875 C 2.238281 -4.597656 2.320312 -4.625 2.40625 -4.625 C 2.5 -4.625 2.582031 -4.597656 2.65625 -4.546875 C 2.738281 -4.503906 2.800781 -4.441406 2.84375 -4.359375 Z M 1.5625 -1.71875 L 3.28125 -1.71875 L 2.421875 -3.65625 Z M 1.5625 -1.71875 "/></g></g></g><g fill="#2b2b2b" fill-opacity="1"><g transform="translate(200.843665, 275.722835)"><g><path d="M 4.15625 -0.53125 C 4.207031 -0.445312 4.234375 -0.367188 4.234375 -0.296875 C 4.234375 -0.203125 4.191406 -0.117188 4.109375 -0.046875 C 4.035156 0.015625 3.941406 0.046875 3.828125 0.046875 C 3.765625 0.046875 3.703125 0.03125 3.640625 0 C 3.578125 -0.03125 3.523438 -0.0820312 3.484375 -0.15625 L 2.609375 -1.46875 C 2.523438 -1.601562 2.429688 -1.695312 2.328125 -1.75 C 2.234375 -1.8125 2.109375 -1.84375 1.953125 -1.84375 L 1.3125 -1.84375 L 1.3125 -0.390625 C 1.3125 -0.253906 1.273438 -0.148438 1.203125 -0.078125 C 1.128906 -0.00390625 1.03125 0.03125 0.90625 0.03125 C 0.78125 0.03125 0.679688 -0.00390625 0.609375 -0.078125 C 0.535156 -0.148438 0.5 -0.253906 0.5 -0.390625 L 0.5 -4.1875 C 0.5 -4.3125 0.53125 -4.40625 0.59375 -4.46875 C 0.664062 -4.539062 0.765625 -4.578125 0.890625 -4.578125 L 2.515625 -4.578125 C 3.035156 -4.578125 3.429688 -4.460938 3.703125 -4.234375 C 3.972656 -4.003906 4.109375 -3.671875 4.109375 -3.234375 C 4.109375 -2.878906 4.007812 -2.585938 3.8125 -2.359375 C 3.613281 -2.128906 3.328125 -1.984375 2.953125 -1.921875 C 3.078125 -1.890625 3.1875 -1.832031 3.28125 -1.75 C 3.382812 -1.675781 3.476562 -1.570312 3.5625 -1.4375 Z M 2.40625 -2.484375 C 2.71875 -2.484375 2.945312 -2.539062 3.09375 -2.65625 C 3.25 -2.78125 3.328125 -2.96875 3.328125 -3.21875 C 3.328125 -3.46875 3.25 -3.648438 3.09375 -3.765625 C 2.945312 -3.878906 2.71875 -3.9375 2.40625 -3.9375 L 1.3125 -3.9375 L 1.3125 -2.484375 Z M 2.40625 -2.484375 "/></g></g></g><g fill="#2b2b2b" fill-opacity="1"><g transform="translate(204.940414, 275.722835)"><g><path d="M 2 0.03125 C 1.863281 0.03125 1.757812 -0.00390625 1.6875 -0.078125 C 1.613281 -0.148438 1.578125 -0.253906 1.578125 -0.390625 L 1.578125 -3.890625 L 0.390625 -3.890625 C 0.128906 -3.890625 0 -4.003906 0 -4.234375 C 0 -4.460938 0.128906 -4.578125 0.390625 -4.578125 L 3.59375 -4.578125 C 3.851562 -4.578125 3.984375 -4.460938 3.984375 -4.234375 C 3.984375 -4.003906 3.851562 -3.890625 3.59375 -3.890625 L 2.40625 -3.890625 L 2.40625 -0.390625 C 2.40625 -0.253906 2.367188 -0.148438 2.296875 -0.078125 C 2.222656 -0.00390625 2.125 0.03125 2 0.03125 Z M 2 0.03125 "/></g></g></g><g fill="#2b2b2b" fill-opacity="1"><g transform="translate(208.504781, 275.722835)"><g/></g></g><g fill="#2b2b2b" fill-opacity="1"><g transform="translate(209.848728, 275.722835)"><g><path d="M 2.078125 0.0625 C 1.742188 0.0625 1.425781 0.0195312 1.125 -0.0625 C 0.832031 -0.15625 0.59375 -0.28125 0.40625 -0.4375 C 0.3125 -0.507812 0.265625 -0.613281 0.265625 -0.75 C 0.265625 -0.84375 0.289062 -0.921875 0.34375 -0.984375 C 0.394531 -1.046875 0.457031 -1.078125 0.53125 -1.078125 C 0.613281 -1.078125 0.703125 -1.050781 0.796875 -1 C 0.984375 -0.863281 1.175781 -0.765625 1.375 -0.703125 C 1.582031 -0.640625 1.8125 -0.609375 2.0625 -0.609375 C 2.375 -0.609375 2.613281 -0.660156 2.78125 -0.765625 C 2.957031 -0.878906 3.046875 -1.046875 3.046875 -1.265625 C 3.046875 -1.429688 2.960938 -1.554688 2.796875 -1.640625 C 2.640625 -1.734375 2.378906 -1.816406 2.015625 -1.890625 C 1.628906 -1.972656 1.316406 -2.066406 1.078125 -2.171875 C 0.847656 -2.285156 0.671875 -2.425781 0.546875 -2.59375 C 0.421875 -2.769531 0.359375 -2.988281 0.359375 -3.25 C 0.359375 -3.507812 0.429688 -3.742188 0.578125 -3.953125 C 0.734375 -4.171875 0.945312 -4.335938 1.21875 -4.453125 C 1.488281 -4.578125 1.796875 -4.640625 2.140625 -4.640625 C 2.753906 -4.640625 3.257812 -4.472656 3.65625 -4.140625 C 3.707031 -4.097656 3.742188 -4.050781 3.765625 -4 C 3.796875 -3.957031 3.8125 -3.898438 3.8125 -3.828125 C 3.8125 -3.742188 3.78125 -3.664062 3.71875 -3.59375 C 3.664062 -3.53125 3.601562 -3.5 3.53125 -3.5 C 3.488281 -3.5 3.445312 -3.503906 3.40625 -3.515625 C 3.375 -3.523438 3.328125 -3.550781 3.265625 -3.59375 C 3.085938 -3.71875 2.914062 -3.8125 2.75 -3.875 C 2.582031 -3.9375 2.378906 -3.96875 2.140625 -3.96875 C 1.847656 -3.96875 1.613281 -3.90625 1.4375 -3.78125 C 1.269531 -3.664062 1.1875 -3.503906 1.1875 -3.296875 C 1.1875 -3.117188 1.257812 -2.984375 1.40625 -2.890625 C 1.5625 -2.796875 1.820312 -2.707031 2.1875 -2.625 C 2.570312 -2.53125 2.882812 -2.429688 3.125 -2.328125 C 3.363281 -2.222656 3.546875 -2.085938 3.671875 -1.921875 C 3.804688 -1.753906 3.875 -1.550781 3.875 -1.3125 C 3.875 -1.039062 3.796875 -0.800781 3.640625 -0.59375 C 3.492188 -0.382812 3.285156 -0.222656 3.015625 -0.109375 C 2.742188 0.00390625 2.429688 0.0625 2.078125 0.0625 Z M 2.078125 0.0625 "/></g></g></g><g fill="#2b2b2b" fill-opacity="1"><g transform="translate(213.575407, 275.722835)"><g><path d="M 2 0.03125 C 1.863281 0.03125 1.757812 -0.00390625 1.6875 -0.078125 C 1.613281 -0.148438 1.578125 -0.253906 1.578125 -0.390625 L 1.578125 -3.890625 L 0.390625 -3.890625 C 0.128906 -3.890625 0 -4.003906 0 -4.234375 C 0 -4.460938 0.128906 -4.578125 0.390625 -4.578125 L 3.59375 -4.578125 C 3.851562 -4.578125 3.984375 -4.460938 3.984375 -4.234375 C 3.984375 -4.003906 3.851562 -3.890625 3.59375 -3.890625 L 2.40625 -3.890625 L 2.40625 -0.390625 C 2.40625 -0.253906 2.367188 -0.148438 2.296875 -0.078125 C 2.222656 -0.00390625 2.125 0.03125 2 0.03125 Z M 2 0.03125 "/></g></g></g><g fill="#2b2b2b" fill-opacity="1"><g transform="translate(217.139773, 275.722835)"><g><path d="M 2.390625 0.0625 C 1.753906 0.0625 1.273438 -0.0976562 0.953125 -0.421875 C 0.628906 -0.753906 0.46875 -1.234375 0.46875 -1.859375 L 0.46875 -4.203125 C 0.46875 -4.328125 0.503906 -4.425781 0.578125 -4.5 C 0.648438 -4.570312 0.75 -4.609375 0.875 -4.609375 C 1 -4.609375 1.097656 -4.570312 1.171875 -4.5 C 1.242188 -4.425781 1.28125 -4.328125 1.28125 -4.203125 L 1.28125 -1.8125 C 1.28125 -1.414062 1.375 -1.113281 1.5625 -0.90625 C 1.75 -0.707031 2.023438 -0.609375 2.390625 -0.609375 C 2.742188 -0.609375 3.015625 -0.707031 3.203125 -0.90625 C 3.390625 -1.113281 3.484375 -1.414062 3.484375 -1.8125 L 3.484375 -4.203125 C 3.484375 -4.328125 3.519531 -4.425781 3.59375 -4.5 C 3.664062 -4.570312 3.765625 -4.609375 3.890625 -4.609375 C 4.015625 -4.609375 4.113281 -4.570312 4.1875 -4.5 C 4.257812 -4.425781 4.296875 -4.328125 4.296875 -4.203125 L 4.296875 -1.859375 C 4.296875 -1.234375 4.132812 -0.753906 3.8125 -0.421875 C 3.488281 -0.0976562 3.015625 0.0625 2.390625 0.0625 Z M 2.390625 0.0625 "/></g></g></g><g fill="#2b2b2b" fill-opacity="1"><g transform="translate(221.483239, 275.722835)"><g><path d="M 0.890625 0 C 0.765625 0 0.664062 -0.03125 0.59375 -0.09375 C 0.53125 -0.164062 0.5 -0.265625 0.5 -0.390625 L 0.5 -4.1875 C 0.5 -4.3125 0.53125 -4.40625 0.59375 -4.46875 C 0.664062 -4.539062 0.765625 -4.578125 0.890625 -4.578125 L 2.1875 -4.578125 C 2.9375 -4.578125 3.515625 -4.375 3.921875 -3.96875 C 4.335938 -3.570312 4.546875 -3.015625 4.546875 -2.296875 C 4.546875 -1.566406 4.335938 -1 3.921875 -0.59375 C 3.515625 -0.195312 2.9375 0 2.1875 0 Z M 2.125 -0.6875 C 3.1875 -0.6875 3.71875 -1.222656 3.71875 -2.296875 C 3.71875 -3.367188 3.1875 -3.90625 2.125 -3.90625 L 1.328125 -3.90625 L 1.328125 -0.6875 Z M 2.125 -0.6875 "/></g></g></g><g fill="#2b2b2b" fill-opacity="1"><g transform="translate(225.963047, 275.722835)"><g><path d="M 0.90625 0.03125 C 0.78125 0.03125 0.679688 -0.00390625 0.609375 -0.078125 C 0.535156 -0.148438 0.5 -0.253906 0.5 -0.390625 L 0.5 -4.203125 C 0.5 -4.328125 0.535156 -4.425781 0.609375 -4.5 C 0.679688 -4.570312 0.78125 -4.609375 0.90625 -4.609375 C 1.039062 -4.609375 1.144531 -4.570312 1.21875 -4.5 C 1.289062 -4.425781 1.328125 -4.328125 1.328125 -4.203125 L 1.328125 -0.390625 C 1.328125 -0.253906 1.289062 -0.148438 1.21875 -0.078125 C 1.144531 -0.00390625 1.039062 0.03125 0.90625 0.03125 Z M 0.90625 0.03125 "/></g></g></g><g fill="#2b2b2b" fill-opacity="1"><g transform="translate(227.371915, 275.722835)"><g><path d="M 2.53125 0.0625 C 2.082031 0.0625 1.695312 -0.03125 1.375 -0.21875 C 1.050781 -0.414062 0.796875 -0.691406 0.609375 -1.046875 C 0.429688 -1.398438 0.34375 -1.816406 0.34375 -2.296875 C 0.34375 -2.773438 0.429688 -3.1875 0.609375 -3.53125 C 0.785156 -3.882812 1.035156 -4.15625 1.359375 -4.34375 C 1.691406 -4.539062 2.082031 -4.640625 2.53125 -4.640625 C 2.976562 -4.640625 3.363281 -4.539062 3.6875 -4.34375 C 4.019531 -4.15625 4.273438 -3.882812 4.453125 -3.53125 C 4.628906 -3.1875 4.71875 -2.773438 4.71875 -2.296875 C 4.71875 -1.816406 4.625 -1.398438 4.4375 -1.046875 C 4.257812 -0.691406 4.007812 -0.414062 3.6875 -0.21875 C 3.363281 -0.03125 2.976562 0.0625 2.53125 0.0625 Z M 2.53125 -0.609375 C 2.957031 -0.609375 3.285156 -0.753906 3.515625 -1.046875 C 3.753906 -1.335938 3.875 -1.753906 3.875 -2.296875 C 3.875 -2.835938 3.753906 -3.25 3.515625 -3.53125 C 3.285156 -3.820312 2.957031 -3.96875 2.53125 -3.96875 C 2.101562 -3.96875 1.769531 -3.820312 1.53125 -3.53125 C 1.300781 -3.25 1.1875 -2.835938 1.1875 -2.296875 C 1.1875 -1.753906 1.300781 -1.335938 1.53125 -1.046875 C 1.769531 -0.753906 2.101562 -0.609375 2.53125 -0.609375 Z M 2.53125 -0.609375 "/></g></g></g><g fill="#2b2b2b" fill-opacity="1"><g transform="translate(196.441765, 282.215258)"><g><path d="M 0.890625 0 C 0.765625 0 0.664062 -0.03125 0.59375 -0.09375 C 0.53125 -0.164062 0.5 -0.265625 0.5 -0.390625 L 0.5 -4.1875 C 0.5 -4.3125 0.53125 -4.40625 0.59375 -4.46875 C 0.664062 -4.539062 0.765625 -4.578125 0.890625 -4.578125 L 3.25 -4.578125 C 3.375 -4.578125 3.46875 -4.546875 3.53125 -4.484375 C 3.601562 -4.429688 3.640625 -4.351562 3.640625 -4.25 C 3.640625 -4.144531 3.601562 -4.0625 3.53125 -4 C 3.46875 -3.945312 3.375 -3.921875 3.25 -3.921875 L 1.3125 -3.921875 L 1.3125 -2.65625 L 3.109375 -2.65625 C 3.234375 -2.65625 3.332031 -2.625 3.40625 -2.5625 C 3.476562 -2.507812 3.515625 -2.429688 3.515625 -2.328125 C 3.515625 -2.222656 3.476562 -2.140625 3.40625 -2.078125 C 3.332031 -2.023438 3.234375 -2 3.109375 -2 L 1.3125 -2 L 1.3125 -0.65625 L 3.25 -0.65625 C 3.375 -0.65625 3.46875 -0.625 3.53125 -0.5625 C 3.601562 -0.507812 3.640625 -0.429688 3.640625 -0.328125 C 3.640625 -0.222656 3.601562 -0.140625 3.53125 -0.078125 C 3.46875 -0.0234375 3.375 0 3.25 0 Z M 0.890625 0 "/></g></g></g><g fill="#2b2b2b" fill-opacity="1"><g transform="translate(199.850316, 282.215258)"><g><path d="M 2.078125 0.0625 C 1.742188 0.0625 1.425781 0.0195312 1.125 -0.0625 C 0.832031 -0.15625 0.59375 -0.28125 0.40625 -0.4375 C 0.3125 -0.507812 0.265625 -0.613281 0.265625 -0.75 C 0.265625 -0.84375 0.289062 -0.921875 0.34375 -0.984375 C 0.394531 -1.046875 0.457031 -1.078125 0.53125 -1.078125 C 0.613281 -1.078125 0.703125 -1.050781 0.796875 -1 C 0.984375 -0.863281 1.175781 -0.765625 1.375 -0.703125 C 1.582031 -0.640625 1.8125 -0.609375 2.0625 -0.609375 C 2.375 -0.609375 2.613281 -0.660156 2.78125 -0.765625 C 2.957031 -0.878906 3.046875 -1.046875 3.046875 -1.265625 C 3.046875 -1.429688 2.960938 -1.554688 2.796875 -1.640625 C 2.640625 -1.734375 2.378906 -1.816406 2.015625 -1.890625 C 1.628906 -1.972656 1.316406 -2.066406 1.078125 -2.171875 C 0.847656 -2.285156 0.671875 -2.425781 0.546875 -2.59375 C 0.421875 -2.769531 0.359375 -2.988281 0.359375 -3.25 C 0.359375 -3.507812 0.429688 -3.742188 0.578125 -3.953125 C 0.734375 -4.171875 0.945312 -4.335938 1.21875 -4.453125 C 1.488281 -4.578125 1.796875 -4.640625 2.140625 -4.640625 C 2.753906 -4.640625 3.257812 -4.472656 3.65625 -4.140625 C 3.707031 -4.097656 3.742188 -4.050781 3.765625 -4 C 3.796875 -3.957031 3.8125 -3.898438 3.8125 -3.828125 C 3.8125 -3.742188 3.78125 -3.664062 3.71875 -3.59375 C 3.664062 -3.53125 3.601562 -3.5 3.53125 -3.5 C 3.488281 -3.5 3.445312 -3.503906 3.40625 -3.515625 C 3.375 -3.523438 3.328125 -3.550781 3.265625 -3.59375 C 3.085938 -3.71875 2.914062 -3.8125 2.75 -3.875 C 2.582031 -3.9375 2.378906 -3.96875 2.140625 -3.96875 C 1.847656 -3.96875 1.613281 -3.90625 1.4375 -3.78125 C 1.269531 -3.664062 1.1875 -3.503906 1.1875 -3.296875 C 1.1875 -3.117188 1.257812 -2.984375 1.40625 -2.890625 C 1.5625 -2.796875 1.820312 -2.707031 2.1875 -2.625 C 2.570312 -2.53125 2.882812 -2.429688 3.125 -2.328125 C 3.363281 -2.222656 3.546875 -2.085938 3.671875 -1.921875 C 3.804688 -1.753906 3.875 -1.550781 3.875 -1.3125 C 3.875 -1.039062 3.796875 -0.800781 3.640625 -0.59375 C 3.492188 -0.382812 3.285156 -0.222656 3.015625 -0.109375 C 2.742188 0.00390625 2.429688 0.0625 2.078125 0.0625 Z M 2.078125 0.0625 "/></g></g></g><g fill="#2b2b2b" fill-opacity="1"><g transform="translate(203.576995, 282.215258)"><g><path d="M 2 0.03125 C 1.863281 0.03125 1.757812 -0.00390625 1.6875 -0.078125 C 1.613281 -0.148438 1.578125 -0.253906 1.578125 -0.390625 L 1.578125 -3.890625 L 0.390625 -3.890625 C 0.128906 -3.890625 0 -4.003906 0 -4.234375 C 0 -4.460938 0.128906 -4.578125 0.390625 -4.578125 L 3.59375 -4.578125 C 3.851562 -4.578125 3.984375 -4.460938 3.984375 -4.234375 C 3.984375 -4.003906 3.851562 -3.890625 3.59375 -3.890625 L 2.40625 -3.890625 L 2.40625 -0.390625 C 2.40625 -0.253906 2.367188 -0.148438 2.296875 -0.078125 C 2.222656 -0.00390625 2.125 0.03125 2 0.03125 Z M 2 0.03125 "/></g></g></g><g fill="#2b2b2b" fill-opacity="1"><g transform="translate(207.141361, 282.215258)"><g><path d="M 0.890625 0 C 0.765625 0 0.664062 -0.03125 0.59375 -0.09375 C 0.53125 -0.164062 0.5 -0.265625 0.5 -0.390625 L 0.5 -4.1875 C 0.5 -4.3125 0.53125 -4.40625 0.59375 -4.46875 C 0.664062 -4.539062 0.765625 -4.578125 0.890625 -4.578125 L 2.1875 -4.578125 C 2.9375 -4.578125 3.515625 -4.375 3.921875 -3.96875 C 4.335938 -3.570312 4.546875 -3.015625 4.546875 -2.296875 C 4.546875 -1.566406 4.335938 -1 3.921875 -0.59375 C 3.515625 -0.195312 2.9375 0 2.1875 0 Z M 2.125 -0.6875 C 3.1875 -0.6875 3.71875 -1.222656 3.71875 -2.296875 C 3.71875 -3.367188 3.1875 -3.90625 2.125 -3.90625 L 1.328125 -3.90625 L 1.328125 -0.6875 Z M 2.125 -0.6875 "/></g></g></g><g fill="#2b2b2b" fill-opacity="1"><g transform="translate(211.621167, 282.215258)"><g/></g></g><g fill="#2b2b2b" fill-opacity="1"><g transform="translate(212.965115, 282.215258)"><g><path d="M 3.234375 -0.671875 C 3.492188 -0.671875 3.625 -0.5625 3.625 -0.34375 C 3.625 -0.113281 3.492188 0 3.234375 0 L 0.765625 0 C 0.648438 0 0.5625 -0.03125 0.5 -0.09375 C 0.4375 -0.164062 0.40625 -0.25 0.40625 -0.34375 C 0.40625 -0.476562 0.453125 -0.597656 0.546875 -0.703125 L 2.03125 -2.296875 C 2.21875 -2.492188 2.351562 -2.675781 2.4375 -2.84375 C 2.519531 -3.007812 2.5625 -3.175781 2.5625 -3.34375 C 2.5625 -3.539062 2.5 -3.691406 2.375 -3.796875 C 2.257812 -3.910156 2.097656 -3.96875 1.890625 -3.96875 C 1.710938 -3.96875 1.539062 -3.929688 1.375 -3.859375 C 1.207031 -3.796875 1.035156 -3.707031 0.859375 -3.59375 C 0.816406 -3.5625 0.773438 -3.535156 0.734375 -3.515625 C 0.691406 -3.492188 0.648438 -3.484375 0.609375 -3.484375 C 0.535156 -3.484375 0.46875 -3.519531 0.40625 -3.59375 C 0.351562 -3.664062 0.328125 -3.75 0.328125 -3.84375 C 0.328125 -3.90625 0.335938 -3.957031 0.359375 -4 C 0.390625 -4.050781 0.429688 -4.097656 0.484375 -4.140625 C 0.671875 -4.296875 0.890625 -4.414062 1.140625 -4.5 C 1.398438 -4.59375 1.660156 -4.640625 1.921875 -4.640625 C 2.367188 -4.640625 2.722656 -4.523438 2.984375 -4.296875 C 3.253906 -4.078125 3.390625 -3.773438 3.390625 -3.390625 C 3.390625 -3.128906 3.332031 -2.878906 3.21875 -2.640625 C 3.101562 -2.410156 2.910156 -2.15625 2.640625 -1.875 L 1.515625 -0.671875 Z M 3.234375 -0.671875 "/></g></g></g><g fill="#2b2b2b" fill-opacity="1"><g transform="translate(216.451573, 282.215258)"><g><path d="M 1.953125 0.0625 C 1.410156 0.0625 0.992188 -0.132812 0.703125 -0.53125 C 0.421875 -0.9375 0.28125 -1.523438 0.28125 -2.296875 C 0.28125 -3.054688 0.421875 -3.632812 0.703125 -4.03125 C 0.992188 -4.4375 1.410156 -4.640625 1.953125 -4.640625 C 2.492188 -4.640625 2.90625 -4.4375 3.1875 -4.03125 C 3.476562 -3.632812 3.625 -3.054688 3.625 -2.296875 C 3.625 -1.535156 3.476562 -0.953125 3.1875 -0.546875 C 2.90625 -0.140625 2.492188 0.0625 1.953125 0.0625 Z M 1.953125 -0.59375 C 2.242188 -0.59375 2.457031 -0.726562 2.59375 -1 C 2.726562 -1.269531 2.796875 -1.703125 2.796875 -2.296875 C 2.796875 -2.890625 2.726562 -3.316406 2.59375 -3.578125 C 2.457031 -3.847656 2.242188 -3.984375 1.953125 -3.984375 C 1.660156 -3.984375 1.445312 -3.847656 1.3125 -3.578125 C 1.175781 -3.304688 1.109375 -2.878906 1.109375 -2.296875 C 1.109375 -1.703125 1.175781 -1.269531 1.3125 -1 C 1.445312 -0.726562 1.660156 -0.59375 1.953125 -0.59375 Z M 1.953125 -0.59375 "/></g></g></g><g fill="#2b2b2b" fill-opacity="1"><g transform="translate(219.931542, 282.215258)"><g><path d="M 3.234375 -0.671875 C 3.492188 -0.671875 3.625 -0.5625 3.625 -0.34375 C 3.625 -0.113281 3.492188 0 3.234375 0 L 0.765625 0 C 0.648438 0 0.5625 -0.03125 0.5 -0.09375 C 0.4375 -0.164062 0.40625 -0.25 0.40625 -0.34375 C 0.40625 -0.476562 0.453125 -0.597656 0.546875 -0.703125 L 2.03125 -2.296875 C 2.21875 -2.492188 2.351562 -2.675781 2.4375 -2.84375 C 2.519531 -3.007812 2.5625 -3.175781 2.5625 -3.34375 C 2.5625 -3.539062 2.5 -3.691406 2.375 -3.796875 C 2.257812 -3.910156 2.097656 -3.96875 1.890625 -3.96875 C 1.710938 -3.96875 1.539062 -3.929688 1.375 -3.859375 C 1.207031 -3.796875 1.035156 -3.707031 0.859375 -3.59375 C 0.816406 -3.5625 0.773438 -3.535156 0.734375 -3.515625 C 0.691406 -3.492188 0.648438 -3.484375 0.609375 -3.484375 C 0.535156 -3.484375 0.46875 -3.519531 0.40625 -3.59375 C 0.351562 -3.664062 0.328125 -3.75 0.328125 -3.84375 C 0.328125 -3.90625 0.335938 -3.957031 0.359375 -4 C 0.390625 -4.050781 0.429688 -4.097656 0.484375 -4.140625 C 0.671875 -4.296875 0.890625 -4.414062 1.140625 -4.5 C 1.398438 -4.59375 1.660156 -4.640625 1.921875 -4.640625 C 2.367188 -4.640625 2.722656 -4.523438 2.984375 -4.296875 C 3.253906 -4.078125 3.390625 -3.773438 3.390625 -3.390625 C 3.390625 -3.128906 3.332031 -2.878906 3.21875 -2.640625 C 3.101562 -2.410156 2.910156 -2.15625 2.640625 -1.875 L 1.515625 -0.671875 Z M 3.234375 -0.671875 "/></g></g></g><g fill="#2b2b2b" fill-opacity="1"><g transform="translate(223.418, 282.215258)"><g><path d="M 2.65625 -2.359375 C 2.925781 -2.285156 3.132812 -2.148438 3.28125 -1.953125 C 3.425781 -1.765625 3.5 -1.523438 3.5 -1.234375 C 3.5 -0.847656 3.351562 -0.535156 3.0625 -0.296875 C 2.769531 -0.0664062 2.378906 0.046875 1.890625 0.046875 C 1.609375 0.046875 1.335938 0.00390625 1.078125 -0.078125 C 0.816406 -0.160156 0.59375 -0.28125 0.40625 -0.4375 C 0.3125 -0.53125 0.265625 -0.632812 0.265625 -0.75 C 0.265625 -0.84375 0.289062 -0.921875 0.34375 -0.984375 C 0.394531 -1.054688 0.457031 -1.09375 0.53125 -1.09375 C 0.570312 -1.09375 0.609375 -1.082031 0.640625 -1.0625 C 0.679688 -1.050781 0.734375 -1.03125 0.796875 -1 C 0.972656 -0.875 1.144531 -0.78125 1.3125 -0.71875 C 1.476562 -0.65625 1.660156 -0.625 1.859375 -0.625 C 2.140625 -0.625 2.347656 -0.679688 2.484375 -0.796875 C 2.628906 -0.910156 2.703125 -1.082031 2.703125 -1.3125 C 2.703125 -1.539062 2.628906 -1.707031 2.484375 -1.8125 C 2.335938 -1.925781 2.113281 -1.984375 1.8125 -1.984375 L 1.4375 -1.984375 C 1.332031 -1.984375 1.253906 -2.015625 1.203125 -2.078125 C 1.148438 -2.148438 1.125 -2.234375 1.125 -2.328125 C 1.125 -2.410156 1.148438 -2.484375 1.203125 -2.546875 C 1.253906 -2.617188 1.332031 -2.65625 1.4375 -2.65625 L 1.703125 -2.65625 C 2.296875 -2.65625 2.59375 -2.878906 2.59375 -3.328125 C 2.59375 -3.535156 2.523438 -3.691406 2.390625 -3.796875 C 2.265625 -3.910156 2.09375 -3.96875 1.875 -3.96875 C 1.5625 -3.96875 1.222656 -3.84375 0.859375 -3.59375 C 0.804688 -3.5625 0.757812 -3.535156 0.71875 -3.515625 C 0.6875 -3.503906 0.648438 -3.5 0.609375 -3.5 C 0.535156 -3.5 0.46875 -3.53125 0.40625 -3.59375 C 0.351562 -3.664062 0.328125 -3.75 0.328125 -3.84375 C 0.328125 -3.90625 0.335938 -3.957031 0.359375 -4 C 0.390625 -4.050781 0.429688 -4.097656 0.484375 -4.140625 C 0.660156 -4.296875 0.875 -4.414062 1.125 -4.5 C 1.382812 -4.59375 1.644531 -4.640625 1.90625 -4.640625 C 2.363281 -4.640625 2.722656 -4.53125 2.984375 -4.3125 C 3.253906 -4.09375 3.390625 -3.796875 3.390625 -3.421875 C 3.378906 -3.171875 3.3125 -2.953125 3.1875 -2.765625 C 3.0625 -2.578125 2.882812 -2.441406 2.65625 -2.359375 Z M 2.65625 -2.359375 "/></g></g></g></svg>