<svg xmlns="http://www.w3.org/2000/svg" xmlns:xlink="http://www.w3.org/1999/xlink" width="1000" zoomAndPan="magnify" viewBox="0 0 750 749.999995" height="1000" preserveAspectRatio="xMidYMid meet" version="1.0"><defs><g/></defs><rect x="-75" width="900" fill="#ffffff" y="-74.999999" height="899.999994" fill-opacity="1"/><rect x="-75" width="900" fill="#e4e2dd" y="-74.999999" height="899.999994" fill-opacity="1"/><g fill="#2b2b2b" fill-opacity="1"><g transform="translate(159.935225, 379.53797)"><g><path d="M 21.03125 0.546875 C 20.0625 0.910156 18.972656 0.789062 17.765625 0.1875 L 14.140625 -1.453125 C 13.535156 -1.691406 13.050781 -2.234375 12.6875 -3.078125 L 12.15625 -4.171875 C 11.90625 -4.773438 11.601562 -5.195312 11.25 -5.4375 C 10.644531 -5.925781 10.21875 -6.773438 9.96875 -7.984375 C 9.726562 -9.191406 9.546875 -10.398438 9.421875 -11.609375 C 9.304688 -12.816406 9.1875 -14.023438 9.0625 -15.234375 C 8.945312 -16.203125 8.890625 -17.164062 8.890625 -18.125 C 8.890625 -19.09375 8.890625 -20.003906 8.890625 -20.859375 L 9.0625 -22.125 C 9.3125 -22.726562 9.4375 -23.332031 9.4375 -23.9375 C 9.4375 -24.539062 9.4375 -25.082031 9.4375 -25.5625 L 9.4375 -58.578125 C 9.675781 -60.265625 9.796875 -61.984375 9.796875 -63.734375 C 9.796875 -65.492188 9.796875 -67.21875 9.796875 -68.90625 C 9.910156 -70.601562 9.96875 -72.265625 9.96875 -73.890625 C 9.96875 -75.523438 9.847656 -77.128906 9.609375 -78.703125 C 9.492188 -79.304688 9.4375 -79.96875 9.4375 -80.6875 C 9.4375 -81.414062 9.4375 -82.144531 9.4375 -82.875 C 9.4375 -83.957031 9.4375 -85.039062 9.4375 -86.125 C 9.4375 -87.21875 9.3125 -88.3125 9.0625 -89.40625 L 9.0625 -89.953125 C 9.0625 -91.640625 8.96875 -93.296875 8.78125 -94.921875 C 8.601562 -96.554688 8.457031 -98.160156 8.34375 -99.734375 C 8.21875 -100.703125 8.09375 -101.609375 7.96875 -102.453125 C 7.851562 -103.304688 7.675781 -104.15625 7.4375 -105 C 7.3125 -105.476562 7.25 -105.957031 7.25 -106.4375 C 7.25 -106.925781 7.25 -107.414062 7.25 -107.90625 C 7.25 -108.75 7.367188 -109.5625 7.609375 -110.34375 C 7.859375 -111.132812 8.101562 -111.890625 8.34375 -112.609375 C 8.457031 -112.859375 8.757812 -113.222656 9.25 -113.703125 C 9.488281 -113.941406 9.726562 -114.117188 9.96875 -114.234375 C 10.21875 -114.359375 10.398438 -114.484375 10.515625 -114.609375 C 11.242188 -115.578125 12.210938 -116 13.421875 -115.875 C 13.660156 -115.757812 14.019531 -115.820312 14.5 -116.0625 C 15.113281 -116.539062 15.660156 -116.597656 16.140625 -116.234375 C 16.503906 -115.992188 17.109375 -115.992188 17.953125 -116.234375 C 18.316406 -116.234375 18.617188 -116.113281 18.859375 -115.875 C 19.222656 -115.394531 19.707031 -115.035156 20.3125 -114.796875 C 20.914062 -114.546875 21.367188 -114.207031 21.671875 -113.78125 C 21.972656 -113.363281 22.304688 -112.972656 22.671875 -112.609375 C 22.910156 -112.253906 23.179688 -111.921875 23.484375 -111.609375 C 23.785156 -111.304688 23.9375 -110.914062 23.9375 -110.4375 C 24.0625 -109.957031 24.09375 -109.503906 24.03125 -109.078125 C 23.96875 -108.648438 23.9375 -108.195312 23.9375 -107.71875 C 23.9375 -106.632812 24.023438 -105.515625 24.203125 -104.359375 C 24.390625 -103.210938 24.539062 -102.097656 24.65625 -101.015625 C 24.90625 -99.796875 25.085938 -98.550781 25.203125 -97.28125 C 25.328125 -96.019531 25.445312 -94.722656 25.5625 -93.390625 L 25.5625 -91.578125 C 25.8125 -90.734375 25.9375 -89.882812 25.9375 -89.03125 C 25.9375 -88.1875 25.992188 -87.34375 26.109375 -86.5 L 26.109375 -86.3125 C 26.234375 -84.863281 26.351562 -83.414062 26.46875 -81.96875 C 26.59375 -80.519531 26.71875 -79.066406 26.84375 -77.609375 C 26.957031 -77.003906 27.015625 -76.367188 27.015625 -75.703125 C 27.015625 -75.046875 27.015625 -74.414062 27.015625 -73.8125 L 27.015625 -25.5625 C 27.015625 -24.476562 27.101562 -23.390625 27.28125 -22.296875 C 27.46875 -21.210938 27.625 -20.1875 27.75 -19.21875 C 27.75 -18.613281 28.109375 -18.3125 28.828125 -18.3125 C 29.921875 -18.070312 30.953125 -18.070312 31.921875 -18.3125 C 33.242188 -18.550781 34.539062 -18.671875 35.8125 -18.671875 C 37.082031 -18.671875 38.382812 -18.671875 39.71875 -18.671875 C 41.039062 -18.671875 42.335938 -18.703125 43.609375 -18.765625 C 44.878906 -18.828125 46.117188 -18.921875 47.328125 -19.046875 L 49.328125 -19.046875 C 50.296875 -18.921875 51.171875 -18.828125 51.953125 -18.765625 C 52.742188 -18.703125 53.5625 -18.671875 54.40625 -18.671875 C 55.726562 -18.671875 57.082031 -18.640625 58.46875 -18.578125 C 59.863281 -18.523438 61.226562 -18.4375 62.5625 -18.3125 C 63.53125 -18.195312 64.523438 -18.140625 65.546875 -18.140625 C 66.578125 -18.140625 67.640625 -18.140625 68.734375 -18.140625 L 69.640625 -18.140625 C 72.054688 -18.253906 74.234375 -17.648438 76.171875 -16.328125 C 77.015625 -15.960938 77.617188 -15.351562 77.984375 -14.5 C 78.222656 -14.019531 78.429688 -13.566406 78.609375 -13.140625 C 78.796875 -12.722656 78.945312 -12.210938 79.0625 -11.609375 C 79.1875 -11.117188 79.273438 -10.660156 79.328125 -10.234375 C 79.390625 -9.816406 79.484375 -9.367188 79.609375 -8.890625 C 79.972656 -7.796875 79.851562 -6.585938 79.25 -5.265625 C 79.125 -4.898438 79 -4.535156 78.875 -4.171875 C 78.757812 -3.804688 78.582031 -3.441406 78.34375 -3.078125 C 78.101562 -2.710938 77.800781 -2.410156 77.4375 -2.171875 C 77.4375 -2.171875 77.191406 -2.050781 76.703125 -1.8125 C 75.734375 -0.96875 74.675781 -0.421875 73.53125 -0.171875 C 72.382812 0.0664062 71.144531 0.304688 69.8125 0.546875 L 68 0.359375 C 66.1875 -0.242188 64.375 -0.601562 62.5625 -0.71875 C 62.082031 -0.84375 61.539062 -0.9375 60.9375 -1 C 60.332031 -1.0625 59.726562 -1.09375 59.125 -1.09375 C 58.269531 -1.09375 57.421875 -1.117188 56.578125 -1.171875 C 55.734375 -1.234375 54.828125 -1.328125 53.859375 -1.453125 L 52.046875 -1.625 C 50.953125 -1.507812 49.863281 -1.476562 48.78125 -1.53125 C 47.695312 -1.59375 46.609375 -1.566406 45.515625 -1.453125 C 45.035156 -1.453125 44.550781 -1.476562 44.0625 -1.53125 C 43.582031 -1.59375 43.097656 -1.625 42.609375 -1.625 C 41.648438 -1.625 40.710938 -1.625 39.796875 -1.625 C 38.890625 -1.625 37.957031 -1.503906 37 -1.265625 C 36.507812 -1.148438 35.929688 -1.0625 35.265625 -1 C 34.609375 -0.9375 33.976562 -0.90625 33.375 -0.90625 C 31.550781 -0.78125 29.734375 -0.628906 27.921875 -0.453125 C 26.109375 -0.273438 24.359375 -0.00390625 22.671875 0.359375 C 22.304688 0.484375 21.757812 0.546875 21.03125 0.546875 Z M 21.03125 0.546875 "/></g></g></g><g fill="#2b2b2b" fill-opacity="1"><g transform="translate(235.913382, 379.53797)"><g><path d="M 28.296875 1.265625 C 27.566406 1.265625 27.082031 1.207031 26.84375 1.09375 C 26.238281 0.84375 25.660156 0.75 25.109375 0.8125 C 24.566406 0.875 23.992188 0.90625 23.390625 0.90625 C 23.273438 0.90625 23.15625 0.9375 23.03125 1 C 22.90625 1.0625 22.785156 1.09375 22.671875 1.09375 C 21.828125 1.207031 21.007812 1.265625 20.21875 1.265625 C 19.4375 1.265625 18.679688 1.144531 17.953125 0.90625 C 17.828125 0.78125 17.707031 0.71875 17.59375 0.71875 C 16.75 0.84375 16.019531 0.601562 15.40625 0 C 14.800781 -0.601562 14.195312 -1.144531 13.59375 -1.625 C 12.988281 -2.226562 12.6875 -2.894531 12.6875 -3.625 L 12.15625 -5.078125 C 11.789062 -5.921875 11.664062 -6.707031 11.78125 -7.4375 C 11.90625 -7.675781 11.9375 -7.914062 11.875 -8.15625 C 11.8125 -8.394531 11.78125 -8.640625 11.78125 -8.890625 C 11.664062 -9.128906 11.609375 -9.398438 11.609375 -9.703125 C 11.609375 -10.003906 11.546875 -10.273438 11.421875 -10.515625 C 11.179688 -11.609375 11.03125 -12.726562 10.96875 -13.875 C 10.90625 -15.019531 10.9375 -16.140625 11.0625 -17.234375 C 11.1875 -17.953125 11.609375 -19.1875 12.328125 -20.9375 C 13.054688 -22.695312 13.476562 -23.757812 13.59375 -24.125 C 13.957031 -24.726562 14.140625 -25.207031 14.140625 -25.5625 C 14.023438 -26.894531 13.992188 -28.253906 14.046875 -29.640625 C 14.109375 -31.035156 14.140625 -32.398438 14.140625 -33.734375 C 14.140625 -34.578125 14.320312 -35.238281 14.6875 -35.71875 C 15.175781 -36.570312 15.238281 -37.476562 14.875 -38.4375 L 14.328125 -40.4375 C 13.597656 -41.769531 13.65625 -42.921875 14.5 -43.890625 C 14.5 -44.003906 14.53125 -44.09375 14.59375 -44.15625 C 14.65625 -44.21875 14.6875 -44.304688 14.6875 -44.421875 C 14.925781 -44.671875 14.984375 -45.003906 14.859375 -45.421875 C 14.742188 -45.847656 14.6875 -46.179688 14.6875 -46.421875 C 14.6875 -46.910156 14.773438 -47.425781 14.953125 -47.96875 C 15.140625 -48.507812 15.171875 -49.019531 15.046875 -49.5 C 15.046875 -49.5 14.925781 -49.625 14.6875 -49.875 C 14.5625 -50.113281 14.53125 -50.59375 14.59375 -51.3125 C 14.65625 -52.039062 14.6875 -52.46875 14.6875 -52.59375 L 14.6875 -57.671875 C 14.8125 -58.273438 14.875 -58.847656 14.875 -59.390625 C 14.875 -59.929688 14.929688 -60.503906 15.046875 -61.109375 C 15.171875 -61.835938 15.203125 -62.59375 15.140625 -63.375 C 15.078125 -64.164062 15.046875 -64.984375 15.046875 -65.828125 C 14.929688 -66.429688 14.84375 -67.09375 14.78125 -67.8125 C 14.71875 -68.539062 14.6875 -69.269531 14.6875 -70 C 14.5625 -70.238281 14.5 -70.539062 14.5 -70.90625 C 14.5 -71.269531 14.5 -71.570312 14.5 -71.8125 C 14.382812 -72.414062 14.296875 -73.019531 14.234375 -73.625 C 14.171875 -74.226562 14.140625 -74.832031 14.140625 -75.4375 C 14.140625 -75.675781 13.894531 -76.488281 13.40625 -77.875 C 12.925781 -79.269531 12.75 -80.453125 12.875 -81.421875 C 13 -81.660156 13.0625 -81.960938 13.0625 -82.328125 C 13.0625 -82.691406 12.9375 -82.992188 12.6875 -83.234375 C 12.445312 -83.359375 12.328125 -83.601562 12.328125 -83.96875 L 12.328125 -84.5 C 12.691406 -85.957031 12.507812 -87.410156 11.78125 -88.859375 C 11.300781 -89.585938 11.125 -90.3125 11.25 -91.03125 C 11.25 -92 10.820312 -92.722656 9.96875 -93.203125 C 9.363281 -93.816406 8.816406 -94.546875 8.328125 -95.390625 C 7.847656 -96.234375 7.550781 -97.078125 7.4375 -97.921875 C 7.3125 -98.523438 7.25 -99.128906 7.25 -99.734375 C 7.25 -100.335938 7.25 -100.882812 7.25 -101.375 C 7.25 -101.851562 7.3125 -102.15625 7.4375 -102.28125 C 7.914062 -102.757812 8.15625 -103.332031 8.15625 -104 C 8.15625 -104.664062 8.21875 -105.179688 8.34375 -105.546875 C 8.457031 -105.660156 8.578125 -105.71875 8.703125 -105.71875 C 8.828125 -105.71875 8.945312 -105.78125 9.0625 -105.90625 C 9.550781 -106.03125 9.796875 -106.453125 9.796875 -107.171875 C 9.554688 -107.660156 9.4375 -108.082031 9.4375 -108.4375 C 9.3125 -108.925781 9.488281 -109.351562 9.96875 -109.71875 C 10.21875 -110.195312 10.519531 -110.316406 10.875 -110.078125 C 11.726562 -109.710938 12.695312 -109.832031 13.78125 -110.4375 C 14.257812 -110.675781 14.5625 -110.796875 14.6875 -110.796875 C 15.050781 -110.796875 15.234375 -110.796875 15.234375 -110.796875 C 15.359375 -110.921875 15.722656 -110.984375 16.328125 -110.984375 C 17.046875 -110.859375 17.707031 -111.097656 18.3125 -111.703125 C 19.15625 -112.554688 20.1875 -112.984375 21.40625 -112.984375 L 32.640625 -112.984375 C 35.421875 -112.859375 38.203125 -112.851562 40.984375 -112.96875 C 43.765625 -113.09375 46.484375 -113.15625 49.140625 -113.15625 C 49.742188 -113.15625 50.253906 -113.1875 50.671875 -113.25 C 51.097656 -113.3125 51.554688 -113.398438 52.046875 -113.515625 C 52.773438 -113.878906 53.617188 -114.0625 54.578125 -114.0625 L 58.75 -114.0625 C 59.71875 -114.0625 60.59375 -114.09375 61.375 -114.15625 C 62.164062 -114.21875 62.984375 -114.304688 63.828125 -114.421875 C 64.316406 -114.546875 64.769531 -114.609375 65.1875 -114.609375 C 65.613281 -114.609375 66.066406 -114.609375 66.546875 -114.609375 C 67.035156 -114.609375 67.519531 -114.609375 68 -114.609375 C 68.488281 -114.609375 68.972656 -114.671875 69.453125 -114.796875 C 70.421875 -114.910156 71.445312 -115 72.53125 -115.0625 C 73.625 -115.125 74.65625 -115.15625 75.625 -115.15625 C 76.101562 -115.15625 76.550781 -115.179688 76.96875 -115.234375 C 77.394531 -115.296875 77.851562 -115.390625 78.34375 -115.515625 C 79.3125 -115.753906 80.25 -115.90625 81.15625 -115.96875 C 82.0625 -116.03125 82.9375 -116.117188 83.78125 -116.234375 C 84.75 -116.359375 85.6875 -116.476562 86.59375 -116.59375 C 87.5 -116.71875 88.375 -116.84375 89.21875 -116.96875 C 90.3125 -116.96875 91.097656 -116.847656 91.578125 -116.609375 C 92.304688 -116.117188 93 -115.691406 93.65625 -115.328125 C 94.320312 -114.972656 94.957031 -114.492188 95.5625 -113.890625 C 96.050781 -113.398438 96.351562 -112.972656 96.46875 -112.609375 C 96.59375 -112.128906 96.710938 -111.644531 96.828125 -111.15625 C 96.953125 -110.675781 97.078125 -110.132812 97.203125 -109.53125 L 97.203125 -108.265625 C 97.078125 -107.660156 96.984375 -107.023438 96.921875 -106.359375 C 96.867188 -105.691406 96.78125 -104.992188 96.65625 -104.265625 C 96.414062 -103.785156 96.113281 -103.363281 95.75 -103 L 92.484375 -99.734375 C 91.273438 -99.367188 90.09375 -99.125 88.9375 -99 C 87.789062 -98.882812 86.613281 -98.890625 85.40625 -99.015625 L 84.140625 -99.015625 C 83.535156 -98.890625 82.929688 -98.828125 82.328125 -98.828125 C 81.722656 -98.828125 81.117188 -98.890625 80.515625 -99.015625 C 79.785156 -99.128906 79.054688 -99.15625 78.328125 -99.09375 C 77.609375 -99.039062 76.890625 -99.015625 76.171875 -99.015625 C 75.679688 -99.015625 75.222656 -98.984375 74.796875 -98.921875 C 74.378906 -98.859375 73.925781 -98.890625 73.4375 -99.015625 C 72.832031 -99.128906 72.257812 -99.15625 71.71875 -99.09375 C 71.175781 -99.039062 70.601562 -98.953125 70 -98.828125 C 69.507812 -98.828125 68.992188 -98.796875 68.453125 -98.734375 C 67.910156 -98.679688 67.335938 -98.65625 66.734375 -98.65625 C 65.160156 -98.40625 63.5 -98.28125 61.75 -98.28125 C 60 -98.28125 58.273438 -98.160156 56.578125 -97.921875 C 55.492188 -98.046875 54.46875 -98.015625 53.5 -97.828125 C 52.53125 -97.648438 51.5 -97.5 50.40625 -97.375 C 49.445312 -97.257812 48.421875 -97.203125 47.328125 -97.203125 C 46.242188 -97.203125 45.21875 -97.082031 44.25 -96.84375 C 43.039062 -96.84375 41.859375 -96.691406 40.703125 -96.390625 C 39.554688 -96.085938 38.378906 -95.875 37.171875 -95.75 L 35.90625 -95.5625 C 35.0625 -95.5625 34.273438 -95.472656 33.546875 -95.296875 C 32.816406 -95.117188 32.03125 -94.90625 31.1875 -94.65625 C 30.707031 -94.539062 30.222656 -94.453125 29.734375 -94.390625 C 29.253906 -94.328125 28.710938 -94.238281 28.109375 -94.125 C 27.742188 -94.125 27.320312 -94 26.84375 -93.75 C 26.476562 -93.632812 26.296875 -93.273438 26.296875 -92.671875 L 26.84375 -91.03125 C 26.957031 -90.789062 26.921875 -90.1875 26.734375 -89.21875 C 26.554688 -88.25 26.410156 -87.523438 26.296875 -87.046875 C 26.296875 -86.679688 26.351562 -86.316406 26.46875 -85.953125 C 26.59375 -85.585938 26.71875 -85.226562 26.84375 -84.875 C 27.207031 -83.90625 27.390625 -82.84375 27.390625 -81.6875 C 27.390625 -80.539062 27.507812 -79.484375 27.75 -78.515625 C 27.863281 -78.035156 27.921875 -77.523438 27.921875 -76.984375 C 27.921875 -76.441406 27.984375 -75.863281 28.109375 -75.25 C 28.109375 -75.007812 28.140625 -74.738281 28.203125 -74.4375 C 28.265625 -74.132812 28.296875 -73.800781 28.296875 -73.4375 C 28.296875 -73.082031 28.234375 -72.84375 28.109375 -72.71875 C 27.742188 -72.238281 27.5625 -71.695312 27.5625 -71.09375 C 27.5625 -70.488281 27.5625 -69.878906 27.5625 -69.265625 C 28.164062 -68.054688 28.46875 -66.847656 28.46875 -65.640625 C 28.46875 -64.429688 28.46875 -63.222656 28.46875 -62.015625 C 28.46875 -61.648438 28.769531 -61.53125 29.375 -61.65625 L 29.5625 -61.65625 C 29.800781 -62.132812 30.039062 -62.5 30.28125 -62.75 C 30.644531 -62.75 31.066406 -62.867188 31.546875 -63.109375 C 31.910156 -63.347656 32.394531 -63.46875 33 -63.46875 C 33.96875 -63.34375 34.875 -63.367188 35.71875 -63.546875 C 36.570312 -63.734375 37.421875 -63.953125 38.265625 -64.203125 C 43.941406 -65.648438 49.257812 -67.519531 54.21875 -69.8125 C 55.550781 -70.414062 56.941406 -70.929688 58.390625 -71.359375 C 59.835938 -71.785156 61.289062 -72.054688 62.75 -72.171875 L 63.28125 -72.171875 C 64.375 -72.296875 65.460938 -72.414062 66.546875 -72.53125 C 67.640625 -72.65625 68.726562 -72.71875 69.8125 -72.71875 C 71.269531 -72.84375 72.691406 -73.023438 74.078125 -73.265625 C 75.472656 -73.503906 76.894531 -73.6875 78.34375 -73.8125 C 79.1875 -74.050781 79.96875 -74.257812 80.6875 -74.4375 C 81.414062 -74.625 82.207031 -74.894531 83.0625 -75.25 C 84.625 -75.863281 86.070312 -76.171875 87.40625 -76.171875 C 88.375 -76.046875 89.28125 -75.832031 90.125 -75.53125 C 90.96875 -75.226562 91.816406 -74.832031 92.671875 -74.34375 C 94.484375 -73.132812 95.390625 -71.320312 95.390625 -68.90625 C 95.390625 -67.9375 95.296875 -66.96875 95.109375 -66 C 94.929688 -65.039062 94.84375 -64.078125 94.84375 -63.109375 C 94.84375 -62.867188 94.722656 -62.625 94.484375 -62.375 L 93.9375 -61.46875 C 93.8125 -60.988281 93.6875 -60.503906 93.5625 -60.015625 C 93.445312 -59.535156 93.148438 -59.175781 92.671875 -58.9375 C 91.941406 -58.332031 91.179688 -57.695312 90.390625 -57.03125 C 89.609375 -56.363281 88.734375 -55.910156 87.765625 -55.671875 C 87.285156 -55.546875 86.832031 -55.421875 86.40625 -55.296875 C 85.988281 -55.179688 85.535156 -55.125 85.046875 -55.125 C 83.117188 -55.125 81.15625 -55.003906 79.15625 -54.765625 C 77.164062 -54.523438 75.140625 -54.285156 73.078125 -54.046875 C 71.503906 -53.921875 69.960938 -53.738281 68.453125 -53.5 C 66.941406 -53.257812 65.398438 -53.140625 63.828125 -53.140625 C 62.378906 -53.140625 60.75 -52.835938 58.9375 -52.234375 C 57.726562 -51.984375 56.457031 -51.738281 55.125 -51.5 C 53.800781 -51.257812 52.472656 -51.078125 51.140625 -50.953125 C 50.171875 -50.835938 49.171875 -50.6875 48.140625 -50.5 C 47.117188 -50.320312 46.125 -50.171875 45.15625 -50.046875 L 42.078125 -49.5 C 41.828125 -49.382812 41.460938 -49.328125 40.984375 -49.328125 C 40.140625 -49.085938 39.289062 -48.90625 38.4375 -48.78125 C 37.59375 -48.65625 36.75 -48.472656 35.90625 -48.234375 C 35.0625 -48.117188 34.242188 -47.9375 33.453125 -47.6875 C 32.671875 -47.445312 31.859375 -47.207031 31.015625 -46.96875 C 30.410156 -46.84375 29.925781 -46.628906 29.5625 -46.328125 C 29.195312 -46.023438 28.894531 -45.632812 28.65625 -45.15625 C 28.53125 -44.789062 28.53125 -44.425781 28.65625 -44.0625 C 28.769531 -43.582031 28.707031 -43.097656 28.46875 -42.609375 C 28.59375 -41.398438 28.679688 -40.191406 28.734375 -38.984375 C 28.796875 -37.773438 28.769531 -36.566406 28.65625 -35.359375 C 28.894531 -34.390625 28.984375 -33.421875 28.921875 -32.453125 C 28.859375 -31.492188 28.769531 -30.53125 28.65625 -29.5625 C 28.414062 -28.113281 28.472656 -26.90625 28.828125 -25.9375 C 29.191406 -24.363281 29.070312 -22.726562 28.46875 -21.03125 C 28.226562 -20.3125 28.226562 -19.828125 28.46875 -19.578125 C 28.707031 -19.222656 28.707031 -18.800781 28.46875 -18.3125 L 28.46875 -17.234375 C 28.351562 -16.265625 28.773438 -15.78125 29.734375 -15.78125 L 30.109375 -15.78125 C 30.953125 -15.78125 31.796875 -15.476562 32.640625 -14.875 C 33.242188 -14.269531 33.96875 -14.085938 34.8125 -14.328125 L 39.890625 -14.875 C 40.617188 -14.988281 41.34375 -15.078125 42.0625 -15.140625 C 42.789062 -15.203125 43.519531 -15.234375 44.25 -15.234375 C 44.488281 -15.359375 44.851562 -15.296875 45.34375 -15.046875 C 45.945312 -14.679688 46.488281 -14.625 46.96875 -14.875 C 47.207031 -15.113281 47.535156 -15.289062 47.953125 -15.40625 C 48.378906 -15.53125 48.71875 -15.710938 48.96875 -15.953125 C 49.6875 -16.679688 50.59375 -16.925781 51.6875 -16.6875 C 52.65625 -16.445312 53.441406 -16.503906 54.046875 -16.859375 C 55.128906 -17.222656 56.15625 -17.347656 57.125 -17.234375 C 57.726562 -17.109375 58.332031 -17.164062 58.9375 -17.40625 C 59.539062 -17.644531 60.144531 -17.765625 60.75 -17.765625 C 60.988281 -17.765625 61.164062 -17.734375 61.28125 -17.671875 C 61.40625 -17.617188 61.53125 -17.648438 61.65625 -17.765625 C 61.894531 -17.765625 62.132812 -17.828125 62.375 -17.953125 C 62.625 -18.078125 62.804688 -18.140625 62.921875 -18.140625 C 63.773438 -18.492188 64.5625 -18.613281 65.28125 -18.5 C 65.882812 -18.5 66.1875 -18.5 66.1875 -18.5 C 66.675781 -18.613281 67.128906 -18.609375 67.546875 -18.484375 C 67.972656 -18.367188 68.367188 -18.191406 68.734375 -17.953125 C 69.335938 -17.828125 69.847656 -17.644531 70.265625 -17.40625 C 70.691406 -17.164062 71.144531 -16.984375 71.625 -16.859375 C 71.875 -16.859375 72.054688 -16.800781 72.171875 -16.6875 C 72.773438 -16.195312 73.53125 -15.769531 74.4375 -15.40625 C 75.34375 -15.050781 75.859375 -14.628906 75.984375 -14.140625 C 76.222656 -13.421875 76.34375 -12.726562 76.34375 -12.0625 C 76.34375 -11.394531 76.40625 -10.695312 76.53125 -9.96875 C 76.53125 -9.613281 76.5 -9.253906 76.4375 -8.890625 C 76.375 -8.523438 76.285156 -8.160156 76.171875 -7.796875 C 75.921875 -7.316406 75.644531 -6.773438 75.34375 -6.171875 C 75.039062 -5.566406 74.648438 -5.019531 74.171875 -4.53125 C 73.929688 -4.289062 73.71875 -4.050781 73.53125 -3.8125 C 73.351562 -3.570312 73.144531 -3.328125 72.90625 -3.078125 C 72.414062 -2.597656 71.867188 -2.175781 71.265625 -1.8125 C 70.660156 -1.445312 69.992188 -1.265625 69.265625 -1.265625 C 68.785156 -1.265625 68.425781 -1.207031 68.1875 -1.09375 C 67.695312 -0.84375 67.210938 -0.71875 66.734375 -0.71875 C 66.253906 -0.71875 65.710938 -0.71875 65.109375 -0.71875 C 64.253906 -0.601562 63.429688 -0.515625 62.640625 -0.453125 C 61.859375 -0.390625 61.046875 -0.421875 60.203125 -0.546875 C 59.722656 -0.660156 59.300781 -0.660156 58.9375 -0.546875 C 57.726562 -0.179688 56.519531 -0.117188 55.3125 -0.359375 C 54.101562 -0.359375 52.921875 -0.328125 51.765625 -0.265625 C 50.617188 -0.210938 49.503906 -0.1875 48.421875 -0.1875 L 46.0625 -0.1875 C 45.695312 -0.1875 45.394531 -0.125 45.15625 0 C 44.664062 0.238281 44.085938 0.359375 43.421875 0.359375 C 42.765625 0.359375 42.132812 0.300781 41.53125 0.1875 L 39.71875 0.1875 C 39.59375 0.1875 39.410156 0.210938 39.171875 0.265625 C 38.929688 0.328125 38.6875 0.300781 38.4375 0.1875 C 38.082031 0.0625 37.753906 0.03125 37.453125 0.09375 C 37.148438 0.15625 36.816406 0.242188 36.453125 0.359375 C 36.210938 0.359375 36 0.390625 35.8125 0.453125 C 35.632812 0.515625 35.425781 0.546875 35.1875 0.546875 C 33.976562 0.421875 32.828125 0.445312 31.734375 0.625 C 30.648438 0.8125 29.503906 1.023438 28.296875 1.265625 Z M 28.296875 1.265625 "/></g></g></g><g fill="#2b2b2b" fill-opacity="1"><g transform="translate(329.299788, 379.53797)"><g><path d="M 83.96875 10.703125 L 83.0625 10.703125 C 82.695312 10.703125 82.300781 10.671875 81.875 10.609375 C 81.445312 10.546875 80.992188 10.515625 80.515625 10.515625 C 79.671875 10.640625 78.972656 10.488281 78.421875 10.0625 C 77.878906 9.644531 77.304688 9.128906 76.703125 8.515625 C 76.460938 8.273438 76.191406 8.003906 75.890625 7.703125 C 75.585938 7.398438 75.253906 7.191406 74.890625 7.078125 C 74.648438 6.953125 74.410156 6.648438 74.171875 6.171875 C 74.046875 5.921875 73.890625 5.613281 73.703125 5.25 C 73.523438 4.894531 73.316406 4.535156 73.078125 4.171875 C 72.835938 3.566406 72.78125 2.898438 72.90625 2.171875 C 73.019531 1.804688 73.109375 1.472656 73.171875 1.171875 C 73.234375 0.867188 73.265625 0.539062 73.265625 0.1875 C 73.265625 -1.019531 73.265625 -2.195312 73.265625 -3.34375 C 73.265625 -4.5 73.144531 -5.679688 72.90625 -6.890625 C 72.78125 -7.253906 72.71875 -7.644531 72.71875 -8.0625 C 72.71875 -8.488281 72.65625 -8.945312 72.53125 -9.4375 C 72.53125 -10.28125 72.472656 -10.941406 72.359375 -11.421875 C 72.359375 -12.023438 72.328125 -12.566406 72.265625 -13.046875 C 72.203125 -13.535156 72.171875 -14.019531 72.171875 -14.5 C 72.054688 -15.351562 72 -16.140625 72 -16.859375 C 72 -17.585938 71.875 -18.375 71.625 -19.21875 L 71.625 -19.765625 C 71.625 -21.335938 71.535156 -22.878906 71.359375 -24.390625 C 71.179688 -25.898438 71.09375 -27.441406 71.09375 -29.015625 C 71.09375 -29.742188 71.03125 -30.285156 70.90625 -30.640625 C 70.78125 -31.734375 70.6875 -32.851562 70.625 -34 C 70.570312 -35.144531 70.546875 -36.320312 70.546875 -37.53125 C 70.546875 -38.625 70.546875 -39.742188 70.546875 -40.890625 C 70.546875 -42.035156 70.425781 -43.15625 70.1875 -44.25 C 70.0625 -44.488281 70 -44.789062 70 -45.15625 C 70 -45.519531 70 -45.820312 70 -46.0625 C 70 -51.019531 70 -55.972656 70 -60.921875 C 70 -65.878906 70.0625 -70.78125 70.1875 -75.625 C 70.1875 -76.226562 70.210938 -76.832031 70.265625 -77.4375 C 70.328125 -78.039062 70.359375 -78.644531 70.359375 -79.25 C 70.359375 -79.613281 70.390625 -79.972656 70.453125 -80.328125 C 70.515625 -80.691406 70.546875 -80.992188 70.546875 -81.234375 C 70.546875 -82.566406 70.570312 -83.925781 70.625 -85.3125 C 70.6875 -86.707031 70.78125 -88.070312 70.90625 -89.40625 C 71.144531 -89.769531 71.144531 -90.253906 70.90625 -90.859375 C 70.78125 -90.972656 70.597656 -91.03125 70.359375 -91.03125 L 69.8125 -90.484375 C 69.570312 -90.128906 69.269531 -89.769531 68.90625 -89.40625 C 68.539062 -89.039062 68.238281 -88.675781 68 -88.3125 C 67.519531 -87.582031 67.003906 -86.828125 66.453125 -86.046875 C 65.910156 -85.265625 65.335938 -84.445312 64.734375 -83.59375 C 63.890625 -82.144531 62.984375 -80.664062 62.015625 -79.15625 C 61.046875 -77.644531 60.320312 -76.039062 59.84375 -74.34375 C 59.71875 -74.101562 59.59375 -73.832031 59.46875 -73.53125 C 59.351562 -73.226562 59.238281 -72.957031 59.125 -72.71875 C 58.632812 -71.507812 58.117188 -70.328125 57.578125 -69.171875 C 57.035156 -68.023438 56.519531 -66.789062 56.03125 -65.46875 C 55.3125 -63.894531 54.285156 -62.441406 52.953125 -61.109375 C 52.710938 -60.867188 52.472656 -60.75 52.234375 -60.75 C 51.617188 -60.382812 50.945312 -60.050781 50.21875 -59.75 C 49.5 -59.445312 48.71875 -59.359375 47.875 -59.484375 L 46.78125 -59.484375 C 45.695312 -59.242188 44.789062 -59.484375 44.0625 -60.203125 C 43.21875 -60.441406 42.523438 -60.863281 41.984375 -61.46875 C 41.441406 -62.070312 40.867188 -62.738281 40.265625 -63.46875 C 39.773438 -64.070312 39.378906 -64.796875 39.078125 -65.640625 C 38.773438 -66.492188 38.625 -67.34375 38.625 -68.1875 C 38.5 -68.425781 38.4375 -68.726562 38.4375 -69.09375 C 38.4375 -69.457031 38.4375 -69.757812 38.4375 -70 C 38.320312 -70.238281 38.203125 -70.507812 38.078125 -70.8125 C 37.960938 -71.113281 37.90625 -71.328125 37.90625 -71.453125 C 37.90625 -71.691406 37.78125 -72.050781 37.53125 -72.53125 C 37.289062 -73.019531 36.804688 -73.988281 36.078125 -75.4375 C 35.359375 -76.882812 35 -77.550781 35 -77.4375 C 34.632812 -78.039062 34.269531 -78.703125 33.90625 -79.421875 C 33.550781 -80.148438 33.128906 -80.816406 32.640625 -81.421875 L 31.546875 -83.421875 C 31.304688 -83.421875 31.128906 -83.476562 31.015625 -83.59375 L 30.828125 -83.421875 C 30.828125 -83.054688 30.828125 -82.691406 30.828125 -82.328125 C 30.828125 -81.960938 30.890625 -81.597656 31.015625 -81.234375 C 31.253906 -79.910156 31.375 -78.582031 31.375 -77.25 C 31.375 -75.914062 31.253906 -74.585938 31.015625 -73.265625 C 31.015625 -72.535156 31.070312 -71.929688 31.1875 -71.453125 C 31.3125 -71.210938 31.375 -70.789062 31.375 -70.1875 C 31.375 -69.457031 31.398438 -68.726562 31.453125 -68 C 31.515625 -67.28125 31.488281 -66.554688 31.375 -65.828125 C 31.25 -65.222656 31.21875 -64.585938 31.28125 -63.921875 C 31.34375 -63.253906 31.429688 -62.617188 31.546875 -62.015625 L 31.546875 -60.203125 C 31.304688 -59.484375 31.304688 -58.695312 31.546875 -57.84375 C 31.671875 -57.238281 31.703125 -56.601562 31.640625 -55.9375 C 31.578125 -55.28125 31.609375 -54.648438 31.734375 -54.046875 C 31.734375 -53.441406 31.613281 -52.65625 31.375 -51.6875 C 30.644531 -48.78125 30.828125 -46 31.921875 -43.34375 C 32.035156 -42.851562 32.148438 -42.394531 32.265625 -41.96875 C 32.390625 -41.550781 32.394531 -41.101562 32.28125 -40.625 C 32.28125 -40.257812 32.28125 -39.894531 32.28125 -39.53125 C 32.28125 -39.164062 32.335938 -38.800781 32.453125 -38.4375 C 32.703125 -37.957031 32.828125 -37.476562 32.828125 -37 C 32.941406 -35.664062 33.03125 -34.632812 33.09375 -33.90625 C 33.15625 -33.1875 33.25 -32.644531 33.375 -32.28125 C 33.613281 -30.945312 33.851562 -29.582031 34.09375 -28.1875 C 34.332031 -26.800781 34.570312 -25.445312 34.8125 -24.125 C 35.0625 -22.550781 35.335938 -21.007812 35.640625 -19.5 C 35.941406 -17.988281 36.09375 -16.445312 36.09375 -14.875 C 36.09375 -14.382812 36.148438 -14.019531 36.265625 -13.78125 C 36.503906 -12.8125 36.625 -11.8125 36.625 -10.78125 C 36.625 -9.757812 36.6875 -8.765625 36.8125 -7.796875 C 36.8125 -6.460938 36.507812 -5.4375 35.90625 -4.71875 C 35.664062 -4.226562 35.546875 -3.925781 35.546875 -3.8125 C 34.453125 -1.507812 32.515625 -0.175781 29.734375 0.1875 C 29.378906 0.300781 29.019531 0.359375 28.65625 0.359375 C 28.289062 0.359375 27.925781 0.359375 27.5625 0.359375 C 26.226562 0.597656 25.257812 0.359375 24.65625 -0.359375 C 24.414062 -0.597656 24.175781 -0.71875 23.9375 -0.71875 C 23.332031 -0.601562 22.726562 -0.96875 22.125 -1.8125 C 21.757812 -2.414062 21.210938 -2.960938 20.484375 -3.453125 C 20.128906 -3.804688 19.828125 -4.410156 19.578125 -5.265625 C 19.460938 -5.503906 19.375 -5.742188 19.3125 -5.984375 C 19.25 -6.222656 19.21875 -6.460938 19.21875 -6.703125 C 19.101562 -8.398438 18.921875 -10.0625 18.671875 -11.6875 C 18.429688 -13.320312 18.253906 -14.925781 18.140625 -16.5 L 17.953125 -18.3125 C 17.828125 -18.800781 17.765625 -19.222656 17.765625 -19.578125 C 17.765625 -19.941406 17.707031 -20.367188 17.59375 -20.859375 L 17.59375 -21.9375 C 17.226562 -23.632812 17.046875 -25.359375 17.046875 -27.109375 C 17.046875 -28.859375 17.109375 -30.582031 17.234375 -32.28125 C 17.347656 -33.363281 17.40625 -34.476562 17.40625 -35.625 C 17.40625 -36.78125 17.46875 -37.898438 17.59375 -38.984375 L 17.59375 -43.15625 C 17.59375 -43.757812 17.59375 -44.394531 17.59375 -45.0625 C 17.59375 -45.726562 17.53125 -46.363281 17.40625 -46.96875 C 17.289062 -47.695312 17.234375 -48.421875 17.234375 -49.140625 C 17.234375 -49.867188 17.234375 -50.59375 17.234375 -51.3125 L 17.234375 -59.65625 C 17.109375 -60.625 17.046875 -61.625 17.046875 -62.65625 C 17.046875 -63.6875 17.046875 -64.679688 17.046875 -65.640625 C 17.046875 -66.003906 17.046875 -66.394531 17.046875 -66.8125 C 17.046875 -67.238281 16.984375 -67.632812 16.859375 -68 C 16.859375 -68.601562 16.828125 -69.175781 16.765625 -69.71875 C 16.710938 -70.269531 16.625 -70.785156 16.5 -71.265625 L 16.5 -72.53125 C 16.257812 -73.625 16.140625 -74.679688 16.140625 -75.703125 C 16.140625 -76.734375 16.140625 -77.796875 16.140625 -78.890625 C 16.140625 -79.847656 16.140625 -80.84375 16.140625 -81.875 C 16.140625 -82.90625 16.019531 -83.84375 15.78125 -84.6875 C 15.65625 -85.050781 15.59375 -85.410156 15.59375 -85.765625 C 15.59375 -86.128906 15.59375 -86.492188 15.59375 -86.859375 C 15.59375 -87.710938 15.59375 -88.53125 15.59375 -89.3125 C 15.59375 -90.09375 15.472656 -90.910156 15.234375 -91.765625 C 15.109375 -92.003906 15.046875 -92.425781 15.046875 -93.03125 L 15.046875 -102.09375 C 15.046875 -102.695312 15.046875 -103.269531 15.046875 -103.8125 C 15.046875 -104.363281 14.925781 -104.878906 14.6875 -105.359375 C 14.320312 -106.566406 14.382812 -107.957031 14.875 -109.53125 C 15.113281 -110.132812 15.351562 -110.554688 15.59375 -110.796875 C 15.832031 -111.160156 16.070312 -111.523438 16.3125 -111.890625 C 16.5625 -112.253906 16.742188 -112.617188 16.859375 -112.984375 C 17.109375 -113.335938 17.289062 -113.515625 17.40625 -113.515625 C 17.894531 -113.640625 18.289062 -113.820312 18.59375 -114.0625 C 18.894531 -114.300781 19.164062 -114.546875 19.40625 -114.796875 L 20.484375 -115.328125 C 20.734375 -115.453125 21.097656 -115.515625 21.578125 -115.515625 C 22.179688 -115.390625 22.816406 -115.296875 23.484375 -115.234375 C 24.148438 -115.179688 24.785156 -115.09375 25.390625 -114.96875 C 26.109375 -114.96875 26.648438 -114.664062 27.015625 -114.0625 C 27.617188 -113.21875 28.222656 -112.367188 28.828125 -111.515625 C 29.429688 -110.671875 29.914062 -109.769531 30.28125 -108.8125 C 30.644531 -107.957031 31.128906 -107.226562 31.734375 -106.625 C 32.460938 -105.65625 33.1875 -104.6875 33.90625 -103.71875 C 34.632812 -102.757812 35.421875 -101.796875 36.265625 -100.828125 C 36.628906 -100.460938 36.960938 -100.035156 37.265625 -99.546875 C 37.566406 -99.066406 37.835938 -98.585938 38.078125 -98.109375 C 38.679688 -97.265625 39.253906 -96.445312 39.796875 -95.65625 C 40.347656 -94.875 40.925781 -94.054688 41.53125 -93.203125 L 44.25 -88.859375 C 44.488281 -88.378906 44.726562 -87.925781 44.96875 -87.5 C 45.21875 -87.070312 45.460938 -86.675781 45.703125 -86.3125 C 45.941406 -85.707031 46.300781 -85.648438 46.78125 -86.140625 C 47.269531 -86.742188 47.785156 -87.378906 48.328125 -88.046875 C 48.867188 -88.710938 49.382812 -89.347656 49.875 -89.953125 C 50.957031 -91.273438 52.039062 -92.660156 53.125 -94.109375 C 54.21875 -95.566406 55.367188 -96.957031 56.578125 -98.28125 L 57.671875 -99.921875 C 58.515625 -101.128906 59.328125 -102.304688 60.109375 -103.453125 C 60.898438 -104.597656 61.65625 -105.78125 62.375 -107 C 63.226562 -108.320312 63.984375 -109.648438 64.640625 -110.984375 C 65.304688 -112.316406 65.882812 -113.644531 66.375 -114.96875 L 68.546875 -119.875 C 69.273438 -121.320312 70.300781 -122.53125 71.625 -123.5 C 73.4375 -124.945312 75.429688 -125.488281 77.609375 -125.125 C 78.460938 -125.007812 79.25 -124.800781 79.96875 -124.5 C 80.695312 -124.195312 81.425781 -123.921875 82.15625 -123.671875 C 82.875 -123.429688 83.351562 -122.890625 83.59375 -122.046875 C 83.84375 -121.679688 84.023438 -121.316406 84.140625 -120.953125 C 84.265625 -120.585938 84.328125 -120.226562 84.328125 -119.875 C 84.441406 -119.019531 84.617188 -118.257812 84.859375 -117.59375 C 85.109375 -116.9375 85.289062 -116.179688 85.40625 -115.328125 L 85.59375 -113.515625 C 85.832031 -112.429688 86.101562 -111.34375 86.40625 -110.25 C 86.707031 -109.164062 86.976562 -108.082031 87.21875 -107 L 87.21875 -106.625 C 87.34375 -105.414062 87.492188 -104.238281 87.671875 -103.09375 C 87.859375 -101.945312 87.890625 -100.769531 87.765625 -99.5625 L 87.765625 -95.390625 C 87.765625 -94.785156 87.765625 -94.179688 87.765625 -93.578125 C 87.765625 -92.972656 87.707031 -92.367188 87.59375 -91.765625 C 87.46875 -90.910156 87.40625 -90.09375 87.40625 -89.3125 C 87.40625 -88.53125 87.40625 -87.710938 87.40625 -86.859375 C 87.28125 -86.378906 87.21875 -85.894531 87.21875 -85.40625 C 87.21875 -84.925781 87.160156 -84.445312 87.046875 -83.96875 C 86.921875 -83.476562 86.859375 -83.019531 86.859375 -82.59375 C 86.859375 -82.175781 86.859375 -81.664062 86.859375 -81.0625 L 86.859375 -75.984375 C 86.859375 -75.140625 86.828125 -74.351562 86.765625 -73.625 C 86.710938 -72.894531 86.625 -72.109375 86.5 -71.265625 C 86.375 -70.785156 86.3125 -70.332031 86.3125 -69.90625 C 86.3125 -69.476562 86.3125 -69.023438 86.3125 -68.546875 L 86.3125 -57.484375 C 86.3125 -56.640625 86.34375 -55.789062 86.40625 -54.9375 C 86.46875 -54.09375 86.5625 -53.25 86.6875 -52.40625 C 86.800781 -51.800781 86.859375 -51.164062 86.859375 -50.5 C 86.859375 -49.832031 86.859375 -49.195312 86.859375 -48.59375 C 86.984375 -47.75 87.046875 -46.929688 87.046875 -46.140625 C 87.046875 -45.359375 87.101562 -44.484375 87.21875 -43.515625 L 87.21875 -41.53125 C 87.34375 -40.5625 87.40625 -39.5625 87.40625 -38.53125 C 87.40625 -37.507812 87.40625 -36.515625 87.40625 -35.546875 L 87.40625 -33.1875 C 87.644531 -32.34375 87.765625 -31.4375 87.765625 -30.46875 C 87.765625 -29.5 87.828125 -28.53125 87.953125 -27.5625 L 87.953125 -26.296875 C 88.191406 -25.566406 88.3125 -24.835938 88.3125 -24.109375 C 88.3125 -23.390625 88.375 -22.664062 88.5 -21.9375 L 89.046875 -15.421875 C 89.160156 -14.929688 89.25 -14.472656 89.3125 -14.046875 C 89.375 -13.628906 89.40625 -13.175781 89.40625 -12.6875 C 89.519531 -12.207031 89.578125 -11.753906 89.578125 -11.328125 C 89.578125 -10.910156 89.640625 -10.457031 89.765625 -9.96875 C 89.765625 -9.851562 89.796875 -9.671875 89.859375 -9.421875 C 89.921875 -9.179688 89.953125 -8.941406 89.953125 -8.703125 C 89.953125 -7.859375 90.039062 -6.953125 90.21875 -5.984375 C 90.394531 -5.015625 90.546875 -4.046875 90.671875 -3.078125 L 91.390625 2 C 91.390625 2.71875 91.332031 3.203125 91.21875 3.453125 C 91.09375 4.171875 90.816406 4.863281 90.390625 5.53125 C 89.972656 6.195312 89.644531 6.832031 89.40625 7.4375 C 89.40625 7.550781 89.375 7.609375 89.3125 7.609375 C 89.25 7.609375 89.21875 7.609375 89.21875 7.609375 C 88.375 8.335938 87.523438 8.972656 86.671875 9.515625 C 85.828125 10.066406 84.925781 10.460938 83.96875 10.703125 Z M 83.96875 10.703125 "/></g></g></g><g fill="#2b2b2b" fill-opacity="1"><g transform="translate(427.038254, 379.53797)"><g><path d="M 45.875 3.625 C 44.664062 3.507812 43.488281 3.359375 42.34375 3.171875 C 41.195312 2.992188 40.078125 2.660156 38.984375 2.171875 L 34.453125 0.546875 C 32.878906 -0.0546875 31.425781 -0.75 30.09375 -1.53125 C 28.769531 -2.320312 27.441406 -3.140625 26.109375 -3.984375 C 25.503906 -4.585938 24.898438 -5.160156 24.296875 -5.703125 C 23.691406 -6.253906 23.085938 -6.769531 22.484375 -7.25 C 21.515625 -8.21875 20.546875 -9.210938 19.578125 -10.234375 C 18.617188 -11.265625 17.710938 -12.382812 16.859375 -13.59375 L 12.515625 -20.3125 C 11.421875 -22 10.453125 -23.78125 9.609375 -25.65625 C 8.765625 -27.53125 8.039062 -29.4375 7.4375 -31.375 C 6.101562 -35 5.4375 -38.566406 5.4375 -42.078125 L 5.4375 -44.96875 C 5.4375 -47.988281 5.617188 -50.953125 5.984375 -53.859375 C 6.222656 -56.273438 6.765625 -58.453125 7.609375 -60.390625 C 8.097656 -61.597656 8.523438 -62.804688 8.890625 -64.015625 C 9.253906 -65.222656 9.675781 -66.367188 10.15625 -67.453125 L 10.703125 -68.734375 C 10.941406 -70.304688 11.484375 -71.722656 12.328125 -72.984375 C 13.171875 -74.253906 13.894531 -75.492188 14.5 -76.703125 C 14.988281 -77.671875 15.535156 -78.546875 16.140625 -79.328125 C 16.742188 -80.117188 17.285156 -80.9375 17.765625 -81.78125 C 18.015625 -82.144531 18.316406 -82.476562 18.671875 -82.78125 C 19.035156 -83.082031 19.335938 -83.414062 19.578125 -83.78125 C 19.828125 -84.019531 20.039062 -84.347656 20.21875 -84.765625 C 20.394531 -85.191406 20.546875 -85.585938 20.671875 -85.953125 C 20.910156 -86.316406 21.332031 -86.800781 21.9375 -87.40625 C 22.664062 -87.769531 23.332031 -88.617188 23.9375 -89.953125 C 24.175781 -90.429688 24.414062 -90.789062 24.65625 -91.03125 C 25.382812 -91.632812 26.019531 -92.359375 26.5625 -93.203125 C 27.113281 -94.054688 27.75 -94.84375 28.46875 -95.5625 C 28.957031 -96.050781 29.203125 -96.71875 29.203125 -97.5625 C 29.203125 -98.164062 29.226562 -98.738281 29.28125 -99.28125 C 29.34375 -99.832031 29.316406 -100.347656 29.203125 -100.828125 C 29.078125 -101.429688 29.253906 -101.972656 29.734375 -102.453125 C 29.984375 -102.703125 30.164062 -103.003906 30.28125 -103.359375 C 30.40625 -103.722656 30.523438 -104.085938 30.640625 -104.453125 C 31.003906 -105.660156 31.972656 -106.6875 33.546875 -107.53125 C 33.785156 -107.78125 34.117188 -107.929688 34.546875 -107.984375 C 34.972656 -108.046875 35.363281 -108.140625 35.71875 -108.265625 C 36.570312 -108.628906 37.539062 -108.6875 38.625 -108.4375 C 39.113281 -108.320312 39.535156 -108.289062 39.890625 -108.34375 C 40.253906 -108.40625 40.617188 -108.5 40.984375 -108.625 C 41.460938 -108.863281 41.914062 -109.039062 42.34375 -109.15625 C 42.769531 -109.28125 43.160156 -109.40625 43.515625 -109.53125 C 45.210938 -110.132812 47 -110.070312 48.875 -109.34375 C 50.75 -108.625 52.109375 -107.359375 52.953125 -105.546875 C 53.191406 -104.941406 53.429688 -104.335938 53.671875 -103.734375 C 53.921875 -103.128906 54.101562 -102.523438 54.21875 -101.921875 C 54.457031 -100.585938 54.398438 -99.4375 54.046875 -98.46875 C 53.796875 -97.988281 53.671875 -97.6875 53.671875 -97.5625 C 53.554688 -97.082031 53.679688 -96.660156 54.046875 -96.296875 C 54.285156 -95.929688 54.585938 -95.628906 54.953125 -95.390625 C 56.273438 -94.179688 57.539062 -93 58.75 -91.84375 C 59.957031 -90.695312 61.109375 -89.460938 62.203125 -88.140625 C 63.171875 -87.171875 63.984375 -86.171875 64.640625 -85.140625 C 65.304688 -84.109375 65.941406 -82.988281 66.546875 -81.78125 C 66.796875 -81.175781 67.097656 -80.539062 67.453125 -79.875 C 67.816406 -79.21875 68.179688 -78.585938 68.546875 -77.984375 C 69.148438 -76.890625 69.660156 -75.738281 70.078125 -74.53125 C 70.503906 -73.320312 70.960938 -72.113281 71.453125 -70.90625 L 71.453125 -70.71875 C 71.691406 -69.875 71.898438 -69 72.078125 -68.09375 C 72.265625 -67.1875 72.597656 -66.25 73.078125 -65.28125 C 73.441406 -64.4375 73.742188 -63.5625 73.984375 -62.65625 C 74.222656 -61.75 74.46875 -60.8125 74.71875 -59.84375 C 74.957031 -58.757812 75.226562 -57.671875 75.53125 -56.578125 C 75.832031 -55.492188 76.046875 -54.40625 76.171875 -53.3125 C 76.285156 -52.832031 76.398438 -52.378906 76.515625 -51.953125 C 76.640625 -51.523438 76.765625 -51.070312 76.890625 -50.59375 C 77.128906 -49.507812 77.367188 -48.421875 77.609375 -47.328125 C 77.859375 -46.242188 78.039062 -45.15625 78.15625 -44.0625 L 78.703125 -42.796875 C 78.941406 -42.066406 79.179688 -41.097656 79.421875 -39.890625 C 79.785156 -38.316406 80 -36.742188 80.0625 -35.171875 C 80.125 -33.609375 80.09375 -31.976562 79.96875 -30.28125 C 79.96875 -29.4375 79.910156 -28.773438 79.796875 -28.296875 C 79.066406 -25.753906 78.160156 -23.148438 77.078125 -20.484375 C 76.585938 -19.640625 76.097656 -18.820312 75.609375 -18.03125 C 75.128906 -17.25 74.648438 -16.4375 74.171875 -15.59375 L 72.53125 -13.0625 C 71.925781 -11.96875 71.265625 -11 70.546875 -10.15625 C 69.335938 -8.21875 67.882812 -6.523438 66.1875 -5.078125 C 64.5 -3.628906 62.6875 -2.238281 60.75 -0.90625 C 56.519531 2.351562 51.5625 3.863281 45.875 3.625 Z M 45.15625 -14.328125 C 47.695312 -14.328125 49.875 -15.050781 51.6875 -16.5 C 52.289062 -17.101562 52.921875 -17.675781 53.578125 -18.21875 C 54.242188 -18.769531 54.820312 -19.347656 55.3125 -19.953125 C 57.601562 -22.484375 59.414062 -25.140625 60.75 -27.921875 L 61.296875 -29.734375 C 61.535156 -31.910156 61.535156 -34.085938 61.296875 -36.265625 L 60.203125 -42.25 C 59.835938 -43.820312 59.535156 -45.363281 59.296875 -46.875 C 59.054688 -48.382812 58.695312 -49.863281 58.21875 -51.3125 C 57.851562 -52.164062 57.726562 -52.832031 57.84375 -53.3125 C 57.96875 -53.914062 57.96875 -54.519531 57.84375 -55.125 C 57.726562 -55.726562 57.546875 -56.332031 57.296875 -56.9375 C 56.941406 -58.507812 56.519531 -60.082031 56.03125 -61.65625 C 55.550781 -63.226562 55.066406 -64.800781 54.578125 -66.375 C 54.460938 -66.738281 54.34375 -67.097656 54.21875 -67.453125 C 54.101562 -67.816406 53.984375 -68.179688 53.859375 -68.546875 C 53.015625 -70.242188 52.109375 -71.875 51.140625 -73.4375 C 50.171875 -75.007812 49.082031 -76.460938 47.875 -77.796875 C 47.269531 -78.523438 46.601562 -79.21875 45.875 -79.875 C 45.15625 -80.539062 44.429688 -81.175781 43.703125 -81.78125 C 43.578125 -82.03125 43.425781 -82.179688 43.25 -82.234375 C 43.070312 -82.296875 42.859375 -82.390625 42.609375 -82.515625 C 42.253906 -82.992188 41.773438 -82.929688 41.171875 -82.328125 C 40.566406 -81.722656 39.929688 -81.054688 39.265625 -80.328125 C 38.597656 -79.609375 37.960938 -78.882812 37.359375 -78.15625 C 36.753906 -77.3125 36.117188 -76.460938 35.453125 -75.609375 C 34.785156 -74.765625 34.148438 -73.921875 33.546875 -73.078125 C 32.703125 -71.992188 31.914062 -70.90625 31.1875 -69.8125 C 30.46875 -68.726562 29.742188 -67.640625 29.015625 -66.546875 C 26.472656 -62.441406 24.476562 -57.910156 23.03125 -52.953125 C 22.789062 -52.222656 22.671875 -51.675781 22.671875 -51.3125 C 22.546875 -50.46875 22.453125 -49.625 22.390625 -48.78125 C 22.335938 -47.9375 22.3125 -47.03125 22.3125 -46.0625 L 22.3125 -44.609375 C 22.425781 -44.242188 22.484375 -43.878906 22.484375 -43.515625 C 22.484375 -43.160156 22.546875 -42.800781 22.671875 -42.4375 C 22.671875 -40.988281 23.03125 -39.414062 23.75 -37.71875 C 24.71875 -35.300781 25.804688 -32.941406 27.015625 -30.640625 C 28.222656 -28.347656 29.613281 -26.175781 31.1875 -24.125 C 31.550781 -23.632812 31.941406 -23.144531 32.359375 -22.65625 C 32.785156 -22.175781 33.179688 -21.695312 33.546875 -21.21875 C 34.640625 -20.007812 35.816406 -18.921875 37.078125 -17.953125 C 38.347656 -16.984375 39.648438 -16.140625 40.984375 -15.421875 C 42.429688 -14.691406 43.820312 -14.328125 45.15625 -14.328125 Z M 45.15625 -14.328125 "/></g></g></g><g fill="#2b2b2b" fill-opacity="1"><g transform="translate(501.565748, 379.53797)"><g><path d="M 71.265625 1.625 C 70.898438 1.507812 70.503906 1.390625 70.078125 1.265625 C 69.660156 1.148438 69.269531 1.03125 68.90625 0.90625 C 67.9375 0.539062 66.972656 0.0546875 66.015625 -0.546875 C 65.523438 -0.785156 65.160156 -1.144531 64.921875 -1.625 C 64.078125 -2.957031 63.289062 -4.195312 62.5625 -5.34375 C 61.832031 -6.5 61.046875 -7.679688 60.203125 -8.890625 L 58.578125 -11.78125 C 57.722656 -13.476562 56.875 -15.140625 56.03125 -16.765625 C 55.1875 -18.398438 54.34375 -20.003906 53.5 -21.578125 C 53.257812 -22.179688 52.988281 -22.691406 52.6875 -23.109375 C 52.382812 -23.535156 52.109375 -23.992188 51.859375 -24.484375 C 51.015625 -25.804688 50.226562 -27.160156 49.5 -28.546875 C 48.78125 -29.941406 48.054688 -31.304688 47.328125 -32.640625 L 42.796875 -41.53125 C 41.585938 -43.945312 40.378906 -46.332031 39.171875 -48.6875 C 37.960938 -51.050781 36.753906 -53.441406 35.546875 -55.859375 C 35.304688 -56.097656 35.0625 -56.457031 34.8125 -56.9375 C 34.332031 -58.269531 33.757812 -59.539062 33.09375 -60.75 C 32.425781 -61.957031 31.789062 -63.164062 31.1875 -64.375 C 30.707031 -65.21875 30.285156 -66.09375 29.921875 -67 C 29.554688 -67.90625 29.132812 -68.785156 28.65625 -69.640625 L 26.65625 -73.265625 C 26.414062 -73.265625 26.234375 -73.320312 26.109375 -73.4375 C 26.109375 -73.4375 26.078125 -73.40625 26.015625 -73.34375 C 25.960938 -73.289062 25.9375 -73.203125 25.9375 -73.078125 C 25.8125 -71.503906 25.6875 -69.867188 25.5625 -68.171875 C 25.445312 -66.484375 25.445312 -64.796875 25.5625 -63.109375 C 25.8125 -62.378906 25.8125 -61.59375 25.5625 -60.75 C 25.320312 -58.570312 25.382812 -56.640625 25.75 -54.953125 C 25.875 -54.460938 25.90625 -53.972656 25.84375 -53.484375 C 25.78125 -53.003906 25.6875 -52.460938 25.5625 -51.859375 C 25.445312 -51.015625 25.390625 -50.226562 25.390625 -49.5 C 25.390625 -48.78125 25.328125 -48 25.203125 -47.15625 C 25.441406 -46.664062 25.5625 -46.148438 25.5625 -45.609375 C 25.5625 -45.066406 25.503906 -44.550781 25.390625 -44.0625 C 25.023438 -42.851562 25.023438 -41.585938 25.390625 -40.265625 C 25.628906 -39.898438 25.628906 -39.535156 25.390625 -39.171875 C 24.898438 -38.078125 24.78125 -36.75 25.03125 -35.1875 C 25.382812 -33.125 25.257812 -30.882812 24.65625 -28.46875 C 24.539062 -28.226562 24.484375 -27.804688 24.484375 -27.203125 C 24.359375 -26.710938 24.476562 -26.289062 24.84375 -25.9375 C 25.320312 -25.6875 25.441406 -25.382812 25.203125 -25.03125 C 25.085938 -23.457031 25.085938 -21.820312 25.203125 -20.125 C 25.203125 -20.125 25.203125 -20.09375 25.203125 -20.03125 C 25.203125 -19.976562 25.144531 -19.953125 25.03125 -19.953125 C 24.90625 -19.953125 24.84375 -20.007812 24.84375 -20.125 C 24.71875 -20.25 24.65625 -20.367188 24.65625 -20.484375 C 24.414062 -20.734375 24.296875 -20.675781 24.296875 -20.3125 C 24.296875 -19.707031 24.359375 -19.34375 24.484375 -19.21875 C 24.722656 -18.613281 24.84375 -18.007812 24.84375 -17.40625 C 24.84375 -16.800781 24.84375 -16.195312 24.84375 -15.59375 L 24.84375 -9.96875 C 24.84375 -9.613281 24.8125 -9.253906 24.75 -8.890625 C 24.6875 -8.523438 24.476562 -8.222656 24.125 -7.984375 C 23.632812 -7.859375 23.390625 -7.429688 23.390625 -6.703125 C 23.273438 -5.378906 22.820312 -4.234375 22.03125 -3.265625 C 21.25 -2.296875 20.375 -1.445312 19.40625 -0.71875 C 18.914062 -0.363281 18.335938 -0.15625 17.671875 -0.09375 C 17.015625 -0.03125 16.382812 -0.0625 15.78125 -0.1875 L 12.515625 -1.265625 C 12.273438 -1.265625 12.03125 -1.445312 11.78125 -1.8125 C 11.425781 -2.175781 11.066406 -2.566406 10.703125 -2.984375 C 10.335938 -3.410156 9.914062 -3.804688 9.4375 -4.171875 C 8.820312 -4.535156 8.394531 -5.203125 8.15625 -6.171875 C 8.039062 -6.773438 7.859375 -7.4375 7.609375 -8.15625 C 7.367188 -8.882812 7.25 -9.613281 7.25 -10.34375 C 7.25 -11.1875 7.28125 -11.96875 7.34375 -12.6875 C 7.40625 -13.414062 7.4375 -14.203125 7.4375 -15.046875 C 7.550781 -15.648438 7.609375 -16.222656 7.609375 -16.765625 C 7.609375 -17.316406 7.671875 -17.894531 7.796875 -18.5 L 7.796875 -84.875 C 7.796875 -85.476562 7.828125 -86.082031 7.890625 -86.6875 C 7.953125 -87.289062 8.039062 -87.832031 8.15625 -88.3125 C 8.15625 -88.914062 8.1875 -89.519531 8.25 -90.125 C 8.3125 -90.726562 8.34375 -91.332031 8.34375 -91.9375 C 8.34375 -92.664062 8.367188 -93.390625 8.421875 -94.109375 C 8.484375 -94.835938 8.578125 -95.503906 8.703125 -96.109375 C 8.828125 -96.597656 8.890625 -97.019531 8.890625 -97.375 C 8.890625 -97.738281 8.890625 -98.164062 8.890625 -98.65625 L 8.890625 -104.265625 C 8.890625 -105.117188 8.976562 -105.875 9.15625 -106.53125 C 9.34375 -107.195312 9.492188 -107.894531 9.609375 -108.625 L 10.15625 -109.53125 C 10.519531 -109.894531 10.820312 -110.4375 11.0625 -111.15625 C 11.300781 -111.882812 11.664062 -112.25 12.15625 -112.25 C 12.507812 -112.488281 12.867188 -112.695312 13.234375 -112.875 C 13.597656 -113.0625 13.84375 -113.398438 13.96875 -113.890625 L 14.140625 -114.0625 C 14.265625 -114.0625 14.382812 -114.09375 14.5 -114.15625 C 14.625 -114.21875 14.75 -114.25 14.875 -114.25 C 15.351562 -114.25 15.742188 -114.367188 16.046875 -114.609375 C 16.347656 -114.847656 16.742188 -114.910156 17.234375 -114.796875 C 17.710938 -114.671875 18.191406 -114.609375 18.671875 -114.609375 C 19.160156 -114.609375 19.644531 -114.546875 20.125 -114.421875 C 22.789062 -113.941406 24.664062 -112.375 25.75 -109.71875 L 26.84375 -106.09375 C 26.957031 -104.875 27.5 -103.722656 28.46875 -102.640625 C 29.195312 -101.796875 29.921875 -100.890625 30.640625 -99.921875 C 31.367188 -98.953125 32.15625 -97.984375 33 -97.015625 C 36.144531 -93.023438 39.046875 -88.550781 41.703125 -83.59375 C 41.953125 -83.113281 42.195312 -82.628906 42.4375 -82.140625 C 42.675781 -81.660156 42.914062 -81.179688 43.15625 -80.703125 L 52.59375 -61.65625 C 53.3125 -60.320312 54.003906 -58.957031 54.671875 -57.5625 C 55.335938 -56.175781 56.09375 -54.820312 56.9375 -53.5 C 57.175781 -53.007812 57.414062 -52.550781 57.65625 -52.125 C 57.90625 -51.707031 58.09375 -51.257812 58.21875 -50.78125 C 58.820312 -49.320312 59.546875 -47.867188 60.390625 -46.421875 C 60.390625 -46.421875 60.414062 -46.390625 60.46875 -46.328125 C 60.53125 -46.273438 60.5625 -46.304688 60.5625 -46.421875 C 60.6875 -46.421875 60.78125 -46.453125 60.84375 -46.515625 C 60.90625 -46.578125 60.9375 -46.609375 60.9375 -46.609375 L 61.46875 -52.953125 L 61.46875 -54.765625 C 61.59375 -55.367188 61.6875 -56.003906 61.75 -56.671875 C 61.8125 -57.335938 61.898438 -57.972656 62.015625 -58.578125 C 62.140625 -58.941406 62.171875 -59.363281 62.109375 -59.84375 C 62.046875 -60.320312 62.078125 -60.804688 62.203125 -61.296875 C 62.203125 -62.015625 62.226562 -62.765625 62.28125 -63.546875 C 62.34375 -64.335938 62.4375 -65.097656 62.5625 -65.828125 C 62.6875 -66.191406 62.75 -66.582031 62.75 -67 C 62.75 -67.425781 62.75 -67.820312 62.75 -68.1875 L 62.75 -73.078125 L 62.5625 -73.078125 L 62.5625 -77.984375 C 62.5625 -78.585938 62.5625 -79.191406 62.5625 -79.796875 C 62.5625 -80.398438 62.441406 -81.003906 62.203125 -81.609375 C 62.078125 -81.972656 62.015625 -82.515625 62.015625 -83.234375 L 62.203125 -84.5 C 62.203125 -84.863281 62.171875 -85.195312 62.109375 -85.5 C 62.046875 -85.800781 62.015625 -86.132812 62.015625 -86.5 C 62.140625 -86.976562 62.078125 -87.457031 61.828125 -87.9375 C 61.585938 -88.425781 61.46875 -88.914062 61.46875 -89.40625 C 61.59375 -89.882812 61.65625 -90.363281 61.65625 -90.84375 C 61.65625 -91.332031 61.65625 -91.816406 61.65625 -92.296875 C 61.65625 -92.785156 61.414062 -93.03125 60.9375 -93.03125 C 60.8125 -93.03125 60.75 -93.148438 60.75 -93.390625 C 60.625 -93.753906 60.625 -94.054688 60.75 -94.296875 C 60.988281 -94.898438 61.109375 -95.5625 61.109375 -96.28125 C 61.109375 -97.007812 61.109375 -97.738281 61.109375 -98.46875 L 61.109375 -103.734375 C 60.992188 -104.453125 61.054688 -105.175781 61.296875 -105.90625 C 61.535156 -106.632812 61.835938 -107.300781 62.203125 -107.90625 L 62.921875 -108.984375 C 63.523438 -109.585938 64.191406 -110.191406 64.921875 -110.796875 C 65.648438 -111.398438 66.375 -112.003906 67.09375 -112.609375 C 67.09375 -112.609375 67.335938 -112.734375 67.828125 -112.984375 C 68.429688 -113.097656 69.003906 -113.210938 69.546875 -113.328125 C 70.085938 -113.453125 70.660156 -113.457031 71.265625 -113.34375 C 71.753906 -113.34375 72.117188 -113.28125 72.359375 -113.15625 C 72.835938 -112.914062 73.316406 -112.644531 73.796875 -112.34375 C 74.285156 -112.039062 74.769531 -111.707031 75.25 -111.34375 C 75.5 -111.21875 75.648438 -111.09375 75.703125 -110.96875 C 75.765625 -110.851562 75.859375 -110.738281 75.984375 -110.625 C 76.222656 -110.375 76.429688 -110.097656 76.609375 -109.796875 C 76.796875 -109.492188 76.953125 -109.222656 77.078125 -108.984375 C 77.679688 -108.503906 78.070312 -107.929688 78.25 -107.265625 C 78.425781 -106.597656 78.578125 -105.960938 78.703125 -105.359375 L 78.703125 -97.75 C 78.703125 -96.894531 78.734375 -96.078125 78.796875 -95.296875 C 78.859375 -94.515625 78.945312 -93.695312 79.0625 -92.84375 C 79.1875 -92.363281 79.25 -91.910156 79.25 -91.484375 C 79.25 -91.066406 79.25 -90.613281 79.25 -90.125 C 79.25 -89.15625 79.273438 -88.15625 79.328125 -87.125 C 79.390625 -86.101562 79.421875 -85.109375 79.421875 -84.140625 L 79.421875 -82.875 C 79.421875 -82.03125 79.390625 -81.210938 79.328125 -80.421875 C 79.273438 -79.640625 79.25 -78.828125 79.25 -77.984375 L 79.25 -70 C 79.25 -68.789062 79.21875 -67.550781 79.15625 -66.28125 C 79.09375 -65.007812 79.125 -63.707031 79.25 -62.375 C 79.25 -61.894531 79.1875 -61.535156 79.0625 -61.296875 C 78.945312 -60.085938 78.890625 -58.90625 78.890625 -57.75 C 78.890625 -56.601562 78.828125 -55.425781 78.703125 -54.21875 C 78.703125 -53.738281 78.703125 -53.195312 78.703125 -52.59375 C 78.703125 -51.988281 78.640625 -51.382812 78.515625 -50.78125 C 78.398438 -50.289062 78.367188 -49.800781 78.421875 -49.3125 C 78.484375 -48.832031 78.515625 -48.351562 78.515625 -47.875 C 78.765625 -46.789062 78.859375 -45.703125 78.796875 -44.609375 C 78.734375 -43.523438 78.640625 -42.4375 78.515625 -41.34375 C 78.398438 -39.40625 78.3125 -37.4375 78.25 -35.4375 C 78.1875 -33.445312 78.273438 -31.425781 78.515625 -29.375 C 78.515625 -28.894531 78.546875 -28.351562 78.609375 -27.75 C 78.671875 -27.144531 78.703125 -26.539062 78.703125 -25.9375 C 78.578125 -24.125 78.664062 -22.367188 78.96875 -20.671875 C 79.269531 -18.984375 79.601562 -17.289062 79.96875 -15.59375 C 80.207031 -14.382812 80.445312 -13.207031 80.6875 -12.0625 C 80.9375 -10.914062 81.117188 -9.675781 81.234375 -8.34375 C 81.234375 -7.851562 81.175781 -7.550781 81.0625 -7.4375 C 80.9375 -7.195312 80.8125 -6.925781 80.6875 -6.625 C 80.570312 -6.320312 80.515625 -6.046875 80.515625 -5.796875 C 80.390625 -4.835938 80.054688 -3.929688 79.515625 -3.078125 C 78.972656 -2.234375 78.398438 -1.390625 77.796875 -0.546875 C 76.222656 1.503906 74.046875 2.226562 71.265625 1.625 Z M 71.265625 1.625 "/></g></g></g><g fill="#2b2b2b" fill-opacity="1"><g transform="translate(426.817599, 308.081724)"><g><path d="M 15.59375 -17.234375 C 14.988281 -17.835938 14.625 -18.441406 14.5 -19.046875 C 14.382812 -19.890625 14.296875 -20.734375 14.234375 -21.578125 C 14.171875 -22.421875 14.140625 -23.269531 14.140625 -24.125 C 14.023438 -25.082031 13.992188 -26.078125 14.046875 -27.109375 C 14.109375 -28.140625 14.082031 -29.140625 13.96875 -30.109375 C 13.96875 -30.828125 13.96875 -31.550781 13.96875 -32.28125 C 13.96875 -33.007812 14.023438 -33.734375 14.140625 -34.453125 C 14.265625 -35.785156 14.234375 -37.054688 14.046875 -38.265625 C 13.867188 -39.472656 13.71875 -40.679688 13.59375 -41.890625 C 13.476562 -42.253906 13.390625 -42.613281 13.328125 -42.96875 C 13.265625 -43.332031 13.113281 -43.695312 12.875 -44.0625 C 12.507812 -45.03125 12.175781 -45.90625 11.875 -46.6875 C 11.570312 -47.476562 11.117188 -48.296875 10.515625 -49.140625 C 10.273438 -49.503906 10.035156 -49.925781 9.796875 -50.40625 C 9.304688 -51.738281 8.878906 -53.066406 8.515625 -54.390625 C 8.160156 -55.722656 7.800781 -57.054688 7.4375 -58.390625 C 7.070312 -60.441406 7.128906 -62.378906 7.609375 -64.203125 C 7.972656 -65.765625 8.703125 -67.09375 9.796875 -68.1875 C 9.910156 -68.425781 10.09375 -68.664062 10.34375 -68.90625 C 12.507812 -71.207031 15.164062 -72.359375 18.3125 -72.359375 C 19.28125 -72.359375 20.25 -72.359375 21.21875 -72.359375 C 22.1875 -72.359375 23.15625 -72.296875 24.125 -72.171875 C 24.476562 -72.054688 24.835938 -72 25.203125 -72 C 25.566406 -72 25.929688 -72 26.296875 -72 C 27.023438 -72 27.78125 -71.96875 28.5625 -71.90625 C 29.34375 -71.84375 30.097656 -71.8125 30.828125 -71.8125 L 31.734375 -71.8125 C 32.941406 -71.6875 34.117188 -71.59375 35.265625 -71.53125 C 36.421875 -71.476562 37.601562 -71.390625 38.8125 -71.265625 C 39.289062 -71.148438 39.738281 -71.0625 40.15625 -71 C 40.582031 -70.9375 41.039062 -70.90625 41.53125 -70.90625 L 42.796875 -70.90625 C 44.492188 -70.539062 46.15625 -70.390625 47.78125 -70.453125 C 49.414062 -70.515625 51.078125 -70.546875 52.765625 -70.546875 C 53.492188 -70.546875 54.039062 -70.601562 54.40625 -70.71875 C 55.25 -70.96875 56.09375 -71.0625 56.9375 -71 C 57.789062 -70.9375 58.640625 -70.90625 59.484375 -70.90625 C 59.722656 -70.90625 59.960938 -70.875 60.203125 -70.8125 C 60.441406 -70.75 60.6875 -70.71875 60.9375 -70.71875 C 61.539062 -70.476562 62.019531 -70.117188 62.375 -69.640625 C 62.625 -69.148438 62.804688 -68.847656 62.921875 -68.734375 C 63.160156 -68.367188 63.460938 -68.1875 63.828125 -68.1875 C 64.429688 -68.425781 65.003906 -68.394531 65.546875 -68.09375 C 66.097656 -67.789062 66.613281 -67.398438 67.09375 -66.921875 C 68.1875 -66.066406 68.789062 -64.914062 68.90625 -63.46875 C 69.144531 -62.257812 69.175781 -61.019531 69 -59.75 C 68.820312 -58.476562 68.429688 -57.238281 67.828125 -56.03125 C 67.703125 -55.914062 67.609375 -55.734375 67.546875 -55.484375 C 67.484375 -55.242188 67.332031 -55.003906 67.09375 -54.765625 C 66.613281 -54.160156 65.828125 -53.738281 64.734375 -53.5 C 64.492188 -53.5 64.253906 -53.523438 64.015625 -53.578125 C 63.773438 -53.640625 63.53125 -53.734375 63.28125 -53.859375 L 62.921875 -54.21875 C 62.679688 -54.457031 62.195312 -54.457031 61.46875 -54.21875 L 60.75 -53.671875 C 59.90625 -53.191406 58.878906 -52.832031 57.671875 -52.59375 C 56.941406 -52.59375 56.394531 -52.53125 56.03125 -52.40625 C 55.3125 -52.289062 54.617188 -52.234375 53.953125 -52.234375 C 53.285156 -52.234375 52.585938 -52.289062 51.859375 -52.40625 L 50.78125 -52.40625 C 50.289062 -52.289062 49.6875 -52.109375 48.96875 -51.859375 L 45.875 -50.78125 C 45.394531 -50.65625 44.910156 -50.5 44.421875 -50.3125 C 43.941406 -50.132812 43.460938 -49.925781 42.984375 -49.6875 C 41.773438 -49.082031 40.441406 -48.660156 38.984375 -48.421875 C 37.296875 -48.421875 35.847656 -48 34.640625 -47.15625 C 34.515625 -47.03125 34.332031 -46.96875 34.09375 -46.96875 C 33.851562 -46.96875 33.613281 -46.90625 33.375 -46.78125 C 32.644531 -46.539062 32.21875 -46.363281 32.09375 -46.25 C 31.125 -45.394531 29.914062 -44.96875 28.46875 -44.96875 L 28.296875 -44.96875 C 26.960938 -44.601562 25.875 -44 25.03125 -43.15625 C 24.175781 -42.3125 23.75 -41.46875 23.75 -40.625 C 23.75 -39.53125 23.660156 -38.4375 23.484375 -37.34375 C 23.304688 -36.257812 23.15625 -35.175781 23.03125 -34.09375 C 22.90625 -33.363281 22.84375 -32.664062 22.84375 -32 C 22.84375 -31.34375 22.785156 -30.648438 22.671875 -29.921875 C 22.671875 -29.441406 22.671875 -28.988281 22.671875 -28.5625 C 22.671875 -28.132812 22.609375 -27.679688 22.484375 -27.203125 L 22.484375 -25.9375 C 22.484375 -25.082031 22.390625 -24.203125 22.203125 -23.296875 C 22.023438 -22.390625 21.878906 -21.453125 21.765625 -20.484375 C 21.640625 -19.640625 21.210938 -18.734375 20.484375 -17.765625 C 20.003906 -17.046875 19.28125 -16.59375 18.3125 -16.40625 C 17.34375 -16.226562 16.4375 -16.503906 15.59375 -17.234375 Z M 15.59375 -17.234375 "/></g></g></g><g fill="#2b2b2b" fill-opacity="1"><g transform="translate(268.447587, 426.912796)"><g><path d="M 3.390625 -12.78125 C 3.421875 -12.03125 3.570312 -10.523438 3.84375 -8.265625 C 4.125 -6.015625 4.375 -4.46875 4.59375 -3.625 L 6.125 -3.75 C 8.320312 -3.9375 9.632812 -4.570312 10.0625 -5.65625 C 10.28125 -6.1875 10.359375 -6.882812 10.296875 -7.75 C 10.234375 -8.613281 10.046875 -9.300781 9.734375 -9.8125 C 9.441406 -10.320312 8.910156 -10.863281 8.140625 -11.4375 C 7.378906 -12.007812 6.675781 -12.394531 6.03125 -12.59375 C 4.425781 -13.082031 3.546875 -13.191406 3.390625 -12.921875 Z M 0.78125 -12.421875 C 0.695312 -13.296875 0.664062 -13.867188 0.6875 -14.140625 C 0.71875 -14.421875 0.847656 -14.769531 1.078125 -15.1875 C 1.316406 -15.601562 1.546875 -15.859375 1.765625 -15.953125 C 1.984375 -16.046875 2.304688 -16.0625 2.734375 -16 C 3.171875 -15.9375 3.988281 -15.75 5.1875 -15.4375 C 6.394531 -15.101562 7.414062 -14.734375 8.25 -14.328125 C 9.082031 -13.929688 9.867188 -13.375 10.609375 -12.65625 C 11.359375 -11.945312 11.882812 -11.238281 12.1875 -10.53125 C 12.5 -9.832031 12.6875 -8.96875 12.75 -7.9375 C 12.8125 -6.914062 12.8125 -6.234375 12.75 -5.890625 C 12.6875 -5.546875 12.546875 -5.085938 12.328125 -4.515625 C 11.898438 -3.523438 11.222656 -2.769531 10.296875 -2.25 C 9.378906 -1.707031 8.269531 -1.390625 6.96875 -1.296875 C 5.664062 -1.203125 4.785156 -1.015625 4.328125 -0.734375 C 3.878906 -0.460938 3.5 -0.367188 3.1875 -0.453125 C 2.875 -0.535156 2.570312 -0.835938 2.28125 -1.359375 C 2 -1.890625 1.875 -2.445312 1.90625 -3.03125 C 1.9375 -3.625 1.78125 -5.125 1.4375 -7.53125 C 1.0625 -9.925781 0.84375 -11.554688 0.78125 -12.421875 Z M 0.78125 -12.421875 "/></g></g></g><g fill="#2b2b2b" fill-opacity="1"><g transform="translate(293.236777, 426.912796)"><g><path d="M 4.03125 -11.6875 C 3.84375 -11.625 3.75 -11.46875 3.75 -11.21875 C 3.75 -10.976562 3.648438 -9.953125 3.453125 -8.140625 C 5.429688 -8.273438 6.773438 -8.390625 7.484375 -8.484375 C 8.203125 -8.578125 8.648438 -8.59375 8.828125 -8.53125 C 9.015625 -8.46875 9.265625 -8.296875 9.578125 -8.015625 C 9.859375 -7.742188 10 -7.515625 10 -7.328125 C 10 -7.140625 9.863281 -6.898438 9.59375 -6.609375 C 9.320312 -6.347656 9 -6.171875 8.625 -6.078125 C 8.25 -5.984375 7.460938 -5.90625 6.265625 -5.84375 L 3.53125 -5.6875 C 3.476562 -4.738281 3.546875 -3.878906 3.734375 -3.109375 C 3.921875 -2.335938 4.238281 -1.890625 4.6875 -1.765625 C 5.175781 -1.640625 7.828125 -1.492188 12.640625 -1.328125 L 12.9375 -0.703125 C 13.070312 -0.421875 13.140625 -0.21875 13.140625 -0.09375 C 13.140625 0.03125 13.070312 0.191406 12.9375 0.390625 C 12.800781 0.597656 12.703125 0.726562 12.640625 0.78125 C 12.578125 0.84375 12.394531 0.894531 12.09375 0.9375 C 11.800781 0.988281 11.460938 1.015625 11.078125 1.015625 C 10.691406 1.015625 10.03125 1.023438 9.09375 1.046875 C 6.539062 1.046875 4.753906 0.875 3.734375 0.53125 C 2.710938 0.1875 1.984375 -0.46875 1.546875 -1.4375 C 1.335938 -1.976562 1.125 -3.097656 0.90625 -4.796875 C 0.6875 -6.492188 0.640625 -7.453125 0.765625 -7.671875 C 0.890625 -7.898438 1 -8.554688 1.09375 -9.640625 C 1.1875 -10.722656 1.25 -11.445312 1.28125 -11.8125 C 1.3125 -12.1875 1.398438 -12.535156 1.546875 -12.859375 C 1.703125 -13.191406 1.863281 -13.429688 2.03125 -13.578125 C 2.207031 -13.734375 2.492188 -13.875 2.890625 -14 C 3.316406 -14.125 3.742188 -14.21875 4.171875 -14.28125 C 4.609375 -14.34375 5.503906 -14.4375 6.859375 -14.5625 C 8.222656 -14.6875 9.097656 -14.8125 9.484375 -14.9375 C 10.484375 -15.238281 11.207031 -15.191406 11.65625 -14.796875 C 11.90625 -14.578125 12.03125 -14.296875 12.03125 -13.953125 C 12.03125 -13.617188 11.90625 -13.328125 11.65625 -13.078125 C 11.425781 -12.828125 10.769531 -12.59375 9.6875 -12.375 C 8.601562 -12.164062 7.4375 -12.015625 6.1875 -11.921875 C 4.9375 -11.828125 4.21875 -11.75 4.03125 -11.6875 Z M 4.03125 -11.6875 "/></g></g></g><g fill="#2b2b2b" fill-opacity="1"><g transform="translate(318.3737, 426.912796)"><g><path d="M 1.859375 -10.703125 C 1.085938 -12.222656 0.703125 -13.132812 0.703125 -13.4375 C 0.703125 -13.75 0.832031 -14.039062 1.09375 -14.3125 C 1.320312 -14.570312 1.601562 -14.703125 1.9375 -14.703125 C 2.28125 -14.703125 2.5625 -14.578125 2.78125 -14.328125 C 3 -14.078125 3.253906 -13.628906 3.546875 -12.984375 C 3.835938 -12.335938 4.445312 -11.203125 5.375 -9.578125 C 6.300781 -7.972656 7.195312 -6.488281 8.0625 -5.125 C 8.9375 -3.757812 9.410156 -3.109375 9.484375 -3.171875 C 9.648438 -3.554688 10.039062 -4.597656 10.65625 -6.296875 C 11.28125 -8.003906 11.710938 -9.132812 11.953125 -9.6875 C 12.203125 -10.25 12.472656 -10.882812 12.765625 -11.59375 C 13.066406 -12.300781 13.238281 -12.710938 13.28125 -12.828125 C 13.457031 -13.242188 13.726562 -13.539062 14.09375 -13.71875 C 14.46875 -13.90625 14.820312 -13.921875 15.15625 -13.765625 C 15.5 -13.617188 15.691406 -13.347656 15.734375 -12.953125 C 15.785156 -12.566406 15.335938 -11.210938 14.390625 -8.890625 C 13.453125 -6.578125 12.703125 -4.5625 12.140625 -2.84375 C 11.585938 -1.132812 11.1875 -0.0351562 10.9375 0.453125 C 10.695312 0.953125 10.4375 1.257812 10.15625 1.375 C 9.75 1.488281 9.398438 1.4375 9.109375 1.21875 C 8.816406 1.007812 8.476562 0.554688 8.09375 -0.140625 C 7.707031 -0.835938 6.769531 -2.390625 5.28125 -4.796875 C 3.769531 -7.222656 2.628906 -9.191406 1.859375 -10.703125 Z M 1.859375 -10.703125 "/></g></g></g><g fill="#2b2b2b" fill-opacity="1"><g transform="translate(346.106979, 426.912796)"><g><path d="M 4.03125 -11.6875 C 3.84375 -11.625 3.75 -11.46875 3.75 -11.21875 C 3.75 -10.976562 3.648438 -9.953125 3.453125 -8.140625 C 5.429688 -8.273438 6.773438 -8.390625 7.484375 -8.484375 C 8.203125 -8.578125 8.648438 -8.59375 8.828125 -8.53125 C 9.015625 -8.46875 9.265625 -8.296875 9.578125 -8.015625 C 9.859375 -7.742188 10 -7.515625 10 -7.328125 C 10 -7.140625 9.863281 -6.898438 9.59375 -6.609375 C 9.320312 -6.347656 9 -6.171875 8.625 -6.078125 C 8.25 -5.984375 7.460938 -5.90625 6.265625 -5.84375 L 3.53125 -5.6875 C 3.476562 -4.738281 3.546875 -3.878906 3.734375 -3.109375 C 3.921875 -2.335938 4.238281 -1.890625 4.6875 -1.765625 C 5.175781 -1.640625 7.828125 -1.492188 12.640625 -1.328125 L 12.9375 -0.703125 C 13.070312 -0.421875 13.140625 -0.21875 13.140625 -0.09375 C 13.140625 0.03125 13.070312 0.191406 12.9375 0.390625 C 12.800781 0.597656 12.703125 0.726562 12.640625 0.78125 C 12.578125 0.84375 12.394531 0.894531 12.09375 0.9375 C 11.800781 0.988281 11.460938 1.015625 11.078125 1.015625 C 10.691406 1.015625 10.03125 1.023438 9.09375 1.046875 C 6.539062 1.046875 4.753906 0.875 3.734375 0.53125 C 2.710938 0.1875 1.984375 -0.46875 1.546875 -1.4375 C 1.335938 -1.976562 1.125 -3.097656 0.90625 -4.796875 C 0.6875 -6.492188 0.640625 -7.453125 0.765625 -7.671875 C 0.890625 -7.898438 1 -8.554688 1.09375 -9.640625 C 1.1875 -10.722656 1.25 -11.445312 1.28125 -11.8125 C 1.3125 -12.1875 1.398438 -12.535156 1.546875 -12.859375 C 1.703125 -13.191406 1.863281 -13.429688 2.03125 -13.578125 C 2.207031 -13.734375 2.492188 -13.875 2.890625 -14 C 3.316406 -14.125 3.742188 -14.21875 4.171875 -14.28125 C 4.609375 -14.34375 5.503906 -14.4375 6.859375 -14.5625 C 8.222656 -14.6875 9.097656 -14.8125 9.484375 -14.9375 C 10.484375 -15.238281 11.207031 -15.191406 11.65625 -14.796875 C 11.90625 -14.578125 12.03125 -14.296875 12.03125 -13.953125 C 12.03125 -13.617188 11.90625 -13.328125 11.65625 -13.078125 C 11.425781 -12.828125 10.769531 -12.59375 9.6875 -12.375 C 8.601562 -12.164062 7.4375 -12.015625 6.1875 -11.921875 C 4.9375 -11.828125 4.21875 -11.75 4.03125 -11.6875 Z M 4.03125 -11.6875 "/></g></g></g><g fill="#2b2b2b" fill-opacity="1"><g transform="translate(371.243897, 426.912796)"><g><path d="M 1.234375 -14.125 C 1.554688 -14.351562 1.804688 -14.46875 1.984375 -14.46875 C 2.171875 -14.46875 2.394531 -14.375 2.65625 -14.1875 C 2.925781 -14 3.09375 -13.78125 3.15625 -13.53125 C 3.21875 -13.289062 3.253906 -12.632812 3.265625 -11.5625 C 3.285156 -10.5 3.351562 -9.070312 3.46875 -7.28125 C 3.59375 -5.488281 3.75 -4.226562 3.9375 -3.5 C 7.800781 -3.394531 10.175781 -3.265625 11.0625 -3.109375 C 11.601562 -2.984375 11.90625 -2.625 11.96875 -2.03125 C 12.03125 -1.445312 11.804688 -1.046875 11.296875 -0.828125 C 10.941406 -0.679688 9.539062 -0.664062 7.09375 -0.78125 C 4.65625 -0.90625 3.234375 -1.0625 2.828125 -1.25 C 2.117188 -1.601562 1.640625 -2.320312 1.390625 -3.40625 C 1.140625 -4.488281 0.953125 -6.613281 0.828125 -9.78125 L 0.703125 -13.75 Z M 1.234375 -14.125 "/></g></g></g><g fill="#2b2b2b" fill-opacity="1"><g transform="translate(395.198554, 426.912796)"><g><path d="M 8.34375 -11.015625 C 7.726562 -11.335938 7.328125 -11.503906 7.140625 -11.515625 C 6.953125 -11.535156 6.617188 -11.4375 6.140625 -11.21875 C 5.171875 -10.820312 4.484375 -10.328125 4.078125 -9.734375 C 3.679688 -9.148438 3.421875 -8.316406 3.296875 -7.234375 C 3.171875 -6.148438 3.429688 -5.253906 4.078125 -4.546875 C 4.734375 -3.835938 5.613281 -3.46875 6.71875 -3.4375 C 7.375 -3.4375 7.945312 -3.554688 8.4375 -3.796875 C 8.9375 -4.046875 9.429688 -4.4375 9.921875 -4.96875 C 10.421875 -5.519531 10.753906 -6.070312 10.921875 -6.625 C 11.085938 -7.1875 11.070312 -7.675781 10.875 -8.09375 C 10.226562 -9.507812 9.382812 -10.484375 8.34375 -11.015625 Z M 0.703125 -6.796875 C 0.703125 -8.492188 1.164062 -9.96875 2.09375 -11.21875 C 3.019531 -12.46875 4.273438 -13.34375 5.859375 -13.84375 C 6.398438 -14.007812 6.914062 -14.050781 7.40625 -13.96875 C 7.90625 -13.894531 8.519531 -13.691406 9.25 -13.359375 C 10.46875 -12.796875 11.476562 -11.925781 12.28125 -10.75 C 13.09375 -9.582031 13.503906 -8.394531 13.515625 -7.1875 C 13.503906 -5.976562 13.019531 -4.769531 12.0625 -3.5625 C 11.101562 -2.363281 9.957031 -1.546875 8.625 -1.109375 C 7.289062 -0.710938 6.003906 -0.710938 4.765625 -1.109375 C 3.535156 -1.515625 2.550781 -2.226562 1.8125 -3.25 C 1.070312 -4.269531 0.703125 -5.453125 0.703125 -6.796875 Z M 0.703125 -6.796875 "/></g></g></g><g fill="#2b2b2b" fill-opacity="1"><g transform="translate(420.706385, 426.912796)"><g><path d="M 3.265625 -13.1875 C 3.265625 -9.320312 3.328125 -7.253906 3.453125 -6.984375 C 3.742188 -6.773438 4.625 -6.882812 6.09375 -7.3125 C 7.5625 -7.75 8.398438 -8.140625 8.609375 -8.484375 C 8.804688 -8.773438 8.578125 -9.398438 7.921875 -10.359375 C 7.273438 -11.316406 6.640625 -11.984375 6.015625 -12.359375 C 5.398438 -12.734375 4.484375 -13.007812 3.265625 -13.1875 Z M 1.875 -15.53125 L 3.84375 -15.53125 C 4.957031 -15.46875 5.914062 -15.25 6.71875 -14.875 C 7.53125 -14.507812 8.351562 -13.847656 9.1875 -12.890625 C 10.019531 -11.929688 10.601562 -10.941406 10.9375 -9.921875 C 11.25 -8.921875 11.234375 -8.070312 10.890625 -7.375 C 10.554688 -6.675781 9.800781 -6.054688 8.625 -5.515625 C 7.445312 -4.972656 6.15625 -4.625 4.75 -4.46875 L 3.40625 -4.3125 L 3.53125 -2.453125 C 3.59375 -1.648438 3.609375 -1.109375 3.578125 -0.828125 C 3.546875 -0.554688 3.425781 -0.316406 3.21875 -0.109375 C 2.894531 0.273438 2.546875 0.4375 2.171875 0.375 C 1.804688 0.3125 1.492188 0.0078125 1.234375 -0.53125 C 1.054688 -0.84375 0.90625 -3.191406 0.78125 -7.578125 C 0.664062 -11.972656 0.679688 -14.363281 0.828125 -14.75 C 0.859375 -14.84375 0.90625 -14.921875 0.96875 -14.984375 C 1.03125 -15.046875 1.09375 -15.113281 1.15625 -15.1875 C 1.21875 -15.257812 1.296875 -15.3125 1.390625 -15.34375 C 1.484375 -15.375 1.550781 -15.40625 1.59375 -15.4375 C 1.65625 -15.5 1.75 -15.53125 1.875 -15.53125 Z M 1.875 -15.53125 "/></g></g></g><g fill="#2b2b2b" fill-opacity="1"><g transform="translate(443.849659, 426.912796)"><g><path d="M 4.03125 -11.6875 C 3.84375 -11.625 3.75 -11.46875 3.75 -11.21875 C 3.75 -10.976562 3.648438 -9.953125 3.453125 -8.140625 C 5.429688 -8.273438 6.773438 -8.390625 7.484375 -8.484375 C 8.203125 -8.578125 8.648438 -8.59375 8.828125 -8.53125 C 9.015625 -8.46875 9.265625 -8.296875 9.578125 -8.015625 C 9.859375 -7.742188 10 -7.515625 10 -7.328125 C 10 -7.140625 9.863281 -6.898438 9.59375 -6.609375 C 9.320312 -6.347656 9 -6.171875 8.625 -6.078125 C 8.25 -5.984375 7.460938 -5.90625 6.265625 -5.84375 L 3.53125 -5.6875 C 3.476562 -4.738281 3.546875 -3.878906 3.734375 -3.109375 C 3.921875 -2.335938 4.238281 -1.890625 4.6875 -1.765625 C 5.175781 -1.640625 7.828125 -1.492188 12.640625 -1.328125 L 12.9375 -0.703125 C 13.070312 -0.421875 13.140625 -0.21875 13.140625 -0.09375 C 13.140625 0.03125 13.070312 0.191406 12.9375 0.390625 C 12.800781 0.597656 12.703125 0.726562 12.640625 0.78125 C 12.578125 0.84375 12.394531 0.894531 12.09375 0.9375 C 11.800781 0.988281 11.460938 1.015625 11.078125 1.015625 C 10.691406 1.015625 10.03125 1.023438 9.09375 1.046875 C 6.539062 1.046875 4.753906 0.875 3.734375 0.53125 C 2.710938 0.1875 1.984375 -0.46875 1.546875 -1.4375 C 1.335938 -1.976562 1.125 -3.097656 0.90625 -4.796875 C 0.6875 -6.492188 0.640625 -7.453125 0.765625 -7.671875 C 0.890625 -7.898438 1 -8.554688 1.09375 -9.640625 C 1.1875 -10.722656 1.25 -11.445312 1.28125 -11.8125 C 1.3125 -12.1875 1.398438 -12.535156 1.546875 -12.859375 C 1.703125 -13.191406 1.863281 -13.429688 2.03125 -13.578125 C 2.207031 -13.734375 2.492188 -13.875 2.890625 -14 C 3.316406 -14.125 3.742188 -14.21875 4.171875 -14.28125 C 4.609375 -14.34375 5.503906 -14.4375 6.859375 -14.5625 C 8.222656 -14.6875 9.097656 -14.8125 9.484375 -14.9375 C 10.484375 -15.238281 11.207031 -15.191406 11.65625 -14.796875 C 11.90625 -14.578125 12.03125 -14.296875 12.03125 -13.953125 C 12.03125 -13.617188 11.90625 -13.328125 11.65625 -13.078125 C 11.425781 -12.828125 10.769531 -12.59375 9.6875 -12.375 C 8.601562 -12.164062 7.4375 -12.015625 6.1875 -11.921875 C 4.9375 -11.828125 4.21875 -11.75 4.03125 -11.6875 Z M 4.03125 -11.6875 "/></g></g></g><g fill="#2b2b2b" fill-opacity="1"><g transform="translate(468.986577, 426.912796)"><g><path d="M 7.046875 -11.5 C 6.148438 -11.96875 5.445312 -12.203125 4.9375 -12.203125 C 4.425781 -12.203125 3.851562 -12.046875 3.21875 -11.734375 C 3.34375 -9.242188 3.46875 -7.867188 3.59375 -7.609375 C 3.695312 -7.484375 4.273438 -7.539062 5.328125 -7.78125 C 6.378906 -8.03125 7.210938 -8.328125 7.828125 -8.671875 C 8.453125 -9.015625 8.84375 -9.316406 9 -9.578125 C 9.15625 -9.835938 9.09375 -10.109375 8.8125 -10.390625 C 8.53125 -10.671875 7.941406 -11.039062 7.046875 -11.5 Z M 10.5 1.5 C 10.050781 1.5 9.679688 1.304688 9.390625 0.921875 C 9.191406 0.679688 8.3125 -0.15625 6.75 -1.59375 C 5.1875 -3.03125 4.28125 -3.828125 4.03125 -3.984375 C 3.9375 -4.046875 3.90625 -3.410156 3.9375 -2.078125 C 3.96875 -0.753906 3.957031 0.03125 3.90625 0.28125 C 3.863281 0.53125 3.710938 0.738281 3.453125 0.90625 C 3.097656 1.164062 2.734375 1.21875 2.359375 1.0625 C 1.992188 0.90625 1.765625 0.648438 1.671875 0.296875 C 1.578125 -0.0546875 1.484375 -1.003906 1.390625 -2.546875 C 1.296875 -4.097656 1.132812 -5.039062 0.90625 -5.375 C 0.6875 -5.71875 0.640625 -6.035156 0.765625 -6.328125 C 0.890625 -6.617188 0.894531 -7.800781 0.78125 -9.875 C 0.675781 -11.945312 0.65625 -13.09375 0.71875 -13.3125 C 0.789062 -13.707031 0.972656 -14.015625 1.265625 -14.234375 C 1.566406 -14.453125 1.898438 -14.515625 2.265625 -14.421875 C 2.640625 -14.328125 3 -14.34375 3.34375 -14.46875 C 4.019531 -14.75 4.835938 -14.796875 5.796875 -14.609375 C 6.753906 -14.421875 7.820312 -13.988281 9 -13.3125 C 10.175781 -12.632812 10.972656 -11.921875 11.390625 -11.171875 C 11.804688 -10.429688 11.804688 -9.601562 11.390625 -8.6875 C 11.085938 -8.0625 10.644531 -7.515625 10.0625 -7.046875 C 9.476562 -6.585938 8.617188 -6.15625 7.484375 -5.75 L 6.40625 -5.328125 C 9.382812 -2.742188 11.097656 -1.09375 11.546875 -0.375 C 11.734375 -0.03125 11.828125 0.21875 11.828125 0.375 C 11.828125 0.53125 11.71875 0.757812 11.5 1.0625 C 11.28125 1.375 10.945312 1.519531 10.5 1.5 Z M 10.5 1.5 "/></g></g></g></svg>