<svg xmlns="http://www.w3.org/2000/svg" xmlns:xlink="http://www.w3.org/1999/xlink" width="1000" zoomAndPan="magnify" viewBox="0 0 750 749.999995" height="1000" preserveAspectRatio="xMidYMid meet" version="1.0"><defs><g/><clipPath id="76a81d083c"><path d="M 236.109375 409 L 257 409 L 257 440 L 236.109375 440 Z M 236.109375 409 " clip-rule="nonzero"/></clipPath><clipPath id="c820b84992"><path d="M 294 553 L 332 553 L 332 589.660156 L 294 589.660156 Z M 294 553 " clip-rule="nonzero"/></clipPath><clipPath id="5d5ceec278"><path d="M 270 556 L 294 556 L 294 589.660156 L 270 589.660156 Z M 270 556 " clip-rule="nonzero"/></clipPath><clipPath id="14d874cd3e"><path d="M 341.226562 163 L 513.726562 163 L 513.726562 270.589844 L 341.226562 270.589844 Z M 341.226562 163 " clip-rule="nonzero"/></clipPath></defs><rect x="-75" width="900" fill="#ffffff" y="-74.999999" height="899.999994" fill-opacity="1"/><rect x="-75" width="900" fill="#242323" y="-74.999999" height="899.999994" fill-opacity="1"/><path fill="#ffffff" d="M 388.957031 446.183594 C 388.027344 445.25 375.445312 447.582031 367.523438 455.035156 C 365.191406 457.367188 365.191406 457.832031 364.726562 461.5625 C 363.792969 480.667969 355.871094 494.648438 342.824219 505.367188 C 334.4375 512.355469 338.164062 524.472656 346.550781 524.472656 C 362.863281 524.9375 363.328125 518.414062 365.660156 511.890625 C 371.25 496.046875 377.773438 476.9375 387.09375 469.949219 C 395.484375 463.890625 395.484375 448.046875 388.957031 446.183594 Z M 388.957031 446.183594 " fill-opacity="1" fill-rule="nonzero"/><path fill="#ffffff" d="M 385.695312 441.523438 C 377.773438 441.988281 363.792969 448.980469 361 455.96875 C 357.738281 449.910156 351.679688 444.320312 349.347656 443.386719 C 349.8125 440.589844 353.542969 426.144531 354.007812 424.28125 C 379.171875 445.714844 385.695312 436.863281 385.695312 441.523438 Z M 385.695312 441.523438 " fill-opacity="1" fill-rule="nonzero"/><path fill="#ffffff" d="M 294.824219 414.027344 C 294.359375 414.492188 294.359375 414.960938 293.894531 415.890625 C 288.765625 414.960938 287.835938 411.699219 289.699219 407.96875 C 290.164062 409.367188 292.960938 412.628906 294.824219 414.027344 Z M 294.824219 414.027344 " fill-opacity="1" fill-rule="nonzero"/><path fill="#ffffff" d="M 322.320312 425.679688 C 322.320312 427.078125 322.320312 428.007812 322.320312 429.40625 C 322.320312 429.40625 321.855469 429.40625 321.855469 428.941406 C 321.855469 428.472656 322.320312 426.144531 322.320312 425.679688 Z M 322.320312 425.679688 " fill-opacity="1" fill-rule="nonzero"/><path fill="#ffffff" d="M 327.910156 410.300781 C 326.515625 412.164062 325.117188 414.960938 325.117188 417.757812 C 324.648438 418.6875 323.71875 421.019531 323.25 421.949219 C 320.457031 430.804688 326.515625 419.152344 317.660156 410.765625 C 318.125 410.300781 318.589844 409.832031 318.589844 409.367188 C 319.988281 409.367188 321.386719 409.832031 322.785156 409.367188 C 323.25 408.902344 322.785156 408.902344 325.582031 407.96875 C 326.046875 408.4375 326.515625 409.367188 327.910156 410.300781 Z M 327.910156 410.300781 " fill-opacity="1" fill-rule="nonzero"/><path fill="#ffffff" d="M 322.785156 530.0625 C 322.320312 530.53125 321.386719 531.929688 320.921875 532.859375 C 318.125 541.25 307.40625 545.441406 302.28125 545.441406 C 299.019531 550.570312 300.417969 551.035156 299.484375 552.898438 C 305.542969 560.355469 307.40625 550.570312 320.921875 551.035156 C 327.910156 551.035156 332.570312 549.636719 333.96875 547.304688 C 336.300781 543.578125 340.492188 538.917969 342.359375 535.191406 C 341.425781 534.722656 340.960938 534.722656 340.027344 534.722656 C 329.308594 531.460938 326.980469 533.792969 322.785156 530.0625 Z M 322.785156 530.0625 " fill-opacity="1" fill-rule="nonzero"/><path fill="#ffffff" d="M 296.6875 551.035156 C 296.6875 549.636719 297.15625 548.238281 298.085938 545.910156 C 298.554688 545.441406 298.554688 544.976562 299.019531 544.042969 C 297.15625 543.113281 296.222656 541.25 296.222656 539.382812 C 287.367188 539.382812 285.503906 539.851562 280.378906 538.453125 C 279.914062 545.910156 271.992188 549.636719 271.523438 550.101562 C 279.445312 562.683594 296.6875 556.160156 296.6875 551.035156 Z M 296.6875 551.035156 " fill-opacity="1" fill-rule="nonzero"/><path fill="#ffffff" d="M 274.320312 536.589844 C 274.320312 535.191406 271.523438 532.859375 271.058594 532.394531 C 268.261719 530.0625 266.863281 528.667969 266.398438 525.402344 C 265.933594 525.402344 265.933594 525.402344 265 525.402344 C 265 530.0625 265 544.976562 267.796875 548.238281 C 271.523438 544.976562 274.320312 541.25 274.320312 536.589844 Z M 274.320312 536.589844 " fill-opacity="1" fill-rule="nonzero"/><path fill="#ffffff" d="M 295.757812 519.347656 C 292.496094 520.742188 286.4375 521.210938 280.378906 519.347656 C 278.515625 523.539062 273.855469 524.472656 269.195312 524.9375 C 269.660156 526.800781 269.660156 527.269531 272.921875 530.0625 C 279.445312 535.65625 288.765625 538.453125 299.484375 536.589844 C 300.417969 532.394531 299.484375 525.402344 296.6875 519.8125 C 296.6875 519.347656 296.222656 519.347656 295.757812 519.347656 Z M 295.757812 519.347656 " fill-opacity="1" fill-rule="nonzero"/><path fill="#ffffff" d="M 348.417969 529.132812 C 347.484375 531.929688 346.550781 533.328125 343.757812 532.394531 C 334.902344 529.132812 324.648438 530.996094 323.25 525.871094 C 323.25 525.402344 320.457031 522.609375 322.785156 517.949219 C 323.71875 516.550781 325.117188 515.152344 326.515625 514.6875 C 331.175781 516.082031 333.039062 515.617188 334.902344 515.617188 C 334.902344 516.550781 335.367188 517.015625 335.367188 517.949219 L 335.367188 518.414062 L 335.832031 518.878906 C 336.765625 522.140625 338.628906 525.402344 344.222656 527.734375 C 344.6875 527.269531 347.019531 528.667969 348.417969 529.132812 Z M 348.417969 529.132812 " fill-opacity="1" fill-rule="nonzero"/><path fill="#ffffff" d="M 302.746094 537.054688 C 302.746094 537.984375 301.816406 541.714844 301.816406 541.714844 C 317.195312 541.714844 325.117188 524.9375 312.066406 517.480469 C 309.269531 517.480469 302.28125 517.480469 299.953125 515.617188 C 299.953125 516.082031 299.484375 516.082031 299.019531 516.550781 C 301.816406 521.675781 303.214844 528.667969 302.746094 535.191406 C 302.746094 535.65625 302.746094 537.054688 302.746094 537.054688 Z M 302.746094 537.054688 " fill-opacity="1" fill-rule="nonzero"/><path fill="#ffffff" d="M 314.398438 412.628906 C 311.601562 407.039062 295.757812 409.367188 295.757812 423.347656 C 295.757812 423.347656 307.40625 472.746094 302.28125 493.25 C 300.882812 498.839844 299.953125 502.570312 299.953125 505.832031 C 300.882812 508.628906 301.347656 511.421875 300.882812 513.289062 C 302.28125 514.6875 304.613281 514.21875 307.40625 514.6875 C 311.601562 515.152344 322.320312 516.082031 315.328125 497.910156 C 309.738281 482.53125 318.589844 424.28125 318.589844 422.882812 C 319.058594 418.6875 317.195312 414.960938 314.398438 412.628906 Z M 314.398438 412.628906 " fill-opacity="1" fill-rule="nonzero"/><path fill="#ffffff" d="M 266.863281 439.191406 C 266.863281 439.191406 284.574219 480.203125 282.707031 498.839844 C 280.84375 519.347656 283.175781 517.015625 289.699219 517.015625 C 299.953125 516.550781 299.484375 510.492188 294.824219 501.171875 C 287.835938 488.589844 287.367188 436.863281 286.902344 435.929688 C 284.574219 420.085938 264.535156 424.28125 266.863281 439.191406 Z M 266.863281 439.191406 " fill-opacity="1" fill-rule="nonzero"/><path fill="#ffffff" d="M 270.125 521.675781 C 273.855469 521.210938 283.175781 519.8125 273.855469 506.765625 C 265.933594 496.046875 261.273438 449.910156 260.804688 448.980469 C 257.542969 435 237.507812 440.125 240.769531 453.640625 C 240.769531 453.640625 261.738281 488.589844 261.273438 505.832031 C 261.738281 524.9375 264.070312 522.609375 270.125 521.675781 Z M 270.125 521.675781 " fill-opacity="1" fill-rule="nonzero"/><path fill="#ffffff" d="M 339.097656 496.046875 C 339.5625 497.910156 340.492188 503.96875 340.027344 505.367188 C 335.832031 507.695312 335.367188 511.890625 334.902344 512.355469 C 332.570312 512.820312 330.242188 512.355469 328.84375 511.890625 C 321.855469 510.027344 318.589844 511.890625 326.046875 489.988281 C 333.039062 469.949219 327.910156 419.621094 327.910156 419.621094 C 328.378906 414.492188 331.175781 410.300781 335.367188 408.4375 C 344.222656 404.707031 351.679688 412.628906 350.746094 421.949219 C 350.746094 423.347656 334.902344 480.203125 339.097656 496.046875 Z M 339.097656 496.046875 " fill-opacity="1" fill-rule="nonzero"/><path fill="#ffffff" d="M 307.875 368.359375 C 299.484375 368.359375 292.496094 374.882812 292.496094 383.269531 C 292.496094 386.066406 292.496094 405.640625 293.425781 407.503906 C 294.824219 409.367188 295.757812 410.765625 297.621094 411.699219 C 301.816406 407.039062 308.804688 405.171875 314.863281 408.902344 C 316.726562 407.503906 318.125 401.910156 317.195312 399.582031 C 316.261719 396.785156 313 392.589844 309.738281 389.328125 C 317.195312 394.921875 322.320312 389.796875 321.855469 389.796875 C 329.777344 382.339844 319.058594 368.359375 307.875 368.359375 Z M 307.875 368.359375 " fill-opacity="1" fill-rule="nonzero"/><path fill="#ffffff" d="M 275.253906 392.125 C 268.261719 392.125 262.203125 397.71875 262.203125 405.171875 C 262.203125 408.902344 262.203125 413.097656 262.671875 418.222656 C 262.671875 421.949219 261.738281 421.019531 264.535156 424.746094 C 265 425.210938 265.464844 425.679688 266.398438 426.144531 C 269.660156 422.417969 275.253906 421.019531 280.378906 423.8125 C 281.777344 422.882812 282.242188 420.550781 282.242188 418.6875 C 282.707031 415.425781 278.515625 410.765625 276.183594 407.96875 C 283.640625 414.027344 292.960938 405.640625 285.503906 396.785156 C 280.84375 392.125 274.785156 392.125 275.253906 392.125 Z M 275.253906 392.125 " fill-opacity="1" fill-rule="nonzero"/><g clip-path="url(#76a81d083c)"><path fill="#ffffff" d="M 254.28125 413.097656 C 251.019531 409.832031 246.359375 409.832031 246.828125 409.832031 C 240.769531 409.832031 236.109375 414.960938 236.574219 421.019531 C 236.574219 421.949219 237.972656 435.929688 238.902344 437.328125 C 239.835938 438.261719 240.769531 439.660156 241.699219 439.660156 C 244.03125 435.929688 248.222656 434.53125 252.417969 436.394531 C 252.882812 435.929688 253.351562 435 253.351562 434.066406 C 253.816406 430.804688 254.75 429.40625 247.292969 422.882812 C 250.554688 425.210938 253.351562 424.28125 255.214844 422.417969 C 257.542969 420.550781 257.542969 416.824219 254.28125 413.097656 Z M 254.28125 413.097656 " fill-opacity="1" fill-rule="nonzero"/></g><path fill="#ffffff" d="M 330.707031 407.96875 C 335.367188 403.777344 342.359375 403.308594 347.019531 406.105469 C 348.882812 404.242188 350.28125 399.582031 349.8125 397.25 C 348.417969 390.726562 341.890625 371.621094 346.550781 357.640625 C 351.679688 341.796875 330.707031 342.730469 331.175781 351.117188 C 331.175781 352.046875 336.765625 378.609375 326.980469 399.117188 C 325.117188 402.378906 328.378906 407.039062 330.707031 407.96875 Z M 330.707031 407.96875 " fill-opacity="1" fill-rule="nonzero"/><path fill="#ffffff" d="M 339.097656 341.796875 C 353.542969 336.671875 340.027344 335.738281 342.824219 316.167969 C 343.289062 314.300781 342.824219 312.902344 341.890625 311.972656 C 339.5625 309.640625 334.902344 311.507812 335.367188 316.167969 C 336.765625 328.28125 330.707031 332.941406 331.640625 336.671875 C 332.570312 339.933594 335.832031 341.796875 339.097656 341.796875 Z M 339.097656 341.796875 " fill-opacity="1" fill-rule="nonzero"/><path fill="#ffffff" d="M 341.425781 308.710938 C 344.6875 305.449219 341.425781 301.253906 343.289062 295.195312 C 344.6875 290.070312 338.628906 290.070312 339.097656 294.730469 C 339.097656 294.730469 338.628906 303.582031 335.832031 308.242188 C 335.367188 309.175781 335.367188 309.640625 335.367188 309.640625 C 337.230469 308.242188 339.5625 307.777344 341.425781 308.710938 Z M 341.425781 308.710938 " fill-opacity="1" fill-rule="nonzero"/><g clip-path="url(#c820b84992)"><path fill="#ffffff" d="M 325.582031 589.246094 L 306.476562 589.246094 C 305.078125 585.054688 292.496094 563.617188 295.292969 557.09375 C 295.757812 556.625 296.6875 556.160156 297.15625 555.230469 C 304.613281 564.082031 308.339844 553.832031 319.523438 553.832031 C 320.457031 553.832031 324.183594 553.832031 327.910156 553.363281 C 336.765625 569.207031 327.910156 583.65625 325.582031 589.246094 Z M 325.582031 589.246094 " fill-opacity="1" fill-rule="nonzero"/></g><g clip-path="url(#5d5ceec278)"><path fill="#ffffff" d="M 284.105469 589.246094 L 271.058594 589.246094 C 270.125 572.003906 272.457031 558.023438 272.457031 556.625 C 278.980469 561.753906 287.835938 561.285156 293.894531 558.023438 C 293.894531 558.957031 286.902344 570.140625 284.105469 589.246094 Z M 284.105469 589.246094 " fill-opacity="1" fill-rule="nonzero"/></g><g clip-path="url(#14d874cd3e)"><path fill="#ffffff" d="M 513.671875 189.726562 C 513.679688 189.878906 513.679688 190.03125 513.671875 190.1875 L 510.023438 243.6875 L 510.023438 243.898438 C 510.023438 259.128906 502.066406 267.246094 486.957031 267.246094 L 389.28125 258.25 C 385.539062 257.941406 370.902344 256.089844 367.660156 255.367188 C 366.773438 255.167969 365.953125 255.332031 365.207031 255.855469 C 357.578125 261.3125 349.652344 266.296875 341.429688 270.8125 C 343.917969 265.6875 345.839844 260.359375 347.195312 254.828125 C 348.847656 248.382812 350.078125 241.855469 350.878906 235.25 C 350.917969 234.871094 350.886719 234.496094 350.792969 234.125 C 350.121094 231.5 349.800781 228.828125 349.832031 226.117188 L 349.832031 218.746094 C 349.832031 199.453125 349.832031 197.339844 364.855469 190.996094 L 391.738281 184.792969 L 444.800781 172.554688 L 482.796875 163.789062 C 497.929688 160.300781 513.601562 174.953125 513.671875 189.726562 Z M 513.671875 189.726562 " fill-opacity="1" fill-rule="nonzero"/></g><g fill="#000000" fill-opacity="1"><g transform="translate(376.760374, 230.062334)"><g><path d="M 15.929688 -27.875 C 12.75 -27.875 9.539062 -26.078125 8.476562 -22.832031 C 8.285156 -22.191406 8.15625 -21.582031 8.15625 -20.972656 C 8.15625 -18.175781 10.085938 -16.058594 11.914062 -13.808594 C 13.425781 -11.980469 14.835938 -10.46875 14.835938 -8.542969 C 14.835938 -5.941406 12.558594 -4.367188 10.46875 -4.367188 C 8.15625 -4.398438 6.328125 -5.75 6.359375 -8.027344 C 6.390625 -8.1875 6.390625 -8.351562 6.390625 -8.476562 C 6.390625 -10.308594 5.171875 -11.144531 3.917969 -11.144531 C 2.632812 -11.144531 1.316406 -10.210938 1.316406 -8.414062 C 1.15625 -3.308594 5.652344 0 10.5 0 C 15.640625 0 20.296875 -4.046875 20.296875 -8.992188 C 20.296875 -12.332031 18.082031 -14.902344 16.121094 -17.085938 L 15.738281 -17.503906 C 14.515625 -18.820312 13.550781 -20.265625 13.550781 -21.453125 C 13.550781 -22.867188 15.191406 -23.476562 15.929688 -23.445312 C 16.925781 -23.378906 17.632812 -22.671875 18.175781 -21.582031 C 18.59375 -20.585938 19.429688 -20.136719 20.296875 -20.136719 C 21.453125 -20.136719 22.609375 -21.003906 22.609375 -22.480469 C 22.609375 -22.800781 22.578125 -23.089844 22.480469 -23.445312 C 21.742188 -25.949219 19.203125 -27.875 15.929688 -27.875 Z M 15.929688 -27.875 "/></g></g></g><g fill="#000000" fill-opacity="1"><g transform="translate(398.594796, 230.062334)"><g><path d="M 8.640625 -21.804688 C 10.085938 -21.804688 11.273438 -22.996094 11.273438 -24.472656 C 11.273438 -25.917969 10.085938 -27.074219 8.640625 -27.074219 C 7.195312 -27.074219 6.003906 -25.917969 6.003906 -24.472656 C 6.003906 -22.996094 7.195312 -21.804688 8.640625 -21.804688 Z M 4.304688 -5.425781 L 7.835938 -15.511719 C 7.964844 -15.929688 8.125 -16.378906 8.125 -16.699219 C 8.125 -18.113281 7.066406 -18.851562 5.972656 -18.851562 C 4.976562 -18.851562 3.917969 -18.144531 3.402344 -16.636719 C 2.375 -13.617188 1.027344 -9.796875 0 -6.808594 C -0.191406 -6.167969 -0.449219 -5.300781 -0.449219 -4.753906 C -0.449219 -1.734375 2.054688 0 5.011719 0 C 8.15625 0 11.625 -1.925781 13.875 -8.574219 C 13.9375 -8.765625 13.96875 -8.960938 13.96875 -9.152344 C 13.96875 -10.148438 13.007812 -10.757812 12.042969 -10.757812 C 11.175781 -10.757812 10.308594 -10.308594 9.921875 -9.3125 C 8.414062 -5.136719 6.710938 -3.820312 5.425781 -3.820312 C 4.6875 -3.820312 4.207031 -4.304688 4.207031 -4.914062 C 4.207031 -5.074219 4.238281 -5.234375 4.304688 -5.425781 Z M 4.304688 -5.425781 "/></g></g></g><g fill="#000000" fill-opacity="1"><g transform="translate(407.456997, 230.062334)"><g><path d="M 4.398438 -5.234375 L 11.144531 -24.761719 C 11.273438 -25.144531 11.335938 -25.53125 11.335938 -25.851562 C 11.335938 -27.074219 10.179688 -27.875 9.21875 -27.875 C 7.996094 -27.875 7.195312 -27.203125 6.679688 -25.757812 L 0 -6.679688 C -0.257812 -5.941406 -0.386719 -5.265625 -0.386719 -4.59375 C -0.386719 -1.636719 2.054688 0 4.882812 0 C 7.933594 0 11.753906 -1.894531 14.003906 -8.574219 C 14.066406 -8.800781 14.097656 -9.023438 14.097656 -9.21875 C 14.097656 -10.246094 13.199219 -10.984375 12.203125 -10.984375 C 11.402344 -10.984375 10.535156 -10.5 10.085938 -9.3125 C 8.640625 -5.460938 6.777344 -3.820312 5.265625 -3.820312 C 4.625 -3.820312 4.269531 -4.207031 4.269531 -4.6875 C 4.269531 -4.816406 4.335938 -5.042969 4.398438 -5.234375 Z M 4.398438 -5.234375 "/></g></g></g><g fill="#000000" fill-opacity="1"><g transform="translate(416.415535, 230.062334)"><g><path d="M 8.640625 -21.804688 C 10.085938 -21.804688 11.273438 -22.996094 11.273438 -24.472656 C 11.273438 -25.917969 10.085938 -27.074219 8.640625 -27.074219 C 7.195312 -27.074219 6.003906 -25.917969 6.003906 -24.472656 C 6.003906 -22.996094 7.195312 -21.804688 8.640625 -21.804688 Z M 4.304688 -5.425781 L 7.835938 -15.511719 C 7.964844 -15.929688 8.125 -16.378906 8.125 -16.699219 C 8.125 -18.113281 7.066406 -18.851562 5.972656 -18.851562 C 4.976562 -18.851562 3.917969 -18.144531 3.402344 -16.636719 C 2.375 -13.617188 1.027344 -9.796875 0 -6.808594 C -0.191406 -6.167969 -0.449219 -5.300781 -0.449219 -4.753906 C -0.449219 -1.734375 2.054688 0 5.011719 0 C 8.15625 0 11.625 -1.925781 13.875 -8.574219 C 13.9375 -8.765625 13.96875 -8.960938 13.96875 -9.152344 C 13.96875 -10.148438 13.007812 -10.757812 12.042969 -10.757812 C 11.175781 -10.757812 10.308594 -10.308594 9.921875 -9.3125 C 8.414062 -5.136719 6.710938 -3.820312 5.425781 -3.820312 C 4.6875 -3.820312 4.207031 -4.304688 4.207031 -4.914062 C 4.207031 -5.074219 4.238281 -5.234375 4.304688 -5.425781 Z M 4.304688 -5.425781 "/></g></g></g><g fill="#000000" fill-opacity="1"><g transform="translate(425.277736, 230.062334)"><g><path d="M 15.542969 -9.539062 C 13.90625 -5.394531 10.789062 -3.855469 8.351562 -3.855469 C 6.132812 -3.855469 4.722656 -5.136719 4.722656 -6.777344 C 4.722656 -7.128906 4.785156 -7.515625 4.914062 -7.933594 L 6.871094 -13.488281 C 7.160156 -14.257812 7.804688 -14.742188 8.316406 -14.742188 C 8.960938 -14.742188 9.28125 -14.355469 9.28125 -13.808594 C 9.28125 -13.457031 9.152344 -13.070312 8.929688 -12.621094 C 8.765625 -12.300781 8.671875 -11.980469 8.671875 -11.65625 C 8.671875 -10.535156 9.730469 -9.667969 10.855469 -9.667969 C 11.785156 -9.667969 12.78125 -10.246094 13.359375 -11.722656 C 13.679688 -12.589844 13.808594 -13.359375 13.808594 -14.097656 C 13.808594 -17.117188 11.304688 -18.851562 8.542969 -18.851562 C 6.003906 -18.851562 3.277344 -17.375 2.121094 -14.003906 L 0.289062 -8.605469 C 0.03125 -7.835938 -0.0976562 -7.066406 -0.0976562 -6.359375 C -0.0976562 -2.664062 3.113281 0 7.835938 0 C 12.589844 0 17.277344 -2.699219 19.332031 -8.542969 C 19.429688 -8.765625 19.460938 -8.992188 19.460938 -9.183594 C 19.460938 -10.210938 18.464844 -10.855469 17.46875 -10.855469 C 16.667969 -10.855469 15.863281 -10.46875 15.542969 -9.539062 Z M 15.542969 -9.539062 "/></g></g></g><g fill="#000000" fill-opacity="1"><g transform="translate(439.630652, 230.062334)"><g><path d="M 13.585938 -6.710938 C 13.585938 -6.679688 13.585938 -7.195312 13.457031 -7.804688 C 13.679688 -7.964844 13.90625 -8.222656 14.097656 -8.511719 C 14.644531 -9.3125 15.609375 -12.105469 15.609375 -13.390625 C 15.609375 -16.667969 12.910156 -18.851562 9.441406 -18.851562 C 6.421875 -18.851562 3.566406 -17.179688 2.535156 -14.324219 L 0.191406 -7.707031 C -0.0976562 -6.90625 -0.226562 -6.101562 -0.226562 -5.394531 C -0.226562 -2.023438 2.664062 0 5.941406 0 C 8.445312 0 10.726562 -0.804688 12.074219 -3.113281 C 12.652344 -2.953125 13.328125 -2.859375 14.003906 -2.859375 C 17.792969 -2.859375 20.777344 -5.554688 21.871094 -8.929688 C 21.964844 -9.28125 22.03125 -9.601562 22.03125 -9.890625 C 22.03125 -11.078125 21.164062 -11.753906 20.234375 -11.753906 C 19.367188 -11.753906 18.464844 -11.242188 18.113281 -10.050781 C 17.40625 -8.0625 15.929688 -6.679688 14.035156 -6.679688 C 13.90625 -6.679688 13.714844 -6.679688 13.585938 -6.710938 Z M 10.597656 -11.65625 C 10.5 -11.367188 10.40625 -11.113281 10.375 -10.855469 C 8.605469 -11.046875 7.03125 -9.601562 7.03125 -7.675781 C 7.066406 -6.582031 7.609375 -6.003906 8.222656 -5.492188 C 7.804688 -4.367188 6.871094 -3.820312 5.878906 -3.820312 C 4.625 -3.820312 4.304688 -4.59375 4.304688 -5.363281 C 4.304688 -5.972656 4.464844 -6.550781 4.59375 -6.871094 L 6.871094 -13.390625 C 7.257812 -14.453125 8.382812 -15.0625 9.378906 -15.0625 C 10.375 -15.0625 11.015625 -14.386719 11.015625 -13.648438 C 11.015625 -13.070312 10.824219 -12.332031 10.597656 -11.65625 Z M 10.597656 -11.65625 "/></g></g></g><g fill="#000000" fill-opacity="1"><g transform="translate(456.391783, 230.062334)"><g><path d="M 17.921875 -9.25 C 16.507812 -5.394531 14.742188 -3.820312 13.230469 -3.820312 C 12.652344 -3.820312 12.332031 -4.109375 12.332031 -4.65625 C 12.332031 -4.882812 12.394531 -5.136719 12.492188 -5.460938 L 14.996094 -12.589844 C 15.222656 -13.230469 15.351562 -13.808594 15.351562 -14.355469 C 15.351562 -16.925781 13.167969 -18.851562 10.597656 -18.851562 C 9.34375 -18.851562 8.351562 -18.5625 7.515625 -17.953125 C 7.320312 -18.53125 6.519531 -18.851562 5.652344 -18.851562 C 4.753906 -18.851562 3.886719 -18.433594 3.566406 -17.535156 L -1.796875 -2.535156 C -1.894531 -2.25 -1.925781 -1.992188 -1.925781 -1.734375 C -1.925781 -0.546875 -0.996094 0.0625 0.03125 0.0625 C 1.15625 0.0625 2.441406 -0.640625 2.921875 -2.085938 C 4.046875 -5.203125 5.589844 -9.601562 6.679688 -12.683594 C 7.546875 -14.292969 8.671875 -15.0625 9.570312 -15.0625 C 10.148438 -15.0625 10.566406 -14.675781 10.566406 -14.066406 C 10.566406 -13.839844 10.5 -13.550781 10.40625 -13.261719 L 8.0625 -6.648438 C 7.804688 -5.910156 7.644531 -5.203125 7.644531 -4.527344 C 7.644531 -1.574219 10.085938 0 12.8125 0 C 16.089844 0 19.589844 -2.214844 21.804688 -8.476562 C 21.902344 -8.734375 21.964844 -8.992188 21.964844 -9.21875 C 21.964844 -10.246094 21.035156 -10.789062 20.070312 -10.789062 C 19.203125 -10.789062 18.242188 -10.308594 17.921875 -9.25 Z M 17.921875 -9.25 "/></g></g></g><g fill="#000000" fill-opacity="1"><g transform="translate(473.249238, 230.062334)"><g><path d="M 16.25 -9.054688 C 14.835938 -5.332031 11.464844 -3.820312 8.734375 -3.820312 C 6.390625 -3.820312 4.914062 -4.945312 4.914062 -6.421875 C 4.914062 -6.710938 4.945312 -7 5.074219 -7.320312 L 5.332031 -7.933594 C 6.261719 -7.355469 7.417969 -6.96875 8.703125 -6.96875 C 11.625 -6.96875 14.195312 -8.800781 15.0625 -11.691406 C 15.222656 -12.300781 15.320312 -12.910156 15.320312 -13.457031 C 15.320312 -16.507812 12.910156 -18.851562 9.28125 -18.851562 C 6.421875 -18.851562 3.628906 -17.179688 2.503906 -13.96875 L 0.609375 -8.476562 C 0.351562 -7.707031 0.191406 -6.9375 0.191406 -6.199219 C 0.191406 -2.375 3.789062 0 8.476562 0 C 12.941406 0 18.015625 -2.183594 20.136719 -8.316406 C 20.234375 -8.574219 20.265625 -8.800781 20.265625 -8.992188 C 20.265625 -9.988281 19.367188 -10.535156 18.402344 -10.535156 C 17.503906 -10.535156 16.539062 -10.050781 16.25 -9.054688 Z M 9.183594 -15.0625 C 10.085938 -15.0625 10.664062 -14.324219 10.664062 -13.390625 C 10.664062 -13.136719 10.628906 -12.878906 10.535156 -12.621094 C 10.210938 -11.5625 9.25 -11.175781 8.285156 -11.175781 C 7.675781 -11.175781 7.066406 -11.304688 6.617188 -11.5625 L 7.289062 -13.488281 C 7.644531 -14.484375 8.445312 -15.0625 9.183594 -15.0625 Z M 9.183594 -15.0625 "/></g></g></g></svg>