<svg xmlns="http://www.w3.org/2000/svg" xmlns:xlink="http://www.w3.org/1999/xlink" width="1000" zoomAndPan="magnify" viewBox="0 0 750 749.999995" height="1000" preserveAspectRatio="xMidYMid meet" version="1.0"><defs><g/><clipPath id="31fe0cdb6b"><path d="M 531 332 L 603 332 L 603 430 L 531 430 Z M 531 332 " clip-rule="nonzero"/></clipPath><clipPath id="078be41eed"><path d="M 544.140625 326.375 L 604.695312 337.117188 L 587.402344 434.597656 L 526.847656 423.855469 Z M 544.140625 326.375 " clip-rule="nonzero"/></clipPath><clipPath id="a51e233326"><path d="M 544.140625 326.375 L 604.695312 337.117188 L 587.402344 434.597656 L 526.847656 423.855469 Z M 544.140625 326.375 " clip-rule="nonzero"/></clipPath><clipPath id="0d45f94a6e"><path d="M 533 334 L 601 334 L 601 427 L 533 427 Z M 533 334 " clip-rule="nonzero"/></clipPath><clipPath id="159cb5f049"><path d="M 544.140625 326.375 L 604.695312 337.117188 L 587.402344 434.597656 L 526.847656 423.855469 Z M 544.140625 326.375 " clip-rule="nonzero"/></clipPath><clipPath id="81f1effd9e"><path d="M 544.140625 326.375 L 604.695312 337.117188 L 587.402344 434.597656 L 526.847656 423.855469 Z M 544.140625 326.375 " clip-rule="nonzero"/></clipPath><clipPath id="a95922ab27"><path d="M 535 335 L 599 335 L 599 426 L 535 426 Z M 535 335 " clip-rule="nonzero"/></clipPath><clipPath id="d31a7d6403"><path d="M 544.140625 326.375 L 604.695312 337.117188 L 587.402344 434.597656 L 526.847656 423.855469 Z M 544.140625 326.375 " clip-rule="nonzero"/></clipPath><clipPath id="7554ca18e0"><path d="M 544.140625 326.375 L 604.695312 337.117188 L 587.402344 434.597656 L 526.847656 423.855469 Z M 544.140625 326.375 " clip-rule="nonzero"/></clipPath></defs><rect x="-75" width="900" fill="#ffffff" y="-74.999999" height="899.999994" fill-opacity="1"/><rect x="-75" width="900" fill="#e4e2dd" y="-74.999999" height="899.999994" fill-opacity="1"/><g fill="#000000" fill-opacity="1"><g transform="translate(125.912106, 447.749998)"><g><path d="M 33.734375 -30.28125 C 30.710938 -31.851562 29.082031 -35.601562 28.84375 -41.53125 C 28.84375 -44.070312 27.570312 -45.222656 25.03125 -44.984375 L 1.625 -43.890625 C 0.664062 -43.765625 -0.144531 -43.335938 -0.8125 -42.609375 C -1.476562 -41.890625 -1.8125 -40.988281 -1.8125 -39.90625 C -1.082031 -31.195312 0.304688 -24.242188 2.359375 -19.046875 C 5.015625 -12.035156 10.03125 -6.773438 17.40625 -3.265625 C 20.070312 -1.929688 22.972656 -1.050781 26.109375 -0.625 C 29.253906 -0.207031 32.820312 0 36.8125 0 C 45.03125 0 52.644531 -2.445312 59.65625 -7.34375 C 66.675781 -12.238281 71.632812 -18.738281 74.53125 -26.84375 C 76.832031 -33.125 78.4375 -39.195312 79.34375 -45.0625 C 80.25 -50.925781 81.003906 -58.09375 81.609375 -66.5625 L 81.96875 -71.8125 L 82.15625 -75.984375 C 82.394531 -80.097656 82.515625 -83.179688 82.515625 -85.234375 L 82.515625 -122.234375 C 82.515625 -124.648438 81.304688 -125.859375 78.890625 -125.859375 L 54.953125 -126.59375 C 53.859375 -126.59375 52.945312 -126.226562 52.21875 -125.5 C 51.5 -124.769531 51.140625 -123.925781 51.140625 -122.96875 L 50.59375 -74 L 50.59375 -73.8125 C 50.59375 -69.582031 50.535156 -66.378906 50.421875 -64.203125 C 50.296875 -59.367188 49.867188 -54.226562 49.140625 -48.78125 C 48.660156 -44.914062 47.332031 -40.742188 45.15625 -36.265625 C 44.1875 -34.335938 42.914062 -32.738281 41.34375 -31.46875 C 39.78125 -30.195312 38.210938 -29.5625 36.640625 -29.5625 C 35.546875 -29.5625 34.695312 -29.800781 34.09375 -30.28125 Z M 70.90625 -114.625 C 70.90625 -114.625 70.9375 -114.59375 71 -114.53125 C 71.0625 -114.46875 71.09375 -114.375 71.09375 -114.25 L 70.90625 -113.890625 L 70.734375 -113.890625 L 70.1875 -114.25 C 70.550781 -114.25 70.734375 -114.375 70.734375 -114.625 Z M 67.46875 -108.265625 C 67.226562 -108.265625 67.109375 -108.390625 67.109375 -108.640625 L 67.109375 -109.171875 C 67.222656 -109.171875 67.644531 -108.929688 68.375 -108.453125 Z M 66.734375 -103.734375 L 67.109375 -103.734375 L 67.109375 -103.1875 L 66.734375 -103.1875 Z M 61.65625 -102.828125 C 61.78125 -102.953125 62.023438 -103.015625 62.390625 -103.015625 L 62.390625 -102.46875 L 61.296875 -102.46875 Z M 68.1875 -100.46875 C 68.1875 -100.226562 68.003906 -100.109375 67.640625 -100.109375 C 67.035156 -100.109375 66.796875 -100.347656 66.921875 -100.828125 L 66.921875 -101.203125 L 67.640625 -101.203125 L 68.1875 -100.828125 Z M 66.015625 -100.46875 C 66.015625 -99.988281 65.773438 -99.6875 65.296875 -99.5625 C 65.296875 -99.6875 65.265625 -99.957031 65.203125 -100.375 C 65.140625 -100.800781 65.171875 -101.015625 65.296875 -101.015625 C 65.773438 -101.015625 66.015625 -100.832031 66.015625 -100.46875 Z M 64.203125 -96.125 C 64.929688 -96 65.296875 -95.816406 65.296875 -95.578125 C 65.296875 -95.453125 65.050781 -95.238281 64.5625 -94.9375 C 64.082031 -94.632812 63.71875 -94.425781 63.46875 -94.3125 L 62.390625 -95.21875 L 62.75 -96.484375 L 63.46875 -96.296875 C 63.957031 -96.296875 64.203125 -96.238281 64.203125 -96.125 Z M 67.828125 -92.859375 L 67.828125 -93.578125 L 68.921875 -93.578125 L 68.921875 -92.859375 Z M 67.109375 -91.21875 C 67.347656 -91.21875 67.46875 -91.097656 67.46875 -90.859375 L 65.65625 -90.859375 L 65.65625 -91.765625 L 66.921875 -91.765625 C 66.921875 -91.765625 66.953125 -91.734375 67.015625 -91.671875 C 67.078125 -91.617188 67.109375 -91.59375 67.109375 -91.59375 Z M 68.015625 -87.953125 C 68.492188 -87.953125 68.972656 -87.710938 69.453125 -87.234375 L 68.734375 -86.6875 C 68.253906 -86.6875 67.953125 -86.75 67.828125 -86.875 L 67.46875 -86.875 C 67.46875 -87.476562 67.648438 -87.835938 68.015625 -87.953125 Z M 71.640625 -85.96875 C 72.484375 -85.96875 72.96875 -85.664062 73.09375 -85.0625 L 71.453125 -84.875 L 71.453125 -85.421875 Z M 68.734375 -83.421875 C 68.734375 -83.304688 68.671875 -83.25 68.546875 -83.25 C 68.429688 -83.125 68.191406 -83.0625 67.828125 -83.0625 L 66.734375 -83.0625 C 66.492188 -83.1875 66.375 -83.671875 66.375 -84.515625 L 68.734375 -84.15625 Z M 68.734375 -82.703125 C 68.859375 -82.703125 68.921875 -82.582031 68.921875 -82.34375 C 68.671875 -82.09375 68.1875 -81.96875 67.46875 -81.96875 L 67.46875 -81.0625 L 66.015625 -81.0625 L 66.015625 -81.25 L 65.828125 -81.25 L 65.65625 -81.4375 L 65.296875 -81.609375 L 65.296875 -82.34375 C 65.410156 -82.457031 65.585938 -82.515625 65.828125 -82.515625 C 66.078125 -82.515625 66.320312 -82.578125 66.5625 -82.703125 C 66.925781 -82.703125 67.285156 -82.757812 67.640625 -82.875 C 68.003906 -83 68.367188 -83.125 68.734375 -83.25 Z M 65.828125 -80.890625 C 66.921875 -80.890625 67.46875 -80.585938 67.46875 -79.984375 L 65.828125 -79.609375 L 65.65625 -79.984375 L 65.296875 -80.53125 L 64.921875 -79.796875 C 64.804688 -79.921875 64.566406 -79.984375 64.203125 -79.984375 C 64.203125 -80.097656 64.140625 -80.15625 64.015625 -80.15625 L 63.84375 -80.15625 L 63.84375 -80.53125 L 64.203125 -81.25 C 64.441406 -81.25 64.804688 -81.128906 65.296875 -80.890625 L 65.296875 -80.703125 C 65.648438 -80.703125 65.828125 -80.765625 65.828125 -80.890625 Z M 64.921875 -78.890625 C 65.890625 -78.890625 66.554688 -78.648438 66.921875 -78.171875 L 65.65625 -78.171875 L 65.65625 -78.34375 L 65.296875 -78.53125 C 65.296875 -78.53125 65.265625 -78.585938 65.203125 -78.703125 C 65.140625 -78.828125 65.046875 -78.890625 64.921875 -78.890625 Z M 69.453125 -77.625 C 69.703125 -77.625 69.945312 -77.378906 70.1875 -76.890625 C 70.1875 -76.890625 70.15625 -76.859375 70.09375 -76.796875 C 70.03125 -76.742188 70 -76.71875 70 -76.71875 L 69.828125 -76.53125 C 69.828125 -76.53125 69.796875 -76.5 69.734375 -76.4375 C 69.671875 -76.382812 69.640625 -76.359375 69.640625 -76.359375 C 69.640625 -76.359375 69.609375 -76.382812 69.546875 -76.4375 C 69.484375 -76.5 69.453125 -76.53125 69.453125 -76.53125 L 69.09375 -76.53125 L 69.09375 -76.890625 C 68.976562 -77.140625 68.738281 -77.265625 68.375 -77.265625 L 68.1875 -77.078125 L 68.015625 -77.078125 C 68.015625 -76.953125 67.953125 -76.890625 67.828125 -76.890625 L 67.109375 -77.625 L 67.828125 -78.171875 L 68.921875 -78.171875 Z M 75.625 -77.625 C 76.226562 -76.78125 76.289062 -76.296875 75.8125 -76.171875 L 74.53125 -76.171875 L 74.71875 -75.984375 L 74.71875 -75.453125 L 74.53125 -75.078125 L 74.359375 -74.71875 L 74.53125 -74.71875 C 74.894531 -74.351562 75.078125 -74.113281 75.078125 -74 C 74.234375 -74 72.96875 -74.238281 71.28125 -74.71875 C 71.882812 -74.957031 72.304688 -75.203125 72.546875 -75.453125 L 73.265625 -76.359375 L 72.90625 -76.359375 L 72.90625 -77.625 L 74.359375 -77.796875 C 74.722656 -77.679688 75.144531 -77.625 75.625 -77.625 Z M 64.921875 -76.359375 L 64.921875 -76.890625 L 65.828125 -77.265625 L 66.375 -76.71875 Z M 66.734375 -75.078125 C 67.222656 -75.078125 67.46875 -74.835938 67.46875 -74.359375 C 67.34375 -73.992188 66.976562 -73.8125 66.375 -73.8125 L 65.65625 -74.53125 Z M 64.5625 -71.640625 L 63.84375 -71.453125 L 62.75 -72.1875 L 62.03125 -72.546875 C 62.03125 -72.660156 61.90625 -72.78125 61.65625 -72.90625 L 61.296875 -73.09375 L 61.65625 -73.453125 L 61.65625 -73.8125 L 61.84375 -73.8125 C 61.84375 -73.8125 61.875 -73.84375 61.9375 -73.90625 C 62 -73.96875 62.03125 -74 62.03125 -74 L 63.109375 -74 C 63.109375 -73.632812 63.351562 -73.453125 63.84375 -73.453125 L 64.921875 -73.09375 L 64.921875 -71.640625 Z M 65.65625 -72.359375 L 65.65625 -73.265625 L 68.921875 -72.90625 Z M 68.1875 -69.828125 C 68.550781 -69.828125 68.796875 -69.765625 68.921875 -69.640625 L 69.640625 -69.453125 C 69.640625 -69.210938 69.578125 -69.035156 69.453125 -68.921875 L 69.09375 -68.375 L 67.46875 -68.375 L 67.46875 -68.921875 C 67.46875 -69.398438 67.707031 -69.703125 68.1875 -69.828125 Z M 74.359375 -65.296875 L 74 -65.109375 L 74 -64.921875 C 73.875 -64.921875 73.691406 -64.800781 73.453125 -64.5625 C 73.085938 -65.65625 72.90625 -66.804688 72.90625 -68.015625 L 72.1875 -67.640625 C 71.820312 -67.523438 71.457031 -67.523438 71.09375 -67.640625 C 71.09375 -68.242188 71.273438 -68.789062 71.640625 -69.28125 C 72.003906 -69.28125 72.425781 -69.160156 72.90625 -68.921875 L 72.90625 -68.015625 L 74.71875 -69.09375 L 74.90625 -68.921875 L 75.265625 -68.921875 L 75.8125 -68.734375 L 75.8125 -67.28125 C 75.8125 -67.164062 75.691406 -66.984375 75.453125 -66.734375 L 75.265625 -66.734375 L 75.265625 -65.828125 Z M 67.109375 -64.203125 L 67.109375 -65.109375 L 67.828125 -65.109375 L 67.828125 -64.203125 Z M 68.921875 -62.390625 L 68.921875 -62.203125 L 67.46875 -62.203125 L 67.46875 -63.296875 L 69.28125 -63.109375 L 69.28125 -62.75 Z M 69.828125 -62.03125 L 69.828125 -62.75 L 70.90625 -62.75 L 70.90625 -62.03125 Z M 75.8125 -62.5625 C 75.8125 -61.957031 75.328125 -61.65625 74.359375 -61.65625 L 73.625 -61.65625 L 73.625 -61.84375 L 73.453125 -62.03125 L 74.359375 -62.75 Z M 72.71875 -61.125 C 72.71875 -61 72.78125 -60.9375 72.90625 -60.9375 L 72.90625 -60.578125 L 71.28125 -60.21875 L 71.28125 -61.484375 L 72.546875 -61.484375 L 72.546875 -61.296875 Z M 64.5625 -60.578125 L 64.921875 -61.296875 L 66.375 -61.125 L 66.375 -60.21875 Z M 67.46875 -59.125 L 69.28125 -60.21875 L 69.640625 -58.9375 L 68.546875 -58.9375 Z M 75.265625 -59.125 C 75.992188 -59.125 76.535156 -58.878906 76.890625 -58.390625 L 76.359375 -58.21875 L 76.171875 -58.21875 C 76.171875 -58.09375 75.929688 -58.03125 75.453125 -58.03125 L 75.265625 -58.390625 L 75.265625 -58.765625 C 75.023438 -59.003906 75.023438 -59.125 75.265625 -59.125 Z M 68.921875 -57.3125 L 68.921875 -57.859375 L 69.828125 -57.859375 L 69.828125 -57.3125 Z M 73.09375 -57.3125 C 73.445312 -56.945312 73.445312 -56.582031 73.09375 -56.21875 L 72.546875 -56.578125 C 72.304688 -56.578125 72.1875 -56.703125 72.1875 -56.953125 C 72.539062 -56.953125 72.84375 -57.070312 73.09375 -57.3125 Z M 73.8125 -54.21875 C 73.570312 -53.976562 73.332031 -53.859375 73.09375 -53.859375 C 72.363281 -53.859375 71.878906 -54.039062 71.640625 -54.40625 L 71.28125 -55.140625 L 71.453125 -55.859375 L 71.8125 -56.046875 L 72.359375 -55.859375 L 73.09375 -56.046875 L 73.625 -55.859375 C 73.625 -55.734375 73.75 -55.671875 74 -55.671875 L 74 -54.40625 Z M 71.28125 -53.3125 L 70.546875 -53.3125 L 71.09375 -54.21875 L 71.8125 -53.859375 Z M 75.8125 -52.953125 C 76.289062 -52.585938 76.53125 -52.046875 76.53125 -51.328125 C 76.050781 -50.960938 75.445312 -50.960938 74.71875 -51.328125 C 74.71875 -51.566406 74.65625 -51.75 74.53125 -51.875 L 74.53125 -52.953125 Z M 71.09375 -50.59375 C 71.332031 -50.476562 71.816406 -50.421875 72.546875 -50.421875 L 74 -50.421875 C 74 -49.691406 73.695312 -49.328125 73.09375 -49.328125 L 72 -49.328125 C 71.875 -49.453125 71.453125 -49.515625 70.734375 -49.515625 Z M 75.453125 -48.234375 C 75.085938 -47.390625 74.359375 -46.785156 73.265625 -46.421875 L 71.640625 -46.609375 C 71.878906 -46.847656 72.238281 -47.175781 72.71875 -47.59375 C 73.207031 -48.019531 73.570312 -48.234375 73.8125 -48.234375 Z M 75.453125 -44.984375 C 75.453125 -44.734375 75.507812 -44.550781 75.625 -44.4375 C 75.625 -44.3125 75.6875 -44.25 75.8125 -44.25 L 75.8125 -43.890625 L 75.078125 -43.890625 C 75.078125 -43.765625 74.71875 -43.703125 74 -43.703125 L 74.359375 -44.984375 Z M 62.03125 -38.8125 L 61.296875 -39 L 61.65625 -39.53125 L 62.75 -39.359375 L 62.75 -38.453125 Z M 63.46875 -31.5625 L 62.75 -31.5625 C 62.382812 -31.914062 62.203125 -32.335938 62.203125 -32.828125 C 62.203125 -33.304688 62.265625 -33.726562 62.390625 -34.09375 L 61.296875 -34.828125 C 61.296875 -35.179688 61.414062 -35.539062 61.65625 -35.90625 L 62.75 -35.90625 C 63.59375 -35.425781 64.015625 -34.765625 64.015625 -33.921875 C 64.015625 -32.828125 64.078125 -32.160156 64.203125 -31.921875 Z M 56.578125 -32.09375 L 56.953125 -32.09375 L 56.953125 -31.375 L 56.578125 -31.375 Z M 52.234375 -29.375 C 52.234375 -29.257812 52.113281 -29.203125 51.875 -29.203125 L 50.96875 -29.375 C 50.363281 -29.375 49.816406 -29.5 49.328125 -29.75 L 48.609375 -29.75 C 48.242188 -29.75 48 -29.804688 47.875 -29.921875 C 47.757812 -29.921875 47.640625 -29.953125 47.515625 -30.015625 C 47.390625 -30.078125 47.269531 -30.109375 47.15625 -30.109375 C 47.15625 -30.347656 47.757812 -30.46875 48.96875 -30.46875 C 50.050781 -30.34375 50.773438 -30.34375 51.140625 -30.46875 L 52.046875 -30.46875 L 52.40625 -30.109375 L 52.40625 -29.375 Z M 57.484375 -26.484375 C 57.367188 -26.722656 57.367188 -26.898438 57.484375 -27.015625 L 58.578125 -26.65625 L 57.671875 -26.109375 Z M 54.40625 -23.9375 C 54.40625 -23.570312 54.253906 -23.085938 53.953125 -22.484375 C 53.648438 -21.878906 53.257812 -21.578125 52.78125 -21.578125 C 51.8125 -21.578125 51.328125 -22 51.328125 -22.84375 C 51.691406 -24.0625 52.234375 -24.671875 52.953125 -24.671875 C 53.316406 -24.671875 53.648438 -24.609375 53.953125 -24.484375 C 54.253906 -24.359375 54.40625 -24.175781 54.40625 -23.9375 Z M 54.40625 -23.9375 "/></g></g></g><g fill="#000000" fill-opacity="1"><g transform="translate(215.316528, 447.749998)"><g><path d="M 37.90625 -30.65625 C 34.519531 -30.65625 32.160156 -31.953125 30.828125 -34.546875 C 29.503906 -37.148438 28.84375 -40.75 28.84375 -45.34375 C 28.84375 -47.03125 28.960938 -49.566406 29.203125 -52.953125 L 30.828125 -76.890625 L 34.28125 -120.609375 L 34.28125 -120.96875 C 34.28125 -121.9375 33.914062 -122.78125 33.1875 -123.5 C 32.457031 -124.226562 31.613281 -124.59375 30.65625 -124.59375 L 8.34375 -124.59375 C 6.164062 -124.59375 4.957031 -123.503906 4.71875 -121.328125 L 0.1875 -78.171875 C -0.90625 -67.160156 -1.507812 -57.726562 -1.625 -49.875 L -1.625 -44.0625 C -1.625 -37.539062 -1.382812 -32.707031 -0.90625 -29.5625 C 0.175781 -19.53125 3.378906 -12.09375 8.703125 -7.25 C 13.785156 -2.414062 22.671875 0 35.359375 0 C 51.441406 0 63.71875 -4.773438 72.1875 -14.328125 C 77.5 -20.492188 81.1875 -28.472656 83.25 -38.265625 C 84.820312 -46.609375 85.609375 -55.554688 85.609375 -65.109375 L 85.609375 -77.078125 L 87.234375 -120.78125 C 87.234375 -121.75 86.867188 -122.625 86.140625 -123.40625 C 85.421875 -124.195312 84.578125 -124.59375 83.609375 -124.59375 L 61.296875 -124.59375 C 59.003906 -124.59375 57.796875 -123.441406 57.671875 -121.140625 L 55.5 -77.984375 L 55.5 -77.796875 C 55.007812 -68.003906 54.582031 -60.628906 54.21875 -55.671875 L 53.6875 -48.78125 C 53.6875 -48.300781 53.503906 -46.972656 53.140625 -44.796875 C 52.410156 -40.316406 50.988281 -36.835938 48.875 -34.359375 C 46.757812 -31.890625 43.101562 -30.65625 37.90625 -30.65625 Z M 82.875 -115.15625 C 82.519531 -113.34375 82.34375 -112.015625 82.34375 -111.171875 C 82.34375 -111.171875 82.367188 -111.140625 82.421875 -111.078125 C 82.484375 -111.015625 82.515625 -110.984375 82.515625 -110.984375 C 82.515625 -110.867188 82.578125 -110.8125 82.703125 -110.8125 L 80.703125 -110.8125 L 80.53125 -112.984375 L 80.53125 -115.15625 C 80.53125 -116.25 80.46875 -116.914062 80.34375 -117.15625 L 80.34375 -118.25 C 80.34375 -118.613281 80.460938 -119.15625 80.703125 -119.875 C 80.941406 -120.601562 81.304688 -120.96875 81.796875 -120.96875 C 82.765625 -120.96875 83.21875 -120.570312 83.15625 -119.78125 C 83.09375 -119 83.0625 -118.546875 83.0625 -118.421875 L 83.0625 -117.703125 Z M 5.4375 -97.390625 C 5.4375 -97.753906 5.617188 -98.117188 5.984375 -98.484375 L 6.34375 -99.5625 L 6.171875 -100.65625 L 5.984375 -101.921875 L 5.265625 -103.734375 L 5.625 -105 L 6.171875 -107 C 6.171875 -107.125 6.046875 -107.304688 5.796875 -107.546875 L 5.625 -108.09375 C 5.625 -108.207031 5.742188 -108.390625 5.984375 -108.640625 L 6.171875 -110.984375 C 6.410156 -111.234375 6.53125 -111.414062 6.53125 -111.53125 C 6.644531 -111.65625 6.644531 -111.957031 6.53125 -112.4375 C 7.007812 -112.925781 7.25 -113.351562 7.25 -113.71875 L 7.25 -114.984375 C 7.132812 -115.460938 6.984375 -115.851562 6.796875 -116.15625 C 6.617188 -116.457031 6.347656 -116.734375 5.984375 -116.984375 C 6.585938 -116.984375 6.890625 -117.039062 6.890625 -117.15625 C 7.128906 -117.394531 7.367188 -117.515625 7.609375 -117.515625 L 8.53125 -117.515625 L 7.4375 -94.484375 C 7.070312 -93.878906 6.648438 -93.457031 6.171875 -93.21875 L 6.171875 -92.859375 C 6.410156 -92.859375 6.53125 -92.796875 6.53125 -92.671875 C 6.769531 -92.671875 7.007812 -92.789062 7.25 -93.03125 C 7.25 -92.3125 7.066406 -91.585938 6.703125 -90.859375 C 6.347656 -90.378906 6.046875 -90.140625 5.796875 -90.140625 C 5.796875 -90.378906 5.675781 -90.5 5.4375 -90.5 L 5.265625 -90.859375 Z M 6.53125 -74.90625 C 5.6875 -75.019531 4.960938 -75.378906 4.359375 -75.984375 L 4.53125 -76.71875 L 5.265625 -76.890625 L 6.53125 -77.078125 Z M 63.84375 -75.8125 C 63.71875 -75.6875 63.625 -75.5625 63.5625 -75.4375 C 63.5 -75.320312 63.410156 -75.265625 63.296875 -75.265625 C 63.296875 -75.265625 63.265625 -75.234375 63.203125 -75.171875 C 63.140625 -75.109375 63.109375 -75.078125 63.109375 -75.078125 C 62.867188 -75.078125 62.75 -75.203125 62.75 -75.453125 L 62.75 -75.984375 Z M 6.171875 -69.453125 C 6.171875 -68.367188 5.742188 -67.828125 4.890625 -67.828125 C 4.535156 -67.828125 4.234375 -68.007812 3.984375 -68.375 C 4.109375 -68.851562 4.835938 -69.394531 6.171875 -70 Z M 68.375 -58.03125 C 68.488281 -57.664062 68.425781 -57.425781 68.1875 -57.3125 L 66.734375 -57.3125 L 67.109375 -58.03125 Z M 64.5625 -52.234375 C 64.4375 -52.109375 64.253906 -52.046875 64.015625 -52.046875 C 64.015625 -52.285156 63.832031 -52.46875 63.46875 -52.59375 C 63.71875 -52.59375 63.84375 -52.65625 63.84375 -52.78125 L 64.203125 -52.78125 C 64.566406 -52.78125 64.804688 -52.71875 64.921875 -52.59375 Z M 61.125 -38.625 L 61.65625 -39 L 61.65625 -38.625 L 61.125 -38.265625 Z M 63.65625 -36.8125 L 64.203125 -36.8125 L 64.015625 -36.09375 L 63.46875 -36.09375 Z M 52.046875 -31.015625 C 52.171875 -30.648438 52.171875 -30.40625 52.046875 -30.28125 L 50.421875 -30.28125 L 50.78125 -31.015625 Z M 40.984375 -28.65625 C 40.617188 -27.925781 40.347656 -27.5 40.171875 -27.375 C 39.992188 -27.257812 39.601562 -27.203125 39 -27.203125 L 38.078125 -27.203125 C 37.359375 -27.203125 36.878906 -27.566406 36.640625 -28.296875 C 36.640625 -28.410156 36.816406 -28.648438 37.171875 -29.015625 C 38.023438 -29.015625 38.691406 -28.984375 39.171875 -28.921875 C 39.660156 -28.867188 40.023438 -28.84375 40.265625 -28.84375 Z M 45.703125 -28.296875 L 45.890625 -28.84375 L 46.421875 -28.65625 L 46.0625 -28.109375 Z M 45.515625 -22.3125 L 45.703125 -25.578125 L 46.25 -25.578125 L 45.703125 -22.3125 Z M 33.375 -23.765625 C 33.375 -23.878906 33.613281 -24.179688 34.09375 -24.671875 C 34.09375 -24.671875 34.273438 -24.546875 34.640625 -24.296875 C 35.003906 -24.054688 35.304688 -23.695312 35.546875 -23.21875 L 33.546875 -23.03125 Z M 33.375 -23.765625 "/></g></g></g><g fill="#000000" fill-opacity="1"><g transform="translate(309.980037, 447.749998)"><g><path d="M 34.640625 -122.0625 C 34.640625 -123.019531 34.273438 -123.890625 33.546875 -124.671875 C 32.828125 -125.460938 31.984375 -125.859375 31.015625 -125.859375 L 7.609375 -126.40625 C 5.191406 -126.40625 3.925781 -125.257812 3.8125 -122.96875 L -1.8125 -3.8125 C -1.8125 -2.71875 -1.445312 -1.8125 -0.71875 -1.09375 C 0 -0.363281 0.90625 0 2 0 L 71.453125 -3.453125 C 73.867188 -3.453125 75.078125 -4.660156 75.078125 -7.078125 L 75.625 -33.1875 C 75.625 -34.28125 75.257812 -35.1875 74.53125 -35.90625 C 73.8125 -36.632812 72.90625 -37 71.8125 -37 L 30.28125 -36.453125 Z M 26.65625 -117.34375 L 26.296875 -116.609375 L 25.9375 -116.796875 L 26.296875 -117.34375 Z M 32.28125 -84.328125 L 31.921875 -84.15625 C 31.554688 -84.15625 31.375 -84.273438 31.375 -84.515625 C 31.25 -84.515625 31.1875 -84.570312 31.1875 -84.6875 C 31.1875 -85.175781 31.429688 -85.421875 31.921875 -85.421875 C 32.160156 -85.421875 32.28125 -85.359375 32.28125 -85.234375 L 32.640625 -85.234375 L 32.640625 -84.515625 Z M 27.015625 -77.984375 C 27.140625 -77.984375 27.140625 -77.863281 27.015625 -77.625 C 26.773438 -77.382812 26.597656 -77.265625 26.484375 -77.265625 L 25.390625 -77.265625 L 25.390625 -78.171875 Z M 20.125 -68.546875 C 20.125 -68.546875 20.09375 -68.515625 20.03125 -68.453125 C 19.976562 -68.398438 19.953125 -68.375 19.953125 -68.375 C 19.828125 -68.25 19.671875 -68.21875 19.484375 -68.28125 C 19.304688 -68.34375 19.21875 -68.429688 19.21875 -68.546875 C 19.21875 -68.546875 19.1875 -68.609375 19.125 -68.734375 C 19.070312 -68.859375 18.984375 -68.921875 18.859375 -68.921875 L 19.59375 -69.28125 L 20.125 -69.28125 Z M 14.875 -43.15625 C 14.875 -42.800781 14.570312 -42.410156 13.96875 -41.984375 C 13.363281 -41.554688 12.816406 -41.34375 12.328125 -41.34375 C 11.484375 -41.34375 11 -41.46875 10.875 -41.71875 L 10.703125 -42.4375 C 10.703125 -42.800781 10.882812 -43.222656 11.25 -43.703125 C 11.726562 -44.191406 12.207031 -44.4375 12.6875 -44.4375 C 12.9375 -44.4375 13.363281 -44.3125 13.96875 -44.0625 C 14.570312 -43.820312 14.875 -43.519531 14.875 -43.15625 Z M 13.78125 -25.9375 C 13.539062 -25.9375 13.359375 -25.992188 13.234375 -26.109375 L 12.328125 -26.109375 L 12.328125 -27.015625 L 13.78125 -26.84375 Z M 24.296875 -25.03125 L 24.296875 -25.390625 L 25.75 -25.203125 L 25.75 -24.671875 Z M 43.53125 -24.484375 C 43.53125 -24.359375 43.4375 -24.207031 43.25 -24.03125 C 43.070312 -23.851562 42.863281 -23.765625 42.625 -23.765625 C 41.894531 -23.765625 41.410156 -23.941406 41.171875 -24.296875 L 41.71875 -25.03125 L 42.984375 -25.03125 Z M 35.1875 -22.3125 L 35.1875 -22.125 L 34.828125 -21.9375 L 34.828125 -21.578125 L 34.28125 -21.578125 C 34.039062 -21.578125 33.859375 -21.640625 33.734375 -21.765625 C 33.859375 -22.128906 34.097656 -22.367188 34.453125 -22.484375 L 35.546875 -22.484375 Z M 31.5625 -21.765625 C 31.800781 -21.640625 31.859375 -21.484375 31.734375 -21.296875 C 31.617188 -21.117188 31.4375 -21.03125 31.1875 -21.03125 C 30.945312 -21.28125 30.828125 -21.460938 30.828125 -21.578125 L 30.828125 -22.125 Z M 39.171875 -21.21875 L 38.078125 -21.578125 L 38.265625 -22.125 L 39.53125 -21.765625 Z M 17.765625 -20.3125 C 17.285156 -20.3125 17.046875 -20.191406 17.046875 -19.953125 L 16.5 -20.3125 C 16.382812 -20.3125 16.328125 -20.429688 16.328125 -20.671875 C 16.328125 -21.160156 16.566406 -21.40625 17.046875 -21.40625 L 17.40625 -21.21875 C 17.40625 -21.09375 17.523438 -21.03125 17.765625 -21.03125 Z M 21.765625 -18.140625 C 21.523438 -18.140625 21.222656 -18.015625 20.859375 -17.765625 C 20.734375 -18.492188 20.734375 -19.101562 20.859375 -19.59375 C 21.097656 -19.59375 21.28125 -19.53125 21.40625 -19.40625 L 21.765625 -19.40625 Z M 39.171875 -19.40625 C 39.773438 -19.40625 40.320312 -19.039062 40.8125 -18.3125 C 40.8125 -17.945312 40.535156 -17.644531 39.984375 -17.40625 C 39.441406 -17.164062 38.988281 -17.046875 38.625 -17.046875 C 37.65625 -17.046875 37.171875 -17.46875 37.171875 -18.3125 C 37.171875 -18.675781 37.472656 -18.921875 38.078125 -19.046875 Z M 20.859375 -16.140625 C 20.859375 -16.140625 20.828125 -16.171875 20.765625 -16.234375 C 20.703125 -16.296875 20.671875 -16.328125 20.671875 -16.328125 C 20.671875 -16.566406 20.613281 -16.6875 20.5 -16.6875 C 20.375 -16.800781 20.25 -16.890625 20.125 -16.953125 C 20.007812 -17.015625 19.953125 -17.109375 19.953125 -17.234375 C 20.191406 -17.234375 20.375 -17.289062 20.5 -17.40625 C 20.613281 -17.53125 20.757812 -17.53125 20.9375 -17.40625 C 21.125 -17.289062 21.21875 -17.171875 21.21875 -17.046875 C 21.21875 -16.804688 21.335938 -16.6875 21.578125 -16.6875 Z M 38.078125 -13.96875 C 38.078125 -14.207031 38.257812 -14.390625 38.625 -14.515625 L 39.359375 -14.515625 L 39.359375 -14.328125 L 39.71875 -14.140625 L 39.359375 -13.78125 Z M 9.4375 -13.421875 C 9.914062 -13.898438 10.519531 -14.140625 11.25 -14.140625 L 11.96875 -13.96875 L 12.328125 -13.78125 L 11.609375 -13.0625 Z M 8.703125 -13.234375 L 8.34375 -13.0625 L 8.15625 -13.421875 L 8.53125 -13.421875 Z M 68.734375 -12.15625 C 68.492188 -11.90625 68.375 -11.960938 68.375 -12.328125 C 68.375 -12.691406 68.492188 -12.875 68.734375 -12.875 C 68.859375 -12.875 68.945312 -12.78125 69 -12.59375 C 69.0625 -12.414062 68.972656 -12.269531 68.734375 -12.15625 Z M 24.125 -11.609375 C 24 -11.484375 23.816406 -11.421875 23.578125 -11.421875 C 23.335938 -11.421875 23.21875 -11.300781 23.21875 -11.0625 C 22.96875 -11.300781 22.785156 -11.421875 22.671875 -11.421875 C 22.546875 -11.421875 22.484375 -11.601562 22.484375 -11.96875 C 22.484375 -12.207031 22.546875 -12.328125 22.671875 -12.328125 C 22.671875 -12.328125 22.695312 -12.359375 22.75 -12.421875 C 22.8125 -12.484375 22.84375 -12.515625 22.84375 -12.515625 L 23.765625 -12.515625 L 24.125 -12.328125 Z M 43.34375 -10.34375 C 42.976562 -10.21875 42.554688 -10.15625 42.078125 -10.15625 C 41.953125 -10.28125 41.796875 -10.3125 41.609375 -10.25 C 41.429688 -10.1875 41.285156 -10.15625 41.171875 -10.15625 L 40.4375 -10.15625 L 40.4375 -10.703125 C 40.5625 -10.941406 40.773438 -11.148438 41.078125 -11.328125 C 41.378906 -11.515625 41.710938 -11.609375 42.078125 -11.609375 C 42.191406 -11.609375 42.375 -11.488281 42.625 -11.25 L 43.34375 -10.875 Z M 10.34375 -11.0625 L 9.4375 -10.703125 L 9.4375 -11.0625 L 10.15625 -11.25 Z M 28.65625 -10.703125 C 28.65625 -10.460938 28.472656 -10.34375 28.109375 -10.34375 C 27.742188 -10.34375 27.441406 -10.28125 27.203125 -10.15625 L 27.203125 -10.515625 C 27.203125 -10.515625 27.203125 -10.632812 27.203125 -10.875 L 27.921875 -10.703125 Z M 23.9375 -9.796875 C 23.820312 -9.671875 23.640625 -9.609375 23.390625 -9.609375 L 23.390625 -10.15625 L 24.125 -9.96875 Z M 23.9375 -9.796875 "/></g></g></g><g fill="#000000" fill-opacity="1"><g transform="translate(391.94921, 447.749998)"><g><path d="M 32.640625 -127.140625 C 33.734375 -127.140625 34.609375 -126.742188 35.265625 -125.953125 C 35.929688 -125.171875 36.265625 -124.234375 36.265625 -123.140625 C 34.453125 -101.742188 33.125 -81.851562 32.28125 -63.46875 C 32.039062 -54.28125 31.921875 -47.507812 31.921875 -43.15625 L 31.375 -43.15625 C 30.769531 -43.15625 30.347656 -43.097656 30.109375 -42.984375 L 29.921875 -41.71875 L 30.28125 -41.71875 C 29.925781 -41.113281 29.265625 -40.628906 28.296875 -40.265625 C 29.378906 -39.773438 30.585938 -39.53125 31.921875 -39.53125 L 31.921875 -34.28125 L 31.015625 -34.28125 L 30.28125 -33.921875 L 29.75 -33.734375 C 29.75 -33.734375 29.625 -33.613281 29.375 -33.375 L 29.375 -32.640625 C 29.257812 -32.398438 29.203125 -32.097656 29.203125 -31.734375 C 29.203125 -31.015625 29.257812 -30.410156 29.375 -29.921875 L 30.109375 -30.46875 L 30.46875 -30.65625 L 31.375 -31.1875 C 31.5 -31.3125 31.5625 -31.613281 31.5625 -32.09375 L 31.734375 -32.28125 L 31.921875 -32.28125 C 31.796875 -31.070312 31.734375 -28.472656 31.734375 -24.484375 C 31.492188 -24.722656 31.191406 -24.722656 30.828125 -24.484375 C 30.828125 -24.003906 30.890625 -23.765625 31.015625 -23.765625 L 31.1875 -23.578125 L 31.1875 -23.390625 L 31.5625 -23.390625 L 31.5625 -23.578125 L 31.734375 -23.578125 L 31.734375 -16.859375 C 31.734375 -17.347656 31.492188 -17.773438 31.015625 -18.140625 L 29.5625 -18.140625 C 29.5625 -17.773438 29.625 -17.59375 29.75 -17.59375 L 29.75 -17.046875 L 29.921875 -16.859375 L 29.921875 -16.6875 C 30.410156 -16.5625 31.015625 -16.617188 31.734375 -16.859375 L 31.734375 -4.171875 C 31.734375 -1.753906 30.523438 -0.546875 28.109375 -0.546875 L 2 0 C 0.90625 0 0 -0.359375 -0.71875 -1.078125 C -1.445312 -1.804688 -1.8125 -2.71875 -1.8125 -3.8125 C -1.332031 -29.925781 -0.726562 -49.507812 0 -62.5625 C 0.726562 -78.28125 1.394531 -89.953125 2 -97.578125 C 2.113281 -97.453125 2.289062 -97.390625 2.53125 -97.390625 L 2.71875 -98.296875 C 2.59375 -98.421875 2.410156 -98.484375 2.171875 -98.484375 L 3.8125 -122.96875 C 3.925781 -125.257812 5.191406 -126.40625 7.609375 -126.40625 Z M 14.140625 -121.6875 C 14.390625 -122.050781 14.691406 -122.234375 15.046875 -122.234375 C 16.015625 -122.234375 16.679688 -121.8125 17.046875 -120.96875 C 17.410156 -120.125 17.773438 -119.640625 18.140625 -119.515625 C 18.378906 -119.753906 18.5 -120.175781 18.5 -120.78125 C 18.257812 -121.144531 18.5 -121.445312 19.21875 -121.6875 L 21.40625 -121.6875 C 21.40625 -122.175781 21.160156 -122.476562 20.671875 -122.59375 C 19.953125 -122.476562 19.53125 -122.476562 19.40625 -122.59375 C 19.28125 -122.71875 19.039062 -122.78125 18.6875 -122.78125 L 17.765625 -122.421875 C 17.410156 -122.054688 17.171875 -121.875 17.046875 -121.875 C 16.679688 -121.875 16.316406 -122.054688 15.953125 -122.421875 L 15.046875 -122.78125 L 12.515625 -122.78125 C 12.628906 -122.414062 12.566406 -122.113281 12.328125 -121.875 L 11.25 -121.875 C 10.882812 -122.476562 10.703125 -122.660156 10.703125 -122.421875 C 10.703125 -122.535156 10.582031 -122.472656 10.34375 -122.234375 L 9.96875 -121.515625 L 9.25 -121.515625 C 9.25 -121.515625 9.066406 -121.695312 8.703125 -122.0625 C 8.585938 -122.175781 8.40625 -122.414062 8.15625 -122.78125 C 7.675781 -122.78125 7.3125 -122.8125 7.0625 -122.875 C 6.820312 -122.9375 6.644531 -122.96875 6.53125 -122.96875 C 6.53125 -122.84375 6.410156 -122.660156 6.171875 -122.421875 C 5.921875 -122.296875 5.796875 -122.113281 5.796875 -121.875 C 5.796875 -121.144531 5.921875 -120.660156 6.171875 -120.421875 C 6.523438 -120.054688 6.644531 -119.269531 6.53125 -118.0625 L 5.984375 -116.4375 L 5.4375 -114.625 C 5.4375 -114.375 5.554688 -114.128906 5.796875 -113.890625 C 6.046875 -113.648438 6.171875 -113.410156 6.171875 -113.171875 C 5.921875 -113.171875 5.796875 -113.109375 5.796875 -112.984375 C 5.441406 -112.617188 5.265625 -112.378906 5.265625 -112.265625 C 5.742188 -112.140625 5.863281 -111.710938 5.625 -110.984375 C 5.257812 -110.628906 5.078125 -110.269531 5.078125 -109.90625 C 5.078125 -108.695312 5.140625 -107.789062 5.265625 -107.1875 L 5.625 -105.1875 C 5.625 -104.945312 5.441406 -104.707031 5.078125 -104.46875 L 5.4375 -104.46875 L 5.625 -104.28125 C 6.34375 -104.644531 7.003906 -104.828125 7.609375 -104.828125 L 7.609375 -106.453125 C 7.253906 -106.578125 6.953125 -106.847656 6.703125 -107.265625 C 6.460938 -107.691406 6.40625 -108.023438 6.53125 -108.265625 L 8.15625 -108.8125 L 9.4375 -109.359375 C 9.070312 -109.597656 8.890625 -109.78125 8.890625 -109.90625 C 8.890625 -110.507812 9.375 -110.8125 10.34375 -110.8125 C 10.09375 -111.050781 9.96875 -111.234375 9.96875 -111.359375 L 9.796875 -111.71875 C 10.515625 -112.445312 10.875 -112.8125 10.875 -112.8125 C 10.875 -113.050781 10.753906 -113.289062 10.515625 -113.53125 L 10.15625 -114.25 C 10.632812 -114.738281 11.117188 -114.984375 11.609375 -114.984375 L 13.421875 -115.34375 C 12.210938 -115.34375 11.609375 -115.582031 11.609375 -116.0625 C 11.609375 -116.3125 11.847656 -116.585938 12.328125 -116.890625 C 12.816406 -117.191406 13.363281 -117.34375 13.96875 -117.34375 C 13.476562 -117.707031 13.359375 -118.128906 13.609375 -118.609375 C 13.484375 -118.609375 13.296875 -118.695312 13.046875 -118.875 C 12.804688 -119.0625 12.6875 -119.273438 12.6875 -119.515625 C 12.6875 -119.878906 13.113281 -120.242188 13.96875 -120.609375 C 14.207031 -120.847656 14.207031 -121.023438 13.96875 -121.140625 C 13.96875 -121.390625 14.023438 -121.570312 14.140625 -121.6875 Z M 14.515625 -116.796875 C 14.515625 -116.671875 14.632812 -116.609375 14.875 -116.609375 C 15.84375 -116.609375 16.445312 -116.734375 16.6875 -116.984375 L 16.859375 -117.34375 L 16.859375 -117.890625 C 16.859375 -118.242188 16.921875 -118.484375 17.046875 -118.609375 C 16.566406 -118.609375 16.328125 -118.488281 16.328125 -118.25 C 16.078125 -117.757812 15.953125 -117.457031 15.953125 -117.34375 C 15.597656 -116.851562 15.117188 -116.671875 14.515625 -116.796875 Z M 7.796875 -98.296875 C 7.316406 -98.898438 7.132812 -99.441406 7.25 -99.921875 C 7.25 -100.523438 7.550781 -100.953125 8.15625 -101.203125 C 8.519531 -101.203125 8.945312 -101.441406 9.4375 -101.921875 C 9.3125 -102.648438 8.828125 -103.015625 7.984375 -103.015625 C 7.253906 -102.890625 6.523438 -102.890625 5.796875 -103.015625 C 5.796875 -102.648438 5.675781 -102.316406 5.4375 -102.015625 C 5.195312 -101.710938 5.015625 -101.5 4.890625 -101.375 C 5.253906 -101.132812 5.492188 -100.894531 5.609375 -100.65625 C 5.734375 -100.414062 5.675781 -100.113281 5.4375 -99.75 L 5.265625 -98.65625 L 5.4375 -97.203125 C 5.195312 -96.722656 5.078125 -96.363281 5.078125 -96.125 C 4.710938 -95.757812 4.710938 -95.457031 5.078125 -95.21875 C 5.078125 -95.09375 5.109375 -95 5.171875 -94.9375 C 5.234375 -94.875 5.320312 -94.785156 5.4375 -94.671875 C 5.5625 -94.671875 5.742188 -94.550781 5.984375 -94.3125 L 5.078125 -81.96875 C 4.234375 -81.488281 3.929688 -81.25 4.171875 -81.25 C 4.410156 -81.25 4.710938 -81.066406 5.078125 -80.703125 C 4.953125 -80.335938 4.648438 -80.097656 4.171875 -79.984375 L 3.984375 -78.34375 C 4.710938 -77.976562 4.957031 -77.738281 4.71875 -77.625 L 4.171875 -77.078125 L 5.078125 -76.359375 L 4.53125 -68.546875 C 4.050781 -68.191406 3.8125 -67.832031 3.8125 -67.46875 C 3.8125 -67.226562 4.050781 -66.863281 4.53125 -66.375 C 4.53125 -66.375 4.5625 -66.34375 4.625 -66.28125 C 4.6875 -66.226562 4.71875 -66.203125 4.71875 -66.203125 C 4.71875 -65.953125 4.59375 -65.738281 4.34375 -65.5625 C 4.101562 -65.382812 3.863281 -65.234375 3.625 -65.109375 C 3.75 -64.742188 3.78125 -64.410156 3.71875 -64.109375 C 3.65625 -63.804688 3.441406 -63.59375 3.078125 -63.46875 C 3.804688 -62.988281 4.171875 -62.507812 4.171875 -62.03125 C 4.171875 -61.664062 4.109375 -61.332031 3.984375 -61.03125 C 3.867188 -60.726562 3.75 -60.457031 3.625 -60.21875 C 3.257812 -59.25 2.894531 -58.765625 2.53125 -58.765625 C 3.382812 -58.273438 3.8125 -57.910156 3.8125 -57.671875 C 3.8125 -57.671875 3.78125 -57.640625 3.71875 -57.578125 C 3.65625 -57.515625 3.625 -57.484375 3.625 -57.484375 L 3.625 -57.671875 C 3.257812 -57.304688 2.957031 -56.910156 2.71875 -56.484375 C 2.476562 -56.066406 2.359375 -55.738281 2.359375 -55.5 C 2.359375 -55.257812 2.414062 -55.078125 2.53125 -54.953125 C 2.78125 -54.828125 2.90625 -54.707031 2.90625 -54.59375 L 2.359375 -54.21875 C 2.722656 -54.101562 2.90625 -53.742188 2.90625 -53.140625 L 2.90625 -51.6875 C 2.90625 -51.6875 2.875 -51.59375 2.8125 -51.40625 C 2.75 -51.226562 2.65625 -50.898438 2.53125 -50.421875 C 2.53125 -50.296875 2.5 -50.171875 2.4375 -50.046875 C 2.382812 -49.929688 2.359375 -49.8125 2.359375 -49.6875 L 2.90625 -48.609375 C 3.144531 -48.359375 3.265625 -48.054688 3.265625 -47.703125 C 3.265625 -47.335938 3.144531 -47.035156 2.90625 -46.796875 C 2.539062 -46.304688 2.359375 -45.941406 2.359375 -45.703125 C 2.359375 -45.460938 2.414062 -45.34375 2.53125 -45.34375 L 2.53125 -44.984375 L 3.625 -44.984375 C 3.382812 -44.984375 3.265625 -45.160156 3.265625 -45.515625 C 3.140625 -45.640625 3.078125 -45.820312 3.078125 -46.0625 C 3.679688 -46.425781 4.164062 -46.609375 4.53125 -46.609375 C 4.289062 -46.972656 4.050781 -47.609375 3.8125 -48.515625 C 3.570312 -49.421875 3.453125 -50.238281 3.453125 -50.96875 C 3.453125 -51.207031 3.570312 -51.445312 3.8125 -51.6875 C 4.050781 -51.925781 4.171875 -52.769531 4.171875 -54.21875 L 4.53125 -55.671875 C 4.894531 -56.035156 4.894531 -56.28125 4.53125 -56.40625 C 4.414062 -56.519531 4.476562 -56.878906 4.71875 -57.484375 L 5.4375 -57.484375 C 5.070312 -59.054688 4.890625 -60.023438 4.890625 -60.390625 C 4.890625 -60.878906 5.007812 -61.425781 5.25 -62.03125 C 5.5 -62.632812 5.742188 -63.113281 5.984375 -63.46875 L 5.078125 -63.46875 L 5.078125 -63.296875 L 4.171875 -63.296875 C 4.171875 -63.410156 4.050781 -63.46875 3.8125 -63.46875 L 5.265625 -64.921875 C 5.742188 -65.410156 5.984375 -65.773438 5.984375 -66.015625 L 5.625 -67.640625 C 5.257812 -68.492188 5.257812 -69.28125 5.625 -70 L 7.078125 -70 C 6.109375 -70 5.625 -70.300781 5.625 -70.90625 C 5.625 -71.269531 5.863281 -71.9375 6.34375 -72.90625 C 6.832031 -73.75 7.078125 -74.472656 7.078125 -75.078125 L 6.890625 -76.890625 C 6.765625 -77.015625 6.703125 -77.257812 6.703125 -77.625 C 6.460938 -78.101562 6.34375 -78.644531 6.34375 -79.25 L 6.171875 -80.15625 C 6.171875 -80.40625 6.289062 -80.707031 6.53125 -81.0625 C 6.894531 -82.269531 7.015625 -82.816406 6.890625 -82.703125 C 6.890625 -82.941406 7.007812 -83.546875 7.25 -84.515625 L 7.4375 -85.234375 C 7.4375 -85.359375 7.316406 -85.785156 7.078125 -86.515625 C 6.710938 -87.597656 6.710938 -88.257812 7.078125 -88.5 C 7.191406 -88.738281 7.429688 -88.984375 7.796875 -89.234375 C 7.921875 -89.710938 7.984375 -90.554688 7.984375 -91.765625 C 7.984375 -92.972656 8.285156 -93.695312 8.890625 -93.9375 C 7.921875 -94.539062 7.800781 -95.085938 8.53125 -95.578125 L 7.984375 -96.484375 C 8.222656 -96.847656 8.160156 -97.453125 7.796875 -98.296875 Z M 25.578125 -97.390625 C 25.578125 -97.390625 25.394531 -97.207031 25.03125 -96.84375 L 26.109375 -96.84375 Z M 28.84375 -95.75 L 30.109375 -96.484375 L 29.015625 -96.84375 C 28.535156 -96.363281 28.296875 -96.125 28.296875 -96.125 Z M 31.1875 -79.796875 C 31.070312 -79.796875 31.015625 -79.859375 31.015625 -79.984375 L 30.65625 -79.984375 L 30.28125 -79.796875 C 30.28125 -79.796875 30.25 -79.765625 30.1875 -79.703125 C 30.132812 -79.640625 30.109375 -79.609375 30.109375 -79.609375 C 30.109375 -79.609375 30.078125 -79.578125 30.015625 -79.515625 C 29.953125 -79.460938 29.863281 -79.4375 29.75 -79.4375 L 30.46875 -79.25 C 30.59375 -79.132812 30.742188 -79.101562 30.921875 -79.15625 C 31.097656 -79.21875 31.1875 -79.3125 31.1875 -79.4375 Z M 28.109375 -73.8125 C 27.628906 -74.289062 27.023438 -74.53125 26.296875 -74.53125 C 26.296875 -74.050781 26.476562 -73.628906 26.84375 -73.265625 Z M 26.484375 -68.546875 L 26.484375 -69.09375 L 25.75 -69.09375 L 25.75 -68.546875 Z M 21.21875 -67.46875 L 21.40625 -68.546875 C 20.675781 -68.546875 20.191406 -68.1875 19.953125 -67.46875 Z M 27.390625 -66.203125 L 26.84375 -66.734375 L 25.578125 -66.734375 L 25.390625 -66.015625 C 25.390625 -65.410156 25.8125 -65.109375 26.65625 -65.109375 L 26.84375 -65.296875 C 26.957031 -65.410156 27.046875 -65.5 27.109375 -65.5625 C 27.171875 -65.625 27.203125 -65.710938 27.203125 -65.828125 Z M 23.765625 -64.5625 L 24.125 -64.75 L 24.296875 -64.921875 C 24.785156 -65.285156 25.03125 -65.585938 25.03125 -65.828125 C 25.144531 -66.191406 24.84375 -66.375 24.125 -66.375 L 23.9375 -66.015625 L 23.9375 -65.46875 Z M 22.125 -61.65625 L 21.40625 -62.03125 L 21.03125 -60.578125 L 21.9375 -59.84375 L 22.84375 -60.390625 C 23.332031 -60.628906 23.578125 -60.8125 23.578125 -60.9375 C 23.578125 -61.0625 23.484375 -61.179688 23.296875 -61.296875 C 23.117188 -61.421875 22.96875 -61.484375 22.84375 -61.484375 Z M 27.203125 -58.390625 L 27.203125 -58.9375 L 26.109375 -58.9375 L 26.109375 -58.390625 Z M 25.390625 -56.953125 C 25.265625 -56.953125 25.203125 -57.070312 25.203125 -57.3125 L 23.9375 -57.3125 L 23.9375 -56.40625 L 25.390625 -56.40625 Z M 27.390625 -52.59375 C 26.898438 -53.070312 26.414062 -53.3125 25.9375 -53.3125 C 25.445312 -53.195312 25.203125 -52.835938 25.203125 -52.234375 L 25.9375 -52.234375 C 26.050781 -52.109375 26.289062 -52.046875 26.65625 -52.046875 Z M 30.828125 -50.59375 C 30.585938 -51.320312 30.101562 -51.566406 29.375 -51.328125 C 29.019531 -50.960938 28.960938 -50.78125 29.203125 -50.78125 L 29.203125 -50.234375 Z M 25.390625 -48.421875 C 25.148438 -48.296875 24.785156 -48.203125 24.296875 -48.140625 C 23.816406 -48.085938 23.273438 -47.941406 22.671875 -47.703125 L 22.671875 -46.96875 C 22.671875 -46.96875 22.695312 -46.9375 22.75 -46.875 C 22.8125 -46.820312 22.84375 -46.796875 22.84375 -46.796875 L 23.21875 -46.796875 L 23.390625 -46.609375 L 25.03125 -46.609375 L 25.03125 -47.515625 C 25.75 -47.515625 26.234375 -47.578125 26.484375 -47.703125 C 26.484375 -47.941406 26.421875 -48.117188 26.296875 -48.234375 L 26.109375 -48.609375 L 26.109375 -48.78125 L 26.296875 -49.6875 L 23.9375 -49.875 C 23.9375 -49.03125 24 -48.546875 24.125 -48.421875 Z M 23.21875 -46.25 C 23.21875 -46.125 22.972656 -46.0625 22.484375 -46.0625 L 22.671875 -46.25 C 22.429688 -46.488281 22.007812 -46.609375 21.40625 -46.609375 L 21.03125 -45.703125 L 21.40625 -45.703125 C 21.40625 -45.703125 21.429688 -45.671875 21.484375 -45.609375 C 21.546875 -45.546875 21.578125 -45.515625 21.578125 -45.515625 C 21.703125 -45.515625 21.882812 -45.394531 22.125 -45.15625 L 22.484375 -45.703125 L 22.84375 -45.515625 C 22.84375 -45.273438 22.96875 -45.15625 23.21875 -45.15625 L 24.484375 -45.34375 C 24.484375 -45.945312 24.0625 -46.25 23.21875 -46.25 Z M 22.484375 -43.890625 L 22.484375 -43.703125 L 22.671875 -43.53125 L 24.125 -43.53125 C 23.757812 -44.007812 23.09375 -44.25 22.125 -44.25 C 22.363281 -44.125 22.425781 -44.003906 22.3125 -43.890625 Z M 3.453125 -43.53125 C 2.835938 -42.675781 2.53125 -42.375 2.53125 -42.625 C 2.175781 -42.257812 2 -41.957031 2 -41.71875 L 1.8125 -35.546875 C 1.8125 -35.671875 1.929688 -36.210938 2.171875 -37.171875 C 2.171875 -37.898438 2.203125 -38.382812 2.265625 -38.625 C 2.328125 -38.875 2.359375 -39.054688 2.359375 -39.171875 C 2.359375 -39.296875 2.476562 -39.71875 2.71875 -40.4375 C 3.082031 -40.800781 3.265625 -41.101562 3.265625 -41.34375 Z M 25.75 -42.625 L 25.9375 -42.4375 L 26.109375 -42.078125 L 26.484375 -41.890625 C 26.484375 -41.773438 26.539062 -41.71875 26.65625 -41.71875 C 26.78125 -41.71875 26.84375 -41.773438 26.84375 -41.890625 L 27.203125 -42.25 C 27.203125 -42.5 27.140625 -42.679688 27.015625 -42.796875 C 27.015625 -42.796875 26.953125 -42.828125 26.828125 -42.890625 C 26.710938 -42.953125 26.65625 -43.039062 26.65625 -43.15625 L 26.296875 -43.15625 L 26.109375 -43.53125 L 24.84375 -43.53125 L 24.125 -42.984375 L 24.84375 -42.4375 L 25.203125 -42.4375 L 25.390625 -42.625 Z M 22.125 -42.25 L 22.125 -41.71875 L 23.21875 -42.078125 L 23.03125 -42.796875 Z M 31.921875 -41.71875 L 31.921875 -39.53125 C 31.679688 -39.78125 31.5625 -39.90625 31.5625 -39.90625 L 31.1875 -40.078125 L 31.1875 -40.265625 C 31.4375 -40.265625 31.5625 -40.445312 31.5625 -40.8125 L 31.5625 -41.71875 Z M 23.578125 -40.4375 C 23.335938 -40.4375 22.972656 -40.195312 22.484375 -39.71875 L 23.03125 -39.171875 C 23.519531 -39.171875 23.941406 -39.351562 24.296875 -39.71875 C 24.421875 -40.195312 24.179688 -40.4375 23.578125 -40.4375 Z M 19.40625 -37.546875 C 19.53125 -37.054688 19.832031 -36.8125 20.3125 -36.8125 C 20.550781 -36.8125 20.671875 -36.875 20.671875 -37 L 21.03125 -37 L 21.40625 -37.171875 L 21.578125 -38.265625 L 21.03125 -38.625 C 20.789062 -38.625 20.613281 -38.6875 20.5 -38.8125 C 20.132812 -38.8125 19.953125 -38.992188 19.953125 -39.359375 L 18.859375 -39.359375 L 18.5 -39.171875 L 18.5 -39 L 18.140625 -38.8125 L 17.953125 -38.625 C 18.316406 -38.257812 18.617188 -38.078125 18.859375 -38.078125 Z M 25.75 -38.265625 L 22.484375 -38.625 L 22.484375 -37.71875 Z M 17.765625 -34.640625 C 18.128906 -34.273438 18.613281 -34.09375 19.21875 -34.09375 L 19.765625 -35.359375 L 18.140625 -35.359375 Z M 25.390625 -33.734375 C 25.867188 -34.097656 26.109375 -34.460938 26.109375 -34.828125 C 25.867188 -35.066406 25.445312 -35.1875 24.84375 -35.1875 L 24.671875 -35.1875 C 24.066406 -34.820312 23.765625 -34.519531 23.765625 -34.28125 C 23.765625 -33.914062 23.941406 -33.734375 24.296875 -33.734375 Z M 29.203125 -34.28125 C 29.078125 -34.394531 28.710938 -34.453125 28.109375 -34.453125 C 27.503906 -33.847656 27.320312 -33.363281 27.5625 -33 C 28.289062 -32.882812 28.835938 -33.007812 29.203125 -33.375 Z M 1.265625 -32.28125 C 1.753906 -32.28125 2 -32.398438 2 -32.640625 C 2 -33.367188 1.9375 -33.734375 1.8125 -33.734375 C 1.445312 -33.367188 1.265625 -32.882812 1.265625 -32.28125 Z M 19.21875 -30.28125 C 19.46875 -30.28125 19.648438 -30.34375 19.765625 -30.46875 L 20.125 -30.65625 L 20.5 -31.015625 L 18.6875 -31.375 L 18.859375 -30.828125 C 18.859375 -30.460938 18.976562 -30.28125 19.21875 -30.28125 Z M 18.140625 -31.015625 L 15.953125 -30.65625 L 18.140625 -30.109375 Z M 23.03125 -29.75 L 23.9375 -29.75 L 24.125 -30.46875 L 23.21875 -30.46875 Z M 20.859375 -27.5625 C 20.859375 -27.5625 20.828125 -27.53125 20.765625 -27.46875 C 20.703125 -27.414062 20.671875 -27.390625 20.671875 -27.390625 C 20.910156 -27.023438 21.515625 -26.84375 22.484375 -26.84375 C 22.722656 -26.84375 23.023438 -27.082031 23.390625 -27.5625 L 24.84375 -27.5625 L 25.03125 -27.75 L 25.03125 -27.921875 L 25.203125 -28.296875 L 23.578125 -28.65625 C 23.453125 -28.53125 23.390625 -28.347656 23.390625 -28.109375 L 23.21875 -28.109375 L 23.03125 -28.296875 L 22.3125 -28.296875 C 21.820312 -28.296875 21.519531 -28.171875 21.40625 -27.921875 C 21.28125 -27.921875 21.1875 -27.859375 21.125 -27.734375 C 21.0625 -27.617188 21.03125 -27.5625 21.03125 -27.5625 Z M 29.203125 -27.390625 L 29.5625 -27.203125 L 29.5625 -27.015625 L 29.921875 -27.015625 L 30.28125 -26.84375 C 31.25 -26.84375 31.734375 -27.203125 31.734375 -27.921875 L 30.46875 -28.109375 Z M 17.046875 -27.921875 L 16.328125 -27.390625 C 16.679688 -27.023438 17.101562 -26.84375 17.59375 -26.84375 L 17.953125 -27.015625 L 18.3125 -27.203125 L 18.859375 -27.390625 Z M 25.75 -27.390625 L 26.84375 -27.390625 L 26.84375 -27.921875 L 25.75 -27.921875 Z M 20.5 -26.484375 C 20.25 -26.234375 20.125 -26.050781 20.125 -25.9375 L 22.125 -25.75 L 22.125 -26.484375 L 20.671875 -26.84375 C 20.671875 -26.601562 20.613281 -26.484375 20.5 -26.484375 Z M 28.46875 -26.65625 L 28.46875 -26.84375 L 27.203125 -26.84375 L 27.203125 -25.75 L 28.65625 -25.9375 L 28.65625 -26.484375 Z M 25.390625 -24.296875 L 25.03125 -25.578125 C 24.0625 -25.210938 23.394531 -24.847656 23.03125 -24.484375 C 23.15625 -24.359375 23.519531 -24.296875 24.125 -24.296875 Z M 15.953125 -24.296875 L 17.59375 -24.296875 L 17.59375 -24.84375 L 15.953125 -24.84375 Z M 24.296875 -23.21875 L 24.296875 -22.671875 L 25.390625 -22.671875 L 25.390625 -23.21875 Z M 28.46875 -21.578125 C 29.195312 -21.941406 29.195312 -22.304688 28.46875 -22.671875 L 28.296875 -22.484375 L 27.75 -22.484375 C 27.75 -22.117188 27.867188 -21.9375 28.109375 -21.9375 Z M 17.046875 -21.03125 C 17.410156 -20.789062 17.53125 -20.613281 17.40625 -20.5 L 18.5 -20.5 C 18.863281 -20.738281 19.046875 -20.914062 19.046875 -21.03125 L 19.21875 -21.03125 C 19.21875 -21.15625 19.28125 -21.25 19.40625 -21.3125 C 19.53125 -21.375 19.59375 -21.40625 19.59375 -21.40625 C 19.34375 -21.40625 19.21875 -21.460938 19.21875 -21.578125 L 18.3125 -21.578125 C 17.46875 -21.816406 16.984375 -22 16.859375 -22.125 C 16.859375 -21.882812 16.800781 -21.703125 16.6875 -21.578125 C 16.6875 -21.578125 16.6875 -21.515625 16.6875 -21.390625 C 16.6875 -21.273438 16.6875 -21.21875 16.6875 -21.21875 L 16.859375 -21.03125 Z M 26.84375 -19.765625 C 27.320312 -19.523438 27.804688 -19.40625 28.296875 -19.40625 C 28.773438 -19.40625 29.078125 -19.46875 29.203125 -19.59375 L 29.375 -19.59375 L 29.375 -21.03125 C 29.019531 -21.03125 28.71875 -21.15625 28.46875 -21.40625 C 28.351562 -21.28125 28.203125 -21.21875 28.015625 -21.21875 C 27.835938 -21.21875 27.6875 -21.15625 27.5625 -21.03125 L 27.390625 -21.40625 L 26.84375 -21.21875 C 26.601562 -20.976562 26.601562 -20.492188 26.84375 -19.765625 Z M 1.09375 -19.765625 L 0.359375 -19.21875 L 0.90625 -18.6875 Z M 25.9375 -18.859375 L 26.484375 -18.5 L 27.203125 -19.40625 L 26.484375 -19.59375 Z M 22.125 -17.40625 C 22.726562 -17.40625 23.332031 -17.523438 23.9375 -17.765625 C 24.539062 -18.015625 24.90625 -18.378906 25.03125 -18.859375 L 24.125 -18.859375 C 23.15625 -18.859375 22.488281 -18.617188 22.125 -18.140625 Z M 23.390625 -17.234375 C 23.023438 -16.742188 23.023438 -16.378906 23.390625 -16.140625 L 23.21875 -15.59375 L 23.390625 -15.421875 L 23.390625 -15.046875 L 24.296875 -14.875 L 24.84375 -16.859375 C 24.363281 -17.109375 23.878906 -17.234375 23.390625 -17.234375 Z M 26.109375 -15.046875 C 26.234375 -14.929688 26.535156 -14.875 27.015625 -14.875 L 27.5625 -14.6875 L 27.921875 -14.6875 C 28.285156 -14.6875 28.554688 -14.742188 28.734375 -14.859375 C 28.921875 -14.984375 29.015625 -15.226562 29.015625 -15.59375 L 27.390625 -15.59375 C 27.023438 -15.59375 26.597656 -15.710938 26.109375 -15.953125 L 25.75 -15.046875 Z M 19.765625 -15.234375 L 18.140625 -15.234375 L 18.140625 -14.515625 L 19.765625 -14.515625 Z M 28.65625 -13.609375 C 28.164062 -13.609375 27.707031 -13.363281 27.28125 -12.875 C 26.863281 -12.394531 26.597656 -12.09375 26.484375 -11.96875 L 27.921875 -11.609375 C 29.015625 -11.972656 29.742188 -12.640625 30.109375 -13.609375 Z M 26.109375 -13.0625 L 24.671875 -13.0625 C 24.671875 -12.9375 24.609375 -12.84375 24.484375 -12.78125 C 24.359375 -12.71875 24.296875 -12.6875 24.296875 -12.6875 L 23.9375 -11.96875 C 23.570312 -11.84375 23.332031 -11.601562 23.21875 -11.25 L 23.21875 -10.515625 C 23.9375 -10.515625 24.296875 -10.457031 24.296875 -10.34375 L 24.125 -9.609375 C 24.125 -9.128906 24.179688 -8.828125 24.296875 -8.703125 L 25.390625 -9.0625 L 25.9375 -9.609375 L 26.109375 -11.609375 L 25.203125 -11.78125 C 25.691406 -11.78125 25.992188 -11.84375 26.109375 -11.96875 Z M 27.390625 -9.796875 C 27.742188 -9.796875 28.285156 -10.035156 29.015625 -10.515625 C 28.773438 -10.753906 28.109375 -10.875 27.015625 -10.875 Z M 30.109375 -10.15625 L 28.84375 -10.15625 L 28.296875 -9.0625 L 29.75 -9.0625 C 29.988281 -9.3125 30.109375 -9.554688 30.109375 -9.796875 Z M 30.109375 -10.15625 "/></g></g></g><g fill="#000000" fill-opacity="1"><g transform="translate(431.483029, 447.749998)"><g><path d="M 82.515625 -126.40625 C 83.722656 -126.40625 84.691406 -126.039062 85.421875 -125.3125 C 86.148438 -124.59375 86.515625 -123.6875 86.515625 -122.59375 L 85.96875 -101.015625 C 85.726562 -98.722656 84.578125 -97.515625 82.515625 -97.390625 L 32.640625 -92.125 L 31.375 -77.078125 L 68.734375 -79.078125 L 68.734375 -61.296875 L 69.453125 -61.296875 L 69.453125 -79.078125 C 70.421875 -79.078125 71.296875 -78.710938 72.078125 -77.984375 C 72.867188 -77.253906 73.265625 -76.410156 73.265625 -75.453125 L 73.265625 -56.578125 C 73.265625 -54.523438 72.238281 -53.316406 70.1875 -52.953125 L 30.46875 -47.703125 L 29.5625 -32.640625 L 77.984375 -34.09375 C 79.066406 -34.09375 79.972656 -33.726562 80.703125 -33 C 81.429688 -32.28125 81.796875 -31.4375 81.796875 -30.46875 L 81.796875 -7.609375 C 81.796875 -5.316406 80.644531 -4.109375 78.34375 -3.984375 L 2 0 C 0.90625 0 0 -0.332031 -0.71875 -1 C -1.445312 -1.664062 -1.8125 -2.601562 -1.8125 -3.8125 C -1.570312 -21.707031 -1.03125 -40.328125 -0.1875 -59.671875 C 0.664062 -77.441406 2.179688 -97.453125 4.359375 -119.703125 C 4.710938 -121.878906 5.921875 -122.96875 7.984375 -122.96875 Z M 30.828125 -122.421875 L 31.1875 -122.421875 L 31.1875 -122.96875 L 30.828125 -122.96875 Z M 42.625 -121.328125 C 42.5 -121.203125 42.46875 -121.109375 42.53125 -121.046875 C 42.59375 -120.992188 42.742188 -120.96875 42.984375 -120.96875 C 42.742188 -120.96875 42.625 -121.085938 42.625 -121.328125 Z M 46.0625 -118.25 C 46.300781 -118.488281 46.421875 -118.726562 46.421875 -118.96875 C 46.421875 -119.457031 46.0625 -119.703125 45.34375 -119.703125 C 44.613281 -119.703125 44.066406 -119.457031 43.703125 -118.96875 L 43.15625 -118.25 C 43.519531 -118.488281 43.703125 -118.726562 43.703125 -118.96875 L 44.609375 -119.15625 C 45.335938 -119.03125 45.703125 -118.726562 45.703125 -118.25 L 45.703125 -117.515625 C 45.703125 -117.765625 45.820312 -118.007812 46.0625 -118.25 Z M 73.265625 -119.515625 L 72.90625 -119.515625 L 72.90625 -118.96875 L 73.265625 -118.96875 Z M 21.765625 -118.421875 L 25.578125 -118.421875 L 25.578125 -118.96875 L 21.765625 -118.96875 Z M 34.828125 -118.96875 L 32.28125 -118.96875 L 32.28125 -118.796875 L 31.921875 -118.796875 C 31.316406 -118.546875 31.015625 -118.363281 31.015625 -118.25 L 32.28125 -118.25 L 32.46875 -118.421875 L 34.828125 -118.421875 Z M 28.84375 -118.25 L 29.375 -118.25 L 29.375 -118.609375 L 28.84375 -118.609375 Z M 58.9375 -118.25 L 57.484375 -118.25 L 57.484375 -117.515625 L 58.9375 -117.515625 Z M 37.359375 -117.515625 C 37.117188 -117.515625 37 -117.210938 37 -116.609375 C 37 -116.609375 37.238281 -116.851562 37.71875 -117.34375 C 38.082031 -117.707031 37.960938 -117.765625 37.359375 -117.515625 Z M 49.328125 -116.984375 L 48.609375 -116.984375 L 48.609375 -116.609375 L 49.328125 -116.609375 Z M 20.125 -113.890625 L 20.3125 -113.171875 L 20.3125 -112.8125 L 21.03125 -112.8125 C 21.03125 -112.925781 21.15625 -113.101562 21.40625 -113.34375 C 21.644531 -113.59375 21.765625 -113.71875 21.765625 -113.71875 Z M 42.25 -111.359375 C 41.644531 -111.597656 41.34375 -111.835938 41.34375 -112.078125 L 41.34375 -112.265625 L 42.25 -113.171875 L 41.53125 -112.8125 L 41.171875 -112.8125 C 41.046875 -112.8125 40.953125 -112.78125 40.890625 -112.71875 C 40.835938 -112.65625 40.75 -112.625 40.625 -112.625 L 40.265625 -112.625 C 39.660156 -112.382812 39.175781 -111.898438 38.8125 -111.171875 L 39.171875 -110.8125 L 41.34375 -110.8125 C 41.46875 -110.8125 41.5625 -110.835938 41.625 -110.890625 C 41.6875 -110.953125 41.71875 -110.984375 41.71875 -110.984375 L 41.890625 -110.984375 Z M 48.421875 -110.8125 L 48.609375 -110.8125 L 48.78125 -110.625 L 48.96875 -111.171875 L 48.421875 -111.171875 Z M 38.078125 -109.546875 L 37.71875 -110.625 C 36.75 -110.257812 36.265625 -109.898438 36.265625 -109.546875 C 36.628906 -109.421875 36.875 -109.421875 37 -109.546875 Z M 46.0625 -108.09375 C 46.0625 -108.332031 45.757812 -108.691406 45.15625 -109.171875 L 44.609375 -108.09375 Z M 53.5 -107.90625 C 53.5 -108.03125 53.378906 -108.210938 53.140625 -108.453125 L 52.78125 -108.8125 C 51.8125 -108.445312 51.328125 -108.085938 51.328125 -107.734375 Z M 41.34375 -107.734375 C 40.625 -108.085938 40.082031 -108.265625 39.71875 -108.265625 C 39.113281 -108.265625 38.8125 -107.960938 38.8125 -107.359375 L 39.71875 -106.828125 L 40.265625 -106.640625 L 40.4375 -106.640625 C 40.6875 -106.640625 40.8125 -106.820312 40.8125 -107.1875 Z M 48.421875 -106.28125 C 48.660156 -106.03125 48.960938 -106.03125 49.328125 -106.28125 C 49.328125 -107 49.085938 -107.421875 48.609375 -107.546875 L 47.875 -107.359375 L 47.15625 -107.1875 L 47.515625 -106.28125 Z M 10.34375 -106.828125 L 10.15625 -106.828125 L 9.796875 -106.640625 L 10.15625 -106.453125 Z M 44.0625 -105.1875 C 44.425781 -105.1875 44.609375 -105.425781 44.609375 -105.90625 C 44.609375 -106.394531 44.304688 -106.640625 43.703125 -106.640625 L 43.34375 -106.453125 L 43.15625 -106.453125 L 42.984375 -106.28125 C 42.742188 -106.03125 42.625 -105.785156 42.625 -105.546875 L 42.796875 -105.1875 Z M 71.09375 -106.453125 L 70.734375 -106.453125 L 70.734375 -105.546875 L 71.09375 -105.546875 Z M 43.703125 -97.578125 L 43.34375 -97.578125 L 43.34375 -97.03125 L 43.703125 -97.03125 Z M 29.015625 -97.03125 C 28.773438 -97.03125 28.65625 -96.847656 28.65625 -96.484375 L 29.015625 -96.484375 L 29.203125 -96.671875 C 29.078125 -96.671875 29.015625 -96.789062 29.015625 -97.03125 Z M 27.921875 -88.140625 C 27.679688 -87.898438 27.5625 -87.78125 27.5625 -87.78125 L 28.46875 -87.59375 C 28.59375 -87.71875 28.59375 -88.019531 28.46875 -88.5 C 28.351562 -88.5 28.171875 -88.378906 27.921875 -88.140625 Z M 28.84375 -84.515625 L 29.015625 -84.6875 L 28.109375 -84.875 L 28.109375 -84.6875 Z M 29.921875 -77.265625 L 30.828125 -77.265625 L 30.828125 -78.171875 L 29.921875 -78.171875 Z M 30.46875 -74.90625 C 30.101562 -74.90625 29.863281 -74.960938 29.75 -75.078125 L 29.015625 -75.265625 L 28.84375 -75.078125 C 28.476562 -74.960938 28.296875 -74.722656 28.296875 -74.359375 C 28.296875 -73.753906 28.78125 -73.453125 29.75 -73.453125 C 30.101562 -73.453125 30.34375 -73.507812 30.46875 -73.625 Z M 44.25 -73.8125 L 44.4375 -73.8125 L 44.4375 -74 Z M 70.1875 -71.453125 C 70.550781 -71.453125 70.851562 -71.394531 71.09375 -71.28125 L 72 -71.09375 L 72.71875 -72 L 72.71875 -73.453125 C 72.601562 -73.566406 72.394531 -73.6875 72.09375 -73.8125 C 71.789062 -73.9375 71.519531 -74 71.28125 -74 L 70.1875 -73.265625 Z M 45.15625 -73.625 L 45.515625 -73.8125 L 45.15625 -73.8125 Z M 40.4375 -71.8125 L 41.34375 -71.09375 C 41.59375 -71.21875 41.742188 -71.429688 41.796875 -71.734375 C 41.859375 -72.035156 41.769531 -72.242188 41.53125 -72.359375 Z M 45.15625 -71.640625 L 45.890625 -71.28125 L 46.25 -72.359375 L 45.515625 -72.359375 Z M 34.453125 -70.375 C 35.179688 -70.613281 35.179688 -70.972656 34.453125 -71.453125 Z M 31.734375 -69.28125 L 32.46875 -68.546875 L 33.375 -68.375 L 33.546875 -68.546875 L 33.921875 -68.546875 L 33.921875 -69.453125 C 33.429688 -69.453125 33.066406 -69.578125 32.828125 -69.828125 L 32.46875 -69.640625 C 32.46875 -69.640625 32.4375 -69.609375 32.375 -69.546875 C 32.3125 -69.484375 32.28125 -69.453125 32.28125 -69.453125 Z M 40.4375 -69.453125 L 40.8125 -68.734375 L 42.078125 -68.734375 L 41.53125 -69.09375 L 40.8125 -69.640625 Z M 28.46875 -68.921875 C 28.351562 -69.035156 28.113281 -69.148438 27.75 -69.265625 C 27.382812 -69.390625 27.082031 -69.453125 26.84375 -69.453125 C 26.84375 -69.210938 27.023438 -68.972656 27.390625 -68.734375 C 27.628906 -68.492188 28.171875 -68.375 29.015625 -68.375 L 29.5625 -68.375 L 29.5625 -68.921875 Z M 40.078125 -66.734375 L 41.53125 -66.734375 C 41.769531 -66.859375 41.890625 -67.039062 41.890625 -67.28125 L 41.890625 -68.015625 L 40.4375 -68.015625 L 40.265625 -67.28125 Z M 27.203125 -65.65625 C 27.203125 -65.53125 27.234375 -65.4375 27.296875 -65.375 C 27.359375 -65.320312 27.445312 -65.351562 27.5625 -65.46875 L 28.109375 -65.65625 L 27.75 -65.828125 L 27.5625 -65.828125 C 27.320312 -65.828125 27.203125 -65.769531 27.203125 -65.65625 Z M 25.03125 -62.203125 C 25.632812 -62.203125 26.054688 -62.320312 26.296875 -62.5625 C 26.054688 -62.5625 25.816406 -62.6875 25.578125 -62.9375 L 25.390625 -63.109375 L 24.484375 -63.109375 C 24.117188 -62.742188 23.9375 -62.382812 23.9375 -62.03125 Z M 27.5625 -61.296875 C 26.957031 -61.296875 26.113281 -61.414062 25.03125 -61.65625 L 24.484375 -61.296875 L 25.03125 -60.578125 C 25.269531 -61.179688 25.570312 -61.363281 25.9375 -61.125 C 26.65625 -61.125 27.195312 -61.179688 27.5625 -61.296875 Z M 19.765625 -61.296875 C 19.398438 -61.179688 19.21875 -60.941406 19.21875 -60.578125 L 19.765625 -60.21875 L 20.5 -60.390625 C 20.5 -60.628906 20.675781 -60.8125 21.03125 -60.9375 L 20.5 -61.125 Z M 69.09375 -56.40625 L 69.828125 -57.3125 L 70.1875 -58.03125 L 69.828125 -59.296875 C 69.703125 -59.421875 69.457031 -59.96875 69.09375 -60.9375 Z M 27.390625 -58.03125 C 27.390625 -58.269531 27.75 -58.875 28.46875 -59.84375 L 27.75 -60.03125 L 27.015625 -60.03125 C 26.660156 -60.03125 26.300781 -59.910156 25.9375 -59.671875 L 24.484375 -59.125 C 24.847656 -59 25.179688 -58.875 25.484375 -58.75 C 25.785156 -58.632812 25.992188 -58.515625 26.109375 -58.390625 C 25.867188 -57.785156 25.8125 -57.363281 25.9375 -57.125 L 27.5625 -57.484375 Z M 22.484375 -58.390625 C 22.847656 -58.148438 23.148438 -58.148438 23.390625 -58.390625 L 23.21875 -58.578125 L 22.84375 -58.765625 L 22.484375 -58.578125 Z M 28.296875 -58.578125 C 28.410156 -58.210938 28.554688 -57.96875 28.734375 -57.84375 C 28.921875 -57.726562 29.195312 -57.671875 29.5625 -57.671875 C 29.6875 -57.671875 30.109375 -57.789062 30.828125 -58.03125 L 30.28125 -58.578125 Z M 22.84375 -58.03125 C 22.125 -57.664062 21.945312 -57.363281 22.3125 -57.125 L 22.484375 -56.40625 C 22.972656 -56.40625 23.335938 -56.523438 23.578125 -56.765625 C 23.578125 -57.242188 23.332031 -57.664062 22.84375 -58.03125 Z M 31.015625 -56.21875 L 30.109375 -56.21875 C 29.742188 -56.21875 29.5625 -56.097656 29.5625 -55.859375 C 29.5625 -55.617188 29.441406 -55.5 29.203125 -55.5 C 29.203125 -56.101562 29.019531 -56.460938 28.65625 -56.578125 L 27.5625 -56.578125 C 27.5625 -56.335938 27.679688 -56.21875 27.921875 -56.21875 L 28.46875 -55.671875 L 27.203125 -55.140625 L 26.296875 -54.40625 C 26.421875 -54.28125 26.570312 -54.21875 26.75 -54.21875 C 26.925781 -54.21875 27.078125 -54.160156 27.203125 -54.046875 L 28.65625 -54.046875 C 29.132812 -54.046875 29.921875 -54.285156 31.015625 -54.765625 Z M 24.484375 -55.5 C 24.117188 -55.5 23.816406 -55.285156 23.578125 -54.859375 C 23.335938 -54.429688 23.21875 -54.039062 23.21875 -53.6875 L 23.21875 -52.78125 C 23.820312 -52.289062 24.363281 -52.046875 24.84375 -52.046875 L 25.390625 -52.046875 L 25.9375 -52.40625 L 25.9375 -54.765625 L 25.203125 -55.3125 Z M 21.578125 -54.59375 C 21.460938 -54.59375 21.28125 -54.5 21.03125 -54.3125 C 20.789062 -54.132812 20.671875 -53.984375 20.671875 -53.859375 C 21.160156 -53.742188 21.582031 -53.742188 21.9375 -53.859375 Z M 61.84375 -53.5 L 64.015625 -53.5 L 64.015625 -54.046875 L 61.84375 -54.046875 Z M 30.109375 -52.953125 C 30.347656 -52.953125 30.46875 -53.132812 30.46875 -53.5 L 29.375 -53.5 L 29.015625 -52.953125 Z M 20.125 -52.78125 C 19.519531 -52.65625 19.21875 -52.410156 19.21875 -52.046875 L 20.125 -52.046875 C 20.25 -52.171875 20.25 -52.414062 20.125 -52.78125 Z M 28.46875 -51.6875 C 28.71875 -51.5625 29.082031 -51.5 29.5625 -51.5 C 29.5625 -51.863281 29.320312 -52.164062 28.84375 -52.40625 Z M 23.21875 -51.6875 C 22.726562 -51.207031 22.484375 -50.84375 22.484375 -50.59375 L 24.125 -50.421875 L 24.484375 -51.140625 C 24.242188 -51.378906 24.125 -51.5625 24.125 -51.6875 Z M 26.296875 -50.234375 L 26.109375 -51.328125 C 25.503906 -51.328125 25.203125 -51.082031 25.203125 -50.59375 L 25.203125 -49.875 Z M 29.75 -49.875 C 29.75 -50.113281 29.625 -50.234375 29.375 -50.234375 L 29.015625 -50.59375 C 28.773438 -50.476562 28.234375 -50.421875 27.390625 -50.421875 L 26.65625 -50.234375 L 26.296875 -50.0625 L 27.203125 -49.328125 C 27.929688 -49.566406 28.351562 -49.6875 28.46875 -49.6875 Z M 26.84375 -48.0625 L 27.390625 -48.421875 L 25.9375 -48.78125 L 25.9375 -48.0625 Z M 25.578125 -48.0625 C 25.085938 -48.300781 24.601562 -48.421875 24.125 -48.421875 L 24.484375 -47.703125 C 24.960938 -47.703125 25.328125 -47.820312 25.578125 -48.0625 Z M 23.390625 -46.96875 C 23.390625 -46.851562 23.269531 -46.671875 23.03125 -46.421875 L 25.03125 -46.25 C 25.269531 -46.25 25.390625 -46.429688 25.390625 -46.796875 Z M 21.578125 -45.703125 C 21.816406 -45.335938 22.179688 -45.15625 22.671875 -45.15625 L 21.9375 -46.609375 L 20.671875 -46.421875 Z M 24.671875 -44.0625 C 24.421875 -44.550781 24.359375 -44.859375 24.484375 -44.984375 C 24.609375 -45.335938 24.609375 -45.578125 24.484375 -45.703125 L 23.9375 -45.15625 C 23.820312 -45.15625 23.765625 -45.035156 23.765625 -44.796875 L 23.765625 -44.0625 Z M 28.296875 -44.4375 C 28.898438 -44.4375 29.203125 -44.675781 29.203125 -45.15625 L 28.296875 -45.15625 Z M 18.6875 -44.984375 C 18.320312 -44.859375 18.140625 -44.675781 18.140625 -44.4375 L 19.21875 -44.0625 C 19.21875 -44.3125 19.28125 -44.492188 19.40625 -44.609375 L 19.59375 -44.796875 Z M 23.765625 -43.703125 L 23.765625 -42.984375 L 24.296875 -42.984375 L 24.296875 -43.703125 Z M 24.671875 -43.34375 C 24.671875 -43.101562 24.726562 -42.984375 24.84375 -42.984375 L 25.03125 -42.625 L 26.296875 -42.984375 C 26.171875 -42.984375 26.109375 -43.101562 26.109375 -43.34375 L 26.109375 -43.53125 C 25.867188 -43.53125 25.6875 -43.5 25.5625 -43.4375 C 25.445312 -43.375 25.328125 -43.34375 25.203125 -43.34375 Z M 27.5625 -41.71875 L 26.484375 -41.71875 L 26.484375 -40.984375 L 27.5625 -40.984375 Z M 17.234375 -40.625 C 16.984375 -40.257812 17.039062 -39.894531 17.40625 -39.53125 C 18.007812 -39.78125 18.3125 -40.144531 18.3125 -40.625 Z M 21.03125 -39.359375 L 21.40625 -39.171875 C 21.644531 -39.171875 21.820312 -39.234375 21.9375 -39.359375 L 21.765625 -40.265625 L 21.40625 -40.265625 C 21.40625 -40.265625 21.375 -40.234375 21.3125 -40.171875 C 21.25 -40.109375 21.21875 -40.078125 21.21875 -40.078125 L 20.859375 -40.078125 L 20.859375 -39.359375 Z M 17.234375 -36.453125 C 17.710938 -36.453125 18.015625 -36.515625 18.140625 -36.640625 C 18.140625 -36.753906 18.164062 -36.84375 18.21875 -36.90625 C 18.28125 -36.96875 18.375 -37.054688 18.5 -37.171875 L 17.953125 -37.546875 L 17.046875 -37.171875 Z M 22.484375 -36.8125 L 21.578125 -36.8125 L 21.578125 -36.640625 L 22.3125 -36.453125 Z M 19.59375 -34.640625 C 19.832031 -34.398438 20.132812 -34.28125 20.5 -34.28125 L 20.5 -34.828125 C 20.5 -34.828125 20.5 -35.003906 20.5 -35.359375 C 20.132812 -35.359375 19.832031 -35.117188 19.59375 -34.640625 Z M 35.546875 -27.75 L 37 -27.75 L 37 -28.109375 L 35.546875 -28.109375 Z M 42.796875 -27.5625 C 42.191406 -27.195312 41.890625 -27.015625 41.890625 -27.015625 C 42.253906 -26.898438 42.4375 -26.660156 42.4375 -26.296875 L 43.34375 -26.296875 C 43.582031 -26.535156 43.703125 -26.71875 43.703125 -26.84375 L 43.890625 -27.203125 L 43.53125 -28.109375 C 43.53125 -27.984375 43.46875 -27.859375 43.34375 -27.734375 C 43.21875 -27.617188 43.035156 -27.5625 42.796875 -27.5625 Z M 53.140625 -26.84375 L 53.5 -26.84375 L 53.6875 -27.203125 L 53.5 -27.390625 Z M 37.71875 -27.203125 L 36.640625 -27.203125 L 36.640625 -26.84375 L 37.71875 -26.84375 Z M 46.0625 -25.75 L 46.796875 -25.9375 C 46.796875 -26.050781 46.734375 -26.109375 46.609375 -26.109375 C 46.609375 -26.109375 46.488281 -26.234375 46.25 -26.484375 Z M 35.546875 -25.390625 L 35.90625 -25.03125 C 36.507812 -25.269531 36.628906 -25.507812 36.265625 -25.75 C 36.023438 -25.75 35.90625 -25.691406 35.90625 -25.578125 L 35.546875 -25.578125 Z M 41.890625 -25.03125 C 41.648438 -25.269531 41.347656 -25.390625 40.984375 -25.390625 L 41.34375 -24.125 C 41.34375 -24.125 41.375 -24.148438 41.4375 -24.203125 C 41.5 -24.265625 41.53125 -24.296875 41.53125 -24.296875 C 41.65625 -24.296875 41.71875 -24.421875 41.71875 -24.671875 C 41.832031 -24.671875 41.890625 -24.789062 41.890625 -25.03125 Z M 45.34375 -24.671875 C 44.738281 -24.421875 44.4375 -24.117188 44.4375 -23.765625 L 45.34375 -23.765625 C 45.34375 -24.003906 45.398438 -24.179688 45.515625 -24.296875 Z M 19.59375 -21.9375 L 19.59375 -20.859375 C 19.59375 -20.859375 19.710938 -20.976562 19.953125 -21.21875 L 20.671875 -21.9375 Z M 23.21875 -21.9375 C 23.21875 -21.582031 23.519531 -21.40625 24.125 -21.40625 L 24.125 -21.765625 C 24.125 -21.878906 24.179688 -21.9375 24.296875 -21.9375 Z M 32.640625 -21.40625 L 33 -20.671875 L 33.375 -20.671875 L 32.828125 -21.40625 Z M 50.0625 -20.859375 C 50.0625 -20.253906 50.363281 -19.953125 50.96875 -19.953125 L 51.328125 -20.5 L 51.5 -20.859375 Z M 43.703125 -20.5 L 43.34375 -20.5 L 43.15625 -19.953125 L 43.703125 -19.953125 Z M 37.90625 -19.40625 C 37.90625 -19.40625 37.929688 -19.4375 37.984375 -19.5 C 38.046875 -19.5625 38.078125 -19.59375 38.078125 -19.59375 L 37.71875 -19.953125 L 37.359375 -19.953125 L 37.71875 -19.21875 C 37.71875 -19.21875 37.75 -19.25 37.8125 -19.3125 C 37.875 -19.375 37.90625 -19.40625 37.90625 -19.40625 Z M 22.125 -17.40625 L 20.671875 -17.40625 L 20.671875 -16.5 L 22.125 -16.5 Z M 5.4375 -13.421875 C 5.4375 -14.023438 5.617188 -14.390625 5.984375 -14.515625 L 3.625 -14.515625 L 3.625 -13.421875 Z M 71.453125 -13.78125 L 73.625 -13.421875 L 73.625 -13.96875 L 71.8125 -14.515625 Z M 17.234375 -14.140625 L 15.234375 -14.140625 L 15.234375 -13.421875 L 17.234375 -13.421875 Z M 29.203125 -13.421875 L 29.203125 -12.515625 L 30.65625 -12.515625 L 30.65625 -13.421875 Z M 39.171875 -12.6875 C 39.054688 -12.445312 39 -11.96875 39 -11.25 L 39.171875 -10.34375 L 41.71875 -10.34375 L 42.078125 -11.0625 C 42.191406 -11.1875 42.25 -11.425781 42.25 -11.78125 L 41.34375 -12.6875 Z M 11.25 -11.78125 L 13.234375 -11.78125 L 13.234375 -12.515625 L 11.25 -12.515625 Z M 19.21875 -7.984375 C 19.582031 -8.097656 19.882812 -8.425781 20.125 -8.96875 C 20.375 -9.519531 20.5 -10.097656 20.5 -10.703125 C 20.5 -11.421875 20.316406 -11.960938 19.953125 -12.328125 C 19.710938 -12.328125 19.226562 -12.144531 18.5 -11.78125 C 18.976562 -10.695312 19.21875 -9.429688 19.21875 -7.984375 Z M 1.09375 -10.515625 C 1.207031 -10.148438 1.535156 -10 2.078125 -10.0625 C 2.628906 -10.125 3.023438 -10.273438 3.265625 -10.515625 Z M 8.703125 -9.796875 L 8.34375 -9.796875 L 8.34375 -10.515625 L 6.703125 -10.515625 L 6.703125 -9.796875 L 8.34375 -9.796875 L 8.34375 -9.0625 L 8.703125 -9.0625 Z M 27.5625 -9.4375 C 26.59375 -9.4375 25.929688 -9.375 25.578125 -9.25 L 24.484375 -8.890625 L 23.578125 -8.703125 C 23.816406 -8.585938 24.054688 -8.375 24.296875 -8.0625 C 24.546875 -7.757812 24.726562 -7.488281 24.84375 -7.25 C 25.445312 -7.613281 26.050781 -8.097656 26.65625 -8.703125 Z M 15.234375 -7.796875 C 15.472656 -8.160156 15.59375 -8.523438 15.59375 -8.890625 L 12.515625 -8.890625 L 12.515625 -7.25 C 13.484375 -7.25 14.328125 -7.128906 15.046875 -6.890625 Z M 48.421875 -7.984375 L 49.6875 -7.984375 L 49.6875 -8.34375 L 48.421875 -8.34375 Z M 71.453125 -5.625 C 71.453125 -5.257812 71.332031 -5.078125 71.09375 -5.078125 C 71.457031 -5.078125 71.820312 -5.257812 72.1875 -5.625 Z M 13.0625 -5.265625 L 11.609375 -5.265625 L 11.609375 -4.53125 L 13.0625 -4.53125 Z M 13.0625 -5.265625 "/></g></g></g><g fill="#000000" fill-opacity="1"><g transform="translate(525.239799, 447.749998)"><g><path d="M 87.421875 -124.78125 C 88.503906 -124.78125 89.378906 -124.382812 90.046875 -123.59375 C 90.710938 -122.8125 91.046875 -121.875 91.046875 -120.78125 C 89.109375 -100.59375 87.957031 -81.851562 87.59375 -64.5625 C 87.476562 -62.75 87.421875 -60.03125 87.421875 -56.40625 L 87.234375 -48.234375 L 86.328125 -48.234375 C 85.597656 -48.234375 85.175781 -48.175781 85.0625 -48.0625 C 84.9375 -47.9375 84.148438 -47.875 82.703125 -47.875 L 83.0625 -47.515625 L 82.703125 -47.15625 L 83.0625 -47.15625 L 83.78125 -47.328125 C 84.03125 -47.210938 84.640625 -47.15625 85.609375 -47.15625 L 86.875 -47.15625 C 87.113281 -47.15625 87.234375 -47.09375 87.234375 -46.96875 L 87.234375 -46.609375 L 86.328125 -46.609375 L 86.6875 -46.421875 L 86.328125 -46.0625 L 87.234375 -46.0625 C 87.109375 -36.875 87.046875 -23.148438 87.046875 -4.890625 C 87.046875 -2.359375 85.835938 -1.09375 83.421875 -1.09375 L 59.484375 -0.546875 C 57.796875 -0.546875 56.585938 -1.332031 55.859375 -2.90625 L 53.140625 -10.515625 L 53.3125 -10.515625 L 53.3125 -10.703125 L 52.953125 -10.703125 L 38.625 -48.78125 C 39.59375 -49.269531 40.320312 -49.695312 40.8125 -50.0625 L 39.90625 -49.875 L 39.53125 -50.0625 L 38.625 -49.875 L 38.265625 -49.6875 L 31.375 -67.828125 L 30.109375 -3.625 C 29.867188 -1.207031 28.597656 0 26.296875 0 L 1.8125 0 C 0.726562 0 -0.144531 -0.359375 -0.8125 -1.078125 C -1.476562 -1.804688 -1.8125 -2.71875 -1.8125 -3.8125 C -1.570312 -10.09375 -1.085938 -19.039062 -0.359375 -30.65625 L -0.1875 -35 C 1.144531 -57.726562 2.175781 -73.867188 2.90625 -83.421875 L 6.171875 -121.328125 C 6.285156 -123.503906 7.492188 -124.65625 9.796875 -124.78125 L 27.203125 -125.3125 C 31.066406 -125.5625 34.390625 -124.597656 37.171875 -122.421875 C 39.953125 -120.242188 42.191406 -117.21875 43.890625 -113.34375 L 44.0625 -113.171875 L 59.125 -73.8125 L 62.03125 -121.875 C 62.03125 -124.164062 63.296875 -125.3125 65.828125 -125.3125 Z M 21.03125 -99.390625 C 20.789062 -99.390625 20.550781 -99.207031 20.3125 -98.84375 L 21.40625 -98.296875 C 21.40625 -98.773438 21.28125 -99.140625 21.03125 -99.390625 Z M 18.859375 -89.953125 L 18.859375 -90.5 L 17.765625 -90.5 L 17.765625 -89.953125 Z M 21.765625 -89.046875 C 22.242188 -89.410156 22.484375 -89.832031 22.484375 -90.3125 L 21.40625 -90.3125 L 21.40625 -89.59375 C 21.644531 -89.351562 21.765625 -89.171875 21.765625 -89.046875 Z M 30.28125 -89.234375 C 29.675781 -89.835938 29.253906 -90.195312 29.015625 -90.3125 C 29.015625 -89.832031 29.132812 -89.347656 29.375 -88.859375 L 29.921875 -89.046875 Z M 26.109375 -87.953125 C 26.472656 -87.953125 26.957031 -88.132812 27.5625 -88.5 L 27.75 -88.859375 L 24.484375 -88.859375 L 24.484375 -89.40625 L 23.03125 -89.40625 L 23.03125 -88.6875 L 24.484375 -88.6875 L 24.484375 -88.859375 L 24.84375 -88.5 L 25.578125 -88.140625 C 25.578125 -88.015625 25.753906 -87.953125 26.109375 -87.953125 Z M 28.84375 -87.78125 L 29.203125 -88.328125 L 27.75 -88.6875 L 27.75 -88.140625 Z M 30.109375 -87.59375 C 30.710938 -87.59375 31.195312 -87.773438 31.5625 -88.140625 C 31.070312 -88.503906 30.644531 -88.6875 30.28125 -88.6875 C 30.039062 -88.445312 29.984375 -88.265625 30.109375 -88.140625 Z M 24.125 -87.421875 C 24.488281 -86.816406 25.03125 -86.691406 25.75 -87.046875 C 25.382812 -87.296875 24.84375 -87.421875 24.125 -87.421875 Z M 21.40625 -77.796875 L 21.40625 -77.078125 L 22.84375 -77.078125 L 22.84375 -77.796875 Z M 29.203125 -75.453125 L 31.015625 -75.453125 L 31.015625 -76.171875 L 29.203125 -76.171875 Z M 31.734375 -70.375 C 31.734375 -70.726562 31.3125 -71.085938 30.46875 -71.453125 C 30.707031 -70.484375 31.007812 -69.878906 31.375 -69.640625 Z M 44.609375 -71.09375 C 44.609375 -70.488281 44.515625 -70.09375 44.328125 -69.90625 C 44.148438 -69.726562 43.640625 -69.640625 42.796875 -69.640625 L 43.15625 -69.09375 L 45.515625 -70.734375 Z M 29.375 -69.640625 L 29.375 -70.734375 L 28.109375 -70.734375 L 28.109375 -69.640625 Z M 41.890625 -68.1875 L 41.890625 -69.28125 L 40.984375 -69.28125 L 40.984375 -68.1875 Z M 24.84375 -68.734375 C 25.332031 -68.128906 25.726562 -67.859375 26.03125 -67.921875 C 26.332031 -67.984375 26.539062 -68.253906 26.65625 -68.734375 Z M 44.25 -67.828125 C 44.25 -67.828125 44.25 -67.945312 44.25 -68.1875 L 43.890625 -68.546875 L 43.703125 -68.015625 L 44.0625 -67.28125 L 44.25 -67.28125 Z M 32.46875 -68.1875 C 33.550781 -67.820312 34.394531 -67.820312 35 -68.1875 Z M 28.46875 -66.734375 L 28.46875 -66.015625 L 30.28125 -66.015625 L 30.28125 -66.734375 Z M 22.84375 -64.921875 C 22.84375 -65.171875 22.722656 -65.535156 22.484375 -66.015625 L 22.484375 -66.375 C 21.640625 -66.375 21.035156 -66.191406 20.671875 -65.828125 L 20.671875 -64.921875 Z M 44.984375 -64.921875 L 45.703125 -64.921875 L 45.703125 -65.65625 L 44.984375 -65.65625 Z M 43.890625 -63.296875 L 43.890625 -63.84375 L 42.625 -63.84375 L 42.625 -63.296875 Z M 59.84375 -63.296875 L 60.21875 -63.84375 L 59.84375 -63.84375 L 59.671875 -63.46875 Z M 21.765625 -61.84375 C 22.128906 -62.082031 22.3125 -62.265625 22.3125 -62.390625 C 22.3125 -62.867188 21.765625 -63.171875 20.671875 -63.296875 L 20.671875 -62.203125 Z M 24.125 -61.65625 L 24.125 -62.390625 L 22.84375 -62.390625 L 22.84375 -61.65625 Z M 45.515625 -60.21875 C 45.273438 -60.9375 45.15625 -61.660156 45.15625 -62.390625 C 45.039062 -62.265625 44.953125 -62.171875 44.890625 -62.109375 C 44.828125 -62.054688 44.796875 -61.96875 44.796875 -61.84375 L 44.25 -61.296875 L 43.703125 -61.125 L 43.53125 -60.75 C 43.769531 -60.507812 43.890625 -60.332031 43.890625 -60.21875 L 44.25 -60.03125 Z M 38.453125 -59.296875 C 38.453125 -59.296875 38.421875 -59.328125 38.359375 -59.390625 C 38.296875 -59.453125 38.265625 -59.484375 38.265625 -59.484375 C 38.023438 -59.484375 37.785156 -59.601562 37.546875 -59.84375 C 37.296875 -59.84375 37.171875 -59.601562 37.171875 -59.125 L 37.171875 -58.765625 L 38.453125 -58.765625 Z M 21.9375 -59.125 C 21.332031 -58.757812 21.03125 -58.335938 21.03125 -57.859375 L 22.84375 -57.859375 Z M 69.09375 -59.125 L 69.09375 -58.578125 L 69.453125 -58.578125 L 69.453125 -59.125 Z M 26.484375 -57.484375 L 26.484375 -56.046875 L 27.5625 -56.046875 L 27.5625 -57.484375 Z M 18.140625 -57.3125 L 18.140625 -56.046875 L 19.59375 -56.046875 L 19.59375 -57.3125 Z M 45.890625 -54.40625 C 45.890625 -53.675781 46.429688 -53.3125 47.515625 -53.3125 L 47.515625 -54.40625 Z M 51.875 -52.046875 C 50.664062 -52.648438 49.816406 -52.953125 49.328125 -52.953125 C 49.328125 -52.347656 49.8125 -51.925781 50.78125 -51.6875 C 50.90625 -51.8125 51.085938 -51.875 51.328125 -51.875 Z M 45.34375 -50.78125 L 46.0625 -51.875 L 44.984375 -52.046875 L 44.4375 -51.140625 Z M 45.890625 -51.5 L 46.0625 -50.96875 L 48.234375 -51.5 L 47.875 -52.046875 Z M 64.921875 -51.140625 L 65.46875 -51.875 L 64.75 -52.046875 L 64.203125 -51.5 Z M 52.234375 -50.59375 L 52.046875 -51.328125 L 50.59375 -50.96875 L 50.78125 -50.421875 Z M 15.59375 -49.515625 C 16.320312 -49.515625 16.925781 -49.632812 17.40625 -49.875 L 17.046875 -50.96875 C 16.078125 -50.476562 15.59375 -49.992188 15.59375 -49.515625 Z M 43.890625 -50.0625 C 43.398438 -50.539062 42.976562 -50.84375 42.625 -50.96875 C 42.5 -50.601562 42.070312 -50.359375 41.34375 -50.234375 C 41.46875 -50.117188 41.648438 -50.0625 41.890625 -50.0625 L 42.25 -49.875 L 42.984375 -49.515625 L 43.53125 -49.6875 Z M 19.59375 -49.6875 L 19.59375 -48.96875 L 21.03125 -49.515625 L 20.671875 -50.234375 Z M 21.765625 -47.15625 C 20.671875 -47.757812 20.125 -48.0625 20.125 -48.0625 L 19.59375 -48.421875 L 17.765625 -48.78125 L 18.140625 -47.15625 Z M 46.25 -45.34375 C 46.125 -46.0625 45.757812 -46.421875 45.15625 -46.421875 C 45.039062 -46.304688 45.039062 -46.128906 45.15625 -45.890625 C 45.15625 -45.890625 45.1875 -45.859375 45.25 -45.796875 C 45.3125 -45.734375 45.34375 -45.703125 45.34375 -45.703125 Z M 64.203125 -45.515625 C 64.441406 -44.910156 64.679688 -44.550781 64.921875 -44.4375 C 65.171875 -44.550781 65.234375 -44.851562 65.109375 -45.34375 L 64.375 -45.34375 Z M 46.421875 -44.25 L 46.609375 -44.25 C 46.734375 -44.25 46.914062 -44.367188 47.15625 -44.609375 L 47.328125 -44.609375 L 47.515625 -44.796875 L 46.0625 -45.15625 L 46.0625 -44.0625 Z M 54.046875 -43.703125 L 53.6875 -44.984375 L 53.140625 -44.796875 L 53.140625 -43.703125 Z M 22.84375 -43.890625 L 22.84375 -44.796875 L 21.03125 -44.796875 L 21.03125 -43.890625 Z M 47.703125 -42.078125 L 48.609375 -41.71875 L 48.96875 -42.4375 L 48.0625 -42.625 Z M 22.125 -42.25 L 22.125 -40.984375 L 23.21875 -40.984375 L 23.21875 -42.25 Z M 45.515625 -40.984375 C 45.273438 -40.984375 45.09375 -40.890625 44.96875 -40.703125 C 44.851562 -40.523438 44.914062 -40.378906 45.15625 -40.265625 L 46.25 -40.4375 Z M 53.140625 -39.359375 C 53.015625 -39.234375 52.832031 -39.171875 52.59375 -39.171875 L 52.234375 -39.171875 C 52.234375 -39.054688 52.472656 -38.632812 52.953125 -37.90625 L 53.6875 -37 C 54.164062 -37.238281 54.523438 -37.476562 54.765625 -37.71875 C 54.890625 -37.84375 55.101562 -37.992188 55.40625 -38.171875 C 55.707031 -38.359375 55.976562 -38.570312 56.21875 -38.8125 L 55.140625 -38.625 L 54.765625 -38.625 L 54.40625 -38.453125 L 54.046875 -38.265625 C 53.804688 -38.503906 53.6875 -38.6875 53.6875 -38.8125 C 53.6875 -39.050781 53.5625 -39.234375 53.3125 -39.359375 Z M 48.609375 -38.625 L 48.234375 -39.171875 L 46.96875 -39 L 47.328125 -38.265625 Z M 21.03125 -38.078125 C 20.3125 -38.078125 19.953125 -38.019531 19.953125 -37.90625 C 19.710938 -37.78125 19.59375 -37.597656 19.59375 -37.359375 L 20.671875 -36.640625 L 21.03125 -37.546875 Z M 56.21875 -36.8125 L 55.671875 -36.640625 L 55.859375 -37 L 54.40625 -37 C 54.28125 -36.875 54.039062 -36.8125 53.6875 -36.8125 C 53.800781 -36.332031 54.039062 -36.09375 54.40625 -36.09375 L 54.765625 -35.734375 C 55.128906 -36.085938 55.3125 -36.265625 55.3125 -36.265625 L 56.953125 -36.265625 L 58.390625 -36.640625 L 58.03125 -37.171875 L 56.578125 -36.8125 Z M 59.484375 -35.1875 L 60.21875 -35.546875 L 59.671875 -36.640625 L 58.765625 -36.265625 Z M 45.703125 -35.734375 C 46.066406 -35.609375 46.609375 -35.609375 47.328125 -35.734375 C 46.972656 -36.210938 46.429688 -36.453125 45.703125 -36.453125 Z M 28.65625 -35.1875 L 28.65625 -34.09375 L 29.921875 -34.09375 L 29.921875 -35.1875 Z M 54.765625 -33.921875 C 55.492188 -33.429688 56.34375 -33.304688 57.3125 -33.546875 L 57.3125 -34.09375 C 57.3125 -34.582031 56.945312 -34.882812 56.21875 -35 L 54.765625 -34.640625 Z M 49.875 -33.734375 L 49.875 -34.640625 L 49.140625 -34.640625 L 49.140625 -33.734375 Z M 53.6875 -33.375 C 53.5625 -33.613281 53.347656 -33.765625 53.046875 -33.828125 C 52.742188 -33.890625 52.472656 -33.976562 52.234375 -34.09375 L 51.5 -34.28125 L 52.234375 -33 Z M 64.203125 -30.828125 C 64.929688 -30.585938 65.351562 -30.46875 65.46875 -30.46875 C 65.707031 -30.59375 65.796875 -30.773438 65.734375 -31.015625 C 65.679688 -31.253906 65.535156 -31.4375 65.296875 -31.5625 Z M 57.3125 -28.296875 L 58.03125 -28.46875 L 56.953125 -31.015625 L 56.21875 -30.828125 Z M 49.140625 -30.828125 L 49.140625 -29.921875 L 50.421875 -29.921875 L 50.421875 -30.828125 Z M 50.234375 -28.296875 C 49.992188 -28.535156 50.054688 -28.957031 50.421875 -29.5625 L 48.609375 -29.015625 C 48.609375 -28.773438 48.847656 -28.65625 49.328125 -28.65625 C 49.328125 -28.53125 49.445312 -28.46875 49.6875 -28.46875 Z M 62.203125 -25.390625 C 62.441406 -25.148438 62.6875 -25.03125 62.9375 -25.03125 L 64.375 -25.390625 C 62.925781 -26.117188 62.144531 -26.722656 62.03125 -27.203125 L 62.03125 -28.109375 C 62.03125 -28.109375 62.054688 -28.140625 62.109375 -28.203125 C 62.171875 -28.265625 62.203125 -28.296875 62.203125 -28.296875 L 62.03125 -28.46875 L 60.9375 -28.109375 C 60.9375 -27.984375 60.632812 -27.863281 60.03125 -27.75 L 59.671875 -27.390625 L 59.125 -27.015625 L 60.390625 -26.84375 L 61.484375 -26.65625 C 61.722656 -26.175781 61.960938 -25.753906 62.203125 -25.390625 Z M 55.859375 -26.84375 C 55.859375 -27.082031 55.492188 -27.382812 54.765625 -27.75 L 55.5 -26.109375 Z M 58.390625 -23.390625 C 59.359375 -23.640625 59.90625 -23.820312 60.03125 -23.9375 L 60.578125 -24.296875 L 60.9375 -24.671875 L 61.296875 -24.84375 L 60.75 -26.109375 L 60.03125 -26.109375 L 59.125 -26.484375 C 59.125 -26.234375 59.242188 -25.867188 59.484375 -25.390625 C 59.484375 -25.390625 59.515625 -25.359375 59.578125 -25.296875 C 59.640625 -25.234375 59.671875 -25.203125 59.671875 -25.203125 L 59.671875 -24.84375 C 59.910156 -24.726562 59.910156 -24.546875 59.671875 -24.296875 C 59.671875 -24.179688 59.519531 -24.0625 59.21875 -23.9375 C 58.914062 -23.820312 58.640625 -23.640625 58.390625 -23.390625 Z M 19.953125 -26.109375 L 19.953125 -24.84375 L 21.03125 -24.84375 L 21.03125 -26.109375 Z M 53.6875 -22.484375 L 54.40625 -22.125 L 58.390625 -24.296875 C 57.785156 -24.054688 57.125 -23.9375 56.40625 -23.9375 C 56.164062 -23.695312 55.742188 -23.578125 55.140625 -23.578125 C 54.171875 -23.335938 53.503906 -23.09375 53.140625 -22.84375 L 53.5 -22.671875 L 53.6875 -22.671875 Z M 67.640625 -24.296875 C 67.640625 -23.691406 67.550781 -23.328125 67.375 -23.203125 C 67.195312 -23.085938 66.679688 -23.03125 65.828125 -23.03125 L 66.203125 -22.3125 L 68.546875 -24.125 Z M 21.40625 -22.84375 C 22.363281 -23.207031 22.96875 -23.515625 23.21875 -23.765625 C 22.726562 -24.003906 22.125 -24.125 21.40625 -24.125 Z M 64.5625 -19.765625 L 65.46875 -19.59375 L 65.65625 -20.671875 L 64.75 -20.671875 Z M 23.578125 -20.3125 L 23.578125 -19.21875 L 25.390625 -19.21875 L 25.390625 -20.3125 Z M 61.125 -19.953125 L 60.03125 -18.859375 L 60.390625 -18.6875 C 60.515625 -18.6875 60.601562 -18.65625 60.65625 -18.59375 C 60.71875 -18.53125 60.75 -18.4375 60.75 -18.3125 L 62.390625 -18.6875 Z M 63.296875 -18.859375 C 62.929688 -18.378906 62.988281 -18.140625 63.46875 -18.140625 C 63.832031 -18.140625 64.078125 -18.195312 64.203125 -18.3125 L 64.015625 -18.5 C 63.773438 -18.5 63.535156 -18.617188 63.296875 -18.859375 Z M 65.296875 -17.40625 C 65.296875 -17.289062 65.113281 -17.234375 64.75 -17.234375 L 64.5625 -17.234375 L 63.84375 -16.140625 L 63.84375 -15.953125 L 64.015625 -15.953125 L 64.75 -17.046875 C 65.226562 -17.171875 65.710938 -17.171875 66.203125 -17.046875 L 66.375 -17.234375 Z M 68.546875 -17.234375 C 68.191406 -16.984375 67.890625 -16.679688 67.640625 -16.328125 L 67.46875 -16.328125 L 67.640625 -16.140625 C 67.890625 -16.617188 68.191406 -16.921875 68.546875 -17.046875 L 68.734375 -17.046875 Z M 56.578125 -13.96875 C 56.828125 -14.082031 57.070312 -14.320312 57.3125 -14.6875 L 55.5 -14.328125 L 55.140625 -14.328125 L 54.40625 -14.140625 C 54.894531 -13.785156 54.894531 -13.363281 54.40625 -12.875 C 55.25 -12.875 55.734375 -13.054688 55.859375 -13.421875 C 56.222656 -13.660156 56.460938 -13.835938 56.578125 -13.953125 C 56.703125 -14.078125 56.703125 -14.082031 56.578125 -13.96875 Z M 56.578125 -13.96875 "/></g></g></g><g clip-path="url(#31fe0cdb6b)"><g clip-path="url(#078be41eed)"><g clip-path="url(#a51e233326)"><path fill="#e4e2dd" d="M 561.640625 361.011719 C 561.890625 358.988281 562.152344 356.960938 562.417969 354.929688 C 563.015625 350.367188 563.628906 345.777344 564.046875 341.191406 C 564.398438 337.289062 566.460938 333.839844 570.277344 332.511719 C 571.550781 332.0625 572.914062 331.914062 574.257812 332.054688 C 575.59375 332.195312 576.898438 332.625 578.054688 333.320312 C 581.542969 335.398438 582.957031 339.203125 582.507812 343.136719 L 581.542969 351.582031 L 583.742188 344.25 C 583.761719 344.1875 583.773438 344.144531 583.796875 344.085938 L 583.835938 343.976562 C 583.859375 343.929688 583.878906 343.886719 583.898438 343.839844 C 585.589844 340.222656 589.199219 338.308594 593.121094 338.519531 C 594.386719 338.589844 595.648438 338.890625 596.8125 339.390625 C 597.976562 339.898438 599.046875 340.628906 599.882812 341.503906 L 599.929688 341.558594 C 599.953125 341.574219 599.96875 341.597656 599.992188 341.621094 C 602.578125 344.417969 602.75 348.085938 601.238281 351.460938 L 588.824219 390.324219 C 589.761719 391.394531 590.363281 392.664062 590.632812 394.125 C 590.972656 395.972656 590.71875 397.867188 590.339844 399.683594 C 590.058594 401.042969 589.8125 402.390625 589.570312 403.757812 L 589.199219 405.851562 C 587.144531 417.476562 579.894531 426.15625 568.160156 428.476562 C 564.25 429.253906 560.183594 429.210938 556.269531 428.484375 C 552.355469 427.761719 548.542969 426.335938 545.125 424.292969 C 535.40625 418.460938 530.144531 408.457031 532.226562 397.046875 L 536.375 374.316406 C 536.21875 371.070312 537.675781 368.160156 540.433594 366.382812 C 541.496094 365.695312 542.691406 365.21875 543.929688 364.984375 C 543.96875 364.976562 544 364.972656 544.039062 364.964844 L 544.066406 364.964844 C 545.261719 364.75 546.496094 364.746094 547.648438 364.976562 L 547.707031 364.984375 C 548.160156 365.074219 548.605469 365.195312 549.035156 365.351562 C 549.730469 363.886719 550.832031 362.648438 552.253906 361.726562 C 553.3125 361.046875 554.507812 360.578125 555.746094 360.332031 C 556.984375 360.097656 558.265625 360.085938 559.5 360.324219 C 560.253906 360.472656 560.96875 360.703125 561.640625 361.011719 " fill-opacity="1" fill-rule="evenodd"/></g></g></g><g clip-path="url(#0d45f94a6e)"><g clip-path="url(#159cb5f049)"><g clip-path="url(#81f1effd9e)"><path fill="#2b2b2b" d="M 563.339844 365.226562 C 563.695312 362.105469 564.140625 358.660156 564.582031 355.21875 C 565.21875 350.359375 565.847656 345.488281 566.21875 341.390625 C 566.558594 337.636719 568.578125 335.417969 570.996094 334.574219 C 571.976562 334.234375 573.015625 334.121094 574.03125 334.230469 C 575.046875 334.339844 576.042969 334.664062 576.933594 335.195312 C 579.179688 336.535156 580.765625 339.164062 580.335938 342.894531 L 576.582031 375.742188 L 585.835938 344.871094 L 585.882812 344.765625 C 587.265625 341.785156 590.183594 340.554688 593.003906 340.699219 C 594.015625 340.757812 595.019531 340.996094 595.9375 341.394531 C 596.851562 341.792969 597.671875 342.351562 598.335938 343.054688 L 598.386719 343.101562 C 600.019531 344.871094 600.667969 347.484375 599.195312 350.671875 L 586.328125 390.960938 C 587.59375 391.957031 588.234375 393.160156 588.484375 394.523438 C 588.75 395.964844 588.554688 397.546875 588.203125 399.234375 C 587.828125 401.023438 587.71875 401.628906 587.417969 403.375 L 587.046875 405.46875 C 584.824219 418.027344 576.851562 424.53125 567.738281 426.332031 C 564.132812 427.046875 560.347656 427.019531 556.664062 426.332031 C 552.992188 425.65625 549.425781 424.316406 546.257812 422.417969 C 537.96875 417.453125 532.335938 408.625 534.371094 397.441406 L 538.574219 374.449219 C 538.351562 371.609375 539.683594 369.46875 541.621094 368.21875 C 542.445312 367.683594 543.378906 367.316406 544.34375 367.132812 L 544.417969 367.121094 C 545.351562 366.945312 546.328125 366.945312 547.269531 367.125 L 547.285156 367.128906 C 548.417969 367.355469 549.492188 367.839844 550.394531 368.617188 C 550.566406 366.359375 551.785156 364.636719 553.4375 363.5625 C 554.257812 363.03125 555.199219 362.664062 556.164062 362.484375 C 557.128906 362.292969 558.132812 362.285156 559.085938 362.476562 C 560.757812 362.796875 562.304688 363.6875 563.339844 365.226562 " fill-opacity="1" fill-rule="nonzero"/></g></g></g><g clip-path="url(#a95922ab27)"><g clip-path="url(#d31a7d6403)"><g clip-path="url(#7554ca18e0)"><path fill="#ff89a9" d="M 554.183594 385.375 C 554.375 385.445312 554.527344 385.582031 554.617188 385.753906 L 571.472656 397.742188 C 571.835938 398 571.925781 398.511719 571.660156 398.882812 C 571.402344 399.25 570.894531 399.335938 570.527344 399.082031 L 554.324219 387.550781 C 553.683594 389.234375 552.605469 390.402344 551.316406 391.109375 C 550.226562 391.707031 548.992188 391.96875 547.765625 391.925781 C 547.351562 391.910156 546.941406 391.863281 546.53125 391.777344 C 545.6875 391.640625 544.867188 391.355469 544.121094 390.925781 C 542.71875 390.117188 541.574219 388.816406 541.007812 387.03125 L 540.988281 386.957031 L 540.976562 386.9375 L 540.957031 386.863281 C 540.882812 386.632812 540.824219 386.390625 540.785156 386.144531 L 540.695312 385.667969 L 539.398438 378.996094 L 535.980469 397.730469 C 534.082031 408.140625 539.347656 416.371094 547.09375 421.019531 C 550.105469 422.816406 553.492188 424.085938 556.96875 424.734375 C 560.4375 425.375 564.019531 425.402344 567.421875 424.734375 C 575.917969 423.054688 583.347656 416.960938 585.4375 405.183594 L 585.808594 403.089844 C 586.125 401.320312 586.226562 400.695312 586.601562 398.910156 C 586.914062 397.398438 587.097656 396.003906 586.878906 394.816406 C 586.679688 393.722656 586.117188 392.761719 584.960938 391.976562 L 584.914062 391.949219 L 565.125 378.425781 L 565.113281 378.425781 L 565.105469 378.417969 L 565.054688 378.390625 L 561.0625 375.652344 L 560.023438 374.945312 L 559.960938 374.894531 L 559.921875 374.859375 L 559.90625 374.847656 L 559.730469 374.707031 L 559.707031 374.695312 L 559.667969 374.664062 L 559.601562 374.613281 C 557.949219 373.410156 556.238281 373.167969 554.738281 373.558594 L 554.628906 373.585938 L 554.617188 373.589844 L 554.554688 373.609375 L 554.496094 373.625 L 554.441406 373.640625 L 554.433594 373.644531 L 554.378906 373.667969 L 554.316406 373.6875 L 554.253906 373.703125 C 553.628906 373.933594 553.035156 374.273438 552.511719 374.699219 L 552.472656 374.726562 L 552.421875 374.773438 L 552.390625 374.792969 C 551.976562 375.148438 551.59375 375.5625 551.265625 376.027344 L 551.242188 376.0625 C 550.691406 376.835938 550.308594 377.726562 550.15625 378.65625 L 550.128906 378.824219 L 550.125 378.882812 L 550.113281 378.933594 L 550.109375 378.996094 L 550.109375 379.046875 L 550.097656 379.101562 L 550.09375 379.160156 L 550.09375 379.203125 L 550.089844 379.21875 L 550.085938 379.273438 L 550.085938 379.308594 C 550 380.949219 550.644531 382.675781 552.328125 384.09375 L 552.339844 384.101562 L 552.394531 384.148438 L 552.425781 384.167969 L 552.4375 384.175781 L 552.453125 384.191406 L 552.507812 384.242188 L 552.566406 384.28125 L 552.59375 384.300781 L 552.648438 384.347656 L 552.679688 384.367188 L 552.707031 384.390625 L 552.734375 384.410156 L 552.789062 384.457031 L 552.824219 384.476562 L 552.855469 384.5 Z M 584.929688 389.980469 L 597.695312 350.027344 C 598.859375 347.527344 598.40625 345.527344 597.1875 344.210938 L 597.148438 344.167969 C 596.640625 343.632812 595.996094 343.199219 595.292969 342.894531 C 594.558594 342.570312 593.738281 342.378906 592.910156 342.335938 C 590.714844 342.214844 588.460938 343.148438 587.386719 345.402344 C 584.292969 355.714844 581.394531 366.464844 578.027344 376.625 C 577.84375 377.183594 577.410156 377.496094 576.914062 377.601562 L 576.847656 377.609375 C 576.644531 377.644531 576.425781 377.644531 576.214844 377.601562 C 575.984375 377.558594 575.761719 377.46875 575.566406 377.335938 C 575.144531 377.042969 574.855469 376.574219 574.917969 375.957031 L 578.710938 342.703125 C 579.054688 339.71875 577.835938 337.636719 576.097656 336.601562 C 575.414062 336.191406 574.640625 335.941406 573.859375 335.859375 C 573.078125 335.773438 572.277344 335.855469 571.53125 336.121094 C 569.675781 336.761719 568.121094 338.53125 567.851562 341.546875 C 567.484375 345.566406 566.847656 350.503906 566.203125 355.429688 C 565.597656 360.109375 564.988281 364.789062 564.613281 368.777344 L 566.203125 376.988281 L 566.207031 377.007812 L 566.25 377.226562 Z M 552.9375 386.566406 L 551.933594 385.847656 L 551.894531 385.820312 L 551.792969 385.746094 L 551.785156 385.746094 L 551.75 385.71875 L 551.71875 385.6875 L 551.648438 385.636719 L 551.609375 385.609375 L 551.574219 385.585938 L 551.542969 385.554688 L 551.441406 385.476562 L 551.40625 385.445312 L 551.277344 385.339844 L 551.246094 385.3125 L 551.210938 385.28125 L 551.175781 385.257812 L 551.144531 385.226562 C 549.148438 383.484375 548.367188 381.367188 548.445312 379.324219 L 548.453125 379.253906 L 548.449219 379.234375 L 548.453125 379.175781 L 548.464844 379.039062 L 548.46875 378.980469 L 548.472656 378.960938 L 548.476562 378.894531 L 548.476562 378.855469 L 548.484375 378.824219 L 548.488281 378.746094 L 548.503906 378.679688 L 548.507812 378.609375 L 548.535156 378.464844 L 548.539062 378.394531 L 548.566406 378.253906 L 548.578125 378.214844 L 548.609375 378.042969 L 548.628906 377.976562 L 548.640625 377.886719 L 548.65625 377.839844 L 548.660156 377.832031 L 548.671875 377.785156 L 548.683594 377.734375 L 548.695312 377.699219 L 548.699219 377.679688 L 548.714844 377.628906 L 548.714844 377.625 L 548.730469 377.574219 L 548.738281 377.519531 L 548.75 377.488281 L 548.761719 377.472656 L 548.769531 377.414062 L 548.785156 377.367188 L 548.796875 377.347656 L 548.808594 377.3125 L 548.8125 377.28125 L 548.824219 377.257812 L 548.839844 377.214844 L 548.839844 377.210938 L 548.855469 377.15625 L 548.863281 377.148438 L 548.878906 377.105469 L 548.886719 377.082031 L 548.894531 377.050781 L 548.90625 377.015625 L 548.914062 377.003906 L 548.929688 376.949219 L 548.9375 376.945312 L 548.953125 376.902344 L 548.964844 376.878906 L 548.976562 376.847656 L 548.988281 376.8125 L 548.988281 376.800781 L 549.011719 376.75 L 549.011719 376.746094 L 549.035156 376.699219 L 549.042969 376.679688 L 549.054688 376.648438 L 549.066406 376.613281 L 549.078125 376.597656 L 549.121094 376.5 L 549.128906 376.484375 L 549.140625 376.445312 L 549.152344 376.417969 L 549.164062 376.398438 L 549.183594 376.351562 L 549.214844 376.300781 L 549.214844 376.285156 L 549.234375 376.25 L 549.246094 376.222656 L 549.261719 376.203125 L 549.28125 376.164062 L 549.285156 376.152344 L 549.3125 376.105469 L 549.3125 376.097656 L 549.332031 376.058594 L 549.34375 376.03125 L 549.382812 375.96875 L 549.382812 375.957031 L 549.410156 375.910156 L 549.414062 375.902344 L 549.4375 375.863281 L 549.449219 375.847656 L 549.464844 375.816406 L 549.484375 375.78125 L 549.492188 375.769531 L 549.519531 375.722656 L 549.523438 375.71875 L 549.550781 375.671875 L 549.550781 375.660156 L 549.578125 375.625 L 549.59375 375.59375 L 549.605469 375.578125 L 549.722656 375.394531 L 549.742188 375.351562 L 549.75 375.347656 L 549.78125 375.300781 L 549.785156 375.292969 L 549.808594 375.253906 L 549.824219 375.238281 L 549.835938 375.214844 L 549.863281 375.175781 L 549.871094 375.167969 L 549.902344 375.125 L 549.90625 375.117188 L 549.929688 375.078125 C 550.078125 374.871094 550.242188 374.667969 550.40625 374.472656 L 550.414062 374.46875 L 550.429688 374.445312 L 550.445312 374.433594 L 550.453125 374.425781 L 550.5 374.363281 L 550.515625 374.351562 L 550.523438 374.339844 L 550.539062 374.324219 L 550.558594 374.300781 L 550.582031 374.28125 L 550.585938 374.273438 L 550.621094 374.230469 L 550.636719 374.21875 L 550.652344 374.203125 L 550.667969 374.179688 L 550.691406 374.15625 L 550.699219 374.152344 L 550.707031 374.140625 L 550.730469 374.121094 L 550.738281 374.113281 L 550.746094 374.097656 L 550.777344 374.078125 L 550.785156 374.058594 L 550.808594 374.039062 L 550.8125 374.03125 L 550.824219 374.019531 L 550.847656 374 L 550.851562 373.992188 L 550.863281 373.984375 L 550.886719 373.960938 L 550.894531 373.957031 L 550.925781 373.921875 L 550.933594 373.917969 L 551.003906 373.847656 L 551.011719 373.84375 L 551.027344 373.824219 L 551.050781 373.808594 L 551.113281 373.75 L 550.773438 372.007812 C 550.074219 370.097656 548.59375 369.042969 546.957031 368.726562 C 546.226562 368.585938 545.453125 368.589844 544.710938 368.722656 L 544.644531 368.742188 C 543.886719 368.882812 543.144531 369.175781 542.507812 369.589844 C 541.0625 370.523438 540.066406 372.117188 540.195312 374.25 L 540.207031 374.296875 L 542.386719 385.84375 C 542.703125 387.507812 543.742188 388.769531 545.070312 389.519531 C 545.617188 389.828125 546.210938 390.042969 546.824219 390.171875 C 547.101562 390.222656 547.386719 390.246094 547.675781 390.246094 C 548.632812 390.261719 549.589844 390.046875 550.441406 389.585938 C 551.546875 389 552.46875 387.984375 552.9375 386.566406 Z M 552.636719 372.652344 L 552.726562 372.605469 L 552.742188 372.601562 L 552.777344 372.582031 L 552.898438 372.519531 L 552.953125 372.492188 C 554.988281 371.488281 557.472656 371.394531 559.878906 372.839844 L 559.953125 372.882812 L 559.988281 372.910156 L 560.027344 372.933594 L 560.101562 372.980469 L 560.179688 373.027344 L 560.253906 373.078125 L 560.257812 373.078125 L 560.390625 373.171875 L 560.394531 373.175781 L 560.617188 373.335938 L 560.65625 373.367188 L 560.765625 373.445312 L 560.792969 373.46875 L 561.058594 373.683594 L 564.335938 375.921875 L 563.007812 369.035156 L 563.007812 369.03125 C 562.988281 368.988281 562.984375 368.941406 562.980469 368.898438 L 562.875 368.363281 C 562.378906 365.808594 560.683594 364.441406 558.777344 364.070312 C 558.027344 363.929688 557.234375 363.933594 556.46875 364.078125 C 555.710938 364.226562 554.976562 364.523438 554.328125 364.933594 C 552.699219 365.988281 551.636719 367.886719 552.128906 370.449219 L 552.347656 371.566406 C 552.460938 371.90625 552.5625 372.265625 552.636719 372.652344 " fill-opacity="1" fill-rule="nonzero"/></g></g></g></svg>