<svg xmlns="http://www.w3.org/2000/svg" xmlns:xlink="http://www.w3.org/1999/xlink" width="1000" zoomAndPan="magnify" viewBox="0 0 750 749.999995" height="1000" preserveAspectRatio="xMidYMid meet" version="1.0"><defs><g/></defs><rect x="-75" width="900" fill="#ffffff" y="-74.999999" height="899.999994" fill-opacity="1"/><rect x="-75" width="900" fill="#749096" y="-74.999999" height="899.999994" fill-opacity="1"/><path fill="#000000" d="M 344.324219 524.015625 L 338.71875 523.324219 C 332.480469 522.558594 330.570312 521.652344 326.648438 517.601562 C 322.714844 513.535156 320.605469 510.671875 319.722656 508.203125 C 319.003906 506.203125 318.785156 504.757812 317.644531 494.695312 C 317.089844 489.792969 316.957031 489.269531 315.820312 487.554688 C 313.328125 483.792969 312.988281 482.589844 312.820312 476.996094 C 312.675781 472.148438 312.617188 471.816406 311.664062 470.429688 C 310.65625 468.960938 309.835938 466.0625 309.835938 463.980469 C 309.835938 463.140625 309.429688 462.464844 308.195312 461.25 C 307.296875 460.363281 306.15625 458.753906 305.664062 457.675781 C 305.171875 456.597656 304.414062 455.46875 303.980469 455.164062 C 302.199219 453.917969 300.324219 450.460938 299.082031 446.136719 C 298.117188 442.769531 297.382812 441.410156 296.523438 441.410156 C 295.523438 441.410156 293.007812 438.96875 292.105469 437.121094 C 291.03125 434.929688 290.738281 430.898438 290.769531 418.601562 C 290.785156 411.839844 290.980469 410.890625 292.992188 407.652344 C 293.617188 406.648438 294.519531 405.003906 295.003906 404 C 296.859375 400.152344 300.625 396.808594 304.6875 395.40625 C 307.457031 394.449219 312.527344 394.527344 314.589844 395.558594 C 316.1875 396.355469 316.21875 396.347656 317.097656 394.851562 C 318.226562 392.945312 320.503906 390.3125 321.03125 390.3125 C 321.28125 390.3125 321.660156 389.992188 321.871094 389.597656 C 322.3125 388.773438 323.78125 388.039062 326.621094 387.226562 C 328.113281 386.800781 329.289062 386.074219 331.179688 384.414062 C 337.101562 379.210938 340.289062 379.214844 345.410156 384.433594 C 347.488281 386.554688 348.164062 387.03125 349.09375 387.03125 C 350.382812 387.03125 351.441406 386.082031 351.441406 384.925781 C 351.441406 384.503906 351.632812 383.695312 351.863281 383.128906 C 352.097656 382.566406 352.300781 380.128906 352.320312 377.71875 C 352.359375 372.328125 353.421875 369.785156 357.09375 366.257812 C 360.613281 362.882812 362.234375 362.40625 369.984375 362.460938 C 377.019531 362.507812 378.757812 362.902344 382.851562 365.382812 C 384.878906 366.609375 384.878906 366.609375 387.414062 365.453125 C 389.546875 364.476562 390.511719 364.265625 393.535156 364.117188 C 395.703125 364.007812 397.1875 363.773438 397.28125 363.523438 C 397.367188 363.300781 397.753906 361.0625 398.136719 358.558594 C 399.648438 348.707031 401.949219 339.933594 403.5 338.105469 C 403.761719 337.792969 404.230469 336.820312 404.542969 335.941406 C 405.332031 333.703125 407.652344 330.824219 410.804688 328.175781 C 413.484375 325.917969 413.484375 325.917969 413.488281 318.425781 C 413.492188 311.175781 414.039062 305.269531 415.6875 294.742188 C 415.921875 293.261719 416.027344 291.621094 415.925781 291.089844 C 415.65625 289.714844 416.355469 283.792969 416.960938 282.28125 C 418.066406 279.53125 418.335938 277.496094 418.375 271.699219 C 418.414062 265.675781 418.414062 265.675781 419.90625 262.574219 C 422.835938 256.492188 426.382812 254.179688 432.78125 254.179688 C 436.664062 254.179688 436.871094 254.222656 439.28125 255.472656 C 445.6875 258.804688 448.890625 264.769531 448.890625 273.371094 C 448.890625 279.050781 448.304688 282.285156 446.359375 287.390625 C 445.40625 289.902344 444.171875 293.679688 443.621094 295.785156 C 442.414062 300.390625 439.964844 308.570312 437.976562 314.617188 C 437.175781 317.042969 436.171875 320.410156 435.742188 322.097656 C 435.3125 323.785156 434.480469 326.203125 433.894531 327.472656 C 433.308594 328.742188 432.828125 329.855469 432.828125 329.945312 C 432.828125 330.039062 431.992188 331.195312 430.96875 332.511719 C 429.945312 333.832031 428.960938 335.425781 428.78125 336.058594 C 428.246094 337.914062 428.375 340.527344 429.027344 341.066406 C 429.996094 341.871094 431.398438 345.015625 431.621094 346.878906 C 431.890625 349.15625 431.601562 350.242188 430.328125 351.710938 C 429.621094 352.53125 428.699219 354.738281 427.386719 358.765625 C 425.476562 364.625 425.476562 364.625 426.257812 366.949219 C 427.242188 369.875 426.808594 373.710938 424.996094 378.085938 C 424.0625 380.34375 423.777344 382.480469 424.046875 385.203125 C 424.441406 389.148438 423.90625 392.886719 422.621094 395.179688 C 421.84375 396.570312 421.5 397.785156 421.316406 399.804688 C 420.917969 404.175781 419.84375 408.882812 417.703125 415.609375 C 414.914062 424.382812 414.992188 423.539062 416.859375 424.878906 C 417.730469 425.507812 419.847656 427.386719 421.558594 429.0625 C 423.269531 430.734375 425.523438 432.8125 426.566406 433.679688 C 427.609375 434.546875 428.789062 435.898438 429.191406 436.6875 C 429.679688 437.644531 430.429688 438.371094 431.464844 438.890625 C 432.316406 439.316406 433.585938 440.207031 434.289062 440.875 C 435.890625 442.390625 439.3125 444.695312 439.964844 444.695312 C 440.234375 444.695312 440.671875 444.382812 440.9375 444.003906 C 441.203125 443.621094 442.160156 442.9375 443.058594 442.484375 C 444.636719 441.6875 445.265625 441.207031 447.359375 439.183594 C 447.898438 438.664062 449.121094 437.871094 450.074219 437.417969 C 451.027344 436.96875 451.898438 436.453125 452.011719 436.269531 C 452.125 436.085938 453.070312 435.53125 454.109375 435.039062 C 455.152344 434.542969 456.210938 433.804688 456.464844 433.394531 C 456.71875 432.984375 457.148438 432.652344 457.425781 432.652344 C 457.699219 432.652344 458.125 432.40625 458.371094 432.109375 C 459.054688 431.285156 460.730469 430.554688 463.019531 430.078125 C 464.160156 429.84375 465.742188 429.214844 466.535156 428.6875 C 468.289062 427.515625 472.292969 425.351562 472.707031 425.351562 C 473.65625 425.351562 475.371094 423.390625 476.640625 420.859375 C 477.953125 418.234375 482.210938 412.597656 483.378906 411.941406 C 483.644531 411.789062 484.988281 410.652344 486.359375 409.414062 C 493.730469 402.757812 496.25 400.988281 499.621094 400.105469 C 507.621094 398 514.96875 401.765625 517.496094 409.265625 C 519.003906 413.746094 518.460938 416.375 513.574219 428.21875 C 512.535156 430.734375 510.140625 434.5 508.054688 436.902344 C 505.332031 440.027344 498.808594 444.636719 496.199219 445.269531 C 495.566406 445.425781 494.910156 445.960938 494.554688 446.617188 C 492.882812 449.695312 490.886719 451 487.152344 451.453125 C 484.246094 451.808594 482.453125 453.953125 481.414062 458.320312 C 480.875 460.578125 478.511719 464.082031 475.953125 466.410156 C 471.589844 470.382812 467.929688 474.164062 466.761719 475.898438 C 465.449219 477.855469 461.835938 481.460938 460.933594 481.71875 C 456.402344 483.007812 454.984375 483.527344 453.851562 484.292969 C 453.109375 484.796875 452.296875 485.207031 452.042969 485.207031 C 451.789062 485.207031 451.265625 485.449219 450.875 485.742188 C 450.484375 486.039062 449.933594 486.285156 449.652344 486.289062 C 449.371094 486.296875 448.550781 486.753906 447.828125 487.304688 C 447.105469 487.855469 445.707031 488.59375 444.722656 488.941406 C 443.734375 489.289062 442.582031 489.898438 442.160156 490.292969 C 441.742188 490.6875 440.742188 491.28125 439.941406 491.609375 C 439.140625 491.9375 437.832031 492.828125 437.027344 493.589844 C 435.289062 495.242188 429.511719 498.339844 428.140625 498.359375 C 426.894531 498.375 425.792969 499.003906 424.808594 500.257812 C 424.375 500.808594 423.152344 501.835938 422.085938 502.542969 C 421.019531 503.253906 419.382812 504.503906 418.453125 505.320312 C 416.511719 507.03125 412.230469 508.949219 407.894531 510.050781 C 406.253906 510.46875 404.417969 511.023438 403.816406 511.28125 C 401.121094 512.429688 400.515625 512.613281 398.21875 512.957031 C 394.828125 513.464844 390.34375 514.199219 385.203125 515.085938 C 382.792969 515.503906 378.605469 516.011719 375.894531 516.222656 C 367.546875 516.867188 365.625 517.347656 362.472656 519.589844 C 356.542969 523.8125 351.890625 524.945312 344.324219 524.015625 Z M 271.664062 405.878906 C 269.75 405.003906 267.941406 403.136719 267.265625 401.335938 C 266.449219 399.15625 260.113281 391.285156 256.972656 388.546875 C 248.882812 381.5 243.488281 375.96875 241.464844 372.648438 C 240.621094 371.265625 239.6875 370.019531 239.390625 369.878906 C 232.554688 366.710938 231 364.660156 231 358.820312 C 231 354.527344 231.578125 352.597656 233.28125 351.230469 C 234.566406 350.199219 234.804688 350.125 235.582031 350.542969 C 236.261719 350.90625 236.984375 350.917969 238.894531 350.601562 C 241.773438 350.125 241.816406 350.144531 242.3125 351.988281 C 242.75 353.613281 243.433594 354.175781 247.613281 356.367188 C 249.214844 357.207031 250.851562 358.183594 251.253906 358.535156 C 251.65625 358.886719 252.640625 359.558594 253.445312 360.027344 C 254.246094 360.5 255.460938 361.359375 256.140625 361.945312 C 256.816406 362.527344 258.542969 363.539062 259.972656 364.191406 C 262.5625 365.375 267.386719 368.304688 268.773438 369.53125 C 269.175781 369.886719 271.144531 371.121094 273.152344 372.273438 C 281.15625 376.859375 284.835938 381.960938 285.277344 389.078125 C 285.730469 396.421875 283.148438 403.285156 279.1875 405.261719 C 277.113281 406.296875 273.277344 406.613281 271.664062 405.878906 Z M 319.546875 361.570312 C 316.402344 359.160156 315.753906 357.941406 312.226562 347.792969 C 310.480469 342.78125 310.285156 342.382812 308.109375 339.402344 C 305.25 335.484375 301.273438 327.101562 299.617188 321.496094 C 298.789062 318.699219 297.78125 315.585938 297.375 314.582031 C 296.964844 313.578125 295.332031 309.472656 293.742188 305.457031 C 292.152344 301.441406 290.425781 297.335938 289.902344 296.332031 C 287.417969 291.550781 286.769531 290.167969 285.945312 287.863281 C 284.65625 284.28125 284.308594 282.589844 283.941406 278.078125 C 283.761719 275.867188 283.257812 272.535156 282.820312 270.675781 C 281.039062 263.089844 282.105469 258.164062 286.113281 255.472656 C 288.5 253.871094 293.476562 253.664062 296.074219 255.0625 C 300.980469 257.703125 304.679688 261.210938 306.273438 264.738281 C 310.507812 274.113281 312.632812 283.699219 312.269531 291.765625 C 312.039062 296.808594 312.039062 296.808594 313.824219 300.21875 C 314.804688 302.097656 315.773438 304.289062 315.980469 305.09375 C 317.035156 309.25 317.566406 312.609375 317.398438 314.058594 C 317.199219 315.75 319.636719 324.003906 322.476562 331.253906 C 324.316406 335.949219 325.003906 339.015625 324.480469 340.164062 C 324.148438 340.898438 324.183594 341.519531 324.660156 343.164062 C 325.535156 346.203125 327.582031 352.394531 328.054688 353.449219 C 328.828125 355.179688 323.976562 362.941406 322.121094 362.9375 C 321.683594 362.9375 320.527344 362.320312 319.546875 361.570312 Z M 366.089844 344.902344 C 360.933594 344.433594 361.140625 344.5625 358.503906 340.121094 C 356.992188 337.574219 356.992188 337.574219 356.789062 330.277344 C 356.675781 326.261719 356.320312 320.867188 355.992188 318.289062 C 355.484375 314.273438 355.464844 313.125 355.863281 310.257812 C 356.683594 304.359375 356.496094 295.621094 355.492188 293.230469 C 354.78125 291.535156 354.601562 290.21875 354.328125 284.71875 C 354.152344 281.144531 353.929688 278.09375 353.839844 277.945312 C 353.230469 276.960938 351.847656 269.175781 351.84375 266.703125 C 351.839844 265.101562 351.585938 262.574219 351.277344 261.085938 C 350.972656 259.59375 350.628906 255.914062 350.519531 252.902344 C 350.410156 249.890625 350.230469 245.375 350.125 242.867188 C 349.902344 237.546875 350.207031 236.089844 352.195312 233.015625 C 356.617188 226.175781 365.957031 225.066406 370.863281 230.796875 C 374.636719 235.210938 375.726562 239.804688 376.441406 254.359375 C 376.726562 260.183594 377.128906 267.902344 377.332031 271.515625 C 377.535156 275.128906 377.707031 281.976562 377.710938 286.734375 C 377.71875 295.265625 377.707031 295.40625 376.804688 297.097656 C 375.945312 298.714844 375.894531 299.140625 375.894531 304.410156 C 375.894531 308.699219 376.03125 310.347656 376.480469 311.472656 C 376.824219 312.335938 376.96875 313.328125 376.828125 313.882812 C 376.660156 314.5625 376.871094 315.308594 377.582031 316.515625 C 378.566406 318.203125 378.566406 318.203125 378.539062 326.429688 C 378.507812 336.929688 378.257812 337.796875 374.421875 340.710938 C 372.609375 342.089844 371.878906 342.878906 371.878906 343.460938 C 371.878906 344.109375 370.9375 345.589844 370.664062 345.367188 C 370.628906 345.339844 368.570312 345.128906 366.089844 344.902344 Z M 366.089844 344.902344 " fill-opacity="1" fill-rule="nonzero"/><g fill="#749096" fill-opacity="1"><g transform="translate(325.189588, 470.600317)"><g><path d="M 23.25 0 L 17.0625 0 L 7.078125 -17.359375 L 6.9375 -17.359375 C 7.132812 -14.296875 7.234375 -12.109375 7.234375 -10.796875 L 7.234375 0 L 2.890625 0 L 2.890625 -22.9375 L 9.03125 -22.9375 L 18.984375 -5.765625 L 19.09375 -5.765625 C 18.9375 -8.742188 18.859375 -10.847656 18.859375 -12.078125 L 18.859375 -22.9375 L 23.25 -22.9375 Z M 23.25 0 "/></g></g></g><g fill="#749096" fill-opacity="1"><g transform="translate(351.321252, 470.600317)"><g><path d="M 9.78125 -14.46875 C 8.757812 -14.46875 7.960938 -14.144531 7.390625 -13.5 C 6.816406 -12.863281 6.488281 -11.953125 6.40625 -10.765625 L 13.125 -10.765625 C 13.101562 -11.953125 12.789062 -12.863281 12.1875 -13.5 C 11.59375 -14.144531 10.789062 -14.46875 9.78125 -14.46875 Z M 10.453125 0.3125 C 7.628906 0.3125 5.421875 -0.460938 3.828125 -2.015625 C 2.234375 -3.578125 1.4375 -5.785156 1.4375 -8.640625 C 1.4375 -11.585938 2.171875 -13.863281 3.640625 -15.46875 C 5.117188 -17.070312 7.15625 -17.875 9.75 -17.875 C 12.226562 -17.875 14.15625 -17.164062 15.53125 -15.75 C 16.914062 -14.34375 17.609375 -12.394531 17.609375 -9.90625 L 17.609375 -7.578125 L 6.296875 -7.578125 C 6.347656 -6.222656 6.75 -5.160156 7.5 -4.390625 C 8.25 -3.628906 9.304688 -3.25 10.671875 -3.25 C 11.722656 -3.25 12.71875 -3.359375 13.65625 -3.578125 C 14.601562 -3.796875 15.59375 -4.144531 16.625 -4.625 L 16.625 -0.921875 C 15.78125 -0.503906 14.882812 -0.195312 13.9375 0 C 12.988281 0.207031 11.828125 0.3125 10.453125 0.3125 Z M 10.453125 0.3125 "/></g></g></g><g fill="#749096" fill-opacity="1"><g transform="translate(370.311828, 470.600317)"><g><path d="M 9.90625 -3.5 C 10.738281 -3.5 11.742188 -3.679688 12.921875 -4.046875 L 12.921875 -0.484375 C 11.722656 0.046875 10.253906 0.3125 8.515625 0.3125 C 6.609375 0.3125 5.21875 -0.171875 4.34375 -1.140625 C 3.46875 -2.109375 3.03125 -3.5625 3.03125 -5.5 L 3.03125 -13.953125 L 0.734375 -13.953125 L 0.734375 -15.96875 L 3.375 -17.578125 L 4.75 -21.28125 L 7.8125 -21.28125 L 7.8125 -17.546875 L 12.734375 -17.546875 L 12.734375 -13.953125 L 7.8125 -13.953125 L 7.8125 -5.5 C 7.8125 -4.8125 8.003906 -4.304688 8.390625 -3.984375 C 8.773438 -3.660156 9.28125 -3.5 9.90625 -3.5 Z M 9.90625 -3.5 "/></g></g></g><g fill="#749096" fill-opacity="1"><g transform="translate(384.264412, 470.600317)"><g><path d="M 2.3125 -22.078125 C 2.3125 -23.640625 3.175781 -24.421875 4.90625 -24.421875 C 6.644531 -24.421875 7.515625 -23.640625 7.515625 -22.078125 C 7.515625 -21.335938 7.296875 -20.757812 6.859375 -20.34375 C 6.429688 -19.9375 5.78125 -19.734375 4.90625 -19.734375 C 3.175781 -19.734375 2.3125 -20.515625 2.3125 -22.078125 Z M 7.296875 0 L 2.515625 0 L 2.515625 -17.546875 L 7.296875 -17.546875 Z M 7.296875 0 "/></g></g></g><g fill="#749096" fill-opacity="1"><g transform="translate(394.073598, 470.600317)"><g><path d="M 12.203125 -13.953125 L 8.0625 -13.953125 L 8.0625 0 L 3.28125 0 L 3.28125 -13.953125 L 0.640625 -13.953125 L 0.640625 -16.265625 L 3.28125 -17.546875 L 3.28125 -18.828125 C 3.28125 -20.828125 3.769531 -22.285156 4.75 -23.203125 C 5.738281 -24.128906 7.316406 -24.59375 9.484375 -24.59375 C 11.128906 -24.59375 12.597656 -24.347656 13.890625 -23.859375 L 12.671875 -20.34375 C 11.703125 -20.644531 10.8125 -20.796875 10 -20.796875 C 9.320312 -20.796875 8.828125 -20.59375 8.515625 -20.1875 C 8.210938 -19.78125 8.0625 -19.265625 8.0625 -18.640625 L 8.0625 -17.546875 L 12.203125 -17.546875 Z M 12.203125 -13.953125 "/></g></g></g><g fill="#749096" fill-opacity="1"><g transform="translate(406.519493, 470.600317)"><g><path d="M 0 -17.546875 L 5.234375 -17.546875 L 8.546875 -7.671875 C 8.835938 -6.816406 9.035156 -5.800781 9.140625 -4.625 L 9.234375 -4.625 C 9.347656 -5.707031 9.570312 -6.722656 9.90625 -7.671875 L 13.15625 -17.546875 L 18.28125 -17.546875 L 10.859375 2.25 C 10.179688 4.070312 9.210938 5.4375 7.953125 6.34375 C 6.691406 7.257812 5.21875 7.71875 3.53125 7.71875 C 2.707031 7.71875 1.894531 7.628906 1.09375 7.453125 L 1.09375 3.65625 C 1.675781 3.789062 2.304688 3.859375 2.984375 3.859375 C 3.828125 3.859375 4.566406 3.597656 5.203125 3.078125 C 5.835938 2.566406 6.332031 1.785156 6.6875 0.734375 L 6.96875 -0.125 Z M 0 -17.546875 "/></g></g></g></svg>