<svg xmlns="http://www.w3.org/2000/svg" xmlns:xlink="http://www.w3.org/1999/xlink" width="1000" zoomAndPan="magnify" viewBox="0 0 750 749.999995" height="1000" preserveAspectRatio="xMidYMid meet" version="1.0"><rect x="-75" width="900" fill="#ffffff" y="-74.999999" height="899.999994" fill-opacity="1"/><rect x="-75" width="900" fill="#ffffff" y="-74.999999" height="899.999994" fill-opacity="1"/><path fill="#000000" d="M 485.789062 379.652344 C 485.386719 379.691406 484.941406 379.652344 484.578125 379.792969 C 482.847656 380.4375 481.09375 381.023438 479.464844 381.847656 C 468.125 387.527344 457.050781 393.628906 446.578125 400.820312 C 445.347656 401.664062 444.097656 402.492188 442.609375 403.496094 C 442.789062 402.613281 442.890625 402.007812 443.011719 401.382812 C 445.648438 388.777344 447.363281 376.066406 447.625 363.179688 C 447.925781 348.757812 445.972656 334.601562 442.609375 320.621094 C 437.894531 301.027344 430.484375 282.558594 419.40625 265.640625 C 413.085938 255.996094 405.8125 247.152344 396.628906 240.066406 C 386.84375 232.53125 375.925781 227.578125 363.519531 226.128906 C 353.972656 225 344.75 226.25 335.769531 229.570312 C 328.035156 232.429688 320.824219 236.339844 313.835938 240.667969 C 302.960938 247.4375 293.855469 256.09375 286.527344 266.609375 C 276.578125 280.90625 270.132812 296.695312 266.890625 313.796875 C 264.835938 324.691406 264.011719 335.667969 265.277344 346.742188 C 266.425781 356.8125 269.105469 366.421875 274.082031 375.300781 C 278.390625 382.996094 283.867188 389.800781 290.253906 395.886719 C 299.777344 404.96875 310.390625 412.519531 322.496094 417.835938 C 337.015625 424.242188 352.242188 428.089844 367.992188 429.757812 C 373.488281 430.34375 379.007812 430.707031 384.527344 431.007812 C 391.59375 431.371094 398.664062 431.550781 405.734375 431.8125 C 406.117188 431.835938 406.5 431.875 407.164062 431.933594 C 406.71875 432.398438 406.457031 432.679688 406.175781 432.941406 C 396.972656 441.882812 388.273438 451.25 380.597656 461.582031 C 370.851562 474.710938 363.398438 488.992188 359.007812 504.78125 C 357.820312 509.050781 356.914062 513.378906 357.378906 517.890625 C 357.859375 522.601562 361.003906 525 365.613281 523.953125 C 367.367188 523.550781 369.097656 522.945312 370.75 522.242188 C 382.894531 517.066406 392.621094 508.808594 400.71875 498.535156 C 408.957031 488.085938 415.742188 476.726562 421.542969 464.78125 C 429.878906 447.625 436.304688 429.757812 440.757812 411.210938 C 441.199219 409.359375 442.003906 408.089844 443.554688 406.980469 C 450.082031 402.289062 456.546875 397.476562 463.574219 393.527344 C 468.207031 390.910156 473 388.554688 477.632812 385.9375 C 480.109375 384.546875 482.425781 382.875 484.78125 381.285156 C 485.265625 380.960938 485.585938 380.417969 485.988281 379.972656 C 485.929688 379.875 485.867188 379.773438 485.789062 379.652344 Z M 423.375 428.773438 C 420.535156 438.78125 417.132812 448.589844 413.144531 458.195312 C 407.464844 471.890625 400.738281 485.023438 392.359375 497.289062 C 388.089844 503.53125 383.417969 509.433594 377.878906 514.628906 C 377.296875 515.171875 376.773438 515.351562 375.988281 515.113281 C 374.355469 514.628906 373.347656 513.5625 372.804688 512.03125 C 371.898438 509.554688 372.039062 506.996094 372.363281 504.476562 C 373.1875 497.914062 375.300781 491.6875 377.699219 485.546875 C 383.679688 470.199219 392.582031 456.6875 403.335938 444.320312 C 406.78125 440.351562 410.445312 436.546875 414.050781 432.71875 C 414.636719 432.097656 415.378906 431.570312 416.105469 431.148438 C 418.378906 429.820312 420.71875 428.550781 423.03125 427.242188 C 423.195312 427.140625 423.375 427.082031 423.796875 426.878906 C 423.617188 427.644531 423.535156 428.207031 423.375 428.773438 Z M 432.335938 380.234375 C 431.453125 391.675781 429.617188 402.933594 427.082031 414.089844 C 426.941406 414.714844 426.496094 415.378906 425.992188 415.78125 C 423.375 418 420.71875 420.152344 418.039062 422.269531 C 417.617188 422.609375 416.949219 422.832031 416.425781 422.8125 C 412.582031 422.691406 408.714844 422.507812 404.867188 422.347656 C 404.867188 422.429688 404.847656 422.507812 404.847656 422.589844 C 397.195312 422.007812 389.519531 421.601562 381.886719 420.816406 C 365.453125 419.144531 349.5625 415.136719 334.660156 407.988281 C 316.394531 399.207031 301.25 386.660156 290.332031 369.382812 C 284.816406 360.640625 281.835938 350.972656 280.425781 340.78125 C 278.429688 326.28125 279.960938 312.003906 283.546875 297.90625 C 287.230469 283.425781 293.332031 270.03125 302.175781 257.949219 C 306.785156 251.644531 311.984375 245.886719 318.386719 241.292969 C 322.316406 238.492188 326.785156 237.003906 331.378906 235.894531 C 335.726562 234.847656 340.179688 234.445312 344.648438 234.605469 C 354.597656 234.96875 363.902344 237.6875 372.625 242.5 C 383.035156 248.242188 391.394531 256.277344 398.605469 265.601562 C 408.230469 278.089844 415.441406 291.882812 420.980469 306.605469 C 425.046875 317.441406 428.046875 328.558594 430.101562 339.9375 C 432.519531 353.289062 433.386719 366.703125 432.335938 380.234375 Z M 432.335938 380.234375 " fill-opacity="1" fill-rule="nonzero"/></svg>