<svg xmlns="http://www.w3.org/2000/svg" xmlns:xlink="http://www.w3.org/1999/xlink" width="1000" zoomAndPan="magnify" viewBox="0 0 750 749.999995" height="1000" preserveAspectRatio="xMidYMid meet" version="1.0"><defs><g/><clipPath id="f62f896d4e"><path d="M 331 215.460938 L 493 215.460938 L 493 375.960938 L 331 375.960938 Z M 331 215.460938 " clip-rule="nonzero"/></clipPath><clipPath id="623454b3cb"><path d="M 256.804688 252 L 294 252 L 294 290 L 256.804688 290 Z M 256.804688 252 " clip-rule="nonzero"/></clipPath></defs><rect x="-75" width="900" fill="#ffffff" y="-74.999999" height="899.999994" fill-opacity="1"/><g clip-path="url(#f62f896d4e)"><path fill="#fecc09" d="M 331.25 215.460938 L 404.253906 215.460938 C 421.820312 215.460938 437.261719 218.714844 450.484375 225.179688 C 463.988281 231.925781 474.285156 241.40625 481.839844 253.296875 C 489.207031 265.46875 492.984375 279.480469 492.984375 295.710938 C 492.984375 311.65625 489.207031 325.714844 481.886719 337.839844 C 474.332031 349.730469 464.035156 359.164062 450.53125 365.957031 C 437.261719 372.421875 421.867188 375.960938 404.300781 375.960938 L 331.25 375.960938 L 331.25 326.800781 L 368.554688 326.800781 L 368.554688 345.433594 L 402.367188 345.433594 C 418.609375 345.433594 431.3125 340.859375 440.757812 331.941406 C 450.484375 323.027344 455.347656 310.855469 455.347656 295.757812 C 455.347656 280.375 450.484375 268.203125 440.757812 259.289062 C 431.3125 250.371094 418.5625 245.796875 402.367188 245.796875 L 368.554688 245.796875 L 368.554688 289.578125 L 331.25 289.578125 Z M 331.25 215.460938 " fill-opacity="1" fill-rule="nonzero"/></g><path fill="#fecc09" d="M 294.183594 289.480469 L 331.25 289.480469 L 331.25 326.515625 L 294.183594 326.515625 Z M 294.183594 289.480469 " fill-opacity="1" fill-rule="nonzero"/><g clip-path="url(#623454b3cb)"><path fill="#fecc09" d="M 256.875 252.496094 L 293.945312 252.496094 L 293.945312 289.53125 L 256.875 289.53125 Z M 256.875 252.496094 " fill-opacity="1" fill-rule="nonzero"/></g><path fill="#fecc09" d="M 294.183594 232.207031 L 314.390625 232.207031 L 314.390625 252.398438 L 294.183594 252.398438 Z M 294.183594 232.207031 " fill-opacity="1" fill-rule="nonzero"/><path fill="#fecc09" d="M 262.828125 218.148438 L 283.039062 218.148438 L 283.039062 238.339844 L 262.828125 238.339844 Z M 262.828125 218.148438 " fill-opacity="1" fill-rule="nonzero"/><g fill="#292929" fill-opacity="1"><g transform="translate(175.773584, 464.266169)"><g><path d="M 4.265625 -42.640625 L 24.421875 -42.640625 C 29.097656 -42.640625 33.242188 -41.765625 36.859375 -40.015625 C 40.472656 -38.273438 43.273438 -35.800781 45.265625 -32.59375 C 47.253906 -29.382812 48.25 -25.628906 48.25 -21.328125 C 48.25 -17.015625 47.253906 -13.253906 45.265625 -10.046875 C 43.273438 -6.835938 40.472656 -4.359375 36.859375 -2.609375 C 33.242188 -0.867188 29.097656 0 24.421875 0 L 4.265625 0 Z M 23.9375 -9.625 C 27.59375 -9.625 30.523438 -10.660156 32.734375 -12.734375 C 34.953125 -14.804688 36.0625 -17.671875 36.0625 -21.328125 C 36.0625 -24.984375 34.953125 -27.84375 32.734375 -29.90625 C 30.523438 -31.976562 27.59375 -33.015625 23.9375 -33.015625 L 16.328125 -33.015625 L 16.328125 -9.625 Z M 23.9375 -9.625 "/></g></g></g><g fill="#292929" fill-opacity="1"><g transform="translate(226.088584, 464.266169)"><g><path d="M 38.5 -9.328125 L 38.5 0 L 4.265625 0 L 4.265625 -42.640625 L 37.703125 -42.640625 L 37.703125 -33.328125 L 16.203125 -33.328125 L 16.203125 -26.140625 L 35.15625 -26.140625 L 35.15625 -17.125 L 16.203125 -17.125 L 16.203125 -9.328125 Z M 38.5 -9.328125 "/></g></g></g><g fill="#292929" fill-opacity="1"><g transform="translate(267.022816, 464.266169)"><g><path d="M 47.515625 -42.640625 L 29.25 0 L 17.359375 0 L -0.859375 -42.640625 L 12.1875 -42.640625 L 23.765625 -14.859375 L 35.578125 -42.640625 Z M 47.515625 -42.640625 "/></g></g></g><g fill="#292929" fill-opacity="1"><g transform="translate(313.682974, 464.266169)"><g><path d="M 38.5 -9.328125 L 38.5 0 L 4.265625 0 L 4.265625 -42.640625 L 37.703125 -42.640625 L 37.703125 -33.328125 L 16.203125 -33.328125 L 16.203125 -26.140625 L 35.15625 -26.140625 L 35.15625 -17.125 L 16.203125 -17.125 L 16.203125 -9.328125 Z M 38.5 -9.328125 "/></g></g></g><g fill="#292929" fill-opacity="1"><g transform="translate(354.617207, 464.266169)"><g><path d="M 4.265625 -42.640625 L 16.328125 -42.640625 L 16.328125 -9.5625 L 36.671875 -9.5625 L 36.671875 0 L 4.265625 0 Z M 4.265625 -42.640625 "/></g></g></g><g fill="#292929" fill-opacity="1"><g transform="translate(391.774763, 464.266169)"><g><path d="M 25.765625 0.859375 C 21.253906 0.859375 17.203125 -0.09375 13.609375 -2 C 10.015625 -3.914062 7.191406 -6.554688 5.140625 -9.921875 C 3.097656 -13.296875 2.078125 -17.097656 2.078125 -21.328125 C 2.078125 -25.546875 3.097656 -29.335938 5.140625 -32.703125 C 7.191406 -36.078125 10.015625 -38.71875 13.609375 -40.625 C 17.203125 -42.539062 21.253906 -43.5 25.765625 -43.5 C 30.273438 -43.5 34.328125 -42.539062 37.921875 -40.625 C 41.515625 -38.71875 44.335938 -36.078125 46.390625 -32.703125 C 48.441406 -29.335938 49.46875 -25.546875 49.46875 -21.328125 C 49.46875 -17.097656 48.441406 -13.296875 46.390625 -9.921875 C 44.335938 -6.554688 41.515625 -3.914062 37.921875 -2 C 34.328125 -0.09375 30.273438 0.859375 25.765625 0.859375 Z M 25.765625 -9.140625 C 27.921875 -9.140625 29.867188 -9.644531 31.609375 -10.65625 C 33.359375 -11.675781 34.738281 -13.109375 35.75 -14.953125 C 36.769531 -16.804688 37.28125 -18.929688 37.28125 -21.328125 C 37.28125 -23.722656 36.769531 -25.84375 35.75 -27.6875 C 34.738281 -29.539062 33.359375 -30.972656 31.609375 -31.984375 C 29.867188 -32.992188 27.921875 -33.5 25.765625 -33.5 C 23.617188 -33.5 21.671875 -32.992188 19.921875 -31.984375 C 18.171875 -30.972656 16.785156 -29.539062 15.765625 -27.6875 C 14.753906 -25.84375 14.25 -23.722656 14.25 -21.328125 C 14.25 -18.929688 14.753906 -16.804688 15.765625 -14.953125 C 16.785156 -13.109375 18.171875 -11.675781 19.921875 -10.65625 C 21.671875 -9.644531 23.617188 -9.140625 25.765625 -9.140625 Z M 25.765625 -9.140625 "/></g></g></g><g fill="#292929" fill-opacity="1"><g transform="translate(443.308055, 464.266169)"><g><path d="M 23.765625 -42.640625 C 27.617188 -42.640625 30.96875 -42 33.8125 -40.71875 C 36.65625 -39.445312 38.847656 -37.617188 40.390625 -35.234375 C 41.929688 -32.859375 42.703125 -30.066406 42.703125 -26.859375 C 42.703125 -23.648438 41.929688 -20.867188 40.390625 -18.515625 C 38.847656 -16.160156 36.65625 -14.34375 33.8125 -13.0625 C 30.96875 -11.789062 27.617188 -11.15625 23.765625 -11.15625 L 16.328125 -11.15625 L 16.328125 0 L 4.265625 0 L 4.265625 -42.640625 Z M 23.03125 -20.65625 C 25.507812 -20.65625 27.375 -21.191406 28.625 -22.265625 C 29.882812 -23.335938 30.515625 -24.867188 30.515625 -26.859375 C 30.515625 -28.859375 29.882812 -30.40625 28.625 -31.5 C 27.375 -32.59375 25.507812 -33.140625 23.03125 -33.140625 L 16.328125 -33.140625 L 16.328125 -20.65625 Z M 23.03125 -20.65625 "/></g></g></g><g fill="#292929" fill-opacity="1"><g transform="translate(488.201715, 464.266169)"><g><path d="M 38.5 -9.328125 L 38.5 0 L 4.265625 0 L 4.265625 -42.640625 L 37.703125 -42.640625 L 37.703125 -33.328125 L 16.203125 -33.328125 L 16.203125 -26.140625 L 35.15625 -26.140625 L 35.15625 -17.125 L 16.203125 -17.125 L 16.203125 -9.328125 Z M 38.5 -9.328125 "/></g></g></g><g fill="#292929" fill-opacity="1"><g transform="translate(529.135947, 464.266169)"><g><path d="M 22.90625 -11.328125 L 16.328125 -11.328125 L 16.328125 0 L 4.265625 0 L 4.265625 -42.640625 L 23.765625 -42.640625 C 27.617188 -42.640625 30.96875 -42 33.8125 -40.71875 C 36.65625 -39.445312 38.847656 -37.617188 40.390625 -35.234375 C 41.929688 -32.859375 42.703125 -30.066406 42.703125 -26.859375 C 42.703125 -23.773438 41.976562 -21.085938 40.53125 -18.796875 C 39.09375 -16.503906 37.035156 -14.707031 34.359375 -13.40625 L 43.5625 0 L 30.640625 0 Z M 30.515625 -26.859375 C 30.515625 -28.859375 29.882812 -30.40625 28.625 -31.5 C 27.375 -32.59375 25.507812 -33.140625 23.03125 -33.140625 L 16.328125 -33.140625 L 16.328125 -20.65625 L 23.03125 -20.65625 C 25.507812 -20.65625 27.375 -21.191406 28.625 -22.265625 C 29.882812 -23.335938 30.515625 -24.867188 30.515625 -26.859375 Z M 30.515625 -26.859375 "/></g></g></g></svg>