<svg xmlns="http://www.w3.org/2000/svg" xmlns:xlink="http://www.w3.org/1999/xlink" width="1000" zoomAndPan="magnify" viewBox="0 0 750 749.999995" height="1000" preserveAspectRatio="xMidYMid meet" version="1.0"><defs><g/><clipPath id="c6da7b94c3"><path d="M 142.304688 332 L 258.195312 332 L 258.195312 457.867188 L 142.304688 457.867188 Z M 142.304688 332 " clip-rule="nonzero"/></clipPath></defs><rect x="-75" width="900" fill="#ffffff" y="-74.999999" height="899.999994" fill-opacity="1"/><rect x="-75" width="900" fill="#231f20" y="-74.999999" height="899.999994" fill-opacity="1"/><g clip-path="url(#c6da7b94c3)"><path fill="#32c0c1" d="M 253.855469 373.507812 C 254.082031 373.519531 254.027344 373.542969 254.046875 373.394531 C 253.820312 373.378906 253.882812 373.355469 253.855469 373.507812 Z M 222.007812 411.847656 L 222.140625 411.925781 L 222.171875 411.816406 Z M 211.480469 411.941406 C 211.539062 411.933594 211.597656 411.929688 211.65625 411.929688 C 211.445312 411.738281 211.523438 411.777344 211.339844 411.847656 C 211.386719 411.875 211.429688 411.910156 211.480469 411.941406 Z M 191.757812 412.582031 C 191.667969 412.625 191.578125 412.675781 191.484375 412.722656 C 191.691406 412.796875 191.566406 412.835938 191.941406 412.640625 C 191.882812 412.621094 191.816406 412.601562 191.757812 412.582031 Z M 219.347656 411.933594 C 218.570312 411.828125 217.835938 411.632812 216.742188 411.933594 C 217.875 411.933594 218.609375 411.933594 219.347656 411.933594 Z M 203.316406 374.296875 C 203.292969 374.285156 203.261719 374.277344 203.238281 374.265625 C 202.246094 374.265625 201.246094 374.265625 200.25 374.265625 C 200.25 374.277344 200.25 374.285156 200.25 374.296875 C 201.269531 374.296875 202.292969 374.296875 203.316406 374.296875 Z M 179.171875 416.125 C 178.941406 416.261719 178.546875 416.453125 178.207031 416.71875 C 178.117188 416.785156 178.164062 417.226562 178.222656 417.246094 C 179.671875 417.675781 179.742188 417.480469 180.183594 417.105469 C 180.402344 416.914062 180.253906 416.335938 179.980469 416.265625 C 179.789062 416.21875 179.589844 416.199219 179.171875 416.125 Z M 221.019531 413.125 C 221.019531 413.109375 221.019531 413.089844 221.019531 413.078125 C 219.632812 413.078125 218.25 413.078125 216.871094 413.078125 C 216.871094 413.089844 216.871094 413.109375 216.871094 413.125 C 218.25 413.125 219.632812 413.125 221.019531 413.125 Z M 187.316406 378.019531 C 187.25 377.902344 187.164062 377.605469 187.0625 377.597656 C 186.609375 377.574219 186.132812 377.558594 185.71875 377.695312 C 185.375 377.808594 185.398438 378.539062 185.699219 378.761719 C 186.238281 379.152344 187.1875 378.761719 187.316406 378.019531 Z M 219.074219 378.175781 C 219.859375 378.175781 220.308594 377.808594 220.382812 377.246094 C 220.511719 376.28125 218.367188 376.265625 218.605469 377.535156 C 218.652344 377.800781 218.953125 378.019531 219.074219 378.175781 Z M 252.234375 374.332031 C 252.265625 374.3125 252.292969 374.296875 252.316406 374.28125 C 252.0625 374.222656 252.933594 374.238281 246.277344 374.238281 C 246.277344 374.265625 246.277344 374.296875 246.277344 374.332031 C 248.261719 374.332031 250.25 374.332031 252.234375 374.332031 Z M 211.054688 415.324219 C 210.128906 415.320312 209.761719 415.496094 209.628906 416.074219 C 209.5625 416.355469 209.625 416.78125 209.804688 416.972656 C 210.542969 417.75 212.253906 416.566406 211.707031 415.738281 C 211.546875 415.507812 211.1875 415.410156 211.054688 415.324219 Z M 225.242188 374.617188 C 225.234375 374.65625 225.222656 374.6875 225.21875 374.726562 C 229.039062 374.726562 232.867188 374.726562 236.691406 374.726562 C 236.691406 374.6875 236.691406 374.65625 236.691406 374.617188 C 232.871094 374.617188 229.058594 374.617188 225.242188 374.617188 Z M 229.011719 413.390625 C 234.65625 413.738281 241.640625 413.738281 243.757812 413.390625 C 238.652344 413.390625 233.832031 413.390625 229.011719 413.390625 Z M 183.65625 416.183594 C 183.164062 417.5 184.300781 417.695312 185.722656 417.6875 C 185.792969 417.6875 196.503906 417.519531 196.574219 417.515625 C 197.691406 417.492188 197.890625 417.277344 198.285156 415.664062 C 193.335938 415.6875 188.46875 415.859375 183.65625 416.183594 Z M 207.660156 377.039062 C 205.953125 376.878906 209.253906 376.820312 191.113281 377.304688 C 190.84375 377.316406 190.539062 377.300781 190.3125 377.421875 C 189.773438 377.703125 189.664062 378.226562 190.183594 378.671875 C 190.574219 379 189.953125 379.097656 205.449219 378.65625 C 206.878906 378.613281 208.097656 378.394531 207.660156 377.039062 Z M 219.296875 380.6875 C 217.375 380.324219 217.917969 379.96875 213.003906 401.625 C 212.855469 402.28125 212.625 402.929688 212.8125 403.601562 C 214.472656 403.777344 214.523438 403.757812 214.917969 402.675781 C 215.300781 401.636719 219.253906 383.273438 219.359375 382.800781 C 219.5 382.140625 219.742188 381.46875 219.296875 380.6875 Z M 182.316406 406.179688 C 183.277344 402.234375 186.609375 382.527344 186.589844 381.949219 C 186.550781 380.816406 185.214844 380.84375 184.839844 381.515625 C 184.453125 382.210938 180.597656 403.679688 180.304688 405.566406 C 180.273438 405.738281 180.40625 405.9375 180.480469 406.179688 C 181.035156 406.179688 181.558594 406.179688 182.316406 406.179688 Z M 206.671875 381.179688 C 205.777344 380.824219 205.546875 380.613281 204.707031 380.726562 C 201.359375 381.191406 197.992188 380.882812 194.628906 380.886719 C 190.15625 380.898438 189.339844 380.347656 188.964844 382.695312 C 188.957031 382.769531 186.699219 399.109375 185.714844 403.394531 C 185.527344 404.226562 185.429688 405.011719 186.113281 405.820312 C 190.960938 405.304688 195.851562 404.785156 200.945312 404.242188 C 202.324219 396.453125 204.976562 389.035156 206.671875 381.179688 Z M 221.113281 366.863281 C 222.574219 367.085938 222.636719 367.089844 222.867188 366.25 C 224.007812 362.019531 227.480469 343.488281 227.863281 342.375 C 228.496094 342.53125 228.398438 342.929688 228.382812 343.238281 C 228.222656 346.324219 227.96875 349.386719 227.261719 352.421875 C 226.570312 355.390625 226.011719 360.75 225.253906 364.390625 C 225.078125 365.207031 224.917969 366 225.199219 366.914062 C 226.882812 367.394531 227.371094 367.113281 242.828125 367.046875 C 255.398438 366.988281 256.792969 367.414062 257.824219 371.085938 C 258.261719 372.632812 258.28125 374.035156 257.625 375.46875 C 257.265625 376.242188 256.929688 376.480469 256.183594 376.285156 C 253.949219 375.691406 251.671875 375.875 249.414062 375.894531 C 244.933594 375.9375 224.359375 376.378906 223.636719 376.519531 C 222.621094 376.722656 222.375 378.167969 223.738281 378.15625 C 257.882812 377.855469 257.28125 375.957031 257.605469 379.769531 C 249.421875 379.195312 237.878906 380.421875 231.613281 379.921875 C 231.175781 379.886719 233.402344 379.859375 223.640625 380.5 C 222.351562 380.582031 222.09375 380.734375 221.8125 382.003906 C 221.796875 382.078125 217.582031 402.925781 217.566406 403 C 217.453125 403.667969 217.800781 404.117188 218.425781 404.089844 C 225.875 403.78125 246.585938 404.863281 246.503906 405.535156 C 246.382812 406.496094 247.929688 406.417969 247.609375 407.550781 C 247.09375 408.234375 246.144531 407.789062 245.089844 408.210938 C 246.128906 408.292969 246.875 408.347656 247.949219 408.4375 C 247.167969 408.820312 246.699219 409.050781 246.066406 409.363281 C 246.863281 409.363281 247.496094 409.363281 248.097656 409.363281 C 248.90625 411.167969 248.882812 411.308594 247.613281 412.273438 C 247.785156 412.355469 247.960938 412.445312 248.140625 412.527344 C 247.664062 414.714844 247.242188 415.1875 245.121094 415.285156 C 239.859375 415.527344 216.066406 415.203125 215.417969 415.359375 C 215.160156 415.429688 214.851562 415.746094 214.769531 416.011719 C 214.289062 417.609375 216.625 416.996094 220.378906 417.320312 C 222.019531 417.457031 223.636719 417.402344 225.277344 417.230469 C 226.476562 417.105469 227.726562 417.449219 228.953125 417.433594 C 232.75 417.402344 243.949219 417.335938 247.421875 416.976562 C 248.652344 418.148438 247.761719 419.679688 246.257812 419.710938 C 243.792969 419.75 241.351562 420.167969 238.875 419.910156 C 237.292969 419.75 230.726562 419.96875 230.261719 420.003906 C 229.917969 420.035156 229.539062 420.265625 229.25 420.171875 C 227.300781 419.558594 225.320312 420.488281 223.355469 419.988281 C 222.660156 419.8125 221.863281 420.074219 221.109375 420.082031 C 215.164062 420.152344 214.679688 419.847656 213.488281 420.726562 C 212.804688 423.828125 211.714844 426.941406 211.351562 430.230469 C 211.320312 430.574219 211.304688 430.925781 211.191406 431.25 C 210.058594 434.578125 211.015625 432.632812 207.101562 448.445312 C 207.035156 448.710938 206.949219 448.984375 206.957031 449.253906 C 207.054688 451.515625 206.042969 453.53125 205.550781 455.660156 C 205.417969 456.222656 205.011719 456.71875 204.667969 457.359375 C 204.070312 457.128906 203.597656 456.949219 203.121094 456.765625 C 204.570312 451.871094 204.800781 449.433594 206.855469 439.359375 C 211.152344 418.253906 209.761719 426.355469 210.582031 420.445312 C 208.964844 420 208.78125 420.042969 208.5 421.25 C 207.363281 426.144531 204.042969 442.796875 203.066406 447.703125 C 202.195312 452.074219 202.246094 453.769531 200.929688 456.679688 C 200.609375 457.398438 200.113281 457.285156 199.375 456.304688 C 199.011719 456.664062 198.664062 457.011719 198.308594 457.359375 C 198.074219 457.109375 197.910156 456.929688 197.699219 456.707031 C 196.234375 457.796875 196.023438 457.914062 195.554688 456.820312 C 195.292969 456.203125 194.601562 456.644531 194.484375 456.09375 C 193.488281 456.1875 192.871094 455.582031 192.210938 454.8125 C 192.324219 454.011719 192.480469 453.140625 192.566406 452.257812 C 193.308594 445.160156 194.566406 438.132812 195.648438 431.085938 C 197.011719 422.195312 198.074219 421.140625 197.085938 419.996094 C 187.769531 419.996094 187.953125 420.265625 186.074219 419.90625 C 184.820312 419.671875 183.292969 420.152344 182.804688 420.257812 C 182.074219 421.433594 182.234375 422.808594 181.890625 424.042969 C 181.304688 426.144531 178.535156 437.765625 178.039062 441.09375 C 177.691406 443.417969 176.589844 445.507812 175.785156 447.691406 C 174.910156 448.007812 174.242188 447.675781 173.664062 447.167969 C 173.144531 446.710938 173.199219 446.066406 173.316406 445.300781 C 175.675781 444.125 174.488281 442.039062 177.824219 430.519531 C 177.929688 430.171875 179.460938 420.882812 179.472656 420.808594 C 179.492188 420.695312 179.382812 420.558594 179.269531 420.257812 C 178.78125 420.199219 178.207031 420.132812 177.726562 420.070312 C 177.1875 420.710938 177.609375 419.472656 176.074219 426.351562 C 171.484375 446.953125 171.792969 445.523438 171.746094 445.652344 C 171.195312 447.152344 171.46875 447.757812 168.875 447.703125 C 168.589844 447.695312 167.578125 448.242188 167.4375 448.058594 C 167.074219 447.589844 166.722656 447.644531 166.199219 447.828125 C 165.4375 448.09375 164.675781 448.050781 164.433594 447.027344 L 162.605469 446.269531 C 161.769531 446.1875 160.730469 445.121094 160.804688 444.28125 C 161.359375 438.152344 162.484375 434.699219 162.535156 434.394531 C 164.972656 419.183594 164.390625 425.335938 165.089844 419.761719 C 163.933594 418.632812 156.625 418.808594 147.96875 416.789062 C 147.554688 416.699219 147.199219 416.363281 146.652344 416.046875 C 147.039062 415.855469 147.21875 415.683594 147.359375 415.703125 C 150.191406 416.167969 153.097656 416.171875 155.855469 417.078125 C 156.3125 417.230469 157.554688 416.890625 158.074219 417.019531 C 160.09375 417.546875 162.164062 416.882812 164.195312 417.375 C 164.839844 417.53125 165.527344 417.316406 165.878906 416.339844 C 165.160156 416.261719 164.578125 416.167969 163.988281 416.144531 C 151.15625 415.605469 146.832031 414.644531 146.535156 414.609375 C 145.550781 414.496094 144.597656 414.367188 144.234375 413.222656 C 142.945312 412.78125 142.980469 411.546875 142.699219 410.554688 C 142.324219 409.207031 143.320312 408.78125 144.734375 408.726562 C 159.898438 408.132812 153.101562 408.5 167.183594 407.558594 C 168.496094 406.257812 167.546875 405.785156 170.761719 392.859375 C 173.921875 380.171875 173.054688 384.59375 173.488281 381.1875 C 173.101562 380.457031 172.519531 380.554688 171.980469 380.539062 C 152.488281 379.984375 169.710938 380.386719 155.144531 379.847656 C 154.847656 379.839844 154.550781 379.710938 154.058594 379.589844 C 154.726562 378.941406 155.359375 378.992188 155.9375 378.980469 C 175.261719 378.632812 171.410156 378.878906 173.214844 378.890625 C 173.738281 378.890625 174.144531 378.667969 174.109375 377.859375 C 173.019531 377.65625 174.414062 377.617188 166.652344 377.691406 C 152.445312 377.824219 154.136719 377.734375 148.722656 378.839844 C 147.460938 378.335938 146.8125 377.304688 146.71875 375.875 C 146.671875 375.277344 146.820312 374.777344 147.371094 374.476562 C 149.476562 373.351562 148.027344 373.523438 156.773438 371.65625 C 159.886719 370.996094 159.167969 371.328125 176.429688 369.367188 C 176.625 368.992188 177.09375 368.476562 177.140625 367.921875 C 177.28125 366.167969 183.441406 344.53125 188.15625 334.359375 C 188.714844 333.160156 190.019531 331.921875 191.324219 332.195312 C 193.066406 332.566406 194.65625 334.882812 194.203125 336.164062 C 193.234375 338.910156 187.570312 366.804688 187.355469 368.167969 C 188.667969 368.683594 189.109375 368.519531 189.339844 367.394531 C 191.074219 358.921875 194.136719 339.550781 195.28125 337.105469 C 195.515625 337.417969 195.722656 337.570312 195.734375 337.726562 C 195.925781 340.996094 191.976562 361.105469 191.535156 367.972656 C 193.042969 368.363281 191.582031 368.386719 196.640625 367.941406 C 198.179688 367.804688 209.320312 367.425781 209.394531 367.425781 C 210.386719 367.488281 210.917969 366.921875 211.207031 366.066406 C 211.773438 364.40625 215.699219 350.476562 218.535156 345.144531 C 220.792969 340.910156 221.71875 336.898438 224.335938 337.363281 C 225.992188 337.65625 227.34375 339.609375 226.84375 341.632812 C 226.542969 342.878906 221.257812 365.660156 221.238281 365.730469 C 221.167969 366.0625 221.160156 366.410156 221.113281 366.863281 " fill-opacity="1" fill-rule="nonzero"/></g><path fill="#32c0c1" d="M 152.867188 379.710938 C 152.519531 380.019531 153.175781 379.882812 149.882812 380.304688 C 150.332031 379.132812 151.324219 379.574219 151.964844 379.289062 C 152.316406 379.136719 152.765625 379.078125 152.867188 379.710938 " fill-opacity="1" fill-rule="nonzero"/><g fill="#32c0c1" fill-opacity="1"><g transform="translate(323.2229, 404.201896)"><g><path d="M 3 -10.15625 L -5.25 -48.03125 L -5.8125 -47.90625 L -12.171875 -55.796875 L -11.515625 -76.71875 L 8.109375 -80.984375 L 14.671875 -72.6875 L 17.59375 -59.3125 L 28.25 -61.625 L 23.296875 -84.296875 L 43.140625 -88.625 L 49.46875 -80.984375 L 64.078125 -13.96875 L 44.5625 -9.71875 L 37.8125 -17.734375 L 34.53125 -32.828125 L 23.875 -30.515625 L 29.140625 -6.359375 L 9.296875 -2.03125 Z M 20.828125 -15.59375 L 15.53125 -39.859375 L 34.359375 -43.96875 L 39.65625 -19.703125 L 55.65625 -23.1875 L 41.90625 -86.234375 L 25.90625 -82.75 L 30.828125 -60.1875 L 12 -56.078125 L 7.078125 -78.640625 L -9.59375 -75 L -10.15625 -58.015625 L -5.390625 -59.0625 L 4.84375 -12.109375 Z M 20.828125 -15.59375 "/></g></g></g><g fill="#32c0c1" fill-opacity="1"><g transform="translate(385.944642, 390.351652)"><g><path d="M 28.984375 -1.328125 C 24.578125 -1.128906 20.789062 -1.769531 17.625 -3.25 C 14.457031 -4.726562 11.554688 -7.191406 8.921875 -10.640625 C 7.679688 -12.273438 6.507812 -14.097656 5.40625 -16.109375 C 4.3125 -18.117188 3.347656 -20.164062 2.515625 -22.25 C 1.691406 -24.332031 1.039062 -26.390625 0.5625 -28.421875 C 0.0820312 -30.460938 -0.195312 -32.375 -0.28125 -34.15625 C -0.4375 -37.625 0.0078125 -40.929688 1.0625 -44.078125 C 2.113281 -47.222656 3.648438 -49.960938 5.671875 -52.296875 C 7.703125 -54.640625 10.097656 -56.535156 12.859375 -57.984375 C 15.617188 -59.429688 18.617188 -60.226562 21.859375 -60.375 C 23.710938 -60.457031 25.398438 -60.359375 26.921875 -60.078125 C 28.453125 -59.804688 30.203125 -59.25 32.171875 -58.40625 L 32.078125 -60.375 L 49.578125 -61.1875 L 54.765625 -52.25 L 55.8125 -29.40625 L 56.5 -29.4375 L 60.859375 -20.921875 L 57.046875 -2.625 L 41.734375 -1.921875 L 39.328125 -6.109375 L 37.796875 -1.734375 Z M 54.25 -27.9375 L 50.078125 -27.75 L 48.640625 -59.171875 L 34.15625 -58.5 L 34.296875 -55.359375 C 31.921875 -56.566406 29.8125 -57.378906 27.96875 -57.796875 C 26.125 -58.222656 24.195312 -58.390625 22.1875 -58.296875 C 19.175781 -58.160156 16.398438 -57.429688 13.859375 -56.109375 C 11.328125 -54.796875 9.160156 -53.050781 7.359375 -50.875 C 5.566406 -48.707031 4.175781 -46.164062 3.1875 -43.25 C 2.195312 -40.332031 1.78125 -37.253906 1.9375 -34.015625 C 2.15625 -29.210938 3.40625 -25.023438 5.6875 -21.453125 C 7.976562 -17.890625 10.941406 -15.414062 14.578125 -14.03125 C 16.546875 -13.34375 18.851562 -12.828125 21.5 -12.484375 C 24.144531 -12.140625 26.707031 -12.023438 29.1875 -12.140625 L 33.125 -12.328125 L 36 -20.59375 L 36.375 -12.46875 L 51.09375 -13.15625 Z M 27.953125 -26.015625 C 24.242188 -25.847656 21.347656 -26.550781 19.265625 -28.125 C 17.191406 -29.695312 16.085938 -31.953125 15.953125 -34.890625 C 15.828125 -37.660156 16.644531 -40.035156 18.40625 -42.015625 C 20.164062 -44.003906 22.441406 -45.0625 25.234375 -45.1875 C 26.773438 -45.257812 28.195312 -44.992188 29.5 -44.390625 C 30.8125 -43.796875 31.914062 -42.976562 32.8125 -41.9375 C 33.71875 -40.894531 34.332031 -39.757812 34.65625 -38.53125 C 34.988281 -37.3125 35.21875 -35.390625 35.34375 -32.765625 L 35.625 -26.375 Z M 33.4375 -28.375 L 33.1875 -33.828125 C 31.757812 -34.460938 30.234375 -34.742188 28.609375 -34.671875 C 25.597656 -34.523438 23.519531 -32.5625 22.375 -28.78125 C 23.5625 -28.226562 25.585938 -28.015625 28.453125 -28.140625 Z M 33.4375 -28.375 "/></g></g></g><g fill="#32c0c1" fill-opacity="1"><g transform="translate(443.179308, 387.96775)"><g><path d="M 2.78125 -12.578125 L 8.921875 -27.5 C 9.441406 -27.144531 9.847656 -26.878906 10.140625 -26.703125 C 10.429688 -26.523438 10.753906 -26.257812 11.109375 -25.90625 C 11.535156 -25.550781 11.835938 -25.304688 12.015625 -25.171875 C 12.203125 -25.046875 12.519531 -24.882812 12.96875 -24.6875 C 12.207031 -25.613281 11.453125 -26.90625 10.703125 -28.5625 C 9.960938 -30.226562 9.304688 -31.976562 8.734375 -33.8125 C 8.171875 -35.65625 7.738281 -37.484375 7.4375 -39.296875 C 7.132812 -41.117188 7.039062 -42.601562 7.15625 -43.75 C 7.351562 -45.976562 7.976562 -47.992188 9.03125 -49.796875 C 10.082031 -51.609375 11.484375 -53.132812 13.234375 -54.375 C 14.984375 -55.625 17.007812 -56.53125 19.3125 -57.09375 C 21.613281 -57.65625 24.078125 -57.816406 26.703125 -57.578125 C 29.703125 -57.296875 32.515625 -56.648438 35.140625 -55.640625 C 37.773438 -54.628906 40.75 -53.070312 44.0625 -50.96875 L 47.109375 -41.265625 L 41.3125 -27.234375 C 42.632812 -23.921875 43.660156 -20.734375 44.390625 -17.671875 C 45.117188 -14.609375 45.398438 -12.191406 45.234375 -10.421875 C 45.035156 -8.191406 44.367188 -6.195312 43.234375 -4.4375 C 42.097656 -2.6875 40.617188 -1.195312 38.796875 0.03125 C 36.972656 1.269531 34.867188 2.171875 32.484375 2.734375 C 30.109375 3.296875 27.570312 3.453125 24.875 3.203125 C 21.570312 2.898438 18.410156 2.238281 15.390625 1.21875 C 12.367188 0.207031 9.015625 -1.359375 5.328125 -3.484375 Z M 5.40625 -13.375 C 8.46875 -11.851562 11.546875 -10.640625 14.640625 -9.734375 C 17.742188 -8.828125 20.722656 -8.238281 23.578125 -7.96875 C 28.347656 -7.539062 32.25 -8.410156 35.28125 -10.578125 C 38.320312 -12.742188 40.035156 -15.910156 40.421875 -20.078125 C 40.765625 -23.847656 39.390625 -27.117188 36.296875 -29.890625 C 35.796875 -30.410156 35.347656 -30.820312 34.953125 -31.125 C 34.566406 -31.4375 34.113281 -31.753906 33.59375 -32.078125 C 33.070312 -32.398438 32.398438 -32.769531 31.578125 -33.1875 C 30.765625 -33.601562 29.6875 -34.144531 28.34375 -34.8125 C 25.507812 -36.164062 24.1875 -37.847656 24.375 -39.859375 C 24.5 -41.160156 25.0625 -42.171875 26.0625 -42.890625 C 27.0625 -43.617188 28.296875 -43.921875 29.765625 -43.796875 C 30.992188 -43.679688 32.1875 -43.335938 33.34375 -42.765625 C 34.5 -42.191406 35.90625 -41.238281 37.5625 -39.90625 L 41.984375 -50.125 C 39.128906 -51.9375 36.492188 -53.265625 34.078125 -54.109375 C 31.660156 -54.960938 29.101562 -55.507812 26.40625 -55.75 C 24.09375 -55.96875 21.941406 -55.8125 19.953125 -55.28125 C 17.972656 -54.757812 16.210938 -53.96875 14.671875 -52.90625 C 13.140625 -51.84375 11.894531 -50.519531 10.9375 -48.9375 C 9.976562 -47.351562 9.410156 -45.597656 9.234375 -43.671875 C 9.097656 -42.140625 9.285156 -40.550781 9.796875 -38.90625 C 10.304688 -37.257812 11.0625 -35.925781 12.0625 -34.90625 C 12.820312 -34.0625 13.882812 -33.222656 15.25 -32.390625 C 16.613281 -31.566406 18.414062 -30.632812 20.65625 -29.59375 C 22.582031 -28.625 23.898438 -27.738281 24.609375 -26.9375 C 25.316406 -26.144531 25.613281 -25.128906 25.5 -23.890625 C 25.375 -22.515625 24.8125 -21.460938 23.8125 -20.734375 C 22.8125 -20.003906 21.5 -19.710938 19.875 -19.859375 C 18.34375 -20.003906 16.804688 -20.394531 15.265625 -21.03125 C 13.734375 -21.675781 11.910156 -22.753906 9.796875 -24.265625 Z M 5.40625 -13.375 "/></g></g></g><g fill="#32c0c1" fill-opacity="1"><g transform="translate(483.560105, 390.799232)"><g><path d="M 7.140625 -7.765625 L 16.65625 -49.046875 L 16.09375 -49.171875 L 13.375 -58.5 L 22.6875 -76.234375 L 40.21875 -72.203125 L 42.734375 -61.859375 L 40.25 -51.109375 L 47.484375 -49.4375 C 51.472656 -48.519531 54.441406 -47.359375 56.390625 -45.953125 C 58.335938 -44.554688 59.78125 -42.476562 60.71875 -39.71875 C 61.894531 -35.875 62.632812 -32.445312 62.9375 -29.4375 C 63.238281 -26.425781 63.050781 -23.445312 62.375 -20.5 L 60.828125 -13.84375 L 61.75 -13.640625 L 63.8125 -3.5 L 54.859375 12.640625 L 36.984375 8.53125 L 34.96875 -1.828125 L 39.8125 -22.859375 C 38.644531 -23.679688 37.226562 -24.285156 35.5625 -24.671875 C 35.425781 -24.703125 35.242188 -24.742188 35.015625 -24.796875 C 34.785156 -24.859375 34.515625 -24.882812 34.203125 -24.875 L 27.03125 6.234375 L 8.9375 2.0625 Z M 23.671875 -5.609375 L 30.8125 -36.59375 L 36.140625 -35.375 C 39.378906 -34.625 41.421875 -33.476562 42.265625 -31.9375 C 43.109375 -30.40625 43.117188 -27.863281 42.296875 -24.3125 L 37.265625 -2.484375 L 52.40625 1 L 59.140625 -12.21875 L 54.515625 -13.28125 L 58.03125 -28.546875 C 58.800781 -31.859375 59.164062 -34.390625 59.125 -36.140625 C 59.09375 -37.898438 58.664062 -39.554688 57.84375 -41.109375 C 56.875 -42.835938 55.601562 -44.160156 54.03125 -45.078125 C 52.46875 -45.992188 50.101562 -46.816406 46.9375 -47.546875 L 38.90625 -49.40625 L 31.984375 -41.6875 L 38.640625 -70.515625 L 23.71875 -73.96875 L 16.5 -59.6875 L 21.015625 -58.640625 L 9.546875 -8.875 Z M 23.671875 -5.609375 "/></g></g></g><g fill="#f53098" fill-opacity="1"><g transform="translate(392.613886, 458.825512)"><g><path d="M 27.25 -25.203125 C 26.15625 -25.203125 24.453125 -25.28125 22.140625 -25.4375 C 19.910156 -25.59375 18.207031 -25.664062 17.03125 -25.65625 C 17.082031 -24.050781 17.269531 -21.203125 17.59375 -17.109375 C 17.894531 -13.492188 18.046875 -10.632812 18.046875 -8.53125 C 18.046875 -8.0625 18.09375 -7.351562 18.1875 -6.40625 C 18.28125 -5.46875 18.328125 -4.765625 18.328125 -4.296875 C 18.328125 -3.242188 18.101562 -2.296875 17.65625 -1.453125 C 17.082031 -0.367188 16.265625 0.171875 15.203125 0.171875 C 14.429688 0.171875 13.75 -0.0703125 13.15625 -0.5625 C 12.5 -1.113281 12.171875 -1.800781 12.171875 -2.625 C 12.171875 -2.820312 12.207031 -3.117188 12.28125 -3.515625 C 12.351562 -3.921875 12.390625 -4.226562 12.390625 -4.4375 C 12.390625 -5.082031 12.34375 -6.054688 12.25 -7.359375 C 12.15625 -8.660156 12.109375 -9.640625 12.109375 -10.296875 C 12.109375 -12.179688 11.960938 -14.726562 11.671875 -17.9375 C 11.335938 -21.625 11.140625 -24.164062 11.078125 -25.5625 L 9.984375 -25.5625 C 6.859375 -25.5625 4.378906 -25.785156 2.546875 -26.234375 C 0.984375 -26.617188 0.203125 -27.539062 0.203125 -29 C 0.203125 -29.707031 0.457031 -30.351562 0.96875 -30.9375 C 1.550781 -31.613281 2.320312 -31.921875 3.28125 -31.859375 C 3.769531 -31.828125 4.882812 -31.707031 6.625 -31.5 C 8.007812 -31.34375 9.128906 -31.265625 9.984375 -31.265625 C 10.835938 -31.265625 12.113281 -31.273438 13.8125 -31.296875 C 15.519531 -31.328125 16.800781 -31.34375 17.65625 -31.34375 C 18.726562 -31.34375 20.328125 -31.269531 22.453125 -31.125 C 24.585938 -30.976562 26.1875 -30.90625 27.25 -30.90625 C 28.09375 -30.90625 28.796875 -30.628906 29.359375 -30.078125 C 29.929688 -29.535156 30.21875 -28.867188 30.21875 -28.078125 C 30.21875 -27.273438 29.929688 -26.59375 29.359375 -26.03125 C 28.796875 -25.476562 28.09375 -25.203125 27.25 -25.203125 Z M 27.25 -25.203125 "/></g></g></g><g fill="#f53098" fill-opacity="1"><g transform="translate(422.580348, 458.825512)"><g><path d="M 20.296875 1.390625 C 19.648438 1.390625 18.625 0.6875 17.21875 -0.71875 C 15.925781 -0.101562 14.789062 0.359375 13.8125 0.671875 C 12.832031 0.992188 12 1.15625 11.3125 1.15625 C 7.9375 1.15625 5.398438 0.253906 3.703125 -1.546875 C 2.015625 -3.359375 1.171875 -6.066406 1.171875 -9.671875 C 1.171875 -13.046875 2.414062 -15.9375 4.90625 -18.34375 C 7.40625 -20.75 10.394531 -21.953125 13.875 -21.953125 C 15.207031 -21.953125 16.75 -21.570312 18.5 -20.8125 C 20.613281 -19.90625 21.671875 -18.847656 21.671875 -17.640625 C 21.671875 -17.140625 21.507812 -16.695312 21.1875 -16.3125 C 21.050781 -15.75 20.941406 -15.046875 20.859375 -14.203125 C 20.785156 -13.359375 20.75 -12.367188 20.75 -11.234375 C 20.75 -8.554688 20.941406 -6.628906 21.328125 -5.453125 C 21.367188 -5.316406 21.6875 -4.585938 22.28125 -3.265625 C 22.832031 -2.054688 23.109375 -1.367188 23.109375 -1.203125 C 23.109375 -0.453125 22.820312 0.164062 22.25 0.65625 C 21.6875 1.144531 21.035156 1.390625 20.296875 1.390625 Z M 15.078125 -13.03125 C 15.078125 -13.476562 15.109375 -13.992188 15.171875 -14.578125 C 15.234375 -15.160156 15.328125 -15.8125 15.453125 -16.53125 C 15.171875 -16.664062 14.921875 -16.765625 14.703125 -16.828125 C 14.484375 -16.890625 14.300781 -16.921875 14.15625 -16.921875 C 12.25 -16.921875 10.578125 -16.175781 9.140625 -14.6875 C 7.710938 -13.195312 7 -11.46875 7 -9.5 C 7 -7.625 7.332031 -6.210938 8 -5.265625 C 8.675781 -4.316406 9.6875 -3.84375 11.03125 -3.84375 C 11.90625 -3.84375 12.726562 -3.984375 13.5 -4.265625 C 14.28125 -4.554688 15.015625 -4.984375 15.703125 -5.546875 C 15.285156 -8.890625 15.078125 -11.382812 15.078125 -13.03125 Z M 15.078125 -13.03125 "/></g></g></g><g fill="#f53098" fill-opacity="1"><g transform="translate(446.51146, 458.825512)"><g><path d="M 21.640625 -12.53125 C 21.046875 -9.238281 20.691406 -5.765625 20.578125 -2.109375 C 20.441406 2.421875 19.6875 5.710938 18.3125 7.765625 C 16.476562 10.492188 13.226562 11.859375 8.5625 11.859375 C 3.101562 11.859375 0.375 10.78125 0.375 8.625 C 0.375 7.851562 0.617188 7.226562 1.109375 6.75 C 1.597656 6.269531 2.242188 6.03125 3.046875 6.03125 C 3.679688 6.03125 4.585938 6.148438 5.765625 6.390625 C 6.941406 6.628906 7.984375 6.75 8.890625 6.75 C 10.984375 6.75 12.523438 6.113281 13.515625 4.84375 C 14.472656 3.59375 15.035156 1.609375 15.203125 -1.109375 C 14.484375 -0.378906 13.675781 0.164062 12.78125 0.53125 C 11.882812 0.894531 10.90625 1.078125 9.84375 1.078125 C 7.050781 1.078125 4.78125 0.171875 3.03125 -1.640625 C 1.289062 -3.460938 0.421875 -5.789062 0.421875 -8.625 C 0.421875 -12.4375 1.582031 -15.519531 3.90625 -17.875 C 6.320312 -20.3125 9.582031 -21.53125 13.6875 -21.53125 C 15.007812 -21.53125 16.144531 -21.367188 17.09375 -21.046875 C 18.050781 -20.722656 18.820312 -20.234375 19.40625 -19.578125 C 21.1875 -19.367188 22.078125 -18.316406 22.078125 -16.421875 C 22.078125 -15.484375 21.929688 -14.1875 21.640625 -12.53125 Z M 13.484375 -16.734375 C 11.109375 -16.734375 9.265625 -15.957031 7.953125 -14.40625 C 6.773438 -12.988281 6.1875 -11.148438 6.1875 -8.890625 C 6.1875 -7.222656 6.5 -5.96875 7.125 -5.125 C 7.757812 -4.289062 8.707031 -3.875 9.96875 -3.875 C 11.113281 -3.875 12.269531 -4.535156 13.4375 -5.859375 C 14.53125 -7.128906 15.15625 -8.378906 15.3125 -9.609375 C 15.570312 -10.953125 15.878906 -13.046875 16.234375 -15.890625 C 15.753906 -16.171875 15.28125 -16.378906 14.8125 -16.515625 C 14.351562 -16.660156 13.910156 -16.734375 13.484375 -16.734375 Z M 13.484375 -16.734375 "/></g></g></g></svg>