<svg xmlns="http://www.w3.org/2000/svg" xmlns:xlink="http://www.w3.org/1999/xlink" width="1000" zoomAndPan="magnify" viewBox="0 0 750 749.999995" height="1000" preserveAspectRatio="xMidYMid meet" version="1.0"><defs><clipPath id="c5fe91043f"><path d="M 225 225.5625 L 525 225.5625 L 525 524.8125 L 225 524.8125 Z M 225 225.5625 " clip-rule="nonzero"/></clipPath></defs><rect x="-75" width="900" fill="#ffffff" y="-74.999999" height="899.999994" fill-opacity="1"/><rect x="-75" width="900" fill="#ffffff" y="-74.999999" height="899.999994" fill-opacity="1"/><g clip-path="url(#c5fe91043f)"><path fill="#000000" d="M 524.972656 225.5625 L 459.402344 287.378906 L 459.402344 252.09375 L 402.542969 252.09375 L 402.542969 341.136719 L 370.816406 370.808594 L 225.027344 524.8125 L 379.53125 379.539062 Z M 370.117188 508.40625 C 397.664062 508.40625 420.351562 500.375 435.691406 484.667969 C 450.683594 469.65625 459.402344 447.316406 459.402344 417.265625 L 459.402344 312.511719 L 402.542969 372.582031 L 402.542969 414.847656 C 402.542969 444.171875 389.644531 456.765625 368.722656 456.765625 C 355.476562 456.765625 343.96875 451.53125 333.160156 442.105469 L 295.828125 479.109375 C 312.914062 495.488281 336.621094 508.40625 370.117188 508.40625 Z M 370.117188 508.40625 " fill-opacity="1" fill-rule="evenodd"/></g></svg>