<svg xmlns="http://www.w3.org/2000/svg" xmlns:xlink="http://www.w3.org/1999/xlink" width="1000" zoomAndPan="magnify" viewBox="0 0 750 749.999995" height="1000" preserveAspectRatio="xMidYMid meet" version="1.0"><defs><clipPath id="55b54b878d"><path d="M 389 225 L 483.5625 225 L 483.5625 450 L 389 450 Z M 389 225 " clip-rule="nonzero"/></clipPath></defs><rect x="-75" width="900" fill="#ffffff" y="-74.999999" height="899.999994" fill-opacity="1"/><rect x="-75" width="900" fill="#ffffff" y="-74.999999" height="899.999994" fill-opacity="1"/><path fill="#393536" d="M 368.503906 524.660156 C 368.128906 524.660156 367.753906 524.660156 367.414062 524.558594 C 366.289062 524.320312 365.40625 523.773438 364.792969 522.890625 C 361.765625 524.113281 359.589844 524.660156 358.296875 524.351562 C 357.886719 524.25 357.582031 524.113281 357.34375 523.945312 C 356.832031 523.945312 356.390625 523.875 355.949219 523.773438 C 354.824219 523.535156 353.941406 523.058594 353.292969 522.3125 C 351.832031 522.789062 350.777344 522.925781 350.128906 522.789062 C 349.449219 522.617188 349.109375 522.210938 348.941406 521.9375 C 348.871094 521.835938 348.835938 521.734375 348.769531 521.632812 C 347.679688 521.324219 346.898438 520.746094 346.386719 519.863281 C 346.117188 519.421875 345.878906 518.976562 346.523438 518.058594 C 343.9375 518.976562 341.964844 519.316406 340.636719 519.011719 C 339.480469 518.738281 338.871094 518.09375 338.597656 517.582031 C 338.324219 517.140625 338.292969 516.597656 338.425781 516.085938 C 336.863281 516.359375 335.570312 516.425781 334.515625 516.1875 C 333.257812 515.914062 332.304688 515.234375 331.757812 514.25 C 331.757812 514.25 331.757812 514.25 331.757812 514.214844 C 331.386719 514.28125 331.078125 514.28125 330.839844 514.214844 C 330.332031 514.113281 329.921875 513.804688 329.683594 513.398438 C 329.445312 512.988281 329.410156 512.515625 329.546875 512.039062 C 329.617188 511.867188 329.683594 511.699219 329.820312 511.492188 C 329.546875 511.355469 329.34375 511.152344 329.207031 510.878906 C 329.003906 510.539062 328.867188 510.167969 328.730469 509.792969 C 323.730469 512.515625 323.558594 512.242188 323.1875 511.5625 C 322.980469 511.222656 322.8125 510.675781 323.015625 509.894531 C 323.050781 509.757812 323.117188 509.589844 323.1875 509.417969 C 322.335938 509.113281 321.859375 508.601562 321.621094 508.160156 C 321.449219 507.851562 321.417969 507.511719 321.484375 507.171875 C 321.484375 507.070312 321.550781 507.003906 321.585938 506.898438 C 321.550781 506.867188 321.519531 506.832031 321.484375 506.765625 C 321.078125 506.050781 320.871094 505.265625 320.871094 504.449219 C 320.464844 504.449219 320.089844 504.382812 319.75 504.316406 C 319.308594 504.210938 318.898438 504.078125 318.523438 503.90625 C 316.042969 504.789062 314.203125 505.132812 313.21875 504.894531 C 312.402344 504.6875 311.957031 504.210938 311.753906 503.871094 C 311.617188 503.601562 311.449219 503.261719 311.414062 502.816406 C 310.9375 502.679688 310.5625 502.410156 310.359375 502 C 310.191406 501.695312 310.019531 501.152344 310.191406 500.46875 C 310.359375 499.859375 311.007812 499.042969 312.0625 498.019531 C 312.0625 497.917969 312.0625 497.816406 312.0625 497.714844 C 311.585938 497.441406 311.3125 497.066406 311.109375 496.761719 C 310.9375 496.457031 310.902344 496.117188 310.972656 495.773438 C 310.972656 495.773438 310.972656 495.742188 310.972656 495.707031 C 310.597656 495.773438 310.257812 495.773438 310.019531 495.707031 C 309.542969 495.605469 309.167969 495.332031 308.929688 494.925781 C 308.761719 494.617188 308.726562 494.246094 308.828125 493.902344 C 308.929688 493.5625 309.203125 493.292969 309.507812 493.121094 C 309.441406 492.847656 309.441406 492.507812 309.507812 492.101562 C 309.542969 491.929688 309.644531 491.761719 309.746094 491.589844 C 308.660156 492.304688 307.570312 493.019531 306.480469 493.734375 C 306.175781 493.9375 305.835938 494.007812 305.496094 493.902344 C 305.15625 493.835938 304.847656 493.597656 304.679688 493.292969 C 304.507812 492.984375 304.441406 492.441406 304.542969 492.136719 C 304.542969 492.136719 304.542969 492.101562 304.542969 492.066406 C 304.304688 491.964844 304.132812 491.761719 303.996094 491.558594 C 303.726562 491.046875 303.589844 490.503906 303.65625 489.921875 C 302.332031 490.773438 302.160156 490.738281 301.820312 490.636719 C 301.480469 490.570312 301.175781 490.332031 301.003906 490.027344 C 300.628906 489.378906 300.5625 488.597656 300.800781 487.8125 C 301.242188 486.386719 302.875 484.71875 305.5625 482.777344 C 300.289062 485.910156 299.269531 486.25 298.554688 486.078125 C 298.214844 486.011719 297.875 485.738281 297.703125 485.433594 C 297.429688 484.957031 297.125 484.445312 299.472656 482.472656 C 299.269531 482.304688 299.066406 482.066406 298.929688 481.828125 C 298.621094 481.28125 298.484375 480.667969 298.589844 480.023438 C 295.289062 481.996094 294.0625 482.40625 293.316406 482.234375 C 292.976562 482.167969 292.566406 481.859375 292.394531 481.554688 C 292.261719 481.28125 292.089844 480.941406 292.125 480.464844 C 291.988281 480.464844 291.851562 480.464844 291.75 480.433594 C 291.410156 480.363281 290.933594 480.023438 290.761719 479.71875 C 290.558594 479.34375 290.355469 478.730469 290.59375 477.949219 C 290.730469 477.507812 291 477.03125 291.445312 476.519531 C 291.34375 476.417969 291.238281 476.316406 291.171875 476.179688 C 290.421875 475.839844 289.980469 475.328125 289.742188 474.921875 C 289.46875 474.476562 289.4375 473.933594 289.574219 473.421875 C 289.605469 473.289062 289.675781 473.117188 289.777344 472.945312 C 289.539062 472.777344 289.402344 472.574219 289.300781 472.402344 C 289.199219 472.234375 289.164062 472.0625 289.128906 471.859375 C 288.109375 472.097656 287.292969 472.128906 286.648438 471.996094 C 285.726562 471.789062 285.253906 471.246094 285.015625 470.835938 C 284.777344 470.429688 284.707031 469.917969 284.878906 469.410156 C 285.148438 468.457031 286.410156 467.265625 288.722656 465.632812 C 288.074219 465.394531 287.734375 464.984375 287.53125 464.679688 C 287.359375 464.375 287.226562 464 287.191406 463.660156 C 285.015625 464.746094 284.128906 464.984375 283.6875 464.851562 C 283.347656 464.746094 283.007812 464.511719 282.835938 464.203125 C 282.597656 463.796875 282.5625 463.351562 282.699219 462.875 C 282.90625 462.195312 283.722656 461.347656 285.285156 460.257812 C 285.285156 460.054688 285.285156 459.847656 285.355469 459.644531 C 285.386719 459.507812 285.457031 459.371094 285.523438 459.238281 C 283.039062 460.394531 281.476562 460.835938 280.691406 460.664062 C 280.351562 460.597656 279.84375 460.222656 279.671875 459.917969 C 279.230469 459.132812 279.128906 458.214844 279.433594 457.261719 C 279.605469 456.683594 279.910156 456.105469 280.386719 455.496094 C 279.875 455.597656 279.503906 455.597656 279.164062 455.527344 C 278.652344 455.425781 278.242188 455.121094 278.003906 454.710938 C 277.835938 454.371094 277.632812 453.859375 277.835938 453.148438 C 277.835938 453.148438 277.835938 453.078125 277.835938 453.078125 C 277.5625 452.941406 277.359375 452.738281 277.222656 452.5 C 277.019531 452.5 276.847656 452.5 276.710938 452.464844 C 276.371094 452.398438 275.828125 452.023438 275.65625 451.71875 C 275.488281 451.410156 275.453125 451.039062 275.554688 450.695312 C 275.65625 450.390625 275.691406 450.253906 276.40625 449.847656 C 276.238281 449.539062 276.203125 449.199219 276.304688 448.859375 C 276.371094 448.621094 276.441406 448.453125 276.882812 448.144531 C 279.230469 446.714844 281.507812 445.320312 283.753906 443.960938 C 282.734375 444.503906 281.78125 445.015625 280.964844 445.457031 C 279.605469 446.242188 278.820312 446.648438 278.3125 446.851562 C 278.3125 446.851562 278.3125 446.851562 278.277344 446.851562 C 277.765625 447.058594 277.597656 447.023438 277.359375 446.953125 C 277.019531 446.851562 276.746094 446.648438 276.578125 446.34375 C 276.40625 446.035156 276.371094 445.695312 276.441406 445.355469 C 276.542969 445.015625 276.746094 444.742188 277.085938 444.574219 C 276.339844 444.335938 275.894531 443.859375 275.691406 443.484375 C 275.351562 442.90625 275.285156 442.226562 275.488281 441.511719 C 275.554688 441.339844 275.625 441.136719 275.726562 440.96875 C 275.726562 441 275.488281 440.96875 275.386719 440.933594 C 275.046875 440.863281 274.601562 440.523438 274.433594 440.253906 C 274.433594 440.253906 274.433594 440.253906 274.433594 440.183594 C 274.363281 440.183594 274.296875 440.183594 274.230469 440.183594 C 273.890625 440.117188 273.582031 439.878906 273.414062 439.570312 C 273.074219 438.992188 273.039062 438.347656 273.242188 437.699219 C 273.515625 436.851562 274.332031 435.933594 275.625 434.945312 C 275.285156 434.808594 274.839844 434.46875 274.707031 434.230469 C 274.433594 433.789062 274.5 433.246094 274.773438 432.835938 C 273.582031 433.347656 272.902344 433.449219 272.492188 433.347656 C 272.152344 433.277344 271.78125 432.972656 271.609375 432.664062 C 271.4375 432.359375 271.40625 431.984375 271.472656 431.679688 C 271.542969 431.441406 271.574219 431.269531 271.882812 431.066406 C 271.234375 430.863281 270.894531 430.488281 270.726562 430.183594 C 270.011719 428.957031 270.691406 427.460938 273.378906 425.113281 C 273.242188 425.046875 273.140625 424.976562 273.039062 424.910156 C 270.726562 426.101562 270.179688 426.132812 269.738281 426.03125 C 269.398438 425.964844 269.058594 425.691406 268.886719 425.386719 C 268.171875 424.125 268.785156 422.96875 272.9375 420.179688 C 272.835938 419.941406 272.765625 419.667969 272.800781 419.433594 C 272.390625 419.296875 272.050781 419.023438 271.8125 418.683594 C 271.40625 418.003906 271.644531 417.527344 272.121094 417.085938 C 271.847656 416.949219 271.609375 416.710938 271.472656 416.503906 C 271.167969 415.960938 271.269531 415.28125 271.746094 414.871094 C 271.78125 414.839844 271.847656 414.804688 271.882812 414.769531 C 271.8125 414.703125 271.78125 414.632812 271.710938 414.566406 C 271.542969 414.261719 271.507812 413.921875 271.609375 413.578125 C 271.644531 413.410156 271.710938 413.273438 271.8125 413.171875 C 271.167969 412.933594 270.65625 412.761719 270.28125 412.59375 C 269.058594 413.34375 268.75 413.546875 268.140625 413.410156 C 267.800781 413.34375 267.492188 413.105469 267.324219 412.832031 C 266.949219 412.21875 267.152344 411.4375 267.765625 411.097656 C 267.867188 411.027344 267.96875 410.996094 268.070312 410.960938 C 268.277344 410.859375 268.648438 410.621094 268.957031 410.417969 C 269.703125 409.941406 270.011719 409.769531 270.554688 409.90625 C 270.757812 409.972656 270.929688 410.042969 271.066406 410.179688 C 271.371094 410.347656 272.019531 410.550781 272.628906 410.789062 C 273.414062 411.0625 273.957031 411.265625 274.332031 411.472656 C 275.148438 411.0625 276.882812 409.871094 277.765625 409.257812 C 279.875 407.832031 280.183594 407.59375 280.863281 407.761719 C 281.203125 407.832031 281.507812 408.070312 281.714844 408.375 C 281.882812 408.679688 281.953125 409.15625 281.851562 409.496094 C 282.15625 409.597656 282.429688 409.835938 282.597656 410.109375 C 282.800781 410.449219 282.90625 410.757812 282.800781 411.164062 C 282.871094 411.128906 282.9375 411.0625 283.007812 411.027344 C 287.632812 407.761719 288.347656 407.320312 289.199219 407.492188 C 289.539062 407.558594 289.914062 407.832031 290.082031 408.136719 C 290.183594 408.308594 290.253906 408.476562 290.289062 408.648438 C 291.375 408.070312 291.851562 407.964844 292.328125 408.070312 C 292.667969 408.136719 293.042969 408.410156 293.214844 408.714844 C 293.417969 409.089844 293.519531 409.429688 293.417969 409.769531 C 296.648438 407.796875 296.71875 407.796875 297.226562 407.933594 C 297.5 408 297.738281 408.171875 297.90625 408.375 C 299.234375 407.660156 300.1875 407.421875 300.902344 407.558594 C 301.410156 407.660156 301.820312 407.964844 302.058594 408.375 C 302.511719 409.167969 300.6875 410.769531 296.582031 413.171875 C 294.640625 414.292969 291.375 416.199219 287.871094 418.34375 C 282.632812 422.152344 279.265625 424.5 277.019531 425.417969 C 276.746094 425.625 276.507812 425.792969 276.238281 425.996094 C 279.230469 424.671875 282.257812 423.308594 285.183594 421.914062 C 287.703125 420.144531 290.253906 418.273438 292.191406 416.847656 C 299.507812 411.472656 302.773438 409.191406 304.574219 408.953125 C 306.140625 408 306.480469 407.964844 306.992188 408.070312 C 307.332031 408.136719 307.671875 408.375 307.84375 408.714844 C 308.011719 409.019531 308.183594 409.496094 308.113281 410.144531 C 312.128906 407.695312 312.265625 407.695312 312.808594 407.832031 C 313.148438 407.898438 313.457031 408.136719 313.625 408.441406 C 313.761719 408.648438 313.828125 408.816406 313.828125 409.054688 C 316.042969 407.898438 317.46875 407.457031 318.320312 407.625 C 318.796875 407.726562 319.171875 408.035156 319.410156 408.410156 C 319.441406 408.511719 319.511719 408.613281 319.546875 408.714844 C 320.871094 408.171875 321.859375 407.964844 322.605469 408.136719 C 322.8125 408.171875 322.980469 408.238281 323.152344 408.339844 C 325.875 407.046875 327.777344 406.332031 328.492188 406.539062 C 328.832031 406.605469 329.308594 406.945312 329.480469 407.253906 C 329.648438 407.523438 329.683594 407.933594 329.617188 408.273438 C 329.648438 408.308594 329.683594 408.375 329.71875 408.410156 C 329.886719 408.714844 330.023438 409.054688 330.058594 409.394531 C 332.914062 407.761719 334.683594 407.148438 335.738281 407.386719 C 336.25 407.492188 336.691406 407.796875 336.929688 408.238281 C 337.03125 408.441406 337.167969 408.714844 337.203125 409.089844 C 344.855469 404.769531 347.238281 403.816406 348.054688 404.054688 C 348.394531 404.15625 348.734375 404.394531 348.90625 404.699219 C 349.210938 405.210938 349.484375 406.0625 349.144531 407.253906 C 349.074219 407.421875 349.007812 407.625 348.941406 407.832031 C 348.972656 407.898438 349.042969 407.964844 349.074219 408 C 349.347656 408.476562 349.585938 409.226562 349.28125 410.28125 C 349.210938 410.484375 349.144531 410.6875 349.042969 410.890625 C 349.042969 411.097656 349.007812 411.335938 348.941406 411.605469 C 349.042969 411.878906 349.109375 412.253906 349.074219 412.660156 C 349.417969 412.898438 349.652344 413.171875 349.789062 413.410156 C 350.027344 413.816406 350.265625 414.226562 348.871094 415.484375 C 349.007812 415.621094 349.144531 415.757812 349.246094 415.925781 C 349.449219 416.300781 349.6875 416.914062 349.417969 417.765625 C 349.144531 418.683594 348.226562 419.738281 346.695312 420.929688 C 346.796875 421.03125 346.863281 421.097656 346.933594 421.234375 C 347.238281 421.746094 347.511719 422.59375 347.171875 423.71875 C 346.964844 424.433594 346.523438 425.179688 345.878906 425.996094 C 345.878906 426.03125 345.945312 426.066406 345.945312 426.132812 C 345.945312 426.167969 345.980469 426.203125 346.015625 426.269531 C 349.550781 424.261719 349.789062 424.296875 350.265625 424.433594 C 350.605469 424.535156 350.878906 424.738281 351.050781 425.046875 C 351.21875 425.351562 351.253906 425.726562 351.152344 426.066406 C 351.015625 426.472656 350.980469 426.609375 349.246094 427.527344 C 349.347656 427.628906 349.449219 427.765625 349.519531 427.867188 C 349.757812 428.277344 349.824219 428.789062 349.652344 429.265625 C 349.652344 429.332031 349.621094 429.367188 349.585938 429.433594 C 349.585938 429.503906 349.585938 429.535156 349.585938 429.605469 C 349.585938 429.738281 349.585938 429.910156 349.585938 430.046875 C 350.0625 430.214844 350.472656 430.523438 350.707031 430.964844 C 350.878906 431.269531 351.050781 431.78125 350.878906 432.429688 C 350.675781 433.074219 350.0625 433.855469 348.972656 434.808594 C 349.074219 435.148438 349.074219 435.589844 348.941406 436.101562 C 348.835938 436.441406 348.667969 436.816406 348.394531 437.226562 C 349.007812 436.816406 349.652344 436.375 350.265625 435.964844 C 350.574219 435.761719 350.914062 435.695312 351.253906 435.761719 C 351.59375 435.828125 351.898438 436.066406 352.070312 436.375 C 352.308594 436.78125 352.511719 437.429688 352.273438 438.3125 C 352.171875 438.652344 351.96875 439.027344 351.730469 439.4375 C 351.867188 439.675781 351.933594 439.914062 351.96875 440.152344 C 352.207031 440.253906 352.410156 440.457031 352.546875 440.660156 C 352.785156 441.101562 353.023438 441.816406 352.75 442.734375 C 352.578125 443.28125 352.273438 443.824219 351.796875 444.4375 C 351.867188 444.503906 351.898438 444.574219 351.933594 444.640625 C 351.96875 444.710938 352 444.777344 352.035156 444.84375 C 352.648438 444.710938 353.160156 444.710938 353.566406 444.8125 C 354.316406 444.980469 354.6875 445.425781 354.894531 445.765625 C 354.996094 445.933594 355.0625 446.105469 355.097656 446.273438 C 356.253906 445.898438 357.242188 445.765625 357.988281 445.898438 C 358.738281 446.035156 359.28125 446.445312 359.65625 447.058594 C 359.996094 447.667969 359.792969 448.453125 359.179688 448.792969 C 359.179688 448.792969 359.113281 448.824219 359.078125 448.859375 C 359.144531 448.859375 359.214844 448.859375 359.25 448.859375 C 359.589844 448.929688 360.066406 449.269531 360.234375 449.574219 C 360.644531 450.289062 360.609375 451.105469 359.316406 452.5 C 359.65625 452.363281 359.996094 452.261719 360.304688 452.160156 C 360.507812 452.023438 360.746094 451.921875 361.050781 451.921875 C 362.414062 451.546875 363.46875 451.445312 364.214844 451.617188 C 365.167969 451.820312 365.644531 452.363281 365.882812 452.773438 C 366.085938 453.113281 366.289062 453.691406 366.050781 454.441406 C 366.019531 454.574219 365.949219 454.746094 365.882812 454.882812 C 365.949219 454.882812 365.984375 454.882812 366.050781 454.882812 C 369.589844 453.179688 372.109375 452.296875 373.09375 452.535156 C 373.570312 452.636719 373.980469 452.941406 374.183594 453.316406 C 374.285156 453.519531 374.421875 453.792969 374.421875 454.097656 C 376.15625 453.386719 377.449219 453.113281 378.265625 453.316406 C 378.980469 453.488281 379.390625 453.929688 379.558594 454.234375 C 379.59375 454.304688 379.625 454.371094 379.660156 454.472656 C 397.316406 442.703125 413.75 431.953125 428.003906 423.140625 C 454.710938 405.449219 472.503906 395.277344 479.003906 396.738281 C 480.398438 397.046875 481.113281 397.863281 481.488281 398.472656 C 481.792969 398.984375 482.066406 399.835938 481.726562 400.957031 C 481.589844 401.433594 481.316406 401.980469 480.941406 402.523438 C 480.941406 402.523438 480.941406 402.558594 480.941406 402.589844 C 480.839844 402.898438 480.636719 403.167969 480.363281 403.339844 C 480.058594 403.714844 479.75 404.089844 479.378906 404.460938 C 479.378906 404.460938 479.378906 404.460938 479.378906 404.496094 C 479.445312 404.597656 479.511719 404.699219 479.546875 404.835938 C 479.851562 404.972656 480.226562 405.246094 480.398438 405.515625 C 481.078125 406.671875 481.179688 408 480.738281 409.464844 C 480.636719 409.835938 480.464844 410.210938 480.261719 410.585938 C 480.261719 410.757812 480.195312 410.925781 480.125 411.097656 C 479.820312 412.117188 479.105469 413.273438 478.015625 414.5 C 478.730469 414.226562 479.207031 414.160156 479.511719 414.226562 C 479.851562 414.292969 480.226562 414.601562 480.433594 414.90625 C 481.25 416.300781 481.351562 417.832031 480.804688 419.5 C 480.636719 420.011719 480.398438 420.484375 480.125 421.03125 C 480.261719 421.335938 480.296875 421.710938 480.195312 422.015625 C 480.058594 422.425781 479.988281 422.664062 478.152344 423.648438 C 477.640625 424.195312 477.097656 424.738281 476.484375 425.316406 C 477.472656 425.757812 478.21875 426.40625 478.765625 427.324219 C 479.34375 428.3125 479.445312 429.46875 479.035156 430.691406 C 478.796875 431.441406 478.390625 432.257812 477.777344 433.140625 C 477.878906 433.277344 477.949219 433.378906 478.015625 433.515625 C 478.425781 434.230469 478.695312 434.707031 476.109375 436.714844 C 476.382812 436.816406 476.65625 437.019531 476.792969 437.292969 C 477.4375 438.414062 477.539062 439.675781 477.097656 441.035156 C 476.519531 442.90625 474.785156 445.050781 472.164062 447.398438 C 472.300781 447.703125 472.335938 448.144531 472.265625 448.453125 C 472.164062 448.824219 471.550781 449.4375 470.496094 450.324219 C 470.871094 450.222656 471.074219 450.222656 471.28125 450.289062 C 471.621094 450.355469 471.925781 450.59375 472.097656 450.902344 C 472.335938 451.308594 472.402344 451.820312 472.234375 452.332031 C 471.960938 453.25 470.667969 454.441406 468.21875 456.039062 C 468.421875 456.652344 468.457031 457.332031 468.355469 458.011719 C 468.386719 458.011719 468.457031 458.011719 468.492188 458.011719 C 468.832031 458.113281 469.136719 458.316406 469.308594 458.625 C 469.851562 459.542969 469.953125 460.664062 469.578125 461.789062 C 469.035156 463.523438 467.402344 465.496094 464.746094 467.671875 C 464.746094 467.910156 464.679688 468.148438 464.578125 468.421875 C 464.238281 469.441406 463.457031 470.566406 462.265625 471.789062 C 462.332031 472.164062 462.367188 472.605469 462.195312 473.117188 C 461.820312 474.410156 460.292969 476.078125 457.773438 478.050781 C 457.605469 478.628906 457.195312 479.273438 456.617188 479.957031 C 456.617188 480.160156 456.582031 480.398438 456.480469 480.636719 C 455.96875 482.371094 453.417969 484.683594 449.234375 487.507812 C 448.453125 488.15625 447.464844 488.902344 446.242188 489.753906 C 446.273438 489.820312 446.34375 489.890625 446.375 489.957031 C 446.886719 490.875 447.261719 491.488281 441.679688 495.300781 C 441.679688 495.46875 441.679688 495.640625 441.648438 495.808594 C 441.546875 496.148438 441.308594 496.421875 441 496.589844 C 437.566406 498.394531 434.027344 500.335938 430.660156 502.273438 C 430.113281 502.613281 429.570312 502.953125 428.992188 503.292969 C 428.992188 503.292969 428.957031 503.292969 428.921875 503.328125 C 428.992188 503.328125 429.058594 503.328125 429.128906 503.363281 C 429.671875 503.464844 430.113281 503.804688 430.351562 504.246094 C 430.691406 504.859375 430.488281 505.640625 429.875 505.980469 C 429.398438 506.253906 428.820312 506.1875 428.414062 505.878906 C 426.304688 506.082031 418.207031 511.867188 414.667969 514.386719 C 410.179688 517.582031 409.941406 517.71875 409.226562 517.550781 C 408.886719 517.480469 408.546875 517.242188 408.375 516.9375 C 408.203125 516.664062 408.070312 516.257812 408.136719 515.710938 C 396.296875 522.753906 396.128906 522.71875 395.414062 522.550781 C 395.074219 522.449219 394.800781 522.242188 394.628906 521.9375 C 394.628906 521.902344 394.5625 521.835938 394.5625 521.765625 C 390.820312 523.535156 387.894531 524.386719 385.988281 523.945312 C 385.242188 523.773438 384.59375 523.433594 384.117188 522.890625 C 381.566406 524.183594 380.101562 524.589844 379.320312 524.421875 C 379.183594 524.386719 379.015625 524.320312 378.84375 524.183594 C 378.027344 524.386719 377.347656 524.457031 376.835938 524.351562 C 376.429688 524.25 376.121094 524.082031 375.882812 523.910156 C 375.816406 523.910156 375.75 523.910156 375.679688 523.875 C 375.410156 523.808594 375.203125 523.742188 374.964844 523.640625 C 373.367188 524.113281 371.9375 524.386719 370.746094 524.457031 C 369.898438 524.660156 369.148438 524.761719 368.46875 524.761719 Z M 368.433594 521.324219 C 368.433594 521.324219 368.875 521.632812 369.320312 521.734375 C 369.453125 521.734375 369.625 521.800781 369.792969 521.800781 C 369.691406 521.699219 369.625 521.597656 369.554688 521.496094 C 369.453125 521.324219 369.351562 521.085938 369.285156 520.816406 C 369.046875 520.949219 368.808594 521.054688 368.570312 521.15625 C 368.535156 521.222656 368.46875 521.257812 368.433594 521.324219 Z M 386.769531 521.394531 C 388.132812 521.5625 390.308594 520.847656 393.03125 519.589844 C 393.269531 518.5 395.890625 516.835938 407.355469 510.132812 C 403.273438 512.207031 399.15625 514.316406 395.617188 516.1875 C 391.976562 518.433594 389.050781 520.132812 386.769531 521.425781 Z M 373.027344 520.949219 C 373.027344 520.949219 372.957031 520.984375 372.957031 521.019531 C 372.957031 521.019531 373.027344 521.019531 373.0625 520.984375 Z M 377.859375 517.550781 C 377.007812 518.261719 376.394531 518.945312 375.988281 519.554688 C 380.75 517.074219 386.839844 512.957031 393.40625 508.160156 C 388.949219 510.4375 385.003906 512.617188 381.941406 514.554688 C 380.375 515.710938 379.015625 516.664062 377.859375 517.515625 Z M 402.457031 491.898438 C 384.867188 502.070312 367.921875 511.730469 357.003906 517.957031 C 357.480469 517.785156 357.988281 517.617188 358.5 517.414062 C 368.230469 512.582031 385.308594 502.410156 402.457031 491.929688 Z M 352.851562 517.34375 C 352.851562 517.34375 352.816406 517.378906 352.785156 517.414062 C 352.785156 517.414062 352.785156 517.414062 352.816406 517.414062 Z M 345.46875 513.773438 C 344.585938 514.351562 343.835938 514.828125 343.222656 515.234375 C 344.175781 515.066406 345.503906 514.65625 347.101562 513.976562 C 349.484375 512.480469 355.4375 509.214844 370.816406 500.808594 C 371.085938 500.675781 371.324219 500.539062 371.597656 500.367188 C 372.3125 499.925781 373.0625 499.449219 373.808594 498.972656 C 371.054688 500.265625 368.332031 501.59375 365.710938 502.851562 C 357.683594 507.75 350.878906 511.492188 345.46875 513.773438 Z M 372.992188 513.332031 C 372.6875 513.5 372.378906 513.636719 372.074219 513.804688 C 372.277344 513.703125 372.484375 513.601562 372.71875 513.464844 C 372.824219 513.398438 372.890625 513.363281 372.992188 513.296875 Z M 334.414062 513.433594 C 334.414062 513.433594 334.785156 513.601562 335.058594 513.671875 C 335.230469 513.703125 335.367188 513.738281 335.535156 513.738281 C 335.535156 513.636719 335.570312 513.535156 335.601562 513.433594 C 335.707031 513.09375 335.910156 512.71875 336.148438 512.34375 C 335.707031 512.582031 335.296875 512.785156 334.921875 512.988281 C 334.71875 513.160156 334.546875 513.296875 334.378906 513.398438 Z M 403.441406 488.394531 C 385.207031 497.511719 367.789062 506.832031 359.621094 513.570312 C 373.433594 505.710938 388.746094 496.933594 403.441406 488.394531 Z M 405.144531 502.648438 C 402.046875 504.996094 399.019531 507.273438 396.128906 509.417969 C 398.984375 507.921875 402.21875 506.253906 405.824219 504.382812 C 406.605469 503.871094 407.386719 503.363281 408.203125 502.851562 C 409.328125 502.070312 410.417969 501.320312 411.503906 500.539062 C 413.070312 499.449219 414.601562 498.359375 416.097656 497.339844 C 415.65625 497.542969 415.179688 497.75 414.738281 497.988281 C 411.539062 499.585938 408.339844 501.117188 405.175781 502.648438 Z M 355.878906 503.292969 C 353.023438 505.265625 350.097656 507.308594 347.136719 509.382812 C 348.464844 508.636719 349.925781 507.851562 351.558594 507.003906 C 353.632812 505.742188 356.050781 504.316406 358.839844 502.683594 C 363.703125 499.789062 369.25 496.558594 375.273438 493.085938 C 370.644531 495.265625 366.121094 497.441406 361.902344 499.550781 C 359.691406 500.945312 357.683594 502.171875 355.878906 503.328125 Z M 331.011719 508.464844 C 331.011719 508.703125 331.042969 508.941406 331.113281 509.179688 C 331.757812 509.078125 332.847656 508.667969 334.277344 507.988281 C 335.433594 507.308594 336.828125 506.527344 338.460938 505.675781 C 339.582031 504.417969 341.082031 503.089844 342.882812 501.695312 C 337.609375 504.722656 333.800781 506.898438 331.042969 508.464844 Z M 325.191406 501.183594 C 325.191406 501.183594 325.089844 501.285156 325.058594 501.320312 C 326.484375 500.914062 328.085938 500.300781 329.855469 499.519531 C 330.09375 499.382812 330.296875 499.210938 330.535156 499.074219 C 328.800781 499.824219 327.199219 500.4375 325.738281 500.945312 C 325.566406 501.015625 325.363281 501.117188 325.191406 501.183594 Z M 413.410156 488.835938 C 408.410156 492.101562 403.476562 495.300781 398.710938 498.257812 C 399.53125 497.78125 400.347656 497.304688 401.164062 496.828125 C 405.210938 494.246094 409.363281 491.558594 413.445312 488.835938 Z M 385.511719 490.128906 C 384.527344 490.773438 383.574219 491.421875 382.621094 492.066406 C 384.117188 491.351562 385.683594 490.636719 387.28125 489.890625 C 388.335938 489.414062 389.390625 488.902344 390.445312 488.394531 C 390.921875 488.085938 391.398438 487.78125 391.839844 487.507812 C 394.289062 485.941406 396.707031 484.378906 399.054688 482.882812 C 400.347656 481.996094 401.636719 481.113281 402.929688 480.226562 C 402.488281 480.433594 402.082031 480.636719 401.636719 480.839844 C 396.261719 483.9375 390.820312 487.066406 385.480469 490.160156 Z M 370.542969 489.378906 C 369.488281 490.128906 368.433594 490.875 367.414062 491.558594 C 368.433594 491.082031 369.453125 490.605469 370.542969 490.09375 C 372.753906 488.597656 374.898438 487.132812 377.007812 485.671875 C 376.121094 486.078125 375.238281 486.523438 374.386719 486.929688 C 373.0625 487.78125 371.800781 488.5625 370.542969 489.378906 Z M 310.191406 486.285156 C 308.964844 487.167969 307.945312 487.984375 307.265625 488.699219 C 308.660156 487.949219 310.632812 486.863281 313.011719 485.535156 C 314.238281 484.71875 315.597656 483.867188 317.027344 482.949219 C 314.476562 484.308594 312.128906 485.46875 310.15625 486.285156 Z M 374.660156 483.359375 C 372.449219 484.652344 370.238281 485.910156 368.09375 487.132812 C 369.351562 486.523438 370.644531 485.875 371.9375 485.261719 C 372.71875 484.71875 373.535156 484.140625 374.320312 483.597656 C 374.421875 483.527344 374.523438 483.460938 374.625 483.390625 Z M 436.953125 478.5625 C 433.246094 481.214844 429.332031 484.105469 425.386719 487.132812 C 426.644531 486.523438 427.9375 485.875 429.195312 485.261719 C 438.621094 479.921875 447.125 474.714844 453.589844 470.089844 C 452.226562 470.328125 450.628906 470.835938 448.824219 471.550781 C 445.152344 473.730469 441.136719 476.078125 436.953125 478.5625 Z M 368.875 478.5625 C 365.371094 481.011719 361.9375 483.324219 358.667969 485.535156 C 363.976562 482.507812 369.761719 479.242188 376.054688 475.738281 C 377.621094 474.851562 379.183594 473.96875 380.75 473.050781 C 382.078125 472.128906 383.402344 471.210938 384.730469 470.257812 C 383.234375 470.90625 381.769531 471.550781 380.273438 472.164062 C 376.359375 474.308594 372.550781 476.417969 368.875 478.527344 Z M 411.199219 481.453125 C 410.757812 481.691406 410.3125 481.929688 409.871094 482.199219 C 414.160156 480.089844 418.613281 477.949219 423.207031 475.738281 C 426.746094 474.035156 430.386719 472.265625 433.992188 470.496094 C 434.640625 470.125 435.285156 469.75 435.898438 469.375 C 428.140625 473.355469 419.738281 477.402344 411.199219 481.488281 Z M 327.199219 464.511719 C 315.632812 470.226562 302.195312 476.960938 301.175781 480.363281 C 301.105469 480.566406 301.175781 480.667969 301.175781 480.703125 C 301.34375 480.804688 301.617188 480.804688 301.957031 480.773438 C 305.800781 477.980469 312.910156 473.390625 325.804688 465.566406 C 326.28125 465.222656 326.757812 464.851562 327.234375 464.511719 Z M 333.222656 476.824219 C 332.40625 477.335938 331.589844 477.847656 330.773438 478.355469 C 333.425781 476.925781 336.386719 475.363281 339.617188 473.660156 C 344.414062 471.144531 349.824219 468.253906 354.824219 465.496094 C 361.015625 461.480469 366.085938 458.351562 370 456.242188 C 370.40625 455.902344 370.746094 455.597656 371.054688 455.324219 C 369.351562 455.902344 366.496094 457.296875 362.785156 459.304688 C 350.503906 466.652344 340.84375 472.367188 333.257812 476.792969 Z M 355.335938 452.671875 C 348.496094 456.140625 333.359375 465.632812 322.675781 472.367188 C 319.070312 474.648438 316.007812 476.554688 313.421875 478.152344 C 316.515625 476.417969 320.15625 474.546875 324.207031 472.503906 C 326.894531 470.90625 329.75 469.203125 332.609375 467.46875 C 337.167969 464.511719 341.488281 461.820312 345.402344 459.507812 C 349.585938 456.820312 353.125 454.441406 355.335938 452.671875 Z M 403.203125 473.730469 C 401.164062 475.023438 399.121094 476.28125 397.113281 477.539062 C 399.972656 476.179688 402.828125 474.785156 405.6875 473.390625 C 406.671875 472.707031 407.695312 471.996094 408.679688 471.3125 C 406.878906 472.128906 405.039062 472.945312 403.203125 473.761719 Z M 294.0625 477.472656 Z M 347.375 473.421875 C 346.253906 474.171875 345.128906 474.921875 344.039062 475.636719 C 348.292969 473.355469 352.953125 470.90625 357.988281 468.320312 C 360.539062 466.824219 363.125 465.328125 365.78125 463.796875 C 368.128906 462.230469 370.441406 460.664062 372.71875 459.132812 C 372.992188 458.863281 373.230469 458.625 373.433594 458.386719 Z M 295.390625 472.265625 C 294.402344 472.980469 293.722656 473.628906 293.382812 474.136719 C 293.722656 474.136719 294.0625 474.070312 294.472656 474 C 299.132812 470.703125 307.671875 466.347656 319.171875 460.53125 L 319.308594 460.460938 C 320.363281 459.746094 321.484375 459 322.605469 458.25 C 319.988281 459.476562 316.925781 460.902344 313.796875 462.367188 C 306.550781 466.722656 299.882812 470.429688 295.425781 472.265625 Z M 287.566406 469.816406 C 291.375 470.191406 307.265625 459.917969 320.226562 451.242188 C 319.339844 451.71875 318.457031 452.160156 317.539062 452.636719 C 316.621094 453.113281 315.667969 453.625 314.714844 454.132812 C 302.023438 462.910156 293.960938 468.046875 290.730469 467.4375 C 289.234375 468.421875 288.109375 469.238281 287.566406 469.816406 Z M 374.625 465.632812 C 372.753906 466.855469 370.953125 468.015625 369.183594 469.171875 C 373.195312 467.265625 377.382812 465.328125 381.769531 463.25 C 385.785156 461.378906 389.867188 459.476562 394.019531 457.5 C 394.96875 456.820312 395.890625 456.140625 396.839844 455.460938 C 395.820312 455.9375 394.835938 456.378906 393.8125 456.855469 C 387.382812 459.78125 380.953125 462.707031 374.660156 465.632812 Z M 455.9375 467.402344 C 456.3125 467.402344 456.652344 467.46875 456.957031 467.539062 L 456.992188 467.539062 C 457.367188 467.265625 457.707031 466.992188 458.046875 466.722656 C 457.605469 466.753906 457.128906 466.855469 456.617188 467.027344 C 456.378906 467.164062 456.140625 467.300781 455.9375 467.4375 Z M 456.71875 462.367188 C 454.472656 463.863281 451.988281 465.597656 449.300781 467.46875 C 449.300781 467.46875 449.371094 467.46875 449.371094 467.4375 C 458.554688 461.617188 463.351562 459.03125 465.328125 458.929688 C 465.429688 458.691406 465.53125 458.488281 465.597656 458.25 C 465.667969 457.976562 465.734375 457.738281 465.769531 457.5 C 463.457031 458.863281 460.496094 460.460938 456.71875 462.367188 Z M 420.25 463.25 C 420.042969 463.351562 419.875 463.488281 419.667969 463.589844 C 419.738281 463.589844 419.804688 463.523438 419.875 463.488281 L 420.25 463.21875 Z M 299.371094 456.957031 C 295.902344 459 293.214844 460.53125 291.105469 461.71875 C 292.394531 461.210938 294.269531 460.222656 296.480469 458.894531 C 297.398438 458.285156 298.351562 457.636719 299.40625 456.957031 Z M 284.539062 454.882812 C 283.039062 456.140625 282.054688 457.261719 281.746094 458.183594 C 281.746094 458.183594 281.746094 458.214844 281.746094 458.25 C 286.578125 456.921875 308.964844 442.804688 322.640625 434.164062 C 322.914062 433.992188 323.152344 433.824219 323.390625 433.6875 C 322.027344 434.367188 320.632812 435.046875 319.171875 435.761719 C 316.550781 437.054688 313.863281 438.382812 311.140625 439.707031 C 304.609375 443.996094 299.132812 447.363281 294.640625 449.777344 C 288.789062 453.417969 285.964844 454.8125 284.539062 454.847656 Z M 452.398438 444.300781 C 446.34375 448.351562 439.539062 452.976562 432.664062 457.738281 C 436.511719 455.96875 440.253906 454.234375 443.789062 452.535156 C 452.601562 446.785156 459.679688 442.464844 464.917969 439.878906 C 466.824219 438.382812 468.457031 436.953125 469.78125 435.589844 C 466.246094 436.851562 460.085938 439.980469 452.363281 444.300781 Z M 468.726562 447.023438 C 465.054688 449.675781 460.085938 452.941406 453.894531 456.753906 C 459.984375 453.25 465.089844 449.949219 468.726562 447.023438 Z M 362.207031 454.03125 C 362.207031 454.03125 362.207031 454.132812 362.175781 454.167969 C 361.96875 454.882812 361.289062 455.664062 360.167969 456.582031 C 361.832031 455.527344 362.992188 454.609375 363.398438 453.996094 C 363.125 453.929688 362.753906 453.929688 362.242188 453.996094 Z M 396.433594 451.648438 C 394.152344 453.113281 391.875 454.542969 389.59375 456.003906 C 390.648438 455.527344 391.703125 455.050781 392.757812 454.542969 C 397.589844 452.332031 402.488281 450.117188 407.355469 447.875 C 410.179688 445.832031 412.96875 443.789062 415.722656 441.816406 C 414.328125 442.5 412.96875 443.210938 411.539062 443.925781 C 406.777344 446.375 401.773438 448.894531 396.601562 451.515625 C 396.535156 451.546875 396.46875 451.582031 396.398438 451.617188 Z M 437.667969 449.8125 C 435.625 451.003906 433.515625 452.261719 431.304688 453.589844 C 433.484375 452.296875 435.625 451.039062 437.667969 449.8125 Z M 351.457031 447.464844 C 351.320312 447.667969 351.183594 447.839844 350.980469 448.042969 C 351.457031 447.769531 351.898438 447.53125 352.34375 447.328125 C 352.34375 447.328125 352.34375 447.261719 352.375 447.226562 C 352.105469 447.226562 351.796875 447.328125 351.457031 447.429688 Z M 343.53125 438.585938 C 340.910156 440.320312 337.339844 442.769531 333.628906 445.289062 C 333.390625 445.457031 333.152344 445.59375 332.914062 445.765625 C 337.304688 443.078125 341.082031 440.558594 343.496094 438.585938 Z M 303.285156 427.597656 C 302.839844 427.800781 302.398438 428.039062 301.957031 428.242188 C 292.394531 432.972656 278.003906 440.082031 277.800781 442.5 C 279.980469 443.417969 292.632812 434.980469 303.285156 427.5625 Z M 338.054688 438.042969 C 335.976562 439.4375 333.9375 440.796875 331.929688 442.125 C 339.003906 438.28125 345.199219 434.671875 347.410156 432.699219 C 345.503906 433.378906 342.066406 435.421875 338.054688 438.042969 Z M 430.589844 434.367188 C 428.890625 435.558594 427.15625 436.78125 425.417969 438.042969 C 426.644531 437.226562 427.867188 436.410156 429.058594 435.625 C 430.011719 434.980469 430.964844 434.367188 431.882812 433.753906 C 431.441406 433.957031 431.03125 434.195312 430.589844 434.402344 Z M 436.304688 427.257812 C 431.882812 429.808594 427.222656 432.5625 422.390625 435.488281 C 425.214844 434.027344 427.972656 432.597656 430.726562 431.136719 C 432.632812 429.808594 434.46875 428.515625 436.304688 427.257812 Z M 336.453125 430.351562 C 334.34375 431.507812 331.964844 432.972656 329.410156 434.605469 C 329.957031 434.332031 330.5 434.0625 331.042969 433.753906 C 332.984375 432.597656 334.820312 431.441406 336.453125 430.351562 Z M 473.289062 427.867188 C 471.042969 429.570312 468.355469 431.339844 465.257812 433.175781 C 468.832031 431.167969 471.585938 429.875 473.527344 429.367188 C 473.558594 428.820312 473.527344 428.3125 473.289062 427.867188 Z M 344.039062 430.554688 C 344.039062 430.554688 344.007812 430.589844 343.972656 430.625 C 344.175781 430.523438 344.347656 430.421875 344.515625 430.320312 C 344.347656 430.386719 344.210938 430.488281 344.039062 430.554688 Z M 476.109375 429.296875 C 476.28125 429.367188 476.453125 429.433594 476.585938 429.535156 C 476.65625 429.027344 476.554688 428.753906 476.453125 428.582031 C 476.347656 428.378906 476.214844 428.210938 476.042969 428.074219 C 476.109375 428.480469 476.144531 428.890625 476.109375 429.296875 Z M 314 411.84375 C 309.714844 414.261719 302.738281 418.957031 297.226562 422.664062 C 295.050781 424.125 293.109375 425.417969 291.34375 426.609375 C 291.75 426.40625 292.191406 426.203125 292.632812 426.03125 C 295.527344 424.230469 298.453125 422.425781 301.378906 420.691406 C 306.683594 416.847656 310.835938 413.921875 314 411.878906 Z M 345.402344 418.003906 C 342.953125 419.703125 339.210938 422.152344 333.492188 425.65625 C 339.753906 422.390625 344.992188 419.363281 346.386719 417.664062 C 346.117188 417.730469 345.777344 417.832031 345.402344 418.003906 Z M 344.074219 423.886719 C 343.429688 424.230469 342.613281 424.703125 341.691406 425.25 C 342.273438 425.078125 342.78125 425.011719 343.222656 424.976562 C 343.5625 424.601562 343.871094 424.230469 344.074219 423.886719 Z M 476.179688 418.613281 C 476.179688 418.613281 476.28125 418.75 476.316406 418.820312 C 476.554688 419.226562 476.585938 419.703125 476.453125 420.144531 C 476.28125 420.757812 475.566406 421.609375 474.273438 422.699219 C 474.683594 422.492188 475.023438 422.324219 475.363281 422.152344 C 475.839844 421.882812 476.246094 421.644531 476.621094 421.4375 C 477.402344 420.488281 477.949219 419.566406 478.253906 418.71875 C 478.457031 418.070312 478.527344 417.527344 478.390625 416.980469 C 477.878906 417.1875 477.132812 417.558594 476.214844 418.070312 C 476.214844 418.242188 476.214844 418.445312 476.179688 418.582031 Z M 317.265625 417.015625 C 314.882812 418.410156 312.09375 420.042969 308.792969 421.949219 C 312.640625 420.011719 316.382812 418.035156 319.511719 416.234375 C 321.824219 414.632812 323.867188 413.273438 325.636719 412.117188 C 326.007812 411.777344 326.351562 411.472656 326.621094 411.164062 C 324.988281 412.320312 322.539062 413.886719 318.96875 416.03125 C 318.457031 416.371094 317.878906 416.675781 317.265625 417.015625 Z M 470.429688 414.160156 C 467.570312 415.996094 463.929688 418.34375 459.679688 421.066406 C 461.347656 420.25 462.875 419.535156 464.304688 418.957031 C 465.121094 418.480469 465.9375 418.003906 466.6875 417.558594 C 469.035156 415.996094 471.042969 414.53125 472.675781 413.171875 C 472.878906 412.96875 473.050781 412.796875 473.21875 412.628906 C 472.4375 413.070312 471.519531 413.578125 470.429688 414.191406 Z M 320.839844 418.378906 C 320.054688 418.921875 319.238281 419.5 318.421875 420.042969 C 323.796875 416.847656 328.1875 414.261719 331.792969 412.152344 C 332.675781 411.4375 333.390625 410.789062 333.835938 410.28125 C 332.335938 410.890625 329.855469 412.390625 326.894531 414.292969 C 325.398438 415.554688 323.355469 416.878906 320.804688 418.378906 Z M 332.574219 414.632812 C 331.792969 415.246094 330.941406 415.925781 329.988281 416.609375 C 337.507812 412.320312 342.714844 409.53125 345.570312 408.238281 C 345.910156 407.832031 346.148438 407.421875 346.320312 407.082031 C 343.9375 408.171875 338.835938 411.027344 332.574219 414.667969 Z M 476.214844 402.148438 C 471.3125 402.148438 461.140625 406.84375 448.246094 414.089844 C 454.335938 411.027344 459.679688 408.78125 464.066406 407.558594 C 468.59375 405.347656 472.164062 403.917969 474.683594 403.40625 C 475.53125 402.964844 476.316406 402.558594 476.960938 402.183594 C 476.722656 402.183594 476.453125 402.148438 476.179688 402.148438 Z M 476.65625 408.648438 C 476.65625 408.648438 476.65625 408.648438 476.621094 408.648438 Z M 476.417969 399.632812 C 477.03125 399.632812 477.539062 399.699219 478.015625 399.800781 C 478.425781 399.902344 478.796875 400.039062 479.140625 400.210938 C 479.207031 399.9375 479.140625 399.835938 479.140625 399.800781 C 479.035156 399.632812 478.867188 399.425781 478.324219 399.292969 C 477.132812 399.019531 475.363281 399.292969 473.082031 400.074219 C 474.34375 399.800781 475.429688 399.664062 476.417969 399.664062 Z M 476.417969 399.632812 " fill-opacity="1" fill-rule="nonzero"/><g clip-path="url(#55b54b878d)"><path fill="#393536" d="M 390.410156 449.097656 C 390.039062 449.097656 389.933594 448.894531 389.730469 448.589844 C 389.1875 447.636719 389.085938 446.511719 389.425781 445.390625 C 389.902344 443.894531 391.296875 442.261719 393.441406 440.492188 C 393.542969 440.253906 393.675781 439.980469 393.914062 439.675781 C 393.847656 439.605469 393.8125 439.503906 393.746094 439.4375 C 393.507812 439.027344 393.472656 438.550781 393.609375 438.074219 C 393.8125 437.359375 394.699219 436.410156 396.296875 435.183594 C 396.296875 435.117188 396.296875 435.082031 396.296875 435.011719 C 396.230469 434.503906 396.46875 433.992188 396.945312 433.71875 C 397.351562 433.515625 397.726562 433.277344 398.132812 433.039062 C 400.039062 431.917969 404.15625 429.398438 409.054688 426.371094 C 422.460938 418.140625 433.652344 411.335938 442.941406 405.753906 C 439.574219 407.625 436.136719 409.464844 432.800781 411.234375 C 426.066406 415.246094 419.667969 418.957031 414.328125 421.8125 C 401.671875 430.488281 400.449219 431.101562 399.425781 430.898438 C 399.085938 430.828125 398.710938 430.558594 398.542969 430.25 C 398.371094 429.945312 398.203125 429.433594 398.371094 428.753906 C 398.476562 428.378906 398.746094 427.9375 399.1875 427.425781 C 399.054688 427.324219 398.949219 427.1875 398.882812 427.050781 C 398.710938 426.746094 398.679688 426.371094 398.78125 426.03125 C 398.78125 425.964844 398.816406 425.929688 398.847656 425.863281 C 398.269531 425.589844 397.929688 425.148438 397.726562 424.808594 C 397.554688 424.5 397.523438 424.125 397.625 423.785156 C 397.65625 423.648438 397.761719 423.515625 397.828125 423.378906 C 397.726562 423.308594 397.65625 423.207031 397.625 423.105469 C 397.453125 422.800781 397.25 422.253906 397.453125 421.542969 C 397.589844 421.03125 398 420.417969 398.679688 419.703125 C 398.40625 419.601562 398.203125 419.398438 398.066406 419.160156 C 398 419.023438 397.894531 418.820312 397.863281 418.613281 C 397.316406 418.378906 397.011719 418.003906 396.839844 417.664062 C 396.535156 417.117188 396.332031 416.8125 399.019531 414.90625 C 399.53125 414.226562 400.449219 413.410156 401.773438 412.421875 C 401.742188 412.355469 401.707031 412.320312 401.671875 412.253906 C 401.570312 412.082031 401.503906 411.914062 401.433594 411.675781 C 401.164062 411.675781 400.925781 411.605469 400.6875 411.574219 C 399.597656 411.335938 398.746094 410.757812 398.238281 409.871094 C 397.761719 409.019531 397.863281 408.101562 400.242188 406.09375 C 399.460938 405.824219 399.054688 405.347656 398.816406 404.972656 C 398.644531 404.699219 398.476562 404.222656 398.644531 403.578125 C 398.746094 403.238281 398.949219 402.863281 399.324219 402.421875 C 399.1875 402.25 399.054688 402.082031 398.984375 401.945312 C 398.542969 401.164062 398.441406 400.242188 398.746094 399.257812 C 398.78125 399.085938 398.847656 398.917969 398.917969 398.746094 C 398.78125 398.578125 398.644531 398.40625 398.542969 398.238281 C 398.371094 397.929688 398.339844 397.554688 398.441406 397.214844 C 398.507812 397.011719 398.644531 396.808594 398.816406 396.671875 C 398.710938 396.535156 398.609375 396.398438 398.542969 396.296875 C 398.339844 395.957031 398.132812 395.34375 398.371094 394.597656 C 398.609375 393.8125 399.359375 392.859375 400.585938 391.738281 C 400.378906 391.566406 400.242188 391.363281 400.140625 391.226562 C 400.074219 391.09375 400.003906 390.988281 400.003906 390.855469 C 399.664062 390.785156 399.292969 390.515625 399.121094 390.207031 C 399.121094 390.207031 399.121094 390.171875 399.121094 390.140625 C 398.984375 390.207031 398.882812 390.277344 398.746094 390.34375 C 398.441406 390.515625 398.101562 390.546875 397.792969 390.480469 C 397.453125 390.378906 397.183594 390.171875 397.011719 389.902344 C 396.671875 389.324219 396.367188 388.371094 396.773438 387.078125 C 396.945312 386.5 397.285156 385.921875 397.726562 385.273438 C 397.761719 385.136719 397.828125 385.003906 398.03125 384.867188 C 398.40625 384.390625 398.816406 383.914062 399.324219 383.402344 C 399.222656 383.265625 399.15625 383.164062 399.085938 383.0625 C 398.917969 382.757812 398.882812 382.382812 398.984375 382.042969 C 399.085938 381.734375 399.121094 381.566406 400.109375 381.023438 C 400.039062 380.886719 399.9375 380.679688 399.902344 380.445312 C 399.324219 380.679688 398.847656 380.886719 398.476562 381.054688 C 397.894531 381.292969 397.183594 381.054688 396.875 380.511719 C 396.570312 379.96875 396.707031 379.253906 397.214844 378.84375 C 397.316406 378.777344 397.386719 378.707031 397.523438 378.640625 C 397.214844 378.46875 396.976562 378.230469 396.773438 377.960938 C 396.296875 377.144531 396.230469 376.191406 396.535156 375.238281 C 396.839844 374.320312 397.488281 373.332031 398.507812 372.3125 C 398.441406 372.3125 398.339844 372.3125 398.269531 372.277344 C 397.929688 372.210938 397.625 371.972656 397.453125 371.664062 C 397.386719 371.53125 397.316406 371.359375 397.285156 371.191406 C 397.046875 371.054688 396.839844 370.847656 396.707031 370.578125 C 396.398438 370.066406 396.128906 369.25 396.46875 368.128906 C 396.839844 366.902344 397.929688 365.507812 399.734375 363.941406 C 399.734375 363.875 399.734375 363.839844 399.734375 363.773438 C 399.902344 363.195312 400.515625 362.546875 401.945312 361.5625 C 401.875 361.5625 401.773438 361.5625 401.707031 361.5625 C 401.636719 361.5625 401.570312 361.527344 401.46875 361.492188 C 400.789062 361.59375 400.210938 361.59375 399.765625 361.492188 C 398.882812 361.289062 398.441406 360.777344 398.203125 360.371094 C 398.03125 360.066406 398 359.722656 398.066406 359.382812 C 398.203125 358.941406 398.238281 358.773438 401.503906 356.933594 C 401.773438 356.558594 402.148438 356.21875 402.558594 355.8125 C 402.183594 355.609375 401.945312 355.335938 401.84375 355.097656 C 401.742188 354.925781 401.671875 354.722656 401.636719 354.554688 C 401.367188 354.382812 401.058594 354.144531 400.925781 353.941406 C 400.753906 353.632812 400.585938 353.160156 400.753906 352.511719 C 400.789062 352.375 400.855469 352.238281 400.925781 352.105469 C 400.855469 352.105469 400.820312 352.105469 400.753906 352.105469 C 400.414062 352.035156 400.074219 351.796875 399.902344 351.492188 C 399.699219 351.117188 399.496094 350.503906 399.734375 349.722656 C 399.871094 349.210938 400.242188 348.703125 400.753906 348.089844 C 400.617188 347.816406 400.550781 347.410156 400.652344 346.933594 C 400.109375 347.035156 399.632812 347.035156 399.222656 346.933594 C 398.40625 346.761719 397.964844 346.285156 397.761719 345.910156 C 397.589844 345.605469 397.523438 345.0625 397.625 344.722656 C 397.792969 344.175781 398.371094 343.53125 399.632812 342.613281 C 399.1875 342.78125 398.984375 342.746094 398.710938 342.679688 C 398.371094 342.613281 398.03125 342.375 397.863281 342.035156 C 397.386719 341.21875 397.316406 340.296875 397.625 339.347656 C 397.828125 338.734375 398.203125 338.054688 398.78125 337.40625 C 398.679688 336.929688 398.679688 336.453125 398.78125 335.945312 C 398.644531 335.839844 398.542969 335.707031 398.441406 335.535156 C 398.203125 335.09375 398.03125 334.652344 398.03125 334.140625 C 397.625 334.277344 397.351562 334.277344 397.113281 334.207031 C 396.773438 334.140625 396.398438 333.867188 396.230469 333.5625 C 395.992188 333.121094 395.820312 332.882812 396.367188 332.304688 C 396.261719 332.203125 396.160156 332.097656 396.09375 331.996094 C 395.855469 331.589844 395.820312 331.113281 395.957031 330.636719 C 396.195312 329.886719 397.113281 329.003906 398.882812 327.847656 C 398.78125 327.746094 398.679688 327.640625 398.609375 327.507812 C 398.339844 327.03125 398.101562 326.246094 398.40625 325.160156 C 398.644531 324.34375 399.292969 323.390625 400.277344 322.335938 C 398.710938 323.21875 398.507812 323.152344 398.132812 323.082031 C 397.792969 323.015625 397.488281 322.777344 397.316406 322.472656 C 396.976562 321.894531 396.671875 320.871094 397.078125 319.511719 C 397.316406 318.730469 397.828125 317.914062 398.507812 316.992188 C 398.476562 316.6875 398.507812 316.347656 398.578125 315.972656 C 398.578125 315.835938 398.578125 315.699219 398.644531 315.566406 C 398.578125 315.566406 398.542969 315.566406 398.476562 315.53125 C 398.132812 315.460938 397.828125 315.226562 397.65625 314.917969 C 397.386719 314.441406 397.316406 313.898438 397.523438 313.320312 C 397.726562 312.742188 398.238281 312.09375 399.085938 311.347656 C 398.917969 311.175781 398.78125 311.007812 398.710938 310.871094 C 398.304688 310.15625 398.203125 309.304688 398.507812 308.453125 C 398.847656 307.367188 399.871094 306.140625 401.46875 304.847656 C 401.195312 304.710938 400.890625 304.507812 400.753906 304.234375 C 400.585938 303.929688 400.550781 303.519531 400.617188 303.179688 C 400.617188 303.148438 400.617188 303.113281 400.617188 303.078125 C 400.550781 303.078125 400.480469 303.078125 400.414062 303.046875 C 399.394531 302.839844 398.609375 302.261719 398.101562 301.445312 C 397.894531 301.070312 397.691406 300.460938 397.929688 299.644531 C 398.066406 299.167969 398.40625 298.65625 398.882812 298.113281 C 398.882812 297.839844 398.882812 297.601562 398.984375 297.328125 C 399.054688 297.160156 399.121094 296.988281 399.222656 296.820312 C 398.917969 296.851562 398.679688 296.851562 398.507812 296.820312 C 398.167969 296.75 397.726562 296.410156 397.554688 296.105469 C 397.285156 295.628906 397.25 295.085938 397.421875 294.539062 C 397.625 293.894531 398.203125 293.179688 399.257812 292.328125 C 399.257812 292.160156 399.257812 291.953125 399.324219 291.75 C 399.425781 291.34375 399.765625 290.867188 400.3125 290.289062 C 400.3125 290.289062 400.3125 290.289062 400.3125 290.253906 C 400.074219 289.84375 399.871094 289.199219 400.140625 288.3125 C 400.3125 287.769531 400.71875 287.125 401.332031 286.410156 C 401.265625 286.238281 401.230469 286.070312 401.230469 285.863281 C 401.230469 285.863281 401.230469 285.832031 401.195312 285.796875 C 401.128906 285.695312 401.09375 285.625 401.058594 285.523438 C 399.800781 285.863281 398.78125 285.964844 398 285.796875 C 396.976562 285.558594 396.46875 284.980469 396.195312 284.539062 C 395.890625 283.992188 395.582031 283.109375 395.957031 281.882812 C 396.296875 280.726562 397.214844 279.433594 398.644531 278.039062 C 398.644531 277.902344 398.644531 277.765625 398.644531 277.632812 C 398.40625 277.496094 398.203125 277.292969 398.066406 277.054688 C 397.894531 276.78125 397.863281 276.441406 397.929688 276.167969 C 397.421875 275.929688 397.148438 275.589844 396.976562 275.285156 C 396.808594 274.976562 396.738281 274.46875 396.839844 274.160156 C 396.945312 273.753906 397.351562 273.242188 398.238281 272.460938 C 398.132812 272.152344 398.066406 271.78125 398.238281 271.304688 C 398.371094 270.828125 398.710938 270.316406 399.292969 269.703125 C 399.054688 269.703125 398.816406 269.703125 398.609375 269.636719 C 397.589844 269.433594 397.078125 268.855469 396.808594 268.410156 C 396.636719 268.105469 396.601562 267.730469 396.671875 267.425781 C 396.785156 266.992188 398.792969 265.746094 402.691406 263.683594 C 403.066406 263.375 403.511719 263.035156 403.953125 262.695312 C 403.441406 262.796875 403 262.796875 402.660156 262.695312 C 402.113281 262.558594 401.671875 262.253906 401.402344 261.8125 C 401.367188 261.742188 401.296875 261.640625 401.296875 261.539062 C 400.820312 261.640625 400.414062 261.640625 400.074219 261.574219 C 399.53125 261.472656 399.054688 261.132812 398.78125 260.65625 C 398.578125 260.316406 398.40625 259.769531 398.542969 259.089844 C 398.339844 258.546875 398.507812 257.933594 398.949219 257.59375 C 398.847656 257.492188 398.746094 257.386719 398.679688 257.285156 C 398.507812 256.980469 398.339844 256.707031 398.578125 256.300781 C 398.238281 256.097656 398.03125 255.824219 397.894531 255.621094 C 397.421875 254.835938 397.183594 254.394531 399.972656 252.285156 C 399.871094 252.285156 399.800781 252.285156 399.699219 252.25 C 399.359375 252.183594 398.917969 251.84375 398.746094 251.535156 C 398.644531 251.367188 398.542969 251.09375 398.507812 250.789062 C 398.40625 250.6875 398.339844 250.585938 398.269531 250.515625 C 398.101562 250.210938 398.066406 249.835938 398.167969 249.53125 C 398.304688 249.121094 398.304688 249.019531 399.15625 248.578125 C 399.222656 248.339844 399.257812 248.203125 399.53125 247.929688 C 399.53125 247.898438 399.496094 247.863281 399.460938 247.828125 C 399.292969 247.523438 399.1875 247.183594 399.1875 246.84375 C 398.304688 247.214844 397.761719 247.285156 397.351562 247.183594 C 397.011719 247.113281 396.601562 246.808594 396.433594 246.5 C 396.195312 246.058594 396.128906 245.550781 396.296875 245.074219 C 396.636719 244.019531 398.03125 242.894531 400.652344 241.398438 C 400.582031 240.957031 400.753906 240.277344 401.671875 239.152344 C 401.230469 239.324219 400.890625 239.324219 400.582031 239.253906 C 400.480469 239.253906 400.347656 239.1875 400.242188 239.121094 C 399.9375 239.324219 399.632812 239.527344 399.292969 239.730469 C 397.625 240.785156 397.625 240.820312 397.078125 240.683594 C 396.738281 240.617188 396.46875 240.378906 396.296875 240.070312 C 396.128906 239.765625 396.058594 239.121094 396.160156 238.777344 C 396.433594 237.722656 397.726562 236.703125 400.515625 235.035156 C 400.515625 234.933594 400.515625 234.832031 400.515625 234.695312 C 400.515625 234.664062 400.515625 234.628906 400.515625 234.558594 C 400.515625 234.492188 400.515625 234.425781 400.550781 234.355469 C 400.617188 234.152344 400.71875 233.949219 400.855469 233.777344 C 401.027344 233.503906 401.230469 233.199219 401.503906 232.824219 C 401.570312 232.722656 401.636719 232.621094 401.707031 232.519531 C 401.570312 232.519531 401.46875 232.519531 401.332031 232.519531 C 401.164062 232.519531 400.992188 232.417969 400.820312 232.316406 C 399.9375 232.757812 399.597656 232.824219 399.324219 232.824219 C 399.121094 232.894531 398.917969 232.894531 398.710938 232.824219 C 398.371094 232.757812 398.066406 232.519531 397.894531 232.214844 C 397.589844 231.667969 397.316406 231.191406 399.1875 228.574219 C 399.1875 228.574219 399.1875 228.574219 399.1875 228.539062 C 398.847656 227.925781 399.054688 227.144531 399.664062 226.804688 C 399.765625 226.734375 399.871094 226.703125 399.972656 226.667969 C 400.175781 226.566406 400.480469 226.359375 400.753906 226.15625 C 401.636719 225.613281 401.910156 225.410156 402.488281 225.542969 C 402.898438 225.648438 403.273438 225.953125 403.40625 226.359375 C 403.511719 226.667969 403.511719 226.972656 403.375 227.28125 C 407.015625 225.101562 407.695312 225.070312 408.101562 225.136719 C 408.238281 225.136719 408.410156 225.136719 408.546875 225.136719 C 408.886719 225.203125 409.15625 225.441406 409.328125 225.75 C 409.734375 226.464844 409.597656 226.871094 408.886719 227.449219 C 408.886719 227.449219 408.816406 227.519531 408.75 227.550781 C 408.75 227.550781 408.679688 227.585938 408.679688 227.621094 C 408.308594 227.996094 407.660156 228.4375 406.539062 229.050781 C 406.539062 229.457031 406.367188 229.96875 405.925781 230.75 C 406.230469 230.613281 406.539062 230.445312 406.878906 230.308594 C 406.980469 230.238281 407.117188 230.207031 407.21875 230.136719 C 409.835938 228.199219 410.824219 227.519531 411.742188 227.652344 C 412.152344 227.449219 412.390625 227.449219 412.695312 227.519531 C 413.035156 227.585938 413.34375 227.824219 413.546875 228.128906 C 413.546875 228.164062 413.578125 228.199219 413.613281 228.234375 C 414.804688 227.621094 415.554688 227.449219 416.164062 227.585938 C 416.507812 227.652344 417.050781 228.027344 417.21875 228.335938 C 417.324219 228.539062 417.390625 228.742188 417.390625 228.980469 C 417.390625 229.390625 417.152344 229.796875 416.8125 230.035156 C 412.050781 233.402344 407.898438 236.601562 405.449219 238.777344 C 405.960938 238.507812 406.503906 238.269531 407.082031 237.996094 C 409.125 236.703125 411.234375 235.375 413 234.1875 C 414.023438 233.4375 415.109375 232.585938 416.300781 231.667969 C 417.527344 230.714844 417.664062 230.613281 418.242188 230.714844 C 418.546875 230.785156 418.851562 230.953125 419.023438 231.226562 C 419.839844 230.816406 420.25 230.714844 420.65625 230.816406 C 421.132812 230.648438 421.40625 230.648438 421.675781 230.714844 C 422.015625 230.785156 422.359375 231.054688 422.527344 231.363281 C 422.699219 231.667969 422.800781 231.90625 422.832031 232.109375 C 425.25 230.546875 426.542969 230 427.460938 230.207031 C 427.800781 230.273438 428.34375 230.648438 428.515625 230.953125 C 428.71875 231.292969 428.753906 231.738281 428.652344 232.144531 C 428.582031 232.347656 428.480469 232.554688 428.34375 232.792969 C 432.019531 230.511719 432.429688 230.511719 433.007812 230.648438 C 433.347656 230.714844 433.652344 230.953125 433.855469 231.261719 C 434.46875 232.316406 434.640625 232.621094 428.753906 236.5 C 428.957031 236.363281 429.160156 236.226562 429.367188 236.125 C 430.589844 235.375 431.339844 234.902344 431.476562 234.796875 C 431.746094 234.59375 432.121094 234.527344 432.460938 234.59375 C 432.800781 234.664062 433.109375 234.867188 433.3125 235.171875 C 433.449219 235.375 433.550781 235.582031 433.585938 235.75 C 434.164062 235.410156 434.742188 235.035156 435.320312 234.695312 C 435.625 234.527344 435.964844 234.457031 436.304688 234.558594 C 436.644531 234.664062 436.917969 234.867188 437.089844 235.171875 C 437.15625 235.273438 437.226562 235.410156 437.257812 235.582031 C 440.59375 233.710938 440.730469 233.742188 441 233.8125 C 441.339844 233.914062 441.613281 234.117188 441.785156 234.390625 C 441.953125 234.695312 442.023438 235.140625 441.917969 235.480469 C 441.851562 235.75 441.648438 236.058594 441.238281 236.464844 C 442.53125 235.886719 443.417969 235.683594 444.0625 235.820312 C 444.539062 235.921875 444.949219 236.226562 445.1875 236.636719 C 445.425781 237.078125 445.695312 237.792969 445.390625 238.8125 C 445.355469 238.949219 445.320312 239.050781 445.253906 239.1875 C 446.242188 238.644531 447.023438 238.199219 447.601562 237.859375 C 447.941406 237.621094 448.28125 237.351562 448.621094 237.113281 C 448.929688 236.90625 449.300781 236.804688 449.640625 236.875 C 449.984375 236.941406 450.324219 237.179688 450.492188 237.484375 C 450.664062 237.792969 450.695312 238.167969 450.628906 238.507812 C 450.527344 238.882812 450.460938 239.121094 449.097656 239.9375 C 449.03125 239.96875 448.996094 240.003906 448.929688 240.070312 C 448.929688 240.105469 448.996094 240.175781 449.03125 240.207031 C 449.199219 240.515625 449.371094 240.992188 449.234375 241.601562 C 450.730469 240.820312 451.582031 240.445312 452.125 240.277344 C 453.964844 239.460938 455.324219 239.152344 456.242188 239.355469 C 456.957031 239.527344 457.367188 239.902344 457.570312 240.242188 C 457.808594 240.140625 458.113281 240.105469 458.386719 240.175781 C 458.726562 240.242188 459.03125 240.480469 459.203125 240.785156 C 459.644531 241.535156 459.710938 242.386719 459.441406 243.269531 C 459.441406 243.335938 459.40625 243.40625 459.371094 243.472656 C 459.609375 243.609375 459.816406 243.78125 459.949219 244.019531 C 460.121094 244.324219 460.1875 244.734375 460.085938 245.074219 C 460.085938 245.074219 460.085938 245.105469 460.085938 245.140625 C 461.957031 244.1875 463.21875 243.847656 464.035156 244.019531 C 464.542969 244.121094 464.953125 244.425781 465.222656 244.867188 C 465.496094 245.3125 465.632812 245.820312 465.632812 246.332031 C 465.800781 246.332031 465.972656 246.332031 466.109375 246.398438 C 467.027344 246.605469 467.503906 247.148438 467.777344 247.554688 C 467.808594 247.625 467.84375 247.726562 467.878906 247.792969 C 468.726562 248 469.203125 248.542969 469.441406 248.917969 C 469.546875 249.085938 469.578125 249.257812 469.613281 249.460938 C 470.429688 249.085938 470.632812 249.121094 470.941406 249.191406 C 471.144531 249.222656 471.347656 249.359375 471.519531 249.496094 C 472.300781 249.394531 473.015625 249.394531 473.628906 249.53125 C 474.683594 249.769531 475.5 250.3125 475.976562 251.164062 C 476.246094 251.640625 476.316406 252.21875 476.109375 252.761719 C 476.109375 252.796875 476.109375 252.863281 476.042969 252.898438 C 477.164062 252.558594 478.117188 252.457031 478.832031 252.625 C 479.617188 252.796875 480.261719 253.238281 480.636719 253.882812 C 480.839844 254.257812 481.042969 254.835938 480.804688 255.652344 C 480.601562 256.332031 479.988281 257.183594 479.003906 258.171875 C 479.242188 258.375 479.410156 258.613281 479.511719 258.816406 C 479.785156 259.261719 480.023438 260.007812 479.71875 261.027344 C 479.617188 261.402344 479.445312 261.777344 479.171875 262.21875 C 479.34375 262.320312 479.511719 262.492188 479.617188 262.660156 C 479.886719 263.136719 480.023438 263.648438 480.023438 264.160156 C 480.125 264.398438 480.125 264.703125 480.058594 264.976562 C 480.058594 265.042969 480.023438 265.113281 479.988281 265.179688 C 480.941406 264.769531 481.519531 264.601562 481.757812 264.667969 C 482.097656 264.769531 482.40625 265.007812 482.609375 265.316406 C 482.847656 265.722656 482.984375 266.167969 483.050781 266.640625 C 483.253906 267.289062 483.289062 268.140625 482.949219 269.195312 C 482.847656 269.5 482.710938 269.804688 482.542969 270.113281 C 482.542969 270.28125 482.507812 270.488281 482.4375 270.726562 C 482.167969 271.609375 481.214844 272.628906 479.511719 273.855469 C 478.730469 274.601562 477.8125 275.386719 476.824219 276.203125 C 476.894531 276.304688 476.960938 276.371094 477.03125 276.472656 C 477.199219 276.746094 477.234375 277.1875 477.164062 277.527344 C 478.664062 276.78125 479.582031 276.578125 480.195312 276.710938 C 480.535156 276.78125 481.042969 277.15625 481.25 277.460938 C 481.417969 277.765625 481.453125 278.140625 481.351562 278.480469 C 481.25 278.820312 481.011719 279.09375 480.671875 279.265625 C 479.511719 279.808594 478.355469 280.386719 477.164062 280.964844 C 477.234375 280.964844 477.300781 280.964844 477.402344 281 C 477.742188 281.066406 478.015625 281.304688 478.1875 281.613281 C 478.527344 282.222656 478.59375 282.90625 478.390625 283.585938 C 478.457031 283.6875 478.5625 283.789062 478.628906 283.925781 C 479.035156 284.671875 479.171875 285.523438 478.933594 286.410156 C 479.378906 286.375 479.75 286.410156 480.058594 286.476562 C 480.90625 286.679688 481.382812 287.191406 481.589844 287.566406 C 481.757812 287.835938 481.894531 288.3125 481.722656 288.925781 C 481.589844 289.402344 481.113281 290.015625 480.328125 290.761719 C 480.566406 291.171875 480.601562 291.648438 480.464844 292.089844 C 480.363281 292.429688 480.125 292.804688 479.683594 293.214844 C 479.957031 293.417969 480.125 293.65625 480.261719 293.859375 C 480.671875 294.539062 480.738281 295.355469 480.464844 296.140625 C 480.398438 296.34375 480.296875 296.546875 480.195312 296.785156 C 480.195312 296.988281 480.125 297.195312 480.058594 297.398438 C 479.851562 298.078125 479.445312 298.792969 478.832031 299.574219 C 478.832031 299.777344 478.832031 299.949219 478.832031 300.152344 C 478.730469 300.492188 478.527344 300.765625 478.21875 300.9375 C 478.050781 301.039062 477.878906 301.140625 477.710938 301.207031 C 477.609375 301.414062 477.472656 301.648438 477.269531 301.886719 C 478.425781 301.683594 479.445312 301.683594 480.261719 301.855469 C 481.722656 302.160156 482.472656 302.976562 482.847656 303.625 C 483.015625 303.929688 483.050781 304.269531 482.984375 304.609375 C 482.847656 305.121094 482.8125 305.1875 476.996094 308.421875 C 477.164062 308.421875 477.335938 308.421875 477.472656 308.453125 C 477.8125 308.523438 478.324219 308.898438 478.492188 309.203125 C 478.695312 309.578125 478.765625 309.984375 478.628906 310.394531 C 478.527344 310.734375 478.289062 311.109375 477.8125 311.585938 C 477.949219 311.925781 478.050781 312.402344 477.878906 312.980469 C 477.742188 313.421875 477.4375 313.933594 476.960938 314.542969 C 477.03125 314.613281 477.132812 314.714844 477.164062 314.816406 C 477.574219 315.53125 477.640625 316.3125 477.402344 317.164062 C 477.574219 317.605469 477.710938 318.253906 477.507812 319.035156 C 477.507812 319.035156 477.539062 319.035156 477.574219 319.035156 C 477.914062 319.101562 478.253906 319.375 478.425781 319.679688 C 478.492188 319.816406 478.59375 320.023438 478.628906 320.226562 C 479.71875 320.464844 480.535156 321.042969 481.042969 321.925781 C 481.214844 322.234375 481.28125 322.742188 481.179688 323.082031 C 480.976562 323.796875 479.785156 324.886719 477.132812 326.691406 C 477.132812 326.691406 477.132812 326.722656 477.132812 326.757812 C 477.03125 327.167969 476.996094 327.269531 474.34375 328.832031 C 475.976562 328.355469 477.269531 328.1875 478.289062 328.425781 C 479.035156 328.59375 479.546875 328.933594 479.886719 329.277344 C 479.988281 329.277344 480.125 329.277344 480.226562 329.34375 C 481.691406 329.648438 482.40625 330.433594 482.777344 331.078125 C 483.015625 331.488281 483.222656 332.132812 482.984375 333.019531 C 482.882812 333.324219 482.710938 333.664062 482.472656 334.039062 C 482.609375 334.207031 482.710938 334.34375 482.8125 334.515625 C 483.085938 334.957031 483.324219 335.738281 483.015625 336.761719 C 482.949219 337 482.8125 337.269531 482.675781 337.542969 C 482.675781 337.710938 482.644531 337.847656 482.574219 338.054688 C 482.371094 338.699219 481.757812 339.617188 480.125 341.082031 C 480.703125 340.980469 480.875 341.21875 481.078125 341.589844 C 481.589844 342.476562 481.691406 343.496094 481.351562 344.550781 C 481.113281 345.332031 480.601562 346.148438 479.886719 347 C 479.886719 347.136719 479.851562 347.273438 479.785156 347.410156 C 479.683594 347.75 479.480469 348.125 479.207031 348.53125 C 479.480469 348.464844 479.683594 348.496094 479.851562 348.53125 C 480.195312 348.597656 480.535156 348.871094 480.703125 349.179688 C 481.078125 349.824219 481.417969 350.914062 480.941406 352.375 C 480.738281 352.953125 480.433594 353.566406 479.988281 354.214844 C 479.988281 354.214844 480.058594 354.214844 480.058594 354.214844 C 480.398438 354.28125 480.804688 354.585938 480.976562 354.894531 C 481.144531 355.199219 481.179688 355.574219 481.113281 355.878906 C 481.011719 356.253906 480.941406 356.492188 479.105469 357.613281 C 479.511719 357.75 479.820312 358.023438 480.023438 358.363281 C 480.195312 358.667969 480.226562 359.042969 480.125 359.417969 C 480.058594 359.65625 479.886719 359.894531 479.683594 360.03125 C 479.785156 360.710938 479.035156 361.5625 475.023438 364.078125 C 475.90625 363.636719 476.347656 363.570312 476.722656 363.671875 C 477.0625 363.738281 477.4375 364.011719 477.640625 364.316406 C 477.640625 364.351562 477.675781 364.386719 477.710938 364.417969 C 480.398438 362.648438 480.5 362.648438 480.976562 362.753906 C 481.316406 362.820312 481.621094 363.058594 481.792969 363.363281 C 482.03125 363.738281 482.234375 364.386719 481.960938 365.234375 C 481.960938 365.269531 481.960938 365.304688 481.929688 365.339844 C 482.132812 365.507812 482.304688 365.710938 482.40625 365.882812 C 482.746094 366.496094 482.542969 367.242188 481.960938 367.617188 C 481.453125 367.921875 480.90625 368.265625 480.328125 368.605469 C 480.5 368.605469 480.671875 368.605469 480.839844 368.605469 C 481.179688 368.671875 481.589844 368.976562 481.792969 369.285156 C 482.03125 369.691406 482.066406 370.167969 481.929688 370.679688 C 481.859375 370.882812 481.757812 371.085938 481.621094 371.324219 C 481.726562 371.597656 481.757812 371.902344 481.691406 372.175781 C 481.621094 372.449219 481.554688 372.617188 480.464844 373.300781 C 481.351562 373.570312 481.828125 374.148438 482.066406 374.558594 C 482.4375 375.171875 482.746094 376.226562 482.304688 377.652344 C 482.132812 378.199219 481.828125 378.742188 481.417969 379.355469 C 481.453125 379.390625 481.488281 379.457031 481.519531 379.523438 C 481.859375 380.101562 481.691406 380.886719 481.113281 381.261719 C 479.988281 381.972656 478.730469 382.789062 477.335938 383.710938 C 477.164062 383.878906 476.960938 384.015625 476.757812 384.1875 C 477.0625 384.425781 477.269531 384.695312 477.402344 384.933594 C 477.574219 385.207031 477.710938 385.648438 477.539062 386.261719 C 477.539062 386.328125 477.539062 386.363281 477.472656 386.429688 C 479.851562 385.34375 481.28125 384.933594 481.894531 385.070312 C 482.234375 385.136719 482.675781 385.480469 482.847656 385.785156 C 483.050781 386.125 483.222656 386.667969 483.015625 387.382812 C 482.746094 388.269531 481.757812 389.425781 480.023438 390.785156 C 480.023438 390.820312 480.023438 390.855469 480.023438 390.886719 C 479.957031 391.125 479.820312 391.332031 479.648438 391.464844 C 479.957031 391.566406 480.226562 391.773438 480.398438 392.042969 C 480.90625 392.964844 481.011719 393.984375 480.703125 395.074219 C 481.042969 395.140625 481.382812 395.34375 481.554688 395.683594 C 481.894531 396.296875 481.691406 397.078125 481.078125 397.421875 L 476.894531 399.835938 C 472.914062 403.136719 466.039062 406.945312 456.652344 411.539062 L 444.84375 418.378906 C 427.085938 430.625 410.722656 440.898438 401.433594 443.449219 C 393.675781 447.90625 391.398438 449.167969 390.515625 449.167969 Z M 394.359375 443.007812 C 393.203125 444.027344 392.417969 444.949219 392.011719 445.796875 C 392.894531 445.289062 394.121094 444.574219 395.617188 443.722656 C 395.074219 443.554688 394.664062 443.28125 394.324219 443.007812 Z M 396.5 441.308594 C 396.5 441.308594 396.636719 441.339844 396.707031 441.375 C 397.589844 441.578125 398.746094 441.476562 400.175781 441.101562 C 402.320312 439.84375 404.800781 438.449219 407.457031 436.882812 C 403 439.199219 399.496094 440.59375 397.148438 440.832031 C 396.910156 441 396.707031 441.136719 396.46875 441.308594 Z M 426.644531 425.417969 C 424.023438 427.121094 421.507812 428.71875 419.125 430.183594 C 422.664062 428.140625 426.40625 425.996094 430.214844 423.753906 C 429.027344 424.296875 427.835938 424.839844 426.609375 425.417969 Z M 429.09375 419.5 C 423.175781 422.9375 417.664062 426.203125 412.867188 429.128906 C 416.777344 427.1875 420.996094 425.214844 425.386719 423.175781 C 429.738281 420.351562 434.230469 417.390625 438.585938 414.464844 C 437.429688 415.078125 436.238281 415.722656 435.011719 416.335938 C 433.074219 417.355469 431.101562 418.410156 429.09375 419.464844 Z M 404.222656 418.410156 C 403.375 418.988281 402.660156 419.566406 402.046875 420.042969 C 402.929688 419.535156 403.984375 418.921875 405.144531 418.171875 C 404.835938 418.273438 404.53125 418.34375 404.257812 418.410156 Z M 423.886719 408.648438 C 418.785156 412.152344 414.703125 414.941406 411.4375 417.117188 C 413.445312 416.199219 415.554688 415.214844 417.695312 414.160156 C 423.648438 410.449219 430.453125 406.4375 437.394531 402.421875 C 440.59375 400.242188 443.722656 398.066406 446.683594 396.023438 C 454.574219 390.546875 460.632812 386.398438 465.191406 383.4375 C 460.53125 386.089844 454.472656 389.425781 446.714844 393.710938 C 446.648438 393.746094 446.582031 393.78125 446.511719 393.847656 C 438.246094 399.496094 430.558594 404.597656 423.921875 408.679688 Z M 460.496094 402.691406 C 457.773438 404.53125 454.949219 406.4375 452.160156 408.339844 C 448.144531 411.0625 444.265625 413.714844 440.523438 416.199219 C 443.316406 414.90625 446.070312 413.648438 448.824219 412.355469 C 455.628906 407.59375 461.789062 403.167969 466.382812 399.871094 C 467.777344 398.882812 469 398 470.054688 397.214844 C 467.265625 398.882812 464.066406 400.6875 460.460938 402.691406 Z M 400.789062 409.089844 C 400.789062 409.089844 400.789062 409.089844 400.820312 409.089844 C 400.820312 409.089844 400.820312 409.054688 400.820312 409.019531 C 400.820312 409.019531 400.820312 409.019531 400.789062 409.054688 Z M 415.894531 402.082031 C 412.050781 404.222656 408.816406 406.230469 406.640625 407.863281 C 407.421875 407.558594 408.308594 407.183594 409.429688 406.671875 C 412.117188 405.007812 415.347656 402.898438 418.785156 400.652344 C 417.796875 401.128906 416.847656 401.605469 415.894531 402.082031 Z M 477.914062 394.835938 C 475.839844 396.230469 472.0625 398.949219 467.878906 401.980469 C 467.777344 402.046875 467.640625 402.148438 467.539062 402.21875 C 470.257812 400.652344 472.914062 399.121094 475.398438 397.691406 C 476.621094 396.671875 477.472656 395.71875 477.914062 394.867188 Z M 409.125 398.03125 C 407.59375 399.019531 406.230469 399.972656 405.109375 400.789062 C 406.808594 400.3125 408.917969 399.425781 411.335938 398.238281 C 414.160156 396.398438 417.425781 394.1875 420.828125 391.839844 C 416.371094 394.496094 412.390625 396.636719 409.125 398.03125 Z M 401.230469 399.972656 C 401.230469 399.972656 401.230469 400.074219 401.195312 400.109375 C 401.128906 400.3125 401.128906 400.449219 401.128906 400.550781 C 401.230469 400.378906 401.367188 400.175781 401.46875 400.003906 C 401.367188 400.003906 401.296875 400.003906 401.195312 400.003906 Z M 404.054688 397.183594 C 404.054688 397.183594 404.054688 397.183594 404.019531 397.183594 C 404.019531 397.183594 404.019531 397.183594 404.054688 397.183594 Z M 468.933594 393.574219 C 467.402344 394.664062 465.667969 395.820312 463.828125 397.046875 C 464.851562 396.5 465.835938 395.957031 466.789062 395.445312 C 473.320312 391.160156 476.417969 389.425781 477.980469 389.117188 C 478.355469 388.847656 478.695312 388.574219 479.003906 388.300781 C 476.757812 389.289062 473.253906 391.160156 468.933594 393.574219 Z M 400.957031 395.074219 C 401.296875 395.105469 401.742188 395.074219 402.25 394.96875 C 407.832031 390.207031 419.566406 384.152344 435.421875 376.394531 C 441.207031 372.6875 446.953125 368.945312 451.957031 365.644531 C 448.042969 367.753906 443.757812 370.03125 439.128906 372.484375 C 434.671875 374.828125 429.773438 377.414062 425.011719 380 C 415.382812 386.5 408.441406 390.785156 404.394531 392.042969 C 402.589844 393.335938 401.367188 394.390625 400.957031 395.105469 Z M 474.410156 385.886719 C 471.6875 388.234375 467.910156 390.886719 463.488281 393.746094 C 465.257812 392.726562 466.890625 391.804688 468.386719 390.988281 C 471.6875 388.710938 473.898438 386.941406 474.75 385.921875 C 474.648438 385.921875 474.546875 385.921875 474.445312 385.886719 Z M 441 383.878906 C 435.863281 387.351562 431.101562 390.546875 426.78125 393.371094 C 431.03125 391.195312 435.796875 388.8125 441 386.261719 C 447.363281 382.179688 453.25 378.46875 458.386719 375.375 C 458.589844 375.238281 458.792969 375.066406 459 374.933594 C 465.222656 370.476562 469.101562 367.71875 471.65625 366.019531 C 467.265625 368.671875 460.632812 372.550781 450.5625 378.367188 C 447.566406 380.101562 444.335938 381.972656 441 383.914062 Z M 476.417969 379.898438 C 474.683594 380.445312 470.769531 382.789062 465.90625 385.988281 C 467.199219 385.375 468.421875 384.867188 469.546875 384.457031 C 471.859375 383.199219 473.96875 382.078125 475.738281 381.125 C 476.078125 380.679688 476.316406 380.273438 476.453125 379.898438 Z M 467.539062 376.15625 C 466.3125 376.90625 465.019531 377.652344 463.726562 378.4375 C 464.511719 377.992188 465.292969 377.585938 466.007812 377.175781 C 466.515625 376.804688 467.027344 376.464844 467.539062 376.121094 Z M 477.132812 377.246094 C 477.132812 377.246094 477.4375 377.246094 477.574219 377.28125 C 478.085938 377.382812 478.492188 377.6875 478.730469 378.097656 C 478.796875 378.199219 478.832031 378.300781 478.867188 378.402344 C 479.308594 377.824219 479.617188 377.28125 479.75 376.769531 C 479.957031 376.191406 479.820312 375.917969 479.75 375.75 C 479.75 375.75 479.683594 375.644531 479.445312 375.613281 C 479.003906 375.511719 478.425781 375.542969 477.742188 375.679688 C 476.894531 376.359375 475.738281 377.144531 474.171875 378.128906 C 475.464844 377.550781 476.417969 377.246094 477.097656 377.246094 Z M 398.949219 375.953125 C 398.949219 375.953125 398.949219 376.019531 398.949219 376.019531 C 398.917969 376.121094 398.882812 376.226562 398.882812 376.328125 C 399.019531 376.328125 399.1875 376.257812 399.359375 376.191406 C 399.222656 376.121094 399.085938 376.019531 398.984375 375.953125 Z M 400.820312 374.011719 C 400.992188 374.011719 401.195312 374.046875 401.402344 374.082031 C 401.707031 373.503906 402.183594 372.855469 402.828125 372.175781 C 401.808594 372.992188 401.164062 373.605469 400.789062 374.046875 Z M 401.605469 365.609375 C 400.242188 366.765625 399.324219 367.789062 398.984375 368.636719 C 401.195312 366.902344 405.6875 364.148438 413.683594 359.589844 C 414.023438 359.351562 414.328125 359.144531 414.667969 358.90625 C 406.910156 363.433594 403.273438 365.269531 401.605469 365.609375 Z M 474.34375 355.710938 C 472.878906 356.628906 470.90625 357.957031 468.660156 359.484375 C 471.109375 358.058594 473.082031 356.765625 474.34375 355.710938 Z M 434.539062 356.085938 C 433.925781 356.492188 433.347656 356.933594 432.734375 357.34375 C 433.140625 357.140625 433.550781 356.933594 433.957031 356.695312 C 434.707031 356.1875 435.488281 355.710938 436.238281 355.199219 C 435.660156 355.503906 435.082031 355.777344 434.503906 356.085938 Z M 441.171875 347.953125 C 437.226562 350.265625 433.652344 352.410156 430.421875 354.347656 C 431.578125 353.804688 432.769531 353.261719 433.992188 352.683594 C 433.992188 352.683594 434.027344 352.683594 434.0625 352.648438 C 436.410156 351.082031 438.789062 349.484375 441.171875 347.953125 Z M 473.558594 348.871094 L 464.542969 354.246094 C 468.046875 352.34375 471.144531 350.539062 473.558594 348.871094 Z M 477.609375 351.898438 C 477.777344 352 477.949219 352.136719 478.050781 352.308594 C 478.21875 352 478.355469 351.695312 478.457031 351.421875 C 478.21875 351.558594 477.914062 351.730469 477.609375 351.933594 Z M 421.746094 348.734375 C 421.746094 348.734375 421.644531 348.804688 421.609375 348.835938 C 421.746094 348.769531 421.882812 348.667969 422.015625 348.597656 C 421.949219 348.632812 421.847656 348.703125 421.777344 348.734375 Z M 453.792969 346.421875 C 453.011719 346.964844 452.261719 347.476562 451.480469 347.988281 C 451.957031 347.75 452.464844 347.511719 452.976562 347.273438 C 453.859375 346.695312 454.710938 346.082031 455.5625 345.539062 C 454.984375 345.808594 454.40625 346.117188 453.792969 346.421875 Z M 437.019531 334.820312 C 430.625 338.902344 425.351562 342.273438 420.960938 344.992188 C 422.460938 344.246094 424.058594 343.496094 425.726562 342.714844 C 426.269531 342.40625 426.8125 342.066406 427.359375 341.761719 C 431.304688 339.003906 435.183594 336.351562 438.890625 333.835938 C 438.28125 334.175781 437.632812 334.515625 437.019531 334.855469 Z M 455.96875 341.863281 C 454.507812 342.714844 453.011719 343.632812 451.480469 344.550781 C 452.09375 344.246094 452.703125 343.972656 453.351562 343.667969 C 454.269531 343.054688 455.121094 342.441406 456.003906 341.863281 Z M 447.839844 335.195312 C 442.972656 338.394531 438.28125 341.457031 433.855469 344.277344 C 434.300781 344.074219 434.742188 343.835938 435.183594 343.597656 C 438.074219 341.828125 440.933594 340.058594 443.65625 338.425781 C 445.628906 337.066406 447.535156 335.738281 449.371094 334.480469 C 448.859375 334.71875 448.351562 334.957031 447.839844 335.195312 Z M 440.253906 329.039062 C 430.25 334.820312 422.253906 339.582031 416.269531 343.359375 C 421.335938 340.433594 427.800781 336.894531 435.726562 332.644531 C 436.953125 331.859375 438.175781 331.078125 439.402344 330.296875 C 441.445312 329.003906 443.347656 327.746094 445.1875 326.585938 C 443.585938 327.371094 441.953125 328.1875 440.253906 329.039062 Z M 449.710938 339.140625 C 447.804688 340.296875 445.898438 341.523438 443.960938 342.746094 C 448.65625 340.164062 453.453125 337.507812 457.945312 334.992188 C 455.425781 336.285156 452.671875 337.679688 449.710938 339.175781 Z M 478.664062 338.257812 C 478.664062 338.257812 478.796875 338.292969 478.867188 338.324219 C 479.207031 337.984375 479.480469 337.710938 479.71875 337.441406 C 479.480469 337.441406 479.207031 337.441406 478.902344 337.542969 C 478.832031 337.644531 478.730469 337.746094 478.664062 337.816406 C 478.664062 337.949219 478.664062 338.121094 478.664062 338.257812 Z M 427.15625 325.191406 C 425.554688 326.351562 424.023438 327.4375 422.5625 328.457031 C 425.625 326.929688 428.957031 325.296875 432.5625 323.527344 C 433.074219 323.289062 433.550781 323.050781 434.0625 322.777344 C 436.441406 321.078125 438.722656 319.441406 440.933594 317.914062 C 438.144531 319.136719 435.21875 320.429688 432.324219 321.722656 C 430.792969 322.742188 429.296875 323.730469 427.902344 324.683594 C 427.628906 324.851562 427.394531 325.023438 427.121094 325.191406 Z M 402.082031 324.136719 C 401.910156 324.34375 401.742188 324.546875 401.605469 324.75 C 401.636719 324.75 401.707031 324.714844 401.742188 324.683594 C 401.84375 324.511719 401.945312 324.34375 402.082031 324.171875 Z M 477.914062 322.605469 C 477.574219 323.050781 477.097656 323.492188 476.554688 324.003906 C 477.300781 323.492188 477.914062 323.050781 478.324219 322.710938 C 478.253906 322.710938 478.1875 322.675781 478.117188 322.640625 C 478.050781 322.640625 477.980469 322.640625 477.914062 322.605469 Z M 473.628906 318.183594 C 471.519531 319.511719 468.457031 321.550781 464.984375 323.832031 C 468.832031 321.722656 471.925781 319.785156 473.628906 318.183594 Z M 400.210938 319.171875 C 400.210938 319.171875 400.039062 319.476562 399.9375 319.648438 C 400.109375 319.546875 400.277344 319.441406 400.480469 319.308594 C 400.378906 319.273438 400.277344 319.207031 400.210938 319.171875 Z M 401.910156 317.0625 C 402.421875 317.128906 403.066406 317.097656 403.851562 316.960938 C 404.089844 316.6875 404.359375 316.449219 404.632812 316.175781 C 403.78125 316.449219 403.136719 316.515625 402.726562 316.414062 C 402.558594 316.515625 402.421875 316.621094 402.25 316.722656 C 402.148438 316.824219 402.011719 316.960938 401.910156 317.0625 Z M 453.316406 308.625 C 451.039062 309.984375 448.722656 311.347656 446.34375 312.707031 C 448.351562 311.824219 450.324219 310.9375 452.296875 310.054688 C 454.675781 308.453125 456.921875 306.957031 459 305.628906 C 457.261719 306.550781 455.359375 307.535156 453.316406 308.625 Z M 444.640625 297.464844 C 438.890625 301.242188 433.007812 304.984375 427.496094 308.25 C 431.917969 306.105469 436.78125 303.792969 442.089844 301.308594 C 446.410156 298.316406 450.628906 295.355469 454.40625 292.703125 C 455.085938 292.226562 455.730469 291.75 456.378906 291.308594 C 452.433594 293.316406 448.519531 295.390625 444.640625 297.429688 Z M 478.796875 304.167969 C 478.796875 304.167969 478.796875 304.339844 478.832031 304.40625 C 478.96875 304.339844 479.105469 304.234375 479.242188 304.167969 C 479.105469 304.167969 478.933594 304.167969 478.796875 304.167969 Z M 421.03125 303.625 C 420.828125 303.757812 420.65625 303.894531 420.453125 304.03125 C 423.070312 302.839844 425.757812 301.582031 428.515625 300.253906 C 430.421875 299.097656 432.394531 297.90625 434.332031 296.71875 C 429.945312 298.960938 425.351562 301.34375 421.03125 303.625 Z M 444.675781 302.976562 C 444.402344 303.148438 444.132812 303.351562 443.859375 303.519531 C 444.335938 303.214844 444.84375 302.941406 445.320312 302.636719 C 445.21875 302.703125 445.082031 302.738281 444.980469 302.808594 C 444.878906 302.875 444.777344 302.910156 444.675781 302.976562 Z M 400.652344 300.324219 C 400.652344 300.324219 400.753906 300.359375 400.855469 300.390625 C 400.992188 300.324219 401.128906 300.253906 401.296875 300.152344 C 401.265625 300.152344 401.230469 300.152344 401.164062 300.152344 C 401.027344 300.121094 400.855469 300.085938 400.753906 300.015625 C 400.6875 300.152344 400.652344 300.253906 400.617188 300.359375 Z M 476.757812 295.628906 C 475.703125 296.375 474.238281 297.296875 472.199219 298.453125 C 473.761719 297.875 475.054688 297.535156 476.109375 297.601562 C 476.859375 297.023438 477.4375 296.480469 477.8125 295.96875 C 477.8125 295.933594 477.777344 295.902344 477.777344 295.867188 C 477.777344 295.867188 477.710938 295.730469 477.402344 295.664062 C 477.234375 295.628906 476.996094 295.59375 476.792969 295.59375 Z M 433.71875 286.578125 C 430.929688 288.449219 428.3125 290.183594 425.863281 291.75 C 429.46875 290.082031 433.414062 288.3125 437.667969 286.410156 C 438.585938 286 439.539062 285.558594 440.457031 285.148438 C 444.199219 282.9375 447.976562 280.761719 451.617188 278.652344 C 457.910156 274.738281 465.019531 270.316406 472.980469 265.28125 C 476.246094 262.730469 477.710938 260.996094 477.402344 260.007812 C 477.402344 260.007812 477.335938 259.972656 477.300781 259.941406 C 473.898438 263.785156 460.1875 271.847656 433.6875 286.578125 Z M 478.324219 289.164062 C 478.324219 289.164062 478.390625 289.164062 478.425781 289.164062 C 478.425781 289.164062 478.492188 289.164062 478.527344 289.164062 C 478.730469 288.960938 478.933594 288.757812 479.070312 288.585938 C 478.933594 288.585938 478.765625 288.585938 478.59375 288.621094 C 478.527344 288.789062 478.425781 288.925781 478.324219 289.097656 Z M 473.21875 282.871094 C 472.367188 283.414062 471.484375 283.992188 470.566406 284.640625 C 472.027344 283.753906 473.457031 282.90625 474.851562 282.089844 C 474.308594 282.359375 473.761719 282.632812 473.21875 282.90625 Z M 400.480469 279.84375 C 399.460938 280.863281 398.78125 281.816406 398.542969 282.597656 C 398.40625 283.007812 398.542969 283.210938 398.542969 283.246094 C 398.949219 283.585938 399.902344 283.484375 401.195312 283.007812 C 402.863281 278.855469 412.695312 273.71875 428.582031 266.132812 C 431.613281 264.058594 434.433594 262.050781 436.851562 260.347656 C 441.886719 256.808594 446.105469 253.851562 449.574219 251.503906 C 447.363281 252.828125 444.710938 254.257812 441.613281 255.824219 C 439.539062 257.117188 437.464844 258.441406 435.386719 259.734375 C 412.117188 274.433594 403.238281 279.742188 400.414062 279.773438 Z M 432.734375 278.140625 C 431.542969 278.957031 430.386719 279.742188 429.230469 280.523438 C 429.910156 280.183594 430.625 279.84375 431.304688 279.46875 C 432.460938 278.71875 433.585938 277.9375 434.707031 277.1875 C 434.0625 277.496094 433.378906 277.835938 432.699219 278.140625 Z M 471.007812 273.105469 C 469.648438 273.890625 468.148438 274.738281 466.515625 275.589844 C 468.863281 274.46875 470.90625 273.480469 472.472656 272.730469 C 472.027344 272.800781 471.519531 272.9375 471.007812 273.105469 Z M 476.246094 270.621094 Z M 440.421875 265.042969 C 438.28125 266.507812 436.136719 267.933594 434.09375 269.332031 L 435.59375 268.582031 C 439.675781 266.300781 444.0625 263.886719 448.824219 261.265625 C 450.253906 260.28125 451.683594 259.363281 453.011719 258.511719 C 448.691406 260.6875 444.472656 262.898438 440.421875 265.042969 Z M 478.867188 268.34375 C 479.035156 268.480469 479.171875 268.648438 479.242188 268.785156 C 479.273438 268.855469 479.308594 268.921875 479.34375 268.988281 C 479.445312 268.921875 479.546875 268.886719 479.648438 268.855469 C 479.988281 268.445312 480.226562 268.039062 480.398438 267.664062 C 480.226562 267.695312 480.058594 267.765625 479.886719 267.832031 C 479.582031 267.96875 479.242188 268.140625 478.867188 268.34375 Z M 418.140625 262.796875 C 415.960938 264.089844 413.851562 265.347656 411.878906 266.539062 C 412.695312 266.132812 413.582031 265.722656 414.5 265.316406 C 415.6875 264.5 416.914062 263.648438 418.140625 262.832031 Z M 403.882812 265.960938 C 403.882812 265.960938 403.816406 266.03125 403.746094 266.0625 C 404.292969 265.824219 404.835938 265.554688 405.449219 265.28125 C 406.164062 264.839844 406.945312 264.363281 407.796875 263.886719 C 406.570312 264.53125 405.3125 265.214844 404.054688 265.859375 C 403.984375 265.859375 403.917969 265.929688 403.882812 265.960938 Z M 476.824219 256.539062 C 476.824219 256.539062 477.03125 256.605469 477.132812 256.640625 C 477.949219 255.859375 478.355469 255.28125 478.425781 254.871094 C 478.1875 254.699219 477.777344 254.699219 477.234375 254.871094 C 477.269531 255.175781 477.234375 255.515625 477.132812 255.890625 C 477.0625 256.097656 476.960938 256.332031 476.824219 256.539062 Z M 472.945312 251.910156 C 473.117188 252.046875 473.289062 252.183594 473.390625 252.351562 C 473.457031 252.285156 473.527344 252.21875 473.558594 252.117188 C 473.457031 252.046875 473.320312 251.980469 473.082031 251.910156 C 473.050781 251.910156 472.980469 251.910156 472.945312 251.910156 Z M 449.097656 245.855469 C 446.480469 247.113281 443.246094 249.054688 439.808594 251.265625 Z M 442.941406 238.40625 C 440.117188 239.425781 431.847656 245.175781 425.625 249.496094 C 424.976562 249.9375 424.363281 250.378906 423.753906 250.789062 C 427.765625 248.578125 432.257812 246.128906 437.292969 243.441406 C 437.667969 243.234375 438.074219 243.03125 438.449219 242.828125 C 441.476562 240.582031 442.667969 239.222656 442.972656 238.40625 Z M 463.046875 246.46875 C 462.367188 246.636719 461.3125 247.148438 459.984375 247.929688 C 461.109375 247.386719 462.09375 246.976562 462.980469 246.671875 C 462.980469 246.636719 462.980469 246.570312 463.011719 246.535156 C 463.011719 246.535156 463.011719 246.5 463.011719 246.46875 Z M 405.890625 243.203125 C 404.429688 244.222656 403.238281 245.140625 402.488281 245.890625 C 402.726562 245.789062 402.964844 245.683594 403.273438 245.550781 C 403.273438 245.550781 403.339844 245.515625 403.375 245.480469 C 404.972656 244.390625 406.84375 243.234375 408.851562 242.046875 C 411.675781 239.96875 414.191406 238.167969 416.402344 236.667969 C 416.609375 236.535156 416.777344 236.398438 416.980469 236.261719 C 415.078125 237.382812 412.390625 238.984375 409.804688 240.648438 C 408.339844 241.636719 407.082031 242.488281 405.960938 243.203125 Z M 405.890625 243.203125 " fill-opacity="1" fill-rule="nonzero"/></g></svg>