<svg xmlns="http://www.w3.org/2000/svg" xmlns:xlink="http://www.w3.org/1999/xlink" width="1000" zoomAndPan="magnify" viewBox="0 0 750 749.999995" height="1000" preserveAspectRatio="xMidYMid meet" version="1.0"><rect x="-75" width="900" fill="#ffffff" y="-74.999999" height="899.999994" fill-opacity="1"/><rect x="-75" width="900" fill="#ffffff" y="-74.999999" height="899.999994" fill-opacity="1"/><path fill="#393536" d="M 508.335938 259.820312 C 497.902344 249.316406 487.46875 238.882812 476.96875 228.378906 C 477.242188 228.65625 477.515625 228.929688 477.722656 229.203125 C 475.527344 226.527344 472.300781 225.015625 468.867188 225.015625 L 318.265625 225.015625 C 312.777344 225.015625 308.109375 228.859375 307.011719 234.214844 L 296.097656 286.863281 C 295.410156 290.226562 296.234375 293.726562 298.429688 296.40625 C 298.703125 296.746094 298.980469 297.023438 299.253906 297.296875 C 299.253906 297.296875 299.183594 297.296875 299.183594 297.226562 C 309.617188 307.730469 320.121094 318.164062 330.554688 328.667969 C 330.828125 328.941406 331.171875 329.214844 331.515625 329.492188 C 331.652344 329.558594 331.722656 329.628906 331.859375 329.765625 C 332.0625 329.902344 332.339844 330.109375 332.542969 330.246094 C 332.613281 330.246094 332.613281 330.3125 332.683594 330.3125 C 332.820312 330.382812 332.886719 330.453125 333.023438 330.519531 C 333.164062 330.589844 333.300781 330.65625 333.367188 330.726562 C 333.574219 330.792969 333.78125 330.933594 333.984375 331 C 334.125 331.070312 334.261719 331.136719 334.328125 331.136719 C 334.535156 331.207031 334.808594 331.34375 335.015625 331.414062 C 335.085938 331.414062 335.222656 331.480469 335.289062 331.480469 C 335.632812 331.550781 335.976562 331.6875 336.320312 331.753906 C 336.59375 331.824219 336.871094 331.824219 337.144531 331.894531 C 337.210938 331.894531 337.351562 331.960938 337.417969 331.960938 C 337.832031 332.03125 338.171875 332.03125 338.585938 332.03125 L 370.160156 332.03125 L 357.804688 393.121094 C 353.550781 413.507812 343.527344 416.253906 334.191406 416.253906 C 329.320312 416.253906 323.757812 415.292969 320.601562 413.027344 C 310.578125 405.75 302.824219 395.179688 302.824219 395.179688 C 303.027344 395.386719 303.164062 395.59375 303.371094 395.796875 C 301.519531 393.671875 298.910156 392.296875 296.097656 391.953125 C 295.683594 391.886719 295.203125 391.886719 294.722656 391.886719 C 291.769531 391.886719 288.957031 392.984375 286.761719 395.042969 L 242.554688 436.984375 C 238.503906 440.828125 237.75 447.074219 240.90625 451.671875 C 244.269531 456.683594 247.976562 461.214844 252.164062 465.332031 C 252.097656 465.265625 251.957031 465.195312 251.890625 465.058594 C 262.324219 475.5625 272.757812 485.996094 283.257812 496.496094 C 284.496094 497.730469 285.730469 498.898438 286.964844 499.996094 C 287.378906 500.410156 287.859375 500.753906 288.269531 501.09375 C 289.164062 501.851562 289.988281 502.605469 290.878906 503.292969 C 291.429688 503.703125 291.976562 504.117188 292.527344 504.527344 C 293.351562 505.144531 294.171875 505.761719 294.996094 506.382812 C 295.617188 506.792969 296.234375 507.203125 296.78125 507.546875 C 297.605469 508.097656 298.429688 508.644531 299.320312 509.195312 C 299.390625 509.265625 299.527344 509.332031 299.597656 509.402344 C 300.695312 510.085938 301.863281 510.773438 303.027344 511.390625 C 303.164062 511.460938 303.234375 511.527344 303.371094 511.597656 C 304.746094 512.351562 306.1875 513.039062 307.628906 513.726562 C 308.109375 513.933594 308.519531 514.136719 309 514.34375 C 310.03125 514.824219 311.058594 515.234375 312.089844 515.714844 C 312.636719 515.921875 313.1875 516.195312 313.738281 516.402344 C 314.699219 516.816406 315.726562 517.15625 316.6875 517.5 C 317.238281 517.707031 317.855469 517.914062 318.472656 518.117188 C 319.503906 518.460938 320.601562 518.804688 321.699219 519.148438 C 322.25 519.285156 322.796875 519.492188 323.347656 519.628906 C 324.789062 520.039062 326.160156 520.453125 327.601562 520.796875 C 327.808594 520.863281 328.082031 520.933594 328.289062 521 C 329.800781 521.414062 331.378906 521.6875 333.023438 522.03125 C 333.164062 522.03125 333.367188 522.101562 333.503906 522.167969 C 333.78125 522.238281 334.054688 522.304688 334.398438 522.304688 C 335.839844 522.582031 337.351562 522.855469 338.859375 523.0625 C 339.203125 523.128906 339.476562 523.199219 339.820312 523.199219 C 341.535156 523.472656 343.253906 523.679688 344.96875 523.886719 C 345.3125 523.953125 345.722656 523.953125 346.136719 524.023438 C 347.714844 524.226562 349.363281 524.367188 351.007812 524.503906 C 351.214844 524.503906 351.488281 524.570312 351.695312 524.570312 C 353.480469 524.707031 355.332031 524.777344 357.1875 524.847656 C 357.597656 524.847656 358.078125 524.847656 358.492188 524.914062 C 360.414062 524.984375 362.265625 524.984375 364.257812 524.984375 C 396.039062 524.984375 421.640625 517.019531 440.519531 501.300781 C 459.328125 485.652344 472.4375 460.046875 479.507812 425.316406 L 511.5625 270.183594 C 512.25 266.820312 511.425781 263.320312 509.230469 260.640625 C 508.886719 260.367188 508.613281 260.09375 508.335938 259.820312 Z M 247.632812 446.59375 C 246.671875 445.222656 246.878906 443.300781 248.113281 442.199219 L 292.25 400.125 C 292.871094 399.503906 293.761719 399.160156 294.65625 399.160156 C 294.792969 399.160156 294.929688 399.160156 295.066406 399.160156 C 296.097656 399.300781 296.988281 399.847656 297.539062 400.742188 C 306.1875 414.058594 316.34375 421.472656 328.425781 423.253906 C 329.25 423.394531 330.140625 423.460938 331.035156 423.53125 C 332.132812 423.597656 333.164062 423.667969 334.261719 423.667969 C 351.351562 423.667969 361.648438 413.988281 365.699219 394.015625 L 377.917969 332.03125 L 382.859375 307.042969 L 385.878906 291.601562 L 306.667969 291.601562 C 305.636719 291.601562 304.675781 291.121094 303.988281 290.363281 C 303.304688 289.539062 303.097656 288.511719 303.304688 287.480469 L 314.011719 234.695312 C 314.355469 233.117188 315.726562 231.949219 317.375 231.949219 L 468.386719 231.949219 C 469.417969 231.949219 470.378906 232.429688 471.066406 233.183594 C 471.75 234.007812 471.957031 235.039062 471.75 236.066406 L 440.382812 391.542969 C 433.792969 424.558594 421.710938 448.652344 404.414062 463.136719 C 387.046875 477.621094 363.160156 484.964844 333.230469 484.964844 C 293.554688 485.035156 264.796875 472.058594 247.632812 446.59375 Z M 247.632812 446.59375 " fill-opacity="1" fill-rule="nonzero"/><path fill="#ffffff" d="M 468.386719 231.949219 L 317.375 231.949219 C 315.726562 231.949219 314.355469 233.117188 314.011719 234.695312 L 303.304688 287.480469 C 303.097656 288.511719 303.371094 289.539062 303.988281 290.363281 C 304.675781 291.1875 305.636719 291.601562 306.667969 291.601562 L 385.878906 291.601562 L 382.859375 307.042969 L 377.917969 332.03125 L 365.699219 394.015625 C 361.648438 413.988281 351.351562 423.667969 334.261719 423.667969 C 333.164062 423.667969 332.0625 423.597656 331.035156 423.53125 C 330.140625 423.460938 329.320312 423.394531 328.425781 423.253906 C 316.277344 421.472656 306.117188 414.125 297.539062 400.742188 C 296.988281 399.847656 296.097656 399.300781 295.066406 399.160156 C 294.929688 399.160156 294.792969 399.160156 294.65625 399.160156 C 293.761719 399.160156 292.9375 399.503906 292.25 400.125 L 248.113281 442.199219 C 246.878906 443.367188 246.671875 445.222656 247.632812 446.59375 C 264.796875 472.058594 293.554688 485.035156 333.230469 485.035156 C 363.089844 485.035156 387.046875 477.6875 404.414062 463.207031 C 421.710938 448.722656 433.859375 424.628906 440.382812 391.613281 L 471.75 236.136719 C 471.957031 235.105469 471.683594 234.078125 471.066406 233.253906 C 470.445312 232.363281 469.417969 231.949219 468.386719 231.949219 Z M 468.386719 231.949219 " fill-opacity="1" fill-rule="nonzero"/><path fill="#393536" d="M 319.226562 256.933594 C 319.023438 256.933594 318.816406 256.933594 318.542969 256.867188 C 316.6875 256.523438 315.453125 254.671875 315.863281 252.816406 L 318.40625 239.980469 C 318.746094 238.402344 320.121094 237.234375 321.769531 237.234375 L 349.226562 237.234375 C 351.148438 237.234375 352.65625 238.746094 352.65625 240.667969 C 352.65625 242.589844 351.148438 244.097656 349.226562 244.097656 L 324.582031 244.097656 L 322.589844 254.191406 C 322.316406 255.769531 320.875 256.933594 319.226562 256.933594 Z M 319.226562 256.933594 " fill-opacity="1" fill-rule="nonzero"/><path fill="#393536" d="M 308.863281 428.746094 C 308.246094 428.746094 307.628906 428.609375 307.078125 428.265625 C 301.585938 424.972656 296.851562 420.097656 294.105469 417.078125 L 285.042969 425.316406 C 283.671875 426.617188 281.476562 426.480469 280.171875 425.109375 C 278.867188 423.734375 279.003906 421.539062 280.375 420.234375 L 292.046875 409.59375 C 292.730469 408.976562 293.695312 408.632812 294.65625 408.703125 C 295.617188 408.773438 296.507812 409.253906 297.058594 410.007812 C 297.125 410.074219 303.304688 417.96875 310.511719 422.363281 C 312.15625 423.324219 312.636719 425.453125 311.675781 427.097656 C 311.195312 428.128906 310.03125 428.746094 308.863281 428.746094 Z M 308.863281 428.746094 " fill-opacity="1" fill-rule="nonzero"/></svg>