<svg xmlns="http://www.w3.org/2000/svg" xmlns:xlink="http://www.w3.org/1999/xlink" width="500" zoomAndPan="magnify" viewBox="0 0 375 374.999991" height="500" preserveAspectRatio="xMidYMid meet" version="1.0"><defs><g/></defs><rect x="-37.5" width="450" fill="#ffffff" y="-37.499999" height="449.999989" fill-opacity="1"/><rect x="-37.5" width="450" fill="#f6f1eb" y="-37.499999" height="449.999989" fill-opacity="1"/><g fill="#000000" fill-opacity="1"><g transform="translate(112.118177, 199.409987)"><g><path d="M 1.203125 -54.375 C 3.464844 -53.796875 4.332031 -51.679688 4.332031 -48.121094 L 4.332031 -6.738281 C 4.332031 -3.175781 3.464844 -1.058594 1.203125 -0.480469 L 1.203125 0 L 22.328125 0 C 36.667969 0 45.859375 -9.289062 45.859375 -27.429688 C 45.859375 -45.570312 36.667969 -54.855469 22.328125 -54.855469 L 1.203125 -54.855469 Z M 19.730469 -53.558594 C 29.015625 -53.316406 29.929688 -40.46875 29.929688 -27.378906 C 29.929688 -14.292969 29.015625 -1.539062 19.730469 -1.300781 Z M 19.730469 -53.558594 "/></g></g></g><g fill="#000000" fill-opacity="1"><g transform="translate(157.97354, 199.409987)"><g><path d="M 39.796875 0 L 39.796875 -16.554688 L 39.3125 -16.554688 C 39.3125 -11.308594 32.289062 -0.960938 22.855469 -0.960938 L 19.730469 -0.960938 L 19.730469 -28.824219 L 21.605469 -28.824219 C 26.371094 -28.824219 32.046875 -24.398438 32.722656 -20.738281 L 33.203125 -20.738281 L 33.203125 -37.871094 L 32.722656 -37.871094 C 32.046875 -34.214844 26.371094 -29.785156 21.605469 -29.785156 L 19.730469 -29.785156 L 19.730469 -53.894531 L 22.855469 -53.894531 C 32.289062 -53.894531 39.3125 -43.546875 39.3125 -38.304688 L 39.796875 -38.304688 L 39.796875 -54.855469 L 1.203125 -54.855469 L 1.203125 -54.375 C 3.464844 -53.796875 4.332031 -51.679688 4.332031 -48.121094 L 4.332031 -6.738281 C 4.332031 -3.175781 3.464844 -1.058594 1.203125 -0.480469 L 1.203125 0 Z M 39.796875 0 "/></g></g></g><g fill="#000000" fill-opacity="1"><g transform="translate(196.803786, 199.409987)"><g><path d="M 0 -54.855469 L 0 -54.375 C 2.40625 -54.375 4.523438 -46.386719 5.824219 -41.285156 C 9.914062 -25.167969 12.125 -16.121094 16.214844 0 L 32.144531 0 C 36.234375 -16.121094 38.449219 -25.167969 42.539062 -41.285156 C 43.835938 -46.386719 45.953125 -54.375 48.359375 -54.375 L 48.359375 -54.855469 L 28.824219 -54.855469 L 28.824219 -54.375 C 41.863281 -44.894531 34.597656 -14.242188 31.710938 -1.683594 C 28.390625 -14.726562 27.378906 -18.816406 24.542969 -29.980469 C 23.050781 -35.898438 19.007812 -50.527344 24.15625 -54.375 L 24.15625 -54.855469 Z M 0 -54.855469 "/></g></g></g><g fill="#000000" fill-opacity="1"><g transform="translate(242.995971, 199.409987)"><g><path d="M 2.40625 -7.507812 C 2.40625 -3.320312 5.773438 0 9.960938 0 C 14.148438 0 17.46875 -3.320312 17.46875 -7.507812 C 17.46875 -11.691406 14.148438 -15.0625 9.960938 -15.0625 C 5.773438 -15.0625 2.40625 -11.691406 2.40625 -7.507812 Z M 2.40625 -7.507812 "/></g></g></g><g fill="#000000" fill-opacity="1"><g transform="translate(144.46807, 223.99733)"><g><path d="M 3.484375 -5.59375 C 2.796875 -5.59375 2.257812 -5.375 1.875 -4.9375 C 1.5 -4.5 1.3125 -3.894531 1.3125 -3.125 C 1.3125 -2.363281 1.507812 -1.753906 1.90625 -1.296875 C 2.300781 -0.835938 2.835938 -0.609375 3.515625 -0.609375 C 4.378906 -0.609375 5.03125 -1.035156 5.46875 -1.890625 L 6.15625 -1.546875 C 5.90625 -1.015625 5.546875 -0.609375 5.078125 -0.328125 C 4.617188 -0.046875 4.082031 0.09375 3.46875 0.09375 C 2.851562 0.09375 2.316406 -0.0351562 1.859375 -0.296875 C 1.398438 -0.554688 1.050781 -0.925781 0.8125 -1.40625 C 0.570312 -1.894531 0.453125 -2.46875 0.453125 -3.125 C 0.453125 -4.113281 0.71875 -4.882812 1.25 -5.4375 C 1.789062 -6 2.53125 -6.28125 3.46875 -6.28125 C 4.125 -6.28125 4.671875 -6.148438 5.109375 -5.890625 C 5.554688 -5.640625 5.882812 -5.257812 6.09375 -4.75 L 5.296875 -4.484375 C 5.160156 -4.847656 4.929688 -5.125 4.609375 -5.3125 C 4.296875 -5.5 3.921875 -5.59375 3.484375 -5.59375 Z M 3.484375 -5.59375 "/></g></g></g><g fill="#000000" fill-opacity="1"><g transform="translate(151.291582, 223.99733)"><g><path d="M 5.109375 0 L 3.5 -2.578125 L 1.578125 -2.578125 L 1.578125 0 L 0.734375 0 L 0.734375 -6.1875 L 3.65625 -6.1875 C 4.351562 -6.1875 4.890625 -6.03125 5.265625 -5.71875 C 5.648438 -5.40625 5.84375 -4.972656 5.84375 -4.421875 C 5.84375 -3.960938 5.707031 -3.578125 5.4375 -3.265625 C 5.164062 -2.953125 4.796875 -2.753906 4.328125 -2.671875 L 6.078125 0 Z M 5 -4.40625 C 5 -4.769531 4.875 -5.046875 4.625 -5.234375 C 4.382812 -5.421875 4.03125 -5.515625 3.5625 -5.515625 L 1.578125 -5.515625 L 1.578125 -3.234375 L 3.609375 -3.234375 C 4.046875 -3.234375 4.382812 -3.335938 4.625 -3.546875 C 4.875 -3.753906 5 -4.039062 5 -4.40625 Z M 5 -4.40625 "/></g></g></g><g fill="#000000" fill-opacity="1"><g transform="translate(158.115093, 223.99733)"><g><path d="M 0.734375 0 L 0.734375 -6.1875 L 5.4375 -6.1875 L 5.4375 -5.5 L 1.578125 -5.5 L 1.578125 -3.515625 L 5.171875 -3.515625 L 5.171875 -2.84375 L 1.578125 -2.84375 L 1.578125 -0.6875 L 5.609375 -0.6875 L 5.609375 0 Z M 0.734375 0 "/></g></g></g><g fill="#000000" fill-opacity="1"><g transform="translate(164.442023, 223.99733)"><g><path d="M 5.125 0 L 4.421875 -1.8125 L 1.59375 -1.8125 L 0.890625 0 L 0.015625 0 L 2.546875 -6.1875 L 3.5 -6.1875 L 5.984375 0 Z M 3.015625 -5.5625 L 2.96875 -5.4375 C 2.894531 -5.195312 2.785156 -4.882812 2.640625 -4.5 L 1.859375 -2.46875 L 4.171875 -2.46875 L 3.375 -4.515625 C 3.289062 -4.710938 3.207031 -4.9375 3.125 -5.1875 Z M 3.015625 -5.5625 "/></g></g></g><g fill="#000000" fill-opacity="1"><g transform="translate(170.768952, 223.99733)"><g><path d="M 3.171875 -5.5 L 3.171875 0 L 2.328125 0 L 2.328125 -5.5 L 0.203125 -5.5 L 0.203125 -6.1875 L 5.296875 -6.1875 L 5.296875 -5.5 Z M 3.171875 -5.5 "/></g></g></g><g fill="#000000" fill-opacity="1"><g transform="translate(176.59051, 223.99733)"><g><path d="M 0.828125 0 L 0.828125 -6.1875 L 1.671875 -6.1875 L 1.671875 0 Z M 0.828125 0 "/></g></g></g><g fill="#000000" fill-opacity="1"><g transform="translate(179.414997, 223.99733)"><g><path d="M 3.4375 0 L 2.5625 0 L 0.046875 -6.1875 L 0.921875 -6.1875 L 2.640625 -1.828125 L 3 -0.734375 L 3.375 -1.828125 L 5.078125 -6.1875 L 5.96875 -6.1875 Z M 3.4375 0 "/></g></g></g><g fill="#000000" fill-opacity="1"><g transform="translate(185.741926, 223.99733)"><g><path d="M 0.734375 0 L 0.734375 -6.1875 L 5.4375 -6.1875 L 5.4375 -5.5 L 1.578125 -5.5 L 1.578125 -3.515625 L 5.171875 -3.515625 L 5.171875 -2.84375 L 1.578125 -2.84375 L 1.578125 -0.6875 L 5.609375 -0.6875 L 5.609375 0 Z M 0.734375 0 "/></g></g></g><g fill="#000000" fill-opacity="1"><g transform="translate(192.068855, 223.99733)"><g/></g></g><g fill="#000000" fill-opacity="1"><g transform="translate(194.893345, 223.99733)"><g><path d="M 5.59375 -1.703125 C 5.59375 -1.140625 5.367188 -0.695312 4.921875 -0.375 C 4.472656 -0.0625 3.84375 0.09375 3.03125 0.09375 C 1.519531 0.09375 0.644531 -0.429688 0.40625 -1.484375 L 1.21875 -1.640625 C 1.3125 -1.273438 1.507812 -1.003906 1.8125 -0.828125 C 2.125 -0.648438 2.539062 -0.5625 3.0625 -0.5625 C 3.601562 -0.5625 4.019531 -0.65625 4.3125 -0.84375 C 4.613281 -1.03125 4.765625 -1.304688 4.765625 -1.671875 C 4.765625 -1.867188 4.71875 -2.03125 4.625 -2.15625 C 4.53125 -2.28125 4.398438 -2.382812 4.234375 -2.46875 C 4.066406 -2.550781 3.863281 -2.617188 3.625 -2.671875 C 3.394531 -2.734375 3.140625 -2.796875 2.859375 -2.859375 C 2.367188 -2.960938 2 -3.066406 1.75 -3.171875 C 1.5 -3.285156 1.300781 -3.410156 1.15625 -3.546875 C 1.007812 -3.679688 0.894531 -3.835938 0.8125 -4.015625 C 0.738281 -4.191406 0.703125 -4.394531 0.703125 -4.625 C 0.703125 -5.15625 0.90625 -5.5625 1.3125 -5.84375 C 1.71875 -6.132812 2.296875 -6.28125 3.046875 -6.28125 C 3.753906 -6.28125 4.289062 -6.171875 4.65625 -5.953125 C 5.03125 -5.742188 5.289062 -5.378906 5.4375 -4.859375 L 4.625 -4.71875 C 4.53125 -5.039062 4.351562 -5.273438 4.09375 -5.421875 C 3.84375 -5.578125 3.492188 -5.65625 3.046875 -5.65625 C 2.546875 -5.65625 2.164062 -5.570312 1.90625 -5.40625 C 1.644531 -5.238281 1.515625 -4.992188 1.515625 -4.671875 C 1.515625 -4.484375 1.5625 -4.328125 1.65625 -4.203125 C 1.757812 -4.078125 1.90625 -3.96875 2.09375 -3.875 C 2.289062 -3.789062 2.675781 -3.6875 3.25 -3.5625 C 3.4375 -3.519531 3.625 -3.472656 3.8125 -3.421875 C 4 -3.378906 4.175781 -3.328125 4.34375 -3.265625 C 4.519531 -3.203125 4.679688 -3.128906 4.828125 -3.046875 C 4.984375 -2.960938 5.117188 -2.859375 5.234375 -2.734375 C 5.347656 -2.609375 5.4375 -2.460938 5.5 -2.296875 C 5.5625 -2.128906 5.59375 -1.929688 5.59375 -1.703125 Z M 5.59375 -1.703125 "/></g></g></g><g fill="#000000" fill-opacity="1"><g transform="translate(201.220274, 223.99733)"><g><path d="M 3.171875 -5.5 L 3.171875 0 L 2.328125 0 L 2.328125 -5.5 L 0.203125 -5.5 L 0.203125 -6.1875 L 5.296875 -6.1875 L 5.296875 -5.5 Z M 3.171875 -5.5 "/></g></g></g><g fill="#000000" fill-opacity="1"><g transform="translate(207.041831, 223.99733)"><g><path d="M 3.21875 0.09375 C 2.707031 0.09375 2.257812 0 1.875 -0.1875 C 1.5 -0.375 1.207031 -0.640625 1 -0.984375 C 0.789062 -1.335938 0.6875 -1.757812 0.6875 -2.25 L 0.6875 -6.1875 L 1.53125 -6.1875 L 1.53125 -2.328125 C 1.53125 -1.753906 1.671875 -1.320312 1.953125 -1.03125 C 2.242188 -0.738281 2.660156 -0.59375 3.203125 -0.59375 C 3.765625 -0.59375 4.195312 -0.742188 4.5 -1.046875 C 4.8125 -1.347656 4.96875 -1.789062 4.96875 -2.375 L 4.96875 -6.1875 L 5.8125 -6.1875 L 5.8125 -2.328125 C 5.8125 -1.828125 5.703125 -1.394531 5.484375 -1.03125 C 5.273438 -0.664062 4.972656 -0.382812 4.578125 -0.1875 C 4.191406 0 3.738281 0.09375 3.21875 0.09375 Z M 3.21875 0.09375 "/></g></g></g><g fill="#000000" fill-opacity="1"><g transform="translate(213.865342, 223.99733)"><g><path d="M 6.0625 -3.15625 C 6.0625 -2.519531 5.9375 -1.960938 5.6875 -1.484375 C 5.445312 -1.003906 5.097656 -0.632812 4.640625 -0.375 C 4.179688 -0.125 3.648438 0 3.046875 0 L 0.734375 0 L 0.734375 -6.1875 L 2.78125 -6.1875 C 3.832031 -6.1875 4.640625 -5.921875 5.203125 -5.390625 C 5.773438 -4.867188 6.0625 -4.125 6.0625 -3.15625 Z M 5.21875 -3.15625 C 5.21875 -3.925781 5.007812 -4.507812 4.59375 -4.90625 C 4.175781 -5.3125 3.566406 -5.515625 2.765625 -5.515625 L 1.578125 -5.515625 L 1.578125 -0.671875 L 2.953125 -0.671875 C 3.410156 -0.671875 3.8125 -0.769531 4.15625 -0.96875 C 4.5 -1.164062 4.757812 -1.453125 4.9375 -1.828125 C 5.125 -2.203125 5.21875 -2.644531 5.21875 -3.15625 Z M 5.21875 -3.15625 "/></g></g></g><g fill="#000000" fill-opacity="1"><g transform="translate(220.688853, 223.99733)"><g><path d="M 0.828125 0 L 0.828125 -6.1875 L 1.671875 -6.1875 L 1.671875 0 Z M 0.828125 0 "/></g></g></g><g fill="#000000" fill-opacity="1"><g transform="translate(223.51334, 223.99733)"><g><path d="M 6.5625 -3.125 C 6.5625 -2.476562 6.4375 -1.910156 6.1875 -1.421875 C 5.945312 -0.929688 5.59375 -0.554688 5.125 -0.296875 C 4.664062 -0.0351562 4.125 0.09375 3.5 0.09375 C 2.863281 0.09375 2.3125 -0.0351562 1.84375 -0.296875 C 1.382812 -0.554688 1.03125 -0.929688 0.78125 -1.421875 C 0.539062 -1.910156 0.421875 -2.476562 0.421875 -3.125 C 0.421875 -4.113281 0.691406 -4.882812 1.234375 -5.4375 C 1.773438 -6 2.53125 -6.28125 3.5 -6.28125 C 4.132812 -6.28125 4.679688 -6.15625 5.140625 -5.90625 C 5.609375 -5.65625 5.960938 -5.289062 6.203125 -4.8125 C 6.441406 -4.332031 6.5625 -3.769531 6.5625 -3.125 Z M 5.71875 -3.125 C 5.71875 -3.894531 5.523438 -4.5 5.140625 -4.9375 C 4.753906 -5.375 4.207031 -5.59375 3.5 -5.59375 C 2.789062 -5.59375 2.242188 -5.375 1.859375 -4.9375 C 1.472656 -4.507812 1.28125 -3.90625 1.28125 -3.125 C 1.28125 -2.34375 1.472656 -1.722656 1.859375 -1.265625 C 2.253906 -0.816406 2.800781 -0.59375 3.5 -0.59375 C 4.207031 -0.59375 4.753906 -0.8125 5.140625 -1.25 C 5.523438 -1.695312 5.71875 -2.320312 5.71875 -3.125 Z M 5.71875 -3.125 "/></g></g></g></svg>