<svg xmlns="http://www.w3.org/2000/svg" xmlns:xlink="http://www.w3.org/1999/xlink" width="500" zoomAndPan="magnify" viewBox="0 0 375 374.999991" height="500" preserveAspectRatio="xMidYMid meet" version="1.0"><defs><g/><clipPath id="611f531faf"><path d="M 72.664062 52.230469 L 302.164062 52.230469 L 302.164062 281.730469 L 72.664062 281.730469 Z M 72.664062 52.230469 " clip-rule="nonzero"/></clipPath><clipPath id="78bd732721"><path d="M 108.945312 85 L 265.695312 85 L 265.695312 257.488281 L 108.945312 257.488281 Z M 108.945312 85 " clip-rule="nonzero"/></clipPath></defs><rect x="-37.5" width="450" fill="#ffffff" y="-37.499999" height="449.999989" fill-opacity="1"/><rect x="-37.5" width="450" fill="#373532" y="-37.499999" height="449.999989" fill-opacity="1"/><g clip-path="url(#611f531faf)"><path fill="#a2906e" d="M 187.484375 281.871094 C 124.175781 281.871094 72.664062 230.363281 72.664062 167.050781 C 72.664062 103.738281 124.175781 52.230469 187.484375 52.230469 C 250.796875 52.230469 302.304688 103.738281 302.304688 167.050781 C 302.304688 230.363281 250.796875 281.871094 187.484375 281.871094 Z M 187.484375 54.175781 C 125.246094 54.175781 74.609375 104.808594 74.609375 167.050781 C 74.609375 229.292969 125.246094 279.925781 187.484375 279.925781 C 249.726562 279.925781 300.359375 229.292969 300.359375 167.050781 C 300.359375 104.808594 249.726562 54.175781 187.484375 54.175781 Z M 187.484375 54.175781 " fill-opacity="1" fill-rule="nonzero"/></g><path fill="#a2906e" d="M 187.484375 272.296875 C 129.441406 272.296875 82.230469 225.082031 82.230469 167.050781 C 82.230469 109.007812 129.441406 61.792969 187.484375 61.792969 C 245.515625 61.792969 292.730469 109.007812 292.730469 167.050781 C 292.730469 225.082031 245.515625 272.296875 187.484375 272.296875 Z M 187.484375 63.503906 C 130.390625 63.503906 83.941406 109.953125 83.941406 167.050781 C 83.941406 224.148438 130.390625 270.597656 187.484375 270.597656 C 244.582031 270.597656 291.03125 224.148438 291.03125 167.050781 C 291.03125 109.953125 244.582031 63.503906 187.484375 63.503906 Z M 187.484375 63.503906 " fill-opacity="1" fill-rule="nonzero"/><path fill="#a2906e" d="M 186.636719 276.28125 C 186.625 275.039062 187.621094 274.003906 188.875 273.992188 C 190.132812 273.980469 191.164062 274.976562 191.179688 276.234375 C 191.191406 277.488281 190.191406 278.511719 188.9375 278.523438 C 188.925781 278.523438 188.914062 278.523438 188.914062 278.523438 C 187.671875 278.523438 186.648438 277.539062 186.636719 276.28125 Z M 180.261719 278.300781 C 179.003906 278.226562 178.058594 277.144531 178.144531 275.902344 C 178.21875 274.644531 179.300781 273.699219 180.542969 273.785156 C 181.800781 273.859375 182.746094 274.941406 182.660156 276.195312 C 182.585938 277.390625 181.589844 278.3125 180.410156 278.3125 C 180.359375 278.3125 180.308594 278.3125 180.261719 278.300781 Z M 195.140625 276.035156 C 195.03125 274.78125 195.953125 273.671875 197.195312 273.5625 C 198.441406 273.453125 199.546875 274.375 199.65625 275.617188 C 199.769531 276.875 198.859375 277.96875 197.601562 278.078125 C 197.542969 278.09375 197.46875 278.09375 197.40625 278.09375 C 196.238281 278.09375 195.238281 277.207031 195.140625 276.035156 Z M 171.621094 277.425781 C 170.378906 277.242188 169.515625 276.097656 169.699219 274.855469 C 169.875 273.613281 171.019531 272.75 172.261719 272.921875 C 173.503906 273.105469 174.367188 274.25 174.191406 275.496094 C 174.03125 276.628906 173.0625 277.441406 171.953125 277.441406 C 171.84375 277.441406 171.730469 277.425781 171.621094 277.425781 Z M 203.597656 275.113281 C 203.386719 273.871094 204.222656 272.699219 205.453125 272.492188 C 206.699219 272.28125 207.867188 273.121094 208.078125 274.363281 C 208.285156 275.59375 207.449219 276.761719 206.21875 276.972656 C 206.082031 276.996094 205.960938 276.996094 205.835938 276.996094 C 204.742188 276.996094 203.78125 276.222656 203.597656 275.113281 Z M 163.078125 275.863281 C 161.859375 275.59375 161.085938 274.375 161.355469 273.144531 C 161.625 271.925781 162.84375 271.164062 164.074219 271.433594 C 165.292969 271.703125 166.070312 272.921875 165.785156 274.140625 C 165.554688 275.199219 164.617188 275.914062 163.582031 275.914062 C 163.410156 275.914062 163.25 275.902344 163.078125 275.863281 Z M 211.964844 273.539062 C 211.65625 272.332031 212.398438 271.089844 213.601562 270.792969 C 214.820312 270.484375 216.050781 271.222656 216.359375 272.429688 C 216.667969 273.648438 215.929688 274.878906 214.710938 275.1875 C 214.527344 275.238281 214.339844 275.261719 214.15625 275.261719 C 213.136719 275.261719 212.210938 274.570312 211.964844 273.539062 Z M 154.683594 273.636719 C 153.492188 273.265625 152.816406 272 153.183594 270.804688 C 153.554688 269.597656 154.820312 268.921875 156.027344 269.292969 C 157.21875 269.660156 157.898438 270.941406 157.527344 272.136719 C 157.21875 273.105469 156.320312 273.734375 155.351562 273.734375 C 155.128906 273.734375 154.90625 273.710938 154.683594 273.636719 Z M 220.175781 271.324219 C 219.769531 270.128906 220.410156 268.847656 221.601562 268.441406 C 222.785156 268.046875 224.078125 268.6875 224.46875 269.871094 C 224.875 271.0625 224.238281 272.34375 223.042969 272.75 C 222.796875 272.824219 222.5625 272.859375 222.316406 272.859375 C 221.367188 272.859375 220.484375 272.269531 220.175781 271.324219 Z M 146.488281 270.757812 C 145.320312 270.300781 144.753906 268.984375 145.207031 267.816406 C 145.675781 266.644531 146.992188 266.078125 148.148438 266.535156 C 149.320312 267.003906 149.886719 268.320312 149.429688 269.488281 C 149.074219 270.375 148.222656 270.917969 147.3125 270.917969 C 147.042969 270.917969 146.757812 270.867188 146.488281 270.757812 Z M 228.175781 268.46875 C 227.683594 267.308594 228.222656 265.980469 229.371094 265.488281 C 230.527344 264.996094 231.855469 265.527344 232.347656 266.683594 C 232.839844 267.839844 232.3125 269.167969 231.152344 269.660156 C 230.859375 269.785156 230.5625 269.84375 230.269531 269.84375 C 229.382812 269.84375 228.542969 269.328125 228.175781 268.46875 Z M 138.539062 267.25 C 137.417969 266.695312 136.9375 265.339844 137.492188 264.207031 C 138.046875 263.089844 139.398438 262.621094 140.53125 263.175781 C 141.652344 263.714844 142.117188 265.082031 141.566406 266.203125 C 141.183594 267.015625 140.371094 267.484375 139.535156 267.484375 C 139.203125 267.484375 138.855469 267.394531 138.539062 267.25 Z M 235.929688 264.984375 C 235.351562 263.875 235.78125 262.511719 236.902344 261.933594 C 238.007812 261.351562 239.386719 261.785156 239.964844 262.878906 C 240.542969 264 240.113281 265.367188 238.992188 265.945312 C 238.660156 266.128906 238.304688 266.214844 237.949219 266.214844 C 237.136719 266.214844 236.335938 265.757812 235.929688 264.984375 Z M 130.882812 263.125 C 129.8125 262.484375 129.441406 261.09375 130.082031 260.011719 C 130.722656 258.941406 132.113281 258.585938 133.195312 259.210938 L 133.195312 259.222656 C 134.277344 259.851562 134.636719 261.242188 133.996094 262.324219 C 133.566406 263.039062 132.8125 263.445312 132.039062 263.445312 C 131.644531 263.445312 131.25 263.335938 130.882812 263.125 Z M 243.398438 260.921875 C 242.734375 259.851562 243.054688 258.449219 244.113281 257.785156 C 245.183594 257.132812 246.585938 257.453125 247.253906 258.511719 C 247.917969 259.570312 247.597656 260.972656 246.527344 261.636719 C 246.15625 261.871094 245.738281 261.980469 245.332031 261.980469 C 244.570312 261.980469 243.832031 261.597656 243.398438 260.921875 Z M 123.582031 258.425781 C 122.5625 257.699219 122.304688 256.28125 123.03125 255.261719 C 123.742188 254.226562 125.160156 253.980469 126.191406 254.707031 C 127.214844 255.421875 127.460938 256.835938 126.746094 257.871094 C 126.304688 258.496094 125.601562 258.832031 124.886719 258.832031 C 124.433594 258.832031 123.976562 258.695312 123.582031 258.425781 Z M 250.527344 256.269531 C 249.789062 255.261719 249.996094 253.84375 251.007812 253.105469 C 252.015625 252.355469 253.429688 252.566406 254.183594 253.574219 C 254.921875 254.582031 254.710938 256.011719 253.703125 256.75 C 253.296875 257.058594 252.828125 257.191406 252.359375 257.191406 C 251.660156 257.191406 250.96875 256.875 250.527344 256.269531 Z M 116.667969 253.167969 C 115.707031 252.367188 115.558594 250.941406 116.359375 249.96875 C 117.160156 248.996094 118.585938 248.859375 119.558594 249.660156 C 120.519531 250.460938 120.667969 251.886719 119.867188 252.847656 C 119.410156 253.402344 118.769531 253.683594 118.105469 253.683594 C 117.601562 253.683594 117.097656 253.511719 116.667969 253.167969 Z M 257.285156 251.101562 C 256.457031 250.152344 256.558594 248.714844 257.503906 247.902344 C 258.453125 247.078125 259.890625 247.175781 260.703125 248.121094 C 261.53125 249.070312 261.417969 250.511719 260.484375 251.324219 C 260.050781 251.691406 259.523438 251.875 258.992188 251.875 C 258.355469 251.875 257.726562 251.605469 257.285156 251.101562 Z M 110.179688 247.394531 C 109.28125 246.523438 109.257812 245.082031 110.117188 244.183594 C 110.992188 243.285156 112.433594 243.25 113.332031 244.121094 C 114.230469 244.984375 114.265625 246.425781 113.390625 247.324219 C 112.949219 247.789062 112.347656 248.023438 111.753906 248.023438 C 111.1875 248.023438 110.625 247.816406 110.179688 247.394531 Z M 263.609375 245.414062 C 262.710938 244.527344 262.699219 243.089844 263.585938 242.203125 C 264.472656 241.304688 265.898438 241.292969 266.796875 242.175781 C 267.683594 243.0625 267.695312 244.492188 266.808594 245.390625 C 266.367188 245.832031 265.789062 246.066406 265.195312 246.066406 C 264.617188 246.066406 264.039062 245.84375 263.609375 245.414062 Z M 104.160156 241.132812 C 103.335938 240.195312 103.410156 238.757812 104.347656 237.929688 C 105.28125 237.09375 106.722656 237.179688 107.558594 238.117188 C 108.382812 239.050781 108.308594 240.480469 107.375 241.316406 C 106.929688 241.710938 106.402344 241.894531 105.859375 241.894531 C 105.234375 241.894531 104.605469 241.636719 104.160156 241.132812 Z M 269.480469 239.25 C 268.519531 238.4375 268.398438 236.996094 269.210938 236.046875 C 270.007812 235.089844 271.449219 234.964844 272.410156 235.777344 C 273.355469 236.589844 273.480469 238.019531 272.667969 238.976562 C 272.226562 239.507812 271.585938 239.777344 270.945312 239.777344 C 270.414062 239.777344 269.898438 239.605469 269.480469 239.25 Z M 98.648438 234.4375 C 97.898438 233.425781 98.082031 232.011719 99.078125 231.25 C 100.085938 230.484375 101.503906 230.683594 102.265625 231.679688 C 103.015625 232.6875 102.832031 234.105469 101.835938 234.867188 C 101.417969 235.175781 100.9375 235.320312 100.457031 235.320312 C 99.769531 235.320312 99.089844 235.015625 98.648438 234.4375 Z M 274.847656 232.640625 C 273.835938 231.914062 273.605469 230.496094 274.328125 229.476562 C 275.066406 228.464844 276.484375 228.234375 277.492188 228.960938 C 278.515625 229.699219 278.75 231.113281 278.007812 232.132812 C 277.566406 232.75 276.878906 233.070312 276.175781 233.070312 C 275.707031 233.070312 275.253906 232.933594 274.847656 232.640625 Z M 93.675781 227.308594 C 92.984375 226.261719 93.292969 224.859375 94.351562 224.183594 C 95.398438 223.507812 96.8125 223.8125 97.480469 224.859375 C 98.167969 225.917969 97.859375 227.320312 96.8125 228 C 96.433594 228.246094 96 228.355469 95.582031 228.355469 C 94.832031 228.355469 94.105469 227.988281 93.675781 227.308594 Z M 279.695312 225.648438 C 278.625 224.996094 278.292969 223.605469 278.933594 222.535156 C 279.585938 221.464844 280.988281 221.117188 282.058594 221.769531 C 283.128906 222.421875 283.460938 223.828125 282.808594 224.886719 C 282.390625 225.585938 281.640625 225.980469 280.878906 225.980469 C 280.472656 225.980469 280.066406 225.871094 279.695312 225.648438 Z M 89.257812 219.839844 C 88.667969 218.730469 89.074219 217.363281 90.179688 216.773438 C 91.289062 216.171875 92.667969 216.589844 93.257812 217.699219 L 93.257812 217.683594 C 93.847656 218.792969 93.441406 220.171875 92.332031 220.761719 C 91.988281 220.945312 91.621094 221.03125 91.261719 221.03125 C 90.449219 221.03125 89.675781 220.601562 89.257812 219.839844 Z M 283.980469 218.300781 C 282.871094 217.734375 282.414062 216.367188 282.980469 215.25 C 283.546875 214.128906 284.914062 213.683594 286.035156 214.25 C 287.15625 214.804688 287.609375 216.183594 287.03125 217.292969 C 286.636719 218.078125 285.835938 218.546875 285.011719 218.546875 C 284.667969 218.546875 284.3125 218.460938 283.980469 218.300781 Z M 85.441406 212.046875 C 84.9375 210.902344 85.464844 209.5625 86.609375 209.058594 C 87.753906 208.550781 89.097656 209.070312 89.601562 210.214844 C 90.105469 211.359375 89.589844 212.699219 88.445312 213.203125 C 88.136719 213.339844 87.828125 213.402344 87.523438 213.402344 C 86.648438 213.402344 85.824219 212.898438 85.441406 212.046875 Z M 287.683594 210.632812 C 286.527344 210.152344 285.972656 208.835938 286.453125 207.667969 C 286.933594 206.507812 288.261719 205.957031 289.417969 206.4375 C 290.574219 206.902344 291.128906 208.234375 290.648438 209.390625 C 290.292969 210.277344 289.445312 210.804688 288.558594 210.804688 C 288.261719 210.804688 287.964844 210.742188 287.683594 210.632812 Z M 82.253906 203.972656 C 81.835938 202.804688 82.464844 201.5 83.644531 201.082031 C 84.824219 200.675781 86.128906 201.292969 86.535156 202.472656 C 86.957031 203.667969 86.328125 204.957031 85.144531 205.363281 C 84.898438 205.449219 84.640625 205.5 84.394531 205.5 C 83.460938 205.5 82.585938 204.910156 82.253906 203.972656 Z M 290.785156 202.695312 C 289.589844 202.3125 288.925781 201.03125 289.320312 199.839844 C 289.703125 198.644531 290.980469 197.992188 292.175781 198.375 C 293.359375 198.753906 294.023438 200.035156 293.640625 201.230469 C 293.332031 202.191406 292.433594 202.804688 291.472656 202.804688 C 291.242188 202.804688 291.019531 202.769531 290.785156 202.695312 Z M 79.707031 195.679688 C 79.375 194.472656 80.101562 193.230469 81.316406 192.910156 C 82.523438 192.578125 83.769531 193.304688 84.085938 194.507812 C 84.40625 195.726562 83.695312 196.972656 82.476562 197.292969 C 82.277344 197.339844 82.082031 197.363281 81.898438 197.363281 C 80.886719 197.363281 79.976562 196.699219 79.707031 195.679688 Z M 293.234375 194.546875 C 292.015625 194.261719 291.265625 193.03125 291.546875 191.8125 C 291.84375 190.59375 293.0625 189.84375 294.292969 190.140625 C 295.5 190.421875 296.261719 191.640625 295.96875 192.859375 C 295.722656 193.90625 294.796875 194.609375 293.765625 194.609375 C 293.589844 194.609375 293.417969 194.582031 293.234375 194.546875 Z M 77.8125 187.210938 C 77.589844 185.96875 78.402344 184.785156 79.632812 184.566406 C 80.863281 184.34375 82.058594 185.15625 82.277344 186.386719 C 82.5 187.617188 81.6875 188.796875 80.457031 189.03125 C 80.308594 189.058594 80.171875 189.070312 80.039062 189.070312 C 78.96875 189.070312 78.007812 188.304688 77.8125 187.210938 Z M 295.042969 186.238281 C 293.8125 186.042969 292.964844 184.882812 293.148438 183.640625 C 293.34375 182.410156 294.515625 181.5625 295.746094 181.746094 C 296.988281 181.941406 297.835938 183.101562 297.640625 184.34375 C 297.46875 185.464844 296.496094 186.261719 295.402344 186.261719 C 295.289062 186.261719 295.167969 186.25 295.042969 186.238281 Z M 76.578125 178.609375 C 76.457031 177.363281 77.367188 176.246094 78.609375 176.121094 C 79.855469 175.984375 80.972656 176.898438 81.097656 178.152344 C 81.230469 179.394531 80.320312 180.503906 79.078125 180.636719 C 78.992188 180.636719 78.917969 180.652344 78.84375 180.652344 C 77.6875 180.652344 76.703125 179.777344 76.578125 178.609375 Z M 296.199219 177.808594 C 294.957031 177.710938 294.023438 176.613281 294.121094 175.371094 C 294.21875 174.128906 295.300781 173.191406 296.558594 173.277344 C 297.800781 173.375 298.734375 174.472656 298.636719 175.714844 C 298.636719 175.714844 298.636719 175.714844 298.636719 175.726562 C 298.550781 176.910156 297.554688 177.820312 296.386719 177.820312 C 296.324219 177.820312 296.261719 177.808594 296.199219 177.808594 Z M 76.027344 169.941406 C 76 168.6875 76.984375 167.652344 78.242188 167.617188 C 79.496094 167.59375 80.53125 168.578125 80.566406 169.832031 C 80.605469 171.085938 79.609375 172.121094 78.351562 172.160156 C 78.339844 172.160156 78.316406 172.160156 78.289062 172.160156 C 77.070312 172.160156 76.0625 171.1875 76.027344 169.941406 Z M 294.441406 167.050781 C 294.441406 165.796875 295.449219 164.773438 296.707031 164.773438 C 297.960938 164.773438 298.96875 165.796875 298.96875 167.050781 C 298.96875 168.304688 297.960938 169.316406 296.707031 169.316406 C 295.449219 169.316406 294.441406 168.304688 294.441406 167.050781 Z M 78.289062 163.652344 C 77.035156 163.59375 76.074219 162.519531 76.136719 161.265625 C 76.199219 160.023438 77.269531 159.050781 78.523438 159.113281 C 79.769531 159.1875 80.738281 160.257812 80.679688 161.5 C 80.605469 162.71875 79.609375 163.652344 78.414062 163.652344 C 78.363281 163.652344 78.328125 163.652344 78.289062 163.652344 Z M 294.292969 161.488281 C 294.230469 160.230469 295.191406 159.160156 296.445312 159.085938 C 297.703125 159.027344 298.761719 160 298.824219 161.253906 C 298.824219 161.253906 298.824219 161.253906 298.824219 161.242188 C 298.882812 162.496094 297.921875 163.566406 296.679688 163.628906 C 296.632812 163.628906 296.59375 163.628906 296.558594 163.628906 C 295.351562 163.628906 294.355469 162.695312 294.292969 161.488281 Z M 78.867188 155.160156 C 77.625 155 76.753906 153.867188 76.914062 152.625 C 77.070312 151.382812 78.21875 150.507812 79.460938 150.65625 C 80.703125 150.828125 81.578125 151.960938 81.417969 153.203125 C 81.269531 154.347656 80.296875 155.1875 79.164062 155.1875 C 79.078125 155.1875 78.980469 155.171875 78.867188 155.160156 Z M 293.542969 153.179688 C 293.382812 151.9375 294.257812 150.804688 295.5 150.644531 C 296.753906 150.484375 297.886719 151.359375 298.046875 152.601562 C 298.207031 153.84375 297.332031 154.976562 296.089844 155.148438 C 295.992188 155.160156 295.894531 155.160156 295.792969 155.160156 C 294.664062 155.160156 293.691406 154.324219 293.542969 153.179688 Z M 80.125 146.742188 C 78.894531 146.496094 78.105469 145.289062 78.363281 144.058594 C 78.621094 142.839844 79.828125 142.054688 81.046875 142.300781 C 82.277344 142.570312 83.066406 143.765625 82.808594 144.996094 C 82.585938 146.066406 81.636719 146.804688 80.59375 146.804688 C 80.433594 146.804688 80.273438 146.78125 80.125 146.742188 Z M 292.152344 144.96875 C 291.90625 143.738281 292.679688 142.546875 293.910156 142.289062 C 295.140625 142.027344 296.335938 142.816406 296.59375 144.035156 C 296.851562 145.265625 296.066406 146.472656 294.847656 146.730469 C 294.6875 146.753906 294.527344 146.78125 294.367188 146.78125 C 293.320312 146.78125 292.386719 146.042969 292.152344 144.96875 Z M 82.019531 138.460938 C 80.8125 138.101562 80.125 136.835938 80.480469 135.640625 C 80.824219 134.433594 82.09375 133.746094 83.300781 134.101562 C 84.492188 134.445312 85.183594 135.714844 84.824219 136.910156 C 84.542969 137.90625 83.644531 138.546875 82.648438 138.546875 C 82.4375 138.546875 82.230469 138.519531 82.019531 138.460938 Z M 290.132812 136.898438 C 289.777344 135.691406 290.464844 134.433594 291.671875 134.078125 C 292.867188 133.722656 294.132812 134.421875 294.476562 135.617188 C 294.835938 136.824219 294.144531 138.078125 292.9375 138.433594 C 292.730469 138.496094 292.519531 138.519531 292.300781 138.519531 C 291.316406 138.519531 290.417969 137.882812 290.132812 136.898438 Z M 84.554688 130.335938 C 83.386719 129.894531 82.796875 128.578125 83.238281 127.40625 C 83.695312 126.238281 85 125.648438 86.179688 126.089844 C 87.347656 126.546875 87.941406 127.851562 87.484375 129.019531 C 87.140625 129.929688 86.277344 130.484375 85.367188 130.484375 C 85.097656 130.484375 84.824219 130.433594 84.554688 130.335938 Z M 287.472656 129.007812 C 287.03125 127.824219 287.609375 126.519531 288.777344 126.078125 C 289.960938 125.636719 291.265625 126.214844 291.707031 127.382812 C 292.164062 128.5625 291.574219 129.867188 290.402344 130.3125 C 290.132812 130.421875 289.863281 130.460938 289.589844 130.460938 C 288.679688 130.460938 287.820312 129.90625 287.472656 129.007812 Z M 87.730469 122.433594 C 86.597656 121.90625 86.117188 120.539062 86.648438 119.40625 C 87.1875 118.285156 88.542969 117.792969 89.675781 118.335938 C 90.808594 118.867188 91.289062 120.21875 90.757812 121.351562 C 90.363281 122.175781 89.550781 122.65625 88.703125 122.65625 C 88.382812 122.65625 88.050781 122.582031 87.730469 122.433594 Z M 284.214844 121.339844 L 284.214844 121.351562 C 283.671875 120.21875 284.152344 118.867188 285.285156 118.324219 C 286.429688 117.78125 287.769531 118.273438 288.3125 119.40625 C 288.839844 120.539062 288.359375 121.894531 287.226562 122.433594 C 286.921875 122.570312 286.589844 122.644531 286.257812 122.644531 C 285.40625 122.644531 284.59375 122.164062 284.214844 121.339844 Z M 280.359375 113.96875 C 279.734375 112.882812 280.113281 111.492188 281.199219 110.867188 C 282.28125 110.25 283.671875 110.632812 284.300781 111.714844 C 284.914062 112.796875 284.546875 114.1875 283.449219 114.804688 C 283.105469 115.011719 282.710938 115.113281 282.328125 115.113281 C 281.542969 115.113281 280.765625 114.707031 280.359375 113.96875 Z M 91.507812 114.804688 C 90.425781 114.1875 90.058594 112.796875 90.671875 111.714844 C 91.300781 110.621094 92.679688 110.25 93.773438 110.867188 C 94.855469 111.492188 95.226562 112.882812 94.609375 113.96875 C 94.191406 114.691406 93.429688 115.113281 92.640625 115.113281 C 92.261719 115.113281 91.867188 115.011719 91.507812 114.804688 Z M 275.941406 106.914062 C 275.242188 105.867188 275.5 104.464844 276.546875 103.75 C 277.566406 103.050781 278.980469 103.320312 279.683594 104.355469 C 280.398438 105.386719 280.125 106.804688 279.09375 107.503906 C 278.699219 107.777344 278.257812 107.898438 277.8125 107.898438 C 277.085938 107.898438 276.386719 107.554688 275.941406 106.914062 Z M 95.878906 107.503906 C 94.84375 106.792969 94.574219 105.375 95.289062 104.34375 C 95.988281 103.308594 97.40625 103.039062 98.425781 103.75 C 99.472656 104.453125 99.730469 105.867188 99.03125 106.902344 C 98.585938 107.542969 97.882812 107.886719 97.160156 107.886719 C 96.714844 107.886719 96.273438 107.765625 95.878906 107.503906 Z M 270.980469 100.21875 C 270.207031 99.234375 270.367188 97.808594 271.339844 97.019531 C 272.324219 96.242188 273.738281 96.390625 274.527344 97.375 C 275.3125 98.359375 275.15625 99.789062 274.167969 100.5625 C 273.761719 100.910156 273.257812 101.070312 272.765625 101.070312 C 272.089844 101.070312 271.4375 100.773438 270.980469 100.21875 Z M 100.800781 100.550781 C 99.816406 99.765625 99.65625 98.347656 100.445312 97.363281 C 101.234375 96.390625 102.660156 96.230469 103.632812 97.007812 C 104.617188 97.792969 104.777344 99.222656 103.988281 100.207031 C 103.535156 100.761719 102.882812 101.054688 102.21875 101.054688 C 101.710938 101.054688 101.21875 100.894531 100.800781 100.550781 Z M 265.53125 93.917969 C 264.667969 93.007812 264.71875 91.566406 265.640625 90.71875 C 266.550781 89.855469 267.980469 89.90625 268.839844 90.816406 C 269.703125 91.726562 269.652344 93.167969 268.742188 94.027344 C 268.300781 94.433594 267.746094 94.644531 267.179688 94.644531 C 266.589844 94.644531 265.972656 94.398438 265.53125 93.917969 Z M 106.242188 94.003906 C 105.332031 93.15625 105.28125 91.714844 106.132812 90.804688 C 106.992188 89.894531 108.433594 89.84375 109.34375 90.707031 C 110.265625 91.554688 110.304688 92.996094 109.453125 93.90625 C 109 94.386719 108.394531 94.632812 107.792969 94.632812 C 107.238281 94.632812 106.671875 94.421875 106.242188 94.003906 Z M 259.597656 88.070312 C 258.675781 87.222656 258.613281 85.78125 259.460938 84.859375 C 260.296875 83.9375 261.738281 83.875 262.660156 84.710938 C 263.585938 85.5625 263.660156 87 262.808594 87.921875 C 262.367188 88.414062 261.75 88.664062 261.136719 88.664062 C 260.582031 88.664062 260.039062 88.464844 259.597656 88.070312 Z M 112.175781 87.910156 C 111.324219 86.988281 111.386719 85.546875 112.320312 84.699219 C 113.246094 83.863281 114.671875 83.921875 115.523438 84.847656 C 116.371094 85.769531 116.308594 87.210938 115.375 88.058594 C 114.945312 88.453125 114.390625 88.648438 113.847656 88.648438 C 113.234375 88.648438 112.617188 88.402344 112.175781 87.910156 Z M 253.234375 82.691406 C 252.25 81.917969 252.066406 80.488281 252.839844 79.503906 C 253.617188 78.507812 255.042969 78.335938 256.027344 79.109375 C 257.011719 79.875 257.195312 81.3125 256.421875 82.300781 C 255.964844 82.863281 255.300781 83.171875 254.625 83.171875 C 254.144531 83.171875 253.652344 83.011719 253.234375 82.691406 Z M 118.5625 82.285156 C 117.785156 81.300781 117.957031 79.875 118.945312 79.097656 C 119.941406 78.335938 121.367188 78.507812 122.132812 79.492188 C 122.90625 80.476562 122.722656 81.917969 121.738281 82.679688 C 121.332031 83 120.839844 83.160156 120.347656 83.160156 C 119.667969 83.160156 119.003906 82.863281 118.5625 82.285156 Z M 246.476562 77.820312 C 245.417969 77.128906 245.136719 75.726562 245.835938 74.679688 C 246.527344 73.632812 247.929688 73.339844 248.988281 74.039062 C 250.023438 74.730469 250.304688 76.132812 249.617188 77.179688 C 249.183594 77.84375 248.457031 78.199219 247.71875 78.199219 C 247.289062 78.199219 246.859375 78.078125 246.476562 77.820312 Z M 125.355469 77.179688 C 124.667969 76.132812 124.949219 74.71875 125.996094 74.027344 C 127.042969 73.339844 128.445312 73.621094 129.132812 74.667969 C 129.835938 75.714844 129.554688 77.117188 128.507812 77.820312 C 128.113281 78.066406 127.683594 78.199219 127.25 78.199219 C 126.511719 78.199219 125.785156 77.84375 125.355469 77.179688 Z M 239.351562 73.488281 C 238.253906 72.882812 237.863281 71.503906 238.464844 70.410156 C 239.082031 69.3125 240.457031 68.90625 241.554688 69.523438 C 242.648438 70.140625 243.042969 71.515625 242.441406 72.613281 C 242.023438 73.351562 241.246094 73.769531 240.445312 73.769531 C 240.078125 73.769531 239.695312 73.683594 239.351562 73.488281 Z M 132.53125 72.613281 C 131.914062 71.515625 132.320312 70.140625 133.40625 69.523438 C 134.5 68.90625 135.890625 69.3125 136.496094 70.410156 C 137.109375 71.503906 136.714844 72.882812 135.621094 73.488281 C 135.261719 73.683594 134.882812 73.769531 134.511719 73.769531 C 133.710938 73.769531 132.949219 73.351562 132.53125 72.613281 Z M 140.039062 68.613281 C 139.523438 67.480469 140.015625 66.125 141.160156 65.609375 C 142.292969 65.09375 143.644531 65.585938 144.164062 66.730469 C 144.679688 67.875 144.1875 69.214844 143.042969 69.734375 C 142.734375 69.878906 142.414062 69.941406 142.105469 69.941406 C 141.246094 69.941406 140.421875 69.449219 140.039062 68.613281 Z M 231.917969 69.734375 C 230.773438 69.203125 230.269531 67.863281 230.796875 66.71875 C 231.3125 65.585938 232.667969 65.082031 233.800781 65.609375 C 234.945312 66.125 235.449219 67.46875 234.921875 68.613281 C 234.539062 69.449219 233.714844 69.941406 232.851562 69.941406 C 232.542969 69.941406 232.226562 69.867188 231.917969 69.734375 Z M 147.828125 65.214844 C 147.398438 64.046875 148.003906 62.742188 149.183594 62.3125 C 150.351562 61.878906 151.667969 62.484375 152.101562 63.664062 C 152.53125 64.835938 151.917969 66.140625 150.734375 66.570312 C 150.488281 66.667969 150.21875 66.71875 149.960938 66.71875 C 149.035156 66.71875 148.175781 66.140625 147.828125 65.214844 Z M 224.199219 66.570312 C 223.019531 66.140625 222.414062 64.835938 222.847656 63.652344 C 223.277344 62.484375 224.582031 61.867188 225.761719 62.296875 C 226.945312 62.730469 227.546875 64.035156 227.117188 65.214844 C 226.773438 66.140625 225.910156 66.703125 224.988281 66.703125 C 224.71875 66.703125 224.457031 66.65625 224.199219 66.570312 Z M 155.878906 62.445312 C 155.535156 61.242188 156.25 59.984375 157.441406 59.652344 C 158.648438 59.308594 159.902344 60.023438 160.25 61.226562 C 160.582031 62.433594 159.878906 63.675781 158.671875 64.023438 C 158.464844 64.082031 158.253906 64.109375 158.058594 64.109375 C 157.0625 64.109375 156.148438 63.445312 155.878906 62.445312 Z M 216.273438 64.023438 C 215.066406 63.675781 214.367188 62.421875 214.699219 61.214844 C 215.03125 60.007812 216.285156 59.308594 217.492188 59.640625 C 218.699219 59.984375 219.414062 61.226562 219.066406 62.433594 C 218.796875 63.445312 217.875 64.097656 216.890625 64.097656 C 216.691406 64.097656 216.46875 64.070312 216.273438 64.023438 Z M 164.101562 60.316406 C 163.867188 59.085938 164.667969 57.890625 165.898438 57.644531 C 167.128906 57.398438 168.324219 58.210938 168.554688 59.441406 C 168.800781 60.660156 168.003906 61.855469 166.773438 62.101562 C 166.625 62.125 166.476562 62.140625 166.328125 62.140625 C 165.269531 62.140625 164.324219 61.386719 164.101562 60.316406 Z M 208.175781 62.089844 C 206.945312 61.855469 206.144531 60.660156 206.378906 59.429688 C 206.625 58.199219 207.816406 57.398438 209.050781 57.632812 C 210.28125 57.878906 211.078125 59.074219 210.832031 60.304688 C 210.625 61.386719 209.675781 62.140625 208.617188 62.140625 C 208.46875 62.140625 208.324219 62.125 208.175781 62.089844 Z M 172.484375 58.828125 C 172.335938 57.574219 173.234375 56.453125 174.476562 56.304688 C 175.71875 56.167969 176.839844 57.054688 176.988281 58.296875 C 177.136719 59.542969 176.25 60.675781 175.003906 60.820312 C 174.90625 60.820312 174.820312 60.835938 174.734375 60.835938 C 173.601562 60.835938 172.617188 59.972656 172.484375 58.828125 Z M 199.941406 60.808594 L 199.941406 60.820312 C 198.699219 60.675781 197.800781 59.542969 197.949219 58.296875 C 198.09375 57.054688 199.226562 56.15625 200.46875 56.304688 C 201.714844 56.453125 202.601562 57.574219 202.453125 58.816406 C 202.328125 59.972656 201.34375 60.820312 200.210938 60.820312 C 200.113281 60.820312 200.039062 60.820312 199.941406 60.808594 Z M 180.949219 57.992188 C 180.902344 56.746094 181.875 55.691406 183.128906 55.640625 C 184.382812 55.589844 185.429688 56.5625 185.492188 57.820312 C 185.527344 59.074219 184.554688 60.132812 183.300781 60.167969 C 183.277344 60.167969 183.238281 60.167969 183.214844 60.167969 C 181.996094 60.167969 181 59.222656 180.949219 57.992188 Z M 191.632812 60.167969 C 190.390625 60.121094 189.40625 59.074219 189.453125 57.820312 C 189.503906 56.5625 190.5625 55.589844 191.816406 55.640625 C 193.0625 55.691406 194.046875 56.746094 193.996094 57.992188 C 193.949219 59.222656 192.9375 60.167969 191.730469 60.167969 C 191.695312 60.167969 191.671875 60.167969 191.632812 60.167969 Z M 191.632812 60.167969 " fill-opacity="1" fill-rule="nonzero"/><g clip-path="url(#78bd732721)"><path fill="#a2906e" d="M 170.109375 157.503906 C 170.402344 154.71875 172.464844 153.308594 173.699219 152.140625 C 174.9375 150.972656 173.0625 148.515625 173.0625 148.515625 C 173.0625 148.515625 171.878906 149.066406 168.976562 148.601562 C 166.070312 148.140625 165.125 146.453125 163.582031 145.0625 C 162.015625 143.671875 159.613281 144.480469 157.929688 148.859375 C 156.246094 153.242188 161.8125 159.546875 163.203125 161.316406 C 164.59375 163.085938 167.34375 167.777344 168.355469 166.933594 C 169.351562 166.058594 169.816406 160.285156 170.109375 157.503906 M 183.578125 94.550781 C 187.445312 101.371094 187.496094 112.386719 187.496094 112.730469 C 187.496094 112.386719 187.546875 101.355469 191.414062 94.550781 C 195.332031 87.628906 198.421875 87.457031 198.421875 87.457031 C 198.421875 87.457031 194.96875 85.101562 191.929688 85.222656 C 188.886719 85.34375 187.496094 86.203125 187.496094 86.203125 C 187.496094 86.203125 186.105469 85.359375 183.0625 85.222656 C 180.023438 85.101562 176.570312 87.457031 176.570312 87.457031 C 176.570312 87.457031 179.644531 87.628906 183.578125 94.550781 Z M 185.109375 113.777344 C 185.109375 113.777344 183.425781 103.054688 179.867188 97.316406 C 176.328125 91.578125 170.074219 89.292969 170.074219 89.292969 C 170.074219 89.292969 172.394531 91.425781 172.960938 92.816406 C 173.527344 94.207031 173.597656 94.671875 173.597656 94.671875 C 173.597656 94.671875 166.296875 90.960938 161.742188 90.667969 C 157.1875 90.375 155.28125 91.097656 153.132812 90.703125 C 150.988281 90.324219 149.972656 89.484375 149.972656 89.484375 C 149.972656 89.484375 150.816406 90.753906 152.171875 91.71875 C 153.53125 92.695312 156.3125 93.367188 159.527344 93.453125 C 162.738281 93.539062 171.140625 94.722656 175.777344 101.046875 C 180.417969 107.367188 182.652344 118.3125 182.652344 118.3125 C 182.652344 118.3125 183.285156 114.085938 183.113281 112.316406 C 182.945312 110.546875 182.738281 109.738281 182.738281 109.738281 Z M 176.691406 113.914062 C 176.691406 113.914062 174.835938 100.410156 167.066406 97.714844 C 159.300781 95.015625 150.867188 97.457031 145.625 96.527344 C 140.386719 95.601562 138.03125 93.832031 138.03125 93.832031 C 138.03125 93.832031 140.902344 99.570312 146.726562 99.742188 C 152.550781 99.910156 158.546875 97.882812 165.296875 101.183594 C 172.050781 104.464844 176.691406 113.914062 176.691406 113.914062 Z M 170.695312 113.914062 C 170.695312 113.914062 166.980469 105.480469 157.359375 103.863281 C 147.738281 102.265625 141.160156 105.890625 135.078125 103.367188 C 128.996094 100.839844 128.582031 98.382812 128.582031 98.382812 C 128.582031 98.382812 129.941406 108.761719 137.363281 109.535156 C 144.785156 110.289062 151.382812 106.0625 158.375 107.765625 C 165.382812 109.449219 170.695312 113.914062 170.695312 113.914062 Z M 125.835938 127.796875 C 129.046875 126.988281 130.265625 125.097656 132.550781 121.59375 C 134.835938 118.089844 138.375 114.085938 138.375 114.085938 C 138.375 114.085938 137.792969 113.878906 135.679688 114.636719 C 133.566406 115.390625 130.4375 117.933594 128.121094 121.730469 C 125.800781 125.527344 119.839844 128.019531 119.839844 128.019531 C 119.839844 128.019531 122.621094 128.605469 125.835938 127.796875 Z M 133.890625 126.921875 C 128.238281 132.746094 125.867188 134.273438 122.585938 135.957031 C 119.289062 137.640625 115.835938 136.972656 115.835938 136.972656 C 115.835938 136.972656 122.84375 141.953125 128.839844 139.171875 C 134.835938 136.386719 138.546875 129.636719 141.933594 124.566406 C 145.316406 119.5 152.480469 116.214844 156.363281 115.359375 C 160.246094 114.515625 163.871094 114.601562 163.871094 114.601562 C 163.871094 114.601562 156.777344 110.460938 147.910156 112.574219 C 139.046875 114.671875 139.542969 121.097656 133.890625 126.921875 Z M 144.734375 127.488281 C 138.824219 136.265625 134.269531 143.449219 125.578125 145.5625 C 116.882812 147.65625 108.945312 144.875 108.945312 144.875 C 108.945312 144.875 117.382812 150.441406 126.007812 150.269531 C 134.613281 150.097656 139.769531 145.285156 142.722656 140.992188 C 145.679688 136.679688 148.71875 130.355469 152.6875 125.957031 C 156.65625 121.558594 160.953125 119.464844 160.953125 119.464844 C 160.953125 119.464844 150.644531 118.707031 144.734375 127.488281 Z M 126.796875 154.082031 L 123.085938 154.015625 C 123.085938 154.015625 120.800781 155.785156 118.773438 161.195312 C 116.746094 166.609375 117.003906 171.746094 116.832031 175.800781 C 116.660156 179.855469 113.617188 183.308594 113.617188 183.308594 C 113.617188 183.308594 116.144531 182.636719 118.085938 179.683594 C 120.027344 176.726562 119.011719 169.546875 121.296875 164.324219 C 123.582031 159.082031 128.804688 153.945312 128.804688 153.945312 C 128.804688 153.945312 127.808594 154.101562 126.796875 154.082031 Z M 143.597656 151.058594 C 139.542969 152.417969 127.3125 156.128906 123.429688 169.460938 C 119.546875 182.808594 125.609375 194.957031 127.636719 200.367188 C 129.664062 205.761719 128.910156 212.445312 128.910156 212.445312 C 128.910156 212.445312 129.835938 211.347656 130.421875 205.609375 C 131.003906 199.871094 128.480469 192.601562 127.636719 184.253906 C 126.796875 175.902344 130.851562 162.726562 139.457031 157.160156 C 148.066406 151.59375 149.59375 146.179688 149.59375 146.179688 C 149.59375 146.179688 147.652344 149.703125 143.597656 151.058594 Z M 141.484375 161.558594 C 135.660156 166.367188 131.863281 176.589844 131.863281 183.667969 C 131.863281 190.765625 133.71875 195.402344 133.976562 198.789062 C 134.234375 202.171875 133.308594 204.785156 133.308594 204.785156 C 133.308594 204.785156 135.746094 201.65625 136.175781 196.089844 C 136.605469 190.523438 136.433594 185.953125 141.246094 180.300781 C 146.054688 174.648438 149.183594 168.308594 149.9375 163.84375 C 150.695312 159.375 150.28125 153.878906 150.28125 153.878906 C 150.28125 153.878906 147.308594 156.746094 141.484375 161.558594 Z M 154.75 181.554688 C 150.695312 186.109375 142.171875 190.335938 140.058594 197 C 137.945312 203.667969 140.730469 210.589844 140.058594 216.328125 C 139.390625 222.066406 135.507812 225.28125 135.507812 225.28125 C 135.507812 225.28125 142.6875 220.726562 144.199219 213.976562 C 145.710938 207.222656 144.871094 200.96875 149.59375 196.246094 C 154.320312 191.519531 158.632812 187.429688 159.644531 181.933594 C 160.660156 176.453125 158.71875 171.503906 158.71875 171.503906 C 158.71875 171.503906 158.789062 177.003906 154.75 181.554688 Z M 156.984375 196.589844 C 151.332031 203.425781 148.875 207.566406 148.460938 214.40625 C 148.03125 221.242188 151.417969 231.035156 156.65625 235.261719 C 161.898438 239.488281 169.578125 251.308594 169.578125 251.308594 C 169.578125 251.308594 167.378906 242.53125 164.765625 237.203125 C 162.15625 231.878906 155.230469 221.585938 158.769531 209.335938 C 162.308594 197.105469 164.164062 194.21875 163.667969 189.492188 L 163.167969 184.769531 C 163.152344 184.769531 162.636719 189.75 156.984375 196.589844 Z M 165.160156 203.082031 C 163.390625 208.648438 161.949219 219.128906 165.589844 227.910156 C 169.214844 236.6875 176.828125 245.640625 178.769531 249.78125 C 180.710938 253.921875 180.125 257.046875 180.125 257.046875 C 180.125 257.046875 182.738281 250.382812 178.941406 243.886719 C 175.144531 237.394531 171.347656 228.097656 171.347656 219.0625 C 171.347656 210.023438 171.003906 205.644531 170.074219 201.675781 C 169.148438 197.707031 166.949219 196.28125 166.949219 196.28125 C 166.949219 196.28125 166.949219 197.515625 165.160156 203.082031 Z M 175.210938 206.125 C 175.210938 206.125 174.628906 220.726562 176.570312 226.054688 C 178.511719 231.378906 182.910156 239.144531 183.40625 242.769531 C 183.90625 246.394531 183.835938 248.011719 183.835938 248.011719 C 183.835938 248.011719 186.792969 239.144531 185.433594 230.863281 C 184.078125 222.582031 179.472656 219.042969 178.425781 214.441406 C 177.375 209.835938 175.210938 206.125 175.210938 206.125 Z M 180.832031 209.285156 C 181.722656 212.738281 182.601562 216.554688 183.785156 218.324219 C 184.972656 220.09375 186.070312 223.011719 186.070312 223.011719 C 186.070312 223.011719 186.121094 216.003906 184.558594 211.3125 C 182.996094 206.621094 177.632812 201.605469 177.632812 201.605469 C 177.632812 201.605469 179.953125 205.832031 180.832031 209.285156 Z M 181.277344 197.945312 C 184.316406 198.617188 185.589844 199.628906 186.429688 200.730469 C 187.273438 201.828125 187.511719 202.464844 187.511719 202.464844 C 187.511719 202.464844 187.753906 201.828125 188.597656 200.730469 C 189.4375 199.628906 190.710938 198.617188 193.75 197.945312 C 196.792969 197.277344 197.71875 195.335938 197.71875 195.335938 C 197.71875 195.335938 197.839844 196.003906 197.425781 196.8125 C 197.015625 197.621094 196.84375 197.824219 196.84375 197.824219 C 196.84375 197.824219 199.160156 197.328125 200.933594 195.335938 C 202.703125 193.359375 202.90625 189.886719 201.738281 188.460938 C 200.554688 187.035156 193.765625 188.03125 191.277344 187.414062 C 188.785156 186.777344 187.546875 185.265625 187.546875 185.265625 C 187.546875 185.265625 186.292969 186.777344 183.820312 187.414062 C 181.328125 188.050781 174.523438 187.035156 173.355469 188.460938 C 172.171875 189.90625 172.378906 193.359375 174.164062 195.335938 C 175.933594 197.308594 178.253906 197.824219 178.253906 197.824219 C 178.253906 197.824219 178.082031 197.621094 177.667969 196.8125 C 177.257812 196.003906 177.375 195.335938 177.375 195.335938 C 177.375 195.335938 178.234375 197.257812 181.277344 197.945312 Z M 197.375 201.605469 C 197.375 201.605469 192.015625 206.621094 190.453125 211.3125 C 188.886719 216.003906 188.941406 223.011719 188.941406 223.011719 C 188.941406 223.011719 190.039062 220.09375 191.222656 218.324219 C 192.410156 216.554688 193.285156 212.753906 194.179688 209.285156 C 195.074219 205.816406 197.375 201.605469 197.375 201.605469 Z M 196.566406 214.441406 C 195.519531 219.042969 190.914062 222.582031 189.558594 230.863281 C 188.199219 239.144531 191.15625 248.011719 191.15625 248.011719 C 191.15625 248.011719 191.070312 246.414062 191.585938 242.769531 C 192.082031 239.144531 196.480469 231.378906 198.421875 226.054688 C 200.363281 220.726562 199.78125 206.125 199.78125 206.125 C 199.78125 206.125 197.617188 209.835938 196.566406 214.441406 Z M 204.917969 201.65625 C 203.988281 205.625 203.644531 210.023438 203.644531 219.042969 C 203.644531 228.082031 199.847656 237.359375 196.050781 243.871094 C 192.253906 250.363281 194.867188 257.03125 194.867188 257.03125 C 194.867188 257.03125 194.28125 253.902344 196.222656 249.761719 C 198.164062 245.621094 205.757812 236.671875 209.402344 227.890625 C 213.027344 219.113281 211.601562 208.648438 209.832031 203.066406 C 208.0625 197.5 208.0625 196.226562 208.0625 196.226562 C 208.0625 196.226562 205.863281 197.6875 204.917969 201.65625 Z M 211.34375 189.492188 C 210.84375 194.21875 212.699219 197.085938 216.238281 209.335938 C 219.777344 221.585938 212.855469 231.878906 210.242188 237.203125 C 207.632812 242.53125 205.433594 251.308594 205.433594 251.308594 C 205.433594 251.308594 213.113281 239.488281 218.351562 235.261719 C 223.59375 231.035156 226.960938 221.242188 226.546875 214.40625 C 226.117188 207.566406 223.679688 203.425781 218.027344 196.589844 C 212.375 189.75 211.859375 184.769531 211.859375 184.769531 Z M 215.363281 181.933594 C 216.378906 187.414062 220.691406 191.519531 225.414062 196.246094 C 230.140625 200.96875 229.296875 207.222656 230.808594 213.976562 C 232.339844 220.726562 239.503906 225.28125 239.503906 225.28125 C 239.503906 225.28125 235.621094 222.066406 234.949219 216.328125 C 234.28125 210.589844 237.0625 203.667969 234.949219 197 C 232.835938 190.335938 224.316406 186.109375 220.261719 181.554688 C 216.207031 177.003906 216.292969 171.503906 216.292969 171.503906 C 216.292969 171.503906 214.351562 176.453125 215.363281 181.933594 Z M 225.070312 163.824219 C 225.828125 168.292969 228.953125 174.632812 233.765625 180.285156 C 238.574219 185.9375 238.402344 190.507812 238.832031 196.074219 C 239.261719 201.640625 241.703125 204.765625 241.703125 204.765625 C 241.703125 204.765625 240.773438 202.15625 241.03125 198.769531 C 241.289062 195.386719 243.144531 190.746094 243.144531 183.652344 C 243.144531 176.554688 239.347656 166.351562 233.523438 161.539062 C 227.699219 156.730469 224.746094 153.859375 224.746094 153.859375 C 224.746094 153.859375 224.296875 159.359375 225.070312 163.824219 Z M 211.808594 161.300781 C 213.199219 159.53125 218.765625 153.242188 217.082031 148.84375 C 215.398438 144.445312 212.992188 143.65625 211.429688 145.046875 C 209.867188 146.4375 208.9375 148.121094 206.035156 148.585938 C 203.113281 149.050781 201.945312 148.5 201.945312 148.5 C 201.945312 148.5 200.089844 150.957031 201.308594 152.125 C 202.546875 153.292969 204.609375 154.703125 204.902344 157.484375 C 205.191406 160.269531 205.65625 166.058594 206.671875 166.898438 C 207.667969 167.757812 210.414062 163.070312 211.808594 161.300781 Z M 235.535156 157.140625 C 244.140625 162.707031 248.195312 175.886719 247.355469 184.234375 C 246.511719 192.585938 243.96875 199.851562 244.570312 205.589844 C 245.15625 211.328125 246.082031 212.429688 246.082031 212.429688 C 246.082031 212.429688 245.328125 205.761719 247.355469 200.351562 C 249.382812 194.957031 255.464844 182.792969 251.582031 169.460938 C 247.699219 156.128906 235.464844 152.417969 231.410156 151.058594 C 227.355469 149.703125 225.414062 146.164062 225.414062 146.164062 C 225.414062 146.164062 226.925781 151.574219 235.535156 157.140625 Z M 246.167969 153.929688 C 246.167969 153.929688 251.410156 159.082031 253.675781 164.304688 C 255.960938 169.546875 254.949219 176.710938 256.890625 179.664062 C 258.832031 182.621094 261.355469 183.289062 261.355469 183.289062 C 261.355469 183.289062 258.316406 179.835938 258.144531 175.78125 C 257.972656 171.726562 258.230469 166.574219 256.203125 161.179688 C 254.175781 155.765625 251.890625 153.996094 251.890625 153.996094 L 248.179688 154.066406 C 247.183594 154.101562 246.167969 153.929688 246.167969 153.929688 Z M 232.269531 140.992188 C 235.226562 145.304688 240.378906 150.113281 248.988281 150.269531 C 257.59375 150.441406 266.046875 144.875 266.046875 144.875 C 266.046875 144.875 258.109375 147.65625 249.417969 145.542969 C 240.722656 143.429688 236.167969 136.265625 230.257812 127.488281 C 224.347656 118.707031 214.058594 119.464844 214.058594 119.464844 C 214.058594 119.464844 218.371094 121.578125 222.339844 125.957031 C 226.308594 130.339844 229.332031 136.679688 232.269531 140.992188 Z M 233.078125 124.550781 C 236.460938 129.617188 240.171875 136.371094 246.167969 139.152344 C 252.164062 141.9375 259.175781 136.953125 259.175781 136.953125 C 259.175781 136.953125 255.722656 137.625 252.421875 135.941406 C 249.125 134.257812 246.769531 132.726562 241.117188 126.902344 C 235.464844 121.078125 235.964844 114.671875 227.097656 112.558594 C 218.234375 110.445312 211.136719 114.585938 211.136719 114.585938 C 211.136719 114.585938 214.761719 114.5 218.644531 115.339844 C 222.527344 116.199219 229.710938 119.480469 233.078125 124.550781 Z M 242.457031 121.59375 C 244.742188 125.097656 245.960938 126.988281 249.175781 127.796875 C 252.386719 128.605469 255.171875 128.003906 255.171875 128.003906 C 255.171875 128.003906 249.210938 125.511719 246.890625 121.714844 C 244.570312 117.917969 241.445312 115.390625 239.332031 114.617188 C 237.21875 113.863281 236.632812 114.070312 236.632812 114.070312 C 236.632812 114.070312 240.171875 118.089844 242.457031 121.59375 Z M 237.648438 109.535156 C 245.070312 108.777344 246.425781 98.382812 246.425781 98.382812 C 246.425781 98.382812 245.996094 100.824219 239.933594 103.367188 C 233.851562 105.890625 227.269531 102.265625 217.648438 103.863281 C 208.027344 105.460938 204.316406 113.914062 204.316406 113.914062 C 204.316406 113.914062 209.640625 109.449219 216.636719 107.746094 C 223.628906 106.0625 230.207031 110.289062 237.648438 109.535156 Z M 198.304688 113.914062 C 198.304688 113.914062 202.941406 104.464844 209.695312 101.167969 C 216.445312 97.867188 222.441406 99.894531 228.265625 99.722656 C 234.089844 99.550781 236.960938 93.8125 236.960938 93.8125 C 236.960938 93.8125 234.589844 95.582031 229.367188 96.511719 C 224.125 97.4375 215.691406 95 207.925781 97.695312 C 200.160156 100.410156 198.304688 113.914062 198.304688 113.914062 Z M 199.230469 101.046875 C 203.871094 94.707031 212.269531 93.539062 215.484375 93.453125 C 218.695312 93.367188 221.480469 92.695312 222.835938 91.71875 C 224.195312 90.753906 225.035156 89.484375 225.035156 89.484375 C 225.035156 89.484375 224.023438 90.324219 221.875 90.703125 C 219.726562 91.082031 217.820312 90.359375 213.265625 90.667969 C 208.679688 90.960938 201.378906 94.671875 201.378906 94.671875 C 201.378906 94.671875 201.445312 94.207031 202.015625 92.816406 C 202.582031 91.425781 204.902344 89.292969 204.902344 89.292969 C 204.902344 89.292969 198.648438 91.578125 195.109375 97.316406 C 191.566406 103.054688 189.867188 113.777344 189.867188 113.777344 L 192.253906 109.738281 C 192.253906 109.738281 192.050781 110.546875 191.878906 112.316406 C 191.707031 114.085938 192.339844 118.3125 192.339844 118.3125 C 192.339844 118.3125 194.59375 107.367188 199.230469 101.046875 Z M 217.546875 142.347656 C 217.546875 142.347656 217.71875 140.148438 215.949219 134.410156 C 214.179688 128.671875 206.652344 121.664062 199.144531 121.320312 C 191.636719 120.976562 187.496094 133.894531 187.496094 133.894531 C 187.496094 133.894531 183.355469 120.976562 175.847656 121.320312 C 168.339844 121.664062 160.816406 128.65625 159.042969 134.410156 C 157.273438 140.148438 157.445312 142.347656 157.445312 142.347656 C 157.445312 142.347656 159.886719 141.421875 163.941406 141.421875 C 167.996094 141.421875 171.277344 142.691406 171.277344 142.691406 C 171.277344 142.691406 171.378906 141.421875 171.070312 140.800781 C 170.761719 140.167969 169.988281 139.6875 169.988281 139.6875 C 169.988281 139.6875 173.957031 140.597656 175.007812 142.710938 C 176.054688 144.824219 176.949219 150.5625 177.203125 151.917969 C 177.460938 153.277344 174.542969 154.960938 173.148438 156.816406 C 171.757812 158.671875 171.414062 161.367188 171.5 165.011719 C 171.585938 168.636719 170.660156 169.5625 169.128906 172.863281 C 167.617188 176.160156 168.957031 183.582031 173.769531 184.855469 C 178.578125 186.125 186.34375 184.855469 186.515625 181.8125 C 186.6875 178.773438 186.257812 176.246094 184.230469 175.0625 C 182.203125 173.875 178.699219 172.363281 177.222656 170.042969 C 175.746094 167.726562 176.929688 164.976562 176.929688 164.976562 C 176.929688 164.976562 177.1875 167.296875 178.03125 167.964844 C 178.871094 168.636719 179.59375 168.808594 179.59375 168.808594 C 179.59375 168.808594 178.957031 167.414062 179.164062 167.125 C 179.371094 166.832031 181.6875 167.554688 182.960938 167.554688 C 184.230469 167.554688 186.070312 167.519531 186.757812 167.8125 L 187.445312 168.101562 L 188.148438 167.8125 C 188.855469 167.519531 190.675781 167.554688 191.945312 167.554688 C 193.21875 167.554688 195.535156 166.832031 195.742188 167.125 C 195.949219 167.414062 195.3125 168.808594 195.3125 168.808594 C 195.3125 168.808594 196.035156 168.636719 196.878906 167.964844 C 197.71875 167.296875 197.976562 164.976562 197.976562 164.976562 C 197.976562 164.976562 199.164062 167.726562 197.683594 170.042969 C 196.207031 172.363281 192.703125 173.894531 190.675781 175.0625 C 188.648438 176.246094 188.234375 178.773438 188.390625 181.8125 C 188.5625 184.855469 196.328125 186.125 201.136719 184.855469 C 205.949219 183.582031 207.304688 176.160156 205.777344 172.863281 C 204.246094 169.5625 203.320312 168.636719 203.40625 165.011719 C 203.492188 161.386719 203.148438 158.6875 201.757812 156.816406 C 200.363281 154.960938 197.445312 153.277344 197.703125 151.917969 C 197.960938 150.5625 198.835938 144.824219 199.902344 142.710938 C 200.949219 140.597656 204.917969 139.6875 204.917969 139.6875 C 204.917969 139.6875 204.160156 140.167969 203.835938 140.800781 C 203.527344 141.4375 203.628906 142.691406 203.628906 142.691406 C 203.628906 142.691406 206.929688 141.421875 210.964844 141.421875 C 215.105469 141.421875 217.546875 142.347656 217.546875 142.347656 Z M 217.546875 142.347656 " fill-opacity="1" fill-rule="evenodd"/></g><g fill="#a2906e" fill-opacity="1"><g transform="translate(137.304482, 314.916476)"><g><path d="M 5.792969 0.332031 C 11.199219 0.332031 12.246094 -3.144531 12.246094 -6.757812 L 12.246094 -14.894531 C 12.246094 -17.292969 12.824219 -18.230469 15.058594 -18.785156 L 15.058594 -19.472656 L 12.992188 -19.472656 C 11.722656 -19.472656 10.730469 -19.085938 10.261719 -18.398438 C 9.792969 -19.085938 8.882812 -19.472656 7.53125 -19.472656 L 5.269531 -19.472656 L 5.269531 -18.785156 C 7.695312 -18.175781 8.21875 -17.238281 8.21875 -14.894531 L 8.21875 -4.578125 C 8.21875 -3.199219 8.21875 -1.132812 6.207031 -1.132812 C 4.578125 -1.132812 4.027344 -2.371094 4.027344 -3.890625 C 4.027344 -5.488281 4.523438 -6.621094 5.351562 -7.722656 L 4.605469 -8.328125 C 2.894531 -6.621094 0.578125 -5.515625 0.578125 -3.144531 C 0.578125 -1.214844 1.765625 0.332031 5.792969 0.332031 Z M 5.792969 0.332031 "/></g></g></g><g fill="#a2906e" fill-opacity="1"><g transform="translate(154.539543, 314.916476)"><g><path d="M 22.011719 -19.472656 C 20.769531 -19.472656 19.75 -19.085938 19.28125 -18.398438 C 18.8125 -19.085938 17.929688 -19.472656 16.550781 -19.472656 L 15.335938 -19.472656 L 15.335938 -18.839844 C 18.066406 -18.285156 18.5625 -17.046875 18.5625 -14.894531 L 18.5625 -7.089844 C 18.5625 -3.613281 16.4375 -1.683594 12.632812 -1.683594 C 9.046875 -1.683594 7.253906 -3.640625 7.253906 -7.445312 L 7.253906 -14.894531 C 7.253906 -16.660156 7.695312 -18.230469 10.148438 -18.839844 L 10.148438 -19.472656 L 8.054688 -19.472656 C 6.757812 -19.472656 5.765625 -19.085938 5.324219 -18.398438 C 4.828125 -19.085938 3.945312 -19.472656 2.59375 -19.472656 L 0.386719 -19.472656 L 0.386719 -18.839844 C 2.59375 -18.285156 3.28125 -16.933594 3.28125 -14.894531 L 3.28125 -6.425781 C 3.28125 -2.425781 5.820312 0.332031 11.695312 0.332031 C 17.019531 0.332031 19.96875 -2.125 19.96875 -6.507812 L 19.96875 -15.085938 C 19.96875 -17.128906 20.660156 -18.285156 22.949219 -18.839844 L 22.949219 -19.472656 Z M 22.011719 -19.472656 "/></g></g></g><g fill="#a2906e" fill-opacity="1"><g transform="translate(179.605852, 314.916476)"><g><path d="M 17.542969 -5.984375 L 16.851562 -5.984375 C 16.054688 -2.839844 14.011719 -1.242188 11.226562 -1.242188 C 8.300781 -1.214844 7.476562 -2.371094 7.476562 -4.910156 L 7.476562 -15.722656 C 7.476562 -17.292969 8.027344 -18.175781 10.398438 -18.785156 L 10.398438 -19.472656 L 8.246094 -19.472656 C 6.976562 -19.472656 5.984375 -19.085938 5.515625 -18.398438 C 5.046875 -19.085938 4.136719 -19.472656 2.785156 -19.472656 L 0.605469 -19.472656 L 0.605469 -18.785156 C 3.007812 -18.175781 3.476562 -17.238281 3.476562 -15.722656 L 3.476562 -4.304688 C 3.476562 -2.34375 3.035156 -1.296875 0.605469 -0.691406 L 0.605469 0 L 2.785156 0 C 4.136719 0 5.046875 -0.386719 5.515625 -1.074219 C 5.984375 -0.386719 6.976562 0 8.246094 0 L 15.199219 0 C 16.054688 0 16.605469 0 16.851562 0.578125 L 17.542969 0.578125 L 17.542969 0.0273438 C 17.542969 -1.019531 17.15625 -1.65625 16.464844 -1.765625 C 17.183594 -2.371094 17.542969 -3.117188 17.542969 -4.605469 Z M 17.542969 -5.984375 "/></g></g></g><g fill="#a2906e" fill-opacity="1"><g transform="translate(199.625963, 314.916476)"><g><path d="M 17.984375 0.578125 L 17.984375 0.0273438 C 17.984375 -0.992188 17.570312 -1.683594 16.90625 -1.765625 C 17.625 -2.371094 17.984375 -3.171875 17.984375 -4.605469 L 17.984375 -5.984375 L 17.292969 -5.984375 C 16.464844 -2.703125 14.289062 -1.242188 10.894531 -1.242188 C 7.75 -1.242188 7.476562 -2.566406 7.476562 -4.304688 L 7.476562 -9.597656 L 8.964844 -9.597656 C 11.585938 -9.597656 13.292969 -8.660156 13.515625 -6.8125 L 14.148438 -6.8125 L 14.148438 -7.445312 C 14.148438 -8.632812 13.761719 -9.707031 13.074219 -10.179688 C 13.761719 -10.648438 14.148438 -11.585938 14.148438 -12.910156 L 14.148438 -13.378906 L 13.488281 -13.378906 C 13.320312 -11.667969 11.417969 -10.839844 9.238281 -10.839844 L 7.476562 -10.839844 L 7.476562 -15.390625 C 7.476562 -17.183594 7.722656 -18.285156 10.675781 -18.285156 C 14.289062 -18.285156 16.464844 -16.796875 17.292969 -13.488281 L 17.984375 -13.488281 L 17.984375 -14.921875 C 17.984375 -16.300781 17.625 -17.101562 16.90625 -17.761719 C 17.625 -17.847656 17.984375 -18.507812 17.984375 -19.5 L 17.984375 -20.109375 L 17.292969 -20.109375 C 17.019531 -19.472656 16.523438 -19.472656 15.667969 -19.472656 L 10.066406 -19.472656 C 7.640625 -19.472656 6.371094 -19.140625 5.570312 -18.398438 C 5.101562 -19.085938 4.191406 -19.472656 2.839844 -19.472656 L 0.632812 -19.472656 L 0.632812 -18.785156 C 2.894531 -18.34375 3.476562 -17.265625 3.476562 -15.722656 L 3.476562 -3.75 C 3.476562 -2.234375 2.953125 -1.132812 0.660156 -0.691406 L 0.660156 0 L 2.839844 0 C 4.191406 0 5.101562 -0.386719 5.570312 -1.074219 C 6.425781 -0.386719 7.445312 0 10.066406 0 L 15.667969 0 C 16.523438 0 17.019531 0 17.292969 0.578125 Z M 17.984375 0.578125 "/></g></g></g><g fill="#a2906e" fill-opacity="1"><g transform="translate(220.831791, 314.916476)"><g><path d="M 2.097656 0.578125 C 2.398438 -0.0820312 2.703125 -0.191406 3.503906 -0.109375 C 4.46875 0 6.011719 0.386719 7.832031 0.386719 C 13.378906 0.386719 15.390625 -2.566406 15.390625 -5.214844 C 15.390625 -6.8125 14.671875 -8.164062 13.238281 -9.433594 C 11.28125 -11.199219 8 -12.605469 6.621094 -13.761719 C 5.875 -14.371094 5.324219 -15.171875 5.324219 -16.164062 C 5.324219 -17.40625 6.179688 -18.589844 8.054688 -18.589844 C 10.261719 -18.589844 12.769531 -16.992188 14.234375 -13.488281 L 14.921875 -13.488281 L 14.921875 -14.921875 C 14.921875 -15.996094 14.785156 -16.964844 13.847656 -17.761719 C 14.589844 -17.847656 14.921875 -18.535156 14.921875 -19.5 L 14.921875 -20.109375 L 14.234375 -20.109375 C 13.984375 -19.445312 13.652344 -19.308594 12.910156 -19.363281 C 12.027344 -19.445312 10.480469 -19.859375 8.605469 -19.859375 C 4.273438 -19.859375 1.65625 -17.789062 1.65625 -14.839844 C 1.65625 -13.542969 2.042969 -12.523438 3.53125 -11.171875 C 5.488281 -9.40625 8.660156 -8.027344 10.234375 -6.535156 C 11.117188 -5.710938 11.585938 -4.6875 11.585938 -3.53125 C 11.585938 -2.125 10.730469 -0.992188 8.828125 -0.992188 C 6.453125 -0.992188 4.273438 -2.480469 2.097656 -5.984375 L 1.40625 -5.984375 L 1.40625 -4.714844 C 1.40625 -3.199219 1.738281 -2.398438 2.480469 -1.765625 C 1.847656 -1.683594 1.40625 -1.101562 1.40625 0.0273438 L 1.40625 0.578125 Z M 2.097656 0.578125 "/></g></g></g><g fill="#a2906e" fill-opacity="1"><g transform="translate(143.47758, 333.491755)"><g><path d="M 3.921875 0.078125 C 3.253906 0.078125 2.613281 -0.0234375 2 -0.234375 C 1.394531 -0.453125 0.925781 -0.734375 0.59375 -1.078125 L 0.96875 -1.8125 C 1.289062 -1.488281 1.71875 -1.226562 2.25 -1.03125 C 2.789062 -0.832031 3.347656 -0.734375 3.921875 -0.734375 C 4.722656 -0.734375 5.320312 -0.878906 5.71875 -1.171875 C 6.113281 -1.460938 6.3125 -1.84375 6.3125 -2.3125 C 6.3125 -2.664062 6.203125 -2.945312 5.984375 -3.15625 C 5.773438 -3.375 5.507812 -3.539062 5.1875 -3.65625 C 4.875 -3.769531 4.4375 -3.894531 3.875 -4.03125 C 3.207031 -4.207031 2.671875 -4.375 2.265625 -4.53125 C 1.867188 -4.6875 1.523438 -4.925781 1.234375 -5.25 C 0.953125 -5.570312 0.8125 -6.007812 0.8125 -6.5625 C 0.8125 -7.007812 0.929688 -7.414062 1.171875 -7.78125 C 1.410156 -8.15625 1.773438 -8.453125 2.265625 -8.671875 C 2.765625 -8.898438 3.378906 -9.015625 4.109375 -9.015625 C 4.617188 -9.015625 5.117188 -8.941406 5.609375 -8.796875 C 6.097656 -8.660156 6.519531 -8.46875 6.875 -8.21875 L 6.5625 -7.46875 C 6.1875 -7.71875 5.785156 -7.898438 5.359375 -8.015625 C 4.929688 -8.140625 4.515625 -8.203125 4.109375 -8.203125 C 3.328125 -8.203125 2.738281 -8.050781 2.34375 -7.75 C 1.945312 -7.445312 1.75 -7.0625 1.75 -6.59375 C 1.75 -6.226562 1.859375 -5.9375 2.078125 -5.71875 C 2.296875 -5.507812 2.566406 -5.347656 2.890625 -5.234375 C 3.222656 -5.117188 3.664062 -4.988281 4.21875 -4.84375 C 4.875 -4.6875 5.398438 -4.53125 5.796875 -4.375 C 6.203125 -4.21875 6.546875 -3.976562 6.828125 -3.65625 C 7.109375 -3.332031 7.25 -2.898438 7.25 -2.359375 C 7.25 -1.910156 7.125 -1.5 6.875 -1.125 C 6.632812 -0.757812 6.265625 -0.46875 5.765625 -0.25 C 5.265625 -0.03125 4.648438 0.078125 3.921875 0.078125 Z M 3.921875 0.078125 "/></g></g></g><g fill="#a2906e" fill-opacity="1"><g transform="translate(153.522946, 333.491755)"><g><path d="M 1.453125 -8.9375 L 2.40625 -8.9375 L 2.40625 0 L 1.453125 0 Z M 1.453125 -8.9375 "/></g></g></g><g fill="#a2906e" fill-opacity="1"><g transform="translate(159.573879, 333.491755)"><g><path d="M 8.921875 -8.9375 L 8.921875 0 L 8.140625 0 L 2.40625 -7.25 L 2.40625 0 L 1.453125 0 L 1.453125 -8.9375 L 2.234375 -8.9375 L 7.984375 -1.6875 L 7.984375 -8.9375 Z M 8.921875 -8.9375 "/></g></g></g><g fill="#a2906e" fill-opacity="1"><g transform="translate(172.146075, 333.491755)"><g><path d="M 5.34375 0.078125 C 4.457031 0.078125 3.65625 -0.113281 2.9375 -0.5 C 2.226562 -0.894531 1.671875 -1.4375 1.265625 -2.125 C 0.859375 -2.820312 0.65625 -3.601562 0.65625 -4.46875 C 0.65625 -5.320312 0.859375 -6.097656 1.265625 -6.796875 C 1.671875 -7.492188 2.226562 -8.035156 2.9375 -8.421875 C 3.65625 -8.816406 4.457031 -9.015625 5.34375 -9.015625 C 6.007812 -9.015625 6.625 -8.898438 7.1875 -8.671875 C 7.75 -8.453125 8.222656 -8.128906 8.609375 -7.703125 L 8.015625 -7.109375 C 7.316406 -7.816406 6.4375 -8.171875 5.375 -8.171875 C 4.664062 -8.171875 4.019531 -8.007812 3.4375 -7.6875 C 2.863281 -7.363281 2.410156 -6.921875 2.078125 -6.359375 C 1.753906 -5.796875 1.59375 -5.164062 1.59375 -4.46875 C 1.59375 -3.769531 1.753906 -3.140625 2.078125 -2.578125 C 2.410156 -2.015625 2.863281 -1.570312 3.4375 -1.25 C 4.019531 -0.925781 4.664062 -0.765625 5.375 -0.765625 C 6.445312 -0.765625 7.328125 -1.125 8.015625 -1.84375 L 8.609375 -1.234375 C 8.222656 -0.804688 7.742188 -0.476562 7.171875 -0.25 C 6.609375 -0.03125 6 0.078125 5.34375 0.078125 Z M 5.34375 0.078125 "/></g></g></g><g fill="#a2906e" fill-opacity="1"><g transform="translate(183.518669, 333.491755)"><g><path d="M 7.78125 -0.8125 L 7.78125 0 L 1.453125 0 L 1.453125 -8.9375 L 7.578125 -8.9375 L 7.578125 -8.125 L 2.40625 -8.125 L 2.40625 -4.9375 L 7.015625 -4.9375 L 7.015625 -4.140625 L 2.40625 -4.140625 L 2.40625 -0.8125 Z M 7.78125 -0.8125 "/></g></g></g><g fill="#a2906e" fill-opacity="1"><g transform="translate(194.253175, 333.491755)"><g/></g></g><g fill="#a2906e" fill-opacity="1"><g transform="translate(199.793643, 333.491755)"><g><path d="M 3.140625 -8.9375 L 3.140625 0 L 2.21875 0 L 2.21875 -8.125 L 0.109375 -8.125 L 0.109375 -8.9375 Z M 3.140625 -8.9375 "/></g></g></g><g fill="#a2906e" fill-opacity="1"><g transform="translate(206.597527, 333.491755)"><g><path d="M 3.453125 -9.015625 C 4.628906 -9.015625 5.53125 -8.625 6.15625 -7.84375 C 6.789062 -7.0625 7.109375 -5.960938 7.109375 -4.546875 C 7.109375 -3.546875 6.9375 -2.703125 6.59375 -2.015625 C 6.257812 -1.328125 5.785156 -0.804688 5.171875 -0.453125 C 4.554688 -0.0976562 3.84375 0.078125 3.03125 0.078125 C 2.144531 0.078125 1.4375 -0.0820312 0.90625 -0.40625 L 1.28125 -1.15625 C 1.707031 -0.875 2.285156 -0.734375 3.015625 -0.734375 C 4.003906 -0.734375 4.773438 -1.046875 5.328125 -1.671875 C 5.890625 -2.296875 6.171875 -3.203125 6.171875 -4.390625 C 6.171875 -4.609375 6.160156 -4.851562 6.140625 -5.125 C 5.921875 -4.632812 5.566406 -4.253906 5.078125 -3.984375 C 4.597656 -3.722656 4.039062 -3.59375 3.40625 -3.59375 C 2.820312 -3.59375 2.300781 -3.703125 1.84375 -3.921875 C 1.382812 -4.140625 1.023438 -4.453125 0.765625 -4.859375 C 0.515625 -5.265625 0.390625 -5.734375 0.390625 -6.265625 C 0.390625 -6.804688 0.519531 -7.285156 0.78125 -7.703125 C 1.050781 -8.128906 1.414062 -8.453125 1.875 -8.671875 C 2.34375 -8.898438 2.867188 -9.015625 3.453125 -9.015625 Z M 3.546875 -4.359375 C 3.992188 -4.359375 4.390625 -4.441406 4.734375 -4.609375 C 5.085938 -4.785156 5.359375 -5.019531 5.546875 -5.3125 C 5.742188 -5.613281 5.84375 -5.945312 5.84375 -6.3125 C 5.84375 -6.65625 5.75 -6.972656 5.5625 -7.265625 C 5.382812 -7.554688 5.113281 -7.789062 4.75 -7.96875 C 4.394531 -8.144531 3.972656 -8.234375 3.484375 -8.234375 C 2.835938 -8.234375 2.3125 -8.054688 1.90625 -7.703125 C 1.5 -7.347656 1.296875 -6.878906 1.296875 -6.296875 C 1.296875 -5.703125 1.5 -5.226562 1.90625 -4.875 C 2.3125 -4.53125 2.859375 -4.359375 3.546875 -4.359375 Z M 3.546875 -4.359375 "/></g></g></g><g fill="#a2906e" fill-opacity="1"><g transform="translate(216.566332, 333.491755)"><g><path d="M 5.78125 -4.6875 C 6.34375 -4.5 6.773438 -4.21875 7.078125 -3.84375 C 7.378906 -3.46875 7.53125 -3.015625 7.53125 -2.484375 C 7.53125 -1.960938 7.390625 -1.507812 7.109375 -1.125 C 6.828125 -0.738281 6.425781 -0.441406 5.90625 -0.234375 C 5.382812 -0.0234375 4.769531 0.078125 4.0625 0.078125 C 2.988281 0.078125 2.144531 -0.148438 1.53125 -0.609375 C 0.914062 -1.066406 0.609375 -1.691406 0.609375 -2.484375 C 0.609375 -3.023438 0.753906 -3.476562 1.046875 -3.84375 C 1.347656 -4.21875 1.78125 -4.5 2.34375 -4.6875 C 1.875 -4.863281 1.519531 -5.117188 1.28125 -5.453125 C 1.050781 -5.796875 0.9375 -6.195312 0.9375 -6.65625 C 0.9375 -7.375 1.21875 -7.945312 1.78125 -8.375 C 2.34375 -8.800781 3.101562 -9.015625 4.0625 -9.015625 C 4.6875 -9.015625 5.234375 -8.914062 5.703125 -8.71875 C 6.179688 -8.53125 6.550781 -8.253906 6.8125 -7.890625 C 7.082031 -7.535156 7.21875 -7.125 7.21875 -6.65625 C 7.21875 -6.195312 7.09375 -5.796875 6.84375 -5.453125 C 6.59375 -5.117188 6.238281 -4.863281 5.78125 -4.6875 Z M 1.84375 -6.625 C 1.84375 -6.132812 2.039062 -5.742188 2.4375 -5.453125 C 2.832031 -5.160156 3.375 -5.015625 4.0625 -5.015625 C 4.75 -5.015625 5.289062 -5.160156 5.6875 -5.453125 C 6.082031 -5.742188 6.28125 -6.128906 6.28125 -6.609375 C 6.28125 -7.109375 6.078125 -7.503906 5.671875 -7.796875 C 5.265625 -8.085938 4.726562 -8.234375 4.0625 -8.234375 C 3.375 -8.234375 2.832031 -8.085938 2.4375 -7.796875 C 2.039062 -7.503906 1.84375 -7.113281 1.84375 -6.625 Z M 4.0625 -0.703125 C 4.851562 -0.703125 5.472656 -0.863281 5.921875 -1.1875 C 6.367188 -1.507812 6.59375 -1.945312 6.59375 -2.5 C 6.59375 -3.050781 6.367188 -3.488281 5.921875 -3.8125 C 5.472656 -4.132812 4.851562 -4.296875 4.0625 -4.296875 C 3.28125 -4.296875 2.664062 -4.132812 2.21875 -3.8125 C 1.769531 -3.488281 1.546875 -3.050781 1.546875 -2.5 C 1.546875 -1.9375 1.765625 -1.492188 2.203125 -1.171875 C 2.648438 -0.859375 3.269531 -0.703125 4.0625 -0.703125 Z M 4.0625 -0.703125 "/></g></g></g><g fill="#a2906e" fill-opacity="1"><g transform="translate(226.905227, 333.491755)"><g><path d="M 3.140625 -8.9375 L 3.140625 0 L 2.21875 0 L 2.21875 -8.125 L 0.109375 -8.125 L 0.109375 -8.9375 Z M 3.140625 -8.9375 "/></g></g></g></svg>