<svg xmlns="http://www.w3.org/2000/svg" xmlns:xlink="http://www.w3.org/1999/xlink" width="1000" zoomAndPan="magnify" viewBox="0 0 750 749.999995" height="1000" preserveAspectRatio="xMidYMid meet" version="1.0"><defs><clipPath id="1252e043cc"><path d="M 262.3125 268 L 488.0625 268 L 488.0625 525 L 262.3125 525 Z M 262.3125 268 " clip-rule="nonzero"/></clipPath></defs><rect x="-75" width="900" fill="#ffffff" y="-74.999999" height="899.999994" fill-opacity="1"/><rect x="-75" width="900" fill="#ffffff" y="-74.999999" height="899.999994" fill-opacity="1"/><g clip-path="url(#1252e043cc)"><path fill="#393536" d="M 375.207031 524.90625 C 312.964844 524.90625 262.328125 474.347656 262.328125 412.210938 C 262.328125 411.011719 263.304688 410.035156 264.507812 410.035156 C 265.714844 410.035156 266.691406 411.011719 266.691406 412.210938 C 266.691406 471.949219 315.371094 520.546875 375.207031 520.546875 C 435.046875 520.546875 483.726562 471.949219 483.726562 412.210938 L 483.726562 270.828125 C 483.726562 269.625 484.703125 268.652344 485.90625 268.652344 C 487.113281 268.652344 488.085938 269.625 488.085938 270.828125 L 488.085938 412.210938 C 488.085938 474.347656 437.449219 524.90625 375.207031 524.90625 " fill-opacity="1" fill-rule="nonzero"/></g><path fill="#393536" d="M 375.207031 509.117188 C 321.6875 509.117188 278.140625 465.640625 278.140625 412.210938 C 278.140625 411.011719 279.121094 410.035156 280.324219 410.035156 C 281.527344 410.035156 282.503906 411.011719 282.503906 412.210938 C 282.503906 463.242188 324.09375 504.757812 375.207031 504.757812 C 426.328125 504.757812 467.910156 463.242188 467.910156 412.210938 L 467.910156 254.496094 C 467.910156 253.292969 468.890625 252.316406 470.09375 252.316406 C 471.296875 252.316406 472.277344 253.292969 472.277344 254.496094 L 472.277344 412.210938 C 472.277344 465.640625 428.730469 509.117188 375.207031 509.117188 " fill-opacity="1" fill-rule="nonzero"/><path fill="#393536" d="M 375.207031 493.328125 C 330.40625 493.328125 293.957031 456.9375 293.957031 412.210938 C 293.957031 411.011719 294.933594 410.035156 296.136719 410.035156 C 297.34375 410.035156 298.316406 411.011719 298.316406 412.210938 C 298.316406 454.539062 332.8125 488.976562 375.207031 488.976562 C 417.605469 488.976562 452.097656 454.539062 452.097656 412.210938 L 452.097656 238.160156 C 452.097656 236.960938 453.074219 235.984375 454.28125 235.984375 C 455.484375 235.984375 456.460938 236.960938 456.460938 238.160156 L 456.460938 412.210938 C 456.460938 456.9375 420.011719 493.328125 375.207031 493.328125 " fill-opacity="1" fill-rule="nonzero"/><path fill="#393536" d="M 375.207031 477.539062 C 339.125 477.539062 309.769531 448.230469 309.769531 412.210938 C 309.769531 411.011719 310.746094 410.035156 311.953125 410.035156 C 313.15625 410.035156 314.132812 411.011719 314.132812 412.210938 C 314.132812 445.832031 341.53125 473.183594 375.207031 473.183594 C 408.886719 473.183594 436.285156 445.832031 436.285156 412.210938 L 436.285156 227.273438 C 436.285156 226.070312 437.257812 225.09375 438.464844 225.09375 C 439.671875 225.09375 440.644531 226.070312 440.644531 227.273438 L 440.644531 412.210938 C 440.644531 448.230469 411.289062 477.539062 375.207031 477.539062 " fill-opacity="1" fill-rule="nonzero"/><path fill="#393536" d="M 375.207031 461.753906 C 347.84375 461.753906 325.585938 439.527344 325.585938 412.210938 C 325.585938 411.011719 326.5625 410.035156 327.765625 410.035156 C 328.96875 410.035156 329.949219 411.011719 329.949219 412.210938 C 329.949219 437.125 350.25 457.394531 375.207031 457.394531 C 400.164062 457.394531 420.46875 437.125 420.46875 412.210938 L 420.46875 243.605469 C 420.46875 242.402344 421.445312 241.429688 422.648438 241.429688 C 423.855469 241.429688 424.832031 242.402344 424.832031 243.605469 L 424.832031 412.210938 C 424.832031 439.527344 402.570312 461.753906 375.207031 461.753906 " fill-opacity="1" fill-rule="nonzero"/><path fill="#393536" d="M 375.207031 445.964844 C 356.566406 445.964844 341.398438 430.820312 341.398438 412.210938 C 341.398438 411.011719 342.375 410.035156 343.582031 410.035156 C 344.785156 410.035156 345.761719 411.011719 345.761719 412.210938 C 345.761719 428.421875 358.972656 441.605469 375.207031 441.605469 C 391.445312 441.605469 404.65625 428.421875 404.65625 412.210938 L 404.65625 265.382812 C 404.65625 264.179688 405.632812 263.207031 406.835938 263.207031 C 408.039062 263.207031 409.019531 264.179688 409.019531 265.382812 L 409.019531 412.210938 C 409.019531 430.820312 393.851562 445.964844 375.207031 445.964844 " fill-opacity="1" fill-rule="nonzero"/><path fill="#393536" d="M 375.207031 430.175781 C 365.285156 430.175781 357.210938 422.117188 357.210938 412.210938 C 357.210938 411.011719 358.191406 410.035156 359.394531 410.035156 C 360.597656 410.035156 361.574219 411.011719 361.574219 412.210938 C 361.574219 419.714844 367.691406 425.820312 375.207031 425.820312 C 382.726562 425.820312 388.839844 419.714844 388.839844 412.210938 L 388.839844 292.605469 C 388.839844 291.398438 389.816406 290.429688 391.023438 290.429688 C 392.226562 290.429688 393.203125 291.398438 393.203125 292.605469 L 393.203125 412.210938 C 393.203125 422.117188 385.128906 430.175781 375.207031 430.175781 " fill-opacity="1" fill-rule="nonzero"/></svg>