<svg xmlns="http://www.w3.org/2000/svg" xmlns:xlink="http://www.w3.org/1999/xlink" width="1000" zoomAndPan="magnify" viewBox="0 0 750 749.999995" height="1000" preserveAspectRatio="xMidYMid meet" version="1.0"><defs><g/><clipPath id="55aa1cf641"><path d="M 236.109375 409 L 257 409 L 257 440 L 236.109375 440 Z M 236.109375 409 " clip-rule="nonzero"/></clipPath><clipPath id="bc760b43c6"><path d="M 295 553 L 332 553 L 332 589.660156 L 295 589.660156 Z M 295 553 " clip-rule="nonzero"/></clipPath><clipPath id="9c84006b6c"><path d="M 270 556 L 295 556 L 295 589.660156 L 270 589.660156 Z M 270 556 " clip-rule="nonzero"/></clipPath><clipPath id="fd7494a91d"><path d="M 341.226562 163 L 513.726562 163 L 513.726562 270.589844 L 341.226562 270.589844 Z M 341.226562 163 " clip-rule="nonzero"/></clipPath></defs><rect x="-75" width="900" fill="#ffffff" y="-74.999999" height="899.999994" fill-opacity="1"/><rect x="-75" width="900" fill="#ffffff" y="-74.999999" height="899.999994" fill-opacity="1"/><path fill="#000000" d="M 389.320312 446.183594 C 388.382812 445.25 375.773438 447.582031 367.832031 455.035156 C 365.496094 457.367188 365.496094 457.832031 365.027344 461.5625 C 364.09375 480.667969 356.152344 494.648438 343.074219 505.367188 C 334.667969 512.355469 338.402344 524.472656 346.8125 524.472656 C 363.160156 524.9375 363.628906 518.414062 365.964844 511.890625 C 371.570312 496.046875 378.109375 476.9375 387.449219 469.949219 C 395.859375 463.890625 395.859375 448.046875 389.320312 446.183594 Z M 389.320312 446.183594 " fill-opacity="1" fill-rule="nonzero"/><path fill="#000000" d="M 386.050781 441.523438 C 378.109375 441.988281 364.09375 448.980469 361.292969 455.96875 C 358.023438 449.910156 351.949219 444.320312 349.613281 443.386719 C 350.082031 440.589844 353.820312 426.144531 354.285156 424.28125 C 379.507812 445.714844 386.050781 436.863281 386.050781 441.523438 Z M 386.050781 441.523438 " fill-opacity="1" fill-rule="nonzero"/><path fill="#000000" d="M 294.964844 414.027344 C 294.496094 414.492188 294.496094 414.960938 294.027344 415.890625 C 288.890625 414.960938 287.957031 411.699219 289.824219 407.96875 C 290.292969 409.367188 293.09375 412.628906 294.964844 414.027344 Z M 294.964844 414.027344 " fill-opacity="1" fill-rule="nonzero"/><path fill="#000000" d="M 322.523438 425.679688 C 322.523438 427.078125 322.523438 428.007812 322.523438 429.40625 C 322.523438 429.40625 322.054688 429.40625 322.054688 428.941406 C 322.054688 428.472656 322.523438 426.144531 322.523438 425.679688 Z M 322.523438 425.679688 " fill-opacity="1" fill-rule="nonzero"/><path fill="#000000" d="M 328.128906 410.300781 C 326.726562 412.164062 325.324219 414.960938 325.324219 417.757812 C 324.859375 418.6875 323.925781 421.019531 323.457031 421.949219 C 320.652344 430.804688 326.726562 419.152344 317.851562 410.765625 C 318.320312 410.300781 318.785156 409.835938 318.785156 409.367188 C 320.1875 409.367188 321.589844 409.835938 322.988281 409.367188 C 323.457031 408.902344 322.988281 408.902344 325.792969 407.96875 C 326.257812 408.4375 326.726562 409.367188 328.128906 410.300781 Z M 328.128906 410.300781 " fill-opacity="1" fill-rule="nonzero"/><path fill="#000000" d="M 322.988281 530.0625 C 322.523438 530.53125 321.589844 531.929688 321.121094 532.859375 C 318.320312 541.25 307.574219 545.441406 302.4375 545.441406 C 299.167969 550.570312 300.570312 551.035156 299.632812 552.898438 C 305.707031 560.355469 307.574219 550.570312 321.121094 551.035156 C 328.128906 551.035156 332.800781 549.636719 334.199219 547.304688 C 336.535156 543.578125 340.738281 538.917969 342.609375 535.191406 C 341.675781 534.722656 341.207031 534.722656 340.273438 534.722656 C 329.527344 531.460938 327.195312 533.792969 322.988281 530.0625 Z M 322.988281 530.0625 " fill-opacity="1" fill-rule="nonzero"/><path fill="#000000" d="M 296.832031 551.035156 C 296.832031 549.636719 297.300781 548.238281 298.234375 545.910156 C 298.699219 545.441406 298.699219 544.976562 299.167969 544.042969 C 297.300781 543.113281 296.363281 541.25 296.363281 539.382812 C 287.488281 539.382812 285.621094 539.851562 280.484375 538.453125 C 280.015625 545.910156 272.074219 549.636719 271.609375 550.101562 C 279.550781 562.683594 296.832031 556.160156 296.832031 551.035156 Z M 296.832031 551.035156 " fill-opacity="1" fill-rule="nonzero"/><path fill="#000000" d="M 274.410156 536.589844 C 274.410156 535.191406 271.609375 532.859375 271.140625 532.394531 C 268.339844 530.0625 266.9375 528.667969 266.46875 525.402344 C 266.003906 525.402344 266.003906 525.402344 265.070312 525.402344 C 265.070312 530.0625 265.070312 544.976562 267.871094 548.238281 C 271.609375 544.976562 274.410156 541.25 274.410156 536.589844 Z M 274.410156 536.589844 " fill-opacity="1" fill-rule="nonzero"/><path fill="#000000" d="M 295.898438 519.347656 C 292.628906 520.742188 286.554688 521.210938 280.484375 519.347656 C 278.613281 523.539062 273.945312 524.472656 269.273438 524.9375 C 269.738281 526.800781 269.738281 527.269531 273.007812 530.0625 C 279.550781 535.65625 288.890625 538.453125 299.632812 536.589844 C 300.570312 532.394531 299.632812 525.402344 296.832031 519.8125 C 296.832031 519.347656 296.363281 519.347656 295.898438 519.347656 Z M 295.898438 519.347656 " fill-opacity="1" fill-rule="nonzero"/><path fill="#000000" d="M 348.679688 529.132812 C 347.746094 531.929688 346.8125 533.328125 344.007812 532.394531 C 335.132812 529.132812 324.859375 530.996094 323.457031 525.871094 C 323.457031 525.402344 320.652344 522.609375 322.988281 517.949219 C 323.925781 516.550781 325.324219 515.152344 326.726562 514.6875 C 331.398438 516.082031 333.265625 515.617188 335.132812 515.617188 C 335.132812 516.550781 335.601562 517.015625 335.601562 517.949219 L 335.601562 518.414062 L 336.070312 518.878906 C 337.003906 522.140625 338.871094 525.402344 344.476562 527.734375 C 344.945312 527.269531 347.277344 528.667969 348.679688 529.132812 Z M 348.679688 529.132812 " fill-opacity="1" fill-rule="nonzero"/><path fill="#000000" d="M 302.902344 537.054688 C 302.902344 537.988281 301.96875 541.714844 301.96875 541.714844 C 317.382812 541.714844 325.324219 524.9375 312.246094 517.480469 C 309.445312 517.480469 302.4375 517.480469 300.101562 515.617188 C 300.101562 516.082031 299.632812 516.082031 299.167969 516.550781 C 301.96875 521.675781 303.371094 528.667969 302.902344 535.191406 C 302.902344 535.65625 302.902344 537.054688 302.902344 537.054688 Z M 302.902344 537.054688 " fill-opacity="1" fill-rule="nonzero"/><path fill="#000000" d="M 314.582031 412.628906 C 311.777344 407.039062 295.898438 409.367188 295.898438 423.347656 C 295.898438 423.347656 307.574219 472.746094 302.4375 493.25 C 301.035156 498.839844 300.101562 502.570312 300.101562 505.832031 C 301.035156 508.628906 301.503906 511.425781 301.035156 513.289062 C 302.4375 514.6875 304.773438 514.21875 307.574219 514.6875 C 311.777344 515.152344 322.523438 516.082031 315.515625 497.910156 C 309.910156 482.53125 318.785156 424.28125 318.785156 422.882812 C 319.253906 418.6875 317.382812 414.960938 314.582031 412.628906 Z M 314.582031 412.628906 " fill-opacity="1" fill-rule="nonzero"/><path fill="#000000" d="M 266.9375 439.191406 C 266.9375 439.191406 284.6875 480.203125 282.820312 498.839844 C 280.949219 519.347656 283.285156 517.015625 289.824219 517.015625 C 300.101562 516.550781 299.632812 510.492188 294.964844 501.171875 C 287.957031 488.589844 287.488281 436.863281 287.023438 435.929688 C 284.6875 420.085938 264.601562 424.28125 266.9375 439.191406 Z M 266.9375 439.191406 " fill-opacity="1" fill-rule="nonzero"/><path fill="#000000" d="M 270.207031 521.675781 C 273.945312 521.210938 283.285156 519.8125 273.945312 506.765625 C 266.003906 496.046875 261.332031 449.910156 260.863281 448.980469 C 257.59375 435 237.507812 440.125 240.777344 453.640625 C 240.777344 453.640625 261.800781 488.589844 261.332031 505.832031 C 261.800781 524.9375 264.132812 522.609375 270.207031 521.675781 Z M 270.207031 521.675781 " fill-opacity="1" fill-rule="nonzero"/><path fill="#000000" d="M 339.339844 496.046875 C 339.804688 497.910156 340.738281 503.96875 340.273438 505.367188 C 336.070312 507.695312 335.601562 511.890625 335.132812 512.355469 C 332.800781 512.820312 330.464844 512.355469 329.0625 511.890625 C 322.054688 510.027344 318.785156 511.890625 326.257812 489.988281 C 333.265625 469.949219 328.128906 419.621094 328.128906 419.621094 C 328.59375 414.492188 331.398438 410.300781 335.601562 408.4375 C 344.476562 404.707031 351.949219 412.628906 351.015625 421.949219 C 351.015625 423.347656 335.132812 480.203125 339.339844 496.046875 Z M 339.339844 496.046875 " fill-opacity="1" fill-rule="nonzero"/><path fill="#000000" d="M 308.042969 368.359375 C 299.632812 368.359375 292.628906 374.882812 292.628906 383.273438 C 292.628906 386.066406 292.628906 405.640625 293.5625 407.503906 C 294.964844 409.367188 295.898438 410.765625 297.765625 411.699219 C 301.96875 407.039062 308.976562 405.175781 315.050781 408.902344 C 316.917969 407.503906 318.320312 401.910156 317.382812 399.582031 C 316.449219 396.785156 313.179688 392.589844 309.910156 389.328125 C 317.382812 394.921875 322.523438 389.796875 322.054688 389.796875 C 329.996094 382.339844 319.253906 368.359375 308.042969 368.359375 Z M 308.042969 368.359375 " fill-opacity="1" fill-rule="nonzero"/><path fill="#000000" d="M 275.34375 392.125 C 268.339844 392.125 262.265625 397.71875 262.265625 405.175781 C 262.265625 408.902344 262.265625 413.097656 262.734375 418.222656 C 262.734375 421.949219 261.800781 421.019531 264.601562 424.746094 C 265.070312 425.210938 265.535156 425.679688 266.46875 426.144531 C 269.738281 422.417969 275.34375 421.019531 280.484375 423.8125 C 281.882812 422.882812 282.351562 420.550781 282.351562 418.6875 C 282.820312 415.425781 278.613281 410.765625 276.277344 407.96875 C 283.753906 414.027344 293.09375 405.640625 285.621094 396.785156 C 280.949219 392.125 274.878906 392.125 275.34375 392.125 Z M 275.34375 392.125 " fill-opacity="1" fill-rule="nonzero"/><g clip-path="url(#55aa1cf641)"><path fill="#000000" d="M 254.324219 413.097656 C 251.054688 409.835938 246.382812 409.835938 246.851562 409.835938 C 240.777344 409.835938 236.109375 414.960938 236.574219 421.019531 C 236.574219 421.949219 237.976562 435.929688 238.910156 437.328125 C 239.84375 438.261719 240.777344 439.660156 241.714844 439.660156 C 244.050781 435.929688 248.253906 434.53125 252.457031 436.398438 C 252.925781 435.929688 253.390625 435 253.390625 434.066406 C 253.859375 430.804688 254.792969 429.40625 247.320312 422.882812 C 250.589844 425.210938 253.390625 424.28125 255.257812 422.417969 C 257.59375 420.550781 257.59375 416.824219 254.324219 413.097656 Z M 254.324219 413.097656 " fill-opacity="1" fill-rule="nonzero"/></g><path fill="#000000" d="M 330.929688 407.96875 C 335.601562 403.777344 342.609375 403.308594 347.277344 406.105469 C 349.148438 404.242188 350.550781 399.582031 350.082031 397.25 C 348.679688 390.726562 342.140625 371.621094 346.8125 357.640625 C 351.949219 341.796875 330.929688 342.730469 331.398438 351.117188 C 331.398438 352.050781 337.003906 378.613281 327.195312 399.117188 C 325.324219 402.378906 328.59375 407.039062 330.929688 407.96875 Z M 330.929688 407.96875 " fill-opacity="1" fill-rule="nonzero"/><path fill="#000000" d="M 339.339844 341.796875 C 353.820312 336.671875 340.273438 335.738281 343.074219 316.167969 C 343.542969 314.300781 343.074219 312.902344 342.140625 311.972656 C 339.804688 309.640625 335.132812 311.507812 335.601562 316.167969 C 337.003906 328.28125 330.929688 332.941406 331.863281 336.671875 C 332.800781 339.933594 336.070312 341.796875 339.339844 341.796875 Z M 339.339844 341.796875 " fill-opacity="1" fill-rule="nonzero"/><path fill="#000000" d="M 341.675781 308.710938 C 344.945312 305.449219 341.675781 301.253906 343.542969 295.195312 C 344.945312 290.070312 338.871094 290.070312 339.339844 294.730469 C 339.339844 294.730469 338.871094 303.585938 336.070312 308.242188 C 335.601562 309.175781 335.601562 309.640625 335.601562 309.640625 C 337.46875 308.242188 339.804688 307.777344 341.675781 308.710938 Z M 341.675781 308.710938 " fill-opacity="1" fill-rule="nonzero"/><g clip-path="url(#bc760b43c6)"><path fill="#000000" d="M 325.792969 589.246094 L 306.640625 589.246094 C 305.238281 585.054688 292.628906 563.617188 295.429688 557.09375 C 295.898438 556.625 296.832031 556.160156 297.300781 555.230469 C 304.773438 564.082031 308.507812 553.832031 319.71875 553.832031 C 320.652344 553.832031 324.390625 553.832031 328.128906 553.363281 C 337.003906 569.207031 328.128906 583.65625 325.792969 589.246094 Z M 325.792969 589.246094 " fill-opacity="1" fill-rule="nonzero"/></g><g clip-path="url(#9c84006b6c)"><path fill="#000000" d="M 284.21875 589.246094 L 271.140625 589.246094 C 270.207031 572.003906 272.542969 558.023438 272.542969 556.625 C 279.082031 561.753906 287.957031 561.285156 294.027344 558.023438 C 294.027344 558.957031 287.023438 570.140625 284.21875 589.246094 Z M 284.21875 589.246094 " fill-opacity="1" fill-rule="nonzero"/></g><g clip-path="url(#fd7494a91d)"><path fill="#000000" d="M 513.519531 189.660156 C 513.527344 189.8125 513.527344 189.96875 513.519531 190.121094 L 509.875 243.503906 L 509.875 243.710938 C 509.875 258.90625 501.925781 267.007812 486.828125 267.007812 L 389.238281 258.03125 C 385.5 257.726562 370.875 255.875 367.636719 255.15625 C 366.75 254.957031 365.933594 255.121094 365.1875 255.644531 C 357.5625 261.085938 349.644531 266.0625 341.429688 270.566406 C 343.914062 265.453125 345.835938 260.136719 347.191406 254.617188 C 348.84375 248.1875 350.070312 241.675781 350.867188 235.085938 C 350.910156 234.707031 350.878906 234.332031 350.785156 233.960938 C 350.113281 231.339844 349.792969 228.675781 349.824219 225.972656 L 349.824219 218.613281 C 349.824219 199.367188 349.824219 197.257812 364.835938 190.925781 L 391.691406 184.738281 L 444.710938 172.527344 L 482.671875 163.78125 C 497.789062 160.300781 513.449219 174.921875 513.519531 189.660156 Z M 513.519531 189.660156 " fill-opacity="1" fill-rule="nonzero"/></g><g fill="#ffffff" fill-opacity="1"><g transform="translate(376.760374, 230.06242)"><g><path d="M 15.929688 -27.875 C 12.75 -27.875 9.539062 -26.078125 8.476562 -22.832031 C 8.285156 -22.191406 8.15625 -21.582031 8.15625 -20.972656 C 8.15625 -18.175781 10.085938 -16.058594 11.914062 -13.808594 C 13.425781 -11.980469 14.835938 -10.46875 14.835938 -8.542969 C 14.835938 -5.941406 12.558594 -4.367188 10.46875 -4.367188 C 8.15625 -4.398438 6.328125 -5.75 6.359375 -8.027344 C 6.390625 -8.1875 6.390625 -8.351562 6.390625 -8.476562 C 6.390625 -10.308594 5.171875 -11.144531 3.917969 -11.144531 C 2.632812 -11.144531 1.316406 -10.210938 1.316406 -8.414062 C 1.15625 -3.308594 5.652344 0 10.5 0 C 15.640625 0 20.296875 -4.046875 20.296875 -8.992188 C 20.296875 -12.332031 18.082031 -14.902344 16.121094 -17.085938 L 15.738281 -17.503906 C 14.515625 -18.820312 13.550781 -20.265625 13.550781 -21.453125 C 13.550781 -22.867188 15.191406 -23.476562 15.929688 -23.445312 C 16.925781 -23.378906 17.632812 -22.671875 18.175781 -21.582031 C 18.59375 -20.585938 19.429688 -20.136719 20.296875 -20.136719 C 21.453125 -20.136719 22.609375 -21.003906 22.609375 -22.480469 C 22.609375 -22.800781 22.578125 -23.089844 22.480469 -23.445312 C 21.742188 -25.949219 19.203125 -27.875 15.929688 -27.875 Z M 15.929688 -27.875 "/></g></g></g><g fill="#ffffff" fill-opacity="1"><g transform="translate(398.594796, 230.06242)"><g><path d="M 8.640625 -21.804688 C 10.085938 -21.804688 11.273438 -22.996094 11.273438 -24.472656 C 11.273438 -25.917969 10.085938 -27.074219 8.640625 -27.074219 C 7.195312 -27.074219 6.003906 -25.917969 6.003906 -24.472656 C 6.003906 -22.996094 7.195312 -21.804688 8.640625 -21.804688 Z M 4.304688 -5.425781 L 7.835938 -15.511719 C 7.964844 -15.929688 8.125 -16.378906 8.125 -16.699219 C 8.125 -18.113281 7.066406 -18.851562 5.972656 -18.851562 C 4.976562 -18.851562 3.917969 -18.144531 3.402344 -16.636719 C 2.375 -13.617188 1.027344 -9.796875 0 -6.808594 C -0.191406 -6.167969 -0.449219 -5.300781 -0.449219 -4.753906 C -0.449219 -1.734375 2.054688 0 5.011719 0 C 8.15625 0 11.625 -1.925781 13.875 -8.574219 C 13.9375 -8.765625 13.96875 -8.960938 13.96875 -9.152344 C 13.96875 -10.148438 13.007812 -10.757812 12.042969 -10.757812 C 11.175781 -10.757812 10.308594 -10.308594 9.921875 -9.3125 C 8.414062 -5.136719 6.710938 -3.820312 5.425781 -3.820312 C 4.6875 -3.820312 4.207031 -4.304688 4.207031 -4.914062 C 4.207031 -5.074219 4.238281 -5.234375 4.304688 -5.425781 Z M 4.304688 -5.425781 "/></g></g></g><g fill="#ffffff" fill-opacity="1"><g transform="translate(407.456997, 230.06242)"><g><path d="M 4.398438 -5.234375 L 11.144531 -24.761719 C 11.273438 -25.144531 11.335938 -25.53125 11.335938 -25.851562 C 11.335938 -27.074219 10.179688 -27.875 9.21875 -27.875 C 7.996094 -27.875 7.195312 -27.203125 6.679688 -25.757812 L 0 -6.679688 C -0.257812 -5.941406 -0.386719 -5.265625 -0.386719 -4.59375 C -0.386719 -1.636719 2.054688 0 4.882812 0 C 7.933594 0 11.753906 -1.894531 14.003906 -8.574219 C 14.066406 -8.800781 14.097656 -9.023438 14.097656 -9.21875 C 14.097656 -10.246094 13.199219 -10.984375 12.203125 -10.984375 C 11.402344 -10.984375 10.535156 -10.5 10.085938 -9.3125 C 8.640625 -5.460938 6.777344 -3.820312 5.265625 -3.820312 C 4.625 -3.820312 4.269531 -4.207031 4.269531 -4.6875 C 4.269531 -4.816406 4.335938 -5.042969 4.398438 -5.234375 Z M 4.398438 -5.234375 "/></g></g></g><g fill="#ffffff" fill-opacity="1"><g transform="translate(416.415535, 230.06242)"><g><path d="M 8.640625 -21.804688 C 10.085938 -21.804688 11.273438 -22.996094 11.273438 -24.472656 C 11.273438 -25.917969 10.085938 -27.074219 8.640625 -27.074219 C 7.195312 -27.074219 6.003906 -25.917969 6.003906 -24.472656 C 6.003906 -22.996094 7.195312 -21.804688 8.640625 -21.804688 Z M 4.304688 -5.425781 L 7.835938 -15.511719 C 7.964844 -15.929688 8.125 -16.378906 8.125 -16.699219 C 8.125 -18.113281 7.066406 -18.851562 5.972656 -18.851562 C 4.976562 -18.851562 3.917969 -18.144531 3.402344 -16.636719 C 2.375 -13.617188 1.027344 -9.796875 0 -6.808594 C -0.191406 -6.167969 -0.449219 -5.300781 -0.449219 -4.753906 C -0.449219 -1.734375 2.054688 0 5.011719 0 C 8.15625 0 11.625 -1.925781 13.875 -8.574219 C 13.9375 -8.765625 13.96875 -8.960938 13.96875 -9.152344 C 13.96875 -10.148438 13.007812 -10.757812 12.042969 -10.757812 C 11.175781 -10.757812 10.308594 -10.308594 9.921875 -9.3125 C 8.414062 -5.136719 6.710938 -3.820312 5.425781 -3.820312 C 4.6875 -3.820312 4.207031 -4.304688 4.207031 -4.914062 C 4.207031 -5.074219 4.238281 -5.234375 4.304688 -5.425781 Z M 4.304688 -5.425781 "/></g></g></g><g fill="#ffffff" fill-opacity="1"><g transform="translate(425.277736, 230.06242)"><g><path d="M 15.542969 -9.539062 C 13.90625 -5.394531 10.789062 -3.855469 8.351562 -3.855469 C 6.132812 -3.855469 4.722656 -5.136719 4.722656 -6.777344 C 4.722656 -7.128906 4.785156 -7.515625 4.914062 -7.933594 L 6.871094 -13.488281 C 7.160156 -14.257812 7.804688 -14.742188 8.316406 -14.742188 C 8.960938 -14.742188 9.28125 -14.355469 9.28125 -13.808594 C 9.28125 -13.457031 9.152344 -13.070312 8.929688 -12.621094 C 8.765625 -12.300781 8.671875 -11.980469 8.671875 -11.65625 C 8.671875 -10.535156 9.730469 -9.667969 10.855469 -9.667969 C 11.785156 -9.667969 12.78125 -10.246094 13.359375 -11.722656 C 13.679688 -12.589844 13.808594 -13.359375 13.808594 -14.097656 C 13.808594 -17.117188 11.304688 -18.851562 8.542969 -18.851562 C 6.003906 -18.851562 3.277344 -17.375 2.121094 -14.003906 L 0.289062 -8.605469 C 0.03125 -7.835938 -0.0976562 -7.066406 -0.0976562 -6.359375 C -0.0976562 -2.664062 3.113281 0 7.835938 0 C 12.589844 0 17.277344 -2.699219 19.332031 -8.542969 C 19.429688 -8.765625 19.460938 -8.992188 19.460938 -9.183594 C 19.460938 -10.210938 18.464844 -10.855469 17.46875 -10.855469 C 16.667969 -10.855469 15.863281 -10.46875 15.542969 -9.539062 Z M 15.542969 -9.539062 "/></g></g></g><g fill="#ffffff" fill-opacity="1"><g transform="translate(439.630652, 230.06242)"><g><path d="M 13.585938 -6.710938 C 13.585938 -6.679688 13.585938 -7.195312 13.457031 -7.804688 C 13.679688 -7.964844 13.90625 -8.222656 14.097656 -8.511719 C 14.644531 -9.3125 15.609375 -12.105469 15.609375 -13.390625 C 15.609375 -16.667969 12.910156 -18.851562 9.441406 -18.851562 C 6.421875 -18.851562 3.566406 -17.179688 2.535156 -14.324219 L 0.191406 -7.707031 C -0.0976562 -6.90625 -0.226562 -6.101562 -0.226562 -5.394531 C -0.226562 -2.023438 2.664062 0 5.941406 0 C 8.445312 0 10.726562 -0.804688 12.074219 -3.113281 C 12.652344 -2.953125 13.328125 -2.859375 14.003906 -2.859375 C 17.792969 -2.859375 20.777344 -5.554688 21.871094 -8.929688 C 21.964844 -9.28125 22.03125 -9.601562 22.03125 -9.890625 C 22.03125 -11.078125 21.164062 -11.753906 20.234375 -11.753906 C 19.367188 -11.753906 18.464844 -11.242188 18.113281 -10.050781 C 17.40625 -8.0625 15.929688 -6.679688 14.035156 -6.679688 C 13.90625 -6.679688 13.714844 -6.679688 13.585938 -6.710938 Z M 10.597656 -11.65625 C 10.5 -11.367188 10.40625 -11.113281 10.375 -10.855469 C 8.605469 -11.046875 7.03125 -9.601562 7.03125 -7.675781 C 7.066406 -6.582031 7.609375 -6.003906 8.222656 -5.492188 C 7.804688 -4.367188 6.871094 -3.820312 5.878906 -3.820312 C 4.625 -3.820312 4.304688 -4.59375 4.304688 -5.363281 C 4.304688 -5.972656 4.464844 -6.550781 4.59375 -6.871094 L 6.871094 -13.390625 C 7.257812 -14.453125 8.382812 -15.0625 9.378906 -15.0625 C 10.375 -15.0625 11.015625 -14.386719 11.015625 -13.648438 C 11.015625 -13.070312 10.824219 -12.332031 10.597656 -11.65625 Z M 10.597656 -11.65625 "/></g></g></g><g fill="#ffffff" fill-opacity="1"><g transform="translate(456.391783, 230.06242)"><g><path d="M 17.921875 -9.25 C 16.507812 -5.394531 14.742188 -3.820312 13.230469 -3.820312 C 12.652344 -3.820312 12.332031 -4.109375 12.332031 -4.65625 C 12.332031 -4.882812 12.394531 -5.136719 12.492188 -5.460938 L 14.996094 -12.589844 C 15.222656 -13.230469 15.351562 -13.808594 15.351562 -14.355469 C 15.351562 -16.925781 13.167969 -18.851562 10.597656 -18.851562 C 9.34375 -18.851562 8.351562 -18.5625 7.515625 -17.953125 C 7.320312 -18.53125 6.519531 -18.851562 5.652344 -18.851562 C 4.753906 -18.851562 3.886719 -18.433594 3.566406 -17.535156 L -1.796875 -2.535156 C -1.894531 -2.25 -1.925781 -1.992188 -1.925781 -1.734375 C -1.925781 -0.546875 -0.996094 0.0625 0.03125 0.0625 C 1.15625 0.0625 2.441406 -0.640625 2.921875 -2.085938 C 4.046875 -5.203125 5.589844 -9.601562 6.679688 -12.683594 C 7.546875 -14.292969 8.671875 -15.0625 9.570312 -15.0625 C 10.148438 -15.0625 10.566406 -14.675781 10.566406 -14.066406 C 10.566406 -13.839844 10.5 -13.550781 10.40625 -13.261719 L 8.0625 -6.648438 C 7.804688 -5.910156 7.644531 -5.203125 7.644531 -4.527344 C 7.644531 -1.574219 10.085938 0 12.8125 0 C 16.089844 0 19.589844 -2.214844 21.804688 -8.476562 C 21.902344 -8.734375 21.964844 -8.992188 21.964844 -9.21875 C 21.964844 -10.246094 21.035156 -10.789062 20.070312 -10.789062 C 19.203125 -10.789062 18.242188 -10.308594 17.921875 -9.25 Z M 17.921875 -9.25 "/></g></g></g><g fill="#ffffff" fill-opacity="1"><g transform="translate(473.249238, 230.06242)"><g><path d="M 16.25 -9.054688 C 14.835938 -5.332031 11.464844 -3.820312 8.734375 -3.820312 C 6.390625 -3.820312 4.914062 -4.945312 4.914062 -6.421875 C 4.914062 -6.710938 4.945312 -7 5.074219 -7.320312 L 5.332031 -7.933594 C 6.261719 -7.355469 7.417969 -6.96875 8.703125 -6.96875 C 11.625 -6.96875 14.195312 -8.800781 15.0625 -11.691406 C 15.222656 -12.300781 15.320312 -12.910156 15.320312 -13.457031 C 15.320312 -16.507812 12.910156 -18.851562 9.28125 -18.851562 C 6.421875 -18.851562 3.628906 -17.179688 2.503906 -13.96875 L 0.609375 -8.476562 C 0.351562 -7.707031 0.191406 -6.9375 0.191406 -6.199219 C 0.191406 -2.375 3.789062 0 8.476562 0 C 12.941406 0 18.015625 -2.183594 20.136719 -8.316406 C 20.234375 -8.574219 20.265625 -8.800781 20.265625 -8.992188 C 20.265625 -9.988281 19.367188 -10.535156 18.402344 -10.535156 C 17.503906 -10.535156 16.539062 -10.050781 16.25 -9.054688 Z M 9.183594 -15.0625 C 10.085938 -15.0625 10.664062 -14.324219 10.664062 -13.390625 C 10.664062 -13.136719 10.628906 -12.878906 10.535156 -12.621094 C 10.210938 -11.5625 9.25 -11.175781 8.285156 -11.175781 C 7.675781 -11.175781 7.066406 -11.304688 6.617188 -11.5625 L 7.289062 -13.488281 C 7.644531 -14.484375 8.445312 -15.0625 9.183594 -15.0625 Z M 9.183594 -15.0625 "/></g></g></g></svg>