<svg xmlns="http://www.w3.org/2000/svg" xmlns:xlink="http://www.w3.org/1999/xlink" width="1000" zoomAndPan="magnify" viewBox="0 0 750 749.999995" height="1000" preserveAspectRatio="xMidYMid meet" version="1.0"><rect x="-75" width="900" fill="#ffffff" y="-74.999999" height="899.999994" fill-opacity="1"/><rect x="-75" width="900" fill="#ffffff" y="-74.999999" height="899.999994" fill-opacity="1"/><path fill="#393536" d="M 292.242188 225 C 255.105469 225 225 255.105469 225 292.242188 L 225 457.757812 C 225 494.894531 255.105469 525 292.242188 525 L 457.757812 525 C 494.894531 525 525 494.894531 525 457.757812 L 525 292.242188 C 525 255.105469 494.894531 225 457.757812 225 Z M 235.34375 292.242188 C 235.34375 260.816406 260.816406 235.34375 292.242188 235.34375 L 457.757812 235.34375 C 489.183594 235.34375 514.65625 260.816406 514.65625 292.242188 L 514.65625 457.757812 C 514.65625 489.183594 489.183594 514.65625 457.757812 514.65625 L 292.242188 514.65625 C 260.816406 514.65625 235.34375 489.183594 235.34375 457.757812 Z M 318.101562 274.136719 C 308.105469 274.136719 300 282.242188 300 292.242188 C 300 302.238281 308.105469 310.34375 318.101562 310.34375 L 413.792969 310.34375 L 413.792969 385.34375 C 413.792969 415.339844 389.476562 439.65625 359.484375 439.65625 L 318.101562 439.65625 C 308.105469 439.65625 300 447.761719 300 457.757812 C 300 467.757812 308.105469 475.863281 318.101562 475.863281 L 359.484375 475.863281 C 409.472656 475.863281 450 435.335938 450 385.34375 L 450 302.585938 C 450 286.875 437.261719 274.136719 421.550781 274.136719 Z M 310.34375 292.242188 C 310.34375 287.957031 313.820312 284.484375 318.101562 284.484375 L 421.550781 284.484375 C 431.550781 284.484375 439.65625 292.589844 439.65625 302.585938 L 439.65625 385.34375 C 439.65625 429.621094 403.761719 465.515625 359.484375 465.515625 L 318.101562 465.515625 C 313.820312 465.515625 310.34375 462.042969 310.34375 457.757812 C 310.34375 453.472656 313.820312 450 318.101562 450 L 359.484375 450 C 395.191406 450 424.136719 421.050781 424.136719 385.34375 L 424.136719 305.171875 C 424.136719 302.316406 421.820312 300 418.964844 300 L 318.101562 300 C 313.820312 300 310.34375 296.527344 310.34375 292.242188 Z M 310.34375 292.242188 " fill-opacity="1" fill-rule="evenodd"/></svg>