<svg xmlns="http://www.w3.org/2000/svg" xmlns:xlink="http://www.w3.org/1999/xlink" width="1000" zoomAndPan="magnify" viewBox="0 0 750 749.999995" height="1000" preserveAspectRatio="xMidYMid meet" version="1.0"><rect x="-75" width="900" fill="#ffffff" y="-74.999999" height="899.999994" fill-opacity="1"/><rect x="-75" width="900" fill="#ffffff" y="-74.999999" height="899.999994" fill-opacity="1"/><path fill="#393536" d="M 362.628906 462.722656 C 363.597656 458.085938 364.457031 453.425781 365.550781 448.820312 C 367.742188 439.585938 369.898438 430.347656 371.863281 421.066406 C 372.085938 420.015625 372.113281 418.867188 373.046875 417.691406 C 373.359375 420.484375 372.433594 422.898438 372.710938 425.367188 C 374.777344 417.773438 375.921875 410.023438 376.707031 402.203125 C 374.632812 406.21875 375.628906 410.953125 373.429688 414.941406 C 375.148438 403.472656 377.125 392.042969 378.269531 380.058594 C 378.878906 381.578125 378.316406 382.933594 379.519531 383.949219 C 380.203125 382.441406 380.125 380.855469 380.265625 379.359375 C 382.160156 359.128906 383.980469 338.890625 384.609375 318.566406 C 385.007812 305.773438 385.613281 292.980469 386.199219 280.191406 C 386.277344 278.535156 385.90625 278.171875 384.296875 278.636719 C 381.164062 279.542969 377.980469 280.269531 374.703125 281.097656 C 375.03125 280.378906 375.28125 279.828125 375.609375 279.105469 C 372.347656 279.90625 369.242188 280.636719 366.152344 281.4375 C 356.472656 283.945312 346.789062 286.445312 337.125 289.027344 C 334.277344 289.789062 331.457031 290.707031 328.699219 291.746094 C 327.066406 292.359375 327.324219 290.957031 327.015625 290.355469 C 326.484375 289.316406 327.542969 289.414062 328.089844 289.253906 C 331.484375 288.273438 334.980469 287.660156 338.769531 286.269531 C 337.3125 285.773438 336.324219 286.152344 335.386719 286.332031 C 333.964844 286.601562 332.546875 286.964844 331.183594 287.445312 C 329.914062 287.890625 329.21875 287.898438 328.734375 286.324219 C 328.160156 284.449219 329.707031 284.945312 330.355469 284.664062 C 331.675781 284.089844 333.09375 283.695312 334.5 283.375 C 335.636719 283.113281 336.285156 282.449219 336.683594 281.433594 C 337.277344 281.929688 337.894531 282.101562 338.679688 281.808594 C 342.625 280.34375 346.765625 279.628906 350.867188 278.792969 C 354.375 278.078125 355.585938 277.695312 356.984375 276.390625 C 353.574219 277.265625 350.527344 278.003906 347.511719 278.839844 C 343.933594 279.832031 340.347656 280.796875 336.683594 281.4375 C 333.488281 282.765625 330.117188 283.507812 326.777344 284.363281 C 326.261719 284.496094 325.648438 284.511719 325.460938 283.855469 C 325.234375 283.066406 324.648438 283.035156 324.058594 283.105469 C 323.0625 283.222656 322.140625 283.136719 321.757812 282.089844 C 321.414062 281.136719 320.515625 280.054688 322.023438 279.210938 C 322.414062 278.992188 322.46875 278.449219 322.257812 278.140625 C 321.054688 276.339844 320.582031 274.070312 318.183594 273.050781 C 316.355469 272.277344 315.898438 270.359375 316.636719 268.890625 C 316.089844 268.417969 314.8125 268.878906 314.828125 268.105469 C 314.84375 267.273438 315.367188 266.117188 316.039062 265.691406 C 318.953125 263.84375 321.90625 262.09375 325.195312 260.875 C 329.660156 259.21875 334.257812 258.132812 338.867188 257.082031 C 348.632812 254.851562 358.277344 252.148438 367.957031 249.585938 C 373.042969 248.234375 378.007812 246.375 383.136719 245.273438 C 387.375 244.367188 391.527344 243.121094 395.320312 241.273438 C 398.117188 239.910156 401.0625 239.164062 403.902344 238.484375 C 407.65625 237.582031 411.359375 236.546875 415.050781 235.4375 C 417.511719 234.699219 419.949219 233.890625 422.410156 233.152344 C 431.363281 230.457031 440.105469 227.078125 449.347656 225.359375 C 451.339844 224.988281 453.097656 226.109375 455.070312 225.578125 C 456.367188 225.230469 457.824219 225.613281 459.179688 225.183594 C 459.480469 225.085938 460.023438 225.019531 460.128906 225.171875 C 461.402344 226.957031 463.367188 225.882812 464.9375 226.386719 C 465.457031 226.550781 466.550781 226.335938 466.34375 226.957031 C 466.015625 227.953125 467.148438 229.320312 465.679688 229.941406 C 463.660156 230.796875 461.835938 232.21875 459.371094 231.789062 C 457.960938 231.542969 456.855469 232.765625 455.523438 233.148438 C 451.417969 234.320312 447.269531 235.386719 443.371094 237.21875 C 447.019531 236.308594 450.636719 235.273438 454.324219 234.527344 C 455.035156 234.382812 455.734375 234.097656 456.445312 234.058594 C 457.582031 233.996094 458.777344 233.222656 459.105469 235.589844 C 459.316406 237.097656 458.503906 237.464844 458.21875 238.378906 C 457.140625 241.890625 453.949219 241.378906 451.574219 242.152344 C 445.941406 243.988281 440.496094 246.242188 434.691406 248.550781 C 435.6875 249.023438 436.257812 248.542969 436.847656 248.523438 C 437.875 248.488281 438.851562 248.226562 439.570312 249.492188 C 440.011719 250.265625 441.101562 251.003906 442.101562 250.539062 C 444.671875 249.359375 447.417969 249.886719 450.058594 249.621094 C 453.429688 249.285156 456.765625 248.832031 460.085938 248.175781 C 461.125 247.972656 462.15625 247.789062 462.835938 249.03125 C 463.289062 249.859375 463.3125 250.199219 462.308594 250.558594 C 460.175781 251.320312 457.917969 251.46875 455.761719 252.078125 C 450.835938 253.464844 445.980469 255.082031 441.269531 257.0625 C 439.210938 257.925781 437.410156 259.410156 435.484375 260.621094 C 436.03125 261.492188 436.953125 260.929688 437.417969 261.765625 C 436.261719 262.839844 434.730469 263.355469 433.246094 263.878906 C 428.535156 265.550781 423.816406 267.210938 419.054688 268.726562 C 417.546875 269.207031 416.949219 269.882812 416.953125 271.496094 C 416.996094 283.261719 416.203125 295.003906 415.636719 306.746094 C 414.773438 324.558594 413.925781 342.386719 412.511719 360.160156 C 411.589844 371.726562 410.570312 383.308594 408.925781 394.820312 C 407.664062 403.644531 406.761719 412.527344 405.003906 421.273438 C 403.820312 427.152344 403.050781 433.117188 401.472656 438.917969 C 401.144531 440.125 400.851562 441.355469 400.394531 442.515625 C 399.238281 445.429688 399.078125 448.535156 398.453125 451.550781 C 396.652344 460.273438 394.238281 468.871094 392.457031 477.59375 C 391.398438 482.777344 390.066406 487.867188 387.453125 492.382812 C 384.300781 497.832031 382.273438 504.03125 377.613281 508.523438 C 371.453125 514.46875 364.804688 519.929688 356.476562 522.355469 C 347.371094 525.007812 338.175781 524.464844 329.339844 520.722656 C 319.988281 516.761719 312.082031 510.707031 305.597656 502.984375 C 293.878906 489.027344 286.3125 473.132812 284.324219 454.820312 C 282.859375 441.316406 285.058594 428.230469 288.878906 415.339844 C 289.457031 413.382812 289.816406 411.324219 290.851562 409.535156 C 294.824219 402.710938 297.617188 395.308594 301.265625 388.328125 C 301.550781 387.785156 301.59375 386.972656 302.78125 387.328125 C 303.355469 387.5 303.753906 386.234375 304.058594 385.535156 C 306.035156 381.035156 309.445312 377.4375 311.582031 372.9375 C 312.484375 373.722656 311.914062 375.128906 313.316406 375.328125 C 313.828125 375.398438 313.496094 376.144531 313.320312 376.527344 C 310.578125 382.5 309.289062 389.101562 305.414062 394.605469 C 303.84375 396.839844 303.589844 399.660156 302.6875 402.199219 C 299.8125 410.292969 297.179688 418.453125 295.597656 426.910156 C 294.558594 432.464844 293.96875 438.070312 294.132812 443.75 C 294.941406 427.277344 299.300781 411.808594 306.847656 396.640625 C 307.425781 398.046875 306.695312 398.679688 306.726562 399.410156 C 307.808594 399.792969 308.375 398.917969 309.195312 398.117188 C 309.324219 400.4375 308.308594 402.238281 308.171875 404.179688 C 308.128906 404.765625 307.390625 405.570312 308.8125 405.917969 C 309.617188 406.117188 308.894531 407.226562 308.6875 407.835938 C 306.429688 414.464844 304.523438 421.1875 303.128906 428.050781 C 300.15625 442.664062 301.203125 456.929688 306.921875 470.773438 C 307.246094 471.5625 307.671875 472.3125 308.058594 473.078125 C 308.175781 473.304688 308.328125 473.511719 308.8125 473.621094 C 308.570312 472.957031 308.390625 472.257812 308.078125 471.628906 C 307.035156 469.527344 306.683594 467.238281 306.222656 464.976562 C 306.148438 464.613281 306.097656 464.074219 306.296875 463.847656 C 308.246094 461.640625 307.816406 459.050781 307.402344 456.550781 C 306.722656 452.421875 306.371094 448.355469 307.488281 444.222656 C 307.910156 442.660156 307.683594 440.933594 307.917969 439.304688 C 308.640625 434.304688 310 429.414062 311.492188 424.640625 C 313.449219 418.375 315.488281 412.09375 318.164062 406.074219 C 319.082031 404.003906 319.960938 401.792969 322.84375 401.558594 C 321.523438 405.195312 320.332031 408.894531 318.847656 412.46875 C 315.941406 419.464844 313.671875 426.679688 312.804688 434.167969 C 311.664062 444.023438 311.371094 453.953125 315.1875 463.4375 C 317.136719 468.277344 320.128906 472.507812 323.847656 476.914062 C 323.703125 474.84375 322.238281 473.734375 322.570312 471.960938 C 324.574219 474.449219 326.46875 476.847656 328.417969 479.203125 C 331.121094 482.476562 334.144531 485.410156 337.636719 487.847656 C 339.5625 489.195312 341.71875 489.972656 343.976562 490.519531 C 345.964844 491.003906 347.621094 490.128906 349.125 489.023438 C 352.507812 486.539062 354.820312 483.199219 356.5 479.390625 C 358.0625 475.839844 359.816406 472.363281 360.59375 468.507812 C 360.894531 467.019531 361.515625 465.628906 362.25 464.296875 C 361.621094 466.238281 362.214844 468.347656 361.367188 470.265625 C 363.34375 467.3125 363.765625 463.96875 364.066406 460.199219 C 363.464844 461.257812 363.046875 461.988281 362.628906 462.722656 Z M 393.308594 277.355469 C 392.761719 297.441406 390.929688 317.464844 390.609375 337.558594 C 392.445312 317.535156 392.429688 297.425781 393.308594 277.355469 Z M 388.644531 289.28125 C 386.402344 296.902344 387.769531 304.285156 386.929688 311.511719 C 388.042969 304.304688 388.902344 297.082031 388.644531 289.28125 Z M 389.320312 357.207031 C 390.1875 351.683594 390.21875 346.109375 390.320312 340.542969 C 389.792969 346.085938 389.050781 351.617188 389.320312 357.207031 Z M 388.671875 362.871094 C 387.566406 367.902344 387.558594 373.023438 387.378906 378.128906 C 387.746094 373.039062 388.730469 367.996094 388.671875 362.871094 Z M 342.390625 284.839844 C 344.890625 285.8125 346.632812 284.417969 349.078125 283.917969 C 346.46875 283.375 344.582031 283.863281 342.390625 284.839844 Z M 360.378906 472.855469 C 359.75 474.476562 358.441406 475.953125 359.308594 477.980469 C 360.609375 476.390625 360.519531 474.617188 360.378906 472.855469 Z M 381.476562 277.949219 C 383.402344 278.667969 384.59375 277.429688 385.957031 277.121094 C 386.015625 277.105469 386.074219 276.722656 385.996094 276.59375 C 385.925781 276.476562 385.625 276.382812 385.5 276.4375 C 384.308594 276.957031 382.875 276.777344 381.476562 277.949219 Z M 378.054688 389.167969 C 377.347656 390.664062 377.515625 391.839844 377.464844 392.984375 C 377.449219 393.335938 377.585938 393.667969 377.96875 393.6875 C 378.367188 393.710938 378.445312 393.359375 378.519531 393.027344 C 378.78125 391.828125 378.128906 390.761719 378.054688 389.167969 Z M 364.359375 274.574219 C 361.855469 274.933594 360.082031 275.671875 358.328125 276.46875 C 360.183594 276.007812 362.203125 276.085938 364.359375 274.574219 Z M 388.371094 285.691406 C 388.535156 284.132812 388.699219 282.574219 388.867188 281.015625 C 387.890625 282.511719 388.273438 284.113281 388.371094 285.691406 Z M 388.371094 285.691406 " fill-opacity="1" fill-rule="nonzero"/><path fill="#393536" d="M 380.472656 364.699219 C 380.125 363.328125 380.085938 361.945312 380.761719 360.023438 C 380.996094 361.976562 381.023438 363.335938 380.472656 364.699219 Z M 380.472656 364.699219 " fill-opacity="1" fill-rule="nonzero"/></svg>