<svg xmlns="http://www.w3.org/2000/svg" xmlns:xlink="http://www.w3.org/1999/xlink" width="1000" zoomAndPan="magnify" viewBox="0 0 750 749.999995" height="1000" preserveAspectRatio="xMidYMid meet" version="1.0"><rect x="-75" width="900" fill="#ffffff" y="-74.999999" height="899.999994" fill-opacity="1"/><rect x="-75" width="900" fill="#ffffff" y="-74.999999" height="899.999994" fill-opacity="1"/><path fill="#393536" d="M 289.285156 225 C 253.78125 225 225 253.78125 225 289.285156 L 225 460.714844 C 225 496.21875 253.78125 525 289.285156 525 L 460.714844 525 C 496.21875 525 525 496.21875 525 460.714844 L 525 289.285156 C 525 253.78125 496.21875 225 460.714844 225 Z M 316.070312 275.894531 C 308.675781 275.894531 302.679688 281.890625 302.679688 289.285156 C 302.679688 296.683594 308.675781 302.679688 316.070312 302.679688 L 420.535156 302.679688 L 420.535156 385.714844 C 420.535156 419.738281 392.953125 447.320312 358.929688 447.320312 L 316.070312 447.320312 C 308.675781 447.320312 302.679688 453.316406 302.679688 460.714844 C 302.679688 468.109375 308.675781 474.105469 316.070312 474.105469 L 358.929688 474.105469 C 407.746094 474.105469 447.320312 434.53125 447.320312 385.714844 L 447.320312 300 C 447.320312 286.6875 436.527344 275.894531 423.214844 275.894531 Z M 316.070312 275.894531 " fill-opacity="1" fill-rule="evenodd"/></svg>