<svg xmlns="http://www.w3.org/2000/svg" xmlns:xlink="http://www.w3.org/1999/xlink" width="1000" zoomAndPan="magnify" viewBox="0 0 750 749.999995" height="1000" preserveAspectRatio="xMidYMid meet" version="1.0"><defs><clipPath id="fbaf7eb6f2"><path d="M 281 277 L 525 277 L 525 480.375 L 281 480.375 Z M 281 277 " clip-rule="nonzero"/></clipPath><clipPath id="5586b59846"><path d="M 225 269.625 L 390 269.625 L 390 388 L 225 388 Z M 225 269.625 " clip-rule="nonzero"/></clipPath></defs><rect x="-75" width="900" fill="#ffffff" y="-74.999999" height="899.999994" fill-opacity="1"/><rect x="-75" width="900" fill="#ffffff" y="-74.999999" height="899.999994" fill-opacity="1"/><g clip-path="url(#fbaf7eb6f2)"><path fill="#393536" d="M 339.210938 351.652344 L 339.210938 392.234375 C 339.210938 421.511719 329.910156 435.742188 310.78125 435.742188 C 301.746094 435.742188 293.484375 432.9375 286.210938 427.40625 L 281.9375 424.171875 L 281.9375 473.957031 L 283.605469 474.632812 C 292.878906 478.402344 303.121094 480.308594 314.015625 480.308594 C 338.4375 480.308594 357.425781 472.75 370.398438 457.867188 C 376.871094 450.453125 381.800781 441.273438 385.035156 430.621094 C 388.226562 420.0625 389.84375 407.769531 389.84375 394.070312 L 389.84375 352.644531 L 525 277.105469 L 389.84375 331.3125 Z M 339.210938 351.652344 " fill-opacity="1" fill-rule="nonzero"/></g><g clip-path="url(#5586b59846)"><path fill="#ff66c4" d="M 389.820312 321.554688 L 389.820312 269.691406 L 339.210938 269.691406 L 339.210938 323.847656 L 225 387.671875 L 339.210938 341.871094 Z M 389.820312 321.554688 " fill-opacity="1" fill-rule="nonzero"/></g></svg>