<svg xmlns="http://www.w3.org/2000/svg" xmlns:xlink="http://www.w3.org/1999/xlink" width="1000" zoomAndPan="magnify" viewBox="0 0 750 749.999995" height="1000" preserveAspectRatio="xMidYMid meet" version="1.0"><rect x="-75" width="900" fill="#ffffff" y="-74.999999" height="899.999994" fill-opacity="1"/><rect x="-75" width="900" fill="#ffffff" y="-74.999999" height="899.999994" fill-opacity="1"/><path fill="#393536" d="M 375 225 C 292.160156 225 225 292.160156 225 375 C 225 457.839844 292.160156 525 375 525 C 457.839844 525 525 457.839844 525 375 C 525 292.160156 457.839844 225 375 225 Z M 418.101562 380.28125 C 418.101562 397.300781 416.578125 410.398438 413.601562 419.199219 C 410.679688 427.78125 404.699219 435.179688 395.820312 441.179688 C 386.898438 447.199219 375.28125 450.261719 361.238281 450.261719 C 346.28125 450.261719 334.578125 448.238281 326.480469 444.238281 C 318.460938 440.300781 312.160156 434.441406 307.800781 426.839844 C 303.621094 419.578125 301.019531 410.558594 300.078125 399.980469 L 340.859375 394.421875 C 341.019531 400.238281 341.621094 404.601562 342.679688 407.699219 C 343.921875 411.320312 346.019531 414.28125 348.960938 416.519531 C 351.121094 418.101562 354.101562 418.898438 357.839844 418.898438 C 363.800781 418.898438 368.261719 416.621094 371.078125 412.121094 C 373.761719 407.859375 375.058594 401.058594 375.058594 391.339844 L 375.058594 299.738281 L 418.121094 299.738281 L 418.121094 380.28125 Z M 418.101562 380.28125 " fill-opacity="1" fill-rule="nonzero"/></svg>