<svg xmlns="http://www.w3.org/2000/svg" xmlns:xlink="http://www.w3.org/1999/xlink" width="1000" zoomAndPan="magnify" viewBox="0 0 750 749.999995" height="1000" preserveAspectRatio="xMidYMid meet" version="1.0"><defs><g/></defs><rect x="-75" width="900" fill="#ffffff" y="-74.999999" height="899.999994" fill-opacity="1"/><rect x="-75" width="900" fill="#698cbb" y="-74.999999" height="899.999994" fill-opacity="1"/><path fill="#000000" d="M 462.964844 363.71875 C 463.390625 360.464844 469.386719 355.648438 469.582031 352.371094 C 469.929688 346.410156 461.875 334.746094 456.34375 332.507812 C 447.5625 328.953125 402.925781 330.617188 402.925781 330.617188 C 398.5625 322.988281 410.699219 304.152344 414.035156 296.015625 C 418.9375 284.097656 418.109375 268.28125 411.914062 260.160156 C 404.34375 250.234375 390.453125 249.570312 390.164062 254.015625 C 388.097656 286.226562 381.929688 295.164062 373.675781 301.535156 C 368.71875 305.359375 364.382812 308.707031 362.097656 314.539062 C 348.03125 350.378906 337.605469 358.675781 331.644531 358.675781 L 327.671875 358.675781 L 327.671875 440.132812 L 369.371094 447.890625 C 369.371094 447.890625 421.140625 452.792969 437.441406 447.890625 C 442.570312 446.351562 451.421875 438.648438 453.515625 433.703125 C 454.710938 430.863281 453.050781 424.148438 454.464844 421.40625 C 456.546875 417.347656 465.347656 412.265625 465.339844 406.75 C 465.332031 402.816406 460.75 396.011719 461.082031 392.089844 C 461.414062 388.164062 469.597656 382.78125 469.589844 378.847656 C 469.574219 374.722656 462.421875 367.8125 462.964844 363.71875 Z M 462.964844 363.71875 " fill-opacity="1" fill-rule="nonzero"/><path fill="#000000" d="M 319.730469 438.144531 C 319.730469 442.535156 316.171875 446.09375 311.785156 446.09375 L 287.953125 446.09375 C 283.566406 446.09375 280.007812 442.535156 280.007812 438.144531 L 280.007812 362.648438 C 280.007812 358.257812 283.566406 354.699219 287.953125 354.699219 L 311.785156 354.699219 C 316.171875 354.699219 319.730469 358.257812 319.730469 362.648438 Z M 319.730469 438.144531 " fill-opacity="1" fill-rule="nonzero"/><g fill="#ffffff" fill-opacity="1"><g transform="translate(291.943347, 491.651012)"><g><path d="M 27.28125 -14.546875 C 27.28125 -9.847656 25.941406 -6.25 23.265625 -3.75 C 20.597656 -1.25 16.738281 0 11.6875 0 L 3.59375 0 L 3.59375 -28.5625 L 12.5625 -28.5625 C 17.21875 -28.5625 20.832031 -27.328125 23.40625 -24.859375 C 25.988281 -22.398438 27.28125 -18.960938 27.28125 -14.546875 Z M 21 -14.390625 C 21 -20.523438 18.289062 -23.59375 12.875 -23.59375 L 9.65625 -23.59375 L 9.65625 -5 L 12.25 -5 C 18.082031 -5 21 -8.128906 21 -14.390625 Z M 21 -14.390625 "/></g></g></g><g fill="#ffffff" fill-opacity="1"><g transform="translate(321.549829, 491.651012)"><g><path d="M 2.875 -27.484375 C 2.875 -29.421875 3.953125 -30.390625 6.109375 -30.390625 C 8.273438 -30.390625 9.359375 -29.421875 9.359375 -27.484375 C 9.359375 -26.554688 9.085938 -25.832031 8.546875 -25.3125 C 8.003906 -24.800781 7.191406 -24.546875 6.109375 -24.546875 C 3.953125 -24.546875 2.875 -25.523438 2.875 -27.484375 Z M 9.078125 0 L 3.125 0 L 3.125 -21.84375 L 9.078125 -21.84375 Z M 9.078125 0 "/></g></g></g><g fill="#ffffff" fill-opacity="1"><g transform="translate(333.755673, 491.651012)"><g><path d="M 22.125 -21.84375 L 22.125 -18.8125 L 18.71875 -17.9375 C 19.34375 -16.957031 19.65625 -15.863281 19.65625 -14.65625 C 19.65625 -12.3125 18.835938 -10.484375 17.203125 -9.171875 C 15.566406 -7.859375 13.296875 -7.203125 10.390625 -7.203125 L 9.3125 -7.265625 L 8.4375 -7.359375 C 7.820312 -6.890625 7.515625 -6.367188 7.515625 -5.796875 C 7.515625 -4.941406 8.609375 -4.515625 10.796875 -4.515625 L 14.515625 -4.515625 C 16.910156 -4.515625 18.734375 -4 19.984375 -2.96875 C 21.242188 -1.9375 21.875 -0.425781 21.875 1.5625 C 21.875 4.113281 20.804688 6.09375 18.671875 7.5 C 16.546875 8.90625 13.492188 9.609375 9.515625 9.609375 C 6.460938 9.609375 4.132812 9.078125 2.53125 8.015625 C 0.925781 6.953125 0.125 5.46875 0.125 3.5625 C 0.125 2.238281 0.53125 1.132812 1.34375 0.25 C 2.164062 -0.632812 3.375 -1.265625 4.96875 -1.640625 C 4.351562 -1.898438 3.816406 -2.328125 3.359375 -2.921875 C 2.898438 -3.515625 2.671875 -4.144531 2.671875 -4.8125 C 2.671875 -5.644531 2.910156 -6.335938 3.390625 -6.890625 C 3.878906 -7.441406 4.578125 -7.984375 5.484375 -8.515625 C 4.335938 -9.015625 3.429688 -9.8125 2.765625 -10.90625 C 2.097656 -12 1.765625 -13.285156 1.765625 -14.765625 C 1.765625 -17.148438 2.535156 -18.992188 4.078125 -20.296875 C 5.628906 -21.597656 7.84375 -22.25 10.71875 -22.25 C 11.332031 -22.25 12.054688 -22.191406 12.890625 -22.078125 C 13.734375 -21.972656 14.273438 -21.894531 14.515625 -21.84375 Z M 5.28125 3.09375 C 5.28125 3.90625 5.671875 4.546875 6.453125 5.015625 C 7.242188 5.484375 8.347656 5.71875 9.765625 5.71875 C 11.898438 5.71875 13.570312 5.425781 14.78125 4.84375 C 16 4.257812 16.609375 3.457031 16.609375 2.4375 C 16.609375 1.625 16.25 1.0625 15.53125 0.75 C 14.8125 0.4375 13.703125 0.28125 12.203125 0.28125 L 9.125 0.28125 C 8.03125 0.28125 7.113281 0.535156 6.375 1.046875 C 5.644531 1.554688 5.28125 2.238281 5.28125 3.09375 Z M 7.4375 -14.6875 C 7.4375 -13.5 7.707031 -12.5625 8.25 -11.875 C 8.789062 -11.1875 9.613281 -10.84375 10.71875 -10.84375 C 11.84375 -10.84375 12.664062 -11.1875 13.1875 -11.875 C 13.707031 -12.5625 13.96875 -13.5 13.96875 -14.6875 C 13.96875 -17.320312 12.882812 -18.640625 10.71875 -18.640625 C 8.53125 -18.640625 7.4375 -17.320312 7.4375 -14.6875 Z M 7.4375 -14.6875 "/></g></g></g><g fill="#ffffff" fill-opacity="1"><g transform="translate(356.351127, 491.651012)"><g><path d="M 2.875 -27.484375 C 2.875 -29.421875 3.953125 -30.390625 6.109375 -30.390625 C 8.273438 -30.390625 9.359375 -29.421875 9.359375 -27.484375 C 9.359375 -26.554688 9.085938 -25.832031 8.546875 -25.3125 C 8.003906 -24.800781 7.191406 -24.546875 6.109375 -24.546875 C 3.953125 -24.546875 2.875 -25.523438 2.875 -27.484375 Z M 9.078125 0 L 3.125 0 L 3.125 -21.84375 L 9.078125 -21.84375 Z M 9.078125 0 "/></g></g></g><g fill="#ffffff" fill-opacity="1"><g transform="translate(368.556972, 491.651012)"><g><path d="M 18.359375 -6.484375 C 18.359375 -4.242188 17.578125 -2.535156 16.015625 -1.359375 C 14.460938 -0.191406 12.140625 0.390625 9.046875 0.390625 C 7.453125 0.390625 6.09375 0.28125 4.96875 0.0625 C 3.851562 -0.144531 2.8125 -0.457031 1.84375 -0.875 L 1.84375 -5.796875 C 2.945312 -5.273438 4.191406 -4.835938 5.578125 -4.484375 C 6.960938 -4.140625 8.179688 -3.96875 9.234375 -3.96875 C 11.398438 -3.96875 12.484375 -4.59375 12.484375 -5.84375 C 12.484375 -6.3125 12.335938 -6.691406 12.046875 -6.984375 C 11.765625 -7.273438 11.269531 -7.601562 10.5625 -7.96875 C 9.863281 -8.34375 8.925781 -8.78125 7.75 -9.28125 C 6.070312 -9.976562 4.835938 -10.625 4.046875 -11.21875 C 3.265625 -11.820312 2.691406 -12.507812 2.328125 -13.28125 C 1.972656 -14.0625 1.796875 -15.019531 1.796875 -16.15625 C 1.796875 -18.09375 2.546875 -19.59375 4.046875 -20.65625 C 5.554688 -21.71875 7.691406 -22.25 10.453125 -22.25 C 13.078125 -22.25 15.632812 -21.675781 18.125 -20.53125 L 16.328125 -16.234375 C 15.234375 -16.703125 14.210938 -17.082031 13.265625 -17.375 C 12.316406 -17.675781 11.347656 -17.828125 10.359375 -17.828125 C 8.597656 -17.828125 7.71875 -17.351562 7.71875 -16.40625 C 7.71875 -15.875 8 -15.410156 8.5625 -15.015625 C 9.132812 -14.628906 10.375 -14.050781 12.28125 -13.28125 C 13.988281 -12.59375 15.238281 -11.945312 16.03125 -11.34375 C 16.832031 -10.75 17.421875 -10.0625 17.796875 -9.28125 C 18.171875 -8.5 18.359375 -7.566406 18.359375 -6.484375 Z M 18.359375 -6.484375 "/></g></g></g><g fill="#ffffff" fill-opacity="1"><g transform="translate(388.437842, 491.651012)"><g><path d="M 0 -21.84375 L 6.53125 -21.84375 L 10.640625 -9.546875 C 10.992188 -8.484375 11.238281 -7.222656 11.375 -5.765625 L 11.484375 -5.765625 C 11.628906 -7.109375 11.910156 -8.367188 12.328125 -9.546875 L 16.375 -21.84375 L 22.75 -21.84375 L 13.515625 2.796875 C 12.671875 5.078125 11.460938 6.78125 9.890625 7.90625 C 8.328125 9.039062 6.492188 9.609375 4.390625 9.609375 C 3.367188 9.609375 2.363281 9.5 1.375 9.28125 L 1.375 4.546875 C 2.082031 4.722656 2.863281 4.8125 3.71875 4.8125 C 4.769531 4.8125 5.6875 4.488281 6.46875 3.84375 C 7.257812 3.195312 7.878906 2.222656 8.328125 0.921875 L 8.671875 -0.15625 Z M 0 -21.84375 "/></g></g></g><g fill="#ffffff" fill-opacity="1"><g transform="translate(411.189531, 491.651012)"><g><path d="M 23.28125 0 L 17.328125 0 L 17.328125 -12.75 C 17.328125 -14.332031 17.046875 -15.515625 16.484375 -16.296875 C 15.921875 -17.085938 15.03125 -17.484375 13.8125 -17.484375 C 12.144531 -17.484375 10.9375 -16.925781 10.1875 -15.8125 C 9.445312 -14.695312 9.078125 -12.851562 9.078125 -10.28125 L 9.078125 0 L 3.125 0 L 3.125 -21.84375 L 7.671875 -21.84375 L 8.484375 -19.046875 L 8.8125 -19.046875 C 9.476562 -20.097656 10.390625 -20.894531 11.546875 -21.4375 C 12.710938 -21.976562 14.039062 -22.25 15.53125 -22.25 C 18.070312 -22.25 20 -21.5625 21.3125 -20.1875 C 22.625 -18.8125 23.28125 -16.828125 23.28125 -14.234375 Z M 23.28125 0 "/></g></g></g><g fill="#ffffff" fill-opacity="1"><g transform="translate(437.476024, 491.651012)"><g><path d="M 12 0.390625 C 5.195312 0.390625 1.796875 -3.335938 1.796875 -10.796875 C 1.796875 -14.515625 2.71875 -17.351562 4.5625 -19.3125 C 6.414062 -21.269531 9.066406 -22.25 12.515625 -22.25 C 15.046875 -22.25 17.3125 -21.753906 19.3125 -20.765625 L 17.5625 -16.15625 C 16.625 -16.53125 15.75 -16.835938 14.9375 -17.078125 C 14.132812 -17.316406 13.328125 -17.4375 12.515625 -17.4375 C 9.421875 -17.4375 7.875 -15.238281 7.875 -10.84375 C 7.875 -6.570312 9.421875 -4.4375 12.515625 -4.4375 C 13.660156 -4.4375 14.722656 -4.585938 15.703125 -4.890625 C 16.679688 -5.203125 17.660156 -5.679688 18.640625 -6.328125 L 18.640625 -1.234375 C 17.671875 -0.617188 16.691406 -0.195312 15.703125 0.03125 C 14.722656 0.269531 13.488281 0.390625 12 0.390625 Z M 12 0.390625 "/></g></g></g></svg>