<svg xmlns="http://www.w3.org/2000/svg" xmlns:xlink="http://www.w3.org/1999/xlink" width="1000" zoomAndPan="magnify" viewBox="0 0 750 749.999995" height="1000" preserveAspectRatio="xMidYMid meet" version="1.0"><defs><g/><clipPath id="0089db3e13"><path d="M 313 244.308594 L 436 244.308594 L 436 361 L 313 361 Z M 313 244.308594 " clip-rule="nonzero"/></clipPath></defs><rect x="-75" width="900" fill="#ffffff" y="-74.999999" height="899.999994" fill-opacity="1"/><rect x="-75" width="900" fill="#1a1a1a" y="-74.999999" height="899.999994" fill-opacity="1"/><g clip-path="url(#0089db3e13)"><path fill="#dd00ae" d="M 429.019531 275.441406 C 423.042969 263.78125 413.445312 255.757812 401.914062 249.972656 C 398.160156 248.089844 394.214844 246.539062 390.046875 245.640625 C 386.152344 244.800781 382.183594 244.332031 378.265625 244.359375 C 370.902344 244.414062 363.570312 245.421875 356.96875 248.945312 C 349.441406 252.964844 342.019531 257.210938 334.726562 261.640625 C 327.425781 266.074219 320.621094 271.121094 316.316406 278.855469 C 313.394531 284.101562 312.417969 289.550781 313.738281 295.421875 C 314.246094 297.675781 314.65625 299.949219 317.089844 302.359375 C 313.09375 286.449219 320.96875 276.8125 332.246094 268.898438 C 330.023438 273.253906 326.738281 276.859375 324.683594 281.34375 C 320.691406 290.050781 318.101562 298.921875 317.945312 308.640625 C 317.746094 320.867188 322.4375 331.152344 329.878906 340.15625 C 339.394531 351.671875 352.332031 357.585938 366.875 359.957031 C 378.101562 361.792969 389.074219 359.953125 399.761719 356.480469 C 411.019531 352.816406 419.835938 345.832031 425.808594 335.605469 C 429.1875 329.828125 431.421875 323.488281 433.316406 317.050781 C 437.574219 302.578125 435.816406 288.703125 429.019531 275.441406 Z M 416.925781 339.652344 C 411.578125 345.144531 404.316406 347.871094 396.976562 349.71875 C 387.144531 352.1875 377.152344 352.921875 367.132812 350.53125 C 356.878906 348.082031 347.644531 343.722656 340.070312 336.207031 C 339.433594 335.574219 338.640625 335.097656 337.910156 334.558594 C 337.808594 335.566406 338.402344 336.25 339.082031 336.875 C 348.308594 345.363281 358.84375 351.382812 371.4375 352.914062 C 383.09375 354.328125 394.515625 353 405.472656 348.511719 C 405.882812 348.34375 406.328125 348.265625 407.058594 348.058594 C 406.25 349.832031 404.660156 349.820312 403.515625 350.347656 C 388.558594 357.269531 373.109375 358.328125 357.375 353.585938 C 350.023438 351.371094 343.375 347.472656 337.609375 342.460938 C 332.503906 338.027344 328.640625 332.492188 325.769531 326.273438 C 320.503906 314.851562 320.996094 303.457031 324.835938 291.722656 C 328.566406 280.3125 335.171875 270.941406 343.640625 262.71875 C 346.777344 259.671875 350.960938 258.332031 355.03125 257.316406 C 362.433594 255.46875 369.980469 254.144531 377.679688 255.234375 C 393.480469 257.472656 406.921875 263.996094 417.015625 276.75 C 421.699219 282.667969 425.554688 289.085938 427.148438 296.40625 C 430.617188 312.339844 428.851562 327.402344 416.925781 339.652344 Z M 408.8125 262.824219 C 395.246094 253.074219 380.191406 248.714844 363.429688 250.996094 C 379.140625 245.558594 393.875 248.414062 407.460938 257.097656 C 424.0625 267.710938 432.945312 282.996094 433.179688 302.90625 C 430.378906 286.335938 422.585938 272.722656 408.8125 262.824219 Z M 408.8125 262.824219 " fill-opacity="1" fill-rule="nonzero"/></g><path fill="#dd00ae" d="M 337.84375 334.511719 C 337.867188 334.527344 337.890625 334.542969 337.910156 334.558594 C 337.914062 334.519531 337.914062 334.480469 337.917969 334.441406 Z M 337.84375 334.511719 " fill-opacity="1" fill-rule="nonzero"/><path fill="#dd00ae" d="M 396.125 301.144531 C 390.734375 302.929688 385.09375 302.050781 379.609375 302.773438 C 377.863281 303.003906 377.5 302.175781 377.527344 300.691406 C 377.578125 297.96875 377.542969 295.242188 377.542969 292.519531 C 378.582031 286.460938 377.0625 280.496094 376.964844 274.476562 C 376.945312 273.183594 376.527344 272.238281 375.011719 272.300781 C 373.636719 272.355469 373.339844 273.320312 373.28125 274.4375 C 373.246094 275.09375 373.207031 275.761719 373.265625 276.417969 C 374 284.5625 372.347656 292.542969 371.625 300.585938 C 371.488281 302.132812 371.140625 303.199219 369.152344 303.207031 C 362.753906 303.246094 356.359375 303.5 349.960938 303.585938 C 347.773438 303.613281 345.558594 304.167969 345.484375 306.457031 C 345.394531 309.128906 347.976562 308.777344 349.789062 308.722656 C 356 308.539062 362.222656 308.390625 368.414062 307.917969 C 370.96875 307.722656 371.300781 308.753906 371.128906 310.792969 C 370.691406 315.871094 371.210938 320.9375 371.34375 326.011719 C 371.371094 327.015625 371.128906 328.324219 372.1875 328.851562 C 373.757812 329.636719 373.515625 330.957031 373.558594 332.226562 C 373.605469 333.453125 373.511719 334.679688 373.554688 335.902344 C 373.59375 336.953125 373.738281 338.25 374.996094 338.3125 C 376.519531 338.386719 376.34375 336.953125 376.269531 335.988281 C 375.589844 327.105469 377.050781 318.320312 377.394531 309.488281 C 377.457031 307.875 377.851562 307.175781 379.628906 307.113281 C 385.277344 306.917969 390.921875 306.53125 396.566406 306.210938 C 398.949219 306.078125 400.605469 304.613281 400.164062 302.875 C 399.601562 300.667969 397.929688 300.542969 396.125 301.144531 Z M 396.125 301.144531 " fill-opacity="1" fill-rule="nonzero"/><path fill="#dd00ae" d="M 337.839844 334.511719 C 337.84375 334.511719 337.917969 334.441406 337.917969 334.441406 C 337.851562 334.410156 337.789062 334.375 337.722656 334.34375 C 337.761719 334.402344 337.800781 334.457031 337.839844 334.511719 Z M 337.839844 334.511719 " fill-opacity="1" fill-rule="nonzero"/><path fill="#dd00ae" d="M 337.722656 334.34375 C 335.679688 331.46875 333.640625 328.585938 331.601562 325.707031 C 333.179688 328.929688 334.070312 332.667969 337.722656 334.34375 Z M 337.722656 334.34375 " fill-opacity="1" fill-rule="nonzero"/><g fill="#dd00ae" fill-opacity="1"><g transform="translate(166.87913, 462.858878)"><g><path d="M 40.464844 -28.578125 C 40.464844 -28.578125 36.070312 -39.390625 35.667969 -40.285156 C 35.261719 -41.183594 26.199219 -59.488281 26.199219 -59.488281 L 26.15625 -59.535156 C 18.976562 -61.191406 9.871094 -60.789062 9.871094 -60.789062 L 7.625 -60.117188 C 7.625 -60.117188 6.460938 -20.90625 7.941406 -1.613281 L 9.464844 0.449219 L 20.816406 0.941406 L 22.253906 0.492188 C 22.253906 0.492188 22.519531 -8.660156 22.476562 -9.601562 C 22.476562 -10.542969 21.984375 -23.824219 21.984375 -23.824219 C 21.984375 -23.824219 29.699219 -10.09375 30.191406 -9.285156 C 30.6875 -8.480469 36.382812 0.898438 36.382812 0.898438 L 53.65625 1.390625 C 53.65625 1.390625 55.449219 -66.578125 54.867188 -66.710938 C 47.691406 -68.371094 43.070312 -67.96875 43.070312 -67.96875 C 43.070312 -67.96875 41.050781 -67.878906 40.824219 -67.292969 Z M 40.464844 -28.578125 "/></g></g></g><g fill="#dd00ae" fill-opacity="1"><g transform="translate(225.646216, 462.858878)"><g><path d="M 51.503906 -49.976562 C 53.789062 -57.019531 51.726562 -67.160156 51.726562 -67.160156 L 48.902344 -67.339844 L 10.410156 -66.351562 C 10.410156 -66.351562 8.75 -62.761719 8.570312 -59.890625 C 8.390625 -57.019531 8.121094 -11.441406 10.140625 -6.054688 C 11.125 -3.410156 12.023438 -0.671875 13.011719 -0.449219 C 13.996094 -0.222656 25.390625 0.671875 40.019531 0.539062 C 54.644531 0.402344 51.414062 0.761719 51.414062 0.761719 L 50.964844 -11.976562 C 50.964844 -11.976562 48.855469 -13.371094 48.945312 -13.28125 C 49.035156 -13.191406 50.203125 -13.101562 50.203125 -13.101562 L 28.308594 -13.28125 L 27.1875 -14.492188 L 27.5 -25.839844 C 42.125 -25.976562 49.617188 -26.515625 49.617188 -26.515625 L 49.617188 -32.078125 C 49.617188 -32.078125 48.855469 -36.609375 48.945312 -36.519531 C 49.035156 -36.429688 43.472656 -36.339844 43.472656 -36.339844 L 31.851562 -36.292969 C 29.878906 -41.855469 30.417969 -48.675781 30.417969 -48.675781 C 48.542969 -49.574219 51.503906 -49.976562 51.503906 -49.976562 Z M 51.503906 -49.976562 "/></g></g></g><g fill="#dd00ae" fill-opacity="1"><g transform="translate(285.445091, 462.858878)"><g><path d="M 27.410156 -0.269531 C 27.410156 -0.269531 31.402344 -6.59375 36.742188 -15.027344 C 39.570312 -11.441406 44.863281 -4.21875 47.015625 -1.75 L 49.484375 -0.988281 L 58.320312 -7.535156 C 58.320312 -7.535156 50.785156 -18.4375 44.503906 -27.277344 C 53.699219 -41.945312 62.316406 -54.867188 62.089844 -55.09375 C 56.75 -60.160156 43.742188 -67.519531 43.742188 -67.519531 L 41.453125 -68.101562 C 41.453125 -68.101562 36.292969 -60.699219 29.070312 -48.902344 C 22.164062 -58.546875 16.554688 -66.21875 16.375 -66.128906 C 9.601562 -63.167969 6.144531 -60.070312 6.144531 -60.070312 L 4.753906 -58.1875 C 4.753906 -58.1875 12.203125 -47.691406 21.128906 -35.621094 C 16.285156 -27.457031 11.710938 -19.46875 8.929688 -13.816406 L 9.152344 -11.261719 Z M 27.410156 -0.269531 "/></g></g></g><g fill="#dd00ae" fill-opacity="1"><g transform="translate(350.402907, 462.858878)"><g><path d="M 3.859375 -28.265625 C 4.933594 -28.351562 13.726562 -28.578125 18.84375 -28.800781 C 18.886719 -18.527344 19.066406 -10.183594 19.605469 -3.410156 L 21.128906 -1.347656 L 32.121094 -0.402344 C 32.121094 -0.402344 32.527344 -13.996094 32.882812 -29.519531 C 41.722656 -29.96875 45.671875 -30.417969 50.113281 -30.6875 C 51.007812 -36.382812 49.664062 -62.136719 49.347656 -66.308594 C 41.542969 -67.203125 11.261719 -69.582031 3.453125 -68.597656 C 3.453125 -68.597656 0.539062 -43.472656 3.859375 -28.265625 Z M 3.859375 -28.265625 "/></g></g></g><g fill="#dd00ae" fill-opacity="1"><g transform="translate(402.979248, 462.858878)"><g><path d="M 6.144531 -69.492188 C 6.144531 -69.492188 -0.359375 -20.097656 11.304688 2.109375 C 11.304688 2.109375 36.832031 0 48.003906 -1.347656 L 48.273438 -13.726562 L 54.644531 -14.222656 L 53.613281 -26.066406 C 41.8125 -27.140625 29.609375 -24.71875 29.609375 -24.71875 L 30.011719 -19.113281 L 34.8125 -18.796875 L 35.171875 -11.394531 C 33.738281 -11.351562 32.03125 -11.304688 29.878906 -11.304688 C 29.027344 -11.304688 20.546875 -11.53125 19.875 -12.5625 C 19.515625 -13.324219 18.078125 -28.351562 18.078125 -28.351562 C 18.078125 -28.351562 17.675781 -31.179688 19.425781 -33.648438 C 20.949219 -35.800781 38.761719 -35.082031 41.679688 -35.621094 C 41.679688 -35.488281 41.722656 -35.488281 41.765625 -35.621094 L 41.679688 -35.621094 C 41.589844 -36.382812 42.753906 -43.203125 42.753906 -43.203125 C 42.753906 -47.242188 42.484375 -63.03125 42.171875 -67.203125 C 34.363281 -68.101562 13.953125 -70.480469 6.144531 -69.492188 Z M 6.144531 -69.492188 "/></g></g></g><g fill="#dd00ae" fill-opacity="1"><g transform="translate(458.650982, 462.858878)"><g><path d="M 51.503906 -49.976562 C 53.789062 -57.019531 51.726562 -67.160156 51.726562 -67.160156 L 48.902344 -67.339844 L 10.410156 -66.351562 C 10.410156 -66.351562 8.75 -62.761719 8.570312 -59.890625 C 8.390625 -57.019531 8.121094 -11.441406 10.140625 -6.054688 C 11.125 -3.410156 12.023438 -0.671875 13.011719 -0.449219 C 13.996094 -0.222656 25.390625 0.671875 40.019531 0.539062 C 54.644531 0.402344 51.414062 0.761719 51.414062 0.761719 L 50.964844 -11.976562 C 50.964844 -11.976562 48.855469 -13.371094 48.945312 -13.28125 C 49.035156 -13.191406 50.203125 -13.101562 50.203125 -13.101562 L 28.308594 -13.28125 L 27.1875 -14.492188 L 27.5 -25.839844 C 42.125 -25.976562 49.617188 -26.515625 49.617188 -26.515625 L 49.617188 -32.078125 C 49.617188 -32.078125 48.855469 -36.609375 48.945312 -36.519531 C 49.035156 -36.429688 43.472656 -36.339844 43.472656 -36.339844 L 31.851562 -36.292969 C 29.878906 -41.855469 30.417969 -48.675781 30.417969 -48.675781 C 48.542969 -49.574219 51.503906 -49.976562 51.503906 -49.976562 Z M 51.503906 -49.976562 "/></g></g></g><g fill="#dd00ae" fill-opacity="1"><g transform="translate(518.44987, 462.858878)"><g><path d="M 40.464844 -28.578125 C 40.464844 -28.578125 36.070312 -39.390625 35.667969 -40.285156 C 35.261719 -41.183594 26.199219 -59.488281 26.199219 -59.488281 L 26.15625 -59.535156 C 18.976562 -61.191406 9.871094 -60.789062 9.871094 -60.789062 L 7.625 -60.117188 C 7.625 -60.117188 6.460938 -20.90625 7.941406 -1.613281 L 9.464844 0.449219 L 20.816406 0.941406 L 22.253906 0.492188 C 22.253906 0.492188 22.519531 -8.660156 22.476562 -9.601562 C 22.476562 -10.542969 21.984375 -23.824219 21.984375 -23.824219 C 21.984375 -23.824219 29.699219 -10.09375 30.191406 -9.285156 C 30.6875 -8.480469 36.382812 0.898438 36.382812 0.898438 L 53.65625 1.390625 C 53.65625 1.390625 55.449219 -66.578125 54.867188 -66.710938 C 47.691406 -68.371094 43.070312 -67.96875 43.070312 -67.96875 C 43.070312 -67.96875 41.050781 -67.878906 40.824219 -67.292969 Z M 40.464844 -28.578125 "/></g></g></g><g fill="#dd00ae" fill-opacity="1"><g transform="translate(577.216956, 462.858878)"><g><path d="M 5.472656 -65.949219 C 4.398438 -44.371094 9.242188 1.882812 9.242188 1.882812 L 19.292969 0.988281 L 22.699219 -1.703125 L 29.96875 -67.652344 C 17.542969 -68.953125 5.472656 -65.949219 5.472656 -65.949219 Z M 22.96875 14.175781 C 22.96875 13.773438 22.96875 13.414062 22.746094 13.054688 C 21.625 10.496094 19.605469 10.003906 16.824219 10.003906 C 13.546875 10.003906 8.074219 11.441406 8.074219 15.253906 C 8.074219 18.707031 11.890625 20.816406 14.9375 20.816406 C 18.304688 20.816406 22.96875 17.542969 22.96875 14.175781 Z M 22.96875 14.175781 "/></g></g></g><path stroke-linecap="butt" transform="matrix(0.902108, 0, 0, 0.902108, 163.913155, 384.188644)" fill="none" stroke-linejoin="miter" d="M 44.874213 53.320035 C 44.874213 53.320035 39.998479 41.334217 39.552475 40.342616 C 39.106471 39.346684 29.060554 19.055664 29.060554 19.055664 L 29.008592 19.008032 C 21.054131 17.167724 10.956252 17.613728 10.956252 17.613728 L 8.470754 18.358512 C 8.470754 18.358512 7.176043 61.824424 8.817165 83.210969 L 10.510248 85.497281 L 23.089295 86.042878 L 24.682786 85.544913 C 24.682786 85.544913 24.981565 75.403733 24.929603 74.35584 C 24.929603 73.312277 24.384006 58.594142 24.384006 58.594142 C 24.384006 58.594142 32.936026 73.810242 33.485953 74.706581 C 34.031551 75.602919 40.34922 85.995247 40.34922 85.995247 L 59.492754 86.540844 C 59.492754 86.540844 61.484617 11.196466 60.835097 11.049241 C 52.880636 9.208933 47.758084 9.654937 47.758084 9.654937 C 47.758084 9.654937 45.519403 9.75453 45.272585 10.404051 Z M 122.249425 29.599547 C 124.786886 21.79231 122.500573 10.551275 122.500573 10.551275 L 119.365554 10.352089 L 76.696387 11.447614 C 76.696387 11.447614 74.856079 15.427009 74.656893 18.60966 C 74.457707 21.79231 74.163258 72.316345 76.397608 78.287604 C 77.493133 81.219106 78.489064 84.254532 79.580259 84.50135 C 80.675783 84.752498 93.306792 85.744099 109.518824 85.596874 C 125.730855 85.44965 122.154162 85.843692 122.154162 85.843692 L 121.656197 71.723116 C 121.656197 71.723116 119.317923 70.181588 119.417516 70.281181 C 119.517109 70.380774 120.80749 70.480367 120.80749 70.480367 L 96.541404 70.281181 L 95.298655 68.938839 L 95.645066 56.355461 C 111.857097 56.203907 120.1623 55.610678 120.1623 55.610678 L 120.1623 49.440233 C 120.1623 49.440233 119.317923 44.417274 119.417516 44.516868 C 119.517109 44.616461 113.350995 44.716054 113.350995 44.716054 L 100.468838 44.768015 C 98.282119 38.601901 98.879678 31.041482 98.879678 31.041482 C 118.967182 30.045551 122.249425 29.599547 122.249425 29.599547 Z M 161.835535 84.700536 C 161.835535 84.700536 166.260935 77.690045 172.175902 68.34128 C 175.310921 72.316345 181.178256 80.327098 183.564161 83.059414 L 186.300807 83.903791 L 196.099907 76.646482 C 196.099907 76.646482 187.742743 64.56107 180.779883 54.761971 C 190.977355 38.502308 200.525307 24.178216 200.274159 23.931398 C 194.359192 18.31088 179.935507 10.152903 179.935507 10.152903 L 177.398046 9.507712 C 177.398046 9.507712 171.682266 17.713321 163.675843 30.794664 C 156.015831 20.099227 149.797755 11.594838 149.598569 11.694431 C 142.090112 14.976675 138.262271 18.410473 138.262271 18.410473 L 136.720742 20.497599 C 136.720742 20.497599 144.973983 32.137007 154.872675 45.512799 C 149.498976 54.562785 144.428386 63.417914 141.345328 69.683622 L 141.592146 72.515531 Z M 207.730654 53.670777 C 208.925772 53.571183 218.672909 53.320035 224.341058 53.073218 C 224.39302 64.461477 224.592206 73.710649 225.185435 81.219106 L 226.878518 83.509748 L 239.063523 84.553311 C 239.063523 84.553311 239.509527 69.484436 239.9079 52.276473 C 249.702669 51.778507 254.080437 51.280541 259.003803 50.981762 C 259.999734 44.668422 258.505837 16.119831 258.159426 11.495245 C 249.507813 10.503644 215.936263 7.866591 207.28465 8.962115 C 207.28465 8.962115 204.050038 36.809224 207.730654 53.670777 Z M 268.547424 7.966184 C 268.547424 7.966184 261.337746 62.720762 274.267534 87.337589 C 274.267534 87.337589 302.564978 84.999316 314.949169 83.509748 L 315.247948 69.783215 L 322.310401 69.233288 L 321.167245 56.104313 C 308.085902 54.913526 294.558555 57.598211 294.558555 57.598211 L 295.004559 63.816287 L 300.326297 64.162698 L 300.72467 72.368307 C 299.135509 72.415938 297.24324 72.4679 294.857334 72.4679 C 293.913365 72.4679 284.512638 72.221082 283.767854 71.073596 C 283.369482 70.229219 281.775991 53.571183 281.775991 53.571183 C 281.775991 53.571183 281.329987 50.436164 283.269889 47.699518 C 284.958642 45.313613 304.704065 46.110358 307.938677 45.512799 C 307.938677 45.664354 307.986309 45.664354 308.03827 45.512799 L 307.938677 45.512799 C 307.839084 44.668422 309.129465 37.108004 309.129465 37.108004 C 309.129465 32.630642 308.830685 15.12823 308.484275 10.503644 C 299.828331 9.507712 277.203367 6.870659 268.547424 7.966184 Z M 380.542079 29.599547 C 383.075209 21.79231 380.788897 10.551275 380.788897 10.551275 L 377.658208 10.352089 L 334.984711 11.447614 C 334.984711 11.447614 333.148733 15.427009 332.949547 18.60966 C 332.750361 21.79231 332.451581 72.316345 334.690262 78.287604 C 335.781456 81.219106 336.777388 84.254532 337.872912 84.50135 C 338.964107 84.752498 351.595115 85.744099 367.811477 85.596874 C 384.023509 85.44965 380.442486 85.843692 380.442486 85.843692 L 379.94452 71.723116 C 379.94452 71.723116 377.606247 70.181588 377.70584 70.281181 C 377.805433 70.380774 379.100144 70.480367 379.100144 70.480367 L 354.829728 70.281181 L 353.586978 68.938839 L 353.933389 56.355461 C 370.145421 56.203907 378.450623 55.610678 378.450623 55.610678 L 378.450623 49.440233 C 378.450623 49.440233 377.606247 44.417274 377.70584 44.516868 C 377.805433 44.616461 371.639318 44.716054 371.639318 44.716054 L 358.757162 44.768015 C 356.570443 38.601901 357.168001 31.041482 357.168001 31.041482 C 377.259836 30.045551 380.542079 29.599547 380.542079 29.599547 Z M 434.595176 53.320035 C 434.595176 53.320035 429.719442 41.334217 429.273438 40.342616 C 428.827434 39.346684 418.781516 19.055664 418.781516 19.055664 L 418.729555 19.008032 C 410.775094 17.167724 400.677215 17.613728 400.677215 17.613728 L 398.191716 18.358512 C 398.191716 18.358512 396.897006 61.824424 398.538127 83.210969 L 400.231211 85.497281 L 412.814588 86.042878 L 414.403748 85.544913 C 414.403748 85.544913 414.702528 75.403733 414.650566 74.35584 C 414.650566 73.312277 414.104969 58.594142 414.104969 58.594142 C 414.104969 58.594142 422.661319 73.810242 423.206916 74.706581 C 423.752513 75.602919 430.070183 85.995247 430.070183 85.995247 L 449.213717 86.540844 C 449.213717 86.540844 451.20558 11.196466 450.56039 11.049241 C 442.601598 9.208933 437.479047 9.654937 437.479047 9.654937 C 437.479047 9.654937 435.240366 9.75453 434.993548 10.404051 Z M 460.948388 11.893618 C 459.75327 35.817623 465.126969 87.090772 465.126969 87.090772 L 476.264081 86.09484 L 480.04429 83.111376 L 488.102675 10.005678 C 474.32418 8.563743 460.948388 11.893618 460.948388 11.893618 Z M 480.34307 100.713382 C 480.34307 100.267377 480.34307 99.869005 480.096252 99.470632 C 478.853503 96.638723 476.614822 96.088796 473.531765 96.088796 C 469.89878 96.088796 463.832259 97.682286 463.832259 101.908499 C 463.832259 105.73634 468.058472 108.074614 471.440309 108.074614 C 475.172887 108.074614 480.34307 104.445959 480.34307 100.713382 Z M 480.34307 100.713382 " stroke="#ffe865" stroke-width="2.037154" stroke-opacity="1" stroke-miterlimit="4"/></svg>