<svg xmlns="http://www.w3.org/2000/svg" xmlns:xlink="http://www.w3.org/1999/xlink" width="1000" zoomAndPan="magnify" viewBox="0 0 750 749.999995" height="1000" preserveAspectRatio="xMidYMid meet" version="1.0"><defs><clipPath id="db9f245564"><path d="M 284.625 225 L 465.375 225 L 465.375 525 L 284.625 525 Z M 284.625 225 " clip-rule="nonzero"/></clipPath></defs><rect x="-75" width="900" fill="#ffffff" y="-74.999999" height="899.999994" fill-opacity="1"/><rect x="-75" width="900" fill="#ffffff" y="-74.999999" height="899.999994" fill-opacity="1"/><g clip-path="url(#db9f245564)"><path fill="#393536" d="M 465.308594 225 L 465.308594 249.128906 L 443.230469 249.128906 L 443.230469 225 Z M 308.394531 435.433594 L 284.691406 435.433594 C 284.691406 447.960938 287.082031 459.679688 291.847656 470.578125 C 296.605469 481.476562 303.09375 490.996094 311.265625 499.175781 C 319.441406 507.34375 328.960938 513.8125 339.859375 518.574219 C 347.238281 521.8125 355.015625 523.960938 363.148438 524.972656 L 363.148438 500.648438 C 358.261719 499.792969 353.5625 498.425781 349.050781 496.535156 C 341.023438 493.117188 333.992188 488.394531 328.003906 482.4375 C 322.015625 476.417969 317.253906 469.417969 313.699219 461.371094 C 313.367188 460.644531 313.078125 459.886719 312.785156 459.140625 L 336.28125 459.140625 C 338.089844 462.117188 340.234375 464.816406 342.730469 467.300781 C 346.804688 471.394531 351.566406 474.59375 357.03125 476.898438 C 362.460938 479.207031 368.328125 480.375 374.585938 480.375 C 380.84375 480.375 386.703125 479.207031 392.164062 476.898438 C 397.601562 474.59375 402.371094 471.394531 406.457031 467.300781 C 410.539062 463.214844 413.738281 458.453125 416.066406 453.003906 C 418.375 447.558594 419.542969 441.695312 419.542969 435.433594 L 419.542969 294.472656 L 441.1875 294.472656 L 441.1875 435.433594 C 441.1875 444.691406 439.480469 453.339844 436.074219 461.371094 C 432.6875 469.417969 427.984375 476.417969 421.984375 482.4375 C 415.988281 488.394531 408.96875 493.117188 400.957031 496.535156 C 396.441406 498.425781 391.738281 499.792969 386.851562 500.648438 L 386.851562 524.992188 C 394.773438 524.019531 402.410156 522 409.726562 518.984375 C 420.621094 514.5 430.289062 507.882812 438.734375 499.175781 C 456.441406 481.476562 465.296875 460.222656 465.296875 435.433594 L 465.308594 294.472656 L 465.308594 270.777344 L 419.542969 270.777344 L 419.542969 225 L 329.648438 225 L 329.648438 249.128906 L 395.832031 249.128906 L 395.832031 270.777344 L 329.648438 270.777344 L 329.648438 294.472656 L 395.832031 294.472656 L 395.832031 435.433594 C 395.832031 441.15625 393.792969 446.066406 389.707031 450.140625 C 385.625 454.234375 380.597656 456.273438 374.585938 456.273438 C 368.867188 456.273438 363.957031 454.234375 359.878906 450.140625 C 355.785156 446.066406 353.75 441.15625 353.75 435.433594 Z M 308.394531 435.433594 " fill-opacity="1" fill-rule="evenodd"/></g></svg>