<svg xmlns="http://www.w3.org/2000/svg" xmlns:xlink="http://www.w3.org/1999/xlink" width="1000" zoomAndPan="magnify" viewBox="0 0 750 749.999995" height="1000" preserveAspectRatio="xMidYMid meet" version="1.0"><rect x="-75" width="900" fill="#ffffff" y="-74.999999" height="899.999994" fill-opacity="1"/><rect x="-75" width="900" fill="#ffffff" y="-74.999999" height="899.999994" fill-opacity="1"/><path fill="#393536" d="M 394.144531 263.367188 C 394.121094 263.773438 393.972656 264.183594 394.261719 264.574219 C 394.21875 264.171875 394.175781 263.765625 394.144531 263.367188 Z M 419.199219 281.460938 C 418.410156 280.945312 418.261719 281.675781 418.453125 282.332031 C 418.722656 282.019531 418.929688 281.785156 419.199219 281.460938 Z M 402.199219 377.398438 C 401.5 376.859375 401.707031 376.828125 401.371094 377.332031 C 401.867188 377.859375 401.652344 377.796875 402.199219 377.398438 Z M 390.621094 272.53125 C 390.179688 273.621094 390.191406 273.761719 390.828125 274.417969 C 390.773438 273.78125 391.117188 273.199219 390.621094 272.53125 Z M 382.167969 326.085938 C 382.273438 326.085938 382.394531 326.085938 382.511719 326.097656 C 382.640625 323.433594 382.878906 322.84375 381.917969 322.90625 C 382.003906 323.996094 381.898438 325.050781 382.167969 326.085938 Z M 354.453125 435.59375 C 353.160156 436.488281 353.074219 434.363281 350.898438 433.417969 C 352.03125 435.464844 353.375 436.777344 354.734375 438.179688 C 355.003906 437.175781 353.570312 436.714844 354.453125 435.59375 Z M 361.089844 442.175781 C 361.226562 440.613281 361.539062 441.042969 356.609375 439.007812 C 356.585938 439.09375 356.566406 439.179688 356.542969 439.265625 C 358.039062 440.257812 359.355469 441.742188 361.089844 442.175781 Z M 391.539062 264.3125 C 391.699219 263.871094 391.613281 263.300781 392.042969 263.011719 C 392.164062 262.945312 392.292969 261.773438 392.386719 261.535156 C 392.851562 263.582031 392.386719 265.636719 392.710938 267.867188 C 393.894531 266.941406 392.765625 264.367188 393.21875 258.746094 C 393.421875 258.917969 393.886719 262 393.941406 262.300781 C 394.144531 261.847656 394.242188 261.644531 394.445312 261.179688 C 394.617188 262.308594 394.757812 263.183594 394.917969 264.207031 C 395.804688 263.507812 395.78125 262 395.621094 260.652344 C 396.179688 260.769531 396.125 268.871094 396.117188 269.183594 C 398.117188 267.859375 396.167969 260.144531 396.621094 256.527344 C 398.777344 261.695312 397.65625 266.542969 399.066406 267.933594 C 400.078125 264.851562 398.636719 252.101562 398.257812 248.554688 C 400.132812 249.945312 398.691406 250.765625 399.710938 251.882812 C 400.175781 249.6875 399.582031 247.574219 399.648438 245.347656 C 400.144531 245.917969 400.304688 254.40625 401.964844 254.542969 C 402.242188 250.460938 400.769531 245.691406 402.339844 244.421875 C 403.492188 236.742188 400.316406 226.53125 401.652344 225 C 401.75 225.378906 402.308594 226.539062 407.003906 248.964844 C 408.136719 247.996094 407.273438 243.71875 406.855469 239.703125 C 406.078125 232.421875 406.734375 230.289062 406.84375 227.175781 C 408.308594 229.878906 410.246094 245.519531 410.570312 247.660156 L 410.570312 247.652344 C 410.980469 251.335938 410.796875 250.300781 411.355469 251.324219 C 411 251.820312 411.28125 252.59375 411.519531 253.058594 C 413.113281 256.257812 413.425781 275.171875 415.253906 276.636719 C 416.902344 277.949219 416.804688 276.539062 416.742188 273.363281 C 417 273.640625 417.300781 273.890625 417.28125 273.953125 C 416.988281 274.902344 418.078125 275.699219 417.496094 276.601562 C 418.9375 277.625 418.367188 275.515625 417.9375 270.949219 C 419.328125 279.53125 418.808594 277.410156 420.101562 279.726562 C 421.804688 276.386719 418.84375 271.929688 419.488281 268.558594 C 420.210938 270 420.738281 271.304688 420.089844 272.917969 C 420.371094 272.886719 420.511719 272.875 420.609375 272.867188 C 425.21875 298.738281 428.222656 327.605469 428.007812 334.433594 C 428.234375 334.484375 428.460938 334.550781 428.792969 334.636719 C 429.355469 325.019531 426.984375 305.609375 427.007812 304.382812 C 427.253906 304.273438 427.480469 304.1875 427.769531 304.058594 C 427.40625 301.871094 427.449219 301.570312 426.921875 301.398438 C 426.964844 301.816406 426.996094 302.171875 427.039062 302.660156 C 426.554688 301.722656 426.414062 300.375 426.628906 298.886719 C 426.757812 299.589844 426.855469 300.171875 426.984375 300.847656 C 427.15625 300.632812 427.296875 300.460938 427.40625 300.332031 C 425.777344 290.886719 427.125 295.214844 425.832031 292.339844 C 426.382812 291.058594 424.378906 282.558594 424.613281 280.492188 C 424.679688 280.492188 424.753906 280.492188 424.832031 280.480469 C 428.878906 315.398438 436.636719 362.855469 427.609375 418.1875 C 427.414062 419.328125 427.535156 420.332031 427.824219 421.621094 C 428.988281 420.0625 428.859375 412.445312 430.140625 407.523438 C 431.722656 415.191406 420.402344 474 412.617188 479.019531 C 411.863281 479.503906 411.808594 479.550781 411.710938 480.777344 C 411.464844 480.789062 378.945312 525.046875 333.859375 481.714844 C 320.871094 469.230469 321.386719 459.363281 320.871094 457.640625 C 321.839844 455.226562 316.9375 446.957031 316.703125 446.664062 C 316.304688 448.34375 317.25 449.636719 317.542969 451.320312 C 314.386719 448 313.578125 426.027344 317.734375 424.335938 C 317.972656 424.242188 318.144531 423.453125 318.273438 422.980469 C 319.898438 423.582031 319.71875 419.792969 321.289062 417.335938 C 321.710938 416.691406 322 415.980469 322.152344 415.085938 C 322.507812 415.300781 322.808594 415.472656 323.28125 415.761719 C 324.175781 413.007812 324.597656 415.085938 325.757812 413.4375 C 329 408.792969 327.96875 411.003906 328.644531 409.042969 C 329.089844 407.773438 329.378906 406.929688 330.207031 407.253906 C 330.21875 406.984375 330.242188 406.792969 330.261719 406.382812 C 330.984375 407.46875 331.609375 408.4375 332.296875 409.484375 C 332.878906 408.472656 333.601562 409.332031 334.289062 409.238281 C 335.507812 412.253906 335.347656 410.703125 336.066406 412.382812 C 336.335938 412.996094 336.464844 413.8125 337.21875 413.707031 C 337.476562 414.179688 337.738281 414.652344 338.082031 415.289062 C 339.265625 415.644531 339.847656 414.449219 341.335938 419.652344 C 342.25 422.863281 342.261719 423.011719 342.53125 423.28125 C 343.84375 424.550781 343.121094 425.707031 343.789062 425.800781 C 344.542969 425.921875 343.953125 424.550781 343.445312 423.085938 C 343.316406 422.722656 342.820312 418.519531 342.800781 418.273438 C 342.496094 414.460938 343.875 414.914062 343.628906 412.566406 C 343.46875 410.960938 344.15625 410.796875 345.0625 409.679688 C 345.46875 410.65625 346.085938 411.347656 346.589844 412.121094 C 351.070312 419.179688 348.765625 416.894531 351.371094 422.410156 C 351.847656 421.578125 351.0625 420.546875 351.640625 420.019531 C 349.855469 413.382812 350.53125 416.667969 350.953125 411.660156 C 351.234375 411.703125 351.546875 411.757812 351.902344 411.8125 C 355.941406 423.078125 354.335938 423.464844 358.363281 428.355469 C 369.339844 441.667969 372.828125 442.882812 377.890625 415.589844 C 381.1875 397.851562 380.421875 370.257812 380.292969 369.953125 C 380.625 369.878906 380.949219 369.816406 381.316406 369.738281 C 381.53125 368.984375 381.777344 368.230469 381.035156 367.585938 C 380.960938 367.519531 380.863281 367.347656 380.875 367.292969 C 381.144531 366.539062 380.53125 365.796875 380.765625 365.054688 C 381.058594 364.925781 381.359375 364.796875 381.640625 364.667969 C 381.511719 363.792969 380.960938 363.976562 380.453125 363.6875 C 381.199219 363.117188 381.519531 363.394531 381.421875 362.75 C 381.328125 362.1875 381.015625 362.480469 380.710938 362.5 C 380.667969 362.070312 380.625 361.640625 380.582031 361.207031 C 380.617188 361.199219 380.636719 361.175781 380.667969 361.15625 C 380.777344 361.402344 380.886719 361.652344 381.003906 361.917969 C 382.5 361.21875 380.59375 355.21875 380.582031 354.550781 C 381.671875 354.53125 381.703125 354.316406 381.660156 350.449219 C 381.660156 350.265625 381.347656 349.285156 381.359375 349.273438 C 381.53125 348.996094 381.824219 345.234375 381.832031 344.976562 C 381.84375 344.472656 381.703125 343.941406 381.605469 343.199219 C 381.648438 343.050781 381.769531 342.628906 381.886719 342.199219 C 381.511719 341.832031 381.199219 341.53125 380.808594 341.164062 C 381.132812 341.132812 381.378906 341.109375 381.691406 341.078125 C 381.972656 339.710938 381.242188 318.210938 381.683594 316.90625 C 382.058594 318.921875 381.421875 320.839844 382.394531 322.507812 C 382.359375 321.734375 382.921875 321.035156 382.480469 320.214844 C 382.8125 319.65625 383.167969 314.828125 383.210938 314.289062 C 382.941406 314.054688 382.714844 313.859375 382.425781 313.601562 C 382.898438 312.675781 382.964844 312.113281 382.964844 312.113281 C 383.394531 313.34375 384.128906 330.695312 384.148438 331.007812 C 384.71875 330.800781 384.570312 330.511719 384.546875 329.402344 C 384.621094 329.402344 384.699219 329.390625 384.761719 329.390625 C 385.34375 332.074219 385.625 338.945312 385.59375 341.1875 C 385.863281 340.960938 386.011719 340.832031 386.164062 340.699219 C 386.746094 341.367188 385.839844 345.398438 387.164062 346.214844 C 387.101562 347.078125 387.035156 348.058594 386.960938 349.039062 C 387.015625 349.082031 387.058594 349.113281 387.109375 349.144531 C 387.28125 348.875 387.457031 348.617188 387.714844 348.207031 C 387.273438 353.507812 388.824219 361.984375 388.339844 366.183594 C 390.351562 365.648438 389.382812 307.019531 388.089844 307.117188 C 387.734375 309.808594 387.992188 312.664062 387.273438 315.304688 C 387.316406 311.425781 387.917969 297.335938 387.726562 297.078125 C 388.542969 294.148438 388.878906 273.339844 388.855469 273.316406 C 389.039062 273.265625 389.179688 273.222656 389.351562 273.167969 C 389.71875 271.636719 388.964844 269.96875 389.523438 268.265625 C 389.738281 269.160156 390.203125 269.808594 389.964844 270.667969 C 389.761719 271.402344 390.40625 271.519531 390.503906 272.113281 C 391.539062 271.207031 391.054688 265.886719 390.988281 264.433594 C 391.257812 264.355469 391.410156 264.324219 391.558594 264.28125 C 391.730469 264.90625 391.042969 265.445312 391.484375 266.167969 C 391.753906 266.003906 391.988281 265.875 392.238281 265.734375 C 392.195312 265.101562 392.257812 264.421875 391.539062 264.3125 " fill-opacity="1" fill-rule="nonzero"/><path fill="#393536" d="M 386.722656 288.410156 C 387.328125 289.3125 386.226562 314.644531 386.085938 315.886719 C 385.613281 313.527344 386 303.347656 385.429688 301.496094 L 385.429688 301.503906 C 385.796875 301.128906 386.433594 288.765625 386.378906 288.460938 C 386.507812 288.453125 386.617188 288.441406 386.734375 288.429688 L 386.722656 288.410156 " fill-opacity="1" fill-rule="nonzero"/><path fill="#393536" d="M 385.429688 301.496094 C 384.136719 303.378906 385.375 304.628906 384.128906 305.523438 C 384.128906 305.210938 384.535156 295.011719 384.828125 291.574219 C 385.808594 291.414062 384.503906 301.257812 385.429688 301.515625 C 385.429688 301.503906 385.429688 301.496094 385.429688 301.496094 " fill-opacity="1" fill-rule="nonzero"/><path fill="#393536" d="M 385.289062 276.398438 C 385.914062 276.882812 385.367188 280.511719 385.570312 283.527344 C 385.59375 283.839844 385.570312 283.839844 385.183594 284.328125 C 385.183594 284.328125 385.300781 278.402344 385.289062 276.398438 " fill-opacity="1" fill-rule="nonzero"/><path fill="#393536" d="M 385.410156 285.359375 C 385.625 286.277344 385.496094 289.820312 385.152344 290.832031 C 384.664062 289.9375 384.945312 288.644531 385.128906 285.328125 C 385.226562 285.339844 385.3125 285.347656 385.410156 285.359375 " fill-opacity="1" fill-rule="nonzero"/><path fill="#393536" d="M 388.640625 253.886719 C 388.84375 260.199219 389.058594 256.527344 388.941406 261.792969 C 388.867188 261.792969 388.78125 261.78125 388.703125 261.78125 C 388.609375 259.15625 388.5 256.539062 388.402344 253.910156 C 388.480469 253.898438 388.554688 253.886719 388.640625 253.886719 " fill-opacity="1" fill-rule="nonzero"/><path fill="#393536" d="M 392.097656 260.230469 C 391.742188 259.316406 392.152344 258.464844 391.882812 257.613281 C 391.785156 257.742188 391.699219 257.851562 391.539062 258.054688 C 391.570312 257.28125 391.589844 256.601562 391.613281 255.902344 C 392.679688 256.117188 392.28125 259.84375 392.097656 260.230469 " fill-opacity="1" fill-rule="nonzero"/><path fill="#393536" d="M 386.734375 288.429688 C 386.527344 287.40625 386.582031 284.488281 386.59375 284.175781 C 387.746094 284.195312 386.894531 287.933594 386.710938 288.410156 C 386.722656 288.410156 386.734375 288.429688 386.734375 288.429688 " fill-opacity="1" fill-rule="nonzero"/><path fill="#393536" d="M 388.628906 262.988281 C 389.148438 263.570312 389.179688 264.691406 388.792969 266.738281 C 388.738281 265.488281 388.683594 264.238281 388.628906 262.988281 " fill-opacity="1" fill-rule="nonzero"/><path fill="#393536" d="M 382.886719 310.683594 C 382.53125 309.800781 383.019531 311.285156 382.554688 307.667969 C 382.53125 307.515625 382.695312 307.355469 382.84375 307.019531 C 383.4375 308.355469 382.855469 309.507812 383.179688 310.640625 C 383.082031 310.648438 382.984375 310.660156 382.886719 310.683594 " fill-opacity="1" fill-rule="nonzero"/><path fill="#393536" d="M 385.507812 271.152344 C 385.882812 272.390625 385.785156 274.621094 385.367188 275.558594 C 385.410156 274.136719 385.453125 272.789062 385.507812 271.152344 " fill-opacity="1" fill-rule="nonzero"/><path fill="#393536" d="M 386.789062 281.472656 C 387.445312 282.472656 387.445312 282.871094 386.796875 283.5625 C 386.109375 282.828125 386.839844 282.183594 386.789062 281.472656 " fill-opacity="1" fill-rule="nonzero"/><path fill="#393536" d="M 382.933594 303.261719 C 382.984375 304.316406 383.050781 305.363281 383.113281 306.589844 C 382.511719 305.769531 382.664062 306.265625 382.707031 303.230469 C 382.78125 303.238281 382.855469 303.25 382.933594 303.261719 " fill-opacity="1" fill-rule="nonzero"/></svg>