<svg xmlns="http://www.w3.org/2000/svg" xmlns:xlink="http://www.w3.org/1999/xlink" width="1000" zoomAndPan="magnify" viewBox="0 0 750 749.999995" height="1000" preserveAspectRatio="xMidYMid meet" version="1.0"><rect x="-75" width="900" fill="#ffffff" y="-74.999999" height="899.999994" fill-opacity="1"/><rect x="-75" width="900" fill="#ffffff" y="-74.999999" height="899.999994" fill-opacity="1"/><path fill="#393536" d="M 300.910156 351.703125 C 300.910156 356.183594 304.546875 359.820312 309.027344 359.820312 C 313.511719 359.820312 317.144531 356.183594 317.144531 351.703125 C 317.144531 347.21875 313.511719 343.585938 309.027344 343.585938 C 304.546875 343.585938 300.910156 347.21875 300.910156 351.703125 " fill-opacity="1" fill-rule="nonzero"/><path fill="#393536" d="M 524.640625 233.226562 C 524.640625 228.898438 520.972656 225.21875 516.632812 225.21875 C 494.527344 225.21875 472.425781 225.21875 450.320312 225.21875 C 447.222656 225.21875 444.121094 225.21875 441.023438 225.21875 C 438.566406 225.21875 436.703125 226.132812 435.417969 227.515625 C 433.972656 228.804688 433.015625 230.703125 433.015625 233.226562 C 433.015625 248.851562 433.015625 264.480469 433.015625 280.109375 C 433.015625 308.472656 433.015625 336.835938 433.015625 365.199219 C 433.015625 375.449219 433.015625 385.703125 433.015625 395.949219 C 433.015625 398.605469 433.015625 401.253906 433.015625 403.90625 C 433.015625 404.429688 433.015625 404.953125 433.015625 405.476562 C 433.011719 406.113281 433.007812 406.75 432.988281 407.382812 C 432.953125 408.71875 432.875 410.050781 432.757812 411.378906 C 432.707031 411.964844 432.648438 412.546875 432.582031 413.132812 C 432.570312 413.207031 432.5625 413.269531 432.558594 413.328125 C 432.519531 413.566406 432.484375 413.804688 432.445312 414.042969 C 432.042969 416.464844 431.519531 418.863281 430.855469 421.226562 C 430.242188 423.394531 429.203125 426.429688 428.574219 427.929688 C 427.027344 431.613281 424.214844 436.445312 421.527344 440.1875 C 421.492188 440.242188 421.15625 440.691406 421.058594 440.828125 C 420.777344 441.183594 420.496094 441.535156 420.207031 441.886719 C 419.492188 442.746094 418.757812 443.589844 418.003906 444.414062 C 416.300781 446.273438 414.496094 448.03125 412.601562 449.683594 C 411.839844 450.34375 411.066406 450.992188 410.273438 451.613281 C 410.152344 451.703125 409.675781 452.054688 409.625 452.09375 C 409.054688 452.5 408.484375 452.90625 407.902344 453.300781 C 405.808594 454.71875 403.636719 456.023438 401.398438 457.195312 C 393.503906 461.324219 384.167969 463.574219 375.027344 463.578125 C 369.921875 463.582031 366.921875 463.242188 362.3125 462.167969 C 357.257812 460.992188 353.351562 459.585938 349.410156 457.582031 C 347.277344 456.503906 345.199219 455.304688 343.199219 454 C 342.261719 453.386719 341.335938 452.75 340.429688 452.09375 C 339.785156 451.628906 339.25 451.21875 338.085938 450.230469 C 336.378906 448.78125 334.75 447.25 333.195312 445.640625 C 332.421875 444.832031 331.664062 444.007812 330.933594 443.164062 C 330.472656 442.636719 330.023438 442.101562 329.582031 441.558594 C 329.441406 441.394531 328.949219 440.753906 328.84375 440.625 C 322.792969 432.527344 319.5 424.796875 317.75 414.902344 C 317.324219 412.484375 317.046875 408.707031 317.039062 405.179688 C 317.03125 403.089844 317.039062 401.003906 317.039062 398.914062 C 317.039062 392.078125 317.039062 385.242188 317.039062 378.402344 C 317.039062 377 317.039062 375.59375 317.039062 374.191406 C 317.039062 363.886719 301.019531 363.867188 301.019531 374.191406 C 301.019531 384.636719 300.960938 395.078125 301.019531 405.523438 C 301.132812 426.546875 310.203125 447.152344 326.125 461.011719 C 343.136719 475.828125 365.503906 482.078125 387.738281 478.457031 C 408.777344 475.027344 427.707031 461.558594 438.609375 443.359375 C 445.96875 431.070312 449.03125 417.261719 449.03125 403.050781 C 449.03125 395.078125 449.03125 387.109375 449.03125 379.136719 C 449.03125 350.601562 449.03125 322.0625 449.03125 293.53125 C 449.03125 276.113281 449.332031 258.660156 449.136719 241.238281 C 468.535156 241.238281 487.933594 241.238281 507.332031 241.238281 C 507.765625 241.238281 508.191406 241.238281 508.621094 241.238281 C 508.621094 247.964844 508.621094 254.691406 508.621094 261.421875 C 508.621094 283.988281 508.621094 306.554688 508.621094 329.121094 C 508.621094 356.308594 508.621094 383.496094 508.621094 410.6875 C 508.621094 434.292969 508.621094 457.898438 508.621094 481.507812 C 508.621094 489.269531 508.621094 497.03125 508.621094 504.792969 C 508.621094 505.996094 508.59375 507.210938 508.570312 508.429688 C 501.859375 508.429688 495.148438 508.429688 488.4375 508.429688 C 465.871094 508.429688 443.304688 508.429688 420.738281 508.429688 C 393.550781 508.429688 366.363281 508.429688 339.175781 508.429688 C 315.566406 508.429688 291.960938 508.429688 268.351562 508.429688 C 260.589844 508.429688 252.832031 508.429688 245.070312 508.429688 C 243.863281 508.429688 242.648438 508.402344 241.429688 508.378906 C 241.429688 501.664062 241.429688 494.953125 241.429688 488.246094 C 241.429688 465.679688 241.429688 443.113281 241.429688 420.546875 C 241.429688 393.359375 241.429688 366.167969 241.429688 338.980469 C 241.429688 315.375 241.429688 291.769531 241.429688 268.160156 C 241.429688 260.398438 241.429688 252.636719 241.429688 244.875 C 241.429688 243.667969 241.453125 242.457031 241.480469 241.238281 C 260.867188 241.238281 280.25 241.238281 299.632812 241.238281 C 302.765625 241.238281 305.898438 241.238281 309.027344 241.238281 C 319.335938 241.238281 319.351562 225.21875 309.027344 225.21875 C 286.957031 225.21875 264.882812 225.21875 242.8125 225.21875 C 239.683594 225.21875 236.550781 225.21875 233.417969 225.21875 C 229.089844 225.21875 225.410156 228.886719 225.410156 233.226562 C 225.410156 242.625 225.410156 252.023438 225.410156 261.421875 C 225.410156 283.988281 225.410156 306.554688 225.410156 329.121094 C 225.410156 356.308594 225.410156 383.496094 225.410156 410.6875 C 225.410156 434.292969 225.410156 457.898438 225.410156 481.507812 C 225.410156 492.964844 225.027344 504.5 225.410156 515.953125 C 225.414062 516.113281 225.410156 516.277344 225.410156 516.441406 C 225.410156 520.769531 229.078125 524.449219 233.417969 524.449219 C 242.820312 524.449219 252.21875 524.449219 261.613281 524.449219 C 284.179688 524.449219 306.746094 524.449219 329.3125 524.449219 C 356.5 524.449219 383.6875 524.449219 410.878906 524.449219 C 434.484375 524.449219 458.089844 524.449219 481.699219 524.449219 C 493.15625 524.449219 504.691406 524.832031 516.144531 524.449219 C 516.308594 524.445312 516.46875 524.449219 516.632812 524.449219 C 520.960938 524.449219 524.640625 520.78125 524.640625 516.441406 C 524.640625 507.042969 524.640625 497.644531 524.640625 488.246094 C 524.640625 465.679688 524.640625 443.113281 524.640625 420.546875 C 524.640625 393.359375 524.640625 366.167969 524.640625 338.980469 C 524.640625 315.375 524.640625 291.769531 524.640625 268.160156 C 524.640625 256.703125 525.023438 245.167969 524.640625 233.714844 C 524.636719 233.554688 524.640625 233.390625 524.640625 233.226562 " fill-opacity="1" fill-rule="nonzero"/></svg>