<svg xmlns="http://www.w3.org/2000/svg" xmlns:xlink="http://www.w3.org/1999/xlink" width="500" zoomAndPan="magnify" viewBox="0 0 375 374.999991" height="500" preserveAspectRatio="xMidYMid meet" version="1.0"><defs><g/><clipPath id="a6db8430de"><path d="M 85 87 L 286 87 L 286 288 L 85 288 Z M 85 87 " clip-rule="nonzero"/></clipPath><clipPath id="dd559dca26"><path d="M 44.382812 181.109375 L 159.160156 76.566406 L 294.003906 224.609375 L 179.230469 329.152344 Z M 44.382812 181.109375 " clip-rule="nonzero"/></clipPath><clipPath id="eecda00bb7"><path d="M 44.382812 181.109375 L 192.425781 46.265625 L 327.273438 194.308594 L 179.230469 329.152344 Z M 44.382812 181.109375 " clip-rule="nonzero"/></clipPath></defs><rect x="-37.5" width="450" fill="#ffffff" y="-37.499999" height="449.999989" fill-opacity="1"/><rect x="-37.5" width="450" fill="#ebe6e4" y="-37.499999" height="449.999989" fill-opacity="1"/><g clip-path="url(#a6db8430de)"><g clip-path="url(#dd559dca26)"><g clip-path="url(#eecda00bb7)"><path fill="#403737" d="M 253.3125 261.753906 C 212.496094 298.929688 149.003906 295.96875 111.824219 255.152344 C 74.648438 214.339844 77.613281 150.84375 118.425781 113.667969 C 159.242188 76.492188 222.734375 79.453125 259.910156 120.269531 C 297.089844 161.082031 294.125 224.578125 253.3125 261.753906 Z M 119.421875 114.761719 C 79.191406 151.40625 76.273438 213.925781 112.917969 254.15625 C 149.566406 294.386719 212.082031 297.304688 252.316406 260.660156 C 292.546875 224.015625 295.460938 161.496094 258.816406 121.265625 C 222.171875 81.035156 159.65625 78.117188 119.421875 114.761719 Z M 119.421875 114.761719 " fill-opacity="1" fill-rule="nonzero"/></g></g></g><g fill="#403737" fill-opacity="1"><g transform="translate(119.084799, 219.197345)"><g><path d="M 2.289062 0 L 8.394531 0 C 16.410156 0 22.972656 1.527344 29.6875 1.527344 C 53.195312 1.527344 64.335938 -17.25 64.335938 -38.160156 C 64.335938 -59.070312 53.195312 -77.847656 29.6875 -77.847656 C 22.972656 -77.847656 16.410156 -76.320312 8.394531 -76.320312 L 2.289062 -76.320312 L 2.289062 -75.558594 C 8.851562 -75.558594 9.3125 -70.136719 9.3125 -55.101562 L 9.3125 -21.21875 C 9.3125 -6.183594 8.851562 -0.761719 2.289062 -0.761719 Z M 15.796875 -74.640625 C 20.226562 -76.015625 24.652344 -76.777344 29.613281 -76.777344 C 48.464844 -76.777344 57.773438 -58.996094 57.773438 -38.160156 C 57.773438 -17.324219 48.464844 0.457031 29.613281 0.457031 C 24.652344 0.457031 20.226562 -0.304688 15.796875 -1.679688 Z M 15.796875 -74.640625 "/></g></g></g><g fill="#403737" fill-opacity="1"><g transform="translate(187.994913, 219.197345)"><g><path d="M 2.289062 -13.355469 C 2.289062 -5.417969 7.328125 1.527344 16.179688 1.527344 C 31.367188 1.527344 40.296875 -11.90625 40.296875 -30.453125 C 40.296875 -34.113281 40.144531 -37.167969 39.839844 -39.609375 L 49.300781 -14.652344 C 52.203125 -6.945312 52.585938 -0.761719 41.824219 -0.761719 L 41.824219 0 L 66.855469 0 L 66.855469 -0.761719 C 62.199219 -0.761719 59.757812 -4.960938 56.402344 -13.355469 L 31.976562 -77.847656 L 31.214844 -77.847656 C 26.40625 -65.175781 23.582031 -57.621094 18.925781 -45.335938 C 18.164062 -43.351562 18.546875 -41.289062 20.683594 -41.289062 C 25.03125 -41.289062 27.324219 -49.300781 30.984375 -49.300781 C 31.976562 -49.300781 32.816406 -48.691406 32.816406 -47.242188 C 32.816406 -39.304688 2.289062 -32.128906 2.289062 -13.355469 Z M 8.777344 -14.804688 C 8.777344 -33.65625 33.65625 -36.863281 33.65625 -47.089844 C 33.65625 -49.074219 32.589844 -50.066406 31.136719 -50.066406 C 27.09375 -50.066406 24.269531 -42.050781 20.757812 -42.050781 C 19.539062 -42.050781 18.925781 -42.96875 19.917969 -45.640625 L 28.695312 -68.992188 L 37.929688 -44.648438 C 39.304688 -40.144531 39.535156 -35.945312 39.535156 -30.300781 C 39.535156 -17.78125 33.503906 -2.136719 20.757812 -2.136719 C 13.28125 -2.136719 8.777344 -7.632812 8.777344 -14.804688 Z M 8.777344 -14.804688 "/></g></g></g><g fill="#403737" fill-opacity="1"><g transform="translate(165.081404, 253.937558)"><g><path d="M 4.421875 0 L 1.3125 0 L 0.359375 0.03125 C 0.285156 0.03125 0.25 -0.00390625 0.25 -0.078125 C 0.25 -0.148438 0.28125 -0.1875 0.34375 -0.1875 L 0.578125 -0.203125 C 0.691406 -0.210938 0.785156 -0.25 0.859375 -0.3125 C 0.929688 -0.375 0.96875 -0.453125 0.96875 -0.546875 L 0.96875 -5.265625 C 0.96875 -5.460938 0.835938 -5.578125 0.578125 -5.609375 L 0.34375 -5.625 C 0.28125 -5.625 0.25 -5.660156 0.25 -5.734375 C 0.25 -5.816406 0.285156 -5.859375 0.359375 -5.859375 L 1.3125 -5.8125 L 4.25 -5.8125 C 4.351562 -5.8125 4.4375 -5.78125 4.5 -5.71875 C 4.570312 -5.65625 4.613281 -5.578125 4.625 -5.484375 L 4.75 -4.71875 C 4.757812 -4.625 4.71875 -4.578125 4.625 -4.578125 C 4.53125 -4.578125 4.472656 -4.617188 4.453125 -4.703125 C 4.367188 -4.972656 4.242188 -5.160156 4.078125 -5.265625 C 3.910156 -5.378906 3.679688 -5.4375 3.390625 -5.4375 L 2.078125 -5.4375 C 1.953125 -5.4375 1.851562 -5.398438 1.78125 -5.328125 C 1.707031 -5.265625 1.671875 -5.171875 1.671875 -5.046875 L 1.671875 -3.296875 C 1.671875 -3.222656 1.707031 -3.1875 1.78125 -3.1875 L 3.328125 -3.1875 C 3.398438 -3.1875 3.457031 -3.207031 3.5 -3.25 C 3.550781 -3.289062 3.582031 -3.328125 3.59375 -3.359375 C 3.601562 -3.390625 3.625 -3.453125 3.65625 -3.546875 L 3.6875 -3.65625 C 3.707031 -3.71875 3.75 -3.75 3.8125 -3.75 C 3.882812 -3.75 3.921875 -3.707031 3.921875 -3.625 L 3.875 -2.921875 L 3.921875 -2.25 C 3.921875 -2.175781 3.882812 -2.132812 3.8125 -2.125 C 3.738281 -2.125 3.695312 -2.160156 3.6875 -2.234375 L 3.671875 -2.375 C 3.617188 -2.664062 3.503906 -2.8125 3.328125 -2.8125 L 1.765625 -2.8125 C 1.703125 -2.8125 1.671875 -2.769531 1.671875 -2.6875 L 1.671875 -0.765625 C 1.671875 -0.648438 1.707031 -0.554688 1.78125 -0.484375 C 1.851562 -0.410156 1.953125 -0.375 2.078125 -0.375 L 3.453125 -0.375 C 3.734375 -0.375 3.976562 -0.445312 4.1875 -0.59375 C 4.394531 -0.738281 4.539062 -0.945312 4.625 -1.21875 C 4.65625 -1.300781 4.703125 -1.34375 4.765625 -1.34375 C 4.828125 -1.34375 4.867188 -1.328125 4.890625 -1.296875 C 4.921875 -1.265625 4.929688 -1.234375 4.921875 -1.203125 L 4.796875 -0.328125 C 4.785156 -0.234375 4.742188 -0.15625 4.671875 -0.09375 C 4.609375 -0.03125 4.523438 0 4.421875 0 Z M 4.421875 0 "/></g></g></g><g fill="#403737" fill-opacity="1"><g transform="translate(171.602607, 253.937558)"><g><path d="M 3.296875 -1.078125 C 3.296875 -0.722656 3.15625 -0.4375 2.875 -0.21875 C 2.59375 -0.0078125 2.25 0.09375 1.84375 0.09375 C 1.445312 0.09375 1.113281 0.046875 0.84375 -0.046875 C 0.582031 -0.140625 0.453125 -0.242188 0.453125 -0.359375 L 0.453125 -1.09375 C 0.453125 -1.1875 0.488281 -1.234375 0.5625 -1.234375 C 0.644531 -1.234375 0.695312 -1.1875 0.71875 -1.09375 C 0.894531 -0.519531 1.253906 -0.234375 1.796875 -0.234375 C 2.046875 -0.234375 2.25 -0.296875 2.40625 -0.421875 C 2.570312 -0.546875 2.65625 -0.703125 2.65625 -0.890625 C 2.65625 -1.078125 2.582031 -1.238281 2.4375 -1.375 C 2.289062 -1.507812 2.109375 -1.625 1.890625 -1.71875 C 1.679688 -1.820312 1.46875 -1.929688 1.25 -2.046875 C 1.039062 -2.160156 0.859375 -2.300781 0.703125 -2.46875 C 0.554688 -2.644531 0.484375 -2.847656 0.484375 -3.078125 C 0.484375 -3.410156 0.613281 -3.6875 0.875 -3.90625 C 1.132812 -4.132812 1.476562 -4.25 1.90625 -4.25 C 2.195312 -4.25 2.460938 -4.195312 2.703125 -4.09375 C 2.941406 -4 3.0625 -3.898438 3.0625 -3.796875 L 3.0625 -3.15625 C 3.0625 -3.050781 3.019531 -3 2.9375 -3 C 2.863281 -3 2.816406 -3.050781 2.796875 -3.15625 C 2.640625 -3.664062 2.328125 -3.921875 1.859375 -3.921875 C 1.640625 -3.921875 1.453125 -3.863281 1.296875 -3.75 C 1.148438 -3.644531 1.078125 -3.503906 1.078125 -3.328125 C 1.078125 -3.148438 1.148438 -2.988281 1.296875 -2.84375 C 1.453125 -2.707031 1.640625 -2.585938 1.859375 -2.484375 C 2.078125 -2.378906 2.296875 -2.269531 2.515625 -2.15625 C 2.734375 -2.050781 2.914062 -1.90625 3.0625 -1.71875 C 3.21875 -1.53125 3.296875 -1.316406 3.296875 -1.078125 Z M 3.296875 -1.078125 "/></g></g></g><g fill="#403737" fill-opacity="1"><g transform="translate(176.526778, 253.937558)"><g><path d="M 3 -0.40625 C 3 -0.289062 2.882812 -0.175781 2.65625 -0.0625 C 2.425781 0.0390625 2.203125 0.09375 1.984375 0.09375 C 1.578125 0.09375 1.285156 0 1.109375 -0.1875 C 0.929688 -0.382812 0.84375 -0.707031 0.84375 -1.15625 L 0.84375 -3.65625 C 0.84375 -3.707031 0.804688 -3.734375 0.734375 -3.734375 L 0.234375 -3.734375 C 0.203125 -3.734375 0.175781 -3.742188 0.15625 -3.765625 C 0.132812 -3.785156 0.128906 -3.8125 0.140625 -3.84375 L 0.15625 -4.0625 C 0.164062 -4.125 0.195312 -4.15625 0.25 -4.15625 L 0.75 -4.15625 C 0.800781 -4.15625 0.828125 -4.1875 0.828125 -4.25 L 0.90625 -5.40625 C 0.914062 -5.507812 0.96875 -5.5625 1.0625 -5.5625 C 1.144531 -5.5625 1.195312 -5.519531 1.21875 -5.4375 L 1.5 -4.265625 C 1.507812 -4.191406 1.550781 -4.15625 1.625 -4.15625 L 2.859375 -4.15625 C 2.929688 -4.15625 2.960938 -4.125 2.953125 -4.0625 L 2.921875 -3.84375 C 2.910156 -3.769531 2.878906 -3.734375 2.828125 -3.734375 L 1.5625 -3.734375 C 1.519531 -3.734375 1.5 -3.707031 1.5 -3.65625 L 1.5 -1.078125 C 1.5 -0.554688 1.703125 -0.296875 2.109375 -0.296875 C 2.285156 -0.296875 2.460938 -0.328125 2.640625 -0.390625 L 2.90625 -0.484375 C 2.96875 -0.484375 3 -0.457031 3 -0.40625 Z M 3 -0.40625 "/></g></g></g><g fill="#403737" fill-opacity="1"><g transform="translate(180.777205, 253.937558)"><g><path d="M 1 -0.9375 C 1.144531 -0.9375 1.265625 -0.882812 1.359375 -0.78125 C 1.460938 -0.675781 1.515625 -0.550781 1.515625 -0.40625 C 1.515625 -0.269531 1.460938 -0.148438 1.359375 -0.046875 C 1.265625 0.046875 1.144531 0.09375 1 0.09375 C 0.863281 0.09375 0.742188 0.046875 0.640625 -0.046875 C 0.546875 -0.148438 0.5 -0.269531 0.5 -0.40625 C 0.5 -0.550781 0.546875 -0.675781 0.640625 -0.78125 C 0.742188 -0.882812 0.863281 -0.9375 1 -0.9375 Z M 1 -0.9375 "/></g></g></g><g fill="#403737" fill-opacity="1"><g transform="translate(184.046118, 253.937558)"><g/></g></g><g fill="#403737" fill-opacity="1"><g transform="translate(187.206906, 253.937558)"><g><path d="M 3.546875 0 L 0.4375 0 C 0.363281 0 0.328125 -0.03125 0.328125 -0.09375 L 0.328125 -0.171875 C 0.328125 -0.210938 0.34375 -0.257812 0.375 -0.3125 C 0.625 -0.695312 0.925781 -1.140625 1.28125 -1.640625 C 1.644531 -2.140625 1.914062 -2.519531 2.09375 -2.78125 C 2.28125 -3.050781 2.445312 -3.34375 2.59375 -3.65625 C 2.738281 -3.976562 2.8125 -4.285156 2.8125 -4.578125 C 2.8125 -4.878906 2.722656 -5.125 2.546875 -5.3125 C 2.378906 -5.5 2.148438 -5.59375 1.859375 -5.59375 C 1.578125 -5.59375 1.351562 -5.5 1.1875 -5.3125 C 1.019531 -5.125 0.898438 -4.914062 0.828125 -4.6875 C 0.804688 -4.582031 0.75 -4.53125 0.65625 -4.53125 C 0.613281 -4.53125 0.578125 -4.546875 0.546875 -4.578125 C 0.523438 -4.609375 0.515625 -4.644531 0.515625 -4.6875 L 0.515625 -5.34375 C 0.515625 -5.457031 0.65625 -5.578125 0.9375 -5.703125 C 1.226562 -5.835938 1.554688 -5.90625 1.921875 -5.90625 C 2.429688 -5.90625 2.832031 -5.769531 3.125 -5.5 C 3.425781 -5.238281 3.578125 -4.898438 3.578125 -4.484375 C 3.578125 -4.210938 3.507812 -3.9375 3.375 -3.65625 C 3.25 -3.375 3.097656 -3.125 2.921875 -2.90625 C 2.742188 -2.695312 2.46875 -2.367188 2.09375 -1.921875 C 1.726562 -1.472656 1.410156 -1.066406 1.140625 -0.703125 L 3.1875 -0.703125 C 3.375 -0.703125 3.488281 -0.742188 3.53125 -0.828125 C 3.582031 -0.921875 3.640625 -0.96875 3.703125 -0.96875 C 3.785156 -0.96875 3.820312 -0.914062 3.8125 -0.8125 L 3.765625 -0.265625 C 3.753906 -0.179688 3.726562 -0.113281 3.6875 -0.0625 C 3.644531 -0.0195312 3.597656 0 3.546875 0 Z M 3.546875 0 "/></g></g></g><g fill="#403737" fill-opacity="1"><g transform="translate(192.771556, 253.937558)"><g><path d="M 2.578125 -5.546875 C 1.660156 -5.546875 1.203125 -4.664062 1.203125 -2.90625 C 1.203125 -1.144531 1.660156 -0.265625 2.578125 -0.265625 C 3.492188 -0.265625 3.953125 -1.144531 3.953125 -2.90625 C 3.953125 -4.664062 3.492188 -5.546875 2.578125 -5.546875 Z M 0.96875 -0.734375 C 0.601562 -1.296875 0.421875 -2.019531 0.421875 -2.90625 C 0.421875 -3.789062 0.601562 -4.507812 0.96875 -5.0625 C 1.34375 -5.625 1.875 -5.90625 2.5625 -5.90625 C 3.257812 -5.90625 3.796875 -5.625 4.171875 -5.0625 C 4.546875 -4.507812 4.734375 -3.789062 4.734375 -2.90625 C 4.734375 -2.019531 4.546875 -1.296875 4.171875 -0.734375 C 3.796875 -0.179688 3.257812 0.09375 2.5625 0.09375 C 1.875 0.09375 1.34375 -0.179688 0.96875 -0.734375 Z M 0.96875 -0.734375 "/></g></g></g><g fill="#403737" fill-opacity="1"><g transform="translate(199.176309, 253.937558)"><g><path d="M 3.546875 0 L 0.4375 0 C 0.363281 0 0.328125 -0.03125 0.328125 -0.09375 L 0.328125 -0.171875 C 0.328125 -0.210938 0.34375 -0.257812 0.375 -0.3125 C 0.625 -0.695312 0.925781 -1.140625 1.28125 -1.640625 C 1.644531 -2.140625 1.914062 -2.519531 2.09375 -2.78125 C 2.28125 -3.050781 2.445312 -3.34375 2.59375 -3.65625 C 2.738281 -3.976562 2.8125 -4.285156 2.8125 -4.578125 C 2.8125 -4.878906 2.722656 -5.125 2.546875 -5.3125 C 2.378906 -5.5 2.148438 -5.59375 1.859375 -5.59375 C 1.578125 -5.59375 1.351562 -5.5 1.1875 -5.3125 C 1.019531 -5.125 0.898438 -4.914062 0.828125 -4.6875 C 0.804688 -4.582031 0.75 -4.53125 0.65625 -4.53125 C 0.613281 -4.53125 0.578125 -4.546875 0.546875 -4.578125 C 0.523438 -4.609375 0.515625 -4.644531 0.515625 -4.6875 L 0.515625 -5.34375 C 0.515625 -5.457031 0.65625 -5.578125 0.9375 -5.703125 C 1.226562 -5.835938 1.554688 -5.90625 1.921875 -5.90625 C 2.429688 -5.90625 2.832031 -5.769531 3.125 -5.5 C 3.425781 -5.238281 3.578125 -4.898438 3.578125 -4.484375 C 3.578125 -4.210938 3.507812 -3.9375 3.375 -3.65625 C 3.25 -3.375 3.097656 -3.125 2.921875 -2.90625 C 2.742188 -2.695312 2.46875 -2.367188 2.09375 -1.921875 C 1.726562 -1.472656 1.410156 -1.066406 1.140625 -0.703125 L 3.1875 -0.703125 C 3.375 -0.703125 3.488281 -0.742188 3.53125 -0.828125 C 3.582031 -0.921875 3.640625 -0.96875 3.703125 -0.96875 C 3.785156 -0.96875 3.820312 -0.914062 3.8125 -0.8125 L 3.765625 -0.265625 C 3.753906 -0.179688 3.726562 -0.113281 3.6875 -0.0625 C 3.644531 -0.0195312 3.597656 0 3.546875 0 Z M 3.546875 0 "/></g></g></g><g fill="#403737" fill-opacity="1"><g transform="translate(204.740958, 253.937558)"><g><path d="M 2.578125 -5.546875 C 1.660156 -5.546875 1.203125 -4.664062 1.203125 -2.90625 C 1.203125 -1.144531 1.660156 -0.265625 2.578125 -0.265625 C 3.492188 -0.265625 3.953125 -1.144531 3.953125 -2.90625 C 3.953125 -4.664062 3.492188 -5.546875 2.578125 -5.546875 Z M 0.96875 -0.734375 C 0.601562 -1.296875 0.421875 -2.019531 0.421875 -2.90625 C 0.421875 -3.789062 0.601562 -4.507812 0.96875 -5.0625 C 1.34375 -5.625 1.875 -5.90625 2.5625 -5.90625 C 3.257812 -5.90625 3.796875 -5.625 4.171875 -5.0625 C 4.546875 -4.507812 4.734375 -3.789062 4.734375 -2.90625 C 4.734375 -2.019531 4.546875 -1.296875 4.171875 -0.734375 C 3.796875 -0.179688 3.257812 0.09375 2.5625 0.09375 C 1.875 0.09375 1.34375 -0.179688 0.96875 -0.734375 Z M 0.96875 -0.734375 "/></g></g></g><g fill="#403737" fill-opacity="1"><g transform="translate(172.942459, 96.838866)"><g><path d="M 3.46875 -8.6875 C 4.75 -8.78125 5.796875 -8.484375 6.609375 -7.796875 C 7.421875 -7.117188 7.867188 -6.171875 7.953125 -4.953125 C 8.046875 -3.734375 7.726562 -2.675781 7 -1.78125 C 6.28125 -0.882812 5.304688 -0.390625 4.078125 -0.296875 L 2.03125 -0.15625 L 0.53125 0.03125 C 0.414062 0.03125 0.351562 -0.0195312 0.34375 -0.125 C 0.34375 -0.238281 0.390625 -0.296875 0.484375 -0.296875 L 0.828125 -0.34375 C 0.984375 -0.375 1.109375 -0.4375 1.203125 -0.53125 C 1.296875 -0.625 1.335938 -0.742188 1.328125 -0.890625 L 0.828125 -7.71875 C 0.804688 -8 0.613281 -8.140625 0.25 -8.140625 L -0.09375 -8.15625 C -0.1875 -8.164062 -0.238281 -8.21875 -0.25 -8.3125 C -0.257812 -8.414062 -0.207031 -8.46875 -0.09375 -8.46875 L 1.421875 -8.546875 Z M 5.96875 -7.0625 C 5.695312 -7.4375 5.347656 -7.71875 4.921875 -7.90625 C 4.492188 -8.101562 4.015625 -8.179688 3.484375 -8.140625 L 2.40625 -8.0625 C 2.238281 -8.050781 2.109375 -7.988281 2.015625 -7.875 C 1.921875 -7.769531 1.878906 -7.628906 1.890625 -7.453125 L 2.34375 -1.28125 C 2.351562 -1.113281 2.410156 -0.984375 2.515625 -0.890625 C 2.628906 -0.796875 2.769531 -0.753906 2.9375 -0.765625 L 4.078125 -0.84375 C 5.003906 -0.914062 5.71875 -1.289062 6.21875 -1.96875 C 6.726562 -2.644531 6.945312 -3.484375 6.875 -4.484375 C 6.800781 -5.492188 6.5 -6.351562 5.96875 -7.0625 Z M 5.96875 -7.0625 "/></g></g></g><g fill="#403737" fill-opacity="1"><g transform="translate(187.709832, 96.311952)"><g><path d="M 0.734375 0.09375 C 0.617188 0.0820312 0.5625 0.03125 0.5625 -0.0625 C 0.570312 -0.164062 0.625 -0.222656 0.71875 -0.234375 L 0.921875 -0.25 C 1.242188 -0.269531 1.414062 -0.425781 1.4375 -0.71875 L 1.84375 -7.53125 C 1.851562 -7.8125 1.679688 -7.976562 1.328125 -8.03125 L 0.984375 -8.09375 C 0.890625 -8.113281 0.84375 -8.171875 0.84375 -8.265625 C 0.851562 -8.367188 0.914062 -8.414062 1.03125 -8.40625 L 2.390625 -8.28125 L 3.578125 -8.25 C 3.691406 -8.25 3.742188 -8.203125 3.734375 -8.109375 C 3.734375 -7.992188 3.679688 -7.9375 3.578125 -7.9375 L 3.375 -7.90625 C 3.050781 -7.875 2.882812 -7.726562 2.875 -7.46875 L 2.46875 -0.65625 C 2.457031 -0.507812 2.5 -0.390625 2.59375 -0.296875 C 2.695312 -0.210938 2.820312 -0.15625 2.96875 -0.125 L 3.3125 -0.09375 C 3.414062 -0.0820312 3.460938 -0.0234375 3.453125 0.078125 C 3.453125 0.128906 3.429688 0.171875 3.390625 0.203125 C 3.359375 0.234375 3.320312 0.242188 3.28125 0.234375 L 1.921875 0.109375 Z M 0.734375 0.09375 "/></g></g></g><g fill="#403737" fill-opacity="1"><g transform="translate(197.372725, 97.101657)"><g><path d="M 6.5625 -7.421875 C 7.21875 -7.296875 7.796875 -7.085938 8.296875 -6.796875 C 8.804688 -6.515625 9.046875 -6.285156 9.015625 -6.109375 L 8.75 -4.765625 C 8.738281 -4.710938 8.707031 -4.660156 8.65625 -4.609375 C 8.613281 -4.566406 8.5625 -4.550781 8.5 -4.5625 C 8.363281 -4.59375 8.289062 -4.691406 8.28125 -4.859375 C 8.257812 -5.398438 8.082031 -5.859375 7.75 -6.234375 C 7.414062 -6.617188 6.988281 -6.859375 6.46875 -6.953125 C 5.488281 -7.148438 4.644531 -6.976562 3.9375 -6.4375 C 3.238281 -5.90625 2.789062 -5.140625 2.59375 -4.140625 C 2.457031 -3.472656 2.457031 -2.804688 2.59375 -2.140625 C 2.738281 -1.472656 3.015625 -0.890625 3.421875 -0.390625 C 3.828125 0.0976562 4.320312 0.398438 4.90625 0.515625 C 5.488281 0.628906 6.003906 0.601562 6.453125 0.4375 C 6.910156 0.269531 7.171875 0.0507812 7.234375 -0.21875 L 7.515625 -1.671875 C 7.566406 -1.972656 7.421875 -2.164062 7.078125 -2.25 L 6.4375 -2.40625 C 6.351562 -2.425781 6.320312 -2.488281 6.34375 -2.59375 C 6.363281 -2.695312 6.425781 -2.738281 6.53125 -2.71875 L 8.125 -2.359375 L 9.3125 -2.171875 C 9.40625 -2.148438 9.441406 -2.09375 9.421875 -2 C 9.398438 -1.894531 9.347656 -1.847656 9.265625 -1.859375 L 9.0625 -1.859375 C 8.726562 -1.859375 8.535156 -1.726562 8.484375 -1.46875 L 8.03125 0.8125 L 7.984375 1.484375 C 7.960938 1.617188 7.890625 1.671875 7.765625 1.640625 C 7.679688 1.628906 7.617188 1.566406 7.578125 1.453125 C 7.515625 1.148438 7.34375 0.972656 7.0625 0.921875 C 7 0.910156 6.867188 0.929688 6.671875 0.984375 C 6.066406 1.160156 5.40625 1.179688 4.6875 1.046875 C 3.46875 0.804688 2.550781 0.207031 1.9375 -0.75 C 1.332031 -1.707031 1.148438 -2.796875 1.390625 -4.015625 C 1.628906 -5.242188 2.226562 -6.179688 3.1875 -6.828125 C 4.144531 -7.484375 5.269531 -7.679688 6.5625 -7.421875 Z M 6.5625 -7.421875 "/></g></g></g><g fill="#403737" fill-opacity="1"><g transform="translate(211.963301, 100.533989)"><g><path d="M 0.6875 0.28125 C 0.570312 0.25 0.53125 0.1875 0.5625 0.09375 C 0.59375 0 0.660156 -0.046875 0.765625 -0.046875 L 0.953125 0.015625 C 1.265625 0.078125 1.46875 -0.0234375 1.5625 -0.296875 L 3.765625 -6.765625 C 3.847656 -7.035156 3.722656 -7.25 3.390625 -7.40625 L 3.078125 -7.546875 C 3.003906 -7.585938 2.976562 -7.65625 3 -7.75 C 3.039062 -7.84375 3.113281 -7.867188 3.21875 -7.828125 L 4.5 -7.359375 L 5.640625 -7.015625 C 5.742188 -6.972656 5.78125 -6.910156 5.75 -6.828125 C 5.707031 -6.710938 5.640625 -6.671875 5.546875 -6.703125 L 5.328125 -6.75 C 5.023438 -6.789062 4.832031 -6.6875 4.75 -6.4375 L 2.546875 0.03125 C 2.503906 0.164062 2.519531 0.285156 2.59375 0.390625 C 2.664062 0.503906 2.765625 0.597656 2.890625 0.671875 L 3.21875 0.796875 C 3.3125 0.828125 3.34375 0.890625 3.3125 0.984375 C 3.289062 1.035156 3.257812 1.070312 3.21875 1.09375 C 3.175781 1.113281 3.132812 1.113281 3.09375 1.09375 L 1.8125 0.609375 Z M 0.6875 0.28125 "/></g></g></g><g fill="#403737" fill-opacity="1"><g transform="translate(221.077146, 103.892424)"><g><path d="M 7.09375 -4.9375 L 4.15625 1.125 C 4.09375 1.257812 4.085938 1.382812 4.140625 1.5 C 4.203125 1.625 4.296875 1.734375 4.421875 1.828125 L 4.734375 1.984375 C 4.828125 2.035156 4.847656 2.109375 4.796875 2.203125 C 4.773438 2.242188 4.742188 2.269531 4.703125 2.28125 C 4.660156 2.289062 4.617188 2.289062 4.578125 2.28125 L 3.375 1.640625 L 2.015625 1.03125 C 1.984375 1.019531 1.957031 0.988281 1.9375 0.9375 C 1.914062 0.882812 1.914062 0.835938 1.9375 0.796875 C 1.988281 0.703125 2.054688 0.675781 2.140625 0.71875 L 2.53125 0.90625 C 2.675781 0.945312 2.8125 0.953125 2.9375 0.921875 C 3.070312 0.898438 3.171875 0.820312 3.234375 0.6875 L 6.171875 -5.375 C 6.273438 -5.570312 6.238281 -5.710938 6.0625 -5.796875 L 5.15625 -6.25 C 4.800781 -6.414062 4.476562 -6.453125 4.1875 -6.359375 C 3.894531 -6.265625 3.59375 -6.054688 3.28125 -5.734375 C 3.1875 -5.648438 3.097656 -5.628906 3.015625 -5.671875 C 2.941406 -5.710938 2.898438 -5.757812 2.890625 -5.8125 C 2.878906 -5.863281 2.890625 -5.90625 2.921875 -5.9375 L 3.6875 -7.3125 C 3.757812 -7.4375 3.867188 -7.460938 4.015625 -7.390625 L 10.015625 -4.484375 C 10.160156 -4.410156 10.195312 -4.289062 10.125 -4.125 L 9.578125 -2.703125 C 9.554688 -2.648438 9.519531 -2.613281 9.46875 -2.59375 C 9.414062 -2.582031 9.351562 -2.59375 9.28125 -2.625 C 9.207031 -2.664062 9.171875 -2.75 9.171875 -2.875 C 9.222656 -3.332031 9.195312 -3.703125 9.09375 -3.984375 C 9 -4.265625 8.773438 -4.488281 8.421875 -4.65625 L 7.53125 -5.09375 C 7.34375 -5.1875 7.195312 -5.132812 7.09375 -4.9375 Z M 7.09375 -4.9375 "/></g></g></g><g fill="#403737" fill-opacity="1"><g transform="translate(232.866123, 110.050894)"><g><path d="M 4.109375 -1.171875 L 6.3125 0.34375 C 6.394531 0.394531 6.445312 0.367188 6.46875 0.265625 L 7.375 -3.578125 L 4.09375 -1.328125 C 4.03125 -1.273438 4.035156 -1.222656 4.109375 -1.171875 Z M 1.78125 0.25 C 1.738281 0.289062 1.703125 0.332031 1.671875 0.375 C 1.640625 0.425781 1.625 0.503906 1.625 0.609375 C 1.632812 0.710938 1.6875 0.796875 1.78125 0.859375 L 1.96875 1.015625 C 2.039062 1.097656 2.054688 1.171875 2.015625 1.234375 C 1.941406 1.328125 1.859375 1.335938 1.765625 1.265625 L 0.9375 0.640625 L 0 0.0625 C -0.09375 -0.0078125 -0.109375 -0.0859375 -0.046875 -0.171875 C 0.015625 -0.265625 0.0859375 -0.28125 0.171875 -0.21875 L 0.359375 -0.125 C 0.671875 0.0390625 0.957031 0.0390625 1.21875 -0.125 L 8.09375 -4.640625 C 8.164062 -4.703125 8.265625 -4.6875 8.390625 -4.59375 C 8.523438 -4.507812 8.582031 -4.414062 8.5625 -4.3125 L 6.78125 3.6875 C 6.6875 4 6.78125 4.265625 7.0625 4.484375 L 7.25 4.640625 C 7.28125 4.660156 7.296875 4.691406 7.296875 4.734375 C 7.304688 4.773438 7.300781 4.8125 7.28125 4.84375 C 7.207031 4.9375 7.125 4.945312 7.03125 4.875 L 5.921875 4.0625 L 4.875 3.40625 C 4.78125 3.34375 4.757812 3.273438 4.8125 3.203125 C 4.882812 3.109375 4.957031 3.082031 5.03125 3.125 L 5.28125 3.265625 C 5.363281 3.316406 5.453125 3.332031 5.546875 3.3125 C 5.648438 3.289062 5.71875 3.253906 5.75 3.203125 C 5.789062 3.148438 5.820312 3.097656 5.84375 3.046875 L 6.28125 1.140625 C 6.3125 1.054688 6.285156 0.984375 6.203125 0.921875 L 3.640625 -0.84375 C 3.546875 -0.894531 3.460938 -0.894531 3.390625 -0.84375 Z M 1.78125 0.25 "/></g></g></g><g fill="#403737" fill-opacity="1"><g transform="translate(244.494243, 118.634061)"><g><path d="M 6.96875 -3.921875 L 2.515625 0.84375 C 2.410156 0.96875 2.359375 1.097656 2.359375 1.234375 C 2.367188 1.378906 2.4375 1.515625 2.5625 1.640625 L 3.84375 2.828125 C 4.15625 3.117188 4.492188 3.289062 4.859375 3.34375 C 5.222656 3.40625 5.578125 3.332031 5.921875 3.125 C 6.046875 3.0625 6.148438 3.070312 6.234375 3.15625 C 6.328125 3.238281 6.320312 3.332031 6.21875 3.4375 L 5.21875 4.203125 C 5.113281 4.296875 4.992188 4.34375 4.859375 4.34375 C 4.722656 4.34375 4.601562 4.296875 4.5 4.203125 L 1.375 1.296875 L 0.359375 0.390625 C 0.273438 0.316406 0.269531 0.238281 0.34375 0.15625 C 0.414062 0.0820312 0.484375 0.078125 0.546875 0.140625 L 0.8125 0.359375 C 0.9375 0.453125 1.066406 0.503906 1.203125 0.515625 C 1.335938 0.523438 1.457031 0.476562 1.5625 0.375 L 6.21875 -4.625 C 6.40625 -4.832031 6.375 -5.070312 6.125 -5.34375 L 5.90625 -5.609375 C 5.851562 -5.679688 5.859375 -5.75 5.921875 -5.8125 C 5.992188 -5.894531 6.070312 -5.898438 6.15625 -5.828125 L 7.109375 -4.84375 L 8.015625 -4.09375 C 8.097656 -4.007812 8.109375 -3.929688 8.046875 -3.859375 C 7.960938 -3.773438 7.882812 -3.769531 7.8125 -3.84375 L 7.625 -3.953125 C 7.363281 -4.117188 7.144531 -4.109375 6.96875 -3.921875 Z M 6.96875 -3.921875 "/></g></g></g><g fill="#403737" fill-opacity="1"><g transform="translate(253.705152, 127.877895)"><g/></g></g><g fill="#403737" fill-opacity="1"><g transform="translate(259.162012, 134.614987)"><g><path d="M 4.25 0.5 L 5.71875 2.734375 C 5.769531 2.816406 5.820312 2.804688 5.875 2.703125 L 8.1875 -0.484375 L 4.3125 0.34375 C 4.226562 0.363281 4.207031 0.414062 4.25 0.5 Z M 1.546875 0.90625 C 1.503906 0.925781 1.457031 0.953125 1.40625 0.984375 C 1.351562 1.015625 1.3125 1.078125 1.28125 1.171875 C 1.25 1.273438 1.257812 1.378906 1.3125 1.484375 L 1.4375 1.6875 C 1.46875 1.789062 1.453125 1.867188 1.390625 1.921875 C 1.285156 1.984375 1.203125 1.960938 1.140625 1.859375 L 0.625 0.953125 L -0.015625 0.078125 C -0.078125 -0.0234375 -0.0625 -0.109375 0.03125 -0.171875 C 0.125 -0.234375 0.195312 -0.222656 0.25 -0.140625 L 0.375 0.046875 C 0.59375 0.296875 0.863281 0.394531 1.1875 0.34375 L 9.25 -1.203125 C 9.332031 -1.222656 9.414062 -1.164062 9.5 -1.03125 C 9.59375 -0.90625 9.613281 -0.800781 9.5625 -0.71875 L 4.859375 6 C 4.648438 6.25 4.632812 6.53125 4.8125 6.84375 L 4.9375 7.0625 C 4.945312 7.082031 4.945312 7.113281 4.9375 7.15625 C 4.925781 7.195312 4.90625 7.234375 4.875 7.265625 C 4.769531 7.328125 4.6875 7.304688 4.625 7.203125 L 3.921875 6.03125 L 3.203125 5.015625 C 3.140625 4.921875 3.148438 4.847656 3.234375 4.796875 C 3.328125 4.734375 3.40625 4.738281 3.46875 4.8125 L 3.640625 5.046875 C 3.703125 5.117188 3.78125 5.160156 3.875 5.171875 C 3.96875 5.191406 4.039062 5.1875 4.09375 5.15625 C 4.15625 5.125 4.203125 5.082031 4.234375 5.03125 L 5.375 3.4375 C 5.4375 3.375 5.4375 3.300781 5.375 3.21875 L 3.6875 0.609375 C 3.625 0.523438 3.550781 0.488281 3.46875 0.5 Z M 1.546875 0.90625 "/></g></g></g><g fill="#403737" fill-opacity="1"><g transform="translate(266.657649, 146.947491)"><g><path d="M 9.84375 1.109375 C 10.113281 1.722656 10.273438 2.320312 10.328125 2.90625 C 10.378906 3.488281 10.328125 3.816406 10.171875 3.890625 L 8.921875 4.4375 C 8.867188 4.457031 8.804688 4.457031 8.734375 4.4375 C 8.671875 4.425781 8.628906 4.394531 8.609375 4.34375 C 8.554688 4.21875 8.597656 4.101562 8.734375 4 C 9.171875 3.65625 9.445312 3.238281 9.5625 2.75 C 9.6875 2.269531 9.640625 1.785156 9.421875 1.296875 C 9.015625 0.390625 8.382812 -0.195312 7.53125 -0.46875 C 6.6875 -0.738281 5.796875 -0.664062 4.859375 -0.25 C 4.242188 0.0195312 3.703125 0.40625 3.234375 0.90625 C 2.773438 1.40625 2.460938 1.960938 2.296875 2.578125 C 2.128906 3.203125 2.164062 3.785156 2.40625 4.328125 C 2.644531 4.867188 2.957031 5.273438 3.34375 5.546875 C 3.738281 5.828125 4.0625 5.910156 4.3125 5.796875 L 5.671875 5.1875 C 5.953125 5.0625 6.023438 4.832031 5.890625 4.5 L 5.65625 3.90625 C 5.625 3.820312 5.65625 3.753906 5.75 3.703125 C 5.851562 3.660156 5.925781 3.691406 5.96875 3.796875 L 6.59375 5.296875 L 7.109375 6.375 C 7.148438 6.46875 7.125 6.535156 7.03125 6.578125 C 6.9375 6.617188 6.867188 6.601562 6.828125 6.53125 L 6.71875 6.34375 C 6.53125 6.082031 6.316406 6.003906 6.078125 6.109375 L 3.953125 7.0625 L 3.375 7.390625 C 3.25 7.453125 3.160156 7.421875 3.109375 7.296875 C 3.078125 7.222656 3.09375 7.140625 3.15625 7.046875 C 3.375 6.816406 3.421875 6.566406 3.296875 6.296875 C 3.273438 6.234375 3.179688 6.144531 3.015625 6.03125 C 2.523438 5.632812 2.132812 5.109375 1.84375 4.453125 C 1.332031 3.304688 1.289062 2.207031 1.71875 1.15625 C 2.15625 0.113281 2.941406 -0.65625 4.078125 -1.15625 C 5.222656 -1.664062 6.335938 -1.710938 7.421875 -1.296875 C 8.503906 -0.890625 9.3125 -0.0859375 9.84375 1.109375 Z M 9.84375 1.109375 "/></g></g></g><g fill="#403737" fill-opacity="1"><g transform="translate(272.25533, 160.80412)"><g><path d="M 1.671875 6.171875 L 0.5 1.828125 L 0.09375 0.53125 C 0.0625 0.414062 0.0976562 0.34375 0.203125 0.3125 C 0.304688 0.28125 0.367188 0.3125 0.390625 0.40625 L 0.5 0.734375 C 0.5625 0.890625 0.644531 1.003906 0.75 1.078125 C 0.863281 1.148438 0.988281 1.171875 1.125 1.140625 L 7.71875 -0.640625 C 7.988281 -0.710938 8.09375 -0.929688 8.03125 -1.296875 L 7.984375 -1.640625 C 7.960938 -1.734375 8 -1.789062 8.09375 -1.8125 C 8.195312 -1.84375 8.265625 -1.800781 8.296875 -1.6875 L 8.609375 -0.359375 L 9.71875 3.75 C 9.75 3.894531 9.734375 4.023438 9.671875 4.140625 C 9.617188 4.253906 9.53125 4.332031 9.40625 4.375 L 8.390625 4.84375 C 8.242188 4.90625 8.148438 4.867188 8.109375 4.734375 C 8.078125 4.609375 8.117188 4.507812 8.234375 4.4375 C 8.578125 4.21875 8.796875 3.972656 8.890625 3.703125 C 8.984375 3.429688 8.976562 3.085938 8.875 2.671875 L 8.375 0.84375 C 8.332031 0.675781 8.242188 0.554688 8.109375 0.484375 C 7.984375 0.410156 7.835938 0.394531 7.671875 0.4375 L 5.21875 1.09375 C 5.125 1.125 5.09375 1.1875 5.125 1.28125 L 5.703125 3.4375 C 5.734375 3.539062 5.78125 3.617188 5.84375 3.671875 C 5.914062 3.722656 5.976562 3.75 6.03125 3.75 C 6.082031 3.757812 6.179688 3.757812 6.328125 3.75 L 6.484375 3.765625 C 6.585938 3.765625 6.648438 3.804688 6.671875 3.890625 C 6.691406 3.984375 6.644531 4.046875 6.53125 4.078125 L 5.5625 4.3125 L 4.609375 4.609375 C 4.503906 4.628906 4.4375 4.597656 4.40625 4.515625 C 4.375 4.421875 4.40625 4.347656 4.5 4.296875 L 4.6875 4.21875 C 5.082031 4.03125 5.242188 3.816406 5.171875 3.578125 L 4.59375 1.40625 C 4.5625 1.320312 4.488281 1.296875 4.375 1.328125 L 1.703125 2.046875 C 1.535156 2.097656 1.414062 2.1875 1.34375 2.3125 C 1.28125 2.4375 1.269531 2.582031 1.3125 2.75 L 1.828125 4.671875 C 1.941406 5.078125 2.132812 5.394531 2.40625 5.625 C 2.6875 5.863281 3.03125 5.988281 3.4375 6 C 3.582031 6 3.664062 6.039062 3.6875 6.125 C 3.707031 6.21875 3.695312 6.289062 3.65625 6.34375 C 3.625 6.394531 3.582031 6.421875 3.53125 6.421875 L 2.28125 6.578125 C 2.132812 6.585938 2.003906 6.554688 1.890625 6.484375 C 1.773438 6.410156 1.703125 6.304688 1.671875 6.171875 Z M 1.671875 6.171875 "/></g></g></g><g fill="#403737" fill-opacity="1"><g transform="translate(275.388879, 173.882214)"><g><path d="M 2.59375 7.109375 L 8.390625 6.46875 C 8.660156 6.445312 8.796875 6.253906 8.796875 5.890625 L 8.796875 5.53125 C 8.804688 5.457031 8.859375 5.414062 8.953125 5.40625 C 9.054688 5.394531 9.113281 5.441406 9.125 5.546875 L 9.203125 6.703125 L 9.34375 7.640625 C 9.363281 7.765625 9.320312 7.832031 9.21875 7.84375 C 9.125 7.851562 9.066406 7.804688 9.046875 7.703125 L 8.96875 7.5 C 8.882812 7.1875 8.710938 7.039062 8.453125 7.0625 L 0.890625 7.90625 C 0.796875 7.914062 0.742188 7.878906 0.734375 7.796875 L 0.71875 7.640625 C 0.695312 7.429688 0.769531 7.25 0.9375 7.09375 L 6.8125 1.34375 C 6.820312 1.320312 6.828125 1.296875 6.828125 1.265625 C 6.828125 1.234375 6.785156 1.222656 6.703125 1.234375 L 1.015625 1.859375 C 0.742188 1.890625 0.597656 2.070312 0.578125 2.40625 L 0.578125 2.609375 C 0.566406 2.710938 0.515625 2.769531 0.421875 2.78125 C 0.328125 2.789062 0.269531 2.734375 0.25 2.609375 L 0.1875 1.671875 L 0.03125 0.53125 C 0.0195312 0.414062 0.0625 0.351562 0.15625 0.34375 C 0.25 0.332031 0.3125 0.375 0.34375 0.46875 L 0.40625 0.8125 C 0.488281 1.15625 0.671875 1.3125 0.953125 1.28125 L 7.734375 0.53125 C 8.003906 0.507812 8.140625 0.335938 8.140625 0.015625 L 8.15625 -0.1875 C 8.15625 -0.289062 8.207031 -0.347656 8.3125 -0.359375 C 8.414062 -0.367188 8.472656 -0.3125 8.484375 -0.1875 L 8.546875 0.75 C 8.566406 0.988281 8.515625 1.171875 8.390625 1.296875 L 2.53125 7 C 2.507812 7.019531 2.5 7.046875 2.5 7.078125 C 2.507812 7.109375 2.539062 7.117188 2.59375 7.109375 Z M 2.59375 7.109375 "/></g></g></g><g fill="#403737" fill-opacity="1"><g transform="translate(276.540492, 188.811748)"><g><path d="M 6 7.859375 C 5.9375 7.859375 5.878906 7.835938 5.828125 7.796875 C 5.773438 7.753906 5.753906 7.707031 5.765625 7.65625 C 5.765625 7.519531 5.851562 7.4375 6.03125 7.40625 C 6.550781 7.300781 6.972656 7.054688 7.296875 6.671875 C 7.628906 6.296875 7.804688 5.835938 7.828125 5.296875 C 7.878906 4.328125 7.585938 3.539062 6.953125 2.9375 C 6.316406 2.332031 5.484375 2.003906 4.453125 1.953125 C 3.421875 1.910156 2.484375 2.171875 1.640625 2.734375 C 0.796875 3.304688 0.351562 4.046875 0.3125 4.953125 C 0.289062 5.472656 0.320312 5.863281 0.40625 6.125 C 0.5 6.394531 0.566406 6.578125 0.609375 6.671875 C 0.648438 6.765625 0.710938 6.882812 0.796875 7.03125 C 0.890625 7.175781 0.9375 7.253906 0.9375 7.265625 C 1.03125 7.410156 1.039062 7.507812 0.96875 7.5625 C 0.90625 7.625 0.84375 7.648438 0.78125 7.640625 C 0.726562 7.640625 0.671875 7.609375 0.609375 7.546875 C 0.328125 7.253906 0.113281 6.96875 -0.03125 6.6875 C -0.28125 6.15625 -0.390625 5.53125 -0.359375 4.8125 C -0.296875 3.5625 0.160156 2.5625 1.015625 1.8125 C 1.878906 1.070312 2.9375 0.726562 4.1875 0.78125 C 5.4375 0.84375 6.445312 1.289062 7.21875 2.125 C 8 2.96875 8.359375 4.035156 8.296875 5.328125 C 8.265625 6.003906 8.140625 6.609375 7.921875 7.140625 C 7.710938 7.671875 7.519531 7.929688 7.34375 7.921875 Z M 6 7.859375 "/></g></g></g><g fill="#403737" fill-opacity="1"><g transform="translate(275.44091, 202.805391)"><g><path d="M 6.609375 9.90625 C 6.585938 10.019531 6.53125 10.066406 6.4375 10.046875 C 6.34375 10.023438 6.300781 9.96875 6.3125 9.875 L 6.328125 9.53125 C 6.359375 9.257812 6.25 9.003906 6 8.765625 L 2.796875 5.71875 C 2.628906 5.59375 2.453125 5.5 2.265625 5.4375 L -0.1875 4.9375 C -0.332031 4.90625 -0.453125 4.929688 -0.546875 5.015625 C -0.648438 5.097656 -0.726562 5.21875 -0.78125 5.375 L -0.875 5.71875 C -0.882812 5.800781 -0.941406 5.832031 -1.046875 5.8125 C -1.097656 5.800781 -1.132812 5.773438 -1.15625 5.734375 C -1.1875 5.691406 -1.195312 5.65625 -1.1875 5.625 L -0.875 4.296875 L -0.6875 3.109375 C -0.65625 2.992188 -0.585938 2.945312 -0.484375 2.96875 C -0.390625 2.988281 -0.34375 3.046875 -0.34375 3.140625 L -0.375 3.359375 C -0.394531 3.679688 -0.265625 3.867188 0.015625 3.921875 L 2.3125 4.390625 C 2.457031 4.421875 2.597656 4.410156 2.734375 4.359375 L 7.25 2.625 C 7.570312 2.488281 7.773438 2.285156 7.859375 2.015625 L 7.96875 1.703125 C 8 1.609375 8.0625 1.570312 8.15625 1.59375 C 8.25 1.613281 8.285156 1.679688 8.265625 1.796875 L 7.921875 3.171875 L 7.703125 4.4375 C 7.679688 4.550781 7.617188 4.597656 7.515625 4.578125 C 7.421875 4.554688 7.378906 4.492188 7.390625 4.390625 L 7.421875 4.1875 C 7.421875 4.039062 7.375 3.929688 7.28125 3.859375 C 7.1875 3.796875 7.09375 3.785156 7 3.828125 L 3.21875 5.1875 C 3.15625 5.207031 3.117188 5.238281 3.109375 5.28125 C 3.097656 5.320312 3.109375 5.363281 3.140625 5.40625 L 6.125 8.109375 C 6.195312 8.191406 6.285156 8.21875 6.390625 8.1875 C 6.503906 8.164062 6.585938 8.085938 6.640625 7.953125 L 6.703125 7.734375 C 6.742188 7.628906 6.8125 7.59375 6.90625 7.625 C 7 7.664062 7.035156 7.738281 7.015625 7.84375 L 6.796875 8.75 Z M 6.609375 9.90625 "/></g></g></g></svg>