<svg xmlns="http://www.w3.org/2000/svg" xmlns:xlink="http://www.w3.org/1999/xlink" width="500" zoomAndPan="magnify" viewBox="0 0 375 374.999991" height="500" preserveAspectRatio="xMidYMid meet" version="1.0"><defs><g/><clipPath id="09268be09e"><path d="M 65.832031 122.910156 L 122.082031 122.910156 L 122.082031 244.601562 L 65.832031 244.601562 Z M 65.832031 122.910156 " clip-rule="nonzero"/></clipPath></defs><rect x="-37.5" width="450" fill="#ffffff" y="-37.499999" height="449.999989" fill-opacity="1"/><rect x="-37.5" width="450" fill="#e6e6dd" y="-37.499999" height="449.999989" fill-opacity="1"/><g fill="#2b2b2b" fill-opacity="1"><g transform="translate(125.997726, 242.450051)"><g><path d="M 5.15625 -116.609375 L 37.328125 -116.609375 C 45.648438 -116.609375 51.894531 -114.300781 56.0625 -109.6875 C 60.226562 -105.070312 62.351562 -98.238281 62.4375 -89.1875 L 62.71875 -34.609375 C 62.8125 -23.117188 60.820312 -14.476562 56.75 -8.6875 C 52.675781 -2.894531 45.929688 0 36.515625 0 L 5.15625 0 Z M 32.71875 -20.640625 C 36.96875 -20.640625 39.09375 -22.71875 39.09375 -26.875 L 39.09375 -87.015625 C 39.09375 -89.640625 38.890625 -91.609375 38.484375 -92.921875 C 38.078125 -94.234375 37.328125 -95.113281 36.234375 -95.5625 C 35.148438 -96.019531 33.476562 -96.25 31.21875 -96.25 L 28.640625 -96.25 L 28.640625 -20.640625 Z M 32.71875 -20.640625 "/></g></g></g><g fill="#2b2b2b" fill-opacity="1"><g transform="translate(192.921386, 242.450051)"><g><path d="M 5.15625 0 L 5.15625 -116.609375 L 51.859375 -116.609375 L 51.859375 -94.078125 L 28.921875 -94.078125 L 28.921875 -71.40625 L 50.90625 -71.40625 L 50.90625 -49.40625 L 28.921875 -49.40625 L 28.921875 -22.671875 L 53.34375 -22.671875 L 53.34375 0 Z M 5.15625 0 "/></g></g></g><g fill="#2b2b2b" fill-opacity="1"><g transform="translate(248.849461, 242.450051)"><g><path d="M 15.875 0 L 1.5 -116.75 L 23.75 -116.75 L 32.3125 -37.328125 L 39.90625 -116.75 L 62.171875 -116.75 L 47.78125 0 Z M 15.875 0 "/></g></g></g><g clip-path="url(#09268be09e)"><path fill="#2b2b2b" d="M 65.832031 122.910156 L 122.082031 122.910156 L 122.082031 244.601562 L 65.832031 244.601562 Z M 65.832031 122.910156 " fill-opacity="1" fill-rule="nonzero"/></g><g fill="#e6e6dd" fill-opacity="1"><g transform="translate(111.585686, 232.407993)"><g><path d="M 0.34375 -10.046875 C 0.34375 -8.328125 0.0078125 -6.765625 -0.65625 -5.359375 C -1.332031 -3.953125 -2.320312 -2.84375 -3.625 -2.03125 C -4.925781 -1.226562 -6.5 -0.828125 -8.34375 -0.828125 L -17.78125 -0.828125 L -17.78125 -8.25 L -8.78125 -8.25 C -8.101562 -8.25 -7.566406 -8.390625 -7.171875 -8.671875 C -6.773438 -8.953125 -6.578125 -9.382812 -6.578125 -9.96875 C -6.578125 -10.519531 -6.757812 -10.9375 -7.125 -11.21875 C -7.5 -11.5 -8.019531 -11.640625 -8.6875 -11.640625 L -37.71875 -11.640625 L -37.71875 -19.234375 L -9.4375 -19.234375 C -7.476562 -19.234375 -5.757812 -18.84375 -4.28125 -18.0625 C -2.800781 -17.289062 -1.660156 -16.207031 -0.859375 -14.8125 C -0.0546875 -13.425781 0.34375 -11.835938 0.34375 -10.046875 Z M 0.34375 -10.046875 "/></g></g></g><g fill="#e6e6dd" fill-opacity="1"><g transform="translate(111.585686, 211.951314)"><g><path d="M 0.34375 -10.40625 C 0.34375 -7.300781 -0.53125 -4.992188 -2.28125 -3.484375 C -4.039062 -1.984375 -6.644531 -1.234375 -10.09375 -1.234375 L -37.71875 -1.234375 L -37.71875 -8.5625 L -10.40625 -8.5625 C -9.207031 -8.5625 -8.269531 -8.675781 -7.59375 -8.90625 C -6.914062 -9.144531 -6.578125 -9.644531 -6.578125 -10.40625 C -6.578125 -11.164062 -6.90625 -11.660156 -7.5625 -11.890625 C -8.226562 -12.128906 -9.175781 -12.25 -10.40625 -12.25 L -37.71875 -12.25 L -37.71875 -19.578125 L -10.09375 -19.578125 C -6.644531 -19.578125 -4.039062 -18.820312 -2.28125 -17.3125 C -0.53125 -15.8125 0.34375 -13.507812 0.34375 -10.40625 Z M 0.34375 -10.40625 "/></g></g></g><g fill="#e6e6dd" fill-opacity="1"><g transform="translate(111.585686, 191.143439)"><g><path d="M 0 -1.671875 L -37.71875 -1.671875 L -37.71875 -9.21875 L -6.40625 -9.21875 L -6.40625 -16.984375 L 0 -16.984375 Z M 0 -1.671875 "/></g></g></g><g fill="#e6e6dd" fill-opacity="1"><g transform="translate(111.585686, 173.715748)"><g><path d="M 0 -1.671875 L -37.71875 -1.671875 L -37.71875 -16.765625 L -30.421875 -16.765625 L -30.421875 -9.359375 L -23.09375 -9.359375 L -23.09375 -16.46875 L -15.984375 -16.46875 L -15.984375 -9.359375 L -7.328125 -9.359375 L -7.328125 -17.25 L 0 -17.25 Z M 0 -1.671875 "/></g></g></g><g fill="#e6e6dd" fill-opacity="1"><g transform="translate(111.585686, 155.629587)"><g><path d="M 0.34375 -10.625 C 0.34375 -7.195312 -0.5 -4.722656 -2.1875 -3.203125 C -3.882812 -1.679688 -6.625 -0.921875 -10.40625 -0.921875 L -14.09375 -0.921875 L -14.09375 -8.34375 L -9.390625 -8.34375 C -7.515625 -8.34375 -6.578125 -8.941406 -6.578125 -10.140625 C -6.578125 -10.816406 -6.773438 -11.285156 -7.171875 -11.546875 C -7.566406 -11.804688 -8.234375 -11.9375 -9.171875 -11.9375 C -10.398438 -11.9375 -11.414062 -11.789062 -12.21875 -11.5 C -13.03125 -11.207031 -13.707031 -10.832031 -14.25 -10.375 C -14.789062 -9.925781 -15.628906 -9.117188 -16.765625 -7.953125 L -20.015625 -4.703125 C -22.472656 -2.179688 -25.195312 -0.921875 -28.1875 -0.921875 C -31.40625 -0.921875 -33.851562 -1.660156 -35.53125 -3.140625 C -37.21875 -4.617188 -38.0625 -6.773438 -38.0625 -9.609375 C -38.0625 -13.003906 -37.160156 -15.445312 -35.359375 -16.9375 C -33.566406 -18.4375 -30.753906 -19.1875 -26.921875 -19.1875 L -26.921875 -11.5 L -29.5 -11.453125 C -30 -11.453125 -30.394531 -11.3125 -30.6875 -11.03125 C -30.976562 -10.757812 -31.125 -10.375 -31.125 -9.875 C -31.125 -9.289062 -30.960938 -8.851562 -30.640625 -8.5625 C -30.316406 -8.269531 -29.878906 -8.125 -29.328125 -8.125 C -28.097656 -8.125 -26.828125 -8.828125 -25.515625 -10.234375 L -21.296875 -14.625 C -20.296875 -15.644531 -19.347656 -16.488281 -18.453125 -17.15625 C -17.566406 -17.832031 -16.515625 -18.375 -15.296875 -18.78125 C -14.085938 -19.195312 -12.644531 -19.40625 -10.96875 -19.40625 C -7.257812 -19.40625 -4.445312 -18.722656 -2.53125 -17.359375 C -0.613281 -16.003906 0.34375 -13.757812 0.34375 -10.625 Z M 0.34375 -10.625 "/></g></g></g></svg>