<svg xmlns="http://www.w3.org/2000/svg" xmlns:xlink="http://www.w3.org/1999/xlink" width="500" zoomAndPan="magnify" viewBox="0 0 375 374.999991" height="500" preserveAspectRatio="xMidYMid meet" version="1.0"><defs><g/><clipPath id="7b150ffeb0"><path d="M 148 119.183594 L 227 119.183594 L 227 189 L 148 189 Z M 148 119.183594 " clip-rule="nonzero"/></clipPath><clipPath id="37ab44e2c2"><path d="M 123.03125 160 L 173 160 L 173 231.835938 L 123.03125 231.835938 Z M 123.03125 160 " clip-rule="nonzero"/></clipPath><clipPath id="9b22b89337"><path d="M 148 184 L 184 184 L 184 231.835938 L 148 231.835938 Z M 148 184 " clip-rule="nonzero"/></clipPath><clipPath id="1a3fc63d72"><path d="M 202 160 L 252 160 L 252 231.835938 L 202 231.835938 Z M 202 160 " clip-rule="nonzero"/></clipPath><clipPath id="6ca4aa71ac"><path d="M 191 184 L 227 184 L 227 231.835938 L 191 231.835938 Z M 191 184 " clip-rule="nonzero"/></clipPath><clipPath id="5a2719b201"><path d="M 142.910156 101.25 L 232.089844 101.25 L 232.089844 190.425781 L 142.910156 190.425781 Z M 142.910156 101.25 " clip-rule="nonzero"/></clipPath><clipPath id="a54b75f487"><path d="M 187.5 101.25 C 162.875 101.25 142.910156 121.210938 142.910156 145.839844 C 142.910156 170.464844 162.875 190.425781 187.5 190.425781 C 212.125 190.425781 232.089844 170.464844 232.089844 145.839844 C 232.089844 121.210938 212.125 101.25 187.5 101.25 Z M 187.5 101.25 " clip-rule="nonzero"/></clipPath><clipPath id="e582e2faa1"><path d="M 154.34375 109.121094 L 220.953125 109.121094 L 220.953125 175.730469 L 154.34375 175.730469 Z M 154.34375 109.121094 " clip-rule="nonzero"/></clipPath></defs><rect x="-37.5" width="450" fill="#ffffff" y="-37.499999" height="449.999989" fill-opacity="1"/><rect x="-37.5" width="450" fill="#545454" y="-37.499999" height="449.999989" fill-opacity="1"/><g clip-path="url(#7b150ffeb0)"><path fill="#ffffff" d="M 150.816406 142.824219 C 152.300781 143.003906 153.644531 141.945312 153.820312 140.460938 C 153.980469 139.144531 154.234375 137.863281 154.578125 136.660156 C 155.738281 132.574219 158.457031 129.214844 162.222656 127.203125 C 166.105469 125.132812 170.5625 124.746094 174.78125 126.113281 C 176.917969 126.808594 178.957031 127.78125 180.832031 129.003906 C 184.886719 131.644531 190.113281 131.648438 194.144531 129.015625 C 196.027344 127.785156 198.070312 126.8125 200.21875 126.113281 C 204.441406 124.742188 208.910156 125.136719 212.796875 127.226562 C 216.585938 129.261719 219.308594 132.65625 220.457031 136.78125 C 221.859375 141.828125 221.226562 146.394531 221.21875 146.460938 C 218.75 164.097656 201.761719 176.191406 191.851562 181.832031 C 189.167969 183.359375 185.828125 183.359375 183.144531 181.832031 C 176.691406 178.15625 164.882812 170.316406 158.296875 159.074219 C 157.453125 157.632812 157.503906 155.867188 158.421875 154.574219 C 158.945312 153.84375 159.90625 152.859375 162.3125 152.882812 C 164.097656 152.890625 165.847656 153.585938 167.234375 154.835938 L 167.378906 154.964844 C 173.472656 160.367188 182.597656 161.085938 189.566406 156.714844 L 190.324219 156.242188 C 192.757812 154.714844 194.519531 154.148438 196.828125 154.148438 C 198.320312 154.148438 199.53125 152.9375 199.53125 151.445312 C 199.53125 149.953125 198.320312 148.746094 196.828125 148.746094 C 193.472656 148.746094 190.757812 149.59375 187.453125 151.664062 L 186.695312 152.140625 C 181.746094 155.246094 175.273438 154.746094 170.957031 150.921875 L 170.851562 150.824219 C 168.476562 148.6875 165.453125 147.496094 162.34375 147.480469 C 162.316406 147.480469 162.289062 147.480469 162.261719 147.480469 C 157.78125 147.480469 155.308594 149.632812 154.019531 151.445312 C 151.871094 154.46875 151.722656 158.535156 153.636719 161.804688 C 160.859375 174.132812 173.550781 182.585938 180.472656 186.523438 C 182.640625 187.757812 185.070312 188.375 187.5 188.375 C 189.929688 188.375 192.359375 187.757812 194.523438 186.527344 C 205.292969 180.398438 223.777344 167.136719 226.5625 147.234375 C 226.597656 147.003906 227.386719 141.53125 225.660156 135.335938 C 224.113281 129.777344 220.453125 125.207031 215.351562 122.46875 C 210.230469 119.71875 204.109375 119.175781 198.550781 120.976562 C 195.949219 121.820312 193.476562 123.003906 191.191406 124.492188 C 188.953125 125.957031 186.042969 125.949219 183.78125 124.476562 C 181.503906 122.996094 179.039062 121.816406 176.445312 120.976562 C 170.902344 119.179688 164.792969 119.710938 159.683594 122.4375 C 154.605469 125.144531 150.949219 129.671875 149.382812 135.183594 C 148.960938 136.660156 148.648438 138.21875 148.457031 139.820312 C 148.28125 141.300781 149.335938 142.644531 150.816406 142.824219 " fill-opacity="1" fill-rule="nonzero"/></g><path fill="#ffffff" d="M 204.417969 152.945312 C 204.515625 153.09375 204.632812 153.230469 204.757812 153.355469 C 205.257812 153.855469 205.957031 154.144531 206.664062 154.144531 C 206.84375 154.144531 207.019531 154.128906 207.191406 154.097656 C 207.363281 154.058594 207.535156 154.007812 207.699219 153.941406 C 207.859375 153.871094 208.019531 153.789062 208.164062 153.691406 C 208.3125 153.59375 208.453125 153.476562 208.574219 153.355469 C 208.699219 153.230469 208.808594 153.09375 208.910156 152.945312 C 209.007812 152.800781 209.09375 152.640625 209.15625 152.480469 C 209.226562 152.316406 209.277344 152.148438 209.3125 151.972656 C 209.347656 151.800781 209.367188 151.621094 209.367188 151.445312 C 209.367188 151.273438 209.347656 151.09375 209.3125 150.917969 C 209.277344 150.746094 209.226562 150.578125 209.15625 150.410156 C 209.09375 150.25 209.007812 150.09375 208.910156 149.949219 C 208.808594 149.796875 208.699219 149.660156 208.574219 149.535156 C 208.453125 149.414062 208.3125 149.300781 208.164062 149.199219 C 208.019531 149.101562 207.859375 149.019531 207.699219 148.953125 C 207.535156 148.882812 207.363281 148.832031 207.191406 148.796875 C 206.3125 148.621094 205.378906 148.910156 204.757812 149.535156 C 204.632812 149.660156 204.515625 149.796875 204.417969 149.949219 C 204.324219 150.09375 204.238281 150.25 204.171875 150.410156 C 204.101562 150.578125 204.054688 150.746094 204.019531 150.917969 C 203.984375 151.09375 203.964844 151.273438 203.964844 151.445312 C 203.964844 151.621094 203.984375 151.800781 204.019531 151.972656 C 204.054688 152.148438 204.101562 152.316406 204.171875 152.480469 C 204.238281 152.640625 204.324219 152.800781 204.417969 152.945312 " fill-opacity="1" fill-rule="nonzero"/><g clip-path="url(#37ab44e2c2)"><path fill="#ffffff" d="M 135.515625 208.746094 C 137.792969 210.300781 140.453125 212.140625 143.421875 214.214844 C 147.125 216.804688 149.59375 220.859375 150.195312 225.339844 C 150.679688 228.953125 153.792969 231.679688 157.4375 231.679688 L 169.371094 231.679688 C 170.863281 231.679688 172.070312 230.46875 172.070312 228.976562 C 172.070312 227.484375 170.863281 226.277344 169.371094 226.277344 L 157.4375 226.277344 C 156.488281 226.277344 155.675781 225.566406 155.546875 224.625 C 154.75 218.648438 151.457031 213.242188 146.515625 209.785156 C 143.53125 207.703125 140.855469 205.851562 138.5625 204.285156 C 136.5 202.878906 134.972656 200.882812 134.144531 198.507812 C 132.429688 193.601562 129.425781 183.273438 128.574219 169.214844 C 128.523438 168.367188 128.816406 167.558594 129.398438 166.9375 C 129.984375 166.316406 130.777344 165.972656 131.628906 165.972656 C 133.164062 165.972656 134.472656 167.121094 134.664062 168.644531 C 135.070312 171.808594 135.671875 176.34375 136.230469 179.964844 C 136.671875 182.828125 138.117188 185.457031 140.300781 187.367188 L 141.832031 188.707031 C 142.953125 189.691406 144.660156 189.578125 145.644531 188.453125 C 146.625 187.332031 146.511719 185.625 145.390625 184.644531 L 143.859375 183.304688 C 142.628906 182.226562 141.816406 180.75 141.570312 179.140625 C 141.019531 175.578125 140.425781 171.09375 140.023438 167.957031 C 139.484375 163.746094 135.875 160.570312 131.628906 160.570312 C 129.304688 160.570312 127.058594 161.542969 125.464844 163.234375 C 123.875 164.925781 123.042969 167.222656 123.183594 169.539062 C 124.027344 183.511719 126.835938 193.976562 129.046875 200.289062 C 130.257812 203.761719 132.496094 206.683594 135.515625 208.746094 " fill-opacity="1" fill-rule="nonzero"/></g><g clip-path="url(#9b22b89337)"><path fill="#ffffff" d="M 155.488281 205.003906 C 156.371094 205.847656 156.960938 206.980469 157.140625 208.1875 L 157.8125 212.65625 C 158.03125 214.132812 159.40625 215.148438 160.882812 214.925781 C 162.359375 214.703125 163.375 213.328125 163.152344 211.855469 L 162.484375 207.386719 C 162.125 205 160.964844 202.765625 159.214844 201.097656 L 154.550781 196.644531 C 153.792969 195.925781 153.398438 194.957031 153.425781 193.914062 C 153.457031 192.875 153.910156 191.929688 154.703125 191.253906 C 155.859375 190.269531 157.535156 190.113281 158.867188 190.871094 C 166.375 195.128906 171.929688 201.371094 175.269531 205.855469 C 176.976562 208.148438 177.917969 210.996094 177.917969 213.867188 L 177.917969 228.976562 C 177.917969 230.46875 179.128906 231.679688 180.621094 231.679688 C 182.109375 231.679688 183.320312 230.46875 183.320312 228.976562 L 183.320312 213.867188 C 183.320312 209.839844 182 205.847656 179.601562 202.628906 C 175.953125 197.730469 169.855469 190.894531 161.53125 186.171875 C 158.230469 184.300781 154.082031 184.691406 151.199219 187.140625 C 149.257812 188.796875 148.097656 191.210938 148.027344 193.761719 C 147.953125 196.316406 148.972656 198.789062 150.820312 200.554688 L 155.488281 205.003906 " fill-opacity="1" fill-rule="nonzero"/></g><g clip-path="url(#1a3fc63d72)"><path fill="#ffffff" d="M 243.367188 160.570312 C 239.121094 160.570312 235.515625 163.746094 234.976562 167.957031 C 234.574219 171.097656 233.976562 175.589844 233.429688 179.140625 C 233.179688 180.75 232.367188 182.226562 231.140625 183.304688 L 229.609375 184.644531 C 228.488281 185.625 228.375 187.332031 229.355469 188.453125 C 230.339844 189.578125 232.046875 189.691406 233.167969 188.707031 L 234.699219 187.367188 C 236.882812 185.457031 238.328125 182.828125 238.769531 179.964844 C 239.324219 176.359375 239.925781 171.816406 240.332031 168.644531 C 240.527344 167.121094 241.832031 165.972656 243.367188 165.972656 C 244.222656 165.972656 245.015625 166.316406 245.597656 166.9375 C 246.183594 167.558594 246.476562 168.367188 246.425781 169.214844 C 245.574219 183.273438 242.570312 193.601562 240.855469 198.507812 C 240.023438 200.882812 238.496094 202.878906 236.433594 204.285156 C 233.023438 206.617188 229.3125 209.203125 226.804688 210.964844 C 222.929688 213.679688 220.347656 217.929688 219.71875 222.621094 L 219.449219 224.625 C 219.324219 225.566406 218.511719 226.277344 217.5625 226.277344 L 205.625 226.277344 C 204.136719 226.277344 202.925781 227.484375 202.925781 228.976562 C 202.925781 230.46875 204.136719 231.679688 205.625 231.679688 L 217.5625 231.679688 C 221.207031 231.679688 224.320312 228.953125 224.804688 225.339844 L 225.070312 223.339844 C 225.5 220.136719 227.261719 217.238281 229.90625 215.386719 C 232.402344 213.632812 236.089844 211.0625 239.480469 208.746094 C 242.5 206.683594 244.738281 203.761719 245.953125 200.289062 C 248.160156 193.976562 250.96875 183.511719 251.816406 169.539062 C 251.957031 167.222656 251.125 164.925781 249.53125 163.234375 C 247.9375 161.542969 245.691406 160.570312 243.367188 160.570312 " fill-opacity="1" fill-rule="nonzero"/></g><g clip-path="url(#6ca4aa71ac)"><path fill="#ffffff" d="M 223.796875 187.140625 C 220.917969 184.691406 216.765625 184.300781 213.464844 186.171875 C 205.140625 190.894531 199.042969 197.730469 195.394531 202.628906 C 193 205.847656 191.679688 209.839844 191.679688 213.867188 L 191.679688 228.976562 C 191.679688 230.46875 192.886719 231.679688 194.378906 231.679688 C 195.871094 231.679688 197.082031 230.46875 197.082031 228.976562 L 197.082031 213.867188 C 197.082031 210.996094 198.019531 208.148438 199.730469 205.855469 C 203.066406 201.371094 208.625 195.128906 216.132812 190.871094 C 217.464844 190.117188 219.136719 190.269531 220.296875 191.253906 C 221.089844 191.929688 221.542969 192.875 221.574219 193.914062 C 221.601562 194.957031 221.203125 195.925781 220.449219 196.644531 L 215.78125 201.097656 C 214.035156 202.765625 212.875 205 212.515625 207.386719 L 211.84375 211.855469 C 211.625 213.328125 212.640625 214.703125 214.117188 214.925781 C 215.585938 215.148438 216.964844 214.132812 217.1875 212.65625 L 217.859375 208.1875 C 218.039062 206.980469 218.625 205.847656 219.511719 205.003906 L 224.179688 200.554688 C 226.027344 198.789062 227.042969 196.316406 226.972656 193.761719 C 226.898438 191.210938 225.742188 188.796875 223.796875 187.140625 " fill-opacity="1" fill-rule="nonzero"/></g><g clip-path="url(#5a2719b201)"><g clip-path="url(#a54b75f487)"><path fill="#545454" d="M 142.910156 101.25 L 232.089844 101.25 L 232.089844 190.425781 L 142.910156 190.425781 Z M 142.910156 101.25 " fill-opacity="1" fill-rule="nonzero"/></g></g><g clip-path="url(#e582e2faa1)"><path fill="#f5426c" d="M 220.964844 142.441406 C 220.964844 160.816406 206.039062 175.742188 187.648438 175.742188 C 169.257812 175.742188 154.34375 160.816406 154.34375 142.441406 C 154.34375 124.027344 169.257812 109.121094 187.648438 109.121094 C 206.039062 109.121094 220.964844 124.027344 220.964844 142.441406 Z M 220.964844 142.441406 " fill-opacity="1" fill-rule="nonzero"/></g><path fill="#ffffff" d="M 205.269531 140.734375 C 205.269531 134.660156 200.96875 129.75 195.679688 129.75 C 192.246094 129.75 189.234375 131.816406 187.539062 134.925781 C 185.847656 131.816406 182.832031 129.75 179.394531 129.75 C 174.105469 129.75 169.8125 134.660156 169.8125 140.734375 C 169.8125 144.894531 171.828125 148.507812 174.796875 150.367188 L 174.796875 150.371094 L 187.769531 158.339844 L 200.277344 150.371094 L 200.277344 150.367188 C 203.25 148.507812 205.269531 144.894531 205.269531 140.734375 Z M 205.269531 140.734375 " fill-opacity="1" fill-rule="nonzero"/><g fill="#ffffff" fill-opacity="1"><g transform="translate(134.083092, 263.890292)"><g><path d="M 8.761719 0 C 13.675781 0 16.75 -1.292969 16.75 -5.371094 C 16.75 -8.992188 14.308594 -10.257812 11.203125 -10.3125 L 11.203125 -11.003906 C 13.300781 -11.148438 15.257812 -12.355469 15.257812 -15.285156 C 15.257812 -19.277344 12.410156 -20.253906 7.46875 -20.253906 L 2.097656 -20.253906 L 2.097656 0 Z M 4.453125 -18.242188 L 7.554688 -18.242188 C 10.859375 -18.242188 12.898438 -18.042969 12.898438 -14.910156 C 12.898438 -12.039062 10.859375 -11.550781 7.554688 -11.550781 L 4.453125 -11.550781 Z M 4.453125 -9.539062 L 8.847656 -9.539062 C 12.296875 -9.539062 14.394531 -8.734375 14.394531 -5.773438 C 14.394531 -2.585938 12.296875 -2.011719 8.847656 -2.011719 L 4.453125 -2.011719 Z M 4.453125 -9.539062 "/></g></g></g><g fill="#ffffff" fill-opacity="1"><g transform="translate(152.641883, 263.890292)"><g><path d="M 1.523438 -7.328125 C 1.523438 -3.21875 3.675781 0.289062 8.792969 0.289062 C 13.332031 0.289062 15.054688 -2.785156 15.601562 -5 L 13.246094 -5 C 12.726562 -2.816406 11.148438 -1.667969 8.792969 -1.667969 C 5.257812 -1.667969 3.964844 -3.992188 3.820312 -6.695312 L 15.113281 -6.695312 L 15.113281 -7.613281 C 15.113281 -12.007812 12.46875 -14.566406 8.445312 -14.566406 C 4.394531 -14.566406 1.523438 -11.921875 1.523438 -7.328125 Z M 3.820312 -8.476562 C 3.820312 -10.773438 5.632812 -12.585938 8.445312 -12.585938 C 11.292969 -12.585938 12.8125 -10.773438 12.8125 -8.476562 Z M 3.820312 -8.476562 "/></g></g></g><g fill="#ffffff" fill-opacity="1"><g transform="translate(169.764239, 263.890292)"><g/></g></g><g fill="#ffffff" fill-opacity="1"><g transform="translate(179.302202, 263.890292)"><g><path d="M 14.652344 0 L 14.652344 -2.011719 L 4.453125 -1.722656 L 4.453125 -20.253906 L 2.097656 -20.253906 L 2.097656 -1.4375 C 2.097656 -0.34375 2.730469 0.316406 3.851562 0.289062 Z M 14.652344 0 "/></g></g></g><g fill="#ffffff" fill-opacity="1"><g transform="translate(194.901925, 263.890292)"><g><path d="M 6.292969 -16.550781 C 7.441406 -16.550781 8.359375 -17.410156 8.359375 -18.558594 C 8.359375 -19.652344 7.441406 -20.542969 6.292969 -20.542969 C 5.113281 -20.542969 4.222656 -19.652344 4.222656 -18.558594 C 4.222656 -17.410156 5.113281 -16.550781 6.292969 -16.550781 Z M 11.78125 0 L 11.78125 -2.011719 L 7.757812 -2.011719 L 7.757812 -12.84375 C 7.757812 -13.933594 7.238281 -14.679688 5.890625 -14.566406 L 2.585938 -14.277344 L 2.585938 -12.269531 L 5.546875 -12.527344 L 5.546875 -2.011719 L 1.523438 -2.011719 L 1.523438 0 Z M 11.78125 0 "/></g></g></g><g fill="#ffffff" fill-opacity="1"><g transform="translate(207.62878, 263.890292)"><g><path d="M 14.882812 0 L 9.367188 -7.671875 L 12.871094 -9.597656 C 13.675781 -10.027344 14.105469 -10.714844 14.019531 -11.664062 L 13.789062 -14.277344 L 11.433594 -14.277344 L 11.722656 -11.433594 L 4.453125 -7.46875 L 4.453125 -21.117188 L 2.097656 -21.117188 L 2.097656 0 L 4.453125 0 L 4.453125 -5 L 7.441406 -6.636719 L 12.210938 0 Z M 14.882812 0 "/></g></g></g><g fill="#ffffff" fill-opacity="1"><g transform="translate(223.774352, 263.890292)"><g><path d="M 1.523438 -7.328125 C 1.523438 -3.21875 3.675781 0.289062 8.792969 0.289062 C 13.332031 0.289062 15.054688 -2.785156 15.601562 -5 L 13.246094 -5 C 12.726562 -2.816406 11.148438 -1.667969 8.792969 -1.667969 C 5.257812 -1.667969 3.964844 -3.992188 3.820312 -6.695312 L 15.113281 -6.695312 L 15.113281 -7.613281 C 15.113281 -12.007812 12.46875 -14.566406 8.445312 -14.566406 C 4.394531 -14.566406 1.523438 -11.921875 1.523438 -7.328125 Z M 3.820312 -8.476562 C 3.820312 -10.773438 5.632812 -12.585938 8.445312 -12.585938 C 11.292969 -12.585938 12.8125 -10.773438 12.8125 -8.476562 Z M 3.820312 -8.476562 "/></g></g></g></svg>