<svg xmlns="http://www.w3.org/2000/svg" xmlns:xlink="http://www.w3.org/1999/xlink" width="500" zoomAndPan="magnify" viewBox="0 0 375 374.999991" height="500" preserveAspectRatio="xMidYMid meet" version="1.0"><defs><g/><clipPath id="7aa9e32bf1"><path d="M 122.96875 114.074219 L 251.902344 114.074219 L 251.902344 265.804688 L 122.96875 265.804688 Z M 122.96875 114.074219 " clip-rule="nonzero"/></clipPath><clipPath id="61ed5292aa"><path d="M 192 109.148438 L 196 109.148438 L 196 114 L 192 114 Z M 192 109.148438 " clip-rule="nonzero"/></clipPath><clipPath id="11eafaad7e"><path d="M 130.582031 199 L 137 199 L 137 205 L 130.582031 205 Z M 130.582031 199 " clip-rule="nonzero"/></clipPath><clipPath id="bd90414336"><path d="M 135 202 L 140 202 L 140 208.160156 L 135 208.160156 Z M 135 202 " clip-rule="nonzero"/></clipPath><clipPath id="ede2f8ec68"><path d="M 135 196.921875 L 140 196.921875 L 140 203 L 135 203 Z M 135 196.921875 " clip-rule="nonzero"/></clipPath><clipPath id="a52a2eb759"><path d="M 238 199 L 244.417969 199 L 244.417969 205 L 238 205 Z M 238 199 " clip-rule="nonzero"/></clipPath><clipPath id="04ee3d9a15"><path d="M 235.019531 202 L 240 202 L 240 208.160156 L 235.019531 208.160156 Z M 235.019531 202 " clip-rule="nonzero"/></clipPath><clipPath id="617d0e9249"><path d="M 235.019531 196.921875 L 240 196.921875 L 240 203 L 235.019531 203 Z M 235.019531 196.921875 " clip-rule="nonzero"/></clipPath></defs><rect x="-37.5" width="450" fill="#ffffff" y="-37.499999" height="449.999989" fill-opacity="1"/><rect x="-37.5" width="450" fill="#102724" y="-37.499999" height="449.999989" fill-opacity="1"/><g clip-path="url(#7aa9e32bf1)"><path fill="#ddac8a" d="M 187.632812 181.917969 C 223.074219 181.917969 251.804688 181.4375 251.804688 180.84375 C 251.804688 180.277344 225.964844 179.816406 193.070312 179.769531 C 193.015625 177.988281 193.300781 176.097656 194.566406 174.617188 C 198.757812 169.710938 208.707031 170.796875 214.105469 172.054688 C 217.308594 172.800781 220.285156 173.550781 222.796875 173.1875 C 220.03125 172.84375 217.550781 171.726562 215.535156 170.507812 C 220.902344 170.792969 226.671875 170.601562 232.214844 169.191406 C 222.625 170.230469 214.261719 167.75 205.242188 166.867188 C 201.347656 166.488281 197.320312 166.625 193.96875 168.695312 C 195.589844 165.957031 200.003906 163.507812 203.125 162.53125 C 206.160156 161.582031 209.207031 161.246094 212.789062 161.039062 C 223.300781 160.71875 224.421875 160.757812 233.152344 162.707031 C 235.113281 163.144531 237.273438 163.742188 239.335938 163.800781 C 237.542969 163.570312 234.976562 162.660156 233.1875 162.089844 C 227.703125 160.355469 225.324219 159.394531 221.335938 158.8125 C 223.175781 158.273438 224.949219 157.699219 226.585938 157.128906 C 229.851562 155.925781 232.785156 154.679688 235.75 152.828125 C 236.9375 152.070312 237.921875 151.351562 238.902344 150.335938 C 239.671875 149.515625 240.21875 148.765625 240.511719 147.664062 C 240.125 148.714844 239.535156 149.398438 238.722656 150.144531 C 237.675781 151.035156 236.652344 151.660156 235.445312 152.304688 C 234.589844 152.730469 233.738281 153.113281 232.882812 153.464844 C 233.597656 152.46875 234.109375 151.398438 234.554688 150.089844 C 235.191406 147.984375 235.34375 146.261719 235.035156 144.078125 C 235.15625 146.234375 234.871094 147.914062 234.070312 149.914062 C 233.570312 151.058594 233.03125 152 232.324219 152.851562 C 231.125 154.285156 230.722656 154.320312 229.007812 154.867188 C 228.066406 155.167969 227.113281 155.449219 226.132812 155.722656 C 222.804688 156.613281 218.234375 157.671875 214.078125 158.128906 C 220.695312 153.976562 218.203125 150.03125 226.179688 146.03125 C 217.507812 149.464844 219.851562 153.449219 211.960938 157.011719 C 209.425781 158.152344 208.578125 158.304688 205.808594 158.160156 C 207.109375 156.054688 208.066406 153.53125 208.945312 151.222656 C 209.773438 149.050781 210.539062 147.023438 211.652344 144.972656 C 212.804688 142.988281 213.863281 141.640625 215.832031 140.40625 C 213.648438 141.386719 212.367188 142.625 210.914062 144.496094 C 209.476562 146.425781 208.429688 148.363281 207.285156 150.472656 C 206.175781 152.515625 205.144531 154.394531 203.722656 156.253906 C 201.019531 159.632812 199.636719 159.503906 196.070312 161.121094 C 194.8125 161.734375 193.707031 162.34375 192.65625 163.078125 C 192.691406 159.515625 192.863281 154.765625 194.214844 151.046875 C 196.960938 143.480469 204.371094 141.050781 209.484375 138.757812 C 206.089844 139.1875 200.5625 141.105469 198.585938 142.160156 C 199.757812 139.898438 203.546875 136.347656 205.949219 134.652344 C 207.902344 133.273438 209.902344 132.152344 211.992188 131.226562 C 213.164062 130.707031 215.527344 130.164062 216.738281 130.320312 C 217.351562 130.394531 218.089844 130.722656 220.058594 131.542969 C 222.070312 132.265625 224.605469 132.660156 226.417969 133.679688 C 226.421875 133.679688 226.605469 133.796875 226.671875 133.796875 C 226.585938 133.769531 226.453125 133.644531 226.363281 133.585938 C 224.605469 132.425781 222.199219 131.96875 220.257812 131.078125 C 217.980469 130.03125 217.324219 129.644531 216.582031 129.542969 C 219.453125 128.691406 222.269531 128.402344 225.050781 127.636719 C 225.332031 127.554688 226.363281 127.207031 226.683594 126.90625 C 225.289062 127.648438 223.191406 127.761719 221.632812 127.902344 C 220.90625 127.96875 220.179688 128.039062 219.460938 128.136719 C 213.960938 128.914062 209.15625 130.488281 204.421875 133.363281 C 204.804688 132.480469 205.152344 131.554688 205.484375 130.566406 C 206.402344 127.632812 206.9375 124.917969 206.496094 121.839844 C 206.484375 124.875 205.671875 127.421875 204.453125 130.167969 C 202.441406 134.316406 201.449219 134.933594 198.539062 137.984375 C 195.894531 140.75 193.738281 144.074219 191.945312 147.367188 C 191.050781 149.070312 190.324219 150.640625 189.722656 152.277344 C 189.148438 150 187.445312 148.109375 186.058594 145.84375 C 185.289062 144.585938 185.289062 143.648438 186.058594 141.550781 C 186.828125 139.703125 188.207031 138.160156 189.464844 136.625 C 191.234375 134.46875 192.53125 132.878906 193.984375 129.675781 C 191.121094 134.550781 185.535156 136.628906 183.480469 141.09375 C 183.265625 140.261719 183.179688 139.351562 183.257812 138.242188 C 183.511719 136.128906 184.125 134.777344 185.015625 132.894531 C 185.746094 131.488281 186.574219 130.265625 187.457031 129.101562 C 188.664062 127.511719 189.527344 127.152344 191.292969 126.308594 C 192.789062 125.644531 194.230469 124.929688 195.679688 124.167969 C 197.097656 123.414062 198.472656 122.640625 199.824219 121.773438 C 200.320312 121.453125 200.800781 121.132812 201.261719 120.765625 C 201.511719 120.570312 201.835938 120.3125 201.992188 120.03125 C 201.855469 120.242188 201.433594 120.582031 201.222656 120.710938 C 200.738281 121.015625 200.238281 121.355469 199.730469 121.617188 C 198.328125 122.375 196.910156 123.0625 195.460938 123.722656 C 193.980469 124.386719 192.515625 125.003906 190.992188 125.550781 C 190.761719 125.632812 190.421875 125.757812 190.046875 125.882812 C 190.429688 125.414062 190.808594 124.941406 191.191406 124.445312 C 192.34375 122.910156 193.183594 121.621094 193.929688 119.839844 C 194.679688 117.863281 194.910156 116.335938 194.828125 114.226562 C 194.660156 116.277344 194.242188 117.71875 193.246094 119.515625 C 192.320312 121.097656 191.363281 122.199219 190.085938 123.496094 C 187.648438 125.875 185.484375 127.605469 183.441406 130.167969 C 183.210938 128.628906 182.925781 127.09375 182.597656 125.601562 C 182.390625 124.664062 182.539062 124.128906 182.78125 123.222656 C 183.0625 122.371094 183.246094 121.5625 183.394531 120.675781 C 183.617188 119.257812 183.851562 117.335938 183.390625 115.953125 C 183.617188 117.371094 183.230469 119.1875 182.875 120.566406 C 182.644531 121.390625 182.394531 122.144531 182.023438 122.917969 C 182 122.964844 181.976562 123.007812 181.957031 123.054688 C 180.972656 120.152344 179.492188 116.515625 176.828125 114.675781 C 179.144531 117.046875 180.0625 121.605469 180.382812 124.449219 C 180.515625 125.691406 180.652344 127.273438 180.71875 128.902344 C 180.820312 131.402344 180.507812 133.949219 179.871094 136.363281 C 179.394531 138.148438 179.113281 140.105469 179.242188 141.417969 C 175.332031 138.859375 171.878906 137.535156 168.550781 134.246094 C 166.339844 131.957031 165.003906 129.679688 163.753906 126.773438 C 162.554688 123.785156 161.882812 121.1875 161.675781 117.964844 C 161.539062 121.242188 161.976562 123.945312 162.90625 127.082031 C 163.859375 130.054688 164.949219 132.421875 166.761719 134.875 C 165.957031 134.566406 165.167969 134.183594 164.308594 133.707031 C 161.335938 131.949219 156.75 127.769531 155.277344 124.574219 C 155.980469 128.316406 162.488281 134.792969 165.933594 136.496094 C 167.753906 137.398438 169.417969 137.929688 171.289062 139.414062 C 173.296875 141.007812 175.136719 142.027344 177.820312 144.257812 C 182.683594 148.34375 183.707031 154.019531 184.503906 158.191406 C 182.328125 153.5 177.628906 150.488281 172.65625 148.609375 C 165.242188 145.8125 163.117188 146.605469 157.324219 139.472656 C 155.320312 136.789062 153.523438 133.859375 152.429688 130.679688 C 152.976562 133.90625 154.773438 137.320312 156.507812 140.058594 C 157.976562 142.296875 159.464844 144.191406 161.238281 145.773438 C 160.851562 145.695312 160.460938 145.613281 160.058594 145.53125 C 153.53125 144.054688 150.121094 142.109375 145.410156 137.265625 C 149.820312 142.585938 153.125 144.945312 159.589844 147.242188 C 165.066406 149.027344 168.710938 149.71875 173.769531 152.878906 C 177.421875 155.445312 179.402344 158.03125 181.136719 161.496094 C 175.800781 159.433594 168.347656 159.800781 162.800781 158.46875 C 159.011719 157.136719 155.164062 156.355469 151.429688 154.917969 C 149.695312 154.195312 148.382812 153.503906 146.957031 152.265625 C 145.957031 151.335938 145.28125 150.46875 144.75 149.417969 C 144.351562 148.636719 144.121094 147.441406 143.511719 146.933594 C 144.015625 147.761719 144.125 149.148438 144.554688 150.207031 C 144.945312 151.15625 145.472656 152.023438 146.222656 152.972656 C 146.445312 153.230469 146.664062 153.46875 146.882812 153.695312 C 143.457031 152.792969 139.277344 152.570312 136.167969 152.691406 C 143.660156 153.042969 145.605469 153.941406 151.785156 157.164062 C 154.734375 158.703125 157.761719 159.839844 160.738281 161.332031 C 155.574219 162.824219 154.949219 164.496094 148.863281 163.886719 C 143.945312 163.398438 138.761719 161.507812 133.984375 161.421875 C 138.808594 162.089844 143.25 163.933594 147.941406 164.824219 C 149.492188 165.222656 150.703125 165.488281 151.679688 165.652344 C 148.363281 167.019531 146.320312 168.886719 142.847656 170.722656 C 145.550781 169.984375 147.890625 167.996094 151.347656 166.648438 C 153.386719 165.851562 159.65625 164.429688 161.558594 164.214844 C 163.40625 164.03125 164.941406 163.953125 166.347656 163.972656 C 169.238281 164.019531 171.570312 164.496094 174.941406 165.367188 C 178.1875 166.207031 180.019531 167.359375 181.128906 169.003906 C 177.972656 168.023438 175.273438 168.921875 172.359375 169.351562 C 168.121094 169.976562 164.039062 168.65625 159.527344 169.136719 C 163.414062 169.589844 165.523438 170.441406 167.808594 171.226562 C 162.976562 173.273438 158.179688 175.601562 152.894531 175.902344 C 158.933594 176.570312 165.21875 174.082031 171.488281 172.71875 C 173.816406 172.253906 176.289062 171.882812 178.503906 172.488281 C 182.53125 173.589844 182.132812 177.804688 181.886719 179.769531 C 149.136719 179.820312 123.457031 180.28125 123.457031 180.84375 C 123.457031 181.4375 152.1875 181.917969 187.632812 181.917969 Z M 182.960938 253.503906 C 184.886719 250.324219 186.535156 248.042969 186.871094 243.367188 C 187.117188 239.929688 186.589844 235.933594 187.3125 232.675781 C 187.707031 230.882812 188.386719 229.070312 188.777344 227.304688 C 189.265625 225.089844 189.0625 223.179688 187.808594 221.320312 C 185.65625 225.019531 184.460938 225.519531 184.0625 230.175781 C 183.644531 235.039062 184.949219 238.886719 182.929688 244.320312 C 184.398438 238.320312 182.285156 234.644531 182.429688 229.109375 C 181.507812 230.515625 180.675781 232.011719 180.023438 233.789062 C 178.855469 237.605469 177.617188 240.425781 177.027344 244.101562 C 176.902344 247.035156 177.714844 250.445312 178.40625 253.097656 C 179.285156 256.222656 180.507812 260.019531 182.171875 262.816406 C 180.085938 260.355469 178.457031 256.445312 177.3125 253.445312 C 176.949219 252.449219 176.582031 251.414062 176.25 250.351562 C 175.84375 252.511719 175.246094 254.609375 174.511719 256.765625 C 173.332031 260.042969 171.953125 263.171875 169.617188 265.800781 C 169.617188 265.796875 169.617188 265.796875 169.613281 265.796875 C 169.609375 265.796875 169.582031 265.804688 169.574219 265.804688 C 169.53125 265.804688 169.496094 265.804688 169.449219 265.796875 C 169.5 265.796875 169.527344 265.792969 169.574219 265.789062 C 169.582031 265.785156 169.59375 265.78125 169.601562 265.777344 C 169.605469 265.773438 169.59375 265.78125 169.59375 265.78125 C 171.601562 262.949219 172.6875 259.808594 173.582031 256.488281 C 174.410156 253.171875 174.964844 249.925781 174.839844 246.496094 C 174.828125 245.625 174.851562 244.8125 174.902344 244.035156 C 174.890625 243.886719 174.878906 243.738281 174.871094 243.59375 C 173.5625 246.226562 172.296875 248.828125 168.6875 252.054688 C 167.664062 252.785156 165.667969 254.957031 164.753906 255.921875 C 163.902344 256.828125 161.757812 259.042969 161.160156 260.046875 C 161.5 259.0625 163.691406 256.488281 164.414062 255.621094 C 165.601562 254.199219 166.832031 252.738281 168.078125 251.363281 C 172.046875 247.285156 172.726562 244.183594 174.277344 240.621094 C 175.679688 237.394531 176.226562 236.703125 176.984375 233.050781 C 178.21875 228.222656 180.636719 225.117188 182.703125 221.382812 C 180.074219 223.625 176.859375 223.480469 175.386719 226.207031 C 174.863281 227.175781 174.578125 228.183594 174.246094 229.332031 C 172 235.976562 170.34375 238.648438 165.175781 243.65625 C 169.460938 238.40625 170.875 235.402344 171.378906 228.777344 C 171.511719 227.679688 171.625 226.746094 171.835938 225.839844 C 170.761719 226.265625 169.710938 226.753906 168.625 227.351562 C 167.539062 227.976562 166.664062 228.570312 165.753906 229.4375 C 164.960938 230.230469 164.4375 230.921875 164.027344 231.972656 C 162.507812 235.835938 160.785156 237.671875 159.523438 242.148438 C 158.703125 245.128906 157.847656 247.363281 155.9375 249.828125 C 153.898438 252.253906 151.941406 253.46875 149.035156 254.675781 C 149.019531 254.6875 148.953125 254.699219 148.933594 254.703125 C 148.914062 254.707031 148.921875 254.699219 148.945312 254.707031 C 148.960938 254.710938 148.976562 254.722656 148.988281 254.734375 C 149.003906 254.742188 149.011719 254.765625 149.019531 254.773438 L 149.027344 254.800781 C 149.058594 254.707031 149.117188 254.609375 149.164062 254.523438 C 149.128906 254.605469 149.070312 254.714844 149.058594 254.804688 C 149.058594 254.804688 149.058594 254.761719 149.054688 254.761719 C 149.042969 254.738281 149.035156 254.722656 149.015625 254.707031 C 149.003906 254.6875 148.972656 254.675781 148.957031 254.667969 C 148.941406 254.660156 148.910156 254.660156 148.921875 254.65625 C 148.921875 254.65625 149.007812 254.625 149.011719 254.617188 C 151.746094 253.238281 153.554688 251.902344 155.3125 249.375 C 156.898438 246.890625 157.527344 244.695312 158.082031 241.828125 C 158.246094 241.070312 158.425781 240.375 158.617188 239.726562 C 158.375 239.9375 158.121094 240.148438 157.855469 240.355469 C 156.09375 241.691406 154.730469 242.308594 152.613281 242.894531 C 147.230469 244.171875 144.960938 244.105469 139.527344 246.609375 C 139.339844 246.707031 139.261719 246.773438 139.058594 246.871094 C 139.308594 246.738281 139.28125 246.699219 139.507812 246.570312 C 144.644531 243.796875 147.183594 243.546875 152.25 241.757812 C 154.113281 241.058594 155.28125 240.40625 156.777344 239.085938 C 158.984375 236.941406 160.886719 234.238281 161.726562 231.261719 C 162.164062 229.777344 162.773438 228.769531 163.765625 227.59375 C 164.777344 226.449219 165.75 225.648438 167.003906 224.785156 C 169.394531 223.207031 171.617188 222.179688 174.269531 221.140625 C 178.324219 219.515625 180.410156 217.960938 182.707031 215.660156 C 178.867188 217.976562 174.519531 218.0625 171.277344 220.183594 C 167.925781 222.488281 165.019531 225.101562 161.90625 227.695312 C 152.617188 235.089844 146.421875 237.902344 134.382812 238.78125 C 143.210938 237.492188 148.65625 235.316406 154.34375 230.804688 L 154.171875 230.84375 C 150.929688 231.480469 148.050781 231.59375 144.765625 231.636719 C 138.621094 231.6875 132.785156 231.316406 127.0625 233.894531 C 132.652344 230.894531 138.523438 230.902344 144.710938 230.472656 C 147.875 230.230469 150.667969 229.945312 153.75 229.125 C 156.621094 228.28125 157.96875 227.722656 160.050781 225.65625 C 162.089844 223.628906 164.003906 221.613281 166.050781 219.675781 C 162.933594 220.738281 159.789062 221.683594 156.113281 222.175781 C 152.460938 222.667969 152.371094 223.234375 149.179688 224.285156 C 146.4375 225.1875 143.777344 225.308594 140.144531 225.335938 C 137.933594 225.355469 135.996094 225.375 133.800781 225.738281 C 131.261719 226.21875 129.558594 226.914062 127.414062 228.367188 C 129.472656 226.730469 131.144531 225.878906 133.667969 225.160156 C 135.871094 224.597656 137.832031 224.40625 140.078125 224.191406 C 143.539062 223.847656 146.035156 223.523438 148.589844 222.417969 C 144 222.085938 141.96875 221.300781 136.886719 220.277344 C 134.492188 219.757812 132.296875 219.28125 129.84375 219.023438 C 128.539062 218.902344 127.386719 218.859375 126.082031 218.988281 C 124.886719 219.136719 123.945312 219.363281 122.902344 219.980469 C 123.910156 219.273438 124.84375 218.972656 126.042969 218.738281 C 127.367188 218.5 128.535156 218.453125 129.875 218.480469 C 132.363281 218.566406 134.609375 218.898438 137.0625 219.191406 C 142.785156 219.996094 144.894531 220.460938 150.847656 220.355469 C 155.945312 219.960938 159.847656 218.625 163.65625 217.003906 C 156.507812 216.820312 151.957031 214.320312 143.871094 214.0625 C 152.386719 213.503906 157.492188 215.960938 165.582031 215.011719 C 169.75 214.523438 173.851562 212.941406 178.011719 211.589844 C 147.070312 211.511719 123.328125 211.066406 123.328125 210.527344 C 123.328125 209.933594 152.0625 209.449219 187.503906 209.449219 C 222.949219 209.449219 251.679688 209.933594 251.679688 210.527344 C 251.679688 211.066406 228.074219 211.511719 197.257812 211.589844 C 201.578125 212.980469 206.050781 214.65625 209.203125 214.988281 C 217.429688 215.859375 222.53125 213.5 231.117188 214.0625 C 223.03125 214.320312 218.484375 216.820312 211.335938 217.003906 C 215.140625 218.625 219.042969 219.960938 224.140625 220.355469 C 230.09375 220.460938 232.207031 219.996094 237.925781 219.191406 C 240.378906 218.898438 242.625 218.566406 245.113281 218.480469 C 246.453125 218.453125 247.621094 218.5 248.945312 218.738281 C 250.144531 218.972656 251.078125 219.273438 252.085938 219.980469 C 251.042969 219.363281 250.101562 219.136719 248.910156 218.988281 C 247.601562 218.859375 246.449219 218.902344 245.144531 219.023438 C 242.691406 219.28125 240.5 219.757812 238.101562 220.277344 C 233.019531 221.300781 230.988281 222.085938 226.398438 222.417969 C 228.953125 223.523438 231.453125 223.847656 234.910156 224.191406 C 237.15625 224.40625 239.117188 224.597656 241.320312 225.160156 C 243.84375 225.878906 245.515625 226.730469 247.574219 228.367188 C 245.429688 226.914062 243.726562 226.21875 241.1875 225.738281 C 238.992188 225.375 237.054688 225.355469 234.84375 225.335938 C 230.703125 225.308594 227.832031 225.148438 224.660156 223.859375 C 221.609375 222.621094 221.957031 222.613281 218.597656 222.136719 C 215.042969 221.636719 211.976562 220.710938 208.9375 219.675781 C 210.984375 221.613281 212.902344 223.628906 214.9375 225.65625 C 217.019531 227.722656 218.367188 228.28125 221.238281 229.125 C 224.320312 229.945312 227.113281 230.230469 230.277344 230.472656 C 236.464844 230.902344 242.335938 230.894531 247.925781 233.894531 C 242.203125 231.316406 236.367188 231.6875 230.226562 231.636719 C 227.128906 231.597656 223.664062 231.492188 220.644531 230.804688 C 226.332031 235.316406 231.777344 237.492188 240.605469 238.78125 C 228.566406 237.902344 222.371094 235.089844 213.082031 227.695312 C 209.96875 225.101562 207.0625 222.488281 203.710938 220.183594 C 200.472656 218.0625 196.695312 218.148438 192.28125 215.660156 C 194.578125 217.960938 196.664062 219.515625 200.71875 221.140625 C 203.371094 222.179688 205.59375 223.207031 207.984375 224.785156 C 209.238281 225.648438 210.210938 226.449219 211.222656 227.59375 C 213.402344 230.175781 213.550781 233.019531 215.703125 236.109375 C 216.425781 237.152344 217.230469 238.132812 218.210938 239.085938 C 219.707031 240.40625 220.875 241.058594 222.738281 241.757812 C 227.808594 243.546875 230.34375 243.796875 235.484375 246.570312 C 235.707031 246.699219 235.679688 246.738281 235.929688 246.871094 C 235.726562 246.773438 235.648438 246.707031 235.460938 246.609375 C 230.027344 244.105469 227.757812 244.171875 222.378906 242.894531 C 220.261719 242.308594 218.894531 241.691406 217.132812 240.355469 C 216.867188 240.148438 216.613281 239.9375 216.371094 239.726562 C 216.5625 240.375 216.742188 241.070312 216.90625 241.828125 C 217.460938 244.695312 218.089844 246.890625 219.675781 249.375 C 221.433594 251.902344 223.242188 253.238281 225.980469 254.617188 C 225.980469 254.625 226.066406 254.65625 226.066406 254.65625 C 226.078125 254.660156 226.046875 254.660156 226.03125 254.667969 C 226.015625 254.675781 225.984375 254.6875 225.972656 254.707031 C 225.953125 254.722656 225.945312 254.738281 225.933594 254.761719 C 225.929688 254.761719 225.929688 254.804688 225.929688 254.804688 C 225.917969 254.714844 225.859375 254.605469 225.824219 254.523438 C 225.871094 254.609375 225.929688 254.707031 225.960938 254.800781 L 225.96875 254.773438 C 225.976562 254.765625 225.984375 254.742188 226 254.734375 C 226.011719 254.722656 226.027344 254.710938 226.042969 254.707031 C 226.066406 254.699219 226.074219 254.707031 226.054688 254.703125 C 226.03125 254.699219 225.96875 254.6875 225.953125 254.675781 C 223.046875 253.46875 221.089844 252.253906 219.050781 249.828125 C 217.144531 247.363281 216.285156 245.128906 215.46875 242.148438 C 215.429688 242.011719 215.390625 241.878906 215.351562 241.75 C 215.210938 243.515625 214.738281 245.132812 214.242188 247.273438 C 213.898438 248.851562 213.703125 250.078125 213.785156 251.707031 C 213.9375 253.679688 214.421875 255.042969 215.375 256.769531 C 214.335938 255.070312 213.773438 253.710938 213.503906 251.734375 C 213.332031 250.074219 213.460938 248.808594 213.730469 247.171875 C 214.285156 243.996094 214.875 241.925781 214.273438 238.820312 C 213.226562 236.445312 212.042969 234.71875 210.960938 231.972656 C 210.550781 230.921875 210.027344 230.230469 209.234375 229.4375 C 208.324219 228.570312 207.449219 227.976562 206.363281 227.351562 C 205.277344 226.753906 204.226562 226.265625 203.152344 225.839844 C 203.363281 226.746094 203.480469 227.679688 203.609375 228.777344 C 204.113281 235.402344 205.527344 238.40625 209.8125 243.65625 C 204.644531 238.648438 202.988281 235.976562 200.742188 229.332031 C 200.019531 226.820312 198.371094 223.984375 195.796875 223.25 C 195.609375 225.21875 195.582031 226.847656 196.089844 228.769531 C 196.53125 230.140625 197.039062 230.988281 197.871094 232.144531 C 198.707031 233.261719 199.484375 234.191406 200.175781 235.425781 C 201.050781 237.132812 201.082031 238.0625 201.300781 239.859375 C 202.164062 247.058594 206.269531 245.566406 205.808594 257.949219 C 205.511719 248.195312 202.8125 247.667969 200.738281 244.320312 C 199.660156 250.132812 197.808594 251.925781 200.570312 260.890625 C 196.527344 250.238281 199.53125 249.722656 199.3125 240.1875 C 199.207031 238.757812 198.945312 237.832031 198.160156 236.636719 C 197.453125 235.613281 196.609375 234.78125 195.78125 233.863281 C 195.09375 233.089844 194.566406 232.421875 194.109375 231.675781 C 193.867188 232.628906 193.652344 233.582031 193.511719 234.535156 C 193.265625 236.917969 193.910156 239.246094 194.394531 241.566406 C 194.929688 244.296875 195.261719 246.476562 194.367188 249.183594 C 194.777344 246.457031 194.109375 244.449219 193.164062 241.929688 C 192.1875 239.378906 191.210938 237.253906 190.992188 234.480469 C 190.964844 233.699219 190.984375 232.933594 191.027344 232.175781 C 190.660156 233.109375 190.339844 234.019531 190.171875 234.855469 C 189.492188 240.675781 188.902344 240.191406 190.199219 246.121094 C 190.707031 249.015625 190.804688 251.765625 190.652344 254.695312 C 190.457031 257.496094 190.074219 260.339844 188.652344 262.808594 C 189.710938 260.222656 189.804688 257.449219 189.722656 254.6875 C 189.585938 251.925781 189.242188 249.242188 188.394531 246.597656 C 188.285156 246.226562 188.183594 245.878906 188.085938 245.550781 C 186.921875 248.859375 184.941406 251.121094 182.960938 253.503906 " fill-opacity="1" fill-rule="nonzero"/></g><path fill="#ddac8a" d="M 232.164062 158.621094 C 230.804688 158.722656 229.746094 158.59375 228.796875 157.796875 C 230.65625 155.667969 233.027344 158.304688 235.765625 157.308594 C 234.589844 159.777344 229.273438 161.316406 228.628906 158.109375 C 228.59375 158.035156 229.984375 159.171875 232.164062 158.621094 " fill-opacity="1" fill-rule="evenodd"/><path fill="#ddac8a" d="M 237.949219 160.125 C 236.773438 160.273438 235.894531 160.566406 235.21875 161.410156 C 237.171875 162.90625 238.742188 160.246094 241.246094 160.621094 C 239.820312 158.722656 235.019531 158.328125 235.023438 161.171875 C 235.007812 161.242188 235.996094 160.03125 237.949219 160.125 " fill-opacity="1" fill-rule="evenodd"/><path fill="#ddac8a" d="M 243.523438 164.675781 C 242.292969 163.953125 241.242188 163.585938 239.980469 163.894531 C 240.746094 166.753906 244.191406 165.371094 246.308594 167.566406 C 246.339844 164.707031 242.046875 160.808594 239.964844 163.527344 C 239.898438 163.582031 241.726562 163.148438 243.523438 164.675781 " fill-opacity="1" fill-rule="evenodd"/><path fill="#ddac8a" d="M 239.25 154.40625 C 237.917969 154.6875 236.851562 154.703125 235.804688 154.039062 C 237.363281 151.679688 240.0625 153.976562 242.644531 152.628906 C 241.808594 155.230469 236.742188 157.464844 235.679688 154.367188 C 235.632812 154.300781 237.160156 155.242188 239.25 154.40625 " fill-opacity="1" fill-rule="evenodd"/><path fill="#ddac8a" d="M 174.933594 131.957031 C 174.476562 133.664062 174.382812 135.042969 175.171875 136.449219 C 178.339844 134.59375 175.546875 130.929688 177.472656 127.675781 C 174.042969 128.578125 170.796875 134.996094 174.734375 136.585938 C 174.820312 136.652344 173.703125 134.605469 174.933594 131.957031 " fill-opacity="1" fill-rule="evenodd"/><path fill="#ddac8a" d="M 237.253906 147.910156 C 237 148.789062 236.675781 149.425781 235.953125 149.84375 C 235.039062 148.175781 237.253906 147.289062 237.261719 145.328125 C 238.546875 146.644531 238.28125 150.359375 236.109375 150.019531 C 236.054688 150.027344 237.09375 149.414062 237.253906 147.910156 " fill-opacity="1" fill-rule="evenodd"/><path fill="#ddac8a" d="M 231.628906 165.351562 C 230.707031 164.5625 230.117188 163.820312 230.015625 162.71875 C 232.53125 162.535156 232.375 165.695312 234.734375 166.785156 C 232.441406 167.609375 228.109375 165.242188 229.714844 162.808594 C 229.738281 162.738281 229.902344 164.332031 231.628906 165.351562 " fill-opacity="1" fill-rule="evenodd"/><path fill="#ddac8a" d="M 225.355469 164.835938 C 224.597656 163.707031 224.179688 162.726562 224.402344 161.503906 C 227.171875 162.0625 226.058594 165.429688 228.28125 167.316406 C 225.554688 167.519531 221.582031 163.660156 224.050781 161.515625 C 224.09375 161.445312 223.796875 163.21875 225.355469 164.835938 " fill-opacity="1" fill-rule="evenodd"/><path fill="#ddac8a" d="M 211.960938 175.25 C 211.125 174.175781 210.648438 173.222656 210.785156 171.992188 C 213.585938 172.363281 212.703125 175.796875 215.042969 177.527344 C 212.339844 177.914062 208.117188 174.332031 210.433594 172.023438 C 210.476562 171.953125 210.296875 173.738281 211.960938 175.25 " fill-opacity="1" fill-rule="evenodd"/><path fill="#ddac8a" d="M 226.511719 175 C 225.542969 174.046875 224.65625 173.453125 223.417969 173.445312 C 223.449219 176.273438 226.964844 175.804688 228.402344 178.335938 C 229.109375 175.699219 226.0625 171.074219 223.492188 173.101562 C 223.417969 173.132812 225.210938 173.167969 226.511719 175 " fill-opacity="1" fill-rule="evenodd"/><path fill="#ddac8a" d="M 218.324219 175.976562 C 217.558594 175.167969 217.09375 174.429688 217.105469 173.414062 C 219.421875 173.492188 218.976562 176.363281 221.023438 177.585938 C 218.851562 178.117188 215.117188 175.535156 216.824219 173.46875 C 216.851562 173.40625 216.847656 174.878906 218.324219 175.976562 " fill-opacity="1" fill-rule="evenodd"/><path fill="#ddac8a" d="M 218.117188 164.8125 C 217.226562 163.78125 216.699219 162.855469 216.773438 161.617188 C 219.589844 161.839844 218.886719 165.316406 221.3125 166.925781 C 218.632812 167.449219 214.230469 164.09375 216.425781 161.667969 C 216.460938 161.59375 216.375 163.390625 218.117188 164.8125 " fill-opacity="1" fill-rule="evenodd"/><path fill="#ddac8a" d="M 209.859375 126.820312 C 209.121094 127.964844 208.382812 128.730469 207.171875 129.007812 C 206.59375 126.238281 210.128906 125.941406 210.992188 123.15625 C 212.246094 125.582031 210.261719 130.753906 207.316406 129.328125 C 207.238281 129.3125 208.984375 128.890625 209.859375 126.820312 " fill-opacity="1" fill-rule="evenodd"/><path fill="#ddac8a" d="M 199.640625 130.398438 C 199.964844 131.71875 200.410156 132.6875 201.460938 133.34375 C 202.914062 130.921875 199.675781 129.476562 199.773438 126.566406 C 197.789062 128.445312 197.96875 133.980469 201.21875 133.601562 C 201.300781 133.609375 199.789062 132.640625 199.640625 130.398438 " fill-opacity="1" fill-rule="evenodd"/><path fill="#ddac8a" d="M 202.597656 124.597656 C 202.90625 125.851562 203.328125 126.769531 204.328125 127.394531 C 205.710938 125.089844 202.628906 123.722656 202.722656 120.953125 C 200.839844 122.742188 201.011719 128 204.097656 127.636719 C 204.175781 127.648438 202.738281 126.726562 202.597656 124.597656 " fill-opacity="1" fill-rule="evenodd"/><path fill="#ddac8a" d="M 205.371094 117.265625 C 206.234375 118.675781 206.6875 119.890625 206.355469 121.359375 C 203.019531 120.539062 204.546875 116.511719 201.949219 114.105469 C 205.269531 114 209.890625 118.890625 206.78125 121.367188 C 206.722656 121.445312 207.179688 119.3125 205.371094 117.265625 " fill-opacity="1" fill-rule="evenodd"/><path fill="#ddac8a" d="M 213.570312 134.507812 C 212.804688 133.925781 212.304688 133.363281 212.175781 132.5 C 214.152344 132.242188 214.171875 134.742188 216.082031 135.5 C 214.308594 136.253906 210.78125 134.578125 211.941406 132.585938 C 211.957031 132.527344 212.160156 133.777344 213.570312 134.507812 " fill-opacity="1" fill-rule="evenodd"/><path fill="#ddac8a" d="M 217.078125 133.175781 C 216.386719 132.519531 215.953125 131.910156 215.921875 131.039062 C 217.902344 131 217.652344 133.476562 219.457031 134.429688 C 217.621094 134.984375 214.316406 132.945312 215.679688 131.097656 C 215.703125 131.046875 215.765625 132.304688 217.078125 133.175781 " fill-opacity="1" fill-rule="evenodd"/><path fill="#ddac8a" d="M 217.695312 123.597656 C 216.574219 124.8125 215.894531 125.914062 215.933594 127.421875 C 219.363281 127.261719 218.648438 123.015625 221.660156 121.160156 C 218.429688 120.414062 212.945312 124.3125 215.511719 127.34375 C 215.554688 127.433594 215.523438 125.253906 217.695312 123.597656 " fill-opacity="1" fill-rule="evenodd"/><path fill="#ddac8a" d="M 224.359375 123.660156 C 223.269531 124.457031 222.550781 125.234375 222.347656 126.449219 C 225.121094 126.859375 225.214844 123.339844 227.921875 122.328125 C 225.445312 121.222656 220.441406 123.488281 222.023438 126.320312 C 222.042969 126.398438 222.359375 124.648438 224.359375 123.660156 " fill-opacity="1" fill-rule="evenodd"/><path fill="#ddac8a" d="M 225.570312 130.699219 C 224.351562 130.417969 223.453125 130.019531 222.832031 129.0625 C 225.042969 127.691406 226.417969 130.652344 229.097656 130.519531 C 227.394531 132.371094 222.300781 132.289062 222.601562 129.292969 C 222.589844 129.21875 223.503906 130.59375 225.570312 130.699219 " fill-opacity="1" fill-rule="evenodd"/><path fill="#ddac8a" d="M 230.304688 125.148438 C 229.308594 125.910156 228.429688 126.347656 227.296875 126.210938 C 227.652344 123.636719 230.808594 124.46875 232.417969 122.320312 C 232.757812 124.8125 229.4375 128.683594 227.328125 126.535156 C 227.261719 126.496094 228.90625 126.671875 230.304688 125.148438 " fill-opacity="1" fill-rule="evenodd"/><path fill="#ddac8a" d="M 223 153.785156 C 221.757812 154.347656 220.722656 154.589844 219.554688 154.167969 C 220.566406 151.53125 223.703125 153.191406 225.933594 151.316406 C 225.675781 154.035156 221.210938 157.308594 219.503906 154.519531 C 219.445312 154.460938 221.140625 155.050781 223 153.785156 " fill-opacity="1" fill-rule="evenodd"/><path fill="#ddac8a" d="M 225.328125 149.300781 C 224.367188 149.5625 223.589844 149.617188 222.796875 149.179688 C 223.832031 147.386719 225.90625 148.949219 227.734375 147.851562 C 227.234375 149.789062 223.628906 151.640625 222.71875 149.425781 C 222.683594 149.378906 223.839844 150 225.328125 149.300781 " fill-opacity="1" fill-rule="evenodd"/><path fill="#ddac8a" d="M 223.492188 144.207031 C 223.101562 145.121094 222.9375 145.886719 223.265625 146.734375 C 225.179688 145.949219 223.917969 143.683594 225.253906 142.023438 C 223.269531 142.25 220.941406 145.570312 223.011719 146.773438 C 223.054688 146.816406 222.59375 145.585938 223.492188 144.207031 " fill-opacity="1" fill-rule="evenodd"/><path fill="#ddac8a" d="M 228.96875 145.015625 C 227.976562 145.089844 227.222656 145.296875 226.625 145.976562 C 228.199219 147.316406 229.628906 145.148438 231.71875 145.570312 C 230.601562 143.914062 226.585938 143.378906 226.46875 145.769531 C 226.449219 145.828125 227.332031 144.851562 228.96875 145.015625 " fill-opacity="1" fill-rule="evenodd"/><path fill="#ddac8a" d="M 218.867188 147.15625 C 218.851562 148.152344 218.984375 148.917969 219.605469 149.582031 C 221.089844 148.140625 219.066406 146.511719 219.683594 144.46875 C 217.925781 145.425781 217.015625 149.378906 219.382812 149.71875 C 219.441406 149.742188 218.554688 148.769531 218.867188 147.15625 " fill-opacity="1" fill-rule="evenodd"/><path fill="#ddac8a" d="M 215.359375 150.9375 C 215.335938 152 215.480469 152.820312 216.144531 153.527344 C 217.726562 151.984375 215.570312 150.25 216.226562 148.070312 C 214.351562 149.09375 213.378906 153.308594 215.910156 153.671875 C 215.96875 153.695312 215.023438 152.660156 215.359375 150.9375 " fill-opacity="1" fill-rule="evenodd"/><path fill="#ddac8a" d="M 229.949219 151.117188 C 230.199219 151.996094 230.527344 152.636719 231.25 153.050781 C 232.164062 151.382812 229.949219 150.496094 229.941406 148.539062 C 228.65625 149.851562 228.917969 153.570312 231.09375 153.226562 C 231.148438 153.234375 230.109375 152.621094 229.949219 151.117188 " fill-opacity="1" fill-rule="evenodd"/><path fill="#ddac8a" d="M 242.703125 149.753906 C 241.855469 150.089844 241.148438 150.222656 240.378906 149.902344 C 241.140625 148.164062 243.195312 149.375 244.753906 148.1875 C 244.496094 150.003906 241.394531 152.066406 240.335938 150.136719 C 240.296875 150.097656 241.417969 150.546875 242.703125 149.753906 " fill-opacity="1" fill-rule="evenodd"/><path fill="#ddac8a" d="M 241.261719 144.722656 C 241.238281 145.640625 241.085938 146.339844 240.492188 146.925781 C 239.183594 145.542969 241.105469 144.125 240.617188 142.226562 C 242.191406 143.171875 242.878906 146.835938 240.6875 147.054688 C 240.636719 147.074219 241.488281 146.21875 241.261719 144.722656 " fill-opacity="1" fill-rule="evenodd"/><path fill="#ddac8a" d="M 233.894531 140.152344 C 234.640625 141.230469 235.050781 142.171875 234.855469 143.351562 C 232.175781 142.847656 233.207031 139.589844 231.039062 137.796875 C 233.664062 137.566406 237.546875 141.234375 235.195312 143.335938 C 235.152344 143.402344 235.417969 141.695312 233.894531 140.152344 " fill-opacity="1" fill-rule="evenodd"/><path fill="#ddac8a" d="M 222.546875 134.46875 C 221.835938 133.90625 221.375 133.367188 221.269531 132.546875 C 223.144531 132.339844 223.113281 134.707031 224.90625 135.457031 C 223.214844 136.136719 219.910156 134.488281 221.046875 132.625 C 221.0625 132.570312 221.230469 133.757812 222.546875 134.46875 " fill-opacity="1" fill-rule="evenodd"/><path fill="#ddac8a" d="M 202.386719 146.363281 C 201.050781 146.597656 199.984375 146.574219 198.957031 145.875 C 200.597656 143.574219 203.21875 145.964844 205.847656 144.707031 C 204.917969 147.277344 199.777344 149.328125 198.824219 146.199219 C 198.78125 146.128906 200.273438 147.125 202.386719 146.363281 " fill-opacity="1" fill-rule="evenodd"/><path fill="#ddac8a" d="M 208.011719 142.007812 C 206.894531 142.316406 205.988281 142.386719 205.0625 141.878906 C 206.261719 139.792969 208.679688 141.597656 210.804688 140.316406 C 210.230469 142.570312 206.042969 144.738281 204.976562 142.167969 C 204.933594 142.109375 206.28125 142.832031 208.011719 142.007812 " fill-opacity="1" fill-rule="evenodd"/><path fill="#ddac8a" d="M 209.652344 136.265625 C 208.550781 135.925781 207.753906 135.496094 207.25 134.574219 C 209.378906 133.46875 210.433594 136.285156 212.902344 136.347656 C 211.210938 137.929688 206.535156 137.5 207.023438 134.765625 C 207.015625 134.695312 207.761719 136.027344 209.652344 136.265625 " fill-opacity="1" fill-rule="evenodd"/><path fill="#ddac8a" d="M 210.488281 164.917969 C 209.46875 164.015625 208.820312 163.171875 208.726562 161.933594 C 211.546875 161.773438 211.320312 165.3125 213.945312 166.578125 C 211.359375 167.460938 206.539062 164.730469 208.386719 162.03125 C 208.414062 161.953125 208.570312 163.742188 210.488281 164.917969 " fill-opacity="1" fill-rule="evenodd"/><path fill="#ddac8a" d="M 196.847656 155.976562 C 196.492188 157.367188 196.011719 158.386719 194.890625 159.074219 C 193.378906 156.492188 196.820312 155 196.746094 151.917969 C 198.824219 153.925781 198.582031 159.78125 195.148438 159.347656 C 195.058594 159.355469 196.671875 158.347656 196.847656 155.976562 " fill-opacity="1" fill-rule="evenodd"/><path fill="#ddac8a" d="M 201.0625 154.015625 C 200.996094 155.144531 201.113281 156.027344 201.785156 156.8125 C 203.542969 155.238281 201.320312 153.289062 202.117188 150.996094 C 200.074219 152.003906 198.847656 156.453125 201.527344 156.953125 C 201.589844 156.980469 200.628906 155.835938 201.0625 154.015625 " fill-opacity="1" fill-rule="evenodd"/><path fill="#ddac8a" d="M 204.972656 149.40625 C 204.703125 150.507812 204.664062 151.394531 205.191406 152.285156 C 207.195312 151.046875 205.347656 148.738281 206.539062 146.621094 C 204.351562 147.25 202.363281 151.417969 204.914062 152.378906 C 204.96875 152.417969 204.222656 151.125 204.972656 149.40625 " fill-opacity="1" fill-rule="evenodd"/><path fill="#ddac8a" d="M 211.289062 153.757812 C 210.417969 154.480469 209.636719 154.90625 208.605469 154.828125 C 208.839844 152.480469 211.722656 153.125 213.101562 151.125 C 213.496094 153.367188 210.628906 156.984375 208.644531 155.117188 C 208.582031 155.085938 210.078125 155.1875 211.289062 153.757812 " fill-opacity="1" fill-rule="evenodd"/><path fill="#ddac8a" d="M 213.644531 147.796875 C 212.796875 148.265625 212.074219 148.496094 211.222656 148.265625 C 211.792969 146.332031 214.113281 147.335938 215.59375 145.878906 C 215.5625 147.824219 212.574219 150.402344 211.203125 148.515625 C 211.160156 148.476562 212.398438 148.800781 213.644531 147.796875 " fill-opacity="1" fill-rule="evenodd"/><path fill="#ddac8a" d="M 215.289062 143.515625 C 214.527344 143.769531 213.902344 143.851562 213.242188 143.53125 C 213.996094 142.039062 215.738281 143.207031 217.164062 142.238281 C 216.851562 143.824219 214.023438 145.480469 213.191406 143.734375 C 213.160156 143.695312 214.121094 144.148438 215.289062 143.515625 " fill-opacity="1" fill-rule="evenodd"/><path fill="#ddac8a" d="M 213.222656 138.804688 C 212.96875 139.566406 212.886719 140.191406 213.203125 140.851562 C 214.695312 140.09375 213.53125 138.355469 214.496094 136.925781 C 212.914062 137.242188 211.257812 140.066406 213.003906 140.902344 C 213.039062 140.933594 212.589844 139.972656 213.222656 138.804688 " fill-opacity="1" fill-rule="evenodd"/><path fill="#ddac8a" d="M 204.519531 137.859375 C 203.925781 138.402344 203.546875 138.910156 203.503906 139.640625 C 205.175781 139.710938 205.007812 137.617188 206.546875 136.847656 C 205.007812 136.347656 202.1875 138.007812 203.304688 139.585938 C 203.320312 139.628906 203.394531 138.570312 204.519531 137.859375 " fill-opacity="1" fill-rule="evenodd"/><path fill="#ddac8a" d="M 219.042969 139.132812 C 218.019531 139.257812 217.25 139.507812 216.660156 140.242188 C 218.355469 141.554688 219.734375 139.242188 221.914062 139.578125 C 220.679688 137.917969 216.496094 137.554688 216.492188 140.035156 C 216.476562 140.09375 217.339844 139.042969 219.042969 139.132812 " fill-opacity="1" fill-rule="evenodd"/><path fill="#ddac8a" d="M 221.675781 141.378906 C 220.777344 141.886719 220.164062 142.410156 219.902344 143.3125 C 221.96875 143.875 222.355469 141.210938 224.5 140.683594 C 222.71875 139.625 218.71875 140.894531 219.664062 143.1875 C 219.671875 143.25 220.070312 141.949219 221.675781 141.378906 " fill-opacity="1" fill-rule="evenodd"/><path fill="#ddac8a" d="M 238.371094 166.804688 C 237.582031 166.019531 237.089844 165.300781 237.070312 164.289062 C 239.382812 164.285156 239.03125 167.164062 241.117188 168.316406 C 238.964844 168.921875 235.15625 166.472656 236.789062 164.351562 C 236.816406 164.289062 236.859375 165.757812 238.371094 166.804688 " fill-opacity="1" fill-rule="evenodd"/><path fill="#ddac8a" d="M 229.265625 136.289062 C 228.652344 135.195312 228.015625 134.449219 226.921875 134.125 C 226.234375 136.636719 229.464844 137.113281 230.097656 139.71875 C 231.390625 137.5625 229.863281 132.699219 227.074219 133.839844 C 227 133.851562 228.582031 134.335938 229.265625 136.289062 " fill-opacity="1" fill-rule="evenodd"/><path fill="#ddac8a" d="M 135.347656 165.148438 C 136.847656 164.941406 137.96875 164.554688 138.816406 163.46875 C 136.300781 161.582031 134.332031 165.003906 131.121094 164.5625 C 132.976562 166.972656 139.121094 167.40625 139.070312 163.765625 C 139.09375 163.675781 137.847656 165.238281 135.347656 165.148438 " fill-opacity="1" fill-rule="evenodd"/><path fill="#ddac8a" d="M 152.101562 170.671875 C 152.589844 169.527344 152.789062 168.574219 152.378906 167.515625 C 149.988281 168.5 151.574219 171.328125 149.910156 173.40625 C 152.390625 173.113281 155.285156 168.960938 152.699219 167.464844 C 152.644531 167.410156 153.222656 168.949219 152.101562 170.671875 " fill-opacity="1" fill-rule="evenodd"/><path fill="#ddac8a" d="M 146.402344 172.542969 C 146.859375 171.65625 147.078125 170.90625 146.8125 170.035156 C 144.835938 170.679688 145.9375 173.039062 144.480469 174.605469 C 146.484375 174.519531 149.050781 171.363281 147.070312 170.011719 C 147.03125 169.964844 147.398438 171.230469 146.402344 172.542969 " fill-opacity="1" fill-rule="evenodd"/><path fill="#ddac8a" d="M 144.042969 166.570312 C 145.148438 166.570312 146.003906 166.738281 146.726562 167.441406 C 145.089844 169.058594 143.324219 166.777344 141.039062 167.421875 C 142.140625 165.488281 146.550781 164.554688 146.878906 167.199219 C 146.90625 167.261719 145.84375 166.253906 144.042969 166.570312 " fill-opacity="1" fill-rule="evenodd"/><path fill="#ddac8a" d="M 150.148438 160.320312 C 151.289062 161.125 152.046875 161.914062 152.28125 163.167969 C 149.417969 163.648438 149.253906 160.007812 146.433594 159.011719 C 148.972656 157.820312 154.195312 160.066406 152.617188 163.03125 C 152.597656 163.113281 152.234375 161.304688 150.148438 160.320312 " fill-opacity="1" fill-rule="evenodd"/><path fill="#ddac8a" d="M 144.148438 160.414062 C 144.898438 160.941406 145.398438 161.464844 145.554688 162.289062 C 143.667969 162.601562 143.5625 160.210938 141.707031 159.554688 C 143.378906 158.769531 146.8125 160.246094 145.773438 162.195312 C 145.761719 162.25 145.523438 161.0625 144.148438 160.414062 " fill-opacity="1" fill-rule="evenodd"/><path fill="#ddac8a" d="M 139.007812 159.804688 C 139.71875 160.300781 140.1875 160.789062 140.339844 161.5625 C 138.566406 161.871094 138.453125 159.617188 136.699219 159.007812 C 138.269531 158.261719 141.515625 159.632812 140.546875 161.476562 C 140.535156 161.527344 140.304688 160.40625 139.007812 159.804688 " fill-opacity="1" fill-rule="evenodd"/><path fill="#ddac8a" d="M 169.019531 126.074219 C 168.71875 127.828125 168.222656 129.128906 166.914062 130.085938 C 164.796875 127.054688 168.890625 124.878906 168.496094 121.089844 C 171.253906 123.359375 171.527344 130.59375 167.253906 130.394531 C 167.148438 130.417969 169.03125 129.015625 169.019531 126.074219 " fill-opacity="1" fill-rule="evenodd"/><path fill="#ddac8a" d="M 165.636719 119.808594 C 165.394531 121.203125 165 122.242188 163.957031 123.003906 C 162.269531 120.589844 165.53125 118.855469 165.214844 115.835938 C 167.414062 117.644531 167.632812 123.40625 164.226562 123.25 C 164.144531 123.265625 165.644531 122.148438 165.636719 119.808594 " fill-opacity="1" fill-rule="evenodd"/><path fill="#ddac8a" d="M 158.808594 124.496094 C 159.894531 125.265625 160.84375 125.691406 162.042969 125.503906 C 161.558594 122.78125 158.246094 123.796875 156.449219 121.585938 C 156.191406 124.242188 159.871094 128.210938 162.023438 125.847656 C 162.09375 125.804688 160.355469 126.058594 158.808594 124.496094 " fill-opacity="1" fill-rule="evenodd"/><path fill="#ddac8a" d="M 158.007812 118.257812 C 158.859375 119.019531 159.628906 119.480469 160.671875 119.4375 C 160.527344 117.066406 157.597656 117.601562 156.285156 115.535156 C 155.800781 117.78125 158.550781 121.535156 160.625 119.730469 C 160.683594 119.699219 159.175781 119.746094 158.007812 118.257812 " fill-opacity="1" fill-rule="evenodd"/><path fill="#ddac8a" d="M 162.605469 113.804688 C 161.976562 114.980469 161.671875 115.972656 162.007812 117.140625 C 164.648438 116.320312 163.230469 113.160156 165.203125 111.105469 C 162.535156 111.179688 159.054688 115.324219 161.664062 117.164062 C 161.71875 117.226562 161.25 115.535156 162.605469 113.804688 " fill-opacity="1" fill-rule="evenodd"/><path fill="#ddac8a" d="M 175.761719 123.351562 C 177.1875 124.007812 178.378906 124.300781 179.730469 123.828125 C 178.585938 120.773438 174.957031 122.65625 172.402344 120.472656 C 172.671875 123.613281 177.789062 127.433594 179.785156 124.230469 C 179.851562 124.164062 177.890625 124.828125 175.761719 123.351562 " fill-opacity="1" fill-rule="evenodd"/><path fill="#ddac8a" d="M 174.566406 118.128906 C 175.800781 118.683594 176.835938 118.925781 177.996094 118.5 C 176.980469 115.878906 173.867188 117.539062 171.640625 115.683594 C 171.90625 118.386719 176.359375 121.632812 178.046875 118.847656 C 178.105469 118.792969 176.417969 119.386719 174.566406 118.128906 " fill-opacity="1" fill-rule="evenodd"/><path fill="#ddac8a" d="M 181.832031 116.335938 C 181.878906 117.351562 181.761719 118.140625 181.144531 118.835938 C 179.59375 117.398438 181.617188 115.679688 180.929688 113.613281 C 182.75 114.542969 183.789062 118.554688 181.375 118.964844 C 181.320312 118.992188 182.199219 117.976562 181.832031 116.335938 " fill-opacity="1" fill-rule="evenodd"/><path fill="#ddac8a" d="M 172.699219 112.4375 C 174.015625 112.761719 174.980469 113.203125 175.632812 114.25 C 173.222656 115.699219 171.785156 112.472656 168.886719 112.574219 C 170.753906 110.597656 176.265625 110.773438 175.886719 114.007812 C 175.898438 114.089844 174.933594 112.585938 172.699219 112.4375 " fill-opacity="1" fill-rule="evenodd"/><path fill="#ddac8a" d="M 178.824219 112.878906 C 179.046875 113.773438 179.082031 114.492188 178.660156 115.21875 C 177.023438 114.222656 178.511719 112.335938 177.535156 110.621094 C 179.316406 111.125 180.953125 114.5 178.886719 115.292969 C 178.839844 115.328125 179.441406 114.269531 178.824219 112.878906 " fill-opacity="1" fill-rule="evenodd"/><path fill="#ddac8a" d="M 185.683594 124.332031 C 184.953125 125.21875 184.261719 125.789062 183.21875 125.90625 C 183 123.53125 185.992188 123.617188 186.984375 121.363281 C 187.804688 123.519531 185.644531 127.667969 183.3125 126.191406 C 183.246094 126.167969 184.75 125.984375 185.683594 124.332031 " fill-opacity="1" fill-rule="evenodd"/><path fill="#ddac8a" d="M 186.019531 119.695312 C 185.386719 120.488281 184.785156 121.003906 183.867188 121.121094 C 183.636719 119.027344 186.28125 119.058594 187.121094 117.058594 C 187.878906 118.945312 186.035156 122.636719 183.953125 121.371094 C 183.894531 121.351562 185.21875 121.164062 186.019531 119.695312 " fill-opacity="1" fill-rule="evenodd"/><path fill="#ddac8a" d="M 183.121094 113.070312 C 183.46875 113.867188 183.617188 114.535156 183.335938 115.28125 C 181.652344 114.605469 182.746094 112.613281 181.566406 111.164062 C 183.308594 111.351562 185.363281 114.25 183.558594 115.316406 C 183.519531 115.351562 183.914062 114.269531 183.121094 113.070312 " fill-opacity="1" fill-rule="evenodd"/><path fill="#ddac8a" d="M 185.667969 115.820312 C 185.320312 116.617188 184.925781 117.179688 184.191406 117.476562 C 183.542969 115.785156 185.75 115.234375 186.011719 113.382812 C 187.054688 114.789062 186.324219 118.269531 184.316406 117.664062 C 184.261719 117.664062 185.328125 117.21875 185.667969 115.820312 " fill-opacity="1" fill-rule="evenodd"/><path fill="#ddac8a" d="M 188.933594 120.878906 C 188.957031 121.792969 189.109375 122.492188 189.703125 123.074219 C 191.007812 121.695312 189.089844 120.28125 189.578125 118.382812 C 188.007812 119.328125 187.320312 122.984375 189.507812 123.207031 C 189.558594 123.226562 188.707031 122.371094 188.933594 120.878906 " fill-opacity="1" fill-rule="evenodd"/><path fill="#ddac8a" d="M 191.289062 118.53125 C 191.480469 119.269531 191.734375 119.808594 192.328125 120.167969 C 193.125 118.800781 191.304688 118.015625 191.339844 116.386719 C 190.242188 117.453125 190.378906 120.546875 192.195312 120.3125 C 192.238281 120.316406 191.386719 119.785156 191.289062 118.53125 " fill-opacity="1" fill-rule="evenodd"/><path fill="#ddac8a" d="M 192.675781 115.335938 C 192.816406 116.058594 193.03125 116.59375 193.582031 116.972656 C 194.429688 115.707031 192.722656 114.839844 192.851562 113.273438 C 191.730469 114.234375 191.683594 117.222656 193.445312 117.105469 C 193.488281 117.113281 192.699219 116.550781 192.675781 115.335938 " fill-opacity="1" fill-rule="evenodd"/><path fill="#ddac8a" d="M 195.515625 121.707031 C 194.6875 122.097656 193.996094 122.269531 193.207031 122 C 193.863281 120.214844 195.980469 121.300781 197.460938 120.019531 C 197.316406 121.851562 194.347656 124.089844 193.175781 122.234375 C 193.136719 122.195312 194.28125 122.578125 195.515625 121.707031 " fill-opacity="1" fill-rule="evenodd"/><path fill="#ddac8a" d="M 196.730469 118.628906 C 196.089844 119.054688 195.53125 119.289062 194.835938 119.15625 C 195.164062 117.585938 197.070312 118.230469 198.148438 116.976562 C 198.253906 118.523438 196.054688 120.765625 194.839844 119.359375 C 194.804688 119.332031 195.808594 119.507812 196.730469 118.628906 " fill-opacity="1" fill-rule="evenodd"/><path fill="#ddac8a" d="M 197.125 115.300781 C 196.773438 115.996094 196.402344 116.476562 195.730469 116.707031 C 195.238281 115.167969 197.226562 114.785156 197.546875 113.152344 C 198.40625 114.453125 197.59375 117.511719 195.835938 116.878906 C 195.789062 116.875 196.753906 116.53125 197.125 115.300781 " fill-opacity="1" fill-rule="evenodd"/><g clip-path="url(#61ed5292aa)"><path fill="#ddac8a" d="M 194.316406 111.257812 C 194.777344 112.148438 195 112.902344 194.734375 113.78125 C 192.746094 113.136719 193.851562 110.761719 192.382812 109.1875 C 194.398438 109.269531 196.988281 112.4375 194.992188 113.804688 C 194.953125 113.847656 195.324219 112.574219 194.316406 111.257812 " fill-opacity="1" fill-rule="evenodd"/></g><path fill="#ddac8a" d="M 189.507812 131.636719 C 188.511719 132.222656 187.660156 132.523438 186.640625 132.277344 C 187.253906 129.960938 190.042969 131.070312 191.753906 129.289062 C 191.785156 131.601562 188.320312 134.769531 186.628906 132.574219 C 186.574219 132.53125 188.058594 132.875 189.507812 131.636719 " fill-opacity="1" fill-rule="evenodd"/><path fill="#ddac8a" d="M 189.371094 143.78125 C 188.453125 144.308594 187.671875 144.582031 186.734375 144.34375 C 187.3125 142.222656 189.867188 143.265625 191.449219 141.640625 C 191.460938 143.765625 188.257812 146.644531 186.722656 144.617188 C 186.675781 144.578125 188.03125 144.90625 189.371094 143.78125 " fill-opacity="1" fill-rule="evenodd"/><path fill="#ddac8a" d="M 194.074219 127.992188 C 193.097656 127.890625 192.363281 127.667969 191.789062 126.980469 C 193.378906 125.703125 194.730469 127.875 196.800781 127.515625 C 195.652344 129.121094 191.679688 129.539062 191.632812 127.179688 C 191.613281 127.125 192.457031 128.105469 194.074219 127.992188 " fill-opacity="1" fill-rule="evenodd"/><path fill="#ddac8a" d="M 198 125.519531 C 197.0625 125.535156 196.339844 125.410156 195.714844 124.824219 C 197.074219 123.429688 198.605469 125.332031 200.523438 124.753906 C 199.625 126.40625 195.910156 127.261719 195.589844 125.03125 C 195.566406 124.980469 196.480469 125.816406 198 125.519531 " fill-opacity="1" fill-rule="evenodd"/><path fill="#ddac8a" d="M 199.976562 118.367188 C 199.527344 119.296875 199.320312 120.078125 199.613281 120.972656 C 201.636719 120.257812 200.441406 117.847656 201.90625 116.195312 C 199.839844 116.335938 197.269531 119.652344 199.351562 121 C 199.390625 121.046875 198.976562 119.75 199.976562 118.367188 " fill-opacity="1" fill-rule="evenodd"/><path fill="#ddac8a" d="M 192.71875 138.441406 C 191.546875 139 190.558594 139.257812 189.4375 138.878906 C 190.347656 136.335938 193.378906 137.855469 195.46875 136.015625 C 195.285156 138.621094 191.085938 141.847656 189.394531 139.214844 C 189.335938 139.160156 190.96875 139.691406 192.71875 138.441406 " fill-opacity="1" fill-rule="evenodd"/><path fill="#ddac8a" d="M 194.953125 133.300781 C 194.019531 133.976562 193.199219 134.355469 192.160156 134.203125 C 192.550781 131.839844 195.4375 132.6875 196.96875 130.75 C 197.21875 133.054688 194.066406 136.53125 192.175781 134.503906 C 192.117188 134.464844 193.625 134.667969 194.953125 133.300781 " fill-opacity="1" fill-rule="evenodd"/><path fill="#ddac8a" d="M 152.640625 127.300781 C 153.800781 127.953125 154.789062 128.28125 155.960938 127.972656 C 155.203125 125.316406 152.011719 126.660156 150 124.644531 C 150.011719 127.3125 154.078125 130.886719 155.980469 128.316406 C 156.042969 128.265625 154.339844 128.695312 152.640625 127.300781 " fill-opacity="1" fill-rule="evenodd"/><path fill="#ddac8a" d="M 156.617188 132.769531 C 157.921875 133.035156 158.960938 133.046875 159.984375 132.390625 C 158.449219 130.09375 155.820312 132.351562 153.289062 131.046875 C 154.121094 133.585938 159.082031 135.742188 160.105469 132.714844 C 160.148438 132.648438 158.664062 133.574219 156.617188 132.769531 " fill-opacity="1" fill-rule="evenodd"/><path fill="#ddac8a" d="M 161.316406 137.496094 C 162.617188 137.761719 163.660156 137.769531 164.679688 137.117188 C 163.148438 134.820312 160.519531 137.078125 157.988281 135.773438 C 158.816406 138.3125 163.78125 140.46875 164.804688 137.441406 C 164.847656 137.371094 163.359375 138.304688 161.316406 137.496094 " fill-opacity="1" fill-rule="evenodd"/><path fill="#ddac8a" d="M 167.195312 141.554688 C 168.59375 141.46875 169.65625 141.191406 170.519531 140.246094 C 168.328125 138.328125 166.269531 141.347656 163.332031 140.710938 C 164.875 143.070312 170.519531 143.90625 170.734375 140.539062 C 170.757812 140.460938 169.496094 141.816406 167.195312 141.554688 " fill-opacity="1" fill-rule="evenodd"/><path fill="#ddac8a" d="M 174.566406 145.46875 C 175.355469 146.628906 175.785156 147.640625 175.566406 148.898438 C 172.707031 148.335938 173.839844 144.863281 171.542969 142.929688 C 174.347656 142.707031 178.460938 146.664062 175.929688 148.886719 C 175.882812 148.957031 176.183594 147.132812 174.566406 145.46875 " fill-opacity="1" fill-rule="evenodd"/><path fill="#ddac8a" d="M 151.03125 138.101562 C 152.386719 138.472656 153.480469 138.554688 154.601562 137.9375 C 153.140625 135.414062 150.222656 137.613281 147.648438 136.066406 C 148.347656 138.792969 153.425781 141.402344 154.707031 138.285156 C 154.757812 138.214844 153.128906 139.09375 151.03125 138.101562 " fill-opacity="1" fill-rule="evenodd"/><path fill="#ddac8a" d="M 148.722656 131.425781 C 149.804688 132.316406 150.773438 132.835938 152.046875 132.726562 C 151.742188 129.828125 148.179688 130.648438 146.460938 128.1875 C 145.988281 130.964844 149.5625 135.414062 152.003906 133.089844 C 152.078125 133.046875 150.234375 133.183594 148.722656 131.425781 " fill-opacity="1" fill-rule="evenodd"/><path fill="#ddac8a" d="M 170.585938 156.011719 C 171.921875 155.59375 172.890625 155.070312 173.5 153.945312 C 170.910156 152.609375 169.636719 156.035156 166.632812 156.121094 C 168.695312 158.039062 174.378906 157.5 173.777344 154.179688 C 173.78125 154.097656 172.882812 155.714844 170.585938 156.011719 " fill-opacity="1" fill-rule="evenodd"/><path fill="#ddac8a" d="M 164.902344 152.90625 C 166.238281 152.488281 167.203125 151.964844 167.816406 150.839844 C 165.226562 149.503906 163.953125 152.929688 160.949219 153.015625 C 163.011719 154.933594 168.691406 154.390625 168.09375 151.074219 C 168.097656 150.992188 167.199219 152.605469 164.902344 152.90625 " fill-opacity="1" fill-rule="evenodd"/><path fill="#ddac8a" d="M 158.609375 150.734375 C 159.949219 150.316406 160.914062 149.792969 161.523438 148.671875 C 158.9375 147.332031 157.664062 150.757812 154.660156 150.847656 C 156.722656 152.765625 162.402344 152.222656 161.800781 148.90625 C 161.808594 148.820312 160.910156 150.4375 158.609375 150.734375 " fill-opacity="1" fill-rule="evenodd"/><path fill="#ddac8a" d="M 151.59375 147.6875 C 152.988281 147.523438 154.035156 147.191406 154.839844 146.203125 C 152.550781 144.402344 150.65625 147.53125 147.691406 147.058594 C 149.359375 149.328125 155.042969 149.855469 155.070312 146.484375 C 155.09375 146.402344 153.90625 147.824219 151.59375 147.6875 " fill-opacity="1" fill-rule="evenodd"/><path fill="#ddac8a" d="M 145.875 143.183594 C 147.242188 143.5 148.339844 143.535156 149.433594 142.875 C 147.875 140.410156 145.046875 142.726562 142.410156 141.285156 C 143.222656 143.984375 148.398438 146.382812 149.554688 143.214844 C 149.601562 143.144531 148.011719 144.089844 145.875 143.183594 " fill-opacity="1" fill-rule="evenodd"/><path fill="#ddac8a" d="M 143.105469 133.316406 C 143.597656 134.84375 144.207031 135.945312 145.5 136.628906 C 147.003906 133.652344 143.066406 132.230469 142.933594 128.792969 C 140.757812 131.175781 141.441406 137.675781 145.234375 136.953125 C 145.332031 136.957031 143.46875 135.945312 143.105469 133.316406 " fill-opacity="1" fill-rule="evenodd"/><path fill="#ddac8a" d="M 143.375 139.175781 C 144.359375 139.402344 145.148438 139.429688 145.9375 138.953125 C 144.8125 137.179688 142.777344 138.847656 140.878906 137.808594 C 141.460938 139.75 145.191406 141.480469 146.023438 139.199219 C 146.058594 139.148438 144.914062 139.828125 143.375 139.175781 " fill-opacity="1" fill-rule="evenodd"/><path fill="#ddac8a" d="M 153.898438 120.132812 C 153.949219 121.757812 154.234375 123 155.300781 124.03125 C 157.601562 121.554688 154.167969 119.066406 155.007812 115.683594 C 152.222656 117.390625 151.058594 123.90625 154.953125 124.265625 C 155.042969 124.300781 153.515625 122.792969 153.898438 120.132812 " fill-opacity="1" fill-rule="evenodd"/><path fill="#ddac8a" d="M 138.714844 148.242188 C 140.257812 149.289062 141.289062 150.328125 141.632812 151.996094 C 137.816406 152.707031 137.511719 147.847656 133.71875 146.582031 C 137.085938 144.929688 144.121094 147.804688 142.078125 151.804688 C 142.050781 151.914062 141.527344 149.507812 138.714844 148.242188 " fill-opacity="1" fill-rule="evenodd"/><path fill="#ddac8a" d="M 142.128906 157.019531 C 143.289062 156.230469 144.0625 155.453125 144.324219 154.199219 C 141.457031 153.667969 141.226562 157.316406 138.378906 158.265625 C 140.90625 159.507812 146.191406 157.347656 144.65625 154.34375 C 144.636719 154.261719 144.242188 156.070312 142.128906 157.019531 " fill-opacity="1" fill-rule="evenodd"/><path fill="#ddac8a" d="M 131.8125 152.972656 C 133.121094 152.460938 134.199219 152.265625 135.378906 152.761719 C 134.195312 155.425781 131.058594 153.546875 128.660156 155.355469 C 129.070312 152.570312 133.84375 149.441406 135.449219 152.40625 C 135.507812 152.46875 133.792969 151.769531 131.8125 152.972656 " fill-opacity="1" fill-rule="evenodd"/><path fill="#ddac8a" d="M 136.316406 156.074219 C 137.265625 155.429688 137.898438 154.792969 138.109375 153.769531 C 135.769531 153.335938 135.582031 156.316406 133.253906 157.089844 C 135.316406 158.105469 139.632812 156.339844 138.378906 153.890625 C 138.367188 153.820312 138.042969 155.296875 136.316406 156.074219 " fill-opacity="1" fill-rule="evenodd"/><path fill="#ddac8a" d="M 140.90625 143.710938 C 142.066406 144.5 142.839844 145.277344 143.097656 146.527344 C 140.230469 147.0625 140.003906 143.414062 137.152344 142.464844 C 139.679688 141.222656 144.964844 143.382812 143.429688 146.386719 C 143.410156 146.46875 143.019531 144.660156 140.90625 143.710938 " fill-opacity="1" fill-rule="evenodd"/><path fill="#ddac8a" d="M 146.601562 148.007812 C 146.808594 149.074219 146.804688 149.921875 146.257812 150.75 C 144.398438 149.472656 146.269531 147.351562 145.230469 145.269531 C 147.296875 145.972656 149.007812 150.050781 146.519531 150.855469 C 146.464844 150.890625 147.242188 149.683594 146.601562 148.007812 " fill-opacity="1" fill-rule="evenodd"/><path fill="#ddac8a" d="M 151.4375 151.75 C 151.789062 152.566406 151.941406 153.246094 151.652344 154.003906 C 149.9375 153.316406 151.058594 151.28125 149.855469 149.800781 C 151.632812 150 153.722656 152.957031 151.878906 154.042969 C 151.839844 154.082031 152.246094 152.976562 151.4375 151.75 " fill-opacity="1" fill-rule="evenodd"/><path fill="#ddac8a" d="M 156.960938 154.105469 C 157.316406 154.925781 157.464844 155.605469 157.175781 156.363281 C 155.460938 155.671875 156.582031 153.640625 155.378906 152.160156 C 157.15625 152.359375 159.246094 155.316406 157.402344 156.402344 C 157.363281 156.4375 157.769531 155.335938 156.960938 154.105469 " fill-opacity="1" fill-rule="evenodd"/><path fill="#ddac8a" d="M 163.433594 156.199219 C 163.863281 156.976562 164.078125 157.640625 163.863281 158.425781 C 162.089844 157.902344 163.011719 155.769531 161.671875 154.414062 C 163.457031 154.4375 165.828125 157.179688 164.09375 158.4375 C 164.0625 158.480469 164.359375 157.34375 163.433594 156.199219 " fill-opacity="1" fill-rule="evenodd"/><path fill="#ddac8a" d="M 198.722656 149.679688 C 197.839844 149.785156 197.144531 149.734375 196.5 149.246094 C 197.648438 147.792969 199.277344 149.445312 201.039062 148.714844 C 200.347656 150.363281 196.914062 151.53125 196.398438 149.453125 C 196.375 149.40625 197.316406 150.105469 198.722656 149.679688 " fill-opacity="1" fill-rule="evenodd"/><path fill="#ddac8a" d="M 139.746094 172.46875 C 140.527344 171.632812 141.253906 171.109375 142.292969 171.058594 C 142.363281 173.433594 139.394531 173.160156 138.269531 175.335938 C 137.585938 173.144531 139.992188 169.152344 142.21875 170.769531 C 142.285156 170.792969 140.777344 170.886719 139.746094 172.46875 " fill-opacity="1" fill-rule="evenodd"/><path fill="#ddac8a" d="M 130.054688 160.28125 C 131.285156 161.0625 132.351562 161.476562 133.648438 161.203125 C 132.972656 158.253906 129.402344 159.546875 127.316406 157.226562 C 127.179688 160.148438 131.425781 164.285156 133.652344 161.582031 C 133.722656 161.53125 131.835938 161.902344 130.054688 160.28125 " fill-opacity="1" fill-rule="evenodd"/><path fill="#ddac8a" d="M 205.296875 174.914062 C 204.632812 173.925781 204.269531 173.066406 204.460938 171.996094 C 206.886719 172.484375 205.914062 175.429688 207.855469 177.082031 C 205.472656 177.257812 201.992188 173.882812 204.15625 172.003906 C 204.195312 171.945312 203.933594 173.496094 205.296875 174.914062 " fill-opacity="1" fill-rule="evenodd"/><path fill="#ddac8a" d="M 230.222656 172.808594 C 229.363281 172.277344 228.78125 171.742188 228.554688 170.847656 C 230.601562 170.375 230.882812 172.996094 232.960938 173.589844 C 231.179688 174.5625 227.308594 173.171875 228.320312 170.964844 C 228.332031 170.902344 228.671875 172.191406 230.222656 172.808594 " fill-opacity="1" fill-rule="evenodd"/><path fill="#ddac8a" d="M 203.3125 164.703125 C 202.304688 164.625 201.519531 164.710938 200.808594 165.300781 C 202.179688 166.890625 203.953125 164.945312 205.984375 165.695312 C 205.234375 163.613281 201.144531 162.792969 200.6875 165.070312 C 200.660156 165.125 201.695312 164.285156 203.3125 164.703125 " fill-opacity="1" fill-rule="evenodd"/><path fill="#ddac8a" d="M 236.351562 169.894531 C 234.972656 169.445312 233.847656 169.308594 232.664062 169.894531 C 234.046875 172.566406 237.164062 170.441406 239.746094 172.160156 C 239.15625 169.3125 234.042969 166.375 232.570312 169.53125 C 232.511719 169.597656 234.238281 168.773438 236.351562 169.894531 " fill-opacity="1" fill-rule="evenodd"/><path fill="#ddac8a" d="M 175.578125 176.054688 C 176.53125 175.253906 177.144531 174.496094 177.257812 173.367188 C 174.683594 173.15625 174.808594 176.398438 172.382812 177.492188 C 174.726562 178.359375 179.191406 175.972656 177.566406 173.464844 C 177.542969 173.394531 177.359375 175.023438 175.578125 176.054688 " fill-opacity="1" fill-rule="evenodd"/><path fill="#ddac8a" d="M 169.121094 176.511719 C 170.015625 175.761719 170.589844 175.050781 170.699219 173.992188 C 168.277344 173.792969 168.398438 176.835938 166.117188 177.867188 C 168.320312 178.679688 172.511719 176.441406 170.984375 174.082031 C 170.964844 174.015625 170.792969 175.546875 169.121094 176.511719 " fill-opacity="1" fill-rule="evenodd"/><path fill="#ddac8a" d="M 160.695312 171.511719 C 161.859375 171.613281 162.769531 171.515625 163.59375 170.84375 C 162.023438 168.992188 159.957031 171.230469 157.617188 170.34375 C 158.597656 172.476562 163.144531 173.859375 163.730469 171.113281 C 163.765625 171.046875 162.558594 172.007812 160.695312 171.511719 " fill-opacity="1" fill-rule="evenodd"/><path fill="#ddac8a" d="M 170.625 166.460938 C 171.550781 167.171875 172.15625 167.859375 172.308594 168.914062 C 169.902344 169.214844 169.890625 166.167969 167.566406 165.238281 C 169.730469 164.332031 174.019531 166.390625 172.59375 168.808594 C 172.574219 168.878906 172.335938 167.355469 170.625 166.460938 " fill-opacity="1" fill-rule="evenodd"/><path fill="#ddac8a" d="M 164.59375 166.644531 C 165.414062 167.265625 165.953125 167.871094 166.09375 168.800781 C 163.96875 169.082031 163.941406 166.390625 161.882812 165.578125 C 163.792969 164.765625 167.589844 166.558594 166.347656 168.707031 C 166.328125 168.769531 166.109375 167.421875 164.59375 166.644531 " fill-opacity="1" fill-rule="evenodd"/><path fill="#ddac8a" d="M 159.511719 166.910156 C 160.246094 167.390625 160.734375 167.871094 160.910156 168.648438 C 159.125 169.011719 158.945312 166.734375 157.152344 166.167969 C 158.71875 165.367188 162.046875 166.664062 161.117188 168.554688 C 161.105469 168.609375 160.84375 167.480469 159.511719 166.910156 " fill-opacity="1" fill-rule="evenodd"/><path fill="#ddac8a" d="M 155.839844 173.128906 C 156.746094 173.292969 157.421875 173.554688 157.910156 174.238281 C 156.328125 175.324219 155.21875 173.191406 153.25 173.378906 C 154.4375 171.957031 158.195312 171.847656 158.074219 174.0625 C 158.082031 174.117188 157.363281 173.132812 155.839844 173.128906 " fill-opacity="1" fill-rule="evenodd"/><path fill="#ddac8a" d="M 163.789062 177.160156 C 164.488281 176.535156 164.929688 175.945312 164.984375 175.089844 C 163.035156 175 163.21875 177.441406 161.417969 178.332031 C 163.207031 178.921875 166.511719 177.007812 165.21875 175.15625 C 165.199219 175.101562 165.101562 176.339844 163.789062 177.160156 " fill-opacity="1" fill-rule="evenodd"/><path fill="#ddac8a" d="M 158.667969 177.828125 C 159.25 177.304688 159.617188 176.8125 159.667969 176.101562 C 158.039062 176.027344 158.195312 178.0625 156.691406 178.804688 C 158.183594 179.296875 160.941406 177.699219 159.863281 176.15625 C 159.84375 176.113281 159.765625 177.140625 158.667969 177.828125 " fill-opacity="1" fill-rule="evenodd"/><path fill="#ddac8a" d="M 150.382812 175.761719 C 151.144531 175.597656 151.757812 175.585938 152.363281 175.960938 C 151.472656 177.324219 149.914062 176.011719 148.429688 176.792969 C 148.90625 175.296875 151.8125 173.996094 152.433594 175.773438 C 152.460938 175.8125 151.578125 175.273438 150.382812 175.761719 " fill-opacity="1" fill-rule="evenodd"/><path fill="#ddac8a" d="M 153.765625 177.925781 C 154.421875 177.5 154.863281 177.074219 155.023438 176.378906 C 153.429688 176.046875 153.257812 178.078125 151.65625 178.574219 C 153.050781 179.296875 156.023438 178.160156 155.207031 176.464844 C 155.199219 176.417969 154.957031 177.421875 153.765625 177.925781 " fill-opacity="1" fill-rule="evenodd"/><path fill="#ddac8a" d="M 238.039062 141.515625 C 238.296875 142.46875 238.351562 143.238281 237.914062 144.023438 C 236.144531 142.992188 237.699219 140.941406 236.617188 139.128906 C 238.53125 139.628906 240.355469 143.207031 238.160156 144.101562 C 238.113281 144.136719 238.730469 142.992188 238.039062 141.515625 " fill-opacity="1" fill-rule="evenodd"/><g fill="#ddac8a" fill-opacity="1"><g transform="translate(111.22225, 192.854284)"><g><path d="M 0.960938 0 L 3.234375 0 C 3.089844 -0.460938 3.019531 -1.054688 3.019531 -1.847656 L 3.019531 -3.1875 L 6.890625 -3.1875 C 7.460938 -3.1875 7.851562 -3.160156 8.136719 -3.113281 L 8.136719 -4.796875 C 7.851562 -4.75 7.460938 -4.726562 6.890625 -4.726562 L 3.019531 -4.726562 L 3.019531 -6.679688 L 7.699219 -6.679688 C 8.503906 -6.679688 9.09375 -6.609375 9.378906 -6.464844 L 9.070312 -8.289062 L 0.960938 -8.289062 C 1.089844 -7.828125 1.171875 -7.105469 1.171875 -6.300781 L 1.171875 -1.988281 C 1.171875 -1.183594 1.101562 -0.460938 0.960938 0 Z M 0.960938 0 "/></g></g></g><g fill="#ddac8a" fill-opacity="1"><g transform="translate(122.526481, 192.854284)"><g><path d="M 0.960938 0 L 9.308594 0 L 9.652344 -1.882812 C 9.308594 -1.695312 8.773438 -1.574219 7.839844 -1.574219 L 3.019531 -1.574219 L 3.019531 -3.386719 L 6.832031 -3.386719 C 7.402344 -3.386719 7.792969 -3.363281 8.078125 -3.316406 L 8.078125 -4.996094 C 7.792969 -4.949219 7.402344 -4.925781 6.832031 -4.925781 L 3.019531 -4.925781 L 3.019531 -6.714844 L 7.757812 -6.714844 C 8.574219 -6.714844 9.09375 -6.632812 9.367188 -6.5 L 9.070312 -8.289062 L 0.960938 -8.289062 C 1.089844 -7.828125 1.183594 -7.105469 1.183594 -6.300781 L 1.183594 -1.988281 C 1.183594 -1.183594 1.101562 -0.460938 0.960938 0 Z M 0.960938 0 "/></g></g></g><g fill="#ddac8a" fill-opacity="1"><g transform="translate(134.280477, 192.854284)"><g><path d="M 0.960938 0 L 3.234375 0 C 3.113281 -0.425781 3.019531 -1.21875 3.019531 -2.035156 L 3.019531 -5.980469 L 3.113281 -5.980469 L 6.476562 0 L 7.164062 0 L 10.527344 -5.980469 L 10.660156 -5.980469 L 10.660156 -2.035156 C 10.660156 -1.21875 10.5625 -0.425781 10.445312 0 L 12.71875 0 C 12.589844 -0.460938 12.503906 -1.183594 12.503906 -1.988281 L 12.503906 -6.300781 C 12.503906 -7.105469 12.578125 -7.828125 12.71875 -8.289062 L 10.304688 -8.289062 L 7.957031 -4.085938 C 7.566406 -3.375 7.269531 -2.832031 6.929688 -2.0625 L 6.796875 -2.0625 C 6.441406 -2.84375 6.144531 -3.410156 5.765625 -4.085938 L 3.433594 -8.289062 L 0.960938 -8.289062 C 1.101562 -7.828125 1.171875 -7.105469 1.171875 -6.300781 L 1.171875 -1.988281 C 1.171875 -1.183594 1.089844 -0.460938 0.960938 0 Z M 0.960938 0 "/></g></g></g><g fill="#ddac8a" fill-opacity="1"><g transform="translate(149.54973, 192.854284)"><g><path d="M 0.960938 0 L 3.234375 0 C 3.113281 -0.425781 3.019531 -1.21875 3.019531 -2.035156 L 3.019531 -5.980469 L 3.113281 -5.980469 L 6.476562 0 L 7.164062 0 L 10.527344 -5.980469 L 10.660156 -5.980469 L 10.660156 -2.035156 C 10.660156 -1.21875 10.5625 -0.425781 10.445312 0 L 12.71875 0 C 12.589844 -0.460938 12.503906 -1.183594 12.503906 -1.988281 L 12.503906 -6.300781 C 12.503906 -7.105469 12.578125 -7.828125 12.71875 -8.289062 L 10.304688 -8.289062 L 7.957031 -4.085938 C 7.566406 -3.375 7.269531 -2.832031 6.929688 -2.0625 L 6.796875 -2.0625 C 6.441406 -2.84375 6.144531 -3.410156 5.765625 -4.085938 L 3.433594 -8.289062 L 0.960938 -8.289062 C 1.101562 -7.828125 1.171875 -7.105469 1.171875 -6.300781 L 1.171875 -1.988281 C 1.171875 -1.183594 1.089844 -0.460938 0.960938 0 Z M 0.960938 0 "/></g></g></g><g fill="#ddac8a" fill-opacity="1"><g transform="translate(164.818985, 192.854284)"><g><path d="M 0.960938 0 L 9.308594 0 L 9.652344 -1.882812 C 9.308594 -1.695312 8.773438 -1.574219 7.839844 -1.574219 L 3.019531 -1.574219 L 3.019531 -3.386719 L 6.832031 -3.386719 C 7.402344 -3.386719 7.792969 -3.363281 8.078125 -3.316406 L 8.078125 -4.996094 C 7.792969 -4.949219 7.402344 -4.925781 6.832031 -4.925781 L 3.019531 -4.925781 L 3.019531 -6.714844 L 7.757812 -6.714844 C 8.574219 -6.714844 9.09375 -6.632812 9.367188 -6.5 L 9.070312 -8.289062 L 0.960938 -8.289062 C 1.089844 -7.828125 1.183594 -7.105469 1.183594 -6.300781 L 1.183594 -1.988281 C 1.183594 -1.183594 1.101562 -0.460938 0.960938 0 Z M 0.960938 0 "/></g></g></g><g fill="#ddac8a" fill-opacity="1"><g transform="translate(176.572982, 192.854284)"><g><path d="M 5.140625 0.164062 C 7.839844 0.164062 9.558594 -0.792969 9.558594 -2.378906 C 9.558594 -5.765625 2.511719 -4.191406 2.511719 -5.992188 C 2.511719 -6.703125 3.695312 -6.890625 5.03125 -6.890625 C 6.429688 -6.890625 7.851562 -6.550781 8.726562 -6.039062 L 8.726562 -7.792969 C 7.792969 -8.183594 6.3125 -8.457031 4.960938 -8.457031 C 2.558594 -8.457031 0.605469 -7.613281 0.605469 -6.015625 C 0.605469 -2.59375 7.636719 -4.097656 7.636719 -2.367188 C 7.636719 -1.632812 6.609375 -1.386719 5.105469 -1.386719 C 3.398438 -1.386719 1.765625 -1.765625 0.519531 -2.558594 L 0.4375 -0.675781 C 1.730469 -0.164062 3.707031 0.164062 5.140625 0.164062 Z M 5.140625 0.164062 "/></g></g></g><g fill="#ddac8a" fill-opacity="1"><g transform="translate(188.184947, 192.854284)"><g/></g></g><g fill="#ddac8a" fill-opacity="1"><g transform="translate(193.109648, 192.854284)"><g><path d="M 5.992188 0.164062 C 7.496094 0.164062 8.773438 -0.105469 9.734375 -0.554688 L 9.734375 -2.464844 C 8.929688 -1.835938 7.648438 -1.445312 6.324219 -1.445312 C 4.097656 -1.445312 2.390625 -2.402344 2.390625 -4.132812 C 2.390625 -5.828125 4.050781 -6.84375 6.183594 -6.84375 C 7.449219 -6.84375 8.585938 -6.464844 9.25 -5.957031 L 9.402344 -7.734375 C 8.574219 -8.160156 7.320312 -8.457031 5.957031 -8.457031 C 2.9375 -8.457031 0.53125 -6.902344 0.53125 -4.132812 C 0.53125 -1.351562 2.984375 0.164062 5.992188 0.164062 Z M 5.992188 0.164062 "/></g></g></g><g fill="#ddac8a" fill-opacity="1"><g transform="translate(204.828134, 192.854284)"><g><path d="M 5.660156 0.164062 C 8.621094 0.164062 10.789062 -1.457031 10.789062 -4.144531 C 10.789062 -6.832031 8.621094 -8.457031 5.660156 -8.457031 C 2.699219 -8.457031 0.53125 -6.832031 0.53125 -4.144531 C 0.53125 -1.457031 2.699219 0.164062 5.660156 0.164062 Z M 5.660156 -1.300781 C 3.800781 -1.300781 2.402344 -2.390625 2.402344 -4.144531 C 2.402344 -5.910156 3.800781 -6.988281 5.660156 -6.988281 C 7.519531 -6.988281 8.917969 -5.910156 8.917969 -4.144531 C 8.917969 -2.390625 7.519531 -1.300781 5.660156 -1.300781 Z M 5.660156 -1.300781 "/></g></g></g><g fill="#ddac8a" fill-opacity="1"><g transform="translate(217.742041, 192.854284)"><g><path d="M 7.199219 0.175781 C 7.933594 0.175781 8.679688 -0.0234375 8.976562 -0.0820312 L 9.082031 -1.90625 C 8.585938 -1.707031 7.648438 -1.5625 6.632812 -1.5625 L 3.019531 -1.5625 L 3.019531 -6.109375 C 3.019531 -6.917969 3.113281 -7.828125 3.234375 -8.289062 L 0.960938 -8.289062 C 1.089844 -7.828125 1.183594 -7.105469 1.183594 -6.300781 L 1.183594 -1.988281 C 1.183594 -1.183594 1.101562 -0.296875 0.960938 0.175781 C 1.503906 0.0234375 2.414062 -0.164062 3.503906 -0.164062 C 4.960938 -0.164062 5.839844 0.175781 7.199219 0.175781 Z M 7.199219 0.175781 "/></g></g></g><g fill="#ddac8a" fill-opacity="1"><g transform="translate(228.750376, 192.854284)"><g><path d="M 0.960938 0 L 3.234375 0 C 3.101562 -0.460938 3.019531 -1.183594 3.019531 -1.988281 L 3.019531 -6.300781 C 3.019531 -7.105469 3.101562 -7.828125 3.234375 -8.289062 L 0.960938 -8.289062 C 1.089844 -7.828125 1.171875 -7.105469 1.171875 -6.300781 L 1.171875 -1.988281 C 1.171875 -1.183594 1.101562 -0.460938 0.960938 0 Z M 0.960938 0 "/></g></g></g><g fill="#ddac8a" fill-opacity="1"><g transform="translate(234.550928, 192.854284)"><g><path d="M 0.960938 0 L 7.140625 0 C 8.894531 0 10.195312 -0.769531 10.195312 -2.191406 C 10.195312 -3.578125 8.964844 -4.261719 7.414062 -4.261719 L 7.1875 -4.261719 L 7.1875 -4.382812 L 7.308594 -4.382812 C 8.667969 -4.382812 9.722656 -5.152344 9.722656 -6.277344 C 9.722656 -7.589844 8.492188 -8.289062 6.941406 -8.289062 L 0.960938 -8.289062 C 1.089844 -7.828125 1.171875 -7.105469 1.171875 -6.300781 L 1.171875 -1.988281 C 1.171875 -1.183594 1.101562 -0.460938 0.960938 0 Z M 3.019531 -4.972656 L 3.019531 -6.878906 L 6.40625 -6.878906 C 7.257812 -6.878906 7.921875 -6.5625 7.921875 -5.933594 C 7.921875 -5.304688 7.246094 -4.972656 6.382812 -4.972656 Z M 3.019531 -1.46875 L 3.019531 -3.648438 L 6.5625 -3.648438 C 7.589844 -3.648438 8.335938 -3.246094 8.335938 -2.535156 C 8.335938 -1.835938 7.625 -1.46875 6.585938 -1.46875 Z M 3.019531 -1.46875 "/></g></g></g><g fill="#ddac8a" fill-opacity="1"><g transform="translate(246.873044, 192.854284)"><g><path d="M 9.519531 0.175781 C 10.125 0.175781 10.695312 -0.0703125 10.964844 -0.4375 L 10.882812 -2.488281 C 10.671875 -1.976562 10.386719 -1.65625 9.746094 -1.65625 C 8.445312 -1.65625 8.726562 -3.753906 6.242188 -3.753906 L 6.144531 -3.753906 L 6.144531 -3.847656 L 6.867188 -3.847656 C 8.773438 -3.847656 10.066406 -4.785156 10.066406 -6.121094 C 10.066406 -7.519531 8.691406 -8.289062 6.703125 -8.289062 L 0.972656 -8.289062 C 1.101562 -7.828125 1.183594 -7.105469 1.183594 -6.300781 L 1.183594 -1.988281 C 1.183594 -1.183594 1.101562 -0.472656 0.972656 0 L 3.246094 0 C 3.101562 -0.472656 3.03125 -1.113281 3.03125 -1.90625 L 3.03125 -3.136719 C 3.304688 -3.222656 4.238281 -3.246094 4.582031 -3.246094 C 7.980469 -3.246094 6.429688 0.175781 9.519531 0.175781 Z M 3.03125 -4.558594 L 3.03125 -6.691406 L 6.511719 -6.691406 C 7.53125 -6.691406 8.21875 -6.289062 8.21875 -5.625 C 8.21875 -4.9375 7.519531 -4.558594 6.429688 -4.558594 Z M 3.03125 -4.558594 "/></g></g></g><g fill="#ddac8a" fill-opacity="1"><g transform="translate(259.56208, 192.854284)"><g><path d="M 0.960938 0 L 3.234375 0 C 3.101562 -0.460938 3.019531 -1.183594 3.019531 -1.988281 L 3.019531 -6.300781 C 3.019531 -7.105469 3.101562 -7.828125 3.234375 -8.289062 L 0.960938 -8.289062 C 1.089844 -7.828125 1.171875 -7.105469 1.171875 -6.300781 L 1.171875 -1.988281 C 1.171875 -1.183594 1.101562 -0.460938 0.960938 0 Z M 0.960938 0 "/></g></g></g><g fill="#ddac8a" fill-opacity="1"><g transform="translate(156.348638, 204.051878)"><g><path d="M 5.609375 0.105469 C 5.964844 0.105469 6.300781 -0.0429688 6.460938 -0.257812 L 6.414062 -1.464844 C 6.285156 -1.164062 6.121094 -0.976562 5.742188 -0.976562 C 4.976562 -0.976562 5.140625 -2.210938 3.675781 -2.210938 L 3.621094 -2.210938 L 3.621094 -2.269531 L 4.046875 -2.269531 C 5.171875 -2.269531 5.929688 -2.820312 5.929688 -3.605469 C 5.929688 -4.429688 5.121094 -4.882812 3.949219 -4.882812 L 0.570312 -4.882812 C 0.648438 -4.613281 0.699219 -4.1875 0.699219 -3.710938 L 0.699219 -1.171875 C 0.699219 -0.699219 0.648438 -0.277344 0.570312 0 L 1.910156 0 C 1.828125 -0.277344 1.785156 -0.65625 1.785156 -1.125 L 1.785156 -1.847656 C 1.945312 -1.898438 2.496094 -1.910156 2.699219 -1.910156 C 4.703125 -1.910156 3.789062 0.105469 5.609375 0.105469 Z M 1.785156 -2.6875 L 1.785156 -3.941406 L 3.835938 -3.941406 C 4.4375 -3.941406 4.84375 -3.703125 4.84375 -3.3125 C 4.84375 -2.910156 4.429688 -2.6875 3.789062 -2.6875 Z M 1.785156 -2.6875 "/></g></g></g><g fill="#ddac8a" fill-opacity="1"><g transform="translate(163.82846, 204.051878)"><g><path d="M 0.566406 0 L 5.484375 0 L 5.6875 -1.109375 C 5.484375 -0.996094 5.171875 -0.929688 4.617188 -0.929688 L 1.777344 -0.929688 L 1.777344 -1.996094 L 4.027344 -1.996094 C 4.359375 -1.996094 4.589844 -1.980469 4.757812 -1.953125 L 4.757812 -2.945312 C 4.589844 -2.917969 4.359375 -2.902344 4.027344 -2.902344 L 1.777344 -2.902344 L 1.777344 -3.957031 L 4.570312 -3.957031 C 5.050781 -3.957031 5.359375 -3.90625 5.519531 -3.832031 L 5.34375 -4.882812 L 0.566406 -4.882812 C 0.640625 -4.613281 0.699219 -4.1875 0.699219 -3.710938 L 0.699219 -1.171875 C 0.699219 -0.699219 0.648438 -0.273438 0.566406 0 Z M 0.566406 0 "/></g></g></g><g fill="#ddac8a" fill-opacity="1"><g transform="translate(170.757059, 204.051878)"><g><path d="M 3.027344 0.0976562 C 4.617188 0.0976562 5.628906 -0.46875 5.628906 -1.402344 C 5.628906 -3.398438 1.480469 -2.46875 1.480469 -3.53125 C 1.480469 -3.949219 2.175781 -4.0625 2.964844 -4.0625 C 3.789062 -4.0625 4.625 -3.859375 5.140625 -3.558594 L 5.140625 -4.589844 C 4.589844 -4.820312 3.71875 -4.980469 2.921875 -4.980469 C 1.507812 -4.980469 0.355469 -4.488281 0.355469 -3.542969 C 0.355469 -1.527344 4.5 -2.414062 4.5 -1.394531 C 4.5 -0.960938 3.894531 -0.816406 3.007812 -0.816406 C 2.003906 -0.816406 1.039062 -1.039062 0.308594 -1.507812 L 0.257812 -0.398438 C 1.019531 -0.0976562 2.183594 0.0976562 3.027344 0.0976562 Z M 3.027344 0.0976562 "/></g></g></g><g fill="#ddac8a" fill-opacity="1"><g transform="translate(177.601932, 204.051878)"><g><path d="M 0.566406 0 L 1.90625 0 C 1.828125 -0.273438 1.777344 -0.699219 1.777344 -1.171875 L 1.777344 -3.710938 C 1.777344 -4.1875 1.828125 -4.613281 1.90625 -4.882812 L 0.566406 -4.882812 C 0.640625 -4.613281 0.691406 -4.1875 0.691406 -3.710938 L 0.691406 -1.171875 C 0.691406 -0.699219 0.648438 -0.273438 0.566406 0 Z M 0.566406 0 "/></g></g></g><g fill="#ddac8a" fill-opacity="1"><g transform="translate(181.020874, 204.051878)"><g><path d="M 4.242188 0.105469 C 4.675781 0.105469 5.113281 -0.015625 5.289062 -0.0507812 L 5.351562 -1.125 C 5.058594 -1.003906 4.507812 -0.921875 3.90625 -0.921875 L 1.777344 -0.921875 L 1.777344 -3.601562 C 1.777344 -4.074219 1.835938 -4.613281 1.90625 -4.882812 L 0.566406 -4.882812 C 0.640625 -4.613281 0.699219 -4.1875 0.699219 -3.710938 L 0.699219 -1.171875 C 0.699219 -0.699219 0.648438 -0.175781 0.566406 0.105469 C 0.886719 0.015625 1.421875 -0.0976562 2.066406 -0.0976562 C 2.921875 -0.0976562 3.441406 0.105469 4.242188 0.105469 Z M 4.242188 0.105469 "/></g></g></g><g fill="#ddac8a" fill-opacity="1"><g transform="translate(187.509898, 204.051878)"><g><path d="M 0.566406 0 L 1.90625 0 C 1.828125 -0.273438 1.777344 -0.699219 1.777344 -1.171875 L 1.777344 -3.710938 C 1.777344 -4.1875 1.828125 -4.613281 1.90625 -4.882812 L 0.566406 -4.882812 C 0.640625 -4.613281 0.691406 -4.1875 0.691406 -3.710938 L 0.691406 -1.171875 C 0.691406 -0.699219 0.648438 -0.273438 0.566406 0 Z M 0.566406 0 "/></g></g></g><g fill="#ddac8a" fill-opacity="1"><g transform="translate(190.92884, 204.051878)"><g><path d="M 0.566406 0 L 5.484375 0 L 5.6875 -1.109375 C 5.484375 -0.996094 5.171875 -0.929688 4.617188 -0.929688 L 1.777344 -0.929688 L 1.777344 -1.996094 L 4.027344 -1.996094 C 4.359375 -1.996094 4.589844 -1.980469 4.757812 -1.953125 L 4.757812 -2.945312 C 4.589844 -2.917969 4.359375 -2.902344 4.027344 -2.902344 L 1.777344 -2.902344 L 1.777344 -3.957031 L 4.570312 -3.957031 C 5.050781 -3.957031 5.359375 -3.90625 5.519531 -3.832031 L 5.34375 -4.882812 L 0.566406 -4.882812 C 0.640625 -4.613281 0.699219 -4.1875 0.699219 -3.710938 L 0.699219 -1.171875 C 0.699219 -0.699219 0.648438 -0.273438 0.566406 0 Z M 0.566406 0 "/></g></g></g><g fill="#ddac8a" fill-opacity="1"><g transform="translate(197.857439, 204.051878)"><g><path d="M 0.566406 0 L 1.90625 0 C 1.84375 -0.246094 1.777344 -0.761719 1.777344 -1.25 L 1.777344 -3.539062 L 1.863281 -3.539062 L 5.253906 0 L 6.25 0 L 6.25 -3.710938 C 6.25 -4.1875 6.300781 -4.613281 6.378906 -4.882812 L 5.039062 -4.882812 C 5.101562 -4.660156 5.164062 -4.214844 5.164062 -3.734375 L 5.164062 -1.457031 L 5.074219 -1.457031 L 1.828125 -4.882812 L 0.566406 -4.882812 C 0.648438 -4.613281 0.699219 -4.1875 0.699219 -3.710938 L 0.699219 -1.171875 C 0.699219 -0.699219 0.640625 -0.273438 0.566406 0 Z M 0.566406 0 "/></g></g></g><g fill="#ddac8a" fill-opacity="1"><g transform="translate(205.741951, 204.051878)"><g><path d="M 3.53125 0.0976562 C 4.417969 0.0976562 5.171875 -0.0625 5.734375 -0.328125 L 5.734375 -1.453125 C 5.261719 -1.082031 4.507812 -0.851562 3.726562 -0.851562 C 2.414062 -0.851562 1.410156 -1.417969 1.410156 -2.433594 C 1.410156 -3.433594 2.386719 -4.03125 3.640625 -4.03125 C 4.390625 -4.03125 5.058594 -3.808594 5.449219 -3.507812 L 5.539062 -4.554688 C 5.050781 -4.808594 4.3125 -4.980469 3.507812 -4.980469 C 1.730469 -4.980469 0.3125 -4.066406 0.3125 -2.433594 C 0.3125 -0.796875 1.757812 0.0976562 3.53125 0.0976562 Z M 3.53125 0.0976562 "/></g></g></g><g fill="#ddac8a" fill-opacity="1"><g transform="translate(212.649623, 204.051878)"><g><path d="M 0.566406 0 L 5.484375 0 L 5.6875 -1.109375 C 5.484375 -0.996094 5.171875 -0.929688 4.617188 -0.929688 L 1.777344 -0.929688 L 1.777344 -1.996094 L 4.027344 -1.996094 C 4.359375 -1.996094 4.589844 -1.980469 4.757812 -1.953125 L 4.757812 -2.945312 C 4.589844 -2.917969 4.359375 -2.902344 4.027344 -2.902344 L 1.777344 -2.902344 L 1.777344 -3.957031 L 4.570312 -3.957031 C 5.050781 -3.957031 5.359375 -3.90625 5.519531 -3.832031 L 5.34375 -4.882812 L 0.566406 -4.882812 C 0.640625 -4.613281 0.699219 -4.1875 0.699219 -3.710938 L 0.699219 -1.171875 C 0.699219 -0.699219 0.648438 -0.273438 0.566406 0 Z M 0.566406 0 "/></g></g></g><g clip-path="url(#11eafaad7e)"><path fill="#ddac8a" d="M 135.84375 201.550781 C 136.148438 201.929688 136.527344 202.214844 136.929688 202.394531 C 135.78125 202.542969 134.613281 202.574219 133.441406 202.519531 C 134.535156 202.6875 135.644531 202.785156 136.761719 202.769531 C 136.421875 202.949219 136.105469 203.207031 135.84375 203.53125 C 135.582031 203.855469 135.378906 204.332031 135.222656 204.851562 C 133.148438 204.421875 130.582031 202.414062 130.582031 202.414062 C 130.582031 202.414062 133.265625 200.429688 135.152344 199.984375 C 135.316406 200.601562 135.539062 201.175781 135.84375 201.550781 " fill-opacity="1" fill-rule="nonzero"/></g><path fill="#ddac8a" d="M 138.742188 202.605469 C 138.75 202.605469 138.753906 202.605469 138.757812 202.605469 L 138.757812 202.613281 C 138.753906 202.609375 138.746094 202.609375 138.742188 202.605469 " fill-opacity="1" fill-rule="nonzero"/><g clip-path="url(#bd90414336)"><path fill="#ddac8a" d="M 135.09375 208.148438 C 135.09375 208.148438 135.238281 204.871094 136.132812 203.765625 C 136.847656 202.878906 138 202.597656 138.832031 203.054688 C 138.664062 203.457031 138.457031 203.851562 138.230469 204.230469 C 137.75 205.027344 137.175781 205.777344 136.550781 206.480469 C 137.25 205.847656 137.902344 205.160156 138.480469 204.398438 C 138.738281 204.058594 138.976562 203.699219 139.191406 203.320312 C 139.925781 204.015625 139.980469 205.21875 139.222656 206.148438 C 138.183594 207.4375 135.09375 208.148438 135.09375 208.148438 " fill-opacity="1" fill-rule="nonzero"/></g><g clip-path="url(#ede2f8ec68)"><path fill="#ddac8a" d="M 135.09375 196.929688 C 135.09375 196.929688 135.238281 200.207031 136.132812 201.316406 C 136.847656 202.203125 138 202.484375 138.832031 202.027344 C 138.664062 201.625 138.457031 201.230469 138.230469 200.851562 C 137.75 200.050781 137.175781 199.304688 136.550781 198.601562 C 137.25 199.234375 137.902344 199.921875 138.480469 200.679688 C 138.738281 201.023438 138.976562 201.382812 139.191406 201.761719 C 139.925781 201.0625 139.980469 199.863281 139.222656 198.929688 C 138.183594 197.644531 135.09375 196.929688 135.09375 196.929688 " fill-opacity="1" fill-rule="nonzero"/></g><g clip-path="url(#a52a2eb759)"><path fill="#ddac8a" d="M 239.15625 201.550781 C 238.847656 201.929688 238.472656 202.214844 238.066406 202.394531 C 239.214844 202.542969 240.386719 202.574219 241.554688 202.519531 C 240.464844 202.6875 239.355469 202.785156 238.238281 202.769531 C 238.578125 202.949219 238.890625 203.207031 239.15625 203.53125 C 239.417969 203.855469 239.621094 204.332031 239.777344 204.851562 C 241.847656 204.421875 244.417969 202.414062 244.417969 202.414062 C 244.417969 202.414062 241.734375 200.429688 239.84375 199.984375 C 239.679688 200.601562 239.457031 201.175781 239.15625 201.550781 " fill-opacity="1" fill-rule="nonzero"/></g><path fill="#ddac8a" d="M 236.253906 202.605469 C 236.25 202.605469 236.246094 202.605469 236.238281 202.605469 L 236.238281 202.613281 C 236.246094 202.609375 236.25 202.609375 236.253906 202.605469 " fill-opacity="1" fill-rule="nonzero"/><g clip-path="url(#04ee3d9a15)"><path fill="#ddac8a" d="M 239.902344 208.148438 C 239.902344 208.148438 239.761719 204.871094 238.867188 203.765625 C 238.148438 202.878906 237 202.597656 236.164062 203.054688 C 236.335938 203.457031 236.539062 203.851562 236.769531 204.230469 C 237.246094 205.027344 237.820312 205.777344 238.445312 206.480469 C 237.75 205.847656 237.09375 205.160156 236.519531 204.398438 C 236.261719 204.058594 236.019531 203.699219 235.804688 203.320312 C 235.070312 204.015625 235.019531 205.21875 235.773438 206.148438 C 236.816406 207.4375 239.902344 208.148438 239.902344 208.148438 " fill-opacity="1" fill-rule="nonzero"/></g><g clip-path="url(#617d0e9249)"><path fill="#ddac8a" d="M 239.902344 196.929688 C 239.902344 196.929688 239.761719 200.207031 238.867188 201.316406 C 238.148438 202.203125 237 202.484375 236.164062 202.027344 C 236.335938 201.625 236.539062 201.230469 236.769531 200.851562 C 237.246094 200.050781 237.820312 199.304688 238.445312 198.601562 C 237.75 199.234375 237.09375 199.921875 236.519531 200.679688 C 236.261719 201.023438 236.019531 201.382812 235.804688 201.761719 C 235.070312 201.0625 235.019531 199.863281 235.773438 198.929688 C 236.816406 197.644531 239.902344 196.929688 239.902344 196.929688 " fill-opacity="1" fill-rule="nonzero"/></g></svg>