<svg xmlns="http://www.w3.org/2000/svg" xmlns:xlink="http://www.w3.org/1999/xlink" width="1000" zoomAndPan="magnify" viewBox="0 0 750 749.999995" height="1000" preserveAspectRatio="xMidYMid meet" version="1.0"><defs><clipPath id="04e6bc294d"><path d="M 250.5 225 L 499.5 225 L 499.5 525 L 250.5 525 Z M 250.5 225 " clip-rule="nonzero"/></clipPath></defs><rect x="-75" width="900" fill="#ffffff" y="-74.999999" height="899.999994" fill-opacity="1"/><rect x="-75" width="900" fill="#ffffff" y="-74.999999" height="899.999994" fill-opacity="1"/><g clip-path="url(#04e6bc294d)"><path fill="#000000" d="M 467.402344 225.664062 L 368.503906 225.664062 L 368.503906 384.425781 C 368.503906 389.710938 368.1875 393.851562 367.804688 397.160156 L 346.660156 371.117188 L 250.5 384.234375 L 251.328125 396.144531 C 252.730469 416.332031 257.570312 433.714844 265.65625 447.789062 C 270.625 456.386719 304.3125 498.734375 333.414062 513.0625 C 348.445312 520.453125 368.503906 524.082031 394.679688 524.082031 C 419.769531 524.082031 440.910156 518.414062 457.53125 507.207031 C 474.28125 495.871094 485.679688 481.605469 491.414062 464.921875 C 496.699219 449.316406 499.308594 427.792969 499.308594 399.136719 L 499.308594 257.503906 Z M 467.402344 225.664062 " fill-opacity="1" fill-rule="nonzero"/></g><path fill="#ffffff" d="M 381.242188 238.398438 L 454.667969 238.398438 L 454.667969 367.167969 C 454.667969 394.167969 452.246094 414.800781 447.472656 428.875 C 442.695312 443.011719 433.015625 454.921875 418.496094 464.730469 C 403.976562 474.535156 385.445312 479.441406 362.773438 479.441406 C 338.828125 479.441406 320.296875 476.191406 307.179688 469.761719 C 293.996094 463.265625 283.871094 453.839844 276.671875 441.359375 C 269.542969 428.9375 265.273438 413.527344 264 395.1875 L 333.988281 385.636719 C 334.117188 396.078125 335.007812 403.847656 336.726562 408.941406 C 338.445312 414.039062 341.375 418.113281 345.449219 421.234375 C 348.253906 423.273438 352.265625 424.289062 357.421875 424.289062 C 365.636719 424.289062 371.625 421.234375 375.445312 415.183594 C 379.265625 409.070312 381.175781 398.816406 381.175781 384.425781 L 381.175781 238.398438 Z M 381.242188 238.398438 " fill-opacity="1" fill-rule="nonzero"/></svg>