<svg xmlns="http://www.w3.org/2000/svg" xmlns:xlink="http://www.w3.org/1999/xlink" width="1000" zoomAndPan="magnify" viewBox="0 0 750 749.999995" height="1000" preserveAspectRatio="xMidYMid meet" version="1.0"><rect x="-75" width="900" fill="#ffffff" y="-74.999999" height="899.999994" fill-opacity="1"/><rect x="-75" width="900" fill="#ffffff" y="-74.999999" height="899.999994" fill-opacity="1"/><path fill="#393536" d="M 495 525 L 255 525 C 238.441406 525 225 511.558594 225 495 L 225 255 C 225 238.441406 238.441406 225 255 225 L 495 225 C 511.558594 225 525 238.441406 525 255 L 525 495 C 525 511.558594 511.558594 525 495 525 Z M 255 235.019531 C 243.960938 235.019531 235.019531 244.019531 235.019531 255 L 235.019531 495 C 235.019531 506.039062 244.019531 514.980469 255 514.980469 L 495 514.980469 C 506.039062 514.980469 514.980469 505.980469 514.980469 495 L 514.980469 255 C 514.980469 243.960938 505.980469 235.019531 495 235.019531 Z M 395.160156 288.058594 L 424.078125 288.058594 L 424.078125 405.238281 C 424.078125 421.199219 419.101562 433.921875 409.078125 443.339844 C 399.121094 452.761719 385.921875 457.441406 369.539062 457.441406 C 352.078125 457.441406 338.640625 453.058594 329.160156 444.238281 C 319.679688 435.421875 314.941406 423.179688 314.941406 407.519531 L 343.859375 407.519531 C 343.859375 416.398438 346.078125 423.058594 350.460938 427.558594 C 354.839844 432.058594 361.199219 434.28125 369.539062 434.28125 C 377.339844 434.28125 383.578125 431.699219 388.199219 426.539062 C 392.820312 421.378906 395.160156 414.238281 395.160156 405.121094 Z M 489.359375 448.859375 C 489.359375 450.960938 488.820312 452.820312 487.738281 454.441406 C 486.660156 456.058594 485.21875 457.378906 483.359375 458.28125 C 485.578125 459.300781 487.320312 460.738281 488.519531 462.539062 C 489.71875 464.339844 490.320312 466.378906 490.320312 468.660156 C 490.320312 472.378906 489.058594 475.378906 486.539062 477.601562 C 484.019531 479.820312 480.601562 480.898438 476.398438 480.898438 C 472.140625 480.898438 468.78125 479.820312 466.199219 477.601562 C 463.679688 475.378906 462.359375 472.441406 462.359375 468.71875 C 462.359375 466.441406 462.960938 464.398438 464.160156 462.539062 C 465.359375 460.738281 467.101562 459.300781 469.261719 458.339844 C 467.398438 457.378906 465.960938 456.121094 464.878906 454.5 C 463.800781 452.878906 463.261719 451.019531 463.261719 448.921875 C 463.261719 445.261719 464.460938 442.378906 466.800781 440.28125 C 469.140625 438.179688 472.320312 437.101562 476.28125 437.101562 C 480.300781 437.101562 483.480469 438.179688 485.820312 440.28125 C 488.21875 442.320312 489.359375 445.199219 489.359375 448.859375 Z M 483.179688 468.238281 C 483.179688 466.140625 482.578125 464.398438 481.320312 463.140625 C 480.058594 461.820312 478.378906 461.21875 476.339844 461.21875 C 474.238281 461.21875 472.621094 461.878906 471.359375 463.140625 C 470.101562 464.398438 469.5 466.140625 469.5 468.238281 C 469.5 470.339844 470.101562 472.019531 471.359375 473.21875 C 472.558594 474.480469 474.238281 475.078125 476.398438 475.078125 C 478.558594 475.078125 480.238281 474.480469 481.441406 473.28125 C 482.578125 472.140625 483.179688 470.398438 483.179688 468.238281 Z M 482.28125 449.101562 C 482.28125 447.238281 481.738281 445.738281 480.660156 444.539062 C 479.578125 443.339844 478.140625 442.738281 476.339844 442.738281 C 474.539062 442.738281 473.101562 443.339844 472.019531 444.480469 C 470.941406 445.621094 470.460938 447.179688 470.460938 449.160156 C 470.460938 451.140625 471 452.640625 472.078125 453.839844 C 473.160156 454.980469 474.601562 455.578125 476.398438 455.578125 C 478.199219 455.578125 479.640625 454.980469 480.71875 453.839844 C 481.738281 452.578125 482.28125 451.019531 482.28125 449.101562 Z M 482.28125 449.101562 " fill-opacity="1" fill-rule="nonzero"/></svg>