<svg xmlns="http://www.w3.org/2000/svg" xmlns:xlink="http://www.w3.org/1999/xlink" width="1000" zoomAndPan="magnify" viewBox="0 0 750 749.999995" height="1000" preserveAspectRatio="xMidYMid meet" version="1.0"><defs><clipPath id="2878a46104"><path d="M 307.21875 225 L 442.753906 225 L 442.753906 525 L 307.21875 525 Z M 307.21875 225 " clip-rule="nonzero"/></clipPath></defs><rect x="-75" width="900" fill="#ffffff" y="-74.999999" height="899.999994" fill-opacity="1"/><rect x="-75" width="900" fill="#ffffff" y="-74.999999" height="899.999994" fill-opacity="1"/><g clip-path="url(#2878a46104)"><path fill="#393536" d="M 442.527344 252 L 422.285156 240.320312 L 415.992188 236.683594 L 395.757812 225.003906 L 375.519531 236.683594 L 368.773438 240.574219 L 348.539062 252.257812 L 341.796875 256.15625 L 321.558594 267.839844 L 327.457031 271.238281 L 333.75 274.875 L 341.796875 279.523438 L 348.089844 283.160156 L 353.984375 286.558594 L 368.324219 294.839844 L 368.558594 294.976562 L 368.558594 386.378906 C 368.558594 401.441406 363.253906 415.828125 353.984375 427.1875 C 349.121094 433.152344 343.171875 438.277344 336.316406 442.226562 C 335.46875 442.722656 334.613281 443.1875 333.75 443.632812 C 331.691406 444.695312 329.59375 445.648438 327.457031 446.476562 C 326.96875 446.664062 326.484375 446.847656 325.996094 447.027344 C 325.941406 447.046875 325.886719 447.070312 325.832031 447.089844 C 325.46875 447.21875 325.101562 447.339844 324.734375 447.464844 C 324.230469 447.632812 323.730469 447.800781 323.21875 447.957031 C 322.859375 448.070312 322.503906 448.179688 322.148438 448.277344 C 321.066406 448.589844 319.988281 448.871094 318.902344 449.128906 C 318.324219 449.265625 317.742188 449.390625 317.164062 449.515625 C 315.996094 449.75 314.828125 449.960938 313.65625 450.136719 C 313.121094 450.214844 312.589844 450.289062 312.054688 450.351562 C 311.570312 450.410156 311.085938 450.464844 310.589844 450.519531 C 310.503906 450.523438 310.425781 450.53125 310.335938 450.539062 C 309.84375 450.59375 309.351562 450.632812 308.851562 450.667969 C 308.320312 450.707031 307.78125 450.742188 307.246094 450.769531 L 307.21875 450.769531 L 307.21875 471.011719 L 307.246094 471.011719 C 314.058594 470.761719 320.84375 469.6875 327.457031 467.800781 C 327.464844 467.800781 327.476562 467.792969 327.484375 467.792969 C 329.59375 467.195312 331.679688 466.503906 333.75 465.726562 C 333.757812 465.726562 333.769531 465.722656 333.777344 465.714844 C 338.117188 464.101562 342.347656 462.113281 346.4375 459.753906 C 349.050781 458.242188 351.574219 456.597656 353.984375 454.835938 C 353.988281 454.828125 354.003906 454.824219 354.011719 454.816406 C 375.667969 438.992188 388.796875 413.515625 388.796875 386.378906 L 388.796875 283.292969 L 388.558594 283.160156 L 368.324219 271.476562 L 362.03125 267.839844 L 368.773438 263.941406 L 389.011719 252.257812 L 395.757812 248.367188 L 402.050781 252 L 422.292969 263.6875 L 422.519531 263.820312 L 422.519531 386.378906 C 422.519531 428.5625 399.832031 467.875 363.300781 488.964844 C 360.269531 490.714844 357.175781 492.324219 354.011719 493.78125 C 354.003906 493.789062 353.988281 493.789062 353.984375 493.796875 C 347.472656 496.824219 340.710938 499.246094 333.777344 501.039062 C 333.769531 501.039062 333.757812 501.046875 333.75 501.046875 C 331.671875 501.585938 329.585938 502.066406 327.484375 502.492188 L 327.484375 495.597656 C 329.585938 495.144531 331.679688 494.640625 333.75 494.066406 C 333.757812 494.066406 333.769531 494.058594 333.777344 494.058594 C 340.734375 492.140625 347.5 489.546875 353.984375 486.3125 C 353.988281 486.308594 354.003906 486.308594 354.011719 486.300781 C 356.011719 485.3125 357.984375 484.242188 359.925781 483.125 C 394.375 463.230469 415.773438 426.164062 415.773438 386.378906 L 415.773438 267.710938 L 415.546875 267.578125 L 395.304688 255.894531 L 375.070312 267.578125 L 395.3125 279.257812 L 395.539062 279.394531 L 395.539062 386.378906 C 395.539062 417.300781 379.75 446.226562 354.011719 463.007812 C 354.003906 463.015625 353.988281 463.023438 353.984375 463.03125 C 352.621094 463.917969 351.226562 464.777344 349.808594 465.59375 C 344.695312 468.542969 339.328125 470.984375 333.777344 472.882812 C 333.769531 472.882812 333.757812 472.890625 333.75 472.890625 C 331.683594 473.609375 329.59375 474.242188 327.484375 474.792969 C 327.476562 474.792969 327.464844 474.800781 327.457031 474.800781 C 320.863281 476.550781 314.085938 477.558594 307.246094 477.792969 L 307.21875 477.792969 L 307.21875 525.023438 L 307.246094 525.023438 C 308.101562 525.003906 308.964844 524.976562 309.824219 524.945312 C 310.660156 524.910156 311.503906 524.871094 312.339844 524.816406 C 313.15625 524.769531 313.972656 524.714844 314.78125 524.648438 C 314.828125 524.648438 314.867188 524.648438 314.910156 524.640625 C 315.488281 524.59375 316.070312 524.546875 316.648438 524.492188 C 316.691406 524.492188 316.730469 524.484375 316.765625 524.480469 C 317.082031 524.453125 317.398438 524.425781 317.714844 524.390625 C 318.03125 524.355469 318.347656 524.328125 318.660156 524.289062 C 319.246094 524.230469 319.828125 524.160156 320.40625 524.09375 C 321.195312 524.007812 321.976562 523.90625 322.769531 523.792969 C 323.402344 523.710938 324.027344 523.621094 324.65625 523.523438 C 325.210938 523.4375 325.75 523.359375 326.296875 523.257812 C 326.691406 523.203125 327.089844 523.136719 327.484375 523.070312 L 327.484375 523.0625 C 329.578125 522.710938 331.671875 522.308594 333.75 521.847656 C 333.757812 521.847656 333.769531 521.839844 333.777344 521.839844 L 333.777344 521.847656 C 337.214844 521.09375 340.621094 520.210938 343.996094 519.191406 C 344.871094 518.933594 345.742188 518.664062 346.609375 518.382812 C 347.207031 518.195312 347.800781 517.996094 348.390625 517.789062 C 349.019531 517.578125 349.648438 517.363281 350.269531 517.140625 C 351.519531 516.699219 352.769531 516.242188 354.011719 515.765625 L 354.011719 515.75 C 360.695312 513.1875 367.175781 510.085938 373.417969 506.488281 C 416.1875 481.789062 442.757812 435.765625 442.757812 386.378906 L 442.757812 252.136719 L 442.527344 252 " fill-opacity="1" fill-rule="nonzero"/></g></svg>